# Blender v3.2.0 OBJ File: ''
# www.blender.org
mtllib VeilOfMistsCloud.mtl
o Veil_of_Mists_(Cloud)
v -0.429878 0.078990 -3.449806
v -0.460919 0.078990 -3.605917
v -0.073856 0.078990 -3.502647
v -3.224507 0.078990 1.212731
v -3.224507 0.463843 1.212731
v -3.103255 0.463843 1.551675
v -3.103255 0.078990 1.551675
v 3.335775 0.078990 2.185864
v 3.520818 0.078990 1.877157
v 3.661257 0.078990 1.952199
v -3.312005 0.078990 0.863541
v -3.312005 0.463843 0.863541
v 3.121297 0.078990 2.474981
v 3.468077 0.078990 2.274367
v 0.645320 0.078990 -3.502647
v 1.032383 0.078990 -3.605917
v 1.001341 0.078990 -3.449806
v -3.364846 0.078990 0.507519
v -3.364846 0.463843 0.507519
v 1.350532 0.078990 -3.362308
v 1.396742 0.078990 -3.514701
v 2.879597 0.078990 2.741796
v 3.244358 0.078990 2.576041
v -3.382527 0.078990 0.147981
v -3.382527 0.463843 0.147981
v 2.992109 0.078990 2.854308
v 2.713841 0.078990 3.106557
v -3.364846 0.078990 -0.211657
v -3.364846 0.463843 -0.211657
v 2.412168 0.078990 3.330276
v 2.612781 0.078990 2.983497
v 1.750453 0.078990 -3.388125
v 1.689476 0.078990 -3.241055
v 2.014958 0.078990 -3.087154
v -3.312005 0.078990 -0.567678
v -3.312005 0.463843 -0.567678
v 2.090000 0.078990 3.523456
v 2.323664 0.078990 3.197974
v -3.224507 0.078990 -0.916869
v -3.224507 0.463843 -0.916869
v 2.090000 0.078990 -3.227594
v 2.323664 0.078990 -2.902111
v 1.750453 0.078990 3.683987
v 2.014958 0.078990 3.383017
v -3.103255 0.078990 -1.255813
v -3.103255 0.463843 -1.255813
v 2.412168 0.078990 -3.034414
v 2.612781 0.078990 -2.687634
v 1.396742 0.078990 3.810564
v 1.689476 0.078990 3.536917
v 2.713841 0.078990 -2.810695
v 2.879597 0.078990 -2.445934
v -3.250324 0.078990 1.612653
v -3.089793 0.078990 1.952199
v -3.089793 0.463843 1.952199
v 2.992109 0.078990 -2.558446
v 3.244358 0.078990 -2.280179
v 1.001341 0.078990 3.745668
v 1.350532 0.078990 3.658170
v -2.896613 0.078990 2.274367
v -2.896613 0.463843 2.274367
v 3.121297 0.078990 -2.179118
v 3.468077 0.078990 -1.978505
v -2.672894 0.078990 2.576041
v -2.672894 0.463843 2.576041
v 0.645320 0.078990 3.798509
v 1.032383 0.078990 3.901779
v -2.420645 0.078990 2.854308
v -2.420645 0.463843 2.854308
v 3.335775 0.078990 -1.890002
v 3.661257 0.078990 -1.656337
v 3.520818 0.078990 -1.581295
v -0.429878 0.078990 3.745668
v -0.073856 0.078990 3.798509
v -0.460919 0.078990 3.901779
v -0.089427 0.078990 3.956931
v 0.660891 0.078990 3.956931
v 0.285782 0.078990 3.816190
v 0.285782 0.078990 3.975415
v -2.142378 0.078990 3.106557
v -2.142378 0.463843 3.106557
v 0.285782 0.078990 -3.520327
v -0.089427 0.078990 -3.661068
v 0.660891 0.078990 -3.661068
v 0.285782 0.078990 -3.679553
v -1.840704 0.078990 3.330276
v -1.840704 0.463843 3.330276
v -1.518536 0.078990 3.523456
v -1.518536 0.463843 3.523456
v -3.376901 0.078990 1.258942
v -1.178990 0.078990 3.683987
v -1.178990 0.463843 3.683987
v -3.468117 0.078990 0.894582
v -2.549834 0.078990 -2.179118
v -2.764311 0.078990 -1.890002
v -2.896613 0.078990 -1.978505
v -3.089793 0.078990 -1.656337
v -2.949354 0.078990 -1.581295
v -2.672894 0.078990 -2.280179
v -2.308133 0.078990 -2.445934
v -0.825279 0.078990 3.810564
v -0.825279 0.463843 3.810564
v -2.420645 0.078990 -2.558446
v -2.142378 0.078990 -2.810695
v -3.468117 0.078990 -0.598720
v -2.041318 0.078990 -2.687634
v -1.840704 0.078990 -3.034414
v -3.376901 0.078990 -0.963079
v -0.460919 0.463843 3.901779
v -1.752201 0.078990 -2.902111
v -1.518536 0.078990 -3.227594
v -1.443495 0.078990 -3.087154
v -1.178990 0.078990 -3.388125
v -3.250324 0.078990 -1.316791
v -0.779068 0.463843 3.658170
v -0.779068 0.078990 3.658170
v -1.118012 0.078990 3.536917
v -1.118012 0.463843 3.536917
v -1.443495 0.078990 3.383017
v -1.443495 0.463843 3.383017
v -1.118012 0.078990 -3.241055
v -0.825279 0.078990 -3.514701
v -0.779068 0.078990 -3.362308
v -3.523268 0.078990 0.523090
v -3.541752 0.078990 0.147981
v -3.523268 0.078990 -0.227228
v -1.752201 0.078990 3.197974
v -1.752201 0.463843 3.197974
v 3.821788 0.078990 -1.316791
v -2.041318 0.078990 2.983497
v -2.041318 0.463843 2.983497
v -2.308133 0.078990 2.741796
v -2.308133 0.463843 2.741796
v -2.549834 0.078990 2.474981
v -2.549834 0.463843 2.474981
v 3.795971 0.078990 -0.916869
v 3.674718 0.078990 -1.255813
v 3.948364 0.078990 -0.963079
v -2.764311 0.078990 2.185864
v -2.764311 0.463843 2.185864
v 3.883469 0.078990 -0.567678
v 4.039580 0.078990 -0.598720
v -2.949354 0.078990 1.877157
v -2.949354 0.463843 1.877157
v 3.936309 0.078990 -0.211657
v -2.308133 0.463843 -2.445934
v -2.549834 0.463843 -2.179118
v 3.936309 0.078990 0.507519
v 4.039580 0.078990 0.894582
v 3.883469 0.078990 0.863541
v -2.041318 0.463843 -2.687634
v -1.752201 0.463843 -2.902111
v -1.443495 0.463843 -3.087154
v 3.674718 0.078990 1.551675
v 3.795971 0.078990 1.212731
v 3.948364 0.078990 1.258942
v 3.821788 0.078990 1.612653
v -1.118012 0.463843 -3.241055
v 3.953990 0.078990 0.147981
v 4.094731 0.078990 -0.227228
v 4.113215 0.078990 0.147981
v 4.094731 0.078990 0.523090
v -0.779068 0.463843 -3.362308
v 3.948364 0.463843 1.258942
v 3.821788 0.463843 1.612653
v 4.039580 0.463843 0.894582
v -0.089427 0.463843 -3.661068
v -0.460919 0.463843 -3.605917
v -0.073856 0.463843 -3.502647
v 4.094731 0.463843 0.523090
v 0.285782 0.463843 -3.679553
v 0.285782 0.463843 -3.520327
v 4.113215 0.463843 0.147981
v 1.350532 0.463843 3.658170
v 1.396742 0.463843 3.810564
v 1.689476 0.463843 3.536917
v 4.094731 0.463843 -0.227228
v 1.032383 0.463843 3.901779
v 1.001341 0.463843 3.745668
v 2.412168 0.463843 3.330276
v 2.323664 0.463843 3.197974
v 2.090000 0.463843 3.523456
v 4.039580 0.463843 -0.598720
v 3.948364 0.463843 -0.963079
v 0.645320 0.463843 3.798509
v 2.014958 0.463843 3.383017
v 1.750453 0.463843 3.683987
v 1.350532 0.463843 -3.362308
v 1.396742 0.463843 -3.514701
v 1.001341 0.463843 -3.449806
v 0.285782 0.463843 3.816190
v 0.660891 0.463843 3.956931
v 1.689476 0.463843 -3.241055
v 3.821788 0.463843 -1.316791
v 2.014958 0.463843 -3.087154
v 1.750453 0.463843 -3.388125
v -0.073856 0.463843 3.798509
v -0.089427 0.463843 3.956931
v 0.285782 0.463843 3.975415
v 2.323664 0.463843 -2.902111
v 2.090000 0.463843 -3.227594
v 1.032383 0.463843 -3.605917
v 3.674718 0.463843 -1.255813
v -3.468117 0.463843 0.894582
v -3.376901 0.463843 1.258942
v 2.612781 0.463843 -2.687634
v 2.412168 0.463843 -3.034414
v 3.795971 0.463843 -0.916869
v 2.879597 0.463843 -2.445934
v 2.713841 0.463843 -2.810695
v 3.883469 0.463843 -0.567678
v -3.523268 0.463843 0.523090
v -3.250324 0.463843 1.612653
v 3.936309 0.463843 -0.211657
v 3.121297 0.463843 -2.179118
v 3.244358 0.463843 -2.280179
v 3.953990 0.463843 0.147981
v 3.335775 0.463843 -1.890002
v 3.468077 0.463843 -1.978505
v 3.936309 0.463843 0.507519
v -3.376901 0.463843 -0.963079
v 3.661257 0.463843 -1.656337
v 3.520818 0.463843 -1.581295
v 2.992109 0.463843 -2.558446
v -3.250324 0.463843 -1.316791
v 3.883469 0.463843 0.863541
v 3.795971 0.463843 1.212731
v 3.674718 0.463843 1.551675
v -3.541752 0.463843 0.147981
v -3.523268 0.463843 -0.227228
v -3.468117 0.463843 -0.598720
v 0.645320 0.463843 -3.502647
v 0.660891 0.463843 -3.661068
v -2.949354 0.463843 -1.581295
v -2.896613 0.463843 -1.978505
v -3.089793 0.463843 -1.656337
v -2.764311 0.463843 -1.890002
v -2.672894 0.463843 -2.280179
v -2.142378 0.463843 -2.810695
v -1.840704 0.463843 -3.034414
v -1.518536 0.463843 -3.227594
v -2.420645 0.463843 -2.558446
v 2.713841 0.463843 3.106557
v -1.178990 0.463843 -3.388125
v -0.825279 0.463843 -3.514701
v 2.992109 0.463843 2.854308
v -0.429878 0.463843 -3.449806
v 3.244358 0.463843 2.576041
v 3.468077 0.463843 2.274367
v 3.661257 0.463843 1.952199
v -0.429878 0.463843 3.745668
v 3.520818 0.463843 1.877157
v 3.335775 0.463843 2.185864
v 3.121297 0.463843 2.474981
v 2.879597 0.463843 2.741796
v 2.612781 0.463843 2.983497
vn 0.0000 -1.0000 0.0000
vn 0.9416 0.0000 -0.3368
vn 0.9700 0.0000 -0.2431
vn 0.9892 0.0000 -0.1468
vn 0.9988 0.0000 -0.0491
vn 0.9988 0.0000 0.0491
vn 0.9892 0.0000 0.1468
vn 0.9700 0.0000 0.2431
vn 0.9416 0.0000 0.3368
vn -0.9041 0.0000 0.4274
vn -0.8576 0.0000 0.5143
vn -0.8032 0.0000 0.5957
vn -0.7409 0.0000 0.6716
vn -0.6716 0.0000 0.7409
vn -0.5957 0.0000 0.8032
vn -0.5143 0.0000 0.8576
vn -0.4274 0.0000 0.9041
vn -0.3369 0.0000 0.9415
vn -0.2428 0.0000 0.9701
vn -0.2429 0.0000 0.9701
vn 0.3368 0.0000 -0.9416
vn 0.4275 0.0000 -0.9040
vn 0.5141 0.0000 -0.8577
vn 0.5958 0.0000 -0.8031
vn 0.6714 0.0000 -0.7411
vn 0.7411 0.0000 -0.6714
vn 0.8031 0.0000 -0.5958
vn 0.8577 0.0000 -0.5141
vn 0.9040 0.0000 -0.4275
vn 0.7411 0.0000 0.6714
vn 0.6714 0.0000 0.7411
vn 0.5958 0.0000 0.8031
vn 0.5141 0.0000 0.8577
vn 0.4275 0.0000 0.9040
vn 0.3368 0.0000 0.9416
vn 0.2431 0.0000 0.9700
vn 0.9415 0.0000 0.3369
vn 0.9701 0.0000 0.2428
vn 0.0000 1.0000 0.0000
vn 0.9701 0.0000 0.2429
vn 0.9988 0.0000 0.0492
vn 0.9988 0.0000 -0.0492
vn 0.9701 0.0000 -0.2429
vn 0.9415 0.0000 -0.3369
vn 0.9041 0.0000 -0.4274
vn -0.9040 0.0000 0.4275
vn -0.9416 0.0000 0.3368
vn -0.9700 0.0000 0.2431
vn -0.9892 0.0000 0.1468
vn -0.9988 0.0000 0.0491
vn -0.9988 0.0000 -0.0491
vn -0.9892 0.0000 -0.1468
vn -0.9700 0.0000 -0.2431
vn -0.9416 0.0000 -0.3368
vn -0.9040 0.0000 -0.4275
vn 0.0492 0.0000 0.9988
vn 0.1469 0.0000 0.9892
vn 0.1468 0.0000 0.9892
vn 0.2428 0.0000 0.9701
vn 0.2429 0.0000 0.9701
vn 0.3369 0.0000 0.9415
vn 0.4274 0.0000 0.9041
vn 0.5143 0.0000 0.8576
vn 0.5957 0.0000 0.8032
vn 0.6716 0.0000 0.7409
vn 0.8576 0.0000 -0.5143
vn 0.7409 0.0000 0.6716
vn 0.8032 0.0000 -0.5957
vn 0.8032 0.0000 0.5957
vn 0.7409 0.0000 -0.6716
vn 0.8576 0.0000 0.5143
vn 0.6716 0.0000 -0.7409
vn 0.9041 0.0000 0.4274
vn 0.5957 0.0000 -0.8032
vn 0.5143 0.0000 -0.8576
vn -0.1468 0.0000 0.9892
vn -0.1469 0.0000 0.9892
vn -0.0492 0.0000 0.9988
vn 0.2429 0.0000 -0.9701
vn 0.0491 0.0000 -0.9988
vn 0.1468 0.0000 -0.9892
vn 0.0492 0.0000 -0.9988
vn 0.2431 0.0000 -0.9700
vn -0.0492 0.0000 -0.9988
vn -0.1468 0.0000 -0.9892
vn -0.8577 0.0000 -0.5141
vn -0.8031 0.0000 -0.5958
vn -0.7411 0.0000 -0.6714
vn 0.0491 0.0000 0.9988
vn -0.6714 0.0000 -0.7411
vn -0.0491 0.0000 0.9988
vn -0.5958 0.0000 -0.8031
vn -0.2431 0.0000 0.9700
vn -0.5141 0.0000 -0.8577
vn -0.3368 0.0000 0.9416
vn -0.4275 0.0000 -0.9040
vn -0.4275 0.0000 0.9040
vn -0.3368 0.0000 -0.9416
vn -0.5141 0.0000 0.8577
vn -0.2431 0.0000 -0.9700
vn -0.5958 0.0000 0.8031
vn 0.4274 0.0000 -0.9041
vn -0.6714 0.0000 0.7411
vn -0.0491 0.0000 -0.9988
vn -0.9041 0.0000 -0.4274
vn -0.7411 0.0000 0.6714
vn 0.3369 0.0000 -0.9415
vn -0.9415 0.0000 -0.3369
vn -0.8031 0.0000 0.5958
vn -0.9701 0.0000 -0.2429
vn -0.8577 0.0000 0.5141
vn -0.9988 0.0000 -0.0492
vn -0.9988 0.0000 0.0492
vn -0.2429 0.0000 -0.9701
vn -0.9701 0.0000 0.2429
vn -0.3369 0.0000 -0.9415
vn -0.4274 0.0000 -0.9041
vn -0.9415 0.0000 0.3369
vn -0.5143 0.0000 -0.8576
vn -0.5957 0.0000 -0.8032
vn -0.6716 0.0000 -0.7409
vn -0.7409 0.0000 -0.6716
vn -0.8032 0.0000 -0.5957
vn -0.8576 0.0000 -0.5143
vn 0.9040 0.0000 0.4275
vn 0.8577 0.0000 0.5141
vn 0.8031 0.0000 0.5958
usemtl None
s off
f 1//1 2//1 3//1
f 4//2 5//2 6//2
f 4//2 6//2 7//2
f 8//1 9//1 10//1
f 11//3 12//3 5//3
f 11//3 5//3 4//3
f 13//1 8//1 14//1
f 10//1 14//1 8//1
f 15//1 16//1 17//1
f 18//4 19//4 12//4
f 18//4 12//4 11//4
f 20//1 17//1 21//1
f 22//1 13//1 23//1
f 23//1 13//1 14//1
f 19//5 18//5 24//5
f 19//5 24//5 25//5
f 26//1 27//1 22//1
f 23//1 26//1 22//1
f 28//6 29//6 25//6
f 28//6 25//6 24//6
f 27//1 30//1 31//1
f 31//1 22//1 27//1
f 21//1 32//1 33//1
f 34//1 33//1 32//1
f 35//7 36//7 29//7
f 35//7 29//7 28//7
f 30//1 37//1 38//1
f 38//1 31//1 30//1
f 39//8 40//8 36//8
f 39//8 36//8 35//8
f 32//1 41//1 34//1
f 42//1 34//1 41//1
f 37//1 43//1 44//1
f 44//1 38//1 37//1
f 45//9 46//9 40//9
f 45//9 40//9 39//9
f 41//1 47//1 42//1
f 48//1 42//1 47//1
f 43//1 49//1 50//1
f 50//1 44//1 43//1
f 47//1 51//1 48//1
f 52//1 48//1 51//1
f 53//10 54//10 55//10
f 51//1 56//1 52//1
f 56//1 57//1 52//1
f 58//1 59//1 49//1
f 59//1 50//1 49//1
f 54//11 60//11 61//11
f 54//11 61//11 55//11
f 62//1 52//1 57//1
f 57//1 63//1 62//1
f 60//12 64//12 65//12
f 60//12 65//12 61//12
f 66//1 58//1 67//1
f 49//1 67//1 58//1
f 64//13 68//13 69//13
f 64//13 69//13 65//13
f 70//1 62//1 63//1
f 63//1 71//1 70//1
f 72//1 70//1 71//1
f 73//1 74//1 75//1
f 76//1 75//1 74//1
f 66//1 77//1 78//1
f 67//1 77//1 66//1
f 79//1 78//1 77//1
f 80//14 81//14 69//14
f 80//14 69//14 68//14
f 33//1 20//1 21//1
f 82//1 3//1 83//1
f 2//1 83//1 3//1
f 82//1 84//1 15//1
f 83//1 85//1 82//1
f 84//1 82//1 85//1
f 16//1 15//1 84//1
f 21//1 17//1 16//1
f 86//15 87//15 81//15
f 86//15 81//15 80//15
f 88//16 89//16 86//16
f 53//1 90//1 7//1
f 86//16 89//16 87//16
f 11//1 4//1 90//1
f 4//1 7//1 90//1
f 91//17 92//17 89//17
f 91//17 89//17 88//17
f 90//1 93//1 11//1
f 18//1 11//1 93//1
f 94//1 95//1 96//1
f 97//1 96//1 95//1
f 95//1 98//1 97//1
f 96//1 99//1 94//1
f 100//1 94//1 99//1
f 101//18 102//18 92//18
f 101//18 92//18 91//18
f 99//1 103//1 100//1
f 103//1 104//1 100//1
f 28//1 105//1 35//1
f 106//1 100//1 104//1
f 104//1 107//1 106//1
f 39//1 35//1 108//1
f 109//19 102//19 101//19
f 109//20 101//20 75//20
f 110//1 106//1 107//1
f 107//1 111//1 110//1
f 112//1 110//1 111//1
f 111//1 113//1 112//1
f 45//1 39//1 108//1
f 45//1 108//1 114//1
f 97//1 98//1 114//1
f 45//1 114//1 98//1
f 115//21 116//21 117//21
f 115//21 117//21 118//21
f 118//22 117//22 119//22
f 118//22 119//22 120//22
f 121//1 112//1 113//1
f 113//1 122//1 121//1
f 123//1 121//1 122//1
f 2//1 1//1 122//1
f 123//1 122//1 1//1
f 24//1 18//1 124//1
f 93//1 124//1 18//1
f 124//1 125//1 24//1
f 24//1 126//1 28//1
f 126//1 24//1 125//1
f 105//1 28//1 126//1
f 108//1 35//1 105//1
f 120//23 119//23 127//23
f 120//23 127//23 128//23
f 71//1 129//1 72//1
f 130//24 131//24 128//24
f 130//24 128//24 127//24
f 132//25 133//25 131//25
f 132//25 131//25 130//25
f 134//26 135//26 133//26
f 134//26 133//26 132//26
f 136//1 137//1 138//1
f 129//1 138//1 137//1
f 137//1 72//1 129//1
f 73//1 101//1 116//1
f 139//27 140//27 135//27
f 139//27 135//27 134//27
f 141//1 136//1 138//1
f 138//1 142//1 141//1
f 119//1 117//1 91//1
f 101//1 91//1 117//1
f 117//1 116//1 101//1
f 143//28 144//28 140//28
f 143//28 140//28 139//28
f 145//1 141//1 142//1
f 91//1 88//1 119//1
f 127//1 119//1 88//1
f 7//29 6//29 144//29
f 7//29 144//29 143//29
f 100//30 146//30 147//30
f 100//30 147//30 94//30
f 88//1 86//1 127//1
f 130//1 127//1 86//1
f 148//1 149//1 150//1
f 106//31 151//31 146//31
f 106//31 146//31 100//31
f 86//1 80//1 130//1
f 132//1 130//1 80//1
f 110//32 152//32 151//32
f 110//32 151//32 106//32
f 80//1 68//1 132//1
f 68//1 64//1 132//1
f 112//33 153//33 152//33
f 112//33 152//33 110//33
f 154//1 155//1 156//1
f 156//1 157//1 154//1
f 10//1 9//1 157//1
f 154//1 157//1 9//1
f 134//1 132//1 64//1
f 64//1 60//1 134//1
f 121//34 158//34 153//34
f 121//34 153//34 112//34
f 155//1 150//1 156//1
f 159//1 145//1 160//1
f 142//1 160//1 145//1
f 160//1 161//1 159//1
f 159//1 162//1 148//1
f 162//1 159//1 161//1
f 149//1 148//1 162//1
f 156//1 150//1 149//1
f 123//35 163//35 158//35
f 123//35 158//35 121//35
f 139//1 134//1 60//1
f 60//1 54//1 139//1
f 143//1 139//1 54//1
f 54//1 53//1 143//1
f 7//1 143//1 53//1
f 79//1 76//1 78//1
f 1//36 163//36 123//36
f 75//1 101//1 73//1
f 74//1 78//1 76//1
f 157//37 156//37 164//37
f 157//37 164//37 165//37
f 166//38 164//38 156//38
f 167//39 168//39 169//39
f 166//40 156//40 149//40
f 149//7 162//7 170//7
f 149//7 170//7 166//7
f 171//39 167//39 172//39
f 162//41 161//41 173//41
f 162//41 173//41 170//41
f 174//39 175//39 176//39
f 160//42 177//42 173//42
f 160//42 173//42 161//42
f 178//39 175//39 179//39
f 180//39 181//39 182//39
f 142//4 183//4 177//4
f 142//4 177//4 160//4
f 183//43 138//43 184//43
f 185//39 178//39 179//39
f 182//39 186//39 187//39
f 188//39 189//39 190//39
f 138//43 183//43 142//43
f 191//39 192//39 185//39
f 174//39 179//39 175//39
f 187//39 176//39 175//39
f 193//39 189//39 188//39
f 129//44 194//44 138//44
f 138//44 194//44 184//44
f 195//39 196//39 193//39
f 191//39 197//39 198//39
f 198//39 199//39 191//39
f 192//39 191//39 199//39
f 178//39 185//39 192//39
f 71//45 194//45 129//45
f 200//39 201//39 195//39
f 202//39 190//39 189//39
f 203//46 72//46 137//46
f 204//39 205//39 12//39
f 5//39 205//39 6//39
f 206//39 207//39 200//39
f 189//39 193//39 196//39
f 203//47 137//47 136//47
f 203//47 136//47 208//47
f 19//39 204//39 12//39
f 209//39 210//39 206//39
f 196//39 195//39 201//39
f 208//48 136//48 141//48
f 208//48 141//48 211//48
f 25//39 212//39 19//39
f 5//39 12//39 205//39
f 213//39 6//39 205//39
f 211//49 141//49 145//49
f 211//49 145//49 214//49
f 215//39 216//39 209//39
f 201//39 200//39 207//39
f 214//50 145//50 159//50
f 214//50 159//50 217//50
f 218//39 219//39 215//39
f 207//39 206//39 210//39
f 148//51 220//51 217//51
f 148//51 217//51 159//51
f 40//39 221//39 36//39
f 194//39 222//39 223//39
f 216//39 224//39 209//39
f 210//39 209//39 224//39
f 225//39 221//39 46//39
f 150//52 226//52 220//52
f 150//52 220//52 148//52
f 155//53 227//53 226//53
f 155//53 226//53 150//53
f 40//39 46//39 221//39
f 154//54 228//54 227//54
f 154//54 227//54 155//54
f 203//39 194//39 223//39
f 223//39 222//39 218//39
f 219//39 218//39 222//39
f 216//39 215//39 219//39
f 9//55 228//55 154//55
f 204//39 19//39 212//39
f 229//39 212//39 25//39
f 29//39 230//39 25//39
f 221//39 231//39 36//39
f 29//39 36//39 231//39
f 229//39 25//39 230//39
f 231//39 230//39 29//39
f 199//56 79//56 77//56
f 199//56 77//56 192//56
f 77//57 67//57 178//57
f 77//58 178//58 192//58
f 169//39 172//39 167//39
f 232//39 233//39 172//39
f 232//39 190//39 202//39
f 202//39 233//39 232//39
f 171//39 172//39 233//39
f 118//39 102//39 115//39
f 178//59 49//59 175//59
f 46//39 234//39 225//39
f 67//60 49//60 178//60
f 120//39 92//39 118//39
f 235//39 236//39 237//39
f 187//61 49//61 43//61
f 147//39 235//39 237//39
f 49//61 187//61 175//61
f 128//39 89//39 120//39
f 146//39 238//39 147//39
f 234//39 237//39 236//39
f 225//39 234//39 236//39
f 131//39 87//39 128//39
f 102//39 118//39 92//39
f 43//62 37//62 182//62
f 43//62 182//62 187//62
f 151//39 239//39 146//39
f 92//39 120//39 89//39
f 133//39 81//39 131//39
f 180//63 37//63 30//63
f 152//39 240//39 151//39
f 235//39 147//39 238//39
f 135//39 65//39 133//39
f 89//39 128//39 87//39
f 37//63 180//63 182//63
f 153//39 241//39 152//39
f 238//39 146//39 242//39
f 140//39 61//39 135//39
f 87//39 131//39 81//39
f 180//64 27//64 243//64
f 158//39 244//39 153//39
f 242//39 146//39 239//39
f 144//39 55//39 140//39
f 81//39 133//39 69//39
f 30//64 27//64 180//64
f 163//39 245//39 158//39
f 239//39 151//39 240//39
f 246//65 27//65 26//65
f 6//39 213//39 144//39
f 55//39 61//39 140//39
f 55//39 144//39 213//39
f 61//39 65//39 135//39
f 69//39 133//39 65//39
f 27//65 246//65 243//65
f 163//39 247//39 245//39
f 241//39 153//39 244//39
f 240//39 152//39 241//39
f 168//39 245//39 247//39
f 247//39 169//39 168//39
f 71//45 222//45 194//45
f 244//39 158//39 245//39
f 71//66 63//66 219//66
f 71//66 219//66 222//66
f 246//67 26//67 248//67
f 23//67 248//67 26//67
f 63//68 57//68 216//68
f 63//68 216//68 219//68
f 14//69 249//69 23//69
f 208//39 184//39 203//39
f 216//70 56//70 224//70
f 23//69 249//69 248//69
f 57//70 56//70 216//70
f 183//39 184//39 211//39
f 10//71 250//71 249//71
f 214//39 183//39 211//39
f 10//71 249//71 14//71
f 56//72 51//72 210//72
f 56//72 210//72 224//72
f 173//39 177//39 217//39
f 208//39 211//39 184//39
f 194//39 203//39 184//39
f 10//73 157//73 165//73
f 51//74 47//74 207//74
f 51//74 207//74 210//74
f 10//73 165//73 250//73
f 228//39 164//39 227//39
f 227//39 164//39 226//39
f 47//75 41//75 201//75
f 47//75 201//75 207//75
f 76//76 198//76 109//76
f 76//77 109//77 75//77
f 79//78 199//78 198//78
f 79//78 198//78 76//78
f 164//39 228//39 165//39
f 166//39 226//39 164//39
f 21//79 202//79 189//79
f 74//80 197//80 191//80
f 74//80 191//80 78//80
f 202//79 21//79 16//79
f 73//81 251//81 197//81
f 73//81 197//81 74//81
f 183//39 214//39 177//39
f 214//39 217//39 177//39
f 220//39 170//39 217//39
f 226//39 166//39 220//39
f 170//39 220//39 166//39
f 173//39 217//39 170//39
f 16//81 84//81 233//81
f 16//81 233//81 202//81
f 84//82 85//82 171//82
f 84//82 171//82 233//82
f 116//83 115//83 251//83
f 116//83 251//83 73//83
f 85//84 83//84 167//84
f 85//84 167//84 171//84
f 251//39 109//39 197//39
f 109//39 198//39 197//39
f 83//85 2//85 168//85
f 83//85 168//85 167//85
f 228//55 9//55 252//55
f 252//86 9//86 8//86
f 252//86 8//86 253//86
f 251//39 115//39 102//39
f 109//39 251//39 102//39
f 1//36 247//36 163//36
f 253//87 8//87 13//87
f 253//87 13//87 254//87
f 3//58 169//58 247//58
f 3//58 247//58 1//58
f 249//39 250//39 253//39
f 254//88 13//88 22//88
f 254//88 22//88 255//88
f 82//89 172//89 169//89
f 82//89 169//89 3//89
f 31//90 256//90 255//90
f 31//90 255//90 22//90
f 254//39 249//39 253//39
f 228//39 252//39 165//39
f 15//91 232//91 172//91
f 15//91 172//91 82//91
f 38//92 181//92 256//92
f 38//92 256//92 31//92
f 17//76 190//76 232//76
f 17//76 232//76 15//76
f 255//39 248//39 254//39
f 252//39 253//39 250//39
f 165//39 252//39 250//39
f 20//93 188//93 190//93
f 20//93 190//93 17//93
f 44//94 186//94 181//94
f 44//94 181//94 38//94
f 256//39 243//39 255//39
f 33//95 193//95 188//95
f 33//95 188//95 20//95
f 50//96 176//96 186//96
f 50//96 186//96 44//96
f 181//39 180//39 256//39
f 249//39 254//39 248//39
f 34//97 195//97 193//97
f 34//97 193//97 33//97
f 59//98 174//98 176//98
f 59//98 176//98 50//98
f 248//39 255//39 246//39
f 186//39 182//39 181//39
f 42//99 200//99 195//99
f 42//99 195//99 34//99
f 58//100 179//100 174//100
f 58//100 174//100 59//100
f 176//39 187//39 186//39
f 180//39 243//39 256//39
f 246//39 255//39 243//39
f 48//101 206//101 200//101
f 48//101 200//101 42//101
f 66//85 185//85 179//85
f 66//85 179//85 58//85
f 41//102 32//102 196//102
f 41//102 196//102 201//102
f 52//103 209//103 206//103
f 52//103 206//103 48//103
f 185//104 66//104 78//104
f 185//104 78//104 191//104
f 97//105 114//105 225//105
f 97//105 225//105 236//105
f 62//106 215//106 209//106
f 62//106 209//106 52//106
f 32//107 21//107 189//107
f 32//107 189//107 196//107
f 114//108 108//108 221//108
f 114//108 221//108 225//108
f 70//109 218//109 215//109
f 70//109 215//109 62//109
f 221//110 108//110 105//110
f 221//110 105//110 231//110
f 72//111 223//111 218//111
f 72//111 218//111 70//111
f 105//52 126//52 230//52
f 105//52 230//52 231//52
f 126//112 125//112 229//112
f 126//112 229//112 230//112
f 72//46 203//46 223//46
f 229//113 125//113 124//113
f 229//113 124//113 212//113
f 245//114 2//114 122//114
f 124//49 93//49 204//49
f 124//49 204//49 212//49
f 2//114 245//114 168//114
f 204//115 90//115 205//115
f 122//116 113//116 244//116
f 122//116 244//116 245//116
f 93//115 90//115 204//115
f 113//117 111//117 241//117
f 113//117 241//117 244//117
f 90//118 53//118 213//118
f 90//118 213//118 205//118
f 111//119 107//119 240//119
f 111//119 240//119 241//119
f 55//10 213//10 53//10
f 107//120 104//120 239//120
f 107//120 239//120 240//120
f 104//121 103//121 242//121
f 104//121 242//121 239//121
f 103//122 99//122 238//122
f 103//122 238//122 242//122
f 99//123 96//123 235//123
f 99//123 235//123 238//123
f 235//124 97//124 236//124
f 96//124 97//124 235//124
f 46//125 45//125 234//125
f 98//125 234//125 45//125
f 95//126 237//126 234//126
f 95//126 234//126 98//126
f 94//127 147//127 237//127
f 94//127 237//127 95//127
