# This file uses centimeters as units for non-parametric coordinates.

mtllib spell_token.mtl
g default
v 0.000000 -0.001116 0.000000
v 0.000000 0.698884 0.000000
v 2.954422 0.103874 -0.520942
v 2.940516 0.051379 -0.518490
v 2.902527 0.012950 -0.511791
v 2.850632 -0.001116 -0.502641
v 2.819077 0.103874 -1.026058
v 2.805809 0.051379 -1.021228
v 2.769559 0.012950 -1.008035
v 2.720042 -0.001116 -0.990012
v 2.598076 0.103874 -1.499997
v 2.585848 0.051379 -1.492937
v 2.552440 0.012950 -1.473650
v 2.506805 -0.001116 -1.447302
v 2.298133 0.103874 -1.928360
v 2.287317 0.051379 -1.919284
v 2.257766 0.012950 -1.894488
v 2.217399 -0.001116 -1.860616
v 1.928363 0.103874 -2.298131
v 1.919287 0.051379 -2.287314
v 1.894491 0.012950 -2.257764
v 1.860619 -0.001116 -2.217397
v 1.500001 0.103874 -2.598073
v 1.492941 0.051379 -2.585845
v 1.473653 0.012950 -2.552438
v 1.447305 -0.001116 -2.506803
v 1.026062 0.103874 -2.819075
v 1.021232 0.051379 -2.805807
v 1.008039 0.012950 -2.769558
v 0.990016 -0.001116 -2.720041
v 0.520946 0.103874 -2.954421
v 0.518494 0.051379 -2.940516
v 0.511796 0.012950 -2.902526
v 0.502645 -0.001116 -2.850632
v 0.000002 0.103874 -2.999998
v 0.000002 0.051379 -2.985878
v 0.000002 0.012950 -2.947303
v 0.000002 -0.001116 -2.894608
v -0.520943 0.103874 -2.954422
v -0.518491 0.051379 -2.940517
v -0.511792 0.012950 -2.902527
v -0.502642 -0.001116 -2.850633
v -1.026058 0.103874 -2.819077
v -1.021229 0.051379 -2.805809
v -1.008036 0.012950 -2.769560
v -0.990013 -0.001116 -2.720042
v -1.499998 0.103874 -2.598076
v -1.492938 0.051379 -2.585848
v -1.473650 0.012950 -2.552440
v -1.447303 -0.001116 -2.506805
v -1.928361 0.103874 -2.298133
v -1.919285 0.051379 -2.287317
v -1.894489 0.012950 -2.257766
v -1.860617 -0.001116 -2.217399
v -2.298131 0.103874 -1.928363
v -2.287315 0.051379 -1.919287
v -2.257764 0.012950 -1.894491
v -2.217397 -0.001116 -1.860619
v -2.598074 0.103874 -1.500000
v -2.585846 0.051379 -1.492940
v -2.552439 0.012950 -1.473653
v -2.506803 -0.001116 -1.447305
v -2.819076 0.103874 -1.026061
v -2.805808 0.051379 -1.021232
v -2.769558 0.012950 -1.008038
v -2.720041 -0.001116 -0.990015
v -2.954422 0.103874 -0.520945
v -2.940516 0.051379 -0.518493
v -2.902527 0.012950 -0.511795
v -2.850632 -0.001116 -0.502644
v -2.999999 0.103874 -0.000001
v -2.985879 0.051379 -0.000001
v -2.947303 0.012950 -0.000001
v -2.894608 -0.001116 -0.000001
v -2.954422 0.103874 0.520943
v -2.940517 0.051379 0.518492
v -2.902527 0.012950 0.511793
v -2.850633 -0.001116 0.502643
v -2.819077 0.103874 1.026059
v -2.805809 0.051379 1.021230
v -2.769560 0.012950 1.008036
v -2.720042 -0.001116 0.990014
v -2.598076 0.103874 1.499999
v -2.585848 0.051379 1.492939
v -2.552440 0.012950 1.473651
v -2.506805 -0.001116 1.447304
v -2.298133 0.103874 1.928362
v -2.287317 0.051379 1.919286
v -2.257766 0.012950 1.894490
v -2.217399 -0.001116 1.860618
v -1.928363 0.103874 2.298132
v -1.919287 0.051379 2.287316
v -1.894491 0.012950 2.257765
v -1.860619 -0.001116 2.217398
v -1.500000 0.103874 2.598075
v -1.492940 0.051379 2.585847
v -1.473652 0.012950 2.552440
v -1.447305 -0.001116 2.506804
v -1.026061 0.103874 2.819077
v -1.021231 0.051379 2.805809
v -1.008038 0.012950 2.769560
v -0.990015 -0.001116 2.720042
v -0.520945 0.103874 2.954422
v -0.518493 0.051379 2.940517
v -0.511794 0.012950 2.902528
v -0.502644 -0.001116 2.850633
v -0.000000 0.103874 2.999999
v -0.000000 0.051379 2.985880
v -0.000000 0.012950 2.947304
v -0.000000 -0.001116 2.894609
v 0.520944 0.103874 2.954423
v 0.518492 0.051379 2.940518
v 0.511794 0.012950 2.902528
v 0.502643 -0.001116 2.850633
v 1.026060 0.103874 2.819077
v 1.021231 0.051379 2.805809
v 1.008037 0.012950 2.769560
v 0.990014 -0.001116 2.720043
v 1.500000 0.103874 2.598076
v 1.492940 0.051379 2.585848
v 1.473652 0.012950 2.552440
v 1.447304 -0.001116 2.506805
v 1.928362 0.103874 2.298133
v 1.919286 0.051379 2.287317
v 1.894490 0.012950 2.257766
v 1.860619 -0.001116 2.217399
v 2.298133 0.103874 1.928363
v 2.287317 0.051379 1.919287
v 2.257766 0.012950 1.894491
v 2.217399 -0.001116 1.860619
v 2.598076 0.103874 1.500000
v 2.585848 0.051379 1.492940
v 2.552440 0.012950 1.473652
v 2.506805 -0.001116 1.447305
v 2.819078 0.103874 1.026060
v 2.805809 0.051379 1.021231
v 2.769560 0.012950 1.008038
v 2.720043 -0.001116 0.990015
v 2.954423 0.103874 0.520945
v 2.940518 0.051379 0.518493
v 2.902529 0.012950 0.511794
v 2.850634 -0.001116 0.502644
v 3.000000 0.103874 0.000000
v 2.985880 0.051379 0.000000
v 2.947305 0.012950 0.000000
v 2.894609 -0.001116 0.000000
v 2.954422 0.593895 -0.520942
v 2.940516 0.646389 -0.518490
v 2.902527 0.684818 -0.511791
v 2.850632 0.698884 -0.502641
v 2.819077 0.593895 -1.026058
v 2.805809 0.646389 -1.021228
v 2.769559 0.684818 -1.008035
v 2.720042 0.698884 -0.990012
v 2.598076 0.593895 -1.499997
v 2.585848 0.646389 -1.492937
v 2.552440 0.684818 -1.473650
v 2.506805 0.698884 -1.447302
v 2.298133 0.593895 -1.928360
v 2.287317 0.646389 -1.919284
v 2.257766 0.684818 -1.894488
v 2.217399 0.698884 -1.860616
v 1.928363 0.593895 -2.298131
v 1.919287 0.646389 -2.287314
v 1.894491 0.684818 -2.257764
v 1.860619 0.698884 -2.217397
v 1.500001 0.593895 -2.598073
v 1.492941 0.646389 -2.585845
v 1.473653 0.684818 -2.552438
v 1.447305 0.698884 -2.506803
v 1.026062 0.593895 -2.819075
v 1.021232 0.646389 -2.805807
v 1.008039 0.684818 -2.769558
v 0.990016 0.698884 -2.720041
v 0.520946 0.593895 -2.954421
v 0.518494 0.646389 -2.940516
v 0.511796 0.684818 -2.902526
v 0.502645 0.698884 -2.850632
v 0.000002 0.593895 -2.999998
v 0.000002 0.646389 -2.985878
v 0.000002 0.684818 -2.947303
v 0.000002 0.698884 -2.894608
v -0.520943 0.593895 -2.954422
v -0.518491 0.646389 -2.940517
v -0.511792 0.684818 -2.902527
v -0.502642 0.698884 -2.850633
v -1.026058 0.593895 -2.819077
v -1.021229 0.646389 -2.805809
v -1.008036 0.684818 -2.769560
v -0.990013 0.698884 -2.720042
v -1.499998 0.593895 -2.598076
v -1.492938 0.646389 -2.585848
v -1.473650 0.684818 -2.552440
v -1.447303 0.698884 -2.506805
v -1.928361 0.593895 -2.298133
v -1.919285 0.646389 -2.287317
v -1.894489 0.684818 -2.257766
v -1.860617 0.698884 -2.217399
v -2.298131 0.593895 -1.928363
v -2.287315 0.646389 -1.919287
v -2.257764 0.684818 -1.894491
v -2.217397 0.698884 -1.860619
v -2.598074 0.593895 -1.500000
v -2.585846 0.646389 -1.492940
v -2.552439 0.684818 -1.473653
v -2.506803 0.698884 -1.447305
v -2.819076 0.593895 -1.026061
v -2.805808 0.646389 -1.021232
v -2.769558 0.684818 -1.008038
v -2.720041 0.698884 -0.990015
v -2.954422 0.593895 -0.520945
v -2.940516 0.646389 -0.518493
v -2.902527 0.684818 -0.511795
v -2.850632 0.698884 -0.502644
v -2.999999 0.593895 -0.000001
v -2.985879 0.646389 -0.000001
v -2.947303 0.684818 -0.000001
v -2.894608 0.698884 -0.000001
v -2.954422 0.593895 0.520943
v -2.940517 0.646389 0.518492
v -2.902527 0.684818 0.511793
v -2.850633 0.698884 0.502643
v -2.819077 0.593895 1.026059
v -2.805809 0.646389 1.021230
v -2.769560 0.684818 1.008036
v -2.720042 0.698884 0.990014
v -2.598076 0.593895 1.499999
v -2.585848 0.646389 1.492939
v -2.552440 0.684818 1.473651
v -2.506805 0.698884 1.447304
v -2.298133 0.593895 1.928362
v -2.287317 0.646389 1.919286
v -2.257766 0.684818 1.894490
v -2.217399 0.698884 1.860618
v -1.928363 0.593895 2.298132
v -1.919287 0.646389 2.287316
v -1.894491 0.684818 2.257765
v -1.860619 0.698884 2.217398
v -1.500000 0.593895 2.598075
v -1.492940 0.646389 2.585847
v -1.473652 0.684818 2.552440
v -1.447305 0.698884 2.506804
v -1.026061 0.593895 2.819077
v -1.021231 0.646389 2.805809
v -1.008038 0.684818 2.769560
v -0.990015 0.698884 2.720042
v -0.520945 0.593895 2.954422
v -0.518493 0.646389 2.940517
v -0.511794 0.684818 2.902528
v -0.502644 0.698884 2.850633
v -0.000000 0.593895 2.999999
v -0.000000 0.646389 2.985880
v -0.000000 0.684818 2.947304
v -0.000000 0.698884 2.894609
v 0.520944 0.593895 2.954423
v 0.518492 0.646389 2.940518
v 0.511794 0.684818 2.902528
v 0.502643 0.698884 2.850633
v 1.026060 0.593895 2.819077
v 1.021231 0.646389 2.805809
v 1.008037 0.684818 2.769560
v 0.990014 0.698884 2.720043
v 1.500000 0.593895 2.598076
v 1.492940 0.646389 2.585848
v 1.473652 0.684818 2.552440
v 1.447304 0.698884 2.506805
v 1.928362 0.593895 2.298133
v 1.919286 0.646389 2.287317
v 1.894490 0.684818 2.257766
v 1.860619 0.698884 2.217399
v 2.298133 0.593895 1.928363
v 2.287317 0.646389 1.919287
v 2.257766 0.684818 1.894491
v 2.217399 0.698884 1.860619
v 2.598076 0.593895 1.500000
v 2.585848 0.646389 1.492940
v 2.552440 0.684818 1.473652
v 2.506805 0.698884 1.447305
v 2.819078 0.593895 1.026060
v 2.805809 0.646389 1.021231
v 2.769560 0.684818 1.008038
v 2.720043 0.698884 0.990015
v 2.954423 0.593895 0.520945
v 2.940518 0.646389 0.518493
v 2.902529 0.684818 0.511794
v 2.850634 0.698884 0.502644
v 3.000000 0.593895 0.000000
v 2.985880 0.646389 0.000000
v 2.947305 0.684818 0.000000
v 2.894609 0.698884 0.000000
vt 0.023863 0.081887
vt 0.016919 0.345056
vt 0.030808 0.081887
vt 0.023863 0.345056
vt 0.037752 0.081887
vt 0.030808 0.345056
vt 0.044696 0.081887
vt 0.037752 0.345056
vt 0.051641 0.081887
vt 0.044696 0.345056
vt 0.058585 0.081887
vt 0.051641 0.345056
vt 0.065530 0.081887
vt 0.058585 0.345056
vt 0.072474 0.081887
vt 0.065530 0.345056
vt 0.079419 0.081887
vt 0.072474 0.345056
vt 0.086363 0.081887
vt 0.079419 0.345056
vt 0.093308 0.081887
vt 0.086363 0.345056
vt 0.100252 0.081887
vt 0.093308 0.345056
vt 0.107196 0.081887
vt 0.100252 0.345056
vt 0.114141 0.081887
vt 0.107196 0.345056
vt 0.121085 0.081887
vt 0.114141 0.345056
vt 0.128030 0.081887
vt 0.121085 0.345056
vt 0.134974 0.081887
vt 0.128030 0.345056
vt 0.141919 0.081887
vt 0.134974 0.345056
vt 0.148863 0.081887
vt 0.141919 0.345056
vt 0.155808 0.081887
vt 0.148863 0.345056
vt 0.162752 0.081887
vt 0.155808 0.345056
vt 0.169696 0.081887
vt 0.162752 0.345056
vt 0.176641 0.081887
vt 0.169696 0.345056
vt 0.183585 0.081887
vt 0.176641 0.345056
vt 0.190530 0.081887
vt 0.183585 0.345056
vt 0.197474 0.081887
vt 0.190530 0.345056
vt 0.204418 0.081887
vt 0.197474 0.345056
vt 0.211363 0.081887
vt 0.204418 0.345056
vt 0.218307 0.081887
vt 0.211363 0.345056
vt 0.225252 0.081887
vt 0.218307 0.345056
vt 0.232196 0.081887
vt 0.225252 0.345056
vt 0.239141 0.081887
vt 0.232196 0.345056
vt 0.246085 0.081887
vt 0.239141 0.345056
vt 0.253029 0.081887
vt 0.246085 0.345056
vt 0.259974 0.081887
vt 0.253029 0.345056
vt 0.266918 0.081887
vt 0.259974 0.345056
vt 0.940945 0.585368
vt 0.926897 0.532935
vt 0.903956 0.483739
vt 0.872820 0.439274
vt 0.834437 0.400891
vt 0.789972 0.369756
vt 0.740776 0.346815
vt 0.688344 0.332765
vt 0.634268 0.328034
vt 0.580193 0.332766
vt 0.527760 0.346815
vt 0.478564 0.369756
vt 0.434099 0.400891
vt 0.395716 0.439274
vt 0.364581 0.483739
vt 0.341638 0.532935
vt 0.327591 0.585368
vt 0.322860 0.639443
vt 0.327591 0.693519
vt 0.341640 0.745951
vt 0.364581 0.795147
vt 0.395715 0.839613
vt 0.434098 0.877996
vt 0.478564 0.909131
vt 0.527760 0.932072
vt 0.580193 0.946120
vt 0.634268 0.950852
vt 0.688344 0.946121
vt 0.740776 0.932072
vt 0.789973 0.909131
vt 0.834437 0.877995
vt 0.872820 0.839611
vt 0.903955 0.795147
vt 0.926897 0.745951
vt 0.940945 0.693519
vt 0.634268 0.626987
vt 0.945676 0.639443
vt 0.926897 0.745786
vt 0.903956 0.794982
vt 0.872820 0.839447
vt 0.834437 0.877830
vt 0.789972 0.908965
vt 0.740776 0.931906
vt 0.688344 0.945956
vt 0.634268 0.950687
vt 0.580193 0.945955
vt 0.527760 0.931905
vt 0.478564 0.908965
vt 0.434099 0.877830
vt 0.395716 0.839447
vt 0.364581 0.794982
vt 0.341638 0.745786
vt 0.327591 0.693353
vt 0.322860 0.639277
vt 0.327591 0.585202
vt 0.341640 0.532770
vt 0.364581 0.483573
vt 0.395715 0.439108
vt 0.434098 0.400725
vt 0.478564 0.369590
vt 0.527760 0.346649
vt 0.580193 0.332601
vt 0.634268 0.327869
vt 0.688344 0.332600
vt 0.740776 0.346649
vt 0.789972 0.369590
vt 0.834437 0.400725
vt 0.872820 0.439109
vt 0.903954 0.483574
vt 0.926897 0.532769
vt 0.940945 0.585202
vt 0.945676 0.639277
vt 0.940945 0.693353
vt 0.634268 0.626821
vt 0.016919 0.081887
vt 0.266918 0.345056
vt 0.266918 0.053718
vt 0.016919 0.053718
vt 0.266918 0.025502
vt 0.952111 0.583852
vt 0.016919 0.025502
vt 0.023863 0.053819
vt 0.937551 0.529511
vt 0.023863 0.025502
vt 0.030808 0.053819
vt 0.913775 0.478523
vt 0.030808 0.025502
vt 0.037752 0.053819
vt 0.881506 0.432439
vt 0.037752 0.025502
vt 0.044696 0.053819
vt 0.841726 0.392658
vt 0.044696 0.025502
vt 0.051641 0.053819
vt 0.795641 0.360390
vt 0.051641 0.025502
vt 0.058585 0.053819
vt 0.744654 0.336614
vt 0.058585 0.025502
vt 0.065530 0.053819
vt 0.690312 0.322053
vt 0.065530 0.025502
vt 0.072474 0.053819
vt 0.634268 0.317150
vt 0.072474 0.025502
vt 0.079419 0.053819
vt 0.578224 0.322053
vt 0.079419 0.025502
vt 0.086363 0.053819
vt 0.523882 0.336614
vt 0.086363 0.025502
vt 0.093308 0.053819
vt 0.472895 0.360390
vt 0.093308 0.025502
vt 0.100252 0.053819
vt 0.426811 0.392658
vt 0.100252 0.025502
vt 0.107196 0.053819
vt 0.387030 0.432439
vt 0.107196 0.025502
vt 0.114141 0.053819
vt 0.354761 0.478523
vt 0.114141 0.025502
vt 0.121085 0.053819
vt 0.330985 0.529511
vt 0.121085 0.025502
vt 0.128030 0.053819
vt 0.316425 0.583852
vt 0.128030 0.025502
vt 0.134974 0.053819
vt 0.311521 0.639897
vt 0.134974 0.025502
vt 0.141919 0.053819
vt 0.316425 0.695941
vt 0.141919 0.025502
vt 0.148863 0.053819
vt 0.330985 0.750282
vt 0.148863 0.025502
vt 0.155808 0.053819
vt 0.354761 0.801270
vt 0.155808 0.025502
vt 0.162752 0.053819
vt 0.387030 0.847354
vt 0.162752 0.025502
vt 0.169696 0.053819
vt 0.426810 0.887135
vt 0.169696 0.025502
vt 0.176641 0.053819
vt 0.472895 0.919403
vt 0.176641 0.025502
vt 0.183585 0.053819
vt 0.523882 0.943179
vt 0.183585 0.025502
vt 0.190530 0.053819
vt 0.578224 0.957740
vt 0.190530 0.025502
vt 0.197474 0.053819
vt 0.634268 0.962643
vt 0.197474 0.025502
vt 0.204418 0.053819
vt 0.690312 0.957740
vt 0.204418 0.025502
vt 0.211363 0.053819
vt 0.744654 0.943179
vt 0.211363 0.025502
vt 0.218307 0.053819
vt 0.795641 0.919403
vt 0.218307 0.025502
vt 0.225252 0.053819
vt 0.841726 0.887135
vt 0.225252 0.025502
vt 0.232196 0.053819
vt 0.881506 0.847354
vt 0.232196 0.025502
vt 0.239141 0.053820
vt 0.913775 0.801270
vt 0.239141 0.025502
vt 0.246085 0.053819
vt 0.937551 0.750282
vt 0.246085 0.025502
vt 0.253029 0.053819
vt 0.952111 0.695941
vt 0.253029 0.025502
vt 0.259974 0.053819
vt 0.957015 0.639897
vt 0.259974 0.025502
vt 0.016919 0.373226
vt 0.266918 0.373226
vt 0.016919 0.401442
vt 0.952111 0.695775
vt 0.266918 0.401442
vt 0.023863 0.373125
vt 0.023863 0.401442
vt 0.937551 0.750117
vt 0.030808 0.373125
vt 0.030808 0.401442
vt 0.913775 0.801104
vt 0.037752 0.373124
vt 0.037752 0.401442
vt 0.881506 0.847189
vt 0.044696 0.373125
vt 0.044696 0.401442
vt 0.841726 0.886970
vt 0.051641 0.373124
vt 0.051641 0.401442
vt 0.795641 0.919238
vt 0.058585 0.373124
vt 0.058585 0.401442
vt 0.744654 0.943014
vt 0.065530 0.373125
vt 0.065530 0.401442
vt 0.690312 0.957575
vt 0.072474 0.373124
vt 0.072474 0.401442
vt 0.634268 0.962478
vt 0.079419 0.373124
vt 0.079419 0.401442
vt 0.578224 0.957575
vt 0.086363 0.373124
vt 0.086363 0.401442
vt 0.523882 0.943014
vt 0.093308 0.373124
vt 0.093308 0.401442
vt 0.472895 0.919238
vt 0.100252 0.373124
vt 0.100252 0.401442
vt 0.426810 0.886970
vt 0.107196 0.373124
vt 0.107196 0.401442
vt 0.387030 0.847189
vt 0.114141 0.373124
vt 0.114141 0.401442
vt 0.354761 0.801104
vt 0.121085 0.373124
vt 0.121085 0.401442
vt 0.330985 0.750117
vt 0.128030 0.373124
vt 0.128030 0.401442
vt 0.316425 0.695775
vt 0.134974 0.373124
vt 0.134974 0.401442
vt 0.311521 0.639731
vt 0.141919 0.373124
vt 0.141919 0.401442
vt 0.316425 0.583687
vt 0.148863 0.373124
vt 0.148863 0.401442
vt 0.330985 0.529345
vt 0.155808 0.373124
vt 0.155808 0.401442
vt 0.354761 0.478358
vt 0.162752 0.373124
vt 0.162752 0.401442
vt 0.387030 0.432274
vt 0.169696 0.373125
vt 0.169696 0.401442
vt 0.426811 0.392493
vt 0.176641 0.373125
vt 0.176641 0.401442
vt 0.472895 0.360224
vt 0.183585 0.373124
vt 0.183585 0.401442
vt 0.523882 0.336449
vt 0.190530 0.373124
vt 0.190530 0.401442
vt 0.578224 0.321888
vt 0.197474 0.373124
vt 0.197474 0.401442
vt 0.634268 0.316985
vt 0.204418 0.373125
vt 0.204418 0.401442
vt 0.690312 0.321888
vt 0.211363 0.373124
vt 0.211363 0.401442
vt 0.744654 0.336449
vt 0.218307 0.373124
vt 0.218307 0.401442
vt 0.795641 0.360224
vt 0.225252 0.373124
vt 0.225252 0.401442
vt 0.841726 0.392493
vt 0.232196 0.373124
vt 0.232196 0.401442
vt 0.881506 0.432274
vt 0.239141 0.373125
vt 0.239141 0.401442
vt 0.913775 0.478358
vt 0.246085 0.373124
vt 0.246085 0.401442
vt 0.937551 0.529345
vt 0.253029 0.373124
vt 0.253029 0.401442
vt 0.952111 0.583687
vt 0.259974 0.373125
vt 0.957015 0.639731
vt 0.259974 0.401442
vn 0.984484 -0.025624 -0.173593
vn 0.939384 -0.025624 -0.341907
vn 0.939384 0.025624 -0.341907
vn 0.984484 0.025624 -0.173593
vn 0.865741 -0.025624 -0.499835
vn 0.865741 0.025624 -0.499835
vn 0.765793 -0.025624 -0.642576
vn 0.765793 0.025624 -0.642576
vn 0.642577 -0.025624 -0.765792
vn 0.642577 0.025624 -0.765793
vn 0.499836 -0.025624 -0.865741
vn 0.499836 0.025624 -0.865741
vn 0.341908 -0.025624 -0.939384
vn 0.341908 0.025624 -0.939384
vn 0.173592 -0.025624 -0.984484
vn 0.173592 0.025624 -0.984484
vn 0.000001 -0.025624 -0.999672
vn 0.000001 0.025624 -0.999672
vn -0.173590 -0.025624 -0.984485
vn -0.173590 0.025624 -0.984485
vn -0.341907 -0.025624 -0.939384
vn -0.341907 0.025624 -0.939384
vn -0.499836 -0.025624 -0.865741
vn -0.499836 0.025624 -0.865741
vn -0.642576 -0.025624 -0.765793
vn -0.642576 0.025624 -0.765793
vn -0.765793 -0.025624 -0.642577
vn -0.765793 0.025624 -0.642577
vn -0.865741 -0.025624 -0.499836
vn -0.865741 0.025624 -0.499836
vn -0.939384 -0.025624 -0.341908
vn -0.939384 0.025624 -0.341908
vn -0.984484 -0.025624 -0.173592
vn -0.984484 0.025624 -0.173592
vn -0.999672 -0.025624 -0.000000
vn -0.999672 0.025624 -0.000000
vn -0.984484 -0.025624 0.173591
vn -0.984484 0.025624 0.173591
vn -0.939384 -0.025624 0.341907
vn -0.939384 0.025624 0.341907
vn -0.865741 -0.025624 0.499835
vn -0.865741 0.025624 0.499835
vn -0.765793 -0.025624 0.642577
vn -0.765793 0.025624 0.642577
vn -0.642577 -0.025624 0.765793
vn -0.642577 0.025624 0.765793
vn -0.499836 -0.025624 0.865741
vn -0.499836 0.025624 0.865741
vn -0.341908 -0.025624 0.939384
vn -0.341908 0.025624 0.939384
vn -0.173591 -0.025624 0.984484
vn -0.173591 0.025624 0.984484
vn -0.000000 -0.025624 0.999672
vn -0.000000 0.025624 0.999672
vn 0.173591 -0.025624 0.984484
vn 0.173591 0.025624 0.984484
vn 0.341908 -0.025624 0.939384
vn 0.341908 0.025624 0.939384
vn 0.499836 -0.025624 0.865741
vn 0.499836 0.025624 0.865741
vn 0.642576 -0.025624 0.765793
vn 0.642576 0.025624 0.765793
vn 0.765793 -0.025624 0.642577
vn 0.765793 0.025624 0.642577
vn 0.865741 -0.025624 0.499836
vn 0.865741 0.025624 0.499836
vn 0.939384 -0.025624 0.341908
vn 0.939384 0.025624 0.341908
vn 0.984484 -0.025624 0.173591
vn 0.984484 0.025624 0.173591
vn 0.999672 -0.025624 -0.000002
vn 0.999672 0.025624 -0.000002
vn 0.009876 -0.999945 -0.003595
vn 0.010350 -0.999945 -0.001825
vn 0.000000 -1.000000 0.000000
vn 0.009102 -0.999945 -0.005255
vn 0.008051 -0.999945 -0.006756
vn 0.006756 -0.999945 -0.008051
vn 0.005255 -0.999945 -0.009102
vn 0.003595 -0.999945 -0.009876
vn 0.001825 -0.999945 -0.010350
vn 0.000000 -0.999945 -0.010510
vn -0.001825 -0.999945 -0.010350
vn -0.003595 -0.999945 -0.009876
vn -0.005255 -0.999945 -0.009102
vn -0.006756 -0.999945 -0.008051
vn -0.008051 -0.999945 -0.006756
vn -0.009102 -0.999945 -0.005255
vn -0.009876 -0.999945 -0.003595
vn -0.010350 -0.999945 -0.001825
vn -0.010510 -0.999945 -0.000000
vn -0.010350 -0.999945 0.001825
vn -0.009876 -0.999945 0.003595
vn -0.009102 -0.999945 0.005255
vn -0.008051 -0.999945 0.006756
vn -0.006756 -0.999945 0.008051
vn -0.005255 -0.999945 0.009102
vn -0.003595 -0.999945 0.009876
vn -0.001825 -0.999945 0.010350
vn 0.000000 -0.999945 0.010510
vn 0.001825 -0.999945 0.010350
vn 0.003595 -0.999945 0.009876
vn 0.005255 -0.999945 0.009102
vn 0.006756 -0.999945 0.008051
vn 0.008051 -0.999945 0.006756
vn 0.009102 -0.999945 0.005255
vn 0.009876 -0.999945 0.003595
vn 0.010350 -0.999945 0.001825
vn 0.010510 -0.999945 -0.000000
vn 0.010350 0.999945 -0.001825
vn 0.009876 0.999945 -0.003595
vn 0.000000 1.000000 0.000000
vn 0.009102 0.999945 -0.005255
vn 0.008051 0.999945 -0.006756
vn 0.006756 0.999945 -0.008051
vn 0.005255 0.999945 -0.009102
vn 0.003595 0.999945 -0.009876
vn 0.001825 0.999945 -0.010350
vn 0.000000 0.999945 -0.010510
vn -0.001825 0.999945 -0.010350
vn -0.003595 0.999945 -0.009876
vn -0.005255 0.999945 -0.009102
vn -0.006756 0.999945 -0.008051
vn -0.008051 0.999945 -0.006756
vn -0.009102 0.999945 -0.005255
vn -0.009876 0.999945 -0.003595
vn -0.010350 0.999945 -0.001825
vn -0.010510 0.999945 -0.000000
vn -0.010350 0.999945 0.001825
vn -0.009876 0.999945 0.003595
vn -0.009102 0.999945 0.005255
vn -0.008051 0.999945 0.006756
vn -0.006756 0.999945 0.008051
vn -0.005255 0.999945 0.009102
vn -0.003595 0.999945 0.009876
vn -0.001825 0.999945 0.010350
vn 0.000000 0.999945 0.010510
vn 0.001825 0.999945 0.010350
vn 0.003595 0.999945 0.009876
vn 0.005255 0.999945 0.009102
vn 0.006756 0.999945 0.008051
vn 0.008051 0.999945 0.006756
vn 0.009102 0.999945 0.005255
vn 0.009876 0.999945 0.003595
vn 0.010350 0.999945 0.001825
vn 0.010510 0.999945 -0.000000
vn 0.503402 -0.859481 -0.088764
vn 0.242346 -0.966172 -0.088207
vn 0.951006 -0.259745 -0.167690
vn 0.816991 -0.494067 -0.297360
vn 0.695037 -0.708452 -0.122555
vn 0.663196 -0.708452 -0.241383
vn 0.223348 -0.966172 -0.128950
vn 0.752944 -0.494066 -0.434712
vn 0.611205 -0.708452 -0.352879
vn 0.197563 -0.966172 -0.165774
vn 0.666018 -0.494066 -0.558855
vn 0.540643 -0.708453 -0.453652
vn 0.165775 -0.966172 -0.197562
vn 0.558856 -0.494066 -0.666017
vn 0.453653 -0.708453 -0.540642
vn 0.128950 -0.966172 -0.223348
vn 0.434713 -0.494066 -0.752943
vn 0.352879 -0.708453 -0.611204
vn 0.174830 -0.859481 -0.480340
vn 0.297361 -0.494066 -0.816991
vn 0.088764 -0.859481 -0.503402
vn 0.167689 -0.259740 -0.951007
vn 0.122554 -0.708454 -0.695035
vn 0.000000 -0.859481 -0.511168
vn 0.000001 -0.259740 -0.965679
vn 0.000001 -0.708454 -0.705757
vn -0.088763 -0.859481 -0.503402
vn -0.167688 -0.259740 -0.951008
vn -0.122553 -0.708454 -0.695035
vn -0.088207 -0.966172 -0.242346
vn -0.297360 -0.494065 -0.816992
vn -0.241383 -0.708453 -0.663196
vn -0.255584 -0.859481 -0.442685
vn -0.434712 -0.494066 -0.752944
vn -0.328572 -0.859481 -0.391578
vn -0.558855 -0.494066 -0.666018
vn -0.197563 -0.966172 -0.165775
vn -0.666017 -0.494067 -0.558855
vn -0.540641 -0.708454 -0.453652
vn -0.223347 -0.966172 -0.128950
vn -0.752943 -0.494066 -0.434712
vn -0.611203 -0.708454 -0.352878
vn -0.480340 -0.859482 -0.174830
vn -0.816992 -0.494066 -0.297361
vn -0.503402 -0.859481 -0.088764
vn -0.951007 -0.259742 -0.167689
vn -0.695036 -0.708453 -0.122554
vn -0.511169 -0.859481 -0.000000
vn -0.965679 -0.259740 -0.000000
vn -0.705758 -0.708453 -0.000000
vn -0.503403 -0.859481 0.088763
vn -0.951008 -0.259740 0.167688
vn -0.695035 -0.708454 0.122553
vn -0.242346 -0.966172 0.088207
vn -0.816992 -0.494066 0.297360
vn -0.663195 -0.708454 0.241382
vn -0.223347 -0.966172 0.128949
vn -0.752944 -0.494065 0.434712
vn -0.611203 -0.708454 0.352878
vn -0.197563 -0.966172 0.165775
vn -0.666018 -0.494065 0.558856
vn -0.540642 -0.708453 0.453652
vn -0.165775 -0.966172 0.197563
vn -0.558856 -0.494066 0.666018
vn -0.453652 -0.708453 0.540642
vn -0.128950 -0.966172 0.223348
vn -0.434713 -0.494066 0.752943
vn -0.352879 -0.708453 0.611204
vn -0.088207 -0.966172 0.242346
vn -0.297361 -0.494066 0.816992
vn -0.241384 -0.708454 0.663195
vn -0.088763 -0.859481 0.503402
vn -0.167689 -0.259740 0.951008
vn -0.122554 -0.708454 0.695035
vn -0.000000 -0.859481 0.511168
vn -0.000000 -0.259740 0.965679
vn -0.000000 -0.708454 0.705757
vn 0.088763 -0.859481 0.503402
vn 0.167688 -0.259740 0.951008
vn 0.122553 -0.708454 0.695035
vn 0.088207 -0.966172 0.242346
vn 0.297361 -0.494066 0.816992
vn 0.241383 -0.708454 0.663195
vn 0.128950 -0.966172 0.223348
vn 0.434712 -0.494066 0.752944
vn 0.352879 -0.708454 0.611204
vn 0.165775 -0.966172 0.197563
vn 0.558856 -0.494065 0.666018
vn 0.453652 -0.708453 0.540642
vn 0.197563 -0.966172 0.165775
vn 0.666018 -0.494064 0.558856
vn 0.540642 -0.708453 0.453653
vn 0.223348 -0.966172 0.128950
vn 0.752944 -0.494066 0.434713
vn 0.611202 -0.708455 0.352878
vn 0.480340 -0.859481 0.174830
vn 0.816991 -0.494067 0.297361
vn 0.503402 -0.859481 0.088764
vn 0.951008 -0.259738 0.167689
vn 0.695035 -0.708454 0.122554
vn 0.511168 -0.859481 -0.000001
vn 0.965679 -0.259739 -0.000002
vn 0.705758 -0.708453 -0.000001
vn 0.503402 0.859481 -0.088764
vn 0.511168 0.859481 -0.000001
vn 0.951006 0.259745 -0.167690
vn 0.965679 0.259739 -0.000002
vn 0.695037 0.708452 -0.122555
vn 0.705758 0.708453 -0.000001
vn 0.242347 0.966171 -0.088207
vn 0.816991 0.494067 -0.297360
vn 0.663196 0.708453 -0.241383
vn 0.223348 0.966172 -0.128950
vn 0.752944 0.494066 -0.434711
vn 0.611205 0.708453 -0.352878
vn 0.197563 0.966172 -0.165775
vn 0.666018 0.494066 -0.558855
vn 0.540642 0.708453 -0.453652
vn 0.165776 0.966172 -0.197563
vn 0.558856 0.494066 -0.666017
vn 0.453653 0.708453 -0.540642
vn 0.128950 0.966171 -0.223349
vn 0.434713 0.494066 -0.752943
vn 0.352879 0.708453 -0.611204
vn 0.174830 0.859481 -0.480341
vn 0.297361 0.494066 -0.816992
vn 0.088764 0.859481 -0.503402
vn 0.122554 0.708454 -0.695035
vn 0.167689 0.259740 -0.951007
vn 0.000000 0.859481 -0.511168
vn 0.000001 0.708454 -0.705757
vn 0.000001 0.259740 -0.965679
vn -0.088763 0.859481 -0.503402
vn -0.122553 0.708454 -0.695035
vn -0.167688 0.259740 -0.951008
vn -0.088207 0.966172 -0.242347
vn -0.297360 0.494066 -0.816992
vn -0.241383 0.708453 -0.663196
vn -0.255584 0.859481 -0.442685
vn -0.434712 0.494066 -0.752944
vn -0.328573 0.859481 -0.391577
vn -0.558855 0.494066 -0.666018
vn -0.197564 0.966171 -0.165776
vn -0.666017 0.494067 -0.558855
vn -0.540641 0.708455 -0.453652
vn -0.223348 0.966172 -0.128950
vn -0.752943 0.494066 -0.434712
vn -0.611203 0.708455 -0.352878
vn -0.480340 0.859481 -0.174830
vn -0.816992 0.494066 -0.297361
vn -0.503402 0.859481 -0.088764
vn -0.695035 0.708454 -0.122554
vn -0.951007 0.259742 -0.167689
vn -0.511169 0.859480 -0.000000
vn -0.705757 0.708454 -0.000000
vn -0.965679 0.259740 -0.000000
vn -0.503403 0.859481 0.088763
vn -0.695035 0.708455 0.122553
vn -0.951008 0.259740 0.167688
vn -0.242347 0.966172 0.088207
vn -0.816992 0.494066 0.297360
vn -0.663194 0.708455 0.241382
vn -0.223348 0.966172 0.128950
vn -0.752944 0.494065 0.434712
vn -0.611203 0.708455 0.352877
vn -0.197563 0.966171 0.165775
vn -0.666018 0.494065 0.558856
vn -0.540642 0.708454 0.453652
vn -0.165776 0.966171 0.197564
vn -0.558855 0.494066 0.666018
vn -0.453652 0.708454 0.540642
vn -0.128951 0.966171 0.223349
vn -0.434712 0.494067 0.752943
vn -0.352879 0.708454 0.611203
vn -0.174830 0.859481 0.480340
vn -0.297361 0.494066 0.816992
vn -0.088764 0.859481 0.503402
vn -0.122554 0.708454 0.695035
vn -0.167689 0.259740 0.951008
vn -0.000000 0.859481 0.511168
vn -0.000000 0.708454 0.705756
vn -0.000000 0.259740 0.965679
vn 0.088763 0.859481 0.503402
vn 0.122553 0.708454 0.695035
vn 0.167688 0.259740 0.951008
vn 0.088207 0.966172 0.242347
vn 0.297361 0.494066 0.816992
vn 0.241383 0.708454 0.663195
vn 0.128950 0.966172 0.223348
vn 0.434712 0.494066 0.752944
vn 0.352878 0.708454 0.611204
vn 0.165775 0.966171 0.197563
vn 0.558855 0.494065 0.666018
vn 0.453652 0.708453 0.540642
vn 0.197564 0.966171 0.165776
vn 0.666018 0.494065 0.558856
vn 0.540642 0.708453 0.453652
vn 0.223349 0.966172 0.128951
vn 0.752944 0.494066 0.434712
vn 0.611202 0.708456 0.352878
vn 0.480341 0.859481 0.174830
vn 0.816991 0.494067 0.297361
vn 0.503403 0.859481 0.088764
vn 0.695034 0.708454 0.122554
vn 0.951008 0.259738 0.167689
s 1
g Spell_Token
usemtl lambert2SG
f 3/147/1 7/1/2 151/4/3 147/2/4
f 7/1/2 11/3/5 155/6/6 151/4/3
f 11/3/5 15/5/7 159/8/8 155/6/6
f 15/5/7 19/7/9 163/10/10 159/8/8
f 19/7/9 23/9/11 167/12/12 163/10/10
f 23/9/11 27/11/13 171/14/14 167/12/12
f 27/11/13 31/13/15 175/16/16 171/14/14
f 31/13/15 35/15/17 179/18/18 175/16/16
f 35/15/17 39/17/19 183/20/20 179/18/18
f 39/17/19 43/19/21 187/22/22 183/20/20
f 43/19/21 47/21/23 191/24/24 187/22/22
f 47/21/23 51/23/25 195/26/26 191/24/24
f 51/23/25 55/25/27 199/28/28 195/26/26
f 55/25/27 59/27/29 203/30/30 199/28/28
f 59/27/29 63/29/31 207/32/32 203/30/30
f 63/29/31 67/31/33 211/34/34 207/32/32
f 67/31/33 71/33/35 215/36/36 211/34/34
f 71/33/35 75/35/37 219/38/38 215/36/36
f 75/35/37 79/37/39 223/40/40 219/38/38
f 79/37/39 83/39/41 227/42/42 223/40/40
f 83/39/41 87/41/43 231/44/44 227/42/42
f 87/41/43 91/43/45 235/46/46 231/44/44
f 91/43/45 95/45/47 239/48/48 235/46/46
f 95/45/47 99/47/49 243/50/50 239/48/48
f 99/47/49 103/49/51 247/52/52 243/50/50
f 103/49/51 107/51/53 251/54/54 247/52/52
f 107/51/53 111/53/55 255/56/56 251/54/54
f 111/53/55 115/55/57 259/58/58 255/56/56
f 115/55/57 119/57/59 263/60/60 259/58/58
f 119/57/59 123/59/61 267/62/62 263/60/60
f 123/59/61 127/61/63 271/64/64 267/62/62
f 127/61/63 131/63/65 275/66/66 271/64/64
f 131/63/65 135/65/67 279/68/68 275/66/66
f 135/65/67 139/67/69 283/70/70 279/68/68
f 139/67/69 143/69/71 287/72/72 283/70/70
f 143/69/71 3/71/1 147/148/4 287/72/72
f 10/74/73 6/73/74 1/108/75
f 14/75/76 10/74/73 1/108/75
f 18/76/77 14/75/76 1/108/75
f 22/77/78 18/76/77 1/108/75
f 26/78/79 22/77/78 1/108/75
f 30/79/80 26/78/79 1/108/75
f 34/80/81 30/79/80 1/108/75
f 38/81/82 34/80/81 1/108/75
f 42/82/83 38/81/82 1/108/75
f 46/83/84 42/82/83 1/108/75
f 50/84/85 46/83/84 1/108/75
f 54/85/86 50/84/85 1/108/75
f 58/86/87 54/85/86 1/108/75
f 62/87/88 58/86/87 1/108/75
f 66/88/89 62/87/88 1/108/75
f 70/89/90 66/88/89 1/108/75
f 74/90/91 70/89/90 1/108/75
f 78/91/92 74/90/91 1/108/75
f 82/92/93 78/91/92 1/108/75
f 86/93/94 82/92/93 1/108/75
f 90/94/95 86/93/94 1/108/75
f 94/95/96 90/94/95 1/108/75
f 98/96/97 94/95/96 1/108/75
f 102/97/98 98/96/97 1/108/75
f 106/98/99 102/97/98 1/108/75
f 110/99/100 106/98/99 1/108/75
f 114/100/101 110/99/100 1/108/75
f 118/101/102 114/100/101 1/108/75
f 122/102/103 118/101/102 1/108/75
f 126/103/104 122/102/103 1/108/75
f 130/104/105 126/103/104 1/108/75
f 134/105/106 130/104/105 1/108/75
f 138/106/107 134/105/106 1/108/75
f 142/107/108 138/106/107 1/108/75
f 146/109/109 142/107/108 1/108/75
f 6/73/74 146/109/109 1/108/75
f 150/145/110 154/110/111 2/146/112
f 154/110/111 158/111/113 2/146/112
f 158/111/113 162/112/114 2/146/112
f 162/112/114 166/113/115 2/146/112
f 166/113/115 170/114/116 2/146/112
f 170/114/116 174/115/117 2/146/112
f 174/115/117 178/116/118 2/146/112
f 178/116/118 182/117/119 2/146/112
f 182/117/119 186/118/120 2/146/112
f 186/118/120 190/119/121 2/146/112
f 190/119/121 194/120/122 2/146/112
f 194/120/122 198/121/123 2/146/112
f 198/121/123 202/122/124 2/146/112
f 202/122/124 206/123/125 2/146/112
f 206/123/125 210/124/126 2/146/112
f 210/124/126 214/125/127 2/146/112
f 214/125/127 218/126/128 2/146/112
f 218/126/128 222/127/129 2/146/112
f 222/127/129 226/128/130 2/146/112
f 226/128/130 230/129/131 2/146/112
f 230/129/131 234/130/132 2/146/112
f 234/130/132 238/131/133 2/146/112
f 238/131/133 242/132/134 2/146/112
f 242/132/134 246/133/135 2/146/112
f 246/133/135 250/134/136 2/146/112
f 250/134/136 254/135/137 2/146/112
f 254/135/137 258/136/138 2/146/112
f 258/136/138 262/137/139 2/146/112
f 262/137/139 266/138/140 2/146/112
f 266/138/140 270/139/141 2/146/112
f 270/139/141 274/140/142 2/146/112
f 274/140/142 278/141/143 2/146/112
f 278/141/143 282/142/144 2/146/112
f 282/142/144 286/143/145 2/146/112
f 286/143/145 290/144/146 2/146/112
f 290/144/146 150/145/110 2/146/112
f 5/152/147 6/73/74 10/74/73 9/155/148
f 3/147/1 4/150/149 8/154/150 7/1/2
f 4/150/151 5/153/147 9/156/152 8/154/150
f 9/155/148 10/74/73 14/75/76 13/158/153
f 7/1/2 8/154/150 12/157/154 11/3/5
f 8/154/150 9/156/152 13/159/155 12/157/154
f 13/158/153 14/75/76 18/76/77 17/161/156
f 11/3/5 12/157/154 16/160/157 15/5/7
f 12/157/154 13/159/155 17/162/158 16/160/157
f 17/161/156 18/76/77 22/77/78 21/164/159
f 15/5/7 16/160/157 20/163/160 19/7/9
f 16/160/157 17/162/158 21/165/161 20/163/160
f 21/164/159 22/77/78 26/78/79 25/167/162
f 19/7/9 20/163/160 24/166/163 23/9/11
f 20/163/160 21/165/161 25/168/164 24/166/163
f 25/167/162 26/78/79 30/79/80 29/170/165
f 23/9/11 24/166/163 28/169/166 27/11/13
f 24/166/163 25/168/164 29/171/165 28/169/166
f 29/170/165 30/79/80 34/80/81 33/173/167
f 27/11/13 28/169/166 32/172/168 31/13/15
f 28/169/166 29/171/165 33/174/167 32/172/169
f 33/173/167 34/80/81 38/81/82 37/176/170
f 31/13/15 32/172/168 36/175/171 35/15/17
f 32/172/169 33/174/167 37/177/170 36/175/172
f 37/176/170 38/81/82 42/82/83 41/179/173
f 35/15/17 36/175/171 40/178/174 39/17/19
f 36/175/172 37/177/170 41/180/173 40/178/175
f 41/179/173 42/82/83 46/83/84 45/182/176
f 39/17/19 40/178/174 44/181/177 43/19/21
f 40/178/175 41/180/173 45/183/178 44/181/177
f 45/182/176 46/83/84 50/84/85 49/185/179
f 43/19/21 44/181/177 48/184/180 47/21/23
f 44/181/177 45/183/178 49/186/179 48/184/180
f 49/185/179 50/84/85 54/85/86 53/188/181
f 47/21/23 48/184/180 52/187/182 51/23/25
f 48/184/180 49/186/179 53/189/181 52/187/182
f 53/188/181 54/85/86 58/86/87 57/191/183
f 51/23/25 52/187/182 56/190/184 55/25/27
f 52/187/182 53/189/181 57/192/185 56/190/184
f 57/191/183 58/86/87 62/87/88 61/194/186
f 55/25/27 56/190/184 60/193/187 59/27/29
f 56/190/184 57/192/185 61/195/188 60/193/187
f 61/194/186 62/87/88 66/88/89 65/197/189
f 59/27/29 60/193/187 64/196/190 63/29/31
f 60/193/187 61/195/188 65/198/189 64/196/190
f 65/197/189 66/88/89 70/89/90 69/200/191
f 63/29/31 64/196/190 68/199/192 67/31/33
f 64/196/190 65/198/189 69/201/191 68/199/193
f 69/200/191 70/89/90 74/90/91 73/203/194
f 67/31/33 68/199/192 72/202/195 71/33/35
f 68/199/193 69/201/191 73/204/194 72/202/196
f 73/203/194 74/90/91 78/91/92 77/206/197
f 71/33/35 72/202/195 76/205/198 75/35/37
f 72/202/196 73/204/194 77/207/197 76/205/199
f 77/206/197 78/91/92 82/92/93 81/209/200
f 75/35/37 76/205/198 80/208/201 79/37/39
f 76/205/199 77/207/197 81/210/202 80/208/201
f 81/209/200 82/92/93 86/93/94 85/212/203
f 79/37/39 80/208/201 84/211/204 83/39/41
f 80/208/201 81/210/202 85/213/205 84/211/204
f 85/212/203 86/93/94 90/94/95 89/215/206
f 83/39/41 84/211/204 88/214/207 87/41/43
f 84/211/204 85/213/205 89/216/208 88/214/207
f 89/215/206 90/94/95 94/95/96 93/218/209
f 87/41/43 88/214/207 92/217/210 91/43/45
f 88/214/207 89/216/208 93/219/211 92/217/210
f 93/218/209 94/95/96 98/96/97 97/221/212
f 91/43/45 92/217/210 96/220/213 95/45/47
f 92/217/210 93/219/211 97/222/214 96/220/213
f 97/221/212 98/96/97 102/97/98 101/224/215
f 95/45/47 96/220/213 100/223/216 99/47/49
f 96/220/213 97/222/214 101/225/217 100/223/216
f 101/224/215 102/97/98 106/98/99 105/227/218
f 99/47/49 100/223/216 104/226/219 103/49/51
f 100/223/216 101/225/217 105/228/218 104/226/220
f 105/227/218 106/98/99 110/99/100 109/230/221
f 103/49/51 104/226/219 108/229/222 107/51/53
f 104/226/220 105/228/218 109/231/221 108/229/223
f 109/230/221 110/99/100 114/100/101 113/233/224
f 107/51/53 108/229/222 112/232/225 111/53/55
f 108/229/223 109/231/221 113/234/224 112/232/226
f 113/233/224 114/100/101 118/101/102 117/236/227
f 111/53/55 112/232/225 116/235/228 115/55/57
f 112/232/226 113/234/224 117/237/229 116/235/228
f 117/236/227 118/101/102 122/102/103 121/239/230
f 115/55/57 116/235/228 120/238/231 119/57/59
f 116/235/228 117/237/229 121/240/232 120/238/231
f 121/239/230 122/102/103 126/103/104 125/242/233
f 119/57/59 120/238/231 124/241/234 123/59/61
f 120/238/231 121/240/232 125/243/235 124/241/234
f 125/242/233 126/103/104 130/104/105 129/245/236
f 123/59/61 124/241/234 128/244/237 127/61/63
f 124/241/234 125/243/235 129/246/238 128/244/237
f 129/245/236 130/104/105 134/105/106 133/248/239
f 127/61/63 128/244/237 132/247/240 131/63/65
f 128/244/237 129/246/238 133/249/241 132/247/240
f 133/248/239 134/105/106 138/106/107 137/251/242
f 131/63/65 132/247/240 136/250/243 135/65/67
f 132/247/240 133/249/241 137/252/242 136/250/243
f 137/251/242 138/106/107 142/107/108 141/254/244
f 135/65/67 136/250/243 140/253/245 139/67/69
f 136/250/243 137/252/242 141/255/244 140/253/246
f 141/254/244 142/107/108 146/109/109 145/257/247
f 139/67/69 140/253/245 144/256/248 143/69/71
f 140/253/246 141/255/244 145/258/247 144/256/249
f 6/73/74 5/152/147 145/257/247 146/109/109
f 5/151/147 4/149/151 144/256/249 145/258/247
f 4/149/149 3/71/1 143/69/71 144/256/248
f 149/262/250 150/145/110 290/144/146 289/367/251
f 147/148/4 148/260/252 288/366/253 287/72/72
f 148/260/254 149/263/250 289/368/251 288/366/255
f 150/145/110 149/262/250 153/266/256 154/110/111
f 149/261/250 148/259/254 152/264/257 153/265/258
f 148/259/252 147/2/4 151/4/3 152/264/257
f 154/110/111 153/266/256 157/269/259 158/111/113
f 153/265/258 152/264/257 156/267/260 157/268/261
f 152/264/257 151/4/3 155/6/6 156/267/260
f 158/111/113 157/269/259 161/272/262 162/112/114
f 157/268/261 156/267/260 160/270/263 161/271/264
f 156/267/260 155/6/6 159/8/8 160/270/263
f 162/112/114 161/272/262 165/275/265 166/113/115
f 161/271/264 160/270/263 164/273/266 165/274/267
f 160/270/263 159/8/8 163/10/10 164/273/266
f 166/113/115 165/275/265 169/278/268 170/114/116
f 165/274/267 164/273/266 168/276/269 169/277/270
f 164/273/266 163/10/10 167/12/12 168/276/269
f 170/114/116 169/278/268 173/281/271 174/115/117
f 169/277/270 168/276/269 172/279/272 173/280/271
f 168/276/269 167/12/12 171/14/14 172/279/272
f 174/115/117 173/281/271 177/284/273 178/116/118
f 173/280/271 172/279/272 176/282/274 177/283/273
f 172/279/272 171/14/14 175/16/16 176/282/275
f 178/116/118 177/284/273 181/287/276 182/117/119
f 177/283/273 176/282/274 180/285/277 181/286/276
f 176/282/275 175/16/16 179/18/18 180/285/278
f 182/117/119 181/287/276 185/290/279 186/118/120
f 181/286/276 180/285/277 184/288/280 185/289/279
f 180/285/278 179/18/18 183/20/20 184/288/281
f 186/118/120 185/290/279 189/293/282 190/119/121
f 185/289/279 184/288/280 188/291/283 189/292/284
f 184/288/281 183/20/20 187/22/22 188/291/283
f 190/119/121 189/293/282 193/296/285 194/120/122
f 189/292/284 188/291/283 192/294/286 193/295/285
f 188/291/283 187/22/22 191/24/24 192/294/286
f 194/120/122 193/296/285 197/299/287 198/121/123
f 193/295/285 192/294/286 196/297/288 197/298/287
f 192/294/286 191/24/24 195/26/26 196/297/288
f 198/121/123 197/299/287 201/302/289 202/122/124
f 197/298/287 196/297/288 200/300/290 201/301/291
f 196/297/288 195/26/26 199/28/28 200/300/290
f 202/122/124 201/302/289 205/305/292 206/123/125
f 201/301/291 200/300/290 204/303/293 205/304/294
f 200/300/290 199/28/28 203/30/30 204/303/293
f 206/123/125 205/305/292 209/308/295 210/124/126
f 205/304/294 204/303/293 208/306/296 209/307/295
f 204/303/293 203/30/30 207/32/32 208/306/296
f 210/124/126 209/308/295 213/311/297 214/125/127
f 209/307/295 208/306/296 212/309/298 213/310/297
f 208/306/296 207/32/32 211/34/34 212/309/299
f 214/125/127 213/311/297 217/314/300 218/126/128
f 213/310/297 212/309/298 216/312/301 217/313/300
f 212/309/299 211/34/34 215/36/36 216/312/302
f 218/126/128 217/314/300 221/317/303 222/127/129
f 217/313/300 216/312/301 220/315/304 221/316/303
f 216/312/302 215/36/36 219/38/38 220/315/305
f 222/127/129 221/317/303 225/320/306 226/128/130
f 221/316/303 220/315/304 224/318/307 225/319/308
f 220/315/305 219/38/38 223/40/40 224/318/307
f 226/128/130 225/320/306 229/323/309 230/129/131
f 225/319/308 224/318/307 228/321/310 229/322/311
f 224/318/307 223/40/40 227/42/42 228/321/310
f 230/129/131 229/323/309 233/326/312 234/130/132
f 229/322/311 228/321/310 232/324/313 233/325/314
f 228/321/310 227/42/42 231/44/44 232/324/313
f 234/130/132 233/326/312 237/329/315 238/131/133
f 233/325/314 232/324/313 236/327/316 237/328/317
f 232/324/313 231/44/44 235/46/46 236/327/316
f 238/131/133 237/329/315 241/332/318 242/132/134
f 237/328/317 236/327/316 240/330/319 241/331/320
f 236/327/316 235/46/46 239/48/48 240/330/319
f 242/132/134 241/332/318 245/335/321 246/133/135
f 241/331/320 240/330/319 244/333/322 245/334/321
f 240/330/319 239/48/48 243/50/50 244/333/322
f 246/133/135 245/335/321 249/338/323 250/134/136
f 245/334/321 244/333/322 248/336/324 249/337/323
f 244/333/322 243/50/50 247/52/52 248/336/325
f 250/134/136 249/338/323 253/341/326 254/135/137
f 249/337/323 248/336/324 252/339/327 253/340/326
f 248/336/325 247/52/52 251/54/54 252/339/328
f 254/135/137 253/341/326 257/344/329 258/136/138
f 253/340/326 252/339/327 256/342/330 257/343/329
f 252/339/328 251/54/54 255/56/56 256/342/331
f 258/136/138 257/344/329 261/347/332 262/137/139
f 257/343/329 256/342/330 260/345/333 261/346/334
f 256/342/331 255/56/56 259/58/58 260/345/333
f 262/137/139 261/347/332 265/350/335 266/138/140
f 261/346/334 260/345/333 264/348/336 265/349/337
f 260/345/333 259/58/58 263/60/60 264/348/336
f 266/138/140 265/350/335 269/353/338 270/139/141
f 265/349/337 264/348/336 268/351/339 269/352/340
f 264/348/336 263/60/60 267/62/62 268/351/339
f 270/139/141 269/353/338 273/356/341 274/140/142
f 269/352/340 268/351/339 272/354/342 273/355/343
f 268/351/339 267/62/62 271/64/64 272/354/342
f 274/140/142 273/356/341 277/359/344 278/141/143
f 273/355/343 272/354/342 276/357/345 277/358/346
f 272/354/342 271/64/64 275/66/66 276/357/345
f 278/141/143 277/359/344 281/362/347 282/142/144
f 277/358/346 276/357/345 280/360/348 281/361/347
f 276/357/345 275/66/66 279/68/68 280/360/348
f 282/142/144 281/362/347 285/365/349 286/143/145
f 281/361/347 280/360/348 284/363/350 285/364/349
f 280/360/348 279/68/68 283/70/70 284/363/351
f 286/143/145 285/365/349 289/367/251 290/144/146
f 285/364/349 284/363/350 288/366/255 289/368/251
f 284/363/351 283/70/70 287/72/72 288/366/253
