# Blender v3.2.0 OBJ File: ''
# www.blender.org
mtllib CloudTemplate.mtl
o Cloud_Template(DoNotScale)_Cloud_Template(DoNotScale).001
v 3.222872 -0.150323 1.334916
v 3.527527 -0.150323 1.461188
v 3.076458 -0.150323 1.644381
v 3.367383 0.150323 -1.799918
v 3.174669 0.150323 -2.121309
v 2.900480 0.150323 -1.938015
v -3.744797 -0.150323 0.744849
v -3.653801 -0.150323 1.108330
v -3.653801 0.150323 1.108330
v -3.744797 0.150323 0.744849
v -3.527529 -0.150323 1.461188
v -3.527529 0.150323 1.461188
v 2.900480 -0.150323 1.938012
v 3.367383 -0.150323 1.799916
v 3.174669 -0.150323 2.121306
v 2.951489 -0.150323 -2.422255
v 2.951489 0.150323 -2.422255
v 3.174669 -0.150323 -2.121309
v -3.367385 -0.150323 1.799916
v -3.367385 0.150323 1.799916
v 2.699849 -0.150323 -2.699852
v 2.699849 0.150323 -2.699852
v 3.421399 -0.150323 0.680511
v 3.471607 -0.150323 0.341883
v 3.799812 -0.150323 0.374253
v 3.744793 -0.150323 0.744849
v 3.488443 -0.150323 0.000049
v 3.653798 -0.150323 1.108330
v 3.338220 -0.150323 1.012624
v 3.471607 -0.150323 -0.341886
v 3.799812 -0.150323 -0.374255
v 3.421399 -0.150323 -0.680513
v 2.121306 -0.150323 -3.174671
v 2.422252 -0.150323 -2.951492
v 2.213003 -0.150323 -2.696544
v 2.466648 -0.150323 -2.466650
v 0.000049 -0.150323 3.818251
v -0.374255 -0.150323 3.799812
v 0.000049 -0.150323 3.488443
v 2.696542 -0.150323 -2.213005
v 2.900480 -0.150323 -1.938015
v 3.367383 -0.150323 -1.799918
v -0.680513 -0.150323 3.421399
v -0.341886 -0.150323 3.471607
v 3.076458 0.150323 -1.644384
v 2.696542 0.150323 -2.213005
v 2.466648 0.150323 -2.466650
v 3.222872 0.150323 -1.334919
v 3.527527 0.150323 -1.461190
v 2.422252 0.150323 -2.951492
v 2.696542 -0.150323 2.213003
v 3.076458 -0.150323 -1.644384
v 3.527527 -0.150323 -1.461190
v 3.222872 -0.150323 -1.334919
v 2.951489 -0.150323 2.422252
v 3.338220 -0.150323 -1.012627
v 3.744793 -0.150323 -0.744851
v 2.699849 -0.150323 2.699849
v 2.466648 -0.150323 2.466648
v -1.108332 -0.150323 -3.653800
v -0.744852 -0.150323 -3.744797
v -1.012627 -0.150323 -3.338223
v 2.213003 -0.150323 2.696542
v 2.422252 -0.150323 2.951489
v -3.174671 -0.150323 2.121306
v -3.174671 0.150323 2.121306
v -0.680513 -0.150323 -3.421401
v -0.341886 0.150323 -3.471610
v -0.374255 0.150323 -3.799814
v -0.680513 0.150323 -3.421401
v -2.422255 -0.150323 -2.951492
v -2.699852 -0.150323 -2.699852
v -2.699852 0.150323 -2.699852
v -2.422255 0.150323 -2.951492
v 1.938012 -0.150323 2.900480
v 2.121306 -0.150323 3.174669
v -0.374255 -0.150323 -3.799814
v 0.000049 -0.150323 -3.818254
v 0.000049 -0.150323 -3.488446
v 1.644381 -0.150323 3.076458
v 1.799916 -0.150323 3.367383
v -2.951492 -0.150323 -2.422255
v -2.951492 0.150323 -2.422255
v 0.680511 -0.150323 -3.421401
v 0.341883 -0.150323 -3.471610
v 0.374253 -0.150323 -3.799814
v 1.012624 -0.150323 -3.338223
v 1.461188 -0.150323 -3.527529
v 1.334916 -0.150323 -3.222875
v -3.174671 -0.150323 -2.121309
v -3.174671 0.150323 -2.121309
v 1.334916 -0.150323 3.222872
v 1.461188 -0.150323 3.527527
v 1.012624 -0.150323 3.338220
v -3.367385 -0.150323 -1.799918
v -3.367385 0.150323 -1.799918
v 1.108330 -0.150323 3.653798
v 0.744849 -0.150323 3.744793
v 1.938012 -0.150323 -2.900482
v 1.644381 -0.150323 -3.076461
v 1.799916 -0.150323 -3.367385
v -3.527529 0.150323 -1.461190
v -3.527529 -0.150323 -1.461190
v -3.653801 -0.150323 -1.108332
v -3.653801 0.150323 -1.108332
v -1.012627 -0.150323 3.338220
v -0.744852 -0.150323 3.744793
v 0.341883 -0.150323 3.471607
v 0.374253 -0.150323 3.799812
v 0.680511 -0.150323 3.421399
v -0.341886 -0.150323 -3.471610
v 0.744849 -0.150323 -3.744797
v 1.108330 -0.150323 -3.653800
v -3.222875 -0.150323 -1.334919
v -3.222875 0.150323 -1.334919
v -3.338223 -0.150323 -1.012627
v -2.900482 -0.150323 1.938012
v -3.076461 -0.150323 -1.644384
v -3.076461 0.150323 -1.644384
v -3.076461 -0.150323 1.644381
v -2.900482 -0.150323 -1.938015
v -2.900482 0.150323 -1.938015
v -3.222875 -0.150323 1.334916
v -2.696544 -0.150323 -2.213005
v -2.696544 0.150323 -2.213005
v -3.338223 -0.150323 1.012624
v -2.466650 -0.150323 -2.466650
v -2.466650 0.150323 -2.466650
v -3.421402 -0.150323 0.680511
v -2.213006 -0.150323 -2.696544
v -2.213006 0.150323 -2.696544
v 0.000049 0.150323 -3.818254
v 0.000049 0.150323 -3.488446
v -1.938015 -0.150323 -2.900482
v -1.938015 0.150323 -2.900482
v -1.644384 -0.150323 -3.076461
v -1.644384 0.150323 -3.076461
v -2.121309 -0.150323 -3.174671
v 1.334916 0.150323 -3.222875
v 1.644381 0.150323 -3.076461
v 1.461188 0.150323 -3.527529
v 1.799916 0.150323 -3.367385
v 1.938012 0.150323 -2.900482
v -1.799918 -0.150323 -3.367385
v -1.461190 -0.150323 -3.527529
v -1.334919 -0.150323 -3.222875
v -3.421402 -0.150323 -0.680513
v -3.744797 -0.150323 -0.744851
v 2.213003 0.150323 -2.696544
v 2.121306 0.150323 -3.174671
v -3.471610 -0.150323 -0.341886
v -3.488446 -0.150323 0.000049
v -3.799815 -0.150323 -0.374255
v -3.799815 -0.150323 0.374253
v -3.471610 -0.150323 0.341883
v -3.818254 -0.150323 0.000049
v -1.108332 -0.150323 3.653798
v -0.744852 0.150323 -3.744797
v 0.341883 0.150323 -3.471610
v 0.374253 0.150323 -3.799814
v 0.744849 0.150323 -3.744797
v 0.680511 0.150323 -3.421401
v 1.108330 0.150323 -3.653800
v 1.012624 0.150323 -3.338223
v 3.653798 -0.150323 -1.108332
v -1.334919 -0.150323 3.222872
v -1.461190 -0.150323 3.527527
v -1.799918 -0.150323 3.367383
v -2.121309 -0.150323 3.174669
v -1.938015 -0.150323 2.900480
v -2.213006 -0.150323 2.696542
v -2.422255 -0.150323 2.951489
v 3.818251 -0.150323 0.000049
v -2.466650 -0.150323 2.466648
v -2.699852 -0.150323 2.699849
v -2.951492 -0.150323 2.422252
v -2.696544 -0.150323 2.213003
v -1.644384 -0.150323 3.076458
v -2.121309 0.150323 -3.174671
v -1.799918 0.150323 -3.367385
v -1.334919 0.150323 -3.222875
v -1.461190 0.150323 -3.527529
v -1.108332 0.150323 -3.653800
v -1.012627 0.150323 -3.338223
v 3.174669 0.150323 2.121306
v 2.951489 0.150323 2.422252
v 3.367383 0.150323 1.799916
v -3.338223 0.150323 -1.012627
v 3.527527 0.150323 1.461188
v 3.653798 0.150323 1.108330
v 3.421399 0.150323 -0.680513
v 3.744793 0.150323 -0.744851
v 3.338220 0.150323 -1.012627
v 3.744793 0.150323 0.744849
v 3.471607 0.150323 -0.341886
v 3.799812 0.150323 -0.374255
v 3.799812 0.150323 0.374253
v 3.818251 0.150323 0.000049
v 3.488443 0.150323 0.000049
v 3.653798 0.150323 -1.108332
v 3.076458 0.150323 1.644381
v 3.222872 0.150323 1.334916
v 2.900480 0.150323 1.938012
v 2.696542 0.150323 2.213003
v 3.471607 0.150323 0.341883
v 3.421399 0.150323 0.680511
v -2.900482 0.150323 1.938012
v 3.338220 0.150323 1.012624
v -3.076461 0.150323 1.644381
v -3.222875 0.150323 1.334916
v -3.338223 0.150323 1.012624
v -3.421402 0.150323 0.680511
v -3.471610 0.150323 0.341883
v 0.000049 0.150323 3.818251
v 0.374253 0.150323 3.799812
v -3.488446 0.150323 0.000049
v 0.744849 0.150323 3.744793
v -3.471610 0.150323 -0.341886
v 1.108330 0.150323 3.653798
v -3.421402 0.150323 -0.680513
v 1.461188 0.150323 3.527527
v 1.799916 0.150323 3.367383
v -2.951492 0.150323 2.422252
v -2.699852 0.150323 2.699849
v -2.422255 0.150323 2.951489
v 2.121306 0.150323 3.174669
v -2.121309 0.150323 3.174669
v 2.422252 0.150323 2.951489
v -1.799918 0.150323 3.367383
v 2.699849 0.150323 2.699849
v -1.461190 0.150323 3.527527
v -1.108332 0.150323 3.653798
v -1.334919 0.150323 3.222872
v -1.644384 0.150323 3.076458
v -1.012627 0.150323 3.338220
v -1.938015 0.150323 2.900480
v -0.744852 0.150323 3.744793
v -2.213006 0.150323 2.696542
v -0.374255 0.150323 3.799812
v -2.466650 0.150323 2.466648
v 2.466648 0.150323 2.466648
v -2.696544 0.150323 2.213003
v -0.341886 0.150323 3.471607
v 0.000049 0.150323 3.488443
v 1.938012 0.150323 2.900480
v 2.213003 0.150323 2.696542
v -0.680513 0.150323 3.421399
v 1.644381 0.150323 3.076458
v 1.334916 0.150323 3.222872
v 1.012624 0.150323 3.338220
v 0.680511 0.150323 3.421399
v 0.341883 0.150323 3.471607
v -3.799815 0.150323 0.374253
v -3.744797 0.150323 -0.744851
v -3.799815 0.150323 -0.374255
v -3.818254 0.150323 0.000049
vn 0.0000 -1.0000 0.0000
vn 0.0000 1.0000 0.0000
vn -0.9701 0.0000 0.2429
vn -0.9415 0.0000 0.3369
vn 0.8032 0.0000 -0.5957
vn -0.9041 0.0000 0.4274
vn 0.7409 0.0000 -0.6716
vn -0.8576 0.0000 0.5143
vn -0.6716 0.0000 -0.7409
vn -0.7409 0.0000 -0.6716
vn -0.8032 0.0000 -0.5957
vn -0.8576 0.0000 -0.5143
vn -0.9041 0.0000 -0.4274
vn -0.9415 0.0000 -0.3369
vn 0.9415 0.0000 0.3370
vn 0.9039 0.0000 0.4277
vn 0.8578 0.0000 0.5141
vn 0.8032 0.0000 0.5957
vn 0.7409 0.0000 0.6716
vn 0.6716 0.0000 0.7409
vn 0.5957 0.0000 0.8032
vn 0.5141 0.0000 0.8578
vn 0.6716 0.0000 -0.7409
vn 0.5957 0.0000 -0.8032
vn -0.5957 0.0000 0.8032
vn -0.6716 0.0000 0.7409
vn 0.4277 0.0000 0.9039
vn -0.7409 0.0000 0.6716
vn 0.3370 0.0000 0.9415
vn -0.8032 0.0000 0.5957
vn -0.8578 0.0000 0.5141
vn 0.8576 0.0000 0.5143
vn -0.9039 0.0000 0.4277
vn 0.9041 0.0000 0.4274
vn 0.9415 0.0000 0.3369
vn 0.9701 0.0000 0.2428
vn 0.5143 0.0000 -0.8576
vn 0.9892 0.0000 0.1469
vn 0.9988 0.0000 0.0492
vn 0.4274 0.0000 -0.9041
vn 0.9988 0.0000 -0.0492
vn 0.3369 0.0000 -0.9415
vn 0.9892 0.0000 -0.1469
vn 0.2429 0.0000 -0.9701
vn 0.2428 0.0000 -0.9701
vn 0.1468 0.0000 -0.9892
vn 0.9701 0.0000 -0.2428
vn 0.0492 0.0000 -0.9988
vn -0.9415 0.0000 0.3370
vn -0.0492 0.0000 -0.9988
vn -0.9700 0.0000 0.2429
vn -0.1468 0.0000 -0.9892
vn -0.2429 0.0000 -0.9701
vn -0.9892 0.0000 0.1467
vn -0.9988 0.0000 0.0492
vn -0.9988 0.0000 -0.0492
vn 0.2429 0.0000 0.9700
vn 0.2430 0.0000 0.9700
vn -0.9892 0.0000 -0.1467
vn 0.1467 0.0000 0.9892
vn -0.9700 0.0000 -0.2429
vn 0.0492 0.0000 0.9988
vn 0.8578 0.0000 -0.5141
vn -0.9415 0.0000 -0.3370
vn -0.0492 0.0000 0.9988
vn 0.9039 0.0000 -0.4277
vn -0.1467 0.0000 0.9892
vn -0.9039 0.0000 -0.4277
vn 0.9415 0.0000 -0.3370
vn -0.2430 0.0000 0.9700
vn -0.2429 0.0000 0.9700
vn -0.8578 0.0000 -0.5141
vn 0.9700 0.0000 -0.2429
vn -0.3370 0.0000 0.9415
vn 0.9892 0.0000 -0.1467
vn -0.4277 0.0000 0.9039
vn 0.1468 0.0000 0.9892
vn 0.1469 0.0000 0.9892
vn -0.5141 0.0000 0.8578
vn 0.2428 0.0000 0.9701
vn 0.9892 0.0000 0.1467
vn 0.3369 0.0000 0.9415
vn 0.9700 0.0000 0.2429
vn -0.2428 0.0000 -0.9701
vn -0.3369 0.0000 -0.9415
vn 0.4274 0.0000 0.9041
vn -0.4274 0.0000 -0.9041
vn -0.5143 0.0000 -0.8576
vn 0.5143 0.0000 0.8576
vn -0.5957 0.0000 -0.8032
vn -0.5143 0.0000 0.8576
vn -0.4274 0.0000 0.9041
vn -0.3369 0.0000 0.9415
vn 0.3370 0.0000 -0.9415
vn 0.4277 0.0000 -0.9039
vn 0.5141 0.0000 -0.8578
vn -0.2428 0.0000 0.9701
vn -0.1469 0.0000 0.9892
vn -0.1468 0.0000 0.9892
vn 0.1467 0.0000 -0.9892
vn 0.2429 0.0000 -0.9700
vn 0.2430 0.0000 -0.9700
vn -0.5141 0.0000 -0.8578
vn -0.4277 0.0000 -0.9039
vn -0.3370 0.0000 -0.9415
vn -0.2430 0.0000 -0.9700
vn -0.2429 0.0000 -0.9700
vn -0.1467 0.0000 -0.9892
vn -0.9701 0.0000 -0.2429
vn -0.9892 0.0000 -0.1468
vn -0.9892 0.0000 0.1468
vn 0.9415 0.0000 -0.3369
vn 0.9041 0.0000 -0.4274
vn 0.8576 0.0000 -0.5143
usemtl None
s off
f 1//1 2//1 3//1
f 4//2 5//2 6//2
f 7//3 8//3 9//3
f 7//3 9//3 10//3
f 8//4 11//4 12//4
f 8//4 12//4 9//4
f 13//1 3//1 14//1
f 13//1 14//1 15//1
f 16//5 17//5 5//5
f 16//5 5//5 18//5
f 12//6 11//6 19//6
f 12//6 19//6 20//6
f 21//7 22//7 16//7
f 16//7 22//7 17//7
f 23//1 24//1 25//1
f 26//1 23//1 25//1
f 24//1 27//1 25//1
f 28//1 29//1 26//1
f 2//1 29//1 28//1
f 14//1 3//1 2//1
f 27//1 30//1 31//1
f 30//1 32//1 31//1
f 33//1 34//1 35//1
f 36//1 35//1 34//1
f 34//1 21//1 36//1
f 37//1 38//1 39//1
f 21//1 16//1 36//1
f 40//1 36//1 16//1
f 16//1 18//1 40//1
f 41//1 40//1 18//1
f 18//1 42//1 41//1
f 43//1 44//1 38//1
f 45//2 4//2 6//2
f 46//2 17//2 47//2
f 48//2 49//2 45//2
f 50//2 47//2 22//2
f 15//1 51//1 13//1
f 52//1 41//1 42//1
f 42//1 53//1 52//1
f 54//1 52//1 53//1
f 15//1 55//1 51//1
f 32//1 56//1 57//1
f 22//2 47//2 17//2
f 5//2 17//2 46//2
f 46//2 6//2 5//2
f 55//1 58//1 59//1
f 59//1 51//1 55//1
f 4//2 45//2 49//2
f 60//1 61//1 62//1
f 63//1 59//1 64//1
f 58//1 64//1 59//1
f 19//8 65//8 66//8
f 19//8 66//8 20//8
f 67//1 62//1 61//1
f 68//2 69//2 70//2
f 71//9 72//9 73//9
f 71//9 73//9 74//9
f 75//1 63//1 76//1
f 64//1 76//1 63//1
f 77//1 78//1 79//1
f 80//1 75//1 81//1
f 76//1 81//1 75//1
f 72//10 82//10 83//10
f 72//10 83//10 73//10
f 84//1 85//1 86//1
f 87//1 88//1 89//1
f 82//11 90//11 91//11
f 82//11 91//11 83//11
f 92//1 80//1 93//1
f 81//1 93//1 80//1
f 94//1 92//1 93//1
f 90//12 95//12 96//12
f 90//12 96//12 91//12
f 97//1 98//1 94//1
f 93//1 97//1 94//1
f 99//1 100//1 101//1
f 101//1 33//1 99//1
f 99//1 33//1 35//1
f 102//13 96//13 95//13
f 102//13 95//13 103//13
f 103//14 104//14 105//14
f 103//14 105//14 102//14
f 106//1 43//1 107//1
f 38//1 107//1 43//1
f 44//1 39//1 38//1
f 108//1 109//1 39//1
f 110//1 94//1 98//1
f 98//1 109//1 110//1
f 108//1 110//1 109//1
f 37//1 39//1 109//1
f 89//1 88//1 100//1
f 79//1 111//1 77//1
f 111//1 67//1 77//1
f 61//1 77//1 67//1
f 78//1 86//1 79//1
f 85//1 79//1 86//1
f 86//1 112//1 84//1
f 87//1 84//1 112//1
f 112//1 113//1 87//1
f 88//1 87//1 113//1
f 101//1 100//1 88//1
f 114//15 115//15 116//15
f 65//1 19//1 117//1
f 118//16 119//16 115//16
f 118//16 115//16 114//16
f 120//1 117//1 19//1
f 121//17 122//17 119//17
f 121//17 119//17 118//17
f 123//1 120//1 11//1
f 19//1 11//1 120//1
f 118//1 95//1 121//1
f 124//18 125//18 122//18
f 124//18 122//18 121//18
f 95//1 90//1 121//1
f 126//1 123//1 11//1
f 11//1 8//1 126//1
f 127//19 128//19 125//19
f 127//19 125//19 124//19
f 8//1 7//1 126//1
f 129//1 126//1 7//1
f 124//1 121//1 90//1
f 90//1 82//1 124//1
f 130//20 131//20 128//20
f 130//20 128//20 127//20
f 132//2 69//2 133//2
f 127//1 124//1 82//1
f 82//1 72//1 127//1
f 134//21 135//21 131//21
f 134//21 131//21 130//21
f 72//1 71//1 127//1
f 130//1 127//1 71//1
f 136//22 137//22 135//22
f 136//22 135//22 134//22
f 71//1 138//1 130//1
f 134//1 130//1 138//1
f 139//2 140//2 141//2
f 142//2 141//2 140//2
f 143//2 142//2 140//2
f 138//1 144//1 134//1
f 136//1 134//1 144//1
f 144//1 145//1 136//1
f 146//1 136//1 145//1
f 62//1 146//1 145//1
f 145//1 60//1 62//1
f 147//1 148//1 116//1
f 104//1 103//1 116//1
f 143//2 149//2 150//2
f 142//2 143//2 150//2
f 95//1 118//1 103//1
f 118//1 114//1 103//1
f 114//1 116//1 103//1
f 151//1 152//1 153//1
f 7//1 154//1 129//1
f 155//1 129//1 154//1
f 152//1 155//1 154//1
f 154//1 156//1 152//1
f 156//1 153//1 152//1
f 151//1 153//1 147//1
f 148//1 147//1 153//1
f 104//1 116//1 148//1
f 53//1 56//1 54//1
f 107//1 157//1 106//1
f 158//2 70//2 69//2
f 68//2 133//2 69//2
f 159//2 160//2 133//2
f 161//2 160//2 162//2
f 163//2 161//2 164//2
f 139//2 141//2 164//2
f 163//2 164//2 141//2
f 162//2 164//2 161//2
f 159//2 162//2 160//2
f 132//2 133//2 160//2
f 56//1 53//1 165//1
f 166//1 106//1 167//1
f 157//1 167//1 106//1
f 57//1 31//1 32//1
f 165//1 57//1 56//1
f 168//1 169//1 170//1
f 122//2 96//2 119//2
f 171//1 170//1 169//1
f 169//1 172//1 171//1
f 31//1 173//1 27//1
f 173//1 25//1 27//1
f 128//2 83//2 125//2
f 23//1 26//1 29//1
f 29//1 2//1 1//1
f 174//1 171//1 172//1
f 172//1 175//1 174//1
f 175//1 176//1 174//1
f 177//1 174//1 176//1
f 177//1 176//1 65//1
f 177//1 65//1 117//1
f 131//2 74//2 128//2
f 125//2 91//2 122//2
f 102//2 119//2 96//2
f 170//1 178//1 168//1
f 167//1 168//1 178//1
f 178//1 166//1 167//1
f 21//23 34//23 50//23
f 21//23 50//23 22//23
f 135//2 179//2 131//2
f 96//2 122//2 91//2
f 34//24 33//24 50//24
f 137//2 180//2 135//2
f 91//2 125//2 83//2
f 47//2 50//2 149//2
f 50//2 150//2 149//2
f 35//25 149//25 143//25
f 35//25 143//25 99//25
f 181//2 182//2 137//2
f 83//2 128//2 73//2
f 36//26 47//26 149//26
f 36//26 149//26 35//26
f 146//27 181//27 137//27
f 146//27 137//27 136//27
f 47//28 36//28 40//28
f 47//28 40//28 46//28
f 62//29 181//29 146//29
f 179//2 135//2 180//2
f 74//2 131//2 179//2
f 73//2 128//2 74//2
f 183//2 182//2 184//2
f 158//2 183//2 184//2
f 184//2 70//2 158//2
f 46//30 40//30 41//30
f 46//30 41//30 6//30
f 180//2 137//2 182//2
f 181//2 184//2 182//2
f 15//18 185//18 186//18
f 6//31 41//31 52//31
f 6//31 52//31 45//31
f 15//32 14//32 187//32
f 15//32 187//32 185//32
f 54//33 48//33 45//33
f 54//33 45//33 52//33
f 119//2 102//2 115//2
f 105//2 188//2 102//2
f 2//34 189//34 14//34
f 187//34 14//34 189//34
f 2//35 28//35 190//35
f 2//35 190//35 189//35
f 191//2 192//2 193//2
f 193//2 49//2 48//2
f 33//24 150//24 50//24
f 28//36 26//36 194//36
f 28//36 194//36 190//36
f 33//37 101//37 142//37
f 33//37 142//37 150//37
f 195//2 196//2 191//2
f 26//38 25//38 197//38
f 26//38 197//38 194//38
f 198//2 196//2 199//2
f 200//2 49//2 193//2
f 25//39 173//39 198//39
f 25//39 198//39 197//39
f 88//40 141//40 101//40
f 142//40 101//40 141//40
f 31//41 196//41 198//41
f 31//41 198//41 173//41
f 88//42 113//42 163//42
f 88//42 163//42 141//42
f 57//43 192//43 196//43
f 57//43 196//43 31//43
f 113//44 112//44 161//44
f 113//45 161//45 163//45
f 112//46 86//46 160//46
f 112//46 160//46 161//46
f 200//47 192//47 57//47
f 86//48 78//48 132//48
f 86//48 132//48 160//48
f 187//2 189//2 201//2
f 202//2 201//2 189//2
f 48//49 54//49 56//49
f 48//49 56//49 193//49
f 78//50 77//50 69//50
f 78//50 69//50 132//50
f 203//2 187//2 201//2
f 193//51 56//51 32//51
f 193//51 32//51 191//51
f 77//52 61//52 158//52
f 77//52 158//52 69//52
f 61//53 60//53 158//53
f 191//54 32//54 30//54
f 191//54 30//54 195//54
f 186//2 185//2 204//2
f 187//2 203//2 185//2
f 203//2 204//2 185//2
f 195//55 30//55 27//55
f 195//55 27//55 199//55
f 62//29 184//29 181//29
f 24//56 205//56 199//56
f 24//56 199//56 27//56
f 67//57 70//57 184//57
f 67//58 184//58 62//58
f 23//59 206//59 205//59
f 23//59 205//59 24//59
f 111//60 68//60 70//60
f 111//60 70//60 67//60
f 117//5 207//5 177//5
f 29//61 208//61 206//61
f 29//61 206//61 23//61
f 79//62 133//62 68//62
f 79//62 68//62 111//62
f 120//63 209//63 207//63
f 120//63 207//63 117//63
f 1//64 202//64 208//64
f 1//64 208//64 29//64
f 85//65 159//65 133//65
f 85//65 133//65 79//65
f 123//66 210//66 209//66
f 123//66 209//66 120//66
f 84//67 162//67 159//67
f 84//67 159//67 85//67
f 3//68 201//68 202//68
f 3//68 202//68 1//68
f 126//69 211//69 210//69
f 126//69 210//69 123//69
f 87//70 164//70 162//70
f 87//71 162//71 84//71
f 13//72 203//72 201//72
f 13//72 201//72 3//72
f 129//73 212//73 211//73
f 129//73 211//73 126//73
f 89//74 139//74 164//74
f 89//74 164//74 87//74
f 155//75 213//75 212//75
f 155//75 212//75 129//75
f 13//11 204//11 203//11
f 100//76 140//76 139//76
f 100//76 139//76 89//76
f 214//62 37//62 109//62
f 214//62 109//62 215//62
f 213//41 155//41 152//41
f 213//41 152//41 216//41
f 109//77 98//77 217//77
f 109//78 217//78 215//78
f 99//79 143//79 140//79
f 99//79 140//79 100//79
f 151//39 218//39 216//39
f 151//39 216//39 152//39
f 98//80 97//80 219//80
f 98//80 219//80 217//80
f 147//81 220//81 218//81
f 147//81 218//81 151//81
f 97//82 93//82 221//82
f 97//82 221//82 219//82
f 116//83 188//83 220//83
f 116//83 220//83 147//83
f 60//84 183//84 158//84
f 60//85 145//85 182//85
f 60//85 182//85 183//85
f 221//86 81//86 222//86
f 116//15 115//15 188//15
f 93//86 81//86 221//86
f 223//30 66//30 176//30
f 65//30 176//30 66//30
f 180//87 182//87 144//87
f 145//87 144//87 182//87
f 176//28 175//28 224//28
f 176//28 224//28 223//28
f 144//88 138//88 179//88
f 144//88 179//88 180//88
f 172//26 225//26 224//26
f 172//26 224//26 175//26
f 222//89 81//89 226//89
f 76//89 226//89 81//89
f 138//90 71//90 74//90
f 138//90 74//90 179//90
f 169//25 227//25 225//25
f 169//25 225//25 172//25
f 64//21 228//21 76//21
f 227//91 169//91 229//91
f 168//91 229//91 169//91
f 76//21 228//21 226//21
f 192//2 191//2 196//2
f 200//2 193//2 192//2
f 195//2 199//2 196//2
f 205//2 197//2 199//2
f 194//2 197//2 206//2
f 202//2 189//2 208//2
f 190//2 194//2 208//2
f 190//2 208//2 189//2
f 206//2 208//2 194//2
f 205//2 206//2 197//2
f 198//2 199//2 197//2
f 58//20 230//20 228//20
f 167//92 231//92 229//92
f 167//92 229//92 168//92
f 58//20 228//20 64//20
f 157//93 232//93 231//93
f 157//93 231//93 167//93
f 55//19 186//19 58//19
f 233//94 106//94 166//94
f 58//19 186//19 230//19
f 233//95 166//95 178//95
f 233//95 178//95 234//95
f 186//18 55//18 15//18
f 235//2 233//2 231//2
f 234//96 178//96 170//96
f 234//96 170//96 236//96
f 232//97 157//97 237//97
f 107//97 237//97 157//97
f 171//24 238//24 236//24
f 171//24 236//24 170//24
f 38//98 239//98 237//98
f 38//99 237//99 107//99
f 174//23 240//23 238//23
f 174//23 238//23 171//23
f 241//2 186//2 204//2
f 37//65 214//65 239//65
f 37//65 239//65 38//65
f 177//7 242//7 240//7
f 177//7 240//7 174//7
f 44//48 243//48 244//48
f 44//48 244//48 39//48
f 177//5 207//5 242//5
f 245//2 226//2 246//2
f 246//2 228//2 241//2
f 43//100 247//100 243//100
f 43//100 243//100 44//100
f 248//2 222//2 245//2
f 106//101 235//101 247//101
f 106//102 247//102 43//102
f 249//2 221//2 248//2
f 228//2 230//2 241//2
f 186//2 241//2 230//2
f 106//94 233//94 235//94
f 250//2 221//2 249//2
f 204//11 13//11 51//11
f 215//2 217//2 251//2
f 228//2 246//2 226//2
f 226//2 245//2 222//2
f 214//2 215//2 244//2
f 204//10 51//10 59//10
f 204//10 59//10 241//10
f 244//2 243//2 239//2
f 222//2 248//2 221//2
f 241//9 59//9 63//9
f 241//9 63//9 246//9
f 246//90 63//90 75//90
f 246//90 75//90 245//90
f 237//2 239//2 247//2
f 247//2 235//2 237//2
f 232//2 237//2 235//2
f 243//2 247//2 239//2
f 239//2 214//2 244//2
f 252//2 244//2 215//2
f 251//2 252//2 215//2
f 250//2 251//2 217//2
f 217//2 219//2 250//2
f 221//2 250//2 219//2
f 245//103 75//103 80//103
f 245//103 80//103 248//103
f 92//104 249//104 248//104
f 92//104 248//104 80//104
f 209//2 20//2 207//2
f 94//105 250//105 249//105
f 94//105 249//105 92//105
f 210//2 12//2 209//2
f 211//2 12//2 210//2
f 110//106 251//106 250//106
f 110//107 250//107 94//107
f 108//108 252//108 251//108
f 108//108 251//108 110//108
f 212//2 10//2 211//2
f 213//2 253//2 212//2
f 66//2 207//2 20//2
f 252//50 108//50 39//50
f 252//50 39//50 244//50
f 216//2 253//2 213//2
f 20//2 209//2 12//2
f 104//109 148//109 254//109
f 104//109 254//109 105//109
f 148//110 153//110 255//110
f 148//110 255//110 254//110
f 153//56 156//56 256//56
f 153//56 256//56 255//56
f 105//2 254//2 188//2
f 256//55 156//55 154//55
f 256//55 154//55 253//55
f 154//111 7//111 10//111
f 154//111 10//111 253//111
f 115//2 102//2 188//2
f 10//2 212//2 253//2
f 9//2 211//2 10//2
f 12//2 211//2 9//2
f 256//2 253//2 216//2
f 218//2 255//2 216//2
f 254//2 255//2 220//2
f 220//2 188//2 254//2
f 218//2 220//2 255//2
f 256//2 216//2 255//2
f 229//2 231//2 234//2
f 236//2 229//2 234//2
f 233//2 234//2 231//2
f 238//2 227//2 236//2
f 224//2 225//2 240//2
f 66//2 223//2 242//2
f 229//2 236//2 227//2
f 207//2 66//2 242//2
f 242//2 223//2 240//2
f 224//2 240//2 223//2
f 238//2 240//2 225//2
f 227//2 238//2 225//2
f 232//2 235//2 231//2
f 57//47 165//47 200//47
f 165//112 53//112 49//112
f 165//112 49//112 200//112
f 53//113 42//113 4//113
f 53//113 4//113 49//113
f 18//114 5//114 4//114
f 18//114 4//114 42//114
