# Blender v3.2.0 OBJ File: ''
# www.blender.org
mtllib Enliven.mtl
o Enliven_Enliven.001
v 0.408854 0.053744 -0.072299
v 0.416747 0.053744 -0.072220
v 0.411813 0.053744 -0.072347
v 0.405940 0.053744 -0.072155
v 0.421497 0.053744 -0.071840
v 0.403070 0.053744 -0.071916
v 0.400246 0.053744 -0.071582
v 0.426064 0.053744 -0.071206
v 0.397466 0.053744 -0.071151
v 0.430449 0.053744 -0.070319
v 0.394731 0.053744 -0.070625
v 0.392041 0.053744 -0.070004
v 0.434650 0.053744 -0.069179
v 0.389396 0.053744 -0.069287
v 0.386796 0.053744 -0.068474
v 0.438669 0.053744 -0.067786
v 0.384240 0.053744 -0.067566
v 0.442504 0.053744 -0.066139
v 0.381730 0.053744 -0.066562
v 0.289071 0.053744 0.126269
v 0.348703 0.053744 -0.067011
v 0.289071 0.053744 -0.067011
v 0.348703 0.053744 -0.045670
v 0.379264 0.053744 -0.065462
v 0.446157 0.053744 -0.064238
v 0.376812 0.053744 -0.064273
v 0.374343 0.053744 -0.063000
v 0.449627 0.053744 -0.062085
v 0.371857 0.053744 -0.061644
v 0.452914 0.053744 -0.059677
v 0.369353 0.053744 -0.060203
v 0.366832 0.053744 -0.058679
v 0.456018 0.053744 -0.057017
v 0.364294 0.053744 -0.057072
v 0.361739 0.053744 -0.055381
v 0.458939 0.053744 -0.054103
v 0.359166 0.053744 -0.053606
v 0.461651 0.053744 -0.050937
v 0.356576 0.053744 -0.051747
v 0.353969 0.053744 -0.049805
v 0.464127 0.053744 -0.047520
v 0.351344 0.053744 -0.047779
v 0.466368 0.053744 -0.043852
v 0.348703 0.053744 -0.010731
v 0.350322 0.053744 -0.011712
v 0.351921 0.053744 -0.012648
v 0.353501 0.053744 -0.013538
v 0.355062 0.053744 -0.014384
v 0.356603 0.053744 -0.015183
v 0.358124 0.053744 -0.015937
v 0.359626 0.053744 -0.016646
v 0.361108 0.053744 -0.017309
v 0.362570 0.053744 -0.017927
v 0.364013 0.053744 -0.018500
v 0.365437 0.053744 -0.019027
v 0.366841 0.053744 -0.019509
v 0.368233 0.053744 -0.019948
v 0.369622 0.053744 -0.020350
v 0.371007 0.053744 -0.020713
v 0.372389 0.053744 -0.021039
v 0.373768 0.053744 -0.021325
v 0.468372 0.053744 -0.039932
v 0.375143 0.053744 -0.021574
v 0.376515 0.053744 -0.021784
v 0.470141 0.053744 -0.035762
v 0.377884 0.053744 -0.021956
v 0.471673 0.053744 -0.031341
v 0.379248 0.053744 -0.022090
v 0.380610 0.053744 -0.022186
v 0.472970 0.053744 -0.026669
v 0.381968 0.053744 -0.022243
v 0.383322 0.053744 -0.022262
v 0.474031 0.053744 -0.021746
v 0.385192 0.053744 -0.022242
v 0.386992 0.053744 -0.022181
v 0.388721 0.053744 -0.022080
v 0.390381 0.053744 -0.021937
v 0.391970 0.053744 -0.021754
v 0.393489 0.053744 -0.021531
v 0.474857 0.053744 -0.016572
v 0.394938 0.053744 -0.021267
v 0.396316 0.053744 -0.020962
v 0.397625 0.053744 -0.020617
v 0.398863 0.053744 -0.020231
v 0.400031 0.053744 -0.019804
v 0.401129 0.053744 -0.019337
v 0.402171 0.053744 -0.018825
v 0.403170 0.053744 -0.018266
v 0.404126 0.053744 -0.017658
v 0.405040 0.053744 -0.017003
v 0.405912 0.053744 -0.016301
v 0.475446 0.053744 -0.011147
v 0.406740 0.053744 -0.015550
v 0.407527 0.053744 -0.014752
v 0.408270 0.053744 -0.013906
v 0.408971 0.053744 -0.013012
v 0.409630 0.053744 -0.012070
v 0.410246 0.053744 -0.011080
v 0.475800 0.053744 -0.005471
v 0.410819 0.053744 -0.010043
v 0.348703 0.053744 0.126269
v 0.411277 0.053744 -0.009082
v 0.411712 0.053744 -0.008037
v 0.412124 0.053744 -0.006907
v 0.412513 0.053744 -0.005692
v 0.412879 0.053744 -0.004392
v 0.475918 0.053744 0.000456
v 0.413221 0.053744 -0.003007
v 0.413541 0.053744 -0.001538
v 0.413838 0.053744 0.000016
v 0.414112 0.053744 0.001656
v 0.475918 0.053744 0.126269
v 0.414362 0.053744 0.003380
v 0.414590 0.053744 0.005189
v 0.414795 0.053744 0.007082
v 0.414980 0.053744 0.009019
v 0.415149 0.053744 0.010957
v 0.415302 0.053744 0.012897
v 0.415439 0.053744 0.014837
v 0.415560 0.053744 0.016779
v 0.415665 0.053744 0.018721
v 0.415753 0.053744 0.020665
v 0.415826 0.053744 0.022611
v 0.415882 0.053744 0.024557
v 0.415922 0.053744 0.026505
v 0.415946 0.053744 0.028453
v 0.415955 0.053744 0.030403
v 0.415955 0.053744 0.126269
v 0.147838 0.053744 -0.072841
v 0.163300 0.053744 -0.072870
v 0.155892 0.053744 -0.073035
v 0.170395 0.053744 -0.072373
v 0.140075 0.053744 -0.072258
v 0.177177 0.053744 -0.071545
v 0.132603 0.053744 -0.071287
v 0.183647 0.053744 -0.070386
v 0.125423 0.053744 -0.069928
v 0.189803 0.053744 -0.068897
v 0.118533 0.053744 -0.068179
v 0.195647 0.053744 -0.067076
v 0.111934 0.053744 -0.066043
v 0.201178 0.053744 -0.064924
v 0.105626 0.053744 -0.063518
v 0.206395 0.053744 -0.062441
v 0.099610 0.053744 -0.060605
v 0.211300 0.053744 -0.059626
v 0.093884 0.053744 -0.057303
v 0.215892 0.053744 -0.056481
v 0.088449 0.053744 -0.053613
v 0.220172 0.053744 -0.053005
v 0.083306 0.053744 -0.049534
v 0.224138 0.053744 -0.049198
v 0.078453 0.053744 -0.045067
v 0.227789 0.053744 -0.045080
v 0.231122 0.053744 -0.040671
v 0.073942 0.053744 -0.040268
v 0.234139 0.053744 -0.035972
v 0.069824 0.053744 -0.035192
v 0.151088 0.053744 -0.034310
v 0.154113 0.053744 -0.034242
v 0.236837 0.053744 -0.030983
v 0.066097 0.053744 -0.029841
v 0.148260 0.053744 -0.034246
v 0.145516 0.053744 -0.034052
v 0.157001 0.053744 -0.034038
v 0.142858 0.053744 -0.033729
v 0.159754 0.053744 -0.033697
v 0.140285 0.053744 -0.033278
v 0.162371 0.053744 -0.033220
v 0.137797 0.053744 -0.032697
v 0.164852 0.053744 -0.032607
v 0.135394 0.053744 -0.031987
v 0.167197 0.053744 -0.031858
v 0.133076 0.053744 -0.031148
v 0.169407 0.053744 -0.030972
v 0.130843 0.053744 -0.030180
v 0.239218 0.053744 -0.025703
v 0.171481 0.053744 -0.029950
v 0.128695 0.053744 -0.029082
v 0.173419 0.053744 -0.028792
v 0.062763 0.053744 -0.024213
v 0.126633 0.053744 -0.027856
v 0.175222 0.053744 -0.027497
v 0.124655 0.053744 -0.026501
v 0.176889 0.053744 -0.026067
v 0.122763 0.053744 -0.025016
v 0.178420 0.053744 -0.024500
v 0.241282 0.053744 -0.020132
v 0.120981 0.053744 -0.023389
v 0.179825 0.053744 -0.022798
v 0.059821 0.053744 -0.018309
v 0.119335 0.053744 -0.021607
v 0.181116 0.053744 -0.020962
v 0.117825 0.053744 -0.019670
v 0.182292 0.053744 -0.018992
v 0.243028 0.053744 -0.014272
v 0.116450 0.053744 -0.017577
v 0.183352 0.053744 -0.016889
v 0.057271 0.053744 -0.012129
v 0.115211 0.053744 -0.015329
v 0.184298 0.053744 -0.014651
v 0.114108 0.053744 -0.012925
v 0.185128 0.053744 -0.012280
v 0.244457 0.053744 -0.008121
v 0.113141 0.053744 -0.010366
v 0.185844 0.053744 -0.009775
v 0.055114 0.053744 -0.005673
v 0.112309 0.053744 -0.007652
v 0.186444 0.053744 -0.007136
v 0.245568 0.053744 -0.001679
v 0.111613 0.053744 -0.004782
v 0.186930 0.053744 -0.004363
v 0.053349 0.053744 0.001059
v 0.111053 0.053744 -0.001757
v 0.187300 0.053744 -0.001456
v 0.110629 0.053744 0.001423
v 0.246362 0.053744 0.005053
v 0.187556 0.053744 0.001584
v 0.051976 0.053744 0.008067
v 0.110340 0.053744 0.004759
v 0.187696 0.053744 0.004759
v 0.246838 0.053744 0.012075
v 0.050995 0.053744 0.015351
v 0.246997 0.053744 0.019388
v 0.050407 0.053744 0.022911
v 0.246997 0.053744 0.041074
v 0.050211 0.053744 0.030748
v 0.050418 0.053744 0.038654
v 0.051039 0.053744 0.046252
v 0.110505 0.053744 0.041074
v 0.110823 0.053744 0.044787
v 0.111336 0.053744 0.048351
v 0.052074 0.053744 0.053542
v 0.112043 0.053744 0.051767
v 0.112944 0.053744 0.055034
v 0.053524 0.053744 0.060523
v 0.114040 0.053744 0.058154
v 0.115330 0.053744 0.061125
v 0.055387 0.053744 0.067196
v 0.116814 0.053744 0.063948
v 0.118493 0.053744 0.066623
v 0.235129 0.053744 0.067027
v 0.243518 0.053744 0.065686
v 0.236892 0.053744 0.065686
v 0.243518 0.053744 0.115426
v 0.120366 0.053744 0.069150
v 0.233262 0.053744 0.068354
v 0.057665 0.053744 0.073560
v 0.231292 0.053744 0.069666
v 0.122434 0.053744 0.071528
v 0.229218 0.053744 0.070964
v 0.227040 0.053744 0.072248
v 0.124696 0.053744 0.073759
v 0.224759 0.053744 0.073517
v 0.222375 0.053744 0.074772
v 0.060356 0.053744 0.079616
v 0.127153 0.053744 0.075841
v 0.219886 0.053744 0.076013
v 0.129807 0.053744 0.077765
v 0.217295 0.053744 0.077239
v 0.214599 0.053744 0.078451
v 0.132663 0.053744 0.079522
v 0.211801 0.053744 0.079649
v 0.135720 0.053744 0.081112
v 0.063462 0.053744 0.085364
v 0.208898 0.053744 0.080832
v 0.205936 0.053744 0.081959
v 0.138978 0.053744 0.082534
v 0.202958 0.053744 0.082988
v 0.142438 0.053744 0.083789
v 0.199964 0.053744 0.083919
v 0.146098 0.053744 0.084877
v 0.196954 0.053744 0.084752
v 0.193927 0.053744 0.085487
v 0.149961 0.053744 0.085797
v 0.066982 0.053744 0.090804
v 0.190885 0.053744 0.086124
v 0.154024 0.053744 0.086550
v 0.187826 0.053744 0.086663
v 0.158289 0.053744 0.087135
v 0.184751 0.053744 0.087104
v 0.181660 0.053744 0.087447
v 0.162755 0.053744 0.087554
v 0.178553 0.053744 0.087692
v 0.167422 0.053744 0.087805
v 0.175430 0.053744 0.087839
v 0.172291 0.053744 0.087888
v 0.070916 0.053744 0.095935
v 0.075265 0.053744 0.100757
v 0.080027 0.053744 0.105272
v 0.085178 0.053744 0.109450
v 0.090692 0.053744 0.113265
v 0.096571 0.053744 0.116717
v 0.240166 0.053744 0.116799
v 0.102812 0.053744 0.119805
v 0.236846 0.053744 0.118108
v 0.233559 0.053744 0.119352
v 0.230303 0.053744 0.120532
v 0.109417 0.053744 0.122530
v 0.227080 0.053744 0.121647
v 0.223889 0.053744 0.122698
v 0.116386 0.053744 0.124892
v 0.220731 0.053744 0.123684
v 0.217604 0.053744 0.124605
v 0.214510 0.053744 0.125462
v 0.123718 0.053744 0.126891
v 0.211448 0.053744 0.126255
v 0.208418 0.053744 0.126983
v 0.131413 0.053744 0.128526
v 0.205420 0.053744 0.127646
v 0.202412 0.053744 0.128251
v 0.199351 0.053744 0.128803
v 0.139472 0.053744 0.129797
v 0.196237 0.053744 0.129303
v 0.193070 0.053744 0.129750
v 0.189850 0.053744 0.130144
v 0.147895 0.053744 0.130706
v 0.186578 0.053744 0.130486
v 0.183252 0.053744 0.130775
v 0.156681 0.053744 0.131251
v 0.179874 0.053744 0.131012
v 0.176442 0.053744 0.131196
v 0.172958 0.053744 0.131327
v 0.165831 0.053744 0.131432
v 0.169421 0.053744 0.131406
v -0.108643 0.053744 0.126269
v -0.116759 0.053744 -0.067011
v -0.179870 0.053744 -0.067011
v -0.073692 0.053744 0.065858
v 0.030665 0.053744 -0.067011
v -0.031121 0.053744 -0.067011
v -0.041060 0.053744 0.126269
v -0.274288 0.053744 -0.094549
v -0.211342 0.053744 -0.141535
v -0.274288 0.053744 -0.141535
v -0.211342 0.053744 -0.094549
v -0.272631 0.053744 0.126269
v -0.212999 0.053744 -0.067011
v -0.272631 0.053744 -0.067011
v -0.212999 0.053744 0.126269
v -0.388582 0.053744 0.126269
v -0.328950 0.053744 -0.141535
v -0.388582 0.053744 -0.141535
v -0.328950 0.053744 0.126269
v -0.510475 0.053744 -0.072299
v -0.502582 0.053744 -0.072220
v -0.507515 0.053744 -0.072347
v -0.513389 0.053744 -0.072155
v -0.497832 0.053744 -0.071840
v -0.516258 0.053744 -0.071916
v -0.519083 0.053744 -0.071582
v -0.493265 0.053744 -0.071206
v -0.521863 0.053744 -0.071151
v -0.488880 0.053744 -0.070319
v -0.524598 0.053744 -0.070625
v -0.527288 0.053744 -0.070004
v -0.484679 0.053744 -0.069179
v -0.529933 0.053744 -0.069287
v -0.532533 0.053744 -0.068474
v -0.480660 0.053744 -0.067786
v -0.535088 0.053744 -0.067566
v -0.476824 0.053744 -0.066139
v -0.537599 0.053744 -0.066562
v -0.630258 0.053744 0.126269
v -0.570626 0.053744 -0.067011
v -0.630258 0.053744 -0.067011
v -0.570626 0.053744 -0.045670
v -0.540065 0.053744 -0.065462
v -0.473172 0.053744 -0.064238
v -0.542516 0.053744 -0.064273
v -0.544986 0.053744 -0.063000
v -0.469702 0.053744 -0.062085
v -0.547472 0.053744 -0.061644
v -0.466415 0.053744 -0.059677
v -0.549976 0.053744 -0.060203
v -0.552497 0.053744 -0.058679
v -0.463311 0.053744 -0.057017
v -0.555035 0.053744 -0.057072
v -0.557590 0.053744 -0.055381
v -0.460389 0.053744 -0.054103
v -0.560163 0.053744 -0.053606
v -0.457678 0.053744 -0.050937
v -0.562753 0.053744 -0.051747
v -0.565360 0.053744 -0.049805
v -0.455202 0.053744 -0.047520
v -0.567984 0.053744 -0.047779
v -0.452961 0.053744 -0.043852
v -0.570626 0.053744 -0.010731
v -0.569007 0.053744 -0.011712
v -0.567407 0.053744 -0.012648
v -0.565828 0.053744 -0.013538
v -0.564267 0.053744 -0.014384
v -0.562726 0.053744 -0.015183
v -0.561205 0.053744 -0.015937
v -0.559703 0.053744 -0.016646
v -0.558221 0.053744 -0.017309
v -0.556758 0.053744 -0.017927
v -0.555315 0.053744 -0.018500
v -0.553892 0.053744 -0.019027
v -0.552488 0.053744 -0.019509
v -0.551096 0.053744 -0.019948
v -0.549707 0.053744 -0.020350
v -0.548321 0.053744 -0.020713
v -0.546939 0.053744 -0.021039
v -0.545560 0.053744 -0.021325
v -0.450957 0.053744 -0.039932
v -0.544185 0.053744 -0.021574
v -0.542813 0.053744 -0.021784
v -0.449188 0.053744 -0.035762
v -0.541445 0.053744 -0.021956
v -0.447656 0.053744 -0.031341
v -0.540080 0.053744 -0.022090
v -0.538719 0.053744 -0.022186
v -0.446358 0.053744 -0.026669
v -0.537361 0.053744 -0.022243
v -0.536006 0.053744 -0.022262
v -0.445297 0.053744 -0.021746
v -0.534136 0.053744 -0.022242
v -0.532337 0.053744 -0.022181
v -0.530607 0.053744 -0.022080
v -0.528948 0.053744 -0.021937
v -0.527359 0.053744 -0.021754
v -0.525840 0.053744 -0.021531
v -0.444472 0.053744 -0.016572
v -0.524391 0.053744 -0.021267
v -0.523012 0.053744 -0.020962
v -0.521704 0.053744 -0.020617
v -0.520466 0.053744 -0.020231
v -0.519297 0.053744 -0.019804
v -0.518200 0.053744 -0.019337
v -0.517158 0.053744 -0.018825
v -0.516159 0.053744 -0.018266
v -0.515202 0.053744 -0.017658
v -0.514288 0.053744 -0.017003
v -0.513417 0.053744 -0.016301
v -0.443883 0.053744 -0.011147
v -0.512588 0.053744 -0.015550
v -0.511802 0.053744 -0.014752
v -0.511058 0.053744 -0.013906
v -0.510357 0.053744 -0.013012
v -0.509699 0.053744 -0.012070
v -0.509083 0.053744 -0.011080
v -0.443529 0.053744 -0.005471
v -0.508509 0.053744 -0.010043
v -0.570626 0.053744 0.126269
v -0.508051 0.053744 -0.009082
v -0.507617 0.053744 -0.008037
v -0.507205 0.053744 -0.006907
v -0.506816 0.053744 -0.005692
v -0.506450 0.053744 -0.004392
v -0.443411 0.053744 0.000456
v -0.506107 0.053744 -0.003007
v -0.505788 0.053744 -0.001538
v -0.505491 0.053744 0.000016
v -0.505217 0.053744 0.001656
v -0.443411 0.053744 0.126269
v -0.504966 0.053744 0.003380
v -0.504739 0.053744 0.005189
v -0.504534 0.053744 0.007082
v -0.504349 0.053744 0.009019
v -0.504180 0.053744 0.010957
v -0.504027 0.053744 0.012897
v -0.503890 0.053744 0.014837
v -0.503769 0.053744 0.016779
v -0.503664 0.053744 0.018721
v -0.503576 0.053744 0.020665
v -0.503503 0.053744 0.022611
v -0.503447 0.053744 0.024557
v -0.503407 0.053744 0.026505
v -0.503382 0.053744 0.028453
v -0.503374 0.053744 0.030403
v -0.503374 0.053744 0.126269
v -0.858683 0.053744 0.126269
v -0.795406 0.053744 -0.080436
v -0.858683 0.053744 -0.130004
v -0.680283 0.053744 -0.130004
v -0.680283 0.053744 -0.080436
v -0.795406 0.053744 -0.036203
v -0.795406 0.053744 0.013365
v -0.688565 0.053744 -0.036203
v -0.688565 0.053744 0.013365
v -0.795406 0.053744 0.076701
v -0.680283 0.053744 0.076701
v -0.680283 0.053744 0.126269
v 0.408854 -0.055530 -0.072299
v 0.411813 -0.055530 -0.072347
v 0.416747 -0.055530 -0.072220
v 0.405940 -0.055530 -0.072155
v 0.421497 -0.055530 -0.071840
v 0.403070 -0.055530 -0.071916
v 0.400246 -0.055530 -0.071582
v 0.426064 -0.055530 -0.071206
v 0.397466 -0.055530 -0.071151
v 0.430449 -0.055530 -0.070319
v 0.394731 -0.055530 -0.070625
v 0.392041 -0.055530 -0.070004
v 0.434650 -0.055530 -0.069179
v 0.389396 -0.055530 -0.069287
v 0.386796 -0.055530 -0.068474
v 0.438669 -0.055530 -0.067786
v 0.384240 -0.055530 -0.067566
v 0.442504 -0.055530 -0.066139
v 0.381730 -0.055530 -0.066562
v 0.289071 -0.055530 0.126269
v 0.289071 -0.055530 -0.067011
v 0.348703 -0.055530 -0.067011
v 0.348703 -0.055530 -0.045670
v 0.379264 -0.055530 -0.065462
v 0.446157 -0.055530 -0.064238
v 0.376812 -0.055530 -0.064273
v 0.374343 -0.055530 -0.063000
v 0.449627 -0.055530 -0.062085
v 0.371857 -0.055530 -0.061644
v 0.452914 -0.055530 -0.059677
v 0.369353 -0.055530 -0.060203
v 0.366832 -0.055530 -0.058679
v 0.456018 -0.055530 -0.057017
v 0.364294 -0.055530 -0.057072
v 0.361739 -0.055530 -0.055381
v 0.458939 -0.055530 -0.054103
v 0.359166 -0.055530 -0.053606
v 0.461651 -0.055530 -0.050937
v 0.356576 -0.055530 -0.051747
v 0.353969 -0.055530 -0.049805
v 0.464127 -0.055530 -0.047520
v 0.351344 -0.055530 -0.047779
v 0.466368 -0.055530 -0.043852
v 0.348703 -0.055530 -0.010731
v 0.350322 -0.055530 -0.011712
v 0.351921 -0.055530 -0.012648
v 0.353501 -0.055530 -0.013538
v 0.355062 -0.055530 -0.014384
v 0.356603 -0.055530 -0.015183
v 0.358124 -0.055530 -0.015937
v 0.359626 -0.055530 -0.016646
v 0.361108 -0.055530 -0.017309
v 0.362570 -0.055530 -0.017927
v 0.364013 -0.055530 -0.018500
v 0.365437 -0.055530 -0.019027
v 0.366841 -0.055530 -0.019509
v 0.368233 -0.055530 -0.019948
v 0.369622 -0.055530 -0.020350
v 0.371007 -0.055530 -0.020713
v 0.372389 -0.055530 -0.021039
v 0.373768 -0.055530 -0.021325
v 0.468372 -0.055530 -0.039932
v 0.375143 -0.055530 -0.021574
v 0.376515 -0.055530 -0.021784
v 0.470141 -0.055530 -0.035762
v 0.377884 -0.055530 -0.021956
v 0.471673 -0.055530 -0.031341
v 0.379248 -0.055530 -0.022090
v 0.380610 -0.055530 -0.022186
v 0.472970 -0.055530 -0.026669
v 0.381968 -0.055530 -0.022243
v 0.383322 -0.055530 -0.022262
v 0.474031 -0.055530 -0.021746
v 0.385192 -0.055530 -0.022242
v 0.386992 -0.055530 -0.022181
v 0.388721 -0.055530 -0.022080
v 0.390381 -0.055530 -0.021937
v 0.391970 -0.055530 -0.021754
v 0.393489 -0.055530 -0.021531
v 0.474857 -0.055530 -0.016572
v 0.394938 -0.055530 -0.021267
v 0.396316 -0.055530 -0.020962
v 0.397625 -0.055530 -0.020617
v 0.398863 -0.055530 -0.020231
v 0.400031 -0.055530 -0.019804
v 0.401129 -0.055530 -0.019337
v 0.402171 -0.055530 -0.018825
v 0.403170 -0.055530 -0.018266
v 0.404126 -0.055530 -0.017658
v 0.405040 -0.055530 -0.017003
v 0.405912 -0.055530 -0.016301
v 0.475446 -0.055530 -0.011147
v 0.406740 -0.055530 -0.015550
v 0.407527 -0.055530 -0.014752
v 0.408270 -0.055530 -0.013906
v 0.408971 -0.055530 -0.013012
v 0.409630 -0.055530 -0.012070
v 0.410246 -0.055530 -0.011080
v 0.475800 -0.055530 -0.005471
v 0.410819 -0.055530 -0.010043
v 0.348703 -0.055530 0.126269
v 0.411277 -0.055530 -0.009082
v 0.411712 -0.055530 -0.008037
v 0.412124 -0.055530 -0.006907
v 0.412513 -0.055530 -0.005692
v 0.412879 -0.055530 -0.004392
v 0.475918 -0.055530 0.000456
v 0.413221 -0.055530 -0.003007
v 0.413541 -0.055530 -0.001538
v 0.413838 -0.055530 0.000016
v 0.414112 -0.055530 0.001656
v 0.475918 -0.055530 0.126269
v 0.414362 -0.055530 0.003380
v 0.414590 -0.055530 0.005189
v 0.414795 -0.055530 0.007082
v 0.414980 -0.055530 0.009019
v 0.415149 -0.055530 0.010957
v 0.415302 -0.055530 0.012897
v 0.415439 -0.055530 0.014837
v 0.415560 -0.055530 0.016779
v 0.415665 -0.055530 0.018721
v 0.415753 -0.055530 0.020665
v 0.415826 -0.055530 0.022611
v 0.415882 -0.055530 0.024557
v 0.415922 -0.055530 0.026505
v 0.415946 -0.055530 0.028453
v 0.415955 -0.055530 0.030403
v 0.415955 -0.055530 0.126269
v 0.147838 -0.055530 -0.072841
v 0.155892 -0.055530 -0.073035
v 0.163300 -0.055530 -0.072870
v 0.170395 -0.055530 -0.072373
v 0.140075 -0.055530 -0.072258
v 0.177177 -0.055530 -0.071545
v 0.132603 -0.055530 -0.071287
v 0.183647 -0.055530 -0.070386
v 0.125423 -0.055530 -0.069928
v 0.189803 -0.055530 -0.068897
v 0.118533 -0.055530 -0.068179
v 0.195647 -0.055530 -0.067076
v 0.111934 -0.055530 -0.066043
v 0.201178 -0.055530 -0.064924
v 0.105626 -0.055530 -0.063518
v 0.206395 -0.055530 -0.062441
v 0.099610 -0.055530 -0.060605
v 0.211300 -0.055530 -0.059626
v 0.093884 -0.055530 -0.057303
v 0.215892 -0.055530 -0.056481
v 0.088449 -0.055530 -0.053613
v 0.220172 -0.055530 -0.053005
v 0.083306 -0.055530 -0.049534
v 0.224138 -0.055530 -0.049198
v 0.078453 -0.055530 -0.045067
v 0.227789 -0.055530 -0.045080
v 0.231122 -0.055530 -0.040671
v 0.073942 -0.055530 -0.040268
v 0.234139 -0.055530 -0.035972
v 0.069824 -0.055530 -0.035192
v 0.151088 -0.055530 -0.034310
v 0.154113 -0.055530 -0.034242
v 0.236837 -0.055530 -0.030983
v 0.066097 -0.055530 -0.029841
v 0.148260 -0.055530 -0.034246
v 0.145516 -0.055530 -0.034052
v 0.157001 -0.055530 -0.034038
v 0.142858 -0.055530 -0.033729
v 0.159754 -0.055530 -0.033697
v 0.140285 -0.055530 -0.033278
v 0.162371 -0.055530 -0.033220
v 0.137797 -0.055530 -0.032697
v 0.164852 -0.055530 -0.032607
v 0.135394 -0.055530 -0.031987
v 0.167197 -0.055530 -0.031858
v 0.133076 -0.055530 -0.031148
v 0.169407 -0.055530 -0.030972
v 0.130843 -0.055530 -0.030180
v 0.239218 -0.055530 -0.025703
v 0.171481 -0.055530 -0.029950
v 0.128695 -0.055530 -0.029082
v 0.173419 -0.055530 -0.028792
v 0.062763 -0.055530 -0.024213
v 0.126633 -0.055530 -0.027856
v 0.175222 -0.055530 -0.027497
v 0.124655 -0.055530 -0.026501
v 0.176889 -0.055530 -0.026067
v 0.122763 -0.055530 -0.025016
v 0.178420 -0.055530 -0.024500
v 0.241282 -0.055530 -0.020132
v 0.120981 -0.055530 -0.023389
v 0.179825 -0.055530 -0.022798
v 0.059821 -0.055530 -0.018309
v 0.119335 -0.055530 -0.021607
v 0.181116 -0.055530 -0.020962
v 0.117825 -0.055530 -0.019670
v 0.182292 -0.055530 -0.018992
v 0.243028 -0.055530 -0.014272
v 0.116450 -0.055530 -0.017577
v 0.183352 -0.055530 -0.016889
v 0.057271 -0.055530 -0.012129
v 0.115211 -0.055530 -0.015329
v 0.184298 -0.055530 -0.014651
v 0.114108 -0.055530 -0.012925
v 0.185128 -0.055530 -0.012280
v 0.244457 -0.055530 -0.008121
v 0.113141 -0.055530 -0.010366
v 0.185844 -0.055530 -0.009775
v 0.055114 -0.055530 -0.005673
v 0.112309 -0.055530 -0.007652
v 0.186444 -0.055530 -0.007136
v 0.245568 -0.055530 -0.001679
v 0.111613 -0.055530 -0.004782
v 0.186930 -0.055530 -0.004363
v 0.053349 -0.055530 0.001059
v 0.111053 -0.055530 -0.001757
v 0.187300 -0.055530 -0.001456
v 0.110629 -0.055530 0.001423
v 0.246362 -0.055530 0.005053
v 0.187556 -0.055530 0.001584
v 0.051976 -0.055530 0.008067
v 0.110340 -0.055530 0.004759
v 0.187696 -0.055530 0.004759
v 0.246838 -0.055530 0.012075
v 0.050995 -0.055530 0.015351
v 0.246997 -0.055530 0.019388
v 0.050407 -0.055530 0.022911
v 0.246997 -0.055530 0.041074
v 0.050211 -0.055530 0.030748
v 0.050418 -0.055530 0.038654
v 0.051039 -0.055530 0.046252
v 0.110505 -0.055530 0.041074
v 0.110823 -0.055530 0.044787
v 0.111336 -0.055530 0.048351
v 0.052074 -0.055530 0.053542
v 0.112043 -0.055530 0.051767
v 0.112944 -0.055530 0.055034
v 0.053524 -0.055530 0.060523
v 0.114040 -0.055530 0.058154
v 0.115330 -0.055530 0.061125
v 0.055387 -0.055530 0.067196
v 0.116814 -0.055530 0.063948
v 0.118493 -0.055530 0.066623
v 0.235129 -0.055530 0.067027
v 0.236892 -0.055530 0.065686
v 0.243518 -0.055530 0.065686
v 0.243518 -0.055530 0.115426
v 0.120366 -0.055530 0.069150
v 0.233262 -0.055530 0.068354
v 0.057665 -0.055530 0.073560
v 0.231292 -0.055530 0.069666
v 0.122434 -0.055530 0.071528
v 0.229218 -0.055530 0.070964
v 0.227040 -0.055530 0.072248
v 0.124696 -0.055530 0.073759
v 0.224759 -0.055530 0.073517
v 0.222375 -0.055530 0.074772
v 0.060356 -0.055530 0.079616
v 0.127153 -0.055530 0.075841
v 0.219886 -0.055530 0.076013
v 0.129807 -0.055530 0.077765
v 0.217295 -0.055530 0.077239
v 0.214599 -0.055530 0.078451
v 0.132663 -0.055530 0.079522
v 0.211801 -0.055530 0.079649
v 0.135720 -0.055530 0.081112
v 0.063462 -0.055530 0.085364
v 0.208898 -0.055530 0.080832
v 0.205936 -0.055530 0.081959
v 0.138978 -0.055530 0.082534
v 0.202958 -0.055530 0.082988
v 0.142438 -0.055530 0.083789
v 0.199964 -0.055530 0.083919
v 0.146098 -0.055530 0.084877
v 0.196954 -0.055530 0.084752
v 0.193927 -0.055530 0.085487
v 0.149961 -0.055530 0.085797
v 0.066982 -0.055530 0.090804
v 0.190885 -0.055530 0.086124
v 0.154024 -0.055530 0.086550
v 0.187826 -0.055530 0.086663
v 0.158289 -0.055530 0.087135
v 0.184751 -0.055530 0.087104
v 0.181660 -0.055530 0.087447
v 0.162755 -0.055530 0.087554
v 0.178553 -0.055530 0.087692
v 0.167422 -0.055530 0.087805
v 0.175430 -0.055530 0.087839
v 0.172291 -0.055530 0.087888
v 0.070916 -0.055530 0.095935
v 0.075265 -0.055530 0.100757
v 0.080027 -0.055530 0.105272
v 0.085178 -0.055530 0.109450
v 0.090692 -0.055530 0.113265
v 0.096571 -0.055530 0.116717
v 0.240166 -0.055530 0.116799
v 0.102812 -0.055530 0.119805
v 0.236846 -0.055530 0.118108
v 0.233559 -0.055530 0.119352
v 0.230303 -0.055530 0.120532
v 0.109417 -0.055530 0.122530
v 0.227080 -0.055530 0.121647
v 0.223889 -0.055530 0.122698
v 0.116386 -0.055530 0.124892
v 0.220731 -0.055530 0.123684
v 0.217604 -0.055530 0.124605
v 0.214510 -0.055530 0.125462
v 0.123718 -0.055530 0.126891
v 0.211448 -0.055530 0.126255
v 0.208418 -0.055530 0.126983
v 0.131413 -0.055530 0.128526
v 0.205420 -0.055530 0.127646
v 0.202412 -0.055530 0.128251
v 0.199351 -0.055530 0.128803
v 0.139472 -0.055530 0.129797
v 0.196237 -0.055530 0.129303
v 0.193070 -0.055530 0.129750
v 0.189850 -0.055530 0.130144
v 0.147895 -0.055530 0.130706
v 0.186578 -0.055530 0.130486
v 0.183252 -0.055530 0.130775
v 0.156681 -0.055530 0.131251
v 0.179874 -0.055530 0.131012
v 0.176442 -0.055530 0.131196
v 0.172958 -0.055530 0.131327
v 0.165831 -0.055530 0.131432
v 0.169421 -0.055530 0.131406
v -0.108643 -0.055530 0.126269
v -0.179870 -0.055530 -0.067011
v -0.116759 -0.055530 -0.067011
v -0.073692 -0.055530 0.065858
v -0.031121 -0.055530 -0.067011
v 0.030665 -0.055530 -0.067011
v -0.041060 -0.055530 0.126269
v -0.274288 -0.055530 -0.094549
v -0.274288 -0.055530 -0.141535
v -0.211342 -0.055530 -0.141535
v -0.211342 -0.055530 -0.094549
v -0.272631 -0.055530 0.126269
v -0.272631 -0.055530 -0.067011
v -0.212999 -0.055530 -0.067011
v -0.212999 -0.055530 0.126269
v -0.388582 -0.055530 0.126269
v -0.388582 -0.055530 -0.141535
v -0.328950 -0.055530 -0.141535
v -0.328950 -0.055530 0.126269
v -0.510475 -0.055530 -0.072299
v -0.507515 -0.055530 -0.072347
v -0.502582 -0.055530 -0.072220
v -0.513389 -0.055530 -0.072155
v -0.497832 -0.055530 -0.071840
v -0.516258 -0.055530 -0.071916
v -0.519083 -0.055530 -0.071582
v -0.493265 -0.055530 -0.071206
v -0.521863 -0.055530 -0.071151
v -0.488880 -0.055530 -0.070319
v -0.524598 -0.055530 -0.070625
v -0.527288 -0.055530 -0.070004
v -0.484679 -0.055530 -0.069179
v -0.529933 -0.055530 -0.069287
v -0.532533 -0.055530 -0.068474
v -0.480660 -0.055530 -0.067786
v -0.535088 -0.055530 -0.067566
v -0.476824 -0.055530 -0.066139
v -0.537599 -0.055530 -0.066562
v -0.630258 -0.055530 0.126269
v -0.630258 -0.055530 -0.067011
v -0.570626 -0.055530 -0.067011
v -0.570626 -0.055530 -0.045670
v -0.540065 -0.055530 -0.065462
v -0.473172 -0.055530 -0.064238
v -0.542516 -0.055530 -0.064273
v -0.544986 -0.055530 -0.063000
v -0.469702 -0.055530 -0.062085
v -0.547472 -0.055530 -0.061644
v -0.466415 -0.055530 -0.059677
v -0.549976 -0.055530 -0.060203
v -0.552497 -0.055530 -0.058679
v -0.463311 -0.055530 -0.057017
v -0.555035 -0.055530 -0.057072
v -0.557590 -0.055530 -0.055381
v -0.460389 -0.055530 -0.054103
v -0.560163 -0.055530 -0.053606
v -0.457678 -0.055530 -0.050937
v -0.562753 -0.055530 -0.051747
v -0.565360 -0.055530 -0.049805
v -0.455202 -0.055530 -0.047520
v -0.567984 -0.055530 -0.047779
v -0.452961 -0.055530 -0.043852
v -0.570626 -0.055530 -0.010731
v -0.569007 -0.055530 -0.011712
v -0.567407 -0.055530 -0.012648
v -0.565828 -0.055530 -0.013538
v -0.564267 -0.055530 -0.014384
v -0.562726 -0.055530 -0.015183
v -0.561205 -0.055530 -0.015937
v -0.559703 -0.055530 -0.016646
v -0.558221 -0.055530 -0.017309
v -0.556758 -0.055530 -0.017927
v -0.555315 -0.055530 -0.018500
v -0.553892 -0.055530 -0.019027
v -0.552488 -0.055530 -0.019509
v -0.551096 -0.055530 -0.019948
v -0.549707 -0.055530 -0.020350
v -0.548321 -0.055530 -0.020713
v -0.546939 -0.055530 -0.021039
v -0.545560 -0.055530 -0.021325
v -0.450957 -0.055530 -0.039932
v -0.544185 -0.055530 -0.021574
v -0.542813 -0.055530 -0.021784
v -0.449188 -0.055530 -0.035762
v -0.541445 -0.055530 -0.021956
v -0.447656 -0.055530 -0.031341
v -0.540080 -0.055530 -0.022090
v -0.538719 -0.055530 -0.022186
v -0.446358 -0.055530 -0.026669
v -0.537361 -0.055530 -0.022243
v -0.536006 -0.055530 -0.022262
v -0.445297 -0.055530 -0.021746
v -0.534136 -0.055530 -0.022242
v -0.532337 -0.055530 -0.022181
v -0.530607 -0.055530 -0.022080
v -0.528948 -0.055530 -0.021937
v -0.527359 -0.055530 -0.021754
v -0.525840 -0.055530 -0.021531
v -0.444472 -0.055530 -0.016572
v -0.524391 -0.055530 -0.021267
v -0.523012 -0.055530 -0.020962
v -0.521704 -0.055530 -0.020617
v -0.520466 -0.055530 -0.020231
v -0.519297 -0.055530 -0.019804
v -0.518200 -0.055530 -0.019337
v -0.517158 -0.055530 -0.018825
v -0.516159 -0.055530 -0.018266
v -0.515202 -0.055530 -0.017658
v -0.514288 -0.055530 -0.017003
v -0.513417 -0.055530 -0.016301
v -0.443883 -0.055530 -0.011147
v -0.512588 -0.055530 -0.015550
v -0.511802 -0.055530 -0.014752
v -0.511058 -0.055530 -0.013906
v -0.510357 -0.055530 -0.013012
v -0.509699 -0.055530 -0.012070
v -0.509083 -0.055530 -0.011080
v -0.443529 -0.055530 -0.005471
v -0.508509 -0.055530 -0.010043
v -0.570626 -0.055530 0.126269
v -0.508051 -0.055530 -0.009082
v -0.507617 -0.055530 -0.008037
v -0.507205 -0.055530 -0.006907
v -0.506816 -0.055530 -0.005692
v -0.506450 -0.055530 -0.004392
v -0.443411 -0.055530 0.000456
v -0.506107 -0.055530 -0.003007
v -0.505788 -0.055530 -0.001538
v -0.505491 -0.055530 0.000016
v -0.505217 -0.055530 0.001656
v -0.443411 -0.055530 0.126269
v -0.504966 -0.055530 0.003380
v -0.504739 -0.055530 0.005189
v -0.504534 -0.055530 0.007082
v -0.504349 -0.055530 0.009019
v -0.504180 -0.055530 0.010957
v -0.504027 -0.055530 0.012897
v -0.503890 -0.055530 0.014837
v -0.503769 -0.055530 0.016779
v -0.503664 -0.055530 0.018721
v -0.503576 -0.055530 0.020665
v -0.503503 -0.055530 0.022611
v -0.503447 -0.055530 0.024557
v -0.503407 -0.055530 0.026505
v -0.503382 -0.055530 0.028453
v -0.503374 -0.055530 0.030403
v -0.503374 -0.055530 0.126269
v -0.858683 -0.055530 0.126269
v -0.858683 -0.055530 -0.130004
v -0.795406 -0.055530 -0.080436
v -0.680283 -0.055530 -0.130004
v -0.680283 -0.055530 -0.080436
v -0.795406 -0.055530 -0.036203
v -0.795406 -0.055530 0.013365
v -0.688565 -0.055530 -0.036203
v -0.688565 -0.055530 0.013365
v -0.795406 -0.055530 0.076701
v -0.680283 -0.055530 0.076701
v -0.680283 -0.055530 0.126269
v -1.228176 0.160444 -0.567198
v -1.228176 -0.137902 -0.567198
v -1.228176 -0.137902 0.581237
v -1.228176 0.160444 0.581237
v 0.760799 -0.137902 -0.567198
v 0.760799 -0.137902 0.581237
v -0.233688 -0.137902 -1.141316
v -0.233688 -0.137902 1.155355
v -1.095213 0.160444 -0.490324
v -0.233688 0.160444 -0.987767
v 0.627836 0.160444 -0.490324
v 0.760799 0.160444 -0.567198
v -0.233688 0.160444 -1.141316
v -1.095213 0.160444 0.504363
v -0.233688 0.160444 1.001706
v 0.627836 0.160444 0.504363
v 0.760799 0.160444 0.581237
v -0.233688 0.160444 1.155355
v 0.627836 -0.038652 0.504363
v -0.233688 -0.038652 1.001706
v -1.095213 -0.038652 0.504363
v -1.095213 -0.038652 -0.490324
v -0.233688 -0.038652 -0.987767
v 0.627836 -0.038652 -0.490324
vn 0.0000 1.0000 0.0000
vn 0.0000 1.0000 -0.0002
vn 0.0000 1.0000 0.0003
vn 0.0000 1.0000 0.0001
vn 0.0000 1.0000 -0.0001
vn 0.0000 -1.0000 0.0000
vn -0.0003 -1.0000 0.0000
vn 0.0001 -1.0000 0.0002
vn -0.0001 -1.0000 -0.0005
vn 0.0000 -1.0000 0.0002
vn -0.0001 -1.0000 0.0000
vn 0.0000 -1.0000 0.0011
vn -0.0000 -1.0000 0.0001
vn 0.0000 -1.0000 -0.0001
vn 0.0000 -1.0000 0.0037
vn 0.0000 -1.0000 -0.0002
vn 0.0001 -1.0000 0.0000
vn 0.0000 0.0000 1.0000
vn 0.9977 0.0000 -0.0677
vn -0.9233 0.0000 0.3841
vn -0.9615 0.0000 0.2747
vn -0.4364 0.0000 -0.8997
vn -0.6713 0.0000 0.7412
vn -0.6513 0.0000 0.7588
vn -0.2976 0.0000 0.9547
vn -0.1228 0.0000 0.9924
vn 0.0701 0.0000 0.9975
vn -0.0338 0.0000 0.9994
vn 0.2834 0.0000 0.9590
vn 0.1779 0.0000 0.9840
vn 0.7346 0.0000 0.6785
vn 0.9776 0.0000 -0.2107
vn -0.5359 0.0000 0.8443
vn 0.3687 0.0000 0.9295
vn 0.5050 0.0000 0.8631
vn 0.9513 0.0000 -0.3083
vn 0.9718 0.0000 0.2357
vn -0.6110 0.0000 -0.7916
vn -1.0000 0.0000 0.0000
vn -0.4789 0.0000 -0.8779
vn -0.2251 0.0000 -0.9743
vn -0.9981 0.0000 0.0621
vn 0.0798 0.0000 -0.9968
vn -0.9863 0.0000 0.1648
vn -0.9986 0.0000 0.0538
vn -0.9027 0.0000 0.4303
vn 0.8415 0.0000 -0.5402
vn 0.9448 0.0000 -0.3276
vn -0.6278 0.0000 0.7784
vn 1.0000 0.0000 0.0000
vn -0.1559 0.0000 0.9878
vn -0.9922 0.0000 0.1249
vn 0.9206 0.0000 -0.3905
vn 0.8470 0.0000 -0.5316
vn -0.0109 0.0000 0.9999
vn -0.3917 0.0000 0.9201
vn -0.7936 0.0000 0.6085
vn 0.4001 0.0000 -0.9165
vn 0.2037 0.0000 0.9790
vn 0.8534 0.0000 -0.5212
vn 0.0172 0.0000 -0.9999
vn 0.3892 0.0000 0.9212
vn -0.2360 0.0000 -0.9718
vn 0.5183 0.0000 0.8552
vn -0.8752 0.0000 0.4838
vn -0.4277 0.0000 -0.9039
vn -0.5974 0.0000 -0.8019
vn -0.6053 0.0000 -0.7960
vn 0.3127 0.0000 0.9499
vn -0.1889 0.0000 -0.9820
vn 0.1775 0.0000 0.9841
vn 0.1374 0.0000 -0.9905
vn 0.3688 0.0000 0.9295
vn 0.0377 0.0000 0.9993
vn 0.6508 0.0000 -0.7593
vn -0.2630 0.0000 0.9648
vn -0.9896 0.0000 0.1439
vn -0.9896 0.0000 0.1440
vn -0.7427 0.0000 0.6696
vn -0.9901 0.0000 0.1406
vn -0.9484 0.0000 -0.3169
vn 0.1983 0.0000 -0.9801
vn -0.6213 0.0000 -0.7835
vn -0.1289 0.0000 -0.9917
vn -0.4582 0.0000 -0.8888
vn 0.2975 0.0000 -0.9547
vn -0.1420 0.0000 -0.9899
vn 0.7976 0.0000 -0.6031
vn -0.7512 0.0000 0.6601
vn 0.9931 0.0000 -0.1171
vn -0.9863 0.0000 0.1647
vn -0.9751 0.0000 0.2219
vn -0.9026 0.0000 0.4304
vn -0.7153 0.0000 0.6989
vn -0.1793 0.0000 0.9838
vn -0.2554 0.0000 0.9668
vn -0.0619 0.0000 0.9981
vn -0.0706 0.0000 0.9975
vn 0.6742 0.0000 0.7385
vn 0.0000 0.0000 -1.0000
vn -0.9626 0.0000 0.2709
vn -0.6712 0.0000 0.7412
vn 0.9636 0.0000 -0.2675
vn 0.9963 0.0000 -0.0854
vn 0.8033 0.0000 -0.5955
vn 0.1780 0.0000 0.9840
vn 0.3411 0.0000 -0.9400
vn 0.3410 0.0000 -0.9400
vn -0.0156 0.0000 -0.9999
vn -0.2667 0.0000 -0.9638
vn -0.4462 0.0000 -0.8949
vn 0.2980 0.0000 0.9546
vn 0.1584 0.0000 0.9874
vn -0.4435 0.0000 0.8963
vn 0.0223 0.0000 0.9998
vn -0.8395 0.0000 0.5433
vn -0.9967 0.0000 0.0815
vn -0.9244 0.0000 -0.3814
vn -0.5617 0.0000 -0.8273
vn -0.4886 0.0000 0.8725
vn -0.0748 0.0000 -0.9972
vn 0.7887 0.0000 0.6148
vn -1.0000 0.0000 0.0041
vn -0.9975 0.0000 0.0704
vn 0.9116 0.0000 -0.4111
vn -0.9822 0.0000 0.1876
vn -0.7869 0.0000 0.6171
vn -0.9211 0.0000 0.3893
vn -0.5825 0.0000 0.8128
vn -0.5129 0.0000 0.8584
vn 0.4976 0.0000 -0.8674
vn -0.2157 0.0000 0.9764
vn -0.0225 0.0000 0.9997
vn 0.0141 0.0000 0.9999
vn 0.3978 0.0000 0.9175
vn 0.2290 0.0000 0.9734
vn 0.8358 0.0000 0.5490
vn 0.4085 0.0000 0.9128
vn 0.9963 0.0000 0.0863
vn 0.4613 0.0000 -0.8872
vn -0.5830 0.0000 -0.8125
vn -0.9999 0.0000 0.0124
vn -0.1529 0.0000 -0.9882
vn -0.9969 0.0000 0.0787
vn -0.9771 0.0000 0.2126
vn 0.7062 0.0000 -0.7080
vn 0.9898 0.0000 -0.1423
vn -0.1794 0.0000 0.9838
vn 0.7547 0.0000 -0.6561
vn 0.0421 0.0000 0.9991
vn 0.2848 0.0000 -0.9586
vn 0.2537 0.0000 0.9673
vn -0.0470 0.0000 -0.9989
vn 0.4268 0.0000 0.9044
vn -0.2969 0.0000 -0.9549
vn -0.4657 0.0000 -0.8849
vn -0.5679 0.0000 -0.8231
vn -0.4073 0.0000 -0.9133
vn 0.2827 0.0000 0.9592
vn -0.1177 0.0000 -0.9930
vn 0.1398 0.0000 0.9902
vn 0.2619 0.0000 -0.9651
vn 0.0073 0.0000 1.0000
vn -0.9523 0.0000 -0.3051
vn -0.3814 0.0000 0.9244
vn 0.9875 0.0000 -0.1575
vn -0.4420 0.0000 0.8970
vn -0.8950 0.0000 -0.4460
vn -0.4996 0.0000 -0.8663
vn -0.0241 0.0000 -0.9997
vn 0.4297 0.0000 -0.9030
vn 0.8796 0.0000 -0.4758
vn 0.9998 0.0000 -0.0217
vn 0.4762 0.0000 0.8793
vn -0.9438 0.0000 0.3305
vn -0.8490 0.0000 0.5285
vn -0.5833 0.0000 0.8123
vn 0.3404 0.0000 0.9403
vn 0.9912 0.0000 0.1323
vn 0.0228 0.0000 0.9997
vn 0.9833 0.0000 0.1821
vn -1.0000 0.0000 0.0042
vn -0.9823 0.0000 0.1876
vn 0.8098 0.0000 -0.5868
vn -0.2158 0.0000 0.9764
vn 0.9792 0.0000 -0.2027
vn 0.7021 0.0000 -0.7121
vn 0.2318 0.0000 -0.9728
vn -0.0786 0.0000 -0.9969
vn -0.3266 0.0000 -0.9452
vn -0.5830 0.0000 -0.8124
vn -0.4863 0.0000 -0.8738
vn 0.4550 0.0000 0.8905
vn 0.3791 0.0000 0.9254
vn 0.2669 0.0000 0.9637
vn 0.1216 0.0000 0.9926
vn 0.3626 0.0000 -0.9319
vn -0.0199 0.0000 0.9998
vn -0.8798 0.0000 0.4754
vn -0.9997 0.0000 -0.0250
vn -0.8603 0.0000 -0.5097
vn -0.4358 0.0000 -0.9000
vn 0.0223 0.0000 -0.9998
vn -0.9998 0.0000 0.0207
vn 0.6305 0.0000 -0.7762
vn -0.7125 0.0000 0.7017
vn -0.9962 0.0000 0.0870
vn 0.9584 0.0000 -0.2855
vn -0.9707 0.0000 0.2403
vn -0.9965 0.0000 0.0837
vn -0.8196 0.0000 0.5730
vn -0.4885 0.0000 0.8725
vn -0.3720 0.0000 0.9282
vn -0.1455 0.0000 0.9894
vn 0.0704 0.0000 0.9975
vn 0.0700 0.0000 0.9975
vn 0.5111 0.0000 0.8595
vn 0.2777 0.0000 0.9607
vn 0.9088 0.0000 0.4171
vn 0.4442 0.0000 0.8959
vn 0.9375 0.0000 0.3479
vn -0.9138 0.0000 0.4062
vn 0.7595 0.0000 -0.6505
vn -0.5519 0.0000 -0.8339
vn -0.3713 0.0000 -0.9285
vn -0.9996 0.0000 0.0289
vn -0.0830 0.0000 -0.9965
vn -0.9955 0.0000 0.0951
vn 0.3276 0.0000 -0.9448
vn 0.9941 0.0000 -0.1080
vn -0.4408 0.0000 0.8976
vn 0.9640 0.0000 -0.2659
vn -0.1143 0.0000 0.9934
vn 0.6465 0.0000 -0.7629
vn 0.0976 0.0000 0.9952
vn 0.1822 0.0000 -0.9833
vn 0.3012 0.0000 0.9535
vn -0.1103 0.0000 -0.9939
vn 0.4606 0.0000 0.8876
vn -0.3556 0.0000 -0.9346
vn -0.5078 0.0000 -0.8615
vn -0.5351 0.0000 -0.8448
vn 0.3668 0.0000 0.9303
vn -0.3349 0.0000 -0.9423
vn 0.2505 0.0000 0.9681
vn -0.0491 0.0000 -0.9988
vn 0.1039 0.0000 0.9946
vn -0.5064 0.0000 0.8623
vn 0.9981 0.0000 -0.0622
vn -0.9970 0.0000 -0.0776
vn -0.8206 0.0000 -0.5714
vn -0.3716 0.0000 -0.9284
vn 0.0698 0.0000 -0.9976
vn 0.5651 0.0000 -0.8250
vn 0.9377 0.0000 -0.3474
vn -0.9990 0.0000 0.0442
vn -0.8929 0.0000 0.4502
vn -0.4409 0.0000 0.8976
vn 0.8758 0.0000 0.4826
vn 0.3013 0.0000 0.9535
vn 0.4607 0.0000 0.8876
vn -0.9962 0.0000 0.0869
vn -0.8587 0.0000 0.5125
vn 0.9435 0.0000 -0.3314
vn -0.9997 0.0000 0.0262
vn 0.8903 0.0000 -0.4553
vn 0.5870 0.0000 -0.8096
vn 0.1361 0.0000 -0.9907
vn -0.3775 0.0000 -0.9260
vn -0.5305 0.0000 -0.8477
vn 0.3540 0.0000 0.9353
vn 0.5909 0.0000 -0.8068
vn 0.2336 0.0000 0.9723
vn 0.0867 0.0000 0.9962
vn -0.1072 0.0000 0.9942
vn -0.5689 0.0000 0.8224
vn -0.9415 0.0000 0.3369
vn -0.9911 0.0000 -0.1334
vn -0.7765 0.0000 -0.6301
vn 0.2352 0.0000 -0.9719
vn -0.3080 0.0000 -0.9514
vn 0.1211 0.0000 -0.9926
vn 0.3945 0.0000 -0.9189
vn -0.9993 0.0000 0.0373
vn -0.9942 0.0000 0.1075
vn 0.9854 0.0000 -0.1700
vn -0.9524 0.0000 0.3048
vn -0.7511 0.0000 0.6601
vn -0.7710 0.0000 0.6368
vn -0.3916 0.0000 0.9201
vn -0.2399 0.0000 0.9708
vn -0.0854 0.0000 0.9963
vn 0.1729 0.0000 0.9849
vn 0.1247 0.0000 0.9922
vn 0.1248 0.0000 0.9922
vn 0.6172 0.0000 0.7868
vn 0.3245 0.0000 0.9459
vn 0.9561 0.0000 0.2930
vn -0.9383 0.0000 0.3458
vn -0.5173 0.0000 -0.8558
vn 0.7483 0.0000 -0.6634
vn -0.2984 0.0000 -0.9545
vn -0.9990 0.0000 0.0455
vn -0.0161 0.0000 -0.9999
vn 0.4615 0.0000 -0.8871
vn -0.9395 0.0000 0.3424
vn 0.9998 0.0000 -0.0199
vn -0.3431 0.0000 0.9393
vn 0.9173 0.0000 -0.3983
vn -0.0587 0.0000 0.9983
vn 0.5240 0.0000 -0.8517
vn 0.1516 0.0000 0.9884
vn 0.3946 0.0000 -0.9189
vn 0.0932 0.0000 -0.9956
vn 0.3473 0.0000 0.9378
vn -0.1736 0.0000 -0.9848
vn 0.4910 0.0000 0.8712
vn -0.3934 0.0000 -0.9194
vn -0.6240 0.0000 -0.7814
vn -0.5544 0.0000 -0.8323
vn -0.4986 0.0000 -0.8668
vn 0.3407 0.0000 0.9402
vn -0.2617 0.0000 -0.9652
vn 0.2161 0.0000 0.9764
vn 0.2160 0.0000 0.9764
vn 0.0257 0.0000 -0.9997
vn 0.0699 0.0000 0.9976
vn 0.5273 0.0000 -0.8497
vn -0.9631 0.0000 0.2690
vn -0.6300 0.0000 0.7766
vn -0.9813 0.0000 -0.1923
vn -0.7287 0.0000 -0.6849
vn -0.2459 0.0000 -0.9693
vn 0.1763 0.0000 -0.9843
vn 0.6925 0.0000 -0.7214
vn 0.9741 0.0000 -0.2262
vn -0.9920 0.0000 0.1264
vn -0.9396 0.0000 0.3424
vn -0.8181 0.0000 0.5751
vn -0.3044 0.0000 0.9526
vn -0.3430 0.0000 0.9393
vn -0.9850 0.0000 0.1724
vn 0.1205 0.0000 0.9927
vn 0.5654 0.0000 0.8248
vn 0.5908 0.0000 -0.8068
vn 0.9354 0.0000 0.3536
vn 0.4909 0.0000 0.8712
vn -0.9993 0.0000 0.0372
vn 0.5274 0.0000 -0.8496
vn 0.2273 0.0000 0.9738
vn 0.8851 0.0000 -0.4654
vn -0.8489 0.0000 0.5285
vn 0.0537 0.0000 -0.9986
vn -0.2050 0.0000 -0.9788
vn -0.4101 0.0000 -0.9120
vn -0.3210 0.0000 0.9471
vn -0.5793 0.0000 -0.8151
vn -0.2983 0.0000 -0.9545
vn 0.3270 0.0000 0.9450
vn 0.1971 0.0000 0.9804
vn 0.4616 0.0000 -0.8871
vn 0.0535 0.0000 0.9986
vn -0.2078 0.0000 0.9782
vn -0.6880 0.0000 0.7258
vn -0.9791 0.0000 0.2033
vn -0.9673 0.0000 -0.2536
vn -0.6773 0.0000 -0.7357
vn -0.1860 0.0000 -0.9825
vn -0.5000 0.0000 -0.8661
vn 0.5000 0.0000 -0.8660
vn -0.5000 0.0000 -0.8660
vn 0.5000 0.0000 -0.8661
vn 0.5000 0.0000 0.8660
vn -0.5000 0.0000 0.8660
usemtl None
s off
f 1//1 2//1 3//1
f 4//1 2//1 1//1
f 4//1 5//1 2//1
f 6//1 5//1 4//1
f 7//1 5//1 6//1
f 7//1 8//1 5//1
f 9//1 8//1 7//1
f 9//1 10//1 8//1
f 11//1 10//1 9//1
f 12//1 10//1 11//1
f 12//1 13//1 10//1
f 14//1 13//1 12//1
f 15//1 13//1 14//1
f 15//1 16//1 13//1
f 17//1 16//1 15//1
f 17//1 18//1 16//1
f 19//1 18//1 17//1
f 20//1 21//1 22//1
f 20//1 23//1 21//1
f 24//1 18//1 19//1
f 24//1 25//1 18//1
f 26//1 25//1 24//1
f 27//1 25//1 26//1
f 27//1 28//1 25//1
f 29//1 28//1 27//1
f 29//1 30//1 28//1
f 31//1 30//1 29//1
f 32//1 30//1 31//1
f 32//1 33//1 30//1
f 34//1 33//1 32//1
f 35//1 33//1 34//1
f 35//1 36//1 33//1
f 37//1 36//1 35//1
f 37//1 38//1 36//1
f 39//1 38//1 37//1
f 40//1 38//1 39//1
f 40//1 41//1 38//1
f 42//1 41//1 40//1
f 23//1 41//1 42//1
f 23//1 43//1 41//1
f 20//1 44//1 23//1
f 44//1 45//1 23//1
f 45//1 46//1 23//1
f 46//1 47//1 23//1
f 47//1 48//1 23//1
f 48//1 49//1 23//1
f 49//1 50//1 23//1
f 50//1 51//1 23//1
f 51//1 52//1 23//1
f 52//1 53//1 23//1
f 53//1 54//1 23//1
f 54//1 55//1 23//1
f 55//1 56//1 23//1
f 56//1 57//1 23//1
f 57//1 58//1 23//1
f 58//1 59//1 23//1
f 59//1 43//1 23//1
f 59//1 60//1 43//1
f 60//2 61//2 43//2
f 61//1 62//1 43//1
f 61//1 63//1 62//1
f 63//1 64//1 62//1
f 64//1 65//1 62//1
f 64//3 66//3 65//3
f 66//1 67//1 65//1
f 66//1 68//1 67//1
f 68//1 69//1 67//1
f 69//1 70//1 67//1
f 69//1 71//1 70//1
f 71//1 72//1 70//1
f 72//1 73//1 70//1
f 74//1 73//1 72//1
f 75//1 73//1 74//1
f 76//1 73//1 75//1
f 77//1 73//1 76//1
f 78//1 73//1 77//1
f 79//1 73//1 78//1
f 79//1 80//1 73//1
f 81//1 80//1 79//1
f 82//1 80//1 81//1
f 83//1 80//1 82//1
f 84//1 80//1 83//1
f 85//1 80//1 84//1
f 86//1 80//1 85//1
f 87//1 80//1 86//1
f 88//1 80//1 87//1
f 89//1 80//1 88//1
f 90//1 80//1 89//1
f 91//1 80//1 90//1
f 91//1 92//1 80//1
f 93//1 92//1 91//1
f 94//1 92//1 93//1
f 95//1 92//1 94//1
f 96//1 92//1 95//1
f 97//1 92//1 96//1
f 98//1 92//1 97//1
f 98//1 99//1 92//1
f 100//1 99//1 98//1
f 20//1 101//1 44//1
f 102//1 99//1 100//1
f 103//1 99//1 102//1
f 104//1 99//1 103//1
f 105//1 99//1 104//1
f 106//1 99//1 105//1
f 106//1 107//1 99//1
f 108//1 107//1 106//1
f 109//1 107//1 108//1
f 110//1 107//1 109//1
f 111//1 107//1 110//1
f 111//1 112//1 107//1
f 113//1 112//1 111//1
f 114//1 112//1 113//1
f 115//1 112//1 114//1
f 116//1 112//1 115//1
f 117//1 112//1 116//1
f 118//1 112//1 117//1
f 119//1 112//1 118//1
f 120//1 112//1 119//1
f 121//1 112//1 120//1
f 122//1 112//1 121//1
f 123//1 112//1 122//1
f 124//1 112//1 123//1
f 125//1 112//1 124//1
f 126//1 112//1 125//1
f 127//1 112//1 126//1
f 128//1 112//1 127//1
f 129//1 130//1 131//1
f 129//1 132//1 130//1
f 133//1 132//1 129//1
f 133//1 134//1 132//1
f 135//1 134//1 133//1
f 135//1 136//1 134//1
f 137//1 136//1 135//1
f 137//1 138//1 136//1
f 139//1 138//1 137//1
f 139//1 140//1 138//1
f 141//1 140//1 139//1
f 141//1 142//1 140//1
f 143//1 142//1 141//1
f 143//1 144//1 142//1
f 145//1 144//1 143//1
f 145//1 146//1 144//1
f 147//1 146//1 145//1
f 147//1 148//1 146//1
f 149//1 148//1 147//1
f 149//1 150//1 148//1
f 151//1 150//1 149//1
f 151//1 152//1 150//1
f 153//1 152//1 151//1
f 153//1 154//1 152//1
f 153//1 155//1 154//1
f 156//1 155//1 153//1
f 156//1 157//1 155//1
f 158//1 157//1 156//1
f 158//1 159//1 157//1
f 159//4 160//4 157//4
f 160//1 161//1 157//1
f 162//1 163//1 158//1
f 163//5 159//5 158//5
f 162//1 164//1 163//1
f 165//4 161//4 160//4
f 162//1 166//1 164//1
f 167//1 161//1 165//1
f 162//1 168//1 166//1
f 169//1 161//1 167//1
f 162//1 170//1 168//1
f 171//1 161//1 169//1
f 162//1 172//1 170//1
f 173//1 161//1 171//1
f 162//1 174//1 172//1
f 175//1 161//1 173//1
f 162//1 176//1 174//1
f 175//1 177//1 161//1
f 178//1 177//1 175//1
f 162//1 179//1 176//1
f 180//1 177//1 178//1
f 181//1 179//1 162//1
f 181//1 182//1 179//1
f 183//1 177//1 180//1
f 181//1 184//1 182//1
f 185//1 177//1 183//1
f 181//1 186//1 184//1
f 187//1 177//1 185//1
f 187//1 188//1 177//1
f 181//1 189//1 186//1
f 190//1 188//1 187//1
f 191//1 189//1 181//1
f 191//1 192//1 189//1
f 193//1 188//1 190//1
f 191//1 194//1 192//1
f 195//1 188//1 193//1
f 195//1 196//1 188//1
f 191//1 197//1 194//1
f 198//1 196//1 195//1
f 199//1 197//1 191//1
f 199//1 200//1 197//1
f 201//1 196//1 198//1
f 199//1 202//1 200//1
f 203//1 196//1 201//1
f 203//1 204//1 196//1
f 199//1 205//1 202//1
f 206//1 204//1 203//1
f 207//1 205//1 199//1
f 207//1 208//1 205//1
f 209//1 204//1 206//1
f 209//1 210//1 204//1
f 207//1 211//1 208//1
f 212//1 210//1 209//1
f 213//1 211//1 207//1
f 213//1 214//1 211//1
f 215//1 210//1 212//1
f 213//1 216//1 214//1
f 215//1 217//1 210//1
f 218//1 217//1 215//1
f 219//1 216//1 213//1
f 219//1 220//1 216//1
f 221//1 217//1 218//1
f 219//1 221//1 220//1
f 219//1 217//1 221//1
f 219//1 222//1 217//1
f 223//1 222//1 219//1
f 223//1 224//1 222//1
f 225//1 224//1 223//1
f 225//1 226//1 224//1
f 227//1 226//1 225//1
f 228//1 226//1 227//1
f 229//1 230//1 228//1
f 230//1 226//1 228//1
f 229//1 231//1 230//1
f 229//1 232//1 231//1
f 233//1 232//1 229//1
f 233//1 234//1 232//1
f 233//1 235//1 234//1
f 236//1 235//1 233//1
f 236//1 237//1 235//1
f 236//1 238//1 237//1
f 239//1 238//1 236//1
f 239//1 240//1 238//1
f 239//1 241//1 240//1
f 242//1 243//1 244//1
f 242//1 245//1 243//1
f 239//1 246//1 241//1
f 247//1 245//1 242//1
f 248//1 246//1 239//1
f 249//1 245//1 247//1
f 248//1 250//1 246//1
f 251//1 245//1 249//1
f 252//1 245//1 251//1
f 248//1 253//1 250//1
f 254//1 245//1 252//1
f 255//1 245//1 254//1
f 256//1 253//1 248//1
f 256//1 257//1 253//1
f 258//1 245//1 255//1
f 256//1 259//1 257//1
f 260//1 245//1 258//1
f 261//1 245//1 260//1
f 256//1 262//1 259//1
f 263//1 245//1 261//1
f 256//1 264//1 262//1
f 265//1 264//1 256//1
f 266//1 245//1 263//1
f 267//1 245//1 266//1
f 265//1 268//1 264//1
f 269//1 245//1 267//1
f 265//1 270//1 268//1
f 271//1 245//1 269//1
f 265//1 272//1 270//1
f 273//1 245//1 271//1
f 274//1 245//1 273//1
f 265//1 275//1 272//1
f 276//1 275//1 265//1
f 277//1 245//1 274//1
f 276//1 278//1 275//1
f 279//1 245//1 277//1
f 276//1 280//1 278//1
f 281//1 245//1 279//1
f 282//1 245//1 281//1
f 276//1 283//1 280//1
f 284//1 245//1 282//1
f 276//1 285//1 283//1
f 286//1 245//1 284//1
f 276//1 287//1 285//1
f 287//1 245//1 286//1
f 276//1 245//1 287//1
f 288//1 245//1 276//1
f 289//1 245//1 288//1
f 290//1 245//1 289//1
f 291//1 245//1 290//1
f 292//1 245//1 291//1
f 293//1 245//1 292//1
f 293//1 294//1 245//1
f 295//1 294//1 293//1
f 295//1 296//1 294//1
f 295//1 297//1 296//1
f 295//1 298//1 297//1
f 299//1 298//1 295//1
f 299//1 300//1 298//1
f 299//1 301//1 300//1
f 302//1 301//1 299//1
f 302//1 303//1 301//1
f 302//1 304//1 303//1
f 302//1 305//1 304//1
f 306//1 305//1 302//1
f 306//1 307//1 305//1
f 306//1 308//1 307//1
f 309//1 308//1 306//1
f 309//1 310//1 308//1
f 309//1 311//1 310//1
f 309//1 312//1 311//1
f 313//1 312//1 309//1
f 313//1 314//1 312//1
f 313//1 315//1 314//1
f 313//1 316//1 315//1
f 317//1 316//1 313//1
f 317//1 318//1 316//1
f 317//1 319//1 318//1
f 320//1 319//1 317//1
f 320//1 321//1 319//1
f 320//1 322//1 321//1
f 320//1 323//1 322//1
f 324//5 323//5 320//5
f 324//2 325//2 323//2
f 326//1 327//1 328//1
f 326//1 329//1 327//1
f 329//1 330//1 331//1
f 329//1 332//1 330//1
f 326//1 332//1 329//1
f 333//1 334//1 335//1
f 333//1 336//1 334//1
f 337//1 338//1 339//1
f 337//1 340//1 338//1
f 341//1 342//1 343//1
f 341//1 344//1 342//1
f 345//1 346//1 347//1
f 348//1 346//1 345//1
f 348//1 349//1 346//1
f 350//1 349//1 348//1
f 351//1 349//1 350//1
f 351//1 352//1 349//1
f 353//1 352//1 351//1
f 353//1 354//1 352//1
f 355//1 354//1 353//1
f 356//1 354//1 355//1
f 356//1 357//1 354//1
f 358//1 357//1 356//1
f 359//1 357//1 358//1
f 359//1 360//1 357//1
f 361//1 360//1 359//1
f 361//1 362//1 360//1
f 363//1 362//1 361//1
f 364//1 365//1 366//1
f 364//1 367//1 365//1
f 368//1 362//1 363//1
f 368//1 369//1 362//1
f 370//1 369//1 368//1
f 371//1 369//1 370//1
f 371//1 372//1 369//1
f 373//1 372//1 371//1
f 373//1 374//1 372//1
f 375//1 374//1 373//1
f 376//1 374//1 375//1
f 376//1 377//1 374//1
f 378//1 377//1 376//1
f 379//1 377//1 378//1
f 379//1 380//1 377//1
f 381//1 380//1 379//1
f 381//1 382//1 380//1
f 383//1 382//1 381//1
f 384//1 382//1 383//1
f 384//1 385//1 382//1
f 386//1 385//1 384//1
f 367//1 385//1 386//1
f 367//1 387//1 385//1
f 364//1 388//1 367//1
f 388//1 389//1 367//1
f 389//1 390//1 367//1
f 390//1 391//1 367//1
f 391//1 392//1 367//1
f 392//1 393//1 367//1
f 393//1 394//1 367//1
f 394//1 395//1 367//1
f 395//1 396//1 367//1
f 396//1 397//1 367//1
f 397//1 398//1 367//1
f 398//1 399//1 367//1
f 399//1 400//1 367//1
f 400//1 401//1 367//1
f 401//1 402//1 367//1
f 402//1 403//1 367//1
f 403//1 387//1 367//1
f 403//1 404//1 387//1
f 404//1 405//1 387//1
f 405//1 406//1 387//1
f 405//1 407//1 406//1
f 407//1 408//1 406//1
f 408//1 409//1 406//1
f 408//1 410//1 409//1
f 410//1 411//1 409//1
f 410//1 412//1 411//1
f 412//1 413//1 411//1
f 413//1 414//1 411//1
f 413//1 415//1 414//1
f 415//1 416//1 414//1
f 416//1 417//1 414//1
f 418//1 417//1 416//1
f 419//1 417//1 418//1
f 420//1 417//1 419//1
f 421//5 417//5 420//5
f 422//1 417//1 421//1
f 423//1 417//1 422//1
f 423//1 424//1 417//1
f 425//1 424//1 423//1
f 426//1 424//1 425//1
f 427//1 424//1 426//1
f 428//1 424//1 427//1
f 429//1 424//1 428//1
f 430//1 424//1 429//1
f 431//1 424//1 430//1
f 432//1 424//1 431//1
f 433//1 424//1 432//1
f 434//1 424//1 433//1
f 435//1 424//1 434//1
f 435//1 436//1 424//1
f 437//1 436//1 435//1
f 438//1 436//1 437//1
f 439//1 436//1 438//1
f 440//1 436//1 439//1
f 441//1 436//1 440//1
f 442//1 436//1 441//1
f 442//1 443//1 436//1
f 444//1 443//1 442//1
f 364//1 445//1 388//1
f 446//1 443//1 444//1
f 447//1 443//1 446//1
f 448//1 443//1 447//1
f 449//1 443//1 448//1
f 450//1 443//1 449//1
f 450//1 451//1 443//1
f 452//1 451//1 450//1
f 453//1 451//1 452//1
f 454//1 451//1 453//1
f 455//1 451//1 454//1
f 455//1 456//1 451//1
f 457//1 456//1 455//1
f 458//1 456//1 457//1
f 459//1 456//1 458//1
f 460//1 456//1 459//1
f 461//1 456//1 460//1
f 462//1 456//1 461//1
f 463//1 456//1 462//1
f 464//1 456//1 463//1
f 465//1 456//1 464//1
f 466//1 456//1 465//1
f 467//1 456//1 466//1
f 468//1 456//1 467//1
f 469//1 456//1 468//1
f 470//1 456//1 469//1
f 471//1 456//1 470//1
f 472//1 456//1 471//1
f 473//1 474//1 475//1
f 474//1 476//1 475//1
f 474//1 477//1 476//1
f 473//1 478//1 474//1
f 473//1 479//1 478//1
f 479//1 480//1 478//1
f 479//1 481//1 480//1
f 473//1 482//1 479//1
f 473//1 483//1 482//1
f 473//1 484//1 483//1
f 485//6 486//6 487//6
f 488//6 485//6 487//6
f 488//6 487//6 489//6
f 490//6 488//6 489//6
f 491//6 490//6 489//6
f 491//6 489//6 492//6
f 493//6 491//6 492//6
f 493//6 492//6 494//6
f 495//6 493//6 494//6
f 496//6 495//6 494//6
f 496//6 494//6 497//6
f 498//6 496//6 497//6
f 499//6 498//6 497//6
f 499//6 497//6 500//6
f 501//6 499//6 500//6
f 501//6 500//6 502//6
f 503//6 501//6 502//6
f 504//6 505//6 506//6
f 504//6 506//6 507//6
f 508//6 503//6 502//6
f 508//6 502//6 509//6
f 510//6 508//6 509//6
f 511//6 510//6 509//6
f 511//6 509//6 512//6
f 513//6 511//6 512//6
f 513//6 512//6 514//6
f 515//6 513//6 514//6
f 516//6 515//6 514//6
f 516//6 514//6 517//6
f 518//6 516//6 517//6
f 519//6 518//6 517//6
f 519//6 517//6 520//6
f 521//6 519//6 520//6
f 521//6 520//6 522//6
f 523//6 521//6 522//6
f 524//6 523//6 522//6
f 524//6 522//6 525//6
f 526//6 524//6 525//6
f 507//6 526//6 525//6
f 507//6 525//6 527//6
f 504//6 507//6 528//6
f 528//6 507//6 529//6
f 529//6 507//6 530//6
f 530//6 507//6 531//6
f 531//6 507//6 532//6
f 532//6 507//6 533//6
f 533//6 507//6 534//6
f 534//6 507//6 535//6
f 535//6 507//6 536//6
f 536//6 507//6 537//6
f 537//6 507//6 538//6
f 538//6 507//6 539//6
f 539//6 507//6 540//6
f 540//6 507//6 541//6
f 541//6 507//6 542//6
f 542//6 507//6 543//6
f 543//6 507//6 527//6
f 543//7 527//7 544//7
f 544//8 527//8 545//8
f 545//6 527//6 546//6
f 545//9 546//9 547//9
f 547//10 546//10 548//10
f 548//6 546//6 549//6
f 548//11 549//11 550//11
f 550//6 549//6 551//6
f 550//6 551//6 552//6
f 552//6 551//6 553//6
f 553//6 551//6 554//6
f 553//6 554//6 555//6
f 555//10 554//10 556//10
f 556//6 554//6 557//6
f 558//12 556//12 557//12
f 559//6 558//6 557//6
f 560//6 559//6 557//6
f 561//13 560//13 557//13
f 562//14 561//14 557//14
f 563//6 562//6 557//6
f 563//6 557//6 564//6
f 565//6 563//6 564//6
f 566//13 565//13 564//13
f 567//6 566//6 564//6
f 568//6 567//6 564//6
f 569//6 568//6 564//6
f 570//6 569//6 564//6
f 571//6 570//6 564//6
f 572//6 571//6 564//6
f 573//6 572//6 564//6
f 574//6 573//6 564//6
f 575//6 574//6 564//6
f 575//6 564//6 576//6
f 577//6 575//6 576//6
f 578//6 577//6 576//6
f 579//6 578//6 576//6
f 580//6 579//6 576//6
f 581//6 580//6 576//6
f 582//6 581//6 576//6
f 582//6 576//6 583//6
f 584//6 582//6 583//6
f 504//6 528//6 585//6
f 586//6 584//6 583//6
f 587//6 586//6 583//6
f 588//6 587//6 583//6
f 589//6 588//6 583//6
f 590//6 589//6 583//6
f 590//6 583//6 591//6
f 592//6 590//6 591//6
f 593//6 592//6 591//6
f 594//6 593//6 591//6
f 595//6 594//6 591//6
f 595//6 591//6 596//6
f 597//6 595//6 596//6
f 598//6 597//6 596//6
f 599//6 598//6 596//6
f 600//6 599//6 596//6
f 601//6 600//6 596//6
f 602//6 601//6 596//6
f 603//6 602//6 596//6
f 604//6 603//6 596//6
f 605//6 604//6 596//6
f 606//6 605//6 596//6
f 607//6 606//6 596//6
f 608//6 607//6 596//6
f 609//6 608//6 596//6
f 610//6 609//6 596//6
f 611//6 610//6 596//6
f 612//6 611//6 596//6
f 613//6 614//6 615//6
f 613//6 615//6 616//6
f 617//6 613//6 616//6
f 617//6 616//6 618//6
f 619//6 617//6 618//6
f 619//6 618//6 620//6
f 621//6 619//6 620//6
f 621//6 620//6 622//6
f 623//6 621//6 622//6
f 623//6 622//6 624//6
f 625//6 623//6 624//6
f 625//6 624//6 626//6
f 627//6 625//6 626//6
f 627//6 626//6 628//6
f 629//6 627//6 628//6
f 629//6 628//6 630//6
f 631//6 629//6 630//6
f 631//6 630//6 632//6
f 633//6 631//6 632//6
f 633//6 632//6 634//6
f 635//6 633//6 634//6
f 635//6 634//6 636//6
f 637//6 635//6 636//6
f 637//6 636//6 638//6
f 637//6 638//6 639//6
f 640//6 637//6 639//6
f 640//6 639//6 641//6
f 642//6 640//6 641//6
f 642//6 641//6 643//6
f 643//6 641//6 644//6
f 644//6 641//6 645//6
f 646//6 642//6 647//6
f 647//13 642//13 643//13
f 646//10 647//10 648//10
f 649//6 644//6 645//6
f 646//6 648//6 650//6
f 651//6 649//6 645//6
f 646//6 650//6 652//6
f 653//6 651//6 645//6
f 646//6 652//6 654//6
f 655//6 653//6 645//6
f 646//6 654//6 656//6
f 657//6 655//6 645//6
f 646//6 656//6 658//6
f 659//6 657//6 645//6
f 646//6 658//6 660//6
f 659//6 645//6 661//6
f 662//6 659//6 661//6
f 646//6 660//6 663//6
f 664//6 662//6 661//6
f 665//6 646//6 663//6
f 665//6 663//6 666//6
f 667//6 664//6 661//6
f 665//6 666//6 668//6
f 669//6 667//6 661//6
f 665//6 668//6 670//6
f 671//6 669//6 661//6
f 671//6 661//6 672//6
f 665//6 670//6 673//6
f 674//6 671//6 672//6
f 675//6 665//6 673//6
f 675//6 673//6 676//6
f 677//6 674//6 672//6
f 675//6 676//6 678//6
f 679//6 677//6 672//6
f 679//6 672//6 680//6
f 675//6 678//6 681//6
f 682//6 679//6 680//6
f 683//6 675//6 681//6
f 683//6 681//6 684//6
f 685//6 682//6 680//6
f 683//6 684//6 686//6
f 687//6 685//6 680//6
f 687//6 680//6 688//6
f 683//6 686//6 689//6
f 690//6 687//6 688//6
f 691//6 683//6 689//6
f 691//6 689//6 692//6
f 693//6 690//6 688//6
f 693//6 688//6 694//6
f 691//6 692//6 695//6
f 696//6 693//6 694//6
f 697//6 691//6 695//6
f 697//6 695//6 698//6
f 699//6 696//6 694//6
f 697//6 698//6 700//6
f 699//6 694//6 701//6
f 702//6 699//6 701//6
f 703//6 697//6 700//6
f 703//6 700//6 704//6
f 705//6 702//6 701//6
f 703//6 704//6 705//6
f 703//6 705//6 701//6
f 703//6 701//6 706//6
f 707//6 703//6 706//6
f 707//6 706//6 708//6
f 709//6 707//6 708//6
f 709//6 708//6 710//6
f 711//6 709//6 710//6
f 712//6 711//6 710//6
f 713//6 712//6 714//6
f 714//6 712//6 710//6
f 713//6 714//6 715//6
f 713//6 715//6 716//6
f 717//6 713//6 716//6
f 717//6 716//6 718//6
f 717//6 718//6 719//6
f 720//6 717//6 719//6
f 720//6 719//6 721//6
f 720//6 721//6 722//6
f 723//6 720//6 722//6
f 723//6 722//6 724//6
f 723//6 724//6 725//6
f 726//6 727//6 728//6
f 726//6 728//6 729//6
f 723//6 725//6 730//6
f 731//6 726//6 729//6
f 732//6 723//6 730//6
f 733//6 731//6 729//6
f 732//6 730//6 734//6
f 735//6 733//6 729//6
f 736//6 735//6 729//6
f 732//6 734//6 737//6
f 738//6 736//6 729//6
f 739//6 738//6 729//6
f 740//6 732//6 737//6
f 740//6 737//6 741//6
f 742//6 739//6 729//6
f 740//6 741//6 743//6
f 744//6 742//6 729//6
f 745//6 744//6 729//6
f 740//6 743//6 746//6
f 747//6 745//6 729//6
f 740//6 746//6 748//6
f 749//6 740//6 748//6
f 750//6 747//6 729//6
f 751//6 750//6 729//6
f 749//6 748//6 752//6
f 753//6 751//6 729//6
f 749//6 752//6 754//6
f 755//6 753//6 729//6
f 749//6 754//6 756//6
f 757//6 755//6 729//6
f 758//6 757//6 729//6
f 749//6 756//6 759//6
f 760//6 749//6 759//6
f 761//6 758//6 729//6
f 760//6 759//6 762//6
f 763//6 761//6 729//6
f 760//6 762//6 764//6
f 765//6 763//6 729//6
f 766//6 765//6 729//6
f 760//6 764//6 767//6
f 768//6 766//6 729//6
f 760//6 767//6 769//6
f 770//6 768//6 729//6
f 760//6 769//6 771//6
f 771//6 770//6 729//6
f 760//6 771//6 729//6
f 772//6 760//6 729//6
f 773//6 772//6 729//6
f 774//6 773//6 729//6
f 775//6 774//6 729//6
f 776//6 775//6 729//6
f 777//6 776//6 729//6
f 777//6 729//6 778//6
f 779//6 777//6 778//6
f 779//6 778//6 780//6
f 779//6 780//6 781//6
f 779//6 781//6 782//6
f 783//6 779//6 782//6
f 783//6 782//6 784//6
f 783//6 784//6 785//6
f 786//6 783//6 785//6
f 786//6 785//6 787//6
f 786//6 787//6 788//6
f 786//6 788//6 789//6
f 790//6 786//6 789//6
f 790//6 789//6 791//6
f 790//6 791//6 792//6
f 793//6 790//6 792//6
f 793//6 792//6 794//6
f 793//6 794//6 795//6
f 793//6 795//6 796//6
f 797//6 793//6 796//6
f 797//6 796//6 798//6
f 797//6 798//6 799//6
f 797//6 799//6 800//6
f 801//6 797//6 800//6
f 801//6 800//6 802//6
f 801//6 802//6 803//6
f 804//6 801//6 803//6
f 804//6 803//6 805//6
f 804//6 805//6 806//6
f 804//6 806//6 807//6
f 808//6 804//6 807//6
f 808//6 807//6 809//6
f 810//6 811//6 812//6
f 810//6 812//6 813//6
f 813//6 814//6 815//6
f 813//6 815//6 816//6
f 810//6 813//6 816//6
f 817//6 818//6 819//6
f 817//6 819//6 820//6
f 821//6 822//6 823//6
f 821//6 823//6 824//6
f 825//6 826//6 827//6
f 825//6 827//6 828//6
f 829//14 830//14 831//14
f 832//6 829//6 831//6
f 832//6 831//6 833//6
f 834//6 832//6 833//6
f 835//6 834//6 833//6
f 835//6 833//6 836//6
f 837//6 835//6 836//6
f 837//6 836//6 838//6
f 839//6 837//6 838//6
f 840//6 839//6 838//6
f 840//6 838//6 841//6
f 842//6 840//6 841//6
f 843//6 842//6 841//6
f 843//6 841//6 844//6
f 845//6 843//6 844//6
f 845//6 844//6 846//6
f 847//6 845//6 846//6
f 848//6 849//6 850//6
f 848//6 850//6 851//6
f 852//6 847//6 846//6
f 852//6 846//6 853//6
f 854//6 852//6 853//6
f 855//6 854//6 853//6
f 855//6 853//6 856//6
f 857//6 855//6 856//6
f 857//6 856//6 858//6
f 859//6 857//6 858//6
f 860//6 859//6 858//6
f 860//6 858//6 861//6
f 862//6 860//6 861//6
f 863//6 862//6 861//6
f 863//6 861//6 864//6
f 865//6 863//6 864//6
f 865//6 864//6 866//6
f 867//6 865//6 866//6
f 868//6 867//6 866//6
f 868//6 866//6 869//6
f 870//6 868//6 869//6
f 851//6 870//6 869//6
f 851//6 869//6 871//6
f 848//6 851//6 872//6
f 872//6 851//6 873//6
f 873//6 851//6 874//6
f 874//6 851//6 875//6
f 875//6 851//6 876//6
f 876//6 851//6 877//6
f 877//6 851//6 878//6
f 878//6 851//6 879//6
f 879//6 851//6 880//6
f 880//6 851//6 881//6
f 881//6 851//6 882//6
f 882//6 851//6 883//6
f 883//6 851//6 884//6
f 884//6 851//6 885//6
f 885//6 851//6 886//6
f 886//6 851//6 887//6
f 887//6 851//6 871//6
f 887//6 871//6 888//6
f 888//10 871//10 889//10
f 889//6 871//6 890//6
f 889//6 890//6 891//6
f 891//6 890//6 892//6
f 892//6 890//6 893//6
f 892//6 893//6 894//6
f 894//6 893//6 895//6
f 894//15 895//15 896//15
f 896//16 895//16 897//16
f 897//6 895//6 898//6
f 897//17 898//17 899//17
f 899//6 898//6 900//6
f 900//6 898//6 901//6
f 902//6 900//6 901//6
f 903//6 902//6 901//6
f 904//13 903//13 901//13
f 905//6 904//6 901//6
f 906//14 905//14 901//14
f 907//6 906//6 901//6
f 907//6 901//6 908//6
f 909//13 907//13 908//13
f 910//14 909//14 908//14
f 911//6 910//6 908//6
f 912//6 911//6 908//6
f 913//6 912//6 908//6
f 914//6 913//6 908//6
f 915//6 914//6 908//6
f 916//6 915//6 908//6
f 917//6 916//6 908//6
f 918//6 917//6 908//6
f 919//6 918//6 908//6
f 919//6 908//6 920//6
f 921//6 919//6 920//6
f 922//6 921//6 920//6
f 923//6 922//6 920//6
f 924//6 923//6 920//6
f 925//6 924//6 920//6
f 926//6 925//6 920//6
f 926//6 920//6 927//6
f 928//6 926//6 927//6
f 848//6 872//6 929//6
f 930//6 928//6 927//6
f 931//6 930//6 927//6
f 932//6 931//6 927//6
f 933//6 932//6 927//6
f 934//6 933//6 927//6
f 934//6 927//6 935//6
f 936//6 934//6 935//6
f 937//6 936//6 935//6
f 938//6 937//6 935//6
f 939//6 938//6 935//6
f 939//6 935//6 940//6
f 941//6 939//6 940//6
f 942//6 941//6 940//6
f 943//6 942//6 940//6
f 944//6 943//6 940//6
f 945//6 944//6 940//6
f 946//6 945//6 940//6
f 947//6 946//6 940//6
f 948//6 947//6 940//6
f 949//6 948//6 940//6
f 950//6 949//6 940//6
f 951//6 950//6 940//6
f 952//6 951//6 940//6
f 953//6 952//6 940//6
f 954//6 953//6 940//6
f 955//6 954//6 940//6
f 956//6 955//6 940//6
f 957//6 958//6 959//6
f 959//6 958//6 960//6
f 959//6 960//6 961//6
f 957//6 959//6 962//6
f 957//6 962//6 963//6
f 963//6 962//6 964//6
f 963//6 964//6 965//6
f 957//6 963//6 966//6
f 957//6 966//6 967//6
f 957//6 967//6 968//6
f 112//18 128//18 612//18
f 112//18 612//18 596//18
f 217//19 222//19 706//19
f 217//19 706//19 701//19
f 103//20 102//20 586//20
f 103//20 586//20 587//20
f 206//21 203//21 687//21
f 206//21 687//21 690//21
f 370//22 368//22 852//22
f 370//22 852//22 854//22
f 93//23 91//23 575//23
f 93//23 575//23 577//23
f 185//24 183//24 667//24
f 185//24 667//24 669//24
f 84//25 83//25 567//25
f 84//25 567//25 568//25
f 167//26 165//26 649//26
f 167//26 649//26 651//26
f 413//27 412//27 896//27
f 413//27 896//27 897//27
f 75//28 74//28 558//28
f 75//28 558//28 559//28
f 170//29 172//29 656//29
f 170//29 656//29 654//29
f 63//30 61//30 545//30
f 63//30 545//30 547//30
f 189//31 192//31 676//31
f 189//31 676//31 673//31
f 70//32 73//32 557//32
f 70//32 557//32 554//32
f 433//33 432//33 916//33
f 433//33 916//33 917//33
f 54//34 53//34 537//34
f 54//34 537//34 538//34
f 46//35 45//35 529//35
f 46//35 529//35 530//35
f 327//36 329//36 813//36
f 327//36 813//36 812//36
f 208//37 211//37 695//37
f 208//37 695//37 692//37
f 42//38 40//38 524//38
f 42//38 524//38 526//38
f 333//39 335//39 818//39
f 333//39 818//39 817//39
f 29//40 27//40 511//40
f 29//40 511//40 513//40
f 472//39 471//39 955//39
f 472//39 955//39 956//39
f 12//41 11//41 495//41
f 12//41 495//41 496//41
f 464//42 463//42 947//42
f 464//42 947//42 948//42
f 2//43 5//43 489//43
f 2//43 489//43 487//43
f 455//44 454//44 938//44
f 455//44 938//44 939//44
f 121//45 120//45 604//45
f 121//45 604//45 605//45
f 446//46 444//46 928//46
f 446//46 928//46 930//46
f 155//47 157//47 641//47
f 155//47 641//47 639//47
f 65//48 67//48 551//48
f 65//48 551//48 549//48
f 435//49 434//49 918//49
f 435//49 918//49 919//49
f 107//50 112//50 596//50
f 107//50 596//50 591//50
f 226//18 230//18 714//18
f 226//18 714//18 710//18
f 313//51 309//51 793//51
f 313//51 793//51 797//51
f 458//52 457//52 941//52
f 458//52 941//52 942//52
f 406//53 409//53 893//53
f 406//53 893//53 890//53
f 240//54 241//54 725//54
f 240//54 725//54 724//54
f 418//55 416//55 900//55
f 418//55 900//55 902//55
f 430//56 429//56 913//56
f 430//56 913//56 914//56
f 288//57 276//57 760//57
f 288//57 760//57 772//57
f 264//58 268//58 752//58
f 264//58 752//58 748//58
f 405//59 404//59 888//59
f 405//59 888//59 889//59
f 385//60 387//60 871//60
f 385//60 871//60 869//60
f 285//61 287//61 771//61
f 285//61 771//61 769//61
f 397//62 396//62 880//62
f 397//62 880//62 881//62
f 274//63 273//63 757//63
f 274//63 757//63 758//63
f 389//64 388//64 872//64
f 389//64 872//64 873//64
f 444//65 442//65 926//65
f 444//65 926//65 928//65
f 260//66 258//66 742//66
f 260//66 742//66 744//66
f 384//67 383//67 867//67
f 384//67 867//67 868//67
f 242//68 244//68 727//68
f 242//68 727//68 726//68
f 300//69 301//69 785//69
f 300//69 785//69 784//69
f 355//70 353//70 837//70
f 355//70 837//70 839//70
f 311//71 312//71 796//71
f 311//71 796//71 795//71
f 349//72 352//72 836//72
f 349//72 836//72 833//72
f 398//73 397//73 881//73
f 398//73 881//73 882//73
f 322//74 323//74 807//74
f 322//74 807//74 806//74
f 374//75 377//75 861//75
f 374//75 861//75 858//75
f 306//76 302//76 786//76
f 306//76 786//76 790//76
f 113//77 111//77 595//77
f 113//78 595//78 597//78
f 289//79 288//79 772//79
f 289//79 772//79 773//79
f 233//80 229//80 713//80
f 233//80 713//80 717//80
f 207//81 199//81 683//81
f 207//81 683//81 691//81
f 352//82 354//82 838//82
f 352//82 838//82 836//82
f 151//83 149//83 633//83
f 151//83 633//83 635//83
f 135//84 133//84 617//84
f 135//84 617//84 619//84
f 371//85 370//85 854//85
f 371//85 854//85 855//85
f 138//86 140//86 624//86
f 138//86 624//86 622//86
f 128//39 127//39 611//39
f 128//39 611//39 612//39
f 281//87 279//87 763//87
f 281//87 763//87 765//87
f 154//88 155//88 639//88
f 154//88 639//88 638//88
f 120//42 119//42 603//42
f 120//42 603//42 604//42
f 439//89 438//89 922//89
f 439//89 922//89 923//89
f 210//90 217//90 701//90
f 210//90 701//90 694//90
f 111//91 110//91 594//91
f 111//91 594//91 595//91
f 224//50 226//50 710//50
f 224//50 710//50 708//50
f 62//53 65//53 549//53
f 62//53 549//53 546//53
f 209//92 206//92 690//92
f 209//92 690//92 693//92
f 102//93 100//93 584//93
f 102//93 584//93 586//93
f 187//94 185//94 669//94
f 187//94 669//94 671//94
f 91//49 90//49 574//49
f 91//49 574//49 575//49
f 169//95 167//95 651//95
f 169//95 651//95 653//95
f 83//96 82//96 566//96
f 83//96 566//96 567//96
f 414//32 417//32 901//32
f 414//32 901//32 898//32
f 427//96 426//96 910//96
f 427//96 910//96 911//96
f 320//97 317//97 801//97
f 320//97 801//97 804//97
f 165//98 160//98 644//98
f 165//98 644//98 649//98
f 74//55 72//55 556//55
f 74//55 556//55 558//55
f 186//99 189//99 673//99
f 186//99 673//99 670//99
f 61//59 60//59 544//59
f 61//59 544//59 545//59
f 53//62 52//62 536//62
f 53//62 536//62 537//62
f 328//100 327//100 812//100
f 328//100 812//100 811//100
f 45//64 44//64 528//64
f 45//64 528//64 529//64
f 336//18 333//18 817//18
f 336//18 817//18 820//18
f 40//67 39//67 523//67
f 40//67 523//67 524//67
f 334//50 336//50 820//50
f 334//50 820//50 819//50
f 456//18 472//18 956//18
f 456//18 956//18 940//18
f 27//85 26//85 510//85
f 27//85 510//85 511//85
f 11//70 9//70 493//70
f 11//70 493//70 495//70
f 5//72 8//72 492//72
f 5//72 492//72 489//72
f 450//101 449//101 933//101
f 450//101 933//101 934//101
f 447//20 446//20 930//20
f 447//20 930//20 931//20
f 30//75 33//75 517//75
f 30//75 517//75 514//75
f 437//102 435//102 919//102
f 437//102 919//102 921//102
f 67//103 70//103 554//103
f 67//103 554//103 551//103
f 428//25 427//25 911//25
f 428//25 911//25 912//25
f 230//104 231//104 715//104
f 230//104 715//104 714//104
f 419//28 418//28 902//28
f 419//28 902//28 903//28
f 241//105 246//105 730//105
f 241//105 730//105 725//105
f 484//18 473//18 957//18
f 484//18 957//18 968//18
f 407//106 405//106 889//106
f 407//106 889//106 891//106
f 268//107 270//107 754//107
f 268//108 754//108 752//108
f 287//109 286//109 770//109
f 287//109 770//109 771//109
f 390//35 389//35 873//35
f 390//35 873//35 874//35
f 273//110 271//110 755//110
f 273//110 755//110 757//110
f 386//38 384//38 868//38
f 386//38 868//38 870//38
f 258//111 255//111 739//111
f 258//111 739//111 742//111
f 373//40 371//40 855//40
f 373//40 855//40 857//40
f 244//100 243//100 728//100
f 244//100 728//100 727//100
f 356//41 355//41 839//41
f 356//41 839//41 840//41
f 301//112 303//112 787//112
f 301//112 787//112 785//112
f 346//43 349//43 833//43
f 346//43 833//43 831//43
f 312//113 314//113 798//113
f 312//113 798//113 796//113
f 295//114 293//114 777//114
f 295//114 777//114 779//114
f 323//115 325//115 809//115
f 323//115 809//115 807//115
f 276//116 265//116 749//116
f 276//116 749//116 760//116
f 451//50 456//50 940//50
f 451//50 940//50 935//50
f 229//117 228//117 712//117
f 229//117 712//117 713//117
f 483//50 484//50 968//50
f 483//50 968//50 967//50
f 199//118 191//118 675//118
f 199//118 675//118 683//118
f 465//45 464//45 948//45
f 465//45 948//45 949//45
f 149//119 147//119 631//119
f 149//119 631//119 633//119
f 432//120 431//120 915//120
f 432//120 915//120 916//120
f 133//121 129//121 613//121
f 133//121 613//121 617//121
f 192//122 194//122 678//122
f 192//122 678//122 676//122
f 127//123 126//123 610//123
f 127//123 610//123 611//123
f 119//124 118//124 602//124
f 119//124 602//124 603//124
f 161//125 177//125 661//125
f 161//125 661//125 645//125
f 110//126 109//126 593//126
f 110//126 593//126 594//126
f 440//127 439//127 923//127
f 440//127 923//127 924//127
f 100//65 98//65 582//65
f 100//65 582//65 584//65
f 201//128 198//128 682//128
f 201//128 682//128 685//128
f 90//129 89//129 573//129
f 90//129 573//129 574//129
f 180//130 178//130 662//130
f 180//130 662//130 664//130
f 144//131 146//131 630//131
f 144//131 630//131 628//131
f 82//132 81//132 565//132
f 82//132 565//132 566//132
f 160//133 159//133 643//133
f 160//133 643//133 644//133
f 72//134 71//134 555//134
f 72//134 555//134 556//134
f 174//135 176//135 660//135
f 174//135 660//135 658//135
f 60//136 59//136 543//136
f 60//136 543//136 544//136
f 194//137 197//137 681//137
f 194//137 681//137 678//137
f 52//138 51//138 535//138
f 52//138 535//138 536//138
f 216//139 220//139 704//139
f 216//139 704//139 700//139
f 44//50 101//50 585//50
f 44//50 585//50 528//50
f 262//140 264//140 748//140
f 262//140 748//140 746//140
f 39//141 37//141 521//141
f 39//141 521//141 523//141
f 457//77 455//77 939//77
f 457//77 939//77 941//77
f 26//22 24//22 508//22
f 26//22 508//22 510//22
f 470//142 469//142 953//142
f 470//142 953//142 954//142
f 9//143 7//143 491//143
f 9//143 491//143 493//143
f 462//144 461//144 945//144
f 462//144 945//144 946//144
f 453//145 452//145 936//145
f 453//145 936//145 937//145
f 33//146 36//146 520//146
f 33//146 520//146 517//146
f 231//147 232//147 716//147
f 231//147 716//147 715//147
f 425//148 423//148 907//148
f 425//148 907//148 909//148
f 246//149 250//149 734//149
f 246//149 734//149 730//149
f 415//150 413//150 897//150
f 415//150 897//150 899//150
f 270//151 272//151 756//151
f 270//151 756//151 754//151
f 403//152 402//152 886//152
f 403//152 886//152 887//152
f 286//153 284//153 768//153
f 286//153 768//153 770//153
f 395//154 394//154 878//154
f 395//154 878//154 879//154
f 411//103 414//103 898//103
f 411//103 898//103 895//103
f 271//155 269//155 753//155
f 271//155 753//155 755//155
f 445//18 364//18 848//18
f 445//18 848//18 929//18
f 255//156 254//156 738//156
f 255//156 738//156 739//156
f 381//157 379//157 863//157
f 381//157 863//157 865//157
f 243//50 245//50 729//50
f 243//50 729//50 728//50
f 368//158 363//158 847//158
f 368//158 847//158 852//158
f 303//159 304//159 788//159
f 303//159 788//159 787//159
f 351//160 350//160 834//160
f 351//160 834//160 835//160
f 314//161 315//161 799//161
f 314//161 799//161 798//161
f 354//162 357//162 841//162
f 354//162 841//162 838//162
f 325//163 324//163 808//163
f 325//163 808//163 809//163
f 329//164 331//164 814//164
f 329//164 814//164 813//164
f 299//165 295//165 779//165
f 299//165 779//165 783//165
f 417//166 424//166 908//166
f 417//166 908//166 901//166
f 476//50 477//50 961//50
f 476//50 961//50 960//50
f 178//167 175//167 659//167
f 178//167 659//167 662//167
f 191//168 181//168 665//168
f 191//168 665//168 675//168
f 147//169 145//169 629//169
f 147//169 629//169 631//169
f 129//170 131//170 614//170
f 129//170 614//170 613//170
f 142//171 144//171 628//171
f 142//171 628//171 626//171
f 126//142 125//142 609//142
f 126//142 609//142 610//142
f 473//39 475//39 958//39
f 473//39 958//39 957//39
f 157//172 161//172 645//172
f 157//172 645//172 641//172
f 118//144 117//144 601//144
f 118//144 601//144 602//144
f 222//173 224//173 708//173
f 222//173 708//173 706//173
f 109//145 108//145 592//145
f 109//145 592//145 593//145
f 392//174 391//174 875//174
f 392//174 875//174 876//174
f 203//175 201//175 685//175
f 203//175 685//175 687//175
f 98//176 97//176 581//176
f 98//176 581//176 582//176
f 183//177 180//177 664//177
f 183//177 664//177 667//177
f 89//33 88//33 572//33
f 89//33 572//33 573//33
f 81//148 79//148 563//148
f 81//148 563//148 565//148
f 172//178 174//178 658//178
f 172//178 658//178 656//178
f 71//150 69//150 553//150
f 71//150 553//150 555//150
f 475//100 476//100 960//100
f 475//100 960//100 958//100
f 59//152 58//152 542//152
f 59//152 542//152 543//152
f 214//179 216//179 700//179
f 214//179 700//179 698//179
f 51//154 50//154 534//154
f 51//154 534//154 535//154
f 159//180 163//180 647//180
f 159//180 647//180 643//180
f 101//18 20//18 504//18
f 101//18 504//18 585//18
f 211//181 214//181 698//181
f 211//181 698//181 695//181
f 335//100 334//100 819//100
f 335//100 819//100 818//100
f 37//157 35//157 519//157
f 37//157 519//157 521//157
f 471//182 470//182 954//182
f 471//182 954//182 955//182
f 24//158 19//158 503//158
f 24//158 503//158 508//158
f 463//124 462//124 946//124
f 463//124 946//124 947//124
f 7//160 6//160 490//160
f 7//160 490//160 491//160
f 454//183 453//183 937//183
f 454//183 937//183 938//183
f 10//162 13//162 497//162
f 10//162 497//162 494//162
f 382//184 385//184 869//184
f 382//184 869//184 866//184
f 479//50 482//50 966//50
f 479//50 966//50 963//50
f 434//129 433//129 917//129
f 434//129 917//129 918//129
f 73//166 80//166 564//166
f 73//166 564//166 557//166
f 426//185 425//185 909//185
f 426//185 909//185 910//185
f 232//186 234//186 718//186
f 232//186 718//186 716//186
f 416//134 415//134 899//134
f 416//134 899//134 900//134
f 250//187 253//187 737//187
f 250//187 737//187 734//187
f 404//136 403//136 887//136
f 404//136 887//136 888//136
f 272//188 275//188 759//188
f 272//188 759//188 756//188
f 396//138 395//138 879//138
f 396//138 879//138 880//138
f 284//189 282//189 766//189
f 284//189 766//189 768//189
f 388//50 445//50 929//50
f 388//50 929//50 872//50
f 269//190 267//190 751//190
f 269//190 751//190 753//190
f 383//191 381//191 865//191
f 383//191 865//191 867//191
f 254//192 252//192 736//192
f 254//192 736//192 738//192
f 176//193 179//193 663//193
f 176//193 663//193 660//193
f 245//194 294//194 778//194
f 245//194 778//194 729//194
f 353//143 351//143 835//143
f 353//143 835//143 837//143
f 304//195 305//195 789//195
f 304//195 789//195 788//195
f 315//196 316//196 800//196
f 315//196 800//196 799//196
f 140//197 142//197 626//197
f 140//197 626//197 624//197
f 377//146 380//146 864//146
f 377//146 864//146 861//146
f 324//198 320//198 804//198
f 324//198 804//198 808//198
f 265//199 256//199 740//199
f 265//199 740//199 749//199
f 482//100 483//100 967//100
f 482//100 967//100 966//100
f 227//200 225//200 709//200
f 227//200 709//200 711//200
f 181//201 162//201 646//201
f 181//201 646//201 665//201
f 145//202 143//202 627//202
f 145//202 627//202 629//202
f 131//203 130//203 615//203
f 131//203 615//203 614//203
f 125//204 124//204 608//204
f 125//204 608//204 609//204
f 148//205 150//205 634//205
f 148//205 634//205 632//205
f 438//206 437//206 921//206
f 438//206 921//206 922//206
f 117//207 116//207 600//207
f 117//207 600//207 601//207
f 188//208 196//208 680//208
f 188//208 680//208 672//208
f 108//209 106//209 590//209
f 108//209 590//209 592//209
f 218//210 215//210 699//210
f 218//210 699//210 702//210
f 97//211 96//211 580//211
f 97//211 580//211 581//211
f 88//212 87//212 571//212
f 88//212 571//212 572//212
f 175//213 173//213 657//213
f 175//213 657//213 659//213
f 79//214 78//214 562//214
f 79//214 562//214 563//214
f 163//215 164//215 648//215
f 163//215 648//215 647//215
f 69//216 68//216 552//216
f 69//216 552//216 553//216
f 179//217 182//217 666//217
f 179//217 666//217 663//217
f 58//218 57//218 541//218
f 58//218 541//218 542//218
f 200//219 202//219 686//219
f 200//219 686//219 684//219
f 50//220 49//220 533//220
f 50//220 533//220 534//220
f 330//221 332//221 816//221
f 330//221 816//221 815//221
f 331//100 330//100 815//100
f 331//100 815//100 814//100
f 20//39 22//39 505//39
f 20//39 505//39 504//39
f 256//222 248//222 732//222
f 256//222 732//222 740//222
f 380//223 382//223 866//223
f 380//223 866//223 864//223
f 35//224 34//224 518//224
f 35//224 518//224 519//224
f 341//39 343//39 826//39
f 341//39 826//39 825//39
f 19//225 17//225 501//225
f 19//225 501//225 503//225
f 468//226 467//226 951//226
f 468//226 951//226 952//226
f 6//227 4//227 488//227
f 6//227 488//227 490//227
f 460//228 459//228 943//228
f 460//228 943//228 944//228
f 13//229 16//229 500//229
f 13//229 500//229 497//229
f 38//184 41//184 525//184
f 38//184 525//184 522//184
f 80//230 92//230 576//230
f 80//230 576//230 564//230
f 431//231 430//231 914//231
f 431//231 914//231 915//231
f 234//232 235//232 719//232
f 234//232 719//232 718//232
f 422//233 421//233 905//233
f 422//233 905//233 906//233
f 253//234 257//234 741//234
f 253//234 741//234 737//234
f 412//235 410//235 894//235
f 412//235 894//235 896//235
f 275//236 278//236 762//236
f 275//236 762//236 759//236
f 401//237 400//237 884//237
f 401//237 884//237 885//237
f 282//238 281//238 765//238
f 282//238 765//238 766//238
f 393//239 392//239 876//239
f 393//239 876//239 877//239
f 267//240 266//240 750//240
f 267//240 750//240 751//240
f 366//100 365//100 850//100
f 366//100 850//100 849//100
f 252//241 251//241 735//241
f 252//241 735//241 736//241
f 378//242 376//242 860//242
f 378//242 860//242 862//242
f 294//243 296//243 780//243
f 294//243 780//243 778//243
f 361//244 359//244 843//244
f 361//244 843//244 845//244
f 305//245 307//245 791//245
f 305//245 791//245 789//245
f 348//246 345//246 829//246
f 348//246 829//246 832//246
f 316//247 318//247 802//247
f 316//247 802//247 800//247
f 293//248 292//248 776//248
f 293//248 776//248 777//248
f 436//249 443//249 927//249
f 436//249 927//249 920//249
f 474//50 478//50 962//50
f 474//50 962//50 959//50
f 36//223 38//223 522//223
f 36//223 522//223 520//223
f 225//250 223//250 707//250
f 225//250 707//250 709//250
f 340//18 337//18 821//18
f 340//18 821//18 824//18
f 162//251 158//251 642//251
f 162//251 642//251 646//251
f 143//252 141//252 625//252
f 143//252 625//252 627//252
f 338//50 340//50 824//50
f 338//50 824//50 823//50
f 130//253 132//253 616//253
f 130//253 616//253 615//253
f 146//254 148//254 632//254
f 146//254 632//254 630//254
f 124//226 123//226 607//226
f 124//226 607//226 608//226
f 481//18 479//18 963//18
f 481//18 963//18 965//18
f 177//255 188//255 672//255
f 177//255 672//255 661//255
f 116//228 115//228 599//228
f 116//228 599//228 600//228
f 221//256 218//256 702//256
f 221//256 702//256 705//256
f 106//101 105//101 589//101
f 106//101 589//101 590//101
f 198//257 195//257 679//257
f 198//257 679//257 682//257
f 96//127 95//127 579//127
f 96//127 579//127 580//127
f 87//258 86//258 570//258
f 87//258 570//258 571//258
f 78//233 77//233 561//233
f 78//233 561//233 562//233
f 68//235 66//235 550//235
f 68//235 550//235 552//235
f 197//259 200//259 684//259
f 197//259 684//259 681//259
f 57//260 56//260 540//260
f 57//260 540//260 541//260
f 220//100 221//100 705//100
f 220//100 705//100 704//100
f 49//261 48//261 532//261
f 49//261 532//261 533//261
f 22//100 21//100 506//100
f 22//100 506//100 505//100
f 344//18 341//18 825//18
f 344//18 825//18 828//18
f 34//242 32//242 516//242
f 34//242 516//242 518//242
f 342//50 344//50 828//50
f 342//50 828//50 827//50
f 469//204 468//204 952//204
f 469//204 952//204 953//204
f 17//244 15//244 499//244
f 17//244 499//244 501//244
f 461//262 460//262 944//262
f 461//262 944//262 945//262
f 4//246 1//246 485//246
f 4//246 485//246 488//246
f 441//211 440//211 924//211
f 441//211 924//211 925//211
f 41//60 43//60 527//60
f 41//60 527//60 525//60
f 195//263 193//263 677//263
f 195//263 677//263 679//263
f 92//249 99//249 583//249
f 92//249 583//249 576//249
f 423//214 422//214 906//214
f 423//214 906//214 907//214
f 235//264 237//264 721//264
f 235//264 721//264 719//264
f 228//265 227//265 711//265
f 228//265 711//265 712//265
f 387//266 406//266 890//266
f 387//266 890//266 871//266
f 257//267 259//267 743//267
f 257//267 743//267 741//267
f 402//218 401//218 885//218
f 402//218 885//218 886//218
f 278//268 280//268 764//268
f 278//268 764//268 762//268
f 394//220 393//220 877//220
f 394//220 877//220 878//220
f 364//39 366//39 849//39
f 364//39 849//39 848//39
f 266//269 263//269 747//269
f 266//269 747//269 750//269
f 379//224 378//224 862//224
f 379//224 862//224 863//224
f 251//270 249//270 733//270
f 251//270 733//270 735//270
f 363//225 361//225 845//225
f 363//225 845//225 847//225
f 296//271 297//271 781//271
f 296//271 781//271 780//271
f 28//272 30//272 514//272
f 28//272 514//272 512//272
f 350//227 348//227 832//227
f 350//227 832//227 834//227
f 307//273 308//273 792//273
f 307//273 792//273 791//273
f 357//229 360//229 844//229
f 357//229 844//229 841//229
f 318//274 319//274 803//274
f 318//274 803//274 802//274
f 317//275 313//275 797//275
f 317//275 797//275 801//275
f 424//230 436//230 920//230
f 424//230 920//230 908//230
f 292//276 291//276 775//276
f 292//276 775//276 776//276
f 477//18 474//18 959//18
f 477//18 959//18 961//18
f 248//277 239//277 723//277
f 248//277 723//277 732//277
f 223//278 219//278 703//278
f 223//278 703//278 707//278
f 158//279 156//279 640//279
f 158//279 640//279 642//279
f 136//280 138//280 622//280
f 136//280 622//280 620//280
f 141//281 139//281 623//281
f 141//281 623//281 625//281
f 132//282 134//282 618//282
f 132//282 618//282 616//282
f 360//283 362//283 846//283
f 360//283 846//283 844//283
f 123//284 122//284 606//284
f 123//284 606//284 607//284
f 115//285 114//285 598//285
f 115//285 598//285 599//285
f 204//286 210//286 694//286
f 204//286 694//286 688//286
f 105//287 104//287 588//287
f 105//287 588//287 589//287
f 95//288 94//288 578//288
f 95//288 578//288 579//288
f 190//289 187//289 671//289
f 190//289 671//289 674//289
f 86//290 85//290 569//290
f 86//290 569//290 570//290
f 171//291 169//291 653//291
f 171//291 653//291 655//291
f 77//292 76//292 560//292
f 77//292 560//292 561//292
f 166//293 168//293 652//293
f 166//293 652//293 650//293
f 66//294 64//294 548//294
f 66//295 548//295 550//295
f 184//296 186//296 670//296
f 184//296 670//296 668//296
f 56//297 55//297 539//297
f 56//297 539//297 540//297
f 205//298 208//298 692//298
f 205//298 692//298 689//298
f 48//174 47//174 531//174
f 48//174 531//174 532//174
f 326//299 328//299 811//299
f 326//299 811//299 810//299
f 21//50 23//50 507//50
f 21//50 507//50 506//50
f 32//300 31//300 515//300
f 32//300 515//300 516//300
f 152//301 154//301 638//301
f 152//301 638//301 636//301
f 478//100 480//100 964//100
f 478//100 964//100 962//100
f 15//302 14//302 498//302
f 15//302 498//302 499//302
f 466//303 465//303 949//303
f 466//303 949//303 950//303
f 1//304 3//304 486//304
f 1//304 486//304 485//304
f 18//305 25//305 509//305
f 18//305 509//305 502//305
f 448//306 447//306 931//306
f 448//306 931//306 932//306
f 43//266 62//266 546//266
f 43//266 546//266 527//266
f 99//307 107//307 591//307
f 99//307 591//307 583//307
f 429//308 428//308 912//308
f 429//308 912//308 913//308
f 237//309 238//309 722//309
f 237//309 722//309 721//309
f 420//310 419//310 903//310
f 420//310 903//310 904//310
f 452//209 450//209 934//209
f 452//209 934//209 936//209
f 259//311 262//311 746//311
f 259//311 746//311 743//311
f 408//312 407//312 891//312
f 408//312 891//312 892//312
f 16//313 18//313 502//313
f 16//283 502//283 500//283
f 280//314 283//314 767//314
f 280//314 767//314 764//314
f 399//315 398//315 882//315
f 399//315 882//315 883//315
f 279//316 277//316 761//316
f 279//316 761//316 763//316
f 391//317 390//317 874//317
f 391//317 874//317 875//317
f 263//318 261//318 745//318
f 263//318 745//318 747//318
f 367//319 386//319 870//319
f 367//319 870//319 851//319
f 249//320 247//320 731//320
f 249//320 731//320 733//320
f 375//321 373//321 857//321
f 375//321 857//321 859//321
f 297//322 298//322 782//322
f 297//322 782//322 781//322
f 358//323 356//323 840//323
f 358//323 840//323 842//323
f 308//324 310//324 794//324
f 308//325 794//325 792//325
f 347//326 346//326 831//326
f 347//326 831//326 830//326
f 319//327 321//327 805//327
f 319//327 805//327 803//327
f 369//328 372//328 856//328
f 369//328 856//328 853//328
f 239//329 236//329 720//329
f 239//329 720//329 723//329
f 291//330 290//330 774//330
f 291//330 774//330 775//330
f 480//50 481//50 965//50
f 480//50 965//50 964//50
f 219//331 213//331 697//331
f 219//331 697//331 703//331
f 156//332 153//332 637//332
f 156//332 637//332 640//332
f 139//333 137//333 621//333
f 139//333 621//333 623//333
f 134//334 136//334 620//334
f 134//334 620//334 618//334
f 339//100 338//100 823//100
f 339//100 823//100 822//100
f 150//335 152//335 636//335
f 150//335 636//335 634//335
f 122//303 121//303 605//303
f 122//303 605//303 606//303
f 196//336 204//336 688//336
f 196//336 688//336 680//336
f 114//52 113//52 597//52
f 114//52 597//52 598//52
f 215//337 212//337 696//337
f 215//337 696//337 699//337
f 104//338 103//338 587//338
f 104//338 587//338 588//338
f 193//339 190//339 674//339
f 193//339 674//339 677//339
f 94//206 93//206 577//206
f 94//206 577//206 578//206
f 173//340 171//340 655//340
f 173//340 655//340 657//340
f 85//341 84//341 568//341
f 85//341 568//341 569//341
f 212//342 209//342 693//342
f 212//342 693//342 696//342
f 164//343 166//343 650//343
f 164//343 650//343 648//343
f 76//310 75//310 559//310
f 76//310 559//310 560//310
f 182//344 184//344 668//344
f 182//344 668//344 666//344
f 64//312 63//312 547//312
f 64//312 547//312 548//312
f 372//345 374//345 858//345
f 372//345 858//345 856//345
f 202//346 205//346 689//346
f 202//346 689//346 686//346
f 55//315 54//315 538//315
f 55//315 538//315 539//315
f 332//18 326//18 810//18
f 332//18 810//18 816//18
f 47//347 46//347 530//347
f 47//347 530//347 531//347
f 23//319 42//319 526//319
f 23//319 526//319 507//319
f 343//100 342//100 827//100
f 343//100 827//100 826//100
f 31//321 29//321 513//321
f 31//321 513//321 515//321
f 467//348 466//348 950//348
f 467//348 950//348 951//348
f 14//323 12//323 496//323
f 14//323 496//323 498//323
f 459//285 458//285 942//285
f 459//285 942//285 943//285
f 3//326 2//326 487//326
f 3//326 487//326 486//326
f 8//82 10//82 494//82
f 8//82 494//82 492//82
f 449//287 448//287 932//287
f 449//287 932//287 933//287
f 25//349 28//349 512//349
f 25//349 512//349 509//349
f 168//350 170//350 654//350
f 168//350 654//350 652//350
f 421//292 420//292 904//292
f 421//292 904//292 905//292
f 238//351 240//351 724//351
f 238//351 724//351 722//351
f 410//295 408//295 892//295
f 410//295 892//295 894//295
f 442//352 441//352 925//352
f 442//352 925//352 926//352
f 400//297 399//297 883//297
f 400//297 883//297 884//297
f 283//353 285//353 769//353
f 283//353 769//353 767//353
f 277//354 274//354 758//354
f 277//354 758//354 761//354
f 409//48 411//48 895//48
f 409//48 895//48 893//48
f 365//50 367//50 851//50
f 365//50 851//50 850//50
f 261//355 260//355 744//355
f 261//355 744//355 745//355
f 302//356 299//356 783//356
f 302//356 783//356 786//356
f 376//300 375//300 859//300
f 376//300 859//300 860//300
f 247//357 242//357 726//357
f 247//357 726//357 731//357
f 359//358 358//358 842//358
f 359//358 842//358 843//358
f 298//359 300//359 784//359
f 298//359 784//359 782//359
f 345//304 347//304 830//304
f 345//304 830//304 829//304
f 310//360 311//360 795//360
f 310//360 795//360 794//360
f 362//361 369//361 853//361
f 362//305 853//305 846//305
f 321//362 322//362 806//362
f 321//362 806//362 805//362
f 309//363 306//363 790//363
f 309//363 790//363 793//363
f 443//307 451//307 935//307
f 443//307 935//307 927//307
f 290//364 289//364 773//364
f 290//364 773//364 774//364
f 236//365 233//365 717//365
f 236//365 717//365 720//365
f 213//366 207//366 691//366
f 213//366 691//366 697//366
f 337//39 339//39 822//39
f 337//39 822//39 821//39
f 153//367 151//367 635//367
f 153//367 635//367 637//367
f 137//368 135//368 619//368
f 137//368 619//368 621//368
f 969//39 970//39 971//39
f 969//39 971//39 972//39
f 973//6 974//6 975//6
f 976//6 975//6 974//6
f 976//6 971//6 975//6
f 970//6 975//6 971//6
f 977//1 978//1 969//1
f 979//1 980//1 978//1
f 969//1 978//1 981//1
f 982//1 972//1 983//1
f 981//1 978//1 980//1
f 984//1 985//1 979//1
f 980//1 979//1 985//1
f 985//1 984//1 983//1
f 985//1 983//1 986//1
f 977//1 969//1 982//1
f 969//1 972//1 982//1
f 986//1 983//1 972//1
f 984//369 987//369 988//369
f 984//369 988//369 983//369
f 989//1 988//1 990//1
f 991//1 990//1 988//1
f 987//1 992//1 988//1
f 991//1 988//1 992//1
f 990//50 977//50 982//50
f 990//50 982//50 989//50
f 981//370 973//370 975//370
f 973//370 981//370 980//370
f 981//371 975//371 970//371
f 969//371 981//371 970//371
f 983//372 988//372 989//372
f 983//372 989//372 982//372
f 991//373 978//373 977//373
f 991//373 977//373 990//373
f 986//374 972//374 976//374
f 992//374 979//374 978//374
f 992//374 978//374 991//374
f 972//374 971//374 976//374
f 979//39 992//39 987//39
f 979//39 987//39 984//39
f 986//373 976//373 985//373
f 985//373 976//373 974//373
f 985//50 974//50 980//50
f 973//50 980//50 974//50
