# Blender v3.2.0 OBJ File: ''
# www.blender.org
mtllib Prey.mtl
o Prey
v 0.430770 0.054201 0.176268
v 0.418890 0.054201 -0.073513
v 0.342772 0.054201 -0.073513
v 0.473058 0.054201 0.089124
v 0.599115 0.054201 -0.073513
v 0.524608 0.054201 -0.073513
v 0.473461 0.054201 0.270356
v 0.394927 0.054201 0.270356
v 0.199272 0.054201 -0.081101
v 0.218069 0.054201 -0.081138
v 0.209063 0.054201 -0.081354
v 0.226694 0.054201 -0.080492
v 0.189835 0.054201 -0.080343
v 0.234939 0.054201 -0.079415
v 0.180752 0.054201 -0.079079
v 0.242804 0.054201 -0.077907
v 0.172022 0.054201 -0.077309
v 0.250288 0.054201 -0.075967
v 0.163646 0.054201 -0.075034
v 0.257392 0.054201 -0.073597
v 0.155625 0.054201 -0.072253
v 0.264115 0.054201 -0.070796
v 0.147956 0.054201 -0.068967
v 0.270458 0.054201 -0.067564
v 0.140642 0.054201 -0.065175
v 0.276421 0.054201 -0.063901
v 0.133682 0.054201 -0.060877
v 0.282003 0.054201 -0.059808
v 0.127075 0.054201 -0.056074
v 0.287205 0.054201 -0.055283
v 0.120822 0.054201 -0.050765
v 0.292027 0.054201 -0.050327
v 0.114923 0.054201 -0.044951
v 0.296466 0.054201 -0.044967
v 0.300518 0.054201 -0.039229
v 0.109439 0.054201 -0.038704
v 0.304185 0.054201 -0.033113
v 0.104432 0.054201 -0.032098
v 0.203223 0.054201 -0.030950
v 0.206900 0.054201 -0.030861
v 0.307465 0.054201 -0.026619
v 0.099902 0.054201 -0.025132
v 0.199785 0.054201 -0.030866
v 0.196449 0.054201 -0.030614
v 0.210411 0.054201 -0.030595
v 0.193218 0.054201 -0.030194
v 0.213757 0.054201 -0.030152
v 0.190089 0.054201 -0.029606
v 0.216939 0.054201 -0.029531
v 0.187065 0.054201 -0.028850
v 0.219955 0.054201 -0.028733
v 0.184143 0.054201 -0.027925
v 0.222807 0.054201 -0.027757
v 0.181326 0.054201 -0.026833
v 0.225493 0.054201 -0.026605
v 0.178611 0.054201 -0.025573
v 0.310360 0.054201 -0.019746
v 0.228014 0.054201 -0.025275
v 0.176001 0.054201 -0.024145
v 0.230370 0.054201 -0.023767
v 0.095849 0.054201 -0.017807
v 0.173493 0.054201 -0.022549
v 0.232562 0.054201 -0.022082
v 0.171089 0.054201 -0.020785
v 0.234588 0.054201 -0.020220
v 0.168789 0.054201 -0.018853
v 0.236449 0.054201 -0.018181
v 0.312869 0.054201 -0.012496
v 0.166623 0.054201 -0.016735
v 0.238158 0.054201 -0.015965
v 0.092272 0.054201 -0.010123
v 0.164622 0.054201 -0.014416
v 0.239727 0.054201 -0.013576
v 0.162786 0.054201 -0.011894
v 0.241156 0.054201 -0.011012
v 0.314992 0.054201 -0.004868
v 0.161115 0.054201 -0.009170
v 0.242445 0.054201 -0.008274
v 0.089173 0.054201 -0.002079
v 0.159608 0.054201 -0.006244
v 0.243595 0.054201 -0.005362
v 0.158267 0.054201 -0.003115
v 0.244605 0.054201 -0.002275
v 0.316728 0.054201 0.003139
v 0.157091 0.054201 0.000215
v 0.245474 0.054201 0.000986
v 0.086550 0.054201 0.006324
v 0.156080 0.054201 0.003748
v 0.246204 0.054201 0.004420
v 0.318079 0.054201 0.011523
v 0.155234 0.054201 0.007484
v 0.246794 0.054201 0.008030
v 0.084404 0.054201 0.015086
v 0.154553 0.054201 0.011421
v 0.247245 0.054201 0.011813
v 0.154037 0.054201 0.015561
v 0.319044 0.054201 0.020285
v 0.247555 0.054201 0.015771
v 0.082735 0.054201 0.024208
v 0.153686 0.054201 0.019903
v 0.247726 0.054201 0.019903
v 0.319623 0.054201 0.029426
v 0.081543 0.054201 0.033689
v 0.319816 0.054201 0.038944
v 0.080828 0.054201 0.043530
v 0.319816 0.054201 0.067171
v 0.080589 0.054201 0.053729
v 0.080841 0.054201 0.064020
v 0.081596 0.054201 0.073910
v 0.153888 0.054201 0.067171
v 0.154274 0.054201 0.072003
v 0.154897 0.054201 0.076642
v 0.082855 0.054201 0.083398
v 0.155757 0.054201 0.081088
v 0.156852 0.054201 0.085341
v 0.084617 0.054201 0.092485
v 0.158184 0.054201 0.089401
v 0.159753 0.054201 0.093269
v 0.086882 0.054201 0.101170
v 0.161557 0.054201 0.096943
v 0.163598 0.054201 0.100425
v 0.305389 0.054201 0.100951
v 0.315587 0.054201 0.099205
v 0.307532 0.054201 0.099205
v 0.315587 0.054201 0.163947
v 0.165875 0.054201 0.103714
v 0.303119 0.054201 0.102678
v 0.089651 0.054201 0.109454
v 0.300724 0.054201 0.104386
v 0.168389 0.054201 0.106809
v 0.298202 0.054201 0.106075
v 0.295555 0.054201 0.107746
v 0.171139 0.054201 0.109712
v 0.292782 0.054201 0.109398
v 0.289883 0.054201 0.111032
v 0.092923 0.054201 0.117337
v 0.174125 0.054201 0.112422
v 0.286859 0.054201 0.112646
v 0.177352 0.054201 0.114927
v 0.283708 0.054201 0.114243
v 0.280432 0.054201 0.115820
v 0.180824 0.054201 0.117214
v 0.277029 0.054201 0.117379
v 0.184540 0.054201 0.119283
v 0.096699 0.054201 0.124818
v 0.273501 0.054201 0.118919
v 0.269900 0.054201 0.120386
v 0.188501 0.054201 0.121134
v 0.266280 0.054201 0.121725
v 0.192707 0.054201 0.122768
v 0.262640 0.054201 0.122937
v 0.197157 0.054201 0.124183
v 0.258980 0.054201 0.124022
v 0.255301 0.054201 0.124978
v 0.201852 0.054201 0.125381
v 0.100978 0.054201 0.131898
v 0.251602 0.054201 0.125808
v 0.206792 0.054201 0.126361
v 0.247884 0.054201 0.126509
v 0.211976 0.054201 0.127124
v 0.244146 0.054201 0.127083
v 0.240388 0.054201 0.127530
v 0.217406 0.054201 0.127668
v 0.236611 0.054201 0.127849
v 0.223080 0.054201 0.127995
v 0.232815 0.054201 0.128040
v 0.228998 0.054201 0.128104
v 0.105760 0.054201 0.138576
v 0.111046 0.054201 0.144854
v 0.116836 0.054201 0.150730
v 0.123098 0.054201 0.156168
v 0.129802 0.054201 0.161134
v 0.136948 0.054201 0.165627
v 0.311512 0.054201 0.165734
v 0.144535 0.054201 0.169647
v 0.307477 0.054201 0.167438
v 0.303480 0.054201 0.169057
v 0.299522 0.054201 0.170593
v 0.152565 0.054201 0.173194
v 0.295604 0.054201 0.172044
v 0.291725 0.054201 0.173411
v 0.161036 0.054201 0.176268
v 0.287885 0.054201 0.174695
v 0.284084 0.054201 0.175894
v 0.280322 0.054201 0.177010
v 0.169950 0.054201 0.178869
v 0.276600 0.054201 0.178041
v 0.272917 0.054201 0.178989
v 0.179305 0.054201 0.180997
v 0.269272 0.054201 0.179852
v 0.265615 0.054201 0.180639
v 0.261894 0.054201 0.181358
v 0.189102 0.054201 0.182652
v 0.258109 0.054201 0.182008
v 0.254259 0.054201 0.182590
v 0.250345 0.054201 0.183103
v 0.199341 0.054201 0.183835
v 0.246367 0.054201 0.183548
v 0.242324 0.054201 0.183925
v 0.210022 0.054201 0.184544
v 0.238217 0.054201 0.184233
v 0.234045 0.054201 0.184472
v 0.229810 0.054201 0.184643
v 0.221145 0.054201 0.184780
v 0.225509 0.054201 0.184746
v 0.036403 0.054201 -0.074357
v 0.039550 0.054201 -0.074408
v 0.038906 0.054201 -0.074409
v 0.040209 0.054201 -0.074403
v 0.040882 0.054201 -0.074395
v 0.041568 0.054201 -0.074384
v 0.042269 0.054201 -0.074371
v 0.042984 0.054201 -0.074353
v 0.033860 0.054201 -0.074201
v 0.043712 0.054201 -0.074333
v 0.044455 0.054201 -0.074310
v 0.045211 0.054201 -0.074283
v 0.045982 0.054201 -0.074254
v 0.046766 0.054201 -0.074221
v 0.047565 0.054201 -0.074185
v 0.031279 0.054201 -0.073940
v 0.048362 0.054201 -0.074146
v 0.049142 0.054201 -0.074104
v 0.049906 0.054201 -0.074059
v 0.050652 0.054201 -0.074011
v 0.051382 0.054201 -0.073960
v 0.052096 0.054201 -0.073905
v 0.028658 0.054201 -0.073576
v 0.052792 0.054201 -0.073848
v 0.053472 0.054201 -0.073787
v 0.054134 0.054201 -0.073723
v 0.054781 0.054201 -0.073656
v 0.055410 0.054201 -0.073586
v 0.056022 0.054201 -0.073513
v 0.025999 0.054201 -0.073106
v -0.107892 0.054201 0.178060
v -0.035399 0.054201 -0.073513
v -0.107892 0.054201 -0.073513
v -0.035399 0.054201 -0.036550
v 0.056022 0.054201 0.003325
v 0.023300 0.054201 -0.072533
v 0.020562 0.054201 -0.071856
v 0.017784 0.054201 -0.071074
v 0.014968 0.054201 -0.070188
v 0.012113 0.054201 -0.069198
v 0.009218 0.054201 -0.068103
v 0.006284 0.054201 -0.066905
v 0.003287 0.054201 -0.065547
v 0.000204 0.054201 -0.063977
v -0.002966 0.054201 -0.062193
v -0.006223 0.054201 -0.060197
v -0.009567 0.054201 -0.057987
v -0.012997 0.054201 -0.055564
v -0.016514 0.054201 -0.052928
v -0.020118 0.054201 -0.050078
v -0.023808 0.054201 -0.047016
v -0.027585 0.054201 -0.043741
v -0.031449 0.054201 -0.040252
v -0.035399 0.054201 0.009598
v -0.033130 0.054201 0.008723
v -0.030885 0.054201 0.007893
v -0.028666 0.054201 0.007105
v -0.026472 0.054201 0.006362
v -0.024303 0.054201 0.005662
v -0.022159 0.054201 0.005005
v -0.020041 0.054201 0.004393
v -0.017947 0.054201 0.003823
v -0.015879 0.054201 0.003297
v -0.013836 0.054201 0.002815
v -0.011818 0.054201 0.002376
v -0.009825 0.054201 0.001981
v -0.007820 0.054201 0.001623
v -0.005765 0.054201 0.001297
v -0.003659 0.054201 0.001001
v -0.001502 0.054201 0.000736
v 0.000704 0.054201 0.000503
v 0.002961 0.054201 0.000301
v 0.005269 0.054201 0.000130
v 0.007626 0.054201 -0.000010
v 0.010035 0.054201 -0.000119
v 0.012493 0.054201 -0.000197
v 0.015002 0.054201 -0.000244
v 0.017561 0.054201 -0.000259
v 0.018726 0.054201 -0.000253
v 0.019938 0.054201 -0.000234
v 0.021198 0.054201 -0.000203
v 0.022505 0.054201 -0.000160
v 0.023861 0.054201 -0.000104
v 0.025263 0.054201 -0.000035
v 0.026713 0.054201 0.000046
v 0.028211 0.054201 0.000139
v 0.029756 0.054201 0.000245
v 0.031349 0.054201 0.000363
v 0.032989 0.054201 0.000494
v 0.034677 0.054201 0.000637
v 0.036350 0.054201 0.000792
v 0.037944 0.054201 0.000961
v 0.039460 0.054201 0.001141
v 0.040897 0.054201 0.001334
v 0.042256 0.054201 0.001539
v 0.043537 0.054201 0.001757
v 0.044740 0.054201 0.001987
v 0.045864 0.054201 0.002230
v 0.046910 0.054201 0.002485
v 0.047878 0.054201 0.002753
v 0.048767 0.054201 0.003033
v 0.049578 0.054201 0.003325
v -0.035399 0.054201 0.178060
v -0.406120 0.054201 0.178060
v -0.328794 0.054201 -0.093227
v -0.406120 0.054201 -0.155504
v -0.278855 0.054201 -0.155504
v -0.274151 0.054201 -0.155466
v -0.269572 0.054201 -0.155352
v -0.265118 0.054201 -0.155161
v -0.260788 0.054201 -0.154894
v -0.256582 0.054201 -0.154551
v -0.252501 0.054201 -0.154132
v -0.248544 0.054201 -0.153637
v -0.244712 0.054201 -0.153065
v -0.241004 0.054201 -0.152417
v -0.237420 0.054201 -0.151693
v -0.233961 0.054201 -0.150892
v -0.230627 0.054201 -0.150016
v -0.227386 0.054201 -0.149063
v -0.224208 0.054201 -0.148034
v -0.221093 0.054201 -0.146928
v -0.218041 0.054201 -0.145747
v -0.215052 0.054201 -0.144489
v -0.212126 0.054201 -0.143155
v -0.209263 0.054201 -0.141745
v -0.206463 0.054201 -0.140258
v -0.203725 0.054201 -0.138696
v -0.201051 0.054201 -0.137057
v -0.198439 0.054201 -0.135342
v -0.195891 0.054201 -0.133550
v -0.192930 0.054201 -0.131296
v -0.190087 0.054201 -0.128939
v -0.187364 0.054201 -0.126480
v -0.184759 0.054201 -0.123918
v -0.182274 0.054201 -0.121253
v -0.179907 0.054201 -0.118485
v -0.177659 0.054201 -0.115615
v -0.175530 0.054201 -0.112642
v -0.173520 0.054201 -0.109566
v -0.171628 0.054201 -0.106388
v -0.169856 0.054201 -0.103107
v -0.168202 0.054201 -0.099723
v -0.166675 0.054201 -0.096231
v -0.315504 0.054201 -0.093227
v -0.312369 0.054201 -0.093223
v -0.309340 0.054201 -0.093211
v -0.165280 0.054201 -0.092623
v -0.328794 0.054201 0.006686
v -0.306417 0.054201 -0.093192
v -0.303601 0.054201 -0.093165
v -0.300891 0.054201 -0.093130
v -0.298287 0.054201 -0.093087
v -0.295789 0.054201 -0.093036
v -0.293398 0.054201 -0.092978
v -0.291113 0.054201 -0.092912
v -0.288934 0.054201 -0.092838
v -0.286862 0.054201 -0.092756
v -0.284896 0.054201 -0.092667
v -0.282979 0.054201 -0.092540
v -0.164018 0.054201 -0.088901
v -0.281053 0.054201 -0.092346
v -0.279119 0.054201 -0.092086
v -0.277177 0.054201 -0.091758
v -0.275226 0.054201 -0.091364
v -0.273267 0.054201 -0.090903
v -0.271299 0.054201 -0.090375
v -0.269323 0.054201 -0.089780
v -0.267339 0.054201 -0.089118
v -0.265346 0.054201 -0.088389
v -0.162889 0.054201 -0.085063
v -0.263345 0.054201 -0.087593
v -0.261336 0.054201 -0.086730
v -0.259841 0.054201 -0.086015
v -0.258377 0.054201 -0.085215
v -0.256943 0.054201 -0.084329
v -0.161892 0.054201 -0.081110
v -0.255541 0.054201 -0.083358
v -0.254169 0.054201 -0.082301
v -0.252828 0.054201 -0.081158
v -0.251518 0.054201 -0.079930
v -0.161029 0.054201 -0.077042
v -0.250238 0.054201 -0.078616
v -0.248989 0.054201 -0.077216
v -0.247771 0.054201 -0.075732
v -0.160298 0.054201 -0.072858
v -0.246584 0.054201 -0.074161
v -0.245428 0.054201 -0.072505
v -0.159700 0.054201 -0.068560
v -0.244334 0.054201 -0.070779
v -0.243336 0.054201 -0.068999
v -0.242432 0.054201 -0.067164
v -0.159235 0.054201 -0.064147
v -0.241624 0.054201 -0.065274
v -0.240911 0.054201 -0.063331
v -0.158903 0.054201 -0.059618
v -0.240293 0.054201 -0.061332
v -0.239770 0.054201 -0.059280
v -0.158704 0.054201 -0.054974
v -0.239342 0.054201 -0.057172
v -0.239009 0.054201 -0.055011
v -0.238771 0.054201 -0.052795
v -0.158637 0.054201 -0.050215
v -0.238629 0.054201 -0.050524
v -0.238581 0.054201 -0.048199
v -0.158686 0.054201 -0.046489
v -0.238604 0.054201 -0.045840
v -0.158833 0.054201 -0.042776
v -0.238673 0.054201 -0.043541
v -0.238789 0.054201 -0.041303
v -0.159078 0.054201 -0.039077
v -0.238950 0.054201 -0.039126
v -0.239158 0.054201 -0.037010
v -0.159421 0.054201 -0.035393
v -0.239412 0.054201 -0.034954
v -0.159861 0.054201 -0.031722
v -0.239712 0.054201 -0.032959
v -0.240058 0.054201 -0.031024
v -0.160399 0.054201 -0.028066
v -0.240450 0.054201 -0.029150
v -0.240888 0.054201 -0.027337
v -0.161036 0.054201 -0.024423
v -0.241373 0.054201 -0.025585
v -0.241904 0.054201 -0.023893
v -0.161770 0.054201 -0.020794
v -0.242486 0.054201 -0.022251
v -0.243126 0.054201 -0.020648
v -0.162602 0.054201 -0.017180
v -0.243823 0.054201 -0.019084
v -0.244577 0.054201 -0.017558
v -0.245389 0.054201 -0.016072
v -0.163532 0.054201 -0.013579
v -0.246258 0.054201 -0.014624
v -0.247185 0.054201 -0.013216
v -0.164560 0.054201 -0.009992
v -0.248168 0.054201 -0.011846
v -0.249210 0.054201 -0.010515
v -0.250308 0.054201 -0.009223
v -0.165685 0.054201 -0.006420
v -0.251464 0.054201 -0.007970
v -0.252677 0.054201 -0.006756
v -0.254149 0.054201 -0.005449
v -0.166902 0.054201 -0.002901
v -0.255678 0.054201 -0.004217
v -0.257264 0.054201 -0.003059
v -0.258908 0.054201 -0.001977
v -0.168202 0.054201 0.000522
v -0.260609 0.054201 -0.000969
v -0.262368 0.054201 -0.000035
v -0.264184 0.054201 0.000824
v -0.169587 0.054201 0.003850
v -0.266057 0.054201 0.001608
v -0.267987 0.054201 0.002317
v -0.269975 0.054201 0.002952
v -0.272020 0.054201 0.003512
v -0.274123 0.054201 0.003997
v -0.171055 0.054201 0.007084
v -0.276302 0.054201 0.004427
v -0.278578 0.054201 0.004819
v -0.280950 0.054201 0.005173
v -0.283419 0.054201 0.005491
v -0.285985 0.054201 0.005771
v -0.288646 0.054201 0.006013
v -0.291405 0.054201 0.006219
v -0.294260 0.054201 0.006387
v -0.297211 0.054201 0.006517
v -0.300259 0.054201 0.006611
v -0.303403 0.054201 0.006667
v -0.306644 0.054201 0.006686
v -0.328794 0.054201 0.069411
v -0.172607 0.054201 0.010222
v -0.174244 0.054201 0.013266
v -0.175964 0.054201 0.016215
v -0.177768 0.054201 0.019069
v -0.179655 0.054201 0.021828
v -0.181627 0.054201 0.024492
v -0.183683 0.054201 0.027061
v -0.185822 0.054201 0.029535
v -0.188838 0.054201 0.032754
v -0.191911 0.054201 0.035839
v -0.195041 0.054201 0.038790
v -0.198229 0.054201 0.041608
v -0.201474 0.054201 0.044291
v -0.204776 0.054201 0.046841
v -0.208136 0.054201 0.049257
v -0.211553 0.054201 0.051539
v -0.215027 0.054201 0.053687
v -0.218559 0.054201 0.055702
v -0.222148 0.054201 0.057583
v -0.225794 0.054201 0.059330
v -0.229544 0.054201 0.060940
v -0.233443 0.054201 0.062410
v -0.237492 0.054201 0.063740
v -0.241691 0.054201 0.064930
v -0.246039 0.054201 0.065980
v -0.250537 0.054201 0.066891
v -0.255185 0.054201 0.067661
v -0.259982 0.054201 0.068291
v -0.264929 0.054201 0.068781
v -0.270025 0.054201 0.069131
v -0.275271 0.054201 0.069341
v -0.280667 0.054201 0.069411
v -0.328794 0.054201 0.178060
v 0.430770 -0.055916 0.176268
v 0.342772 -0.055916 -0.073513
v 0.418890 -0.055916 -0.073513
v 0.473058 -0.055916 0.089124
v 0.524608 -0.055916 -0.073513
v 0.599115 -0.055916 -0.073513
v 0.473461 -0.055916 0.270356
v 0.394927 -0.055916 0.270356
v 0.199272 -0.055916 -0.081101
v 0.209063 -0.055916 -0.081354
v 0.218069 -0.055916 -0.081138
v 0.226694 -0.055916 -0.080492
v 0.189835 -0.055916 -0.080343
v 0.234939 -0.055916 -0.079415
v 0.180752 -0.055916 -0.079079
v 0.242804 -0.055916 -0.077907
v 0.172022 -0.055916 -0.077309
v 0.250288 -0.055916 -0.075967
v 0.163646 -0.055916 -0.075034
v 0.257392 -0.055916 -0.073597
v 0.155625 -0.055916 -0.072253
v 0.264115 -0.055916 -0.070796
v 0.147956 -0.055916 -0.068967
v 0.270458 -0.055916 -0.067564
v 0.140642 -0.055916 -0.065175
v 0.276421 -0.055916 -0.063901
v 0.133682 -0.055916 -0.060877
v 0.282003 -0.055916 -0.059808
v 0.127075 -0.055916 -0.056074
v 0.287205 -0.055916 -0.055283
v 0.120822 -0.055916 -0.050765
v 0.292027 -0.055916 -0.050327
v 0.114923 -0.055916 -0.044951
v 0.296466 -0.055916 -0.044967
v 0.300518 -0.055916 -0.039229
v 0.109439 -0.055916 -0.038704
v 0.304185 -0.055916 -0.033113
v 0.104432 -0.055916 -0.032098
v 0.203223 -0.055916 -0.030950
v 0.206900 -0.055916 -0.030861
v 0.307465 -0.055916 -0.026619
v 0.099902 -0.055916 -0.025132
v 0.199785 -0.055916 -0.030866
v 0.196449 -0.055916 -0.030614
v 0.210411 -0.055916 -0.030595
v 0.193218 -0.055916 -0.030194
v 0.213757 -0.055916 -0.030152
v 0.190089 -0.055916 -0.029606
v 0.216939 -0.055916 -0.029531
v 0.187065 -0.055916 -0.028850
v 0.219955 -0.055916 -0.028733
v 0.184143 -0.055916 -0.027925
v 0.222807 -0.055916 -0.027757
v 0.181326 -0.055916 -0.026833
v 0.225493 -0.055916 -0.026605
v 0.178611 -0.055916 -0.025573
v 0.310360 -0.055916 -0.019746
v 0.228014 -0.055916 -0.025275
v 0.176001 -0.055916 -0.024145
v 0.230370 -0.055916 -0.023767
v 0.095849 -0.055916 -0.017807
v 0.173493 -0.055916 -0.022549
v 0.232562 -0.055916 -0.022082
v 0.171089 -0.055916 -0.020785
v 0.234588 -0.055916 -0.020220
v 0.168789 -0.055916 -0.018853
v 0.236449 -0.055916 -0.018181
v 0.312869 -0.055916 -0.012496
v 0.166623 -0.055916 -0.016735
v 0.238158 -0.055916 -0.015965
v 0.092272 -0.055916 -0.010123
v 0.164622 -0.055916 -0.014416
v 0.239727 -0.055916 -0.013576
v 0.162786 -0.055916 -0.011894
v 0.241156 -0.055916 -0.011012
v 0.314992 -0.055916 -0.004868
v 0.161115 -0.055916 -0.009170
v 0.242445 -0.055916 -0.008274
v 0.089173 -0.055916 -0.002079
v 0.159608 -0.055916 -0.006244
v 0.243595 -0.055916 -0.005362
v 0.158267 -0.055916 -0.003115
v 0.244605 -0.055916 -0.002275
v 0.316728 -0.055916 0.003139
v 0.157091 -0.055916 0.000215
v 0.245474 -0.055916 0.000986
v 0.086550 -0.055916 0.006324
v 0.156080 -0.055916 0.003748
v 0.246204 -0.055916 0.004420
v 0.318079 -0.055916 0.011523
v 0.155234 -0.055916 0.007484
v 0.246794 -0.055916 0.008030
v 0.084404 -0.055916 0.015086
v 0.154553 -0.055916 0.011421
v 0.247245 -0.055916 0.011813
v 0.154037 -0.055916 0.015561
v 0.319044 -0.055916 0.020285
v 0.247555 -0.055916 0.015771
v 0.082735 -0.055916 0.024208
v 0.153686 -0.055916 0.019903
v 0.247726 -0.055916 0.019903
v 0.319623 -0.055916 0.029426
v 0.081543 -0.055916 0.033689
v 0.319816 -0.055916 0.038944
v 0.080828 -0.055916 0.043530
v 0.319816 -0.055916 0.067171
v 0.080589 -0.055916 0.053729
v 0.080841 -0.055916 0.064020
v 0.081596 -0.055916 0.073910
v 0.153888 -0.055916 0.067171
v 0.154274 -0.055916 0.072003
v 0.154897 -0.055916 0.076642
v 0.082855 -0.055916 0.083398
v 0.155757 -0.055916 0.081088
v 0.156852 -0.055916 0.085341
v 0.084617 -0.055916 0.092485
v 0.158184 -0.055916 0.089401
v 0.159753 -0.055916 0.093269
v 0.086882 -0.055916 0.101170
v 0.161557 -0.055916 0.096943
v 0.163598 -0.055916 0.100425
v 0.305389 -0.055916 0.100951
v 0.307532 -0.055916 0.099205
v 0.315587 -0.055916 0.099205
v 0.315587 -0.055916 0.163947
v 0.165875 -0.055916 0.103714
v 0.303119 -0.055916 0.102678
v 0.089651 -0.055916 0.109454
v 0.300724 -0.055916 0.104386
v 0.168389 -0.055916 0.106809
v 0.298202 -0.055916 0.106075
v 0.295555 -0.055916 0.107746
v 0.171139 -0.055916 0.109712
v 0.292782 -0.055916 0.109398
v 0.289883 -0.055916 0.111032
v 0.092923 -0.055916 0.117337
v 0.174125 -0.055916 0.112422
v 0.286859 -0.055916 0.112646
v 0.177352 -0.055916 0.114927
v 0.283708 -0.055916 0.114243
v 0.280432 -0.055916 0.115820
v 0.180824 -0.055916 0.117214
v 0.277029 -0.055916 0.117379
v 0.184540 -0.055916 0.119283
v 0.096699 -0.055916 0.124818
v 0.273501 -0.055916 0.118919
v 0.269900 -0.055916 0.120386
v 0.188501 -0.055916 0.121134
v 0.266280 -0.055916 0.121725
v 0.192707 -0.055916 0.122768
v 0.262640 -0.055916 0.122937
v 0.197157 -0.055916 0.124183
v 0.258980 -0.055916 0.124022
v 0.255301 -0.055916 0.124978
v 0.201852 -0.055916 0.125381
v 0.100978 -0.055916 0.131898
v 0.251602 -0.055916 0.125808
v 0.206792 -0.055916 0.126361
v 0.247884 -0.055916 0.126509
v 0.211976 -0.055916 0.127124
v 0.244146 -0.055916 0.127083
v 0.240388 -0.055916 0.127530
v 0.217406 -0.055916 0.127668
v 0.236611 -0.055916 0.127849
v 0.223080 -0.055916 0.127995
v 0.232815 -0.055916 0.128040
v 0.228998 -0.055916 0.128104
v 0.105760 -0.055916 0.138576
v 0.111046 -0.055916 0.144854
v 0.116836 -0.055916 0.150730
v 0.123098 -0.055916 0.156168
v 0.129802 -0.055916 0.161134
v 0.136948 -0.055916 0.165627
v 0.311512 -0.055916 0.165734
v 0.144535 -0.055916 0.169647
v 0.307477 -0.055916 0.167438
v 0.303480 -0.055916 0.169057
v 0.299522 -0.055916 0.170593
v 0.152565 -0.055916 0.173194
v 0.295604 -0.055916 0.172044
v 0.291725 -0.055916 0.173411
v 0.161036 -0.055916 0.176268
v 0.287885 -0.055916 0.174695
v 0.284084 -0.055916 0.175894
v 0.280322 -0.055916 0.177010
v 0.169950 -0.055916 0.178869
v 0.276600 -0.055916 0.178041
v 0.272917 -0.055916 0.178989
v 0.179305 -0.055916 0.180997
v 0.269272 -0.055916 0.179852
v 0.265615 -0.055916 0.180639
v 0.261894 -0.055916 0.181358
v 0.189102 -0.055916 0.182652
v 0.258109 -0.055916 0.182008
v 0.254259 -0.055916 0.182590
v 0.250345 -0.055916 0.183103
v 0.199341 -0.055916 0.183835
v 0.246367 -0.055916 0.183548
v 0.242324 -0.055916 0.183925
v 0.210022 -0.055916 0.184544
v 0.238217 -0.055916 0.184233
v 0.234045 -0.055916 0.184472
v 0.229810 -0.055916 0.184643
v 0.221145 -0.055916 0.184780
v 0.225509 -0.055916 0.184746
v 0.036403 -0.055916 -0.074357
v 0.038906 -0.055916 -0.074409
v 0.039550 -0.055916 -0.074408
v 0.040209 -0.055916 -0.074403
v 0.040882 -0.055916 -0.074395
v 0.041568 -0.055916 -0.074384
v 0.042269 -0.055916 -0.074371
v 0.042984 -0.055916 -0.074353
v 0.033860 -0.055916 -0.074201
v 0.043712 -0.055916 -0.074333
v 0.044455 -0.055916 -0.074310
v 0.045211 -0.055916 -0.074283
v 0.045982 -0.055916 -0.074254
v 0.046766 -0.055916 -0.074221
v 0.047565 -0.055916 -0.074185
v 0.031279 -0.055916 -0.073940
v 0.048362 -0.055916 -0.074146
v 0.049142 -0.055916 -0.074104
v 0.049906 -0.055916 -0.074059
v 0.050652 -0.055916 -0.074011
v 0.051382 -0.055916 -0.073960
v 0.052096 -0.055916 -0.073905
v 0.028658 -0.055916 -0.073576
v 0.052792 -0.055916 -0.073848
v 0.053472 -0.055916 -0.073787
v 0.054134 -0.055916 -0.073723
v 0.054781 -0.055916 -0.073656
v 0.055410 -0.055916 -0.073586
v 0.056022 -0.055916 -0.073513
v 0.025999 -0.055916 -0.073106
v -0.107892 -0.055916 0.178060
v -0.107892 -0.055916 -0.073513
v -0.035399 -0.055916 -0.073513
v -0.035399 -0.055916 -0.036550
v 0.056022 -0.055916 0.003325
v 0.023300 -0.055916 -0.072533
v 0.020562 -0.055916 -0.071856
v 0.017784 -0.055916 -0.071074
v 0.014968 -0.055916 -0.070188
v 0.012113 -0.055916 -0.069198
v 0.009218 -0.055916 -0.068103
v 0.006284 -0.055916 -0.066905
v 0.003287 -0.055916 -0.065547
v 0.000204 -0.055916 -0.063977
v -0.002966 -0.055916 -0.062193
v -0.006223 -0.055916 -0.060197
v -0.009567 -0.055916 -0.057987
v -0.012997 -0.055916 -0.055564
v -0.016514 -0.055916 -0.052928
v -0.020118 -0.055916 -0.050078
v -0.023808 -0.055916 -0.047016
v -0.027585 -0.055916 -0.043741
v -0.031449 -0.055916 -0.040252
v -0.035399 -0.055916 0.009598
v -0.033130 -0.055916 0.008723
v -0.030885 -0.055916 0.007893
v -0.028666 -0.055916 0.007105
v -0.026472 -0.055916 0.006362
v -0.024303 -0.055916 0.005662
v -0.022159 -0.055916 0.005005
v -0.020041 -0.055916 0.004393
v -0.017947 -0.055916 0.003823
v -0.015879 -0.055916 0.003297
v -0.013836 -0.055916 0.002815
v -0.011818 -0.055916 0.002376
v -0.009825 -0.055916 0.001981
v -0.007820 -0.055916 0.001623
v -0.005765 -0.055916 0.001297
v -0.003659 -0.055916 0.001001
v -0.001502 -0.055916 0.000736
v 0.000704 -0.055916 0.000503
v 0.002961 -0.055916 0.000301
v 0.005269 -0.055916 0.000130
v 0.007626 -0.055916 -0.000010
v 0.010035 -0.055916 -0.000119
v 0.012493 -0.055916 -0.000197
v 0.015002 -0.055916 -0.000244
v 0.017561 -0.055916 -0.000259
v 0.018726 -0.055916 -0.000253
v 0.019938 -0.055916 -0.000234
v 0.021198 -0.055916 -0.000203
v 0.022505 -0.055916 -0.000160
v 0.023861 -0.055916 -0.000104
v 0.025263 -0.055916 -0.000035
v 0.026713 -0.055916 0.000046
v 0.028211 -0.055916 0.000139
v 0.029756 -0.055916 0.000245
v 0.031349 -0.055916 0.000363
v 0.032989 -0.055916 0.000494
v 0.034677 -0.055916 0.000637
v 0.036350 -0.055916 0.000792
v 0.037944 -0.055916 0.000961
v 0.039460 -0.055916 0.001141
v 0.040897 -0.055916 0.001334
v 0.042256 -0.055916 0.001539
v 0.043537 -0.055916 0.001757
v 0.044740 -0.055916 0.001987
v 0.045864 -0.055916 0.002230
v 0.046910 -0.055916 0.002485
v 0.047878 -0.055916 0.002753
v 0.048767 -0.055916 0.003033
v 0.049578 -0.055916 0.003325
v -0.035399 -0.055916 0.178060
v -0.406120 -0.055916 0.178060
v -0.406120 -0.055916 -0.155504
v -0.328794 -0.055916 -0.093227
v -0.278855 -0.055916 -0.155504
v -0.274151 -0.055916 -0.155466
v -0.269572 -0.055916 -0.155352
v -0.265118 -0.055916 -0.155161
v -0.260788 -0.055916 -0.154894
v -0.256582 -0.055916 -0.154551
v -0.252501 -0.055916 -0.154132
v -0.248544 -0.055916 -0.153637
v -0.244712 -0.055916 -0.153065
v -0.241004 -0.055916 -0.152417
v -0.237420 -0.055916 -0.151693
v -0.233961 -0.055916 -0.150892
v -0.230627 -0.055916 -0.150016
v -0.227386 -0.055916 -0.149063
v -0.224208 -0.055916 -0.148034
v -0.221093 -0.055916 -0.146928
v -0.218041 -0.055916 -0.145747
v -0.215052 -0.055916 -0.144489
v -0.212126 -0.055916 -0.143155
v -0.209263 -0.055916 -0.141745
v -0.206463 -0.055916 -0.140258
v -0.203725 -0.055916 -0.138696
v -0.201051 -0.055916 -0.137057
v -0.198439 -0.055916 -0.135342
v -0.195891 -0.055916 -0.133550
v -0.192930 -0.055916 -0.131296
v -0.190087 -0.055916 -0.128939
v -0.187364 -0.055916 -0.126480
v -0.184759 -0.055916 -0.123918
v -0.182274 -0.055916 -0.121253
v -0.179907 -0.055916 -0.118485
v -0.177659 -0.055916 -0.115615
v -0.175530 -0.055916 -0.112642
v -0.173520 -0.055916 -0.109566
v -0.171628 -0.055916 -0.106388
v -0.169856 -0.055916 -0.103107
v -0.168202 -0.055916 -0.099723
v -0.166675 -0.055916 -0.096231
v -0.315504 -0.055916 -0.093227
v -0.312369 -0.055916 -0.093223
v -0.309340 -0.055916 -0.093211
v -0.165280 -0.055916 -0.092623
v -0.328794 -0.055916 0.006686
v -0.306417 -0.055916 -0.093192
v -0.303601 -0.055916 -0.093165
v -0.300891 -0.055916 -0.093130
v -0.298287 -0.055916 -0.093087
v -0.295789 -0.055916 -0.093036
v -0.293398 -0.055916 -0.092978
v -0.291113 -0.055916 -0.092912
v -0.288934 -0.055916 -0.092838
v -0.286862 -0.055916 -0.092756
v -0.284896 -0.055916 -0.092667
v -0.282979 -0.055916 -0.092540
v -0.164018 -0.055916 -0.088901
v -0.281053 -0.055916 -0.092346
v -0.279119 -0.055916 -0.092086
v -0.277177 -0.055916 -0.091758
v -0.275226 -0.055916 -0.091364
v -0.273267 -0.055916 -0.090903
v -0.271299 -0.055916 -0.090375
v -0.269323 -0.055916 -0.089780
v -0.267339 -0.055916 -0.089118
v -0.265346 -0.055916 -0.088389
v -0.162889 -0.055916 -0.085063
v -0.263345 -0.055916 -0.087593
v -0.261336 -0.055916 -0.086730
v -0.259841 -0.055916 -0.086015
v -0.258377 -0.055916 -0.085215
v -0.256943 -0.055916 -0.084329
v -0.161892 -0.055916 -0.081110
v -0.255541 -0.055916 -0.083358
v -0.254169 -0.055916 -0.082301
v -0.252828 -0.055916 -0.081158
v -0.251518 -0.055916 -0.079930
v -0.161029 -0.055916 -0.077042
v -0.250238 -0.055916 -0.078616
v -0.248989 -0.055916 -0.077216
v -0.247771 -0.055916 -0.075732
v -0.160298 -0.055916 -0.072858
v -0.246584 -0.055916 -0.074161
v -0.245428 -0.055916 -0.072505
v -0.159700 -0.055916 -0.068560
v -0.244334 -0.055916 -0.070779
v -0.243336 -0.055916 -0.068999
v -0.242432 -0.055916 -0.067164
v -0.159235 -0.055916 -0.064147
v -0.241624 -0.055916 -0.065274
v -0.240911 -0.055916 -0.063331
v -0.158903 -0.055916 -0.059618
v -0.240293 -0.055916 -0.061332
v -0.239770 -0.055916 -0.059280
v -0.158704 -0.055916 -0.054974
v -0.239342 -0.055916 -0.057172
v -0.239009 -0.055916 -0.055011
v -0.238771 -0.055916 -0.052795
v -0.158637 -0.055916 -0.050215
v -0.238629 -0.055916 -0.050524
v -0.238581 -0.055916 -0.048199
v -0.158686 -0.055916 -0.046489
v -0.238604 -0.055916 -0.045840
v -0.158833 -0.055916 -0.042776
v -0.238673 -0.055916 -0.043541
v -0.238789 -0.055916 -0.041303
v -0.159078 -0.055916 -0.039077
v -0.238950 -0.055916 -0.039126
v -0.239158 -0.055916 -0.037010
v -0.159421 -0.055916 -0.035393
v -0.239412 -0.055916 -0.034954
v -0.159861 -0.055916 -0.031722
v -0.239712 -0.055916 -0.032959
v -0.240058 -0.055916 -0.031024
v -0.160399 -0.055916 -0.028066
v -0.240450 -0.055916 -0.029150
v -0.240888 -0.055916 -0.027337
v -0.161036 -0.055916 -0.024423
v -0.241373 -0.055916 -0.025585
v -0.241904 -0.055916 -0.023893
v -0.161770 -0.055916 -0.020794
v -0.242486 -0.055916 -0.022251
v -0.243126 -0.055916 -0.020648
v -0.162602 -0.055916 -0.017180
v -0.243823 -0.055916 -0.019084
v -0.244577 -0.055916 -0.017558
v -0.245389 -0.055916 -0.016072
v -0.163532 -0.055916 -0.013579
v -0.246258 -0.055916 -0.014624
v -0.247185 -0.055916 -0.013216
v -0.164560 -0.055916 -0.009992
v -0.248168 -0.055916 -0.011846
v -0.249210 -0.055916 -0.010515
v -0.250308 -0.055916 -0.009223
v -0.165685 -0.055916 -0.006420
v -0.251464 -0.055916 -0.007970
v -0.252677 -0.055916 -0.006756
v -0.254149 -0.055916 -0.005449
v -0.166902 -0.055916 -0.002901
v -0.255678 -0.055916 -0.004217
v -0.257264 -0.055916 -0.003059
v -0.258908 -0.055916 -0.001977
v -0.168202 -0.055916 0.000522
v -0.260609 -0.055916 -0.000969
v -0.262368 -0.055916 -0.000035
v -0.264184 -0.055916 0.000824
v -0.169587 -0.055916 0.003850
v -0.266057 -0.055916 0.001608
v -0.267987 -0.055916 0.002317
v -0.269975 -0.055916 0.002952
v -0.272020 -0.055916 0.003512
v -0.274123 -0.055916 0.003997
v -0.171055 -0.055916 0.007084
v -0.276302 -0.055916 0.004427
v -0.278578 -0.055916 0.004819
v -0.280950 -0.055916 0.005173
v -0.283419 -0.055916 0.005491
v -0.285985 -0.055916 0.005771
v -0.288646 -0.055916 0.006013
v -0.291405 -0.055916 0.006219
v -0.294260 -0.055916 0.006387
v -0.297211 -0.055916 0.006517
v -0.300259 -0.055916 0.006611
v -0.303403 -0.055916 0.006667
v -0.306644 -0.055916 0.006686
v -0.328794 -0.055916 0.069411
v -0.172607 -0.055916 0.010222
v -0.174244 -0.055916 0.013266
v -0.175964 -0.055916 0.016215
v -0.177768 -0.055916 0.019069
v -0.179655 -0.055916 0.021828
v -0.181627 -0.055916 0.024492
v -0.183683 -0.055916 0.027061
v -0.185822 -0.055916 0.029535
v -0.188838 -0.055916 0.032754
v -0.191911 -0.055916 0.035839
v -0.195041 -0.055916 0.038790
v -0.198229 -0.055916 0.041608
v -0.201474 -0.055916 0.044291
v -0.204776 -0.055916 0.046841
v -0.208136 -0.055916 0.049257
v -0.211553 -0.055916 0.051539
v -0.215027 -0.055916 0.053687
v -0.218559 -0.055916 0.055702
v -0.222148 -0.055916 0.057583
v -0.225794 -0.055916 0.059330
v -0.229544 -0.055916 0.060940
v -0.233443 -0.055916 0.062410
v -0.237492 -0.055916 0.063740
v -0.241691 -0.055916 0.064930
v -0.246039 -0.055916 0.065980
v -0.250537 -0.055916 0.066891
v -0.255185 -0.055916 0.067661
v -0.259982 -0.055916 0.068291
v -0.264929 -0.055916 0.068781
v -0.270025 -0.055916 0.069131
v -0.275271 -0.055916 0.069341
v -0.280667 -0.055916 0.069411
v -0.328794 -0.055916 0.178060
v -0.950127 0.161723 -0.522003
v -0.950127 -0.138923 -0.522003
v -0.950127 -0.138923 0.635283
v -0.950127 0.161723 0.635283
v 1.054179 -0.138923 -0.522003
v 1.054179 -0.138923 0.635283
v 0.052026 -0.138923 -1.100546
v 0.052026 -0.138923 1.213826
v -0.816139 0.161723 -0.444537
v 0.052026 0.161723 -0.945813
v 0.920191 0.161723 -0.444537
v 1.054179 0.161723 -0.522003
v 0.052026 0.161723 -1.100546
v -0.816139 0.161723 0.557817
v 0.052026 0.161723 1.058993
v 0.920191 0.161723 0.557817
v 1.054179 0.161723 0.635283
v 0.052026 0.161723 1.213826
v 0.920191 -0.038908 0.557817
v 0.052026 -0.038908 1.058993
v -0.816139 -0.038908 0.557817
v -0.816139 -0.038908 -0.444537
v 0.052026 -0.038908 -0.945813
v 0.920191 -0.038908 -0.444537
vn 0.0000 1.0000 0.0000
vn 0.0000 1.0000 -0.0001
vn 0.0000 1.0000 0.0001
vn 0.0000 1.0000 0.0002
vn 0.0000 1.0000 -0.0002
vn 0.0000 1.0000 0.0004
vn 0.0000 1.0000 -0.0003
vn 0.0000 1.0000 0.0009
vn 0.0000 -1.0000 0.0000
vn 0.0000 -1.0000 0.0001
vn 0.0000 -1.0000 -0.0001
vn 0.0000 -1.0000 0.0010
vn -0.0000 -1.0000 -0.0008
vn 0.0000 -1.0000 -0.0006
vn 0.0000 -1.0000 0.0004
vn 0.0000 -1.0000 0.0003
vn 0.0004 -1.0000 -0.0043
vn 0.0000 -1.0000 -0.0002
vn -0.0000 -1.0000 0.0002
vn -0.9533 0.0000 -0.3022
vn 0.9488 0.0000 -0.3160
vn 0.0000 0.0000 1.0000
vn -0.5769 0.0000 -0.8168
vn 0.0000 0.0000 -1.0000
vn -0.9134 0.0000 -0.4071
vn 0.8627 0.0000 -0.5057
vn -0.3277 0.0000 -0.9448
vn 0.4234 0.0000 -0.9059
vn -0.0613 0.0000 -0.9981
vn -0.3695 0.0000 0.9292
vn 0.0184 0.0000 -0.9998
vn -0.2517 0.0000 -0.9678
vn 0.0590 0.0000 -0.9983
vn -0.4519 0.0000 -0.8921
vn 0.1105 0.0000 -0.9939
vn -0.6314 0.0000 -0.7755
vn -0.6314 0.0000 -0.7754
vn 0.3325 0.0000 0.9431
vn 0.9348 0.0000 0.3551
vn 0.1896 0.0000 0.9819
vn 0.8038 0.0000 0.5949
vn -0.0663 0.0000 0.9978
vn 0.9451 0.0000 0.3268
vn 0.0404 0.0000 0.9992
vn 0.0403 0.0000 0.9992
vn 0.6111 0.0000 0.7915
vn -0.7649 0.0000 0.6441
vn -0.9913 0.0000 0.1315
vn -0.9546 0.0000 -0.2979
vn 0.1721 0.0000 -0.9851
vn -0.6472 0.0000 -0.7623
vn 0.3878 0.0000 -0.9217
vn -0.1378 0.0000 -0.9905
vn 0.6057 0.0000 -0.7957
vn 0.3165 0.0000 -0.9486
vn 0.8371 0.0000 -0.5471
vn 0.8168 0.0000 -0.5769
vn 0.9697 0.0000 -0.2444
vn 0.9940 0.0000 -0.1095
vn -0.9998 0.0000 0.0204
vn 1.0000 0.0000 0.0000
vn -0.9782 0.0000 0.2079
vn -0.9194 0.0000 0.3933
vn -0.7386 0.0000 0.6741
vn -0.7164 0.0000 0.6977
vn -0.1915 0.0000 0.9815
vn 0.7873 0.0000 -0.6166
vn 0.2425 0.0000 0.9702
vn -0.1663 0.0000 0.9861
vn 0.6990 0.0000 0.7151
vn -0.0244 0.0000 0.9997
vn 0.7600 0.0000 -0.6499
vn -0.2665 0.0000 0.9638
vn -0.0742 0.0000 -0.9972
vn -0.1048 0.0000 0.9945
vn -0.2641 0.0000 -0.9645
vn -0.0487 0.0000 0.9988
vn 0.0316 0.0000 0.9995
vn -0.8355 0.0000 -0.5495
vn 0.1569 0.0000 0.9876
vn -0.9638 0.0000 -0.2665
vn 0.2929 0.0000 0.9562
vn -0.9987 0.0000 -0.0514
vn -1.0000 0.0000 -0.0098
vn 0.0685 0.0000 0.9977
vn -0.3945 0.0000 0.9189
vn -1.0000 0.0000 0.0000
vn -0.5998 0.0000 -0.8002
vn 0.9968 0.0000 -0.0798
vn -0.3536 0.0000 -0.9354
vn 0.8221 0.0000 -0.5693
vn -0.1005 0.0000 -0.9949
vn 0.3620 0.0000 -0.9322
vn -0.9236 0.0000 0.3834
vn 0.0240 0.0000 -0.9997
vn 0.0241 0.0000 -0.9997
vn -0.0167 0.0000 -0.9999
vn -0.2841 0.0000 -0.9588
vn 0.1030 0.0000 -0.9947
vn -0.4710 0.0000 -0.8822
vn -0.4709 0.0000 -0.8822
vn 0.9929 0.0000 0.1192
vn 0.3170 0.0000 0.9484
vn 0.1693 0.0000 0.9856
vn 0.6373 0.0000 0.7706
vn 0.0239 0.0000 0.9997
vn -0.9720 0.0000 -0.2350
vn -0.9971 0.0000 0.0761
vn -0.8734 0.0000 0.4869
vn 0.1476 0.0000 -0.9890
vn -0.9331 0.0000 -0.3596
vn 0.3610 0.0000 -0.9326
vn -0.5880 0.0000 -0.8088
vn -0.0801 0.0000 -0.9968
vn 0.3946 0.0000 0.9189
vn 0.3845 0.0000 -0.9231
vn 0.9593 0.0000 -0.2823
vn 0.8577 0.0000 -0.5142
vn 0.9980 0.0000 -0.0632
vn -0.9388 0.0000 0.3445
vn -0.9388 0.0000 0.3444
vn -0.9662 0.0000 0.2577
vn -0.0058 0.0000 -1.0000
vn -0.7461 0.0000 0.6658
vn -0.6767 0.0000 0.7363
vn 0.0278 0.0000 -0.9996
vn -0.4314 0.0000 0.9022
vn -0.1313 0.0000 0.9913
vn 0.3016 0.0000 0.9534
vn -0.7876 0.0000 -0.6161
vn -0.0289 0.0000 0.9996
vn 0.7572 0.0000 0.6532
vn 0.9854 0.0000 0.1704
vn -0.0588 0.0000 -0.9983
vn -0.2370 0.0000 0.9715
vn -0.2249 0.0000 -0.9744
vn -0.0926 0.0000 0.9957
vn -0.5500 0.0000 -0.8351
vn -0.0413 0.0000 0.9991
vn 0.2508 0.0000 -0.9680
vn -0.8122 0.0000 -0.5833
vn 0.0451 0.0000 0.9990
vn 0.4955 0.0000 0.8686
vn -0.9541 0.0000 -0.2993
vn 0.1757 0.0000 0.9844
vn -0.8130 0.0000 0.5822
vn -0.9973 0.0000 -0.0740
vn 0.3071 0.0000 0.9517
vn 0.9851 0.0000 0.1721
vn 0.9393 0.0000 0.3432
vn -0.6838 0.0000 -0.7297
vn 0.9911 0.0000 -0.1331
vn -0.5227 0.0000 -0.8525
vn 0.0986 0.0000 0.9951
vn 0.7763 0.0000 -0.6303
vn -0.2710 0.0000 -0.9626
vn 0.3032 0.0000 -0.9529
vn 0.0023 0.0000 -1.0000
vn 0.0024 0.0000 -1.0000
vn -0.0503 0.0000 -0.9987
vn 0.0348 0.0000 -0.9994
vn 0.0349 0.0000 -0.9994
vn -0.3159 0.0000 -0.9488
vn 0.0703 0.0000 -0.9975
vn -0.4909 0.0000 -0.8712
vn 0.9753 0.0000 0.2209
vn 0.0959 0.0000 -0.9954
vn -0.3164 0.0000 0.9486
vn 0.9801 0.0000 0.1983
vn 0.3009 0.0000 0.9536
vn 0.9105 0.0000 0.4135
vn 0.1494 0.0000 0.9888
vn 0.7564 0.0000 0.6541
vn 0.7702 0.0000 -0.6378
vn 0.0078 0.0000 1.0000
vn 0.5554 0.0000 0.8316
vn -0.4041 0.0000 0.9147
vn 0.2727 0.0000 0.9621
vn 0.0130 0.0000 0.9999
vn 0.6703 0.0000 -0.7421
vn -0.9997 0.0000 0.0245
vn 0.0427 0.0000 -0.9991
vn -0.9066 0.0000 -0.4219
vn 0.2254 0.0000 -0.9743
vn -0.5254 0.0000 -0.8509
vn 0.4418 0.0000 -0.8971
vn -0.0258 0.0000 -0.9997
vn 0.4540 0.0000 -0.8910
vn -0.9952 0.0000 -0.0977
vn 0.8926 0.0000 -0.4509
vn 0.9851 0.0000 -0.1721
vn 0.9998 0.0000 -0.0203
vn -0.9943 0.0000 0.1066
vn -0.9504 0.0000 0.3109
vn -0.8722 0.0000 0.4891
vn -0.6095 0.0000 0.7928
vn -0.6486 0.0000 0.7612
vn 0.3614 0.0000 0.9324
vn -0.1001 0.0000 0.9950
vn 0.9923 0.0000 0.1237
vn -0.2109 0.0000 0.9775
vn -0.1085 0.0000 -0.9941
vn -0.0844 0.0000 0.9964
vn -0.0333 0.0000 0.9994
vn 0.9893 0.0000 0.1457
vn 0.0593 0.0000 0.9982
vn -0.8777 0.0000 -0.4793
vn 0.1946 0.0000 0.9809
vn -0.9788 0.0000 -0.2049
vn -0.8573 0.0000 -0.5148
vn 0.3210 0.0000 0.9471
vn 0.9327 0.0000 -0.3606
vn -0.5514 0.0000 -0.8342
vn 0.9818 0.0000 -0.1898
vn -0.3001 0.0000 -0.9539
vn 0.7260 0.0000 -0.6877
vn -0.0756 0.0000 0.9971
vn -0.0443 0.0000 -0.9990
vn -0.3435 0.0000 0.9392
vn -0.0208 0.0000 -0.9998
vn 0.2472 0.0000 -0.9690
vn -0.9869 0.0000 0.1614
vn 0.0314 0.0000 -0.9995
vn -0.0842 0.0000 -0.9965
vn 0.0644 0.0000 -0.9979
vn -0.3470 0.0000 -0.9379
vn 0.1187 0.0000 -0.9929
vn -0.5118 0.0000 -0.8591
vn -0.9676 0.0000 0.2524
vn 0.4017 0.0000 0.9158
vn 0.9233 0.0000 0.3841
vn 0.2843 0.0000 0.9587
vn 0.7808 0.0000 0.6248
vn 0.1301 0.0000 0.9915
vn 0.5839 0.0000 0.8119
vn -0.0213 0.0000 0.9998
vn 0.3121 0.0000 0.9500
vn -0.8927 0.0000 0.4506
vn 0.0250 0.0000 -0.9997
vn -0.9997 0.0000 -0.0234
vn -0.5894 0.0000 -0.8079
vn 0.1981 0.0000 -0.9802
vn -0.8750 0.0000 -0.4842
vn 0.4149 0.0000 -0.9099
vn -0.4603 0.0000 -0.8878
vn 0.3528 0.0000 0.9357
vn 0.0239 0.0000 -0.9997
vn 0.5751 0.0000 -0.8181
vn 0.9782 0.0000 -0.2076
vn 0.9216 0.0000 -0.3882
vn 0.8253 0.0000 0.5647
vn -0.9980 0.0000 0.0627
vn -0.8972 0.0000 0.4417
vn -0.9302 0.0000 0.3672
vn -0.4682 0.0000 0.8836
vn -0.5389 0.0000 0.8423
vn -0.0241 0.0000 0.9997
vn -0.1335 0.0000 0.9910
vn 0.4211 0.0000 0.9070
vn -0.0203 0.0000 0.9998
vn 0.8524 0.0000 0.5229
vn 0.9968 0.0000 0.0805
vn -0.0908 0.0000 -0.9959
vn -0.1881 0.0000 0.9821
vn -0.3042 0.0000 -0.9526
vn -0.0795 0.0000 0.9968
vn -0.1493 0.0000 0.9888
vn -0.6274 0.0000 -0.7787
vn -0.0246 0.0000 0.9997
vn 0.8084 0.0000 0.5886
vn -0.0164 0.0000 0.9999
vn 0.0739 0.0000 0.9973
vn 0.0081 0.0000 -1.0000
vn 0.2124 0.0000 0.9772
vn 0.8130 0.0000 -0.5823
vn 0.8130 0.0000 -0.5822
vn -0.9995 0.0000 -0.0301
vn 0.3344 0.0000 0.9424
vn -0.9345 0.0000 -0.3560
vn 0.9684 0.0000 -0.2495
vn -0.1666 0.0000 0.9860
vn 0.6720 0.0000 -0.7405
vn 0.1946 0.0000 -0.9809
vn 0.0116 0.0000 -0.9999
vn -0.1180 0.0000 -0.9930
vn 0.0416 0.0000 -0.9991
vn -0.1737 0.0000 -0.9848
vn -0.3773 0.0000 -0.9261
vn 0.0823 0.0000 -0.9966
vn -0.5337 0.0000 -0.8456
vn 0.9992 0.0000 0.0395
vn 0.3889 0.0000 0.9213
vn 0.9682 0.0000 0.2501
vn -0.6552 0.0000 -0.7555
vn 0.2670 0.0000 0.9637
vn 0.8808 0.0000 0.4735
vn 0.1112 0.0000 0.9938
vn 0.7085 0.0000 0.7057
vn -0.2592 0.0000 0.9658
vn -0.5323 0.0000 0.8466
vn 0.1983 0.0000 0.9801
vn -0.1275 0.0000 -0.9918
vn -0.9974 0.0000 -0.0725
vn 0.0813 0.0000 -0.9967
vn -0.8383 0.0000 -0.5452
vn 0.2821 0.0000 -0.9594
vn -0.3939 0.0000 -0.9191
vn 0.4958 0.0000 -0.8685
vn -0.2801 0.0000 0.9600
vn 0.0747 0.0000 -0.9972
vn 0.7313 0.0000 -0.6821
vn 0.5914 0.0000 -0.8064
vn 0.9162 0.0000 -0.4008
vn 0.0400 0.0000 0.9992
vn 0.9450 0.0000 -0.3270
vn 0.9945 0.0000 -0.1048
vn -0.9991 0.0000 0.0413
vn -0.9800 0.0000 0.1990
vn -0.9047 0.0000 0.4260
vn -0.8199 0.0000 0.5725
vn -0.4538 0.0000 -0.8911
vn -0.5694 0.0000 0.8220
vn -0.5695 0.0000 0.8220
vn -0.0454 0.0000 0.9990
vn 0.8891 0.0000 0.4576
vn -0.0096 0.0000 1.0000
vn -0.4666 0.0000 0.8845
vn -0.0178 0.0000 -0.9998
vn -0.1677 0.0000 0.9858
vn -0.1479 0.0000 -0.9890
vn -0.0741 0.0000 0.9973
vn -0.0154 0.0000 0.9999
vn -0.7351 0.0000 -0.6780
vn 0.0892 0.0000 0.9960
vn 0.2297 0.0000 0.9733
vn -0.9889 0.0000 -0.1487
vn 0.3471 0.0000 0.9378
vn -0.6702 0.0000 -0.7422
vn -0.9432 0.0000 0.3323
vn -0.4903 0.0000 -0.8715
vn 0.9502 0.0000 -0.3117
vn -0.2078 0.0000 -0.9782
vn -0.2402 0.0000 -0.9707
vn 0.6131 0.0000 -0.7900
vn 0.0070 0.0000 -1.0000
vn 0.1455 0.0000 -0.9894
vn -0.0067 0.0000 1.0000
vn -0.3449 0.0000 -0.9386
vn 0.0384 0.0000 -0.9993
vn -0.1518 0.0000 -0.9884
vn 0.0762 0.0000 -0.9971
vn -0.4000 0.0000 -0.9165
vn -0.4001 0.0000 -0.9165
vn 0.0245 0.0000 0.9997
vn -0.2884 0.0000 0.9575
vn -0.2883 0.0000 0.9575
vn 0.9999 0.0000 0.0131
vn -0.5567 0.0000 -0.8307
vn 0.9745 0.0000 0.2243
vn 0.3755 0.0000 0.9268
vn 0.8964 0.0000 0.4433
vn 0.2491 0.0000 0.9685
vn 0.7297 0.0000 0.6837
vn 0.0927 0.0000 0.9957
vn 0.5259 0.0000 0.8505
vn -0.1147 0.0000 0.9934
vn 0.2347 0.0000 0.9721
vn -0.5952 0.0000 0.8036
vn -0.9484 0.0000 0.3170
vn 0.0615 0.0000 -0.9981
vn -0.9922 0.0000 -0.1248
vn 0.2542 0.0000 -0.9671
vn -0.7970 0.0000 -0.6040
vn 0.4689 0.0000 -0.8833
vn -0.3275 0.0000 -0.9448
vn 0.7013 0.0000 -0.7129
vn 0.1296 0.0000 -0.9916
vn -0.6640 0.0000 -0.7478
vn 0.8985 0.0000 -0.4391
vn 0.6563 0.0000 -0.7545
vn -0.3003 0.0000 0.9538
vn 0.9905 0.0000 -0.1377
vn 0.9634 0.0000 -0.2681
vn 0.4799 0.0000 0.8773
vn 0.9999 0.0000 -0.0140
vn -0.9884 0.0000 0.1522
vn -0.9969 0.0000 0.0782
vn 0.6383 0.0000 -0.7698
vn -0.6104 0.0000 0.7921
vn -0.3944 0.0000 0.9190
vn 0.0753 0.0000 0.9972
vn 0.8798 0.0000 -0.4753
vn -0.0661 0.0000 0.9978
vn 0.5370 0.0000 0.8436
vn -0.0129 0.0000 0.9999
vn 0.9191 0.0000 0.3940
vn -0.3861 0.0000 -0.9224
vn -0.0682 0.0000 0.9977
vn -0.7074 0.0000 -0.7068
vn -0.0054 0.0000 1.0000
vn -0.8964 0.0000 -0.4433
vn 0.1052 0.0000 0.9945
vn -0.9844 0.0000 -0.1761
vn 0.2464 0.0000 0.9692
vn -0.1182 0.0000 0.9930
vn 0.3595 0.0000 0.9332
vn -0.6202 0.0000 -0.7844
vn 0.9267 0.0000 -0.3758
vn -0.3782 0.0000 -0.9257
vn 0.8593 0.0000 -0.5114
vn -0.9553 0.0000 0.2955
vn 0.5501 0.0000 -0.8351
vn 0.5234 0.0000 -0.8521
vn 0.0998 0.0000 -0.9950
vn 0.0199 0.0000 -0.9998
vn 0.4321 0.0000 0.9018
vn -0.1854 0.0000 -0.9827
vn 0.0486 0.0000 -0.9988
vn -0.4165 0.0000 -0.9091
vn -0.5806 0.0000 -0.8142
vn 0.9957 0.0000 0.0926
vn 0.3617 0.0000 0.9323
vn 0.9538 0.0000 0.3005
vn 0.2305 0.0000 0.9731
vn 0.8453 0.0000 0.5343
vn 0.0748 0.0000 0.9972
vn 0.6623 0.0000 0.7493
vn -0.6557 0.0000 0.7550
vn 0.1302 0.0000 0.9915
vn -0.1981 0.0000 0.9802
vn -0.9837 0.0000 -0.1800
vn 0.1242 0.0000 -0.9923
vn 0.1243 0.0000 -0.9923
vn -0.7515 0.0000 -0.6597
vn 0.3344 0.0000 -0.9424
vn -0.7732 0.0000 0.6342
vn -0.2621 0.0000 -0.9650
vn 0.5490 0.0000 -0.8359
vn 0.1883 0.0000 -0.9821
vn 0.7167 0.0000 -0.6973
vn 0.9471 0.0000 -0.3211
vn 0.9773 0.0000 -0.2120
vn 0.9991 0.0000 -0.0429
vn -0.9930 0.0000 0.1182
vn -0.8359 0.0000 0.5489
vn -0.3237 0.0000 0.9462
vn -0.4797 0.0000 0.8775
vn 0.1289 0.0000 0.9917
vn -0.2292 0.0000 0.9734
vn 0.5917 0.0000 0.8062
vn 0.9429 0.0000 0.3330
vn -0.0038 0.0000 1.0000
vn -0.3392 0.0000 0.9407
vn -0.1330 0.0000 0.9911
vn -0.1933 0.0000 -0.9811
vn -0.0622 0.0000 0.9981
vn -0.5098 0.0000 -0.8603
vn 0.0061 0.0000 1.0000
vn 0.1218 0.0000 0.9926
vn -0.9425 0.0000 -0.3343
vn 0.2625 0.0000 0.9649
vn -0.8558 0.0000 0.5173
vn -0.6386 0.0000 -0.7695
vn -0.4126 0.0000 -0.9109
vn 0.8976 0.0000 -0.4408
vn 0.0538 0.0000 -0.9986
vn 0.4865 0.0000 -0.8737
vn 0.0159 0.0000 -0.9999
vn 0.0575 0.0000 -0.9983
vn 0.0447 0.0000 -0.9990
vn -0.2188 0.0000 -0.9758
vn 0.0888 0.0000 -0.9960
vn -0.4338 0.0000 -0.9010
vn 0.9978 0.0000 0.0660
vn -0.6055 0.0000 -0.7958
vn -0.0013 0.0000 1.0000
vn -0.4276 0.0000 -0.9040
vn 0.9613 0.0000 0.2755
vn 0.3473 0.0000 0.9377
vn 0.8638 0.0000 0.5038
vn 0.2104 0.0000 0.9776
vn 0.6860 0.0000 0.7276
vn 0.0573 0.0000 0.9984
vn -0.2218 0.0000 0.9751
vn 0.1634 0.0000 0.9866
vn -0.7123 0.0000 0.7018
vn -0.9817 0.0000 0.1904
vn -0.8447 0.0000 0.5352
vn 0.4642 0.0000 0.8858
vn 0.1022 0.0000 -0.9948
vn -0.9713 0.0000 -0.2379
vn 0.3081 0.0000 -0.9514
vn -0.7020 0.0000 -0.7122
vn 0.5225 0.0000 -0.8526
vn -0.1987 0.0000 -0.9801
vn 0.9973 0.0000 -0.0731
vn 0.9873 0.0000 -0.1591
vn -0.9690 0.0000 0.2469
vn -0.7977 0.0000 0.6031
vn -0.7918 0.0000 0.6107
vn -0.5258 0.0000 0.8506
vn -0.2558 0.0000 0.9667
vn -0.6839 0.0000 0.7296
vn -0.0338 0.0000 0.9994
vn 0.1848 0.0000 0.9828
vn -0.0394 0.0000 0.9992
vn 0.6432 0.0000 0.7657
vn 0.9614 0.0000 0.2751
vn -0.0306 0.0000 -0.9995
vn -0.1698 0.0000 -0.9855
vn -0.3411 0.0000 0.9400
vn -0.4688 0.0000 -0.8833
vn -0.0558 0.0000 0.9984
vn -0.7619 0.0000 -0.6477
vn 0.0186 0.0000 0.9998
vn -0.9288 0.0000 -0.3706
vn 0.1390 0.0000 0.9903
vn -0.9925 0.0000 -0.1225
vn 0.2779 0.0000 0.9606
vn -0.5000 0.0000 -0.8661
vn 0.5000 0.0000 -0.8660
vn -0.5000 0.0000 -0.8660
vn 0.5000 0.0000 -0.8661
vn 0.5000 0.0000 0.8660
vn -0.5000 0.0000 0.8660
usemtl None
s off
f 1//1 2//1 3//1
f 1//1 4//1 2//1
f 4//1 5//1 6//1
f 4//1 7//1 5//1
f 1//1 7//1 4//1
f 8//1 7//1 1//1
f 9//1 10//1 11//1
f 9//1 12//1 10//1
f 13//1 12//1 9//1
f 13//1 14//1 12//1
f 15//1 14//1 13//1
f 15//1 16//1 14//1
f 17//1 16//1 15//1
f 17//1 18//1 16//1
f 19//1 18//1 17//1
f 19//1 20//1 18//1
f 21//1 20//1 19//1
f 21//1 22//1 20//1
f 23//1 22//1 21//1
f 23//1 24//1 22//1
f 25//1 24//1 23//1
f 25//1 26//1 24//1
f 27//1 26//1 25//1
f 27//1 28//1 26//1
f 29//1 28//1 27//1
f 29//1 30//1 28//1
f 31//1 30//1 29//1
f 31//1 32//1 30//1
f 33//1 32//1 31//1
f 33//1 34//1 32//1
f 33//1 35//1 34//1
f 36//1 35//1 33//1
f 36//1 37//1 35//1
f 38//1 37//1 36//1
f 38//1 39//1 37//1
f 39//1 40//1 37//1
f 40//1 41//1 37//1
f 42//1 43//1 38//1
f 43//1 39//1 38//1
f 42//1 44//1 43//1
f 45//2 41//2 40//2
f 42//1 46//1 44//1
f 47//1 41//1 45//1
f 42//1 48//1 46//1
f 49//1 41//1 47//1
f 42//1 50//1 48//1
f 51//1 41//1 49//1
f 42//1 52//1 50//1
f 53//1 41//1 51//1
f 42//1 54//1 52//1
f 55//1 41//1 53//1
f 42//1 56//1 54//1
f 55//1 57//1 41//1
f 58//1 57//1 55//1
f 42//1 59//1 56//1
f 60//1 57//1 58//1
f 61//1 59//1 42//1
f 61//1 62//1 59//1
f 63//1 57//1 60//1
f 61//1 64//1 62//1
f 65//1 57//1 63//1
f 61//1 66//1 64//1
f 67//1 57//1 65//1
f 67//1 68//1 57//1
f 61//1 69//1 66//1
f 70//1 68//1 67//1
f 71//1 69//1 61//1
f 71//1 72//1 69//1
f 73//1 68//1 70//1
f 71//1 74//1 72//1
f 75//1 68//1 73//1
f 75//1 76//1 68//1
f 71//1 77//1 74//1
f 78//1 76//1 75//1
f 79//1 77//1 71//1
f 79//1 80//1 77//1
f 81//1 76//1 78//1
f 79//1 82//1 80//1
f 83//1 76//1 81//1
f 83//1 84//1 76//1
f 79//1 85//1 82//1
f 86//1 84//1 83//1
f 87//1 85//1 79//1
f 87//1 88//1 85//1
f 89//1 84//1 86//1
f 89//1 90//1 84//1
f 87//1 91//1 88//1
f 92//1 90//1 89//1
f 93//1 91//1 87//1
f 93//1 94//1 91//1
f 95//1 90//1 92//1
f 93//1 96//1 94//1
f 95//1 97//1 90//1
f 98//1 97//1 95//1
f 99//1 96//1 93//1
f 99//1 100//1 96//1
f 101//1 97//1 98//1
f 99//1 101//1 100//1
f 99//1 97//1 101//1
f 99//1 102//1 97//1
f 103//1 102//1 99//1
f 103//1 104//1 102//1
f 105//1 104//1 103//1
f 105//1 106//1 104//1
f 107//1 106//1 105//1
f 108//1 106//1 107//1
f 109//1 110//1 108//1
f 110//1 106//1 108//1
f 109//1 111//1 110//1
f 109//1 112//1 111//1
f 113//1 112//1 109//1
f 113//1 114//1 112//1
f 113//1 115//1 114//1
f 116//1 115//1 113//1
f 116//1 117//1 115//1
f 116//1 118//1 117//1
f 119//1 118//1 116//1
f 119//1 120//1 118//1
f 119//1 121//1 120//1
f 122//1 123//1 124//1
f 122//1 125//1 123//1
f 119//1 126//1 121//1
f 127//1 125//1 122//1
f 128//1 126//1 119//1
f 129//1 125//1 127//1
f 128//1 130//1 126//1
f 131//1 125//1 129//1
f 132//1 125//1 131//1
f 128//1 133//1 130//1
f 134//1 125//1 132//1
f 135//1 125//1 134//1
f 136//1 133//1 128//1
f 136//1 137//1 133//1
f 138//1 125//1 135//1
f 136//1 139//1 137//1
f 140//1 125//1 138//1
f 141//1 125//1 140//1
f 136//1 142//1 139//1
f 143//1 125//1 141//1
f 136//1 144//1 142//1
f 145//1 144//1 136//1
f 146//1 125//1 143//1
f 147//1 125//1 146//1
f 145//1 148//1 144//1
f 149//1 125//1 147//1
f 145//1 150//1 148//1
f 151//1 125//1 149//1
f 145//1 152//1 150//1
f 153//1 125//1 151//1
f 154//1 125//1 153//1
f 145//1 155//1 152//1
f 156//1 155//1 145//1
f 157//1 125//1 154//1
f 156//1 158//1 155//1
f 159//1 125//1 157//1
f 156//1 160//1 158//1
f 161//1 125//1 159//1
f 162//1 125//1 161//1
f 156//1 163//1 160//1
f 164//1 125//1 162//1
f 156//1 165//1 163//1
f 166//1 125//1 164//1
f 156//1 167//1 165//1
f 167//1 125//1 166//1
f 156//1 125//1 167//1
f 168//1 125//1 156//1
f 169//1 125//1 168//1
f 170//1 125//1 169//1
f 171//1 125//1 170//1
f 172//1 125//1 171//1
f 173//1 125//1 172//1
f 173//1 174//1 125//1
f 175//1 174//1 173//1
f 175//1 176//1 174//1
f 175//1 177//1 176//1
f 175//1 178//1 177//1
f 179//1 178//1 175//1
f 179//1 180//1 178//1
f 179//1 181//1 180//1
f 182//1 181//1 179//1
f 182//1 183//1 181//1
f 182//1 184//1 183//1
f 182//1 185//1 184//1
f 186//1 185//1 182//1
f 186//1 187//1 185//1
f 186//1 188//1 187//1
f 189//1 188//1 186//1
f 189//1 190//1 188//1
f 189//1 191//1 190//1
f 189//1 192//1 191//1
f 193//1 192//1 189//1
f 193//1 194//1 192//1
f 193//1 195//1 194//1
f 193//1 196//1 195//1
f 197//1 196//1 193//1
f 197//1 198//1 196//1
f 197//1 199//1 198//1
f 200//1 199//1 197//1
f 200//1 201//1 199//1
f 200//1 202//1 201//1
f 200//1 203//1 202//1
f 204//1 203//1 200//1
f 204//3 205//3 203//3
f 206//4 207//4 208//4
f 206//1 209//1 207//1
f 206//5 210//5 209//5
f 206//6 211//6 210//6
f 206//5 212//5 211//5
f 206//7 213//7 212//7
f 214//1 213//1 206//1
f 214//5 215//5 213//5
f 214//4 216//4 215//4
f 214//1 217//1 216//1
f 214//3 218//3 217//3
f 214//1 219//1 218//1
f 214//1 220//1 219//1
f 221//1 220//1 214//1
f 221//1 222//1 220//1
f 221//1 223//1 222//1
f 221//1 224//1 223//1
f 221//3 225//3 224//3
f 221//1 226//1 225//1
f 221//2 227//2 226//2
f 228//1 227//1 221//1
f 228//1 229//1 227//1
f 228//2 230//2 229//2
f 228//3 231//3 230//3
f 228//2 232//2 231//2
f 228//1 233//1 232//1
f 228//3 234//3 233//3
f 235//1 234//1 228//1
f 236//1 237//1 238//1
f 236//1 239//1 237//1
f 235//1 240//1 234//1
f 241//1 240//1 235//1
f 242//1 240//1 241//1
f 243//1 240//1 242//1
f 244//1 240//1 243//1
f 245//1 240//1 244//1
f 246//1 240//1 245//1
f 247//1 240//1 246//1
f 248//1 240//1 247//1
f 249//1 240//1 248//1
f 250//1 240//1 249//1
f 251//1 240//1 250//1
f 252//1 240//1 251//1
f 253//1 240//1 252//1
f 254//1 240//1 253//1
f 255//1 240//1 254//1
f 256//1 240//1 255//1
f 257//1 240//1 256//1
f 258//1 240//1 257//1
f 239//1 240//1 258//1
f 236//1 259//1 239//1
f 259//1 260//1 239//1
f 260//1 261//1 239//1
f 261//1 262//1 239//1
f 262//1 263//1 239//1
f 263//1 264//1 239//1
f 264//1 265//1 239//1
f 265//1 266//1 239//1
f 266//1 267//1 239//1
f 267//1 268//1 239//1
f 268//1 269//1 239//1
f 269//1 270//1 239//1
f 270//1 271//1 239//1
f 271//1 272//1 239//1
f 272//1 273//1 239//1
f 273//1 274//1 239//1
f 274//1 275//1 239//1
f 275//1 276//1 239//1
f 276//1 277//1 239//1
f 277//1 278//1 239//1
f 278//1 279//1 239//1
f 279//1 280//1 239//1
f 280//1 281//1 239//1
f 281//1 282//1 239//1
f 282//1 283//1 239//1
f 283//1 284//1 239//1
f 284//1 285//1 239//1
f 285//1 286//1 239//1
f 286//1 287//1 239//1
f 287//1 288//1 239//1
f 288//1 289//1 239//1
f 289//1 290//1 239//1
f 290//1 291//1 239//1
f 291//1 292//1 239//1
f 292//1 293//1 239//1
f 293//1 294//1 239//1
f 294//1 295//1 239//1
f 295//1 296//1 239//1
f 296//1 297//1 239//1
f 297//1 298//1 239//1
f 298//1 240//1 239//1
f 299//1 240//1 298//1
f 300//1 240//1 299//1
f 301//1 240//1 300//1
f 302//1 240//1 301//1
f 303//1 240//1 302//1
f 304//1 240//1 303//1
f 305//1 240//1 304//1
f 306//1 240//1 305//1
f 307//1 240//1 306//1
f 236//1 308//1 259//1
f 309//1 310//1 311//1
f 310//1 312//1 311//1
f 310//1 313//1 312//1
f 310//1 314//1 313//1
f 310//1 315//1 314//1
f 310//1 316//1 315//1
f 310//1 317//1 316//1
f 310//1 318//1 317//1
f 310//1 319//1 318//1
f 310//1 320//1 319//1
f 310//1 321//1 320//1
f 310//1 322//1 321//1
f 310//1 323//1 322//1
f 310//1 324//1 323//1
f 310//1 325//1 324//1
f 310//1 326//1 325//1
f 310//1 327//1 326//1
f 310//1 328//1 327//1
f 310//1 329//1 328//1
f 310//1 330//1 329//1
f 310//1 331//1 330//1
f 310//1 332//1 331//1
f 310//1 333//1 332//1
f 310//1 334//1 333//1
f 310//1 335//1 334//1
f 310//1 336//1 335//1
f 310//1 337//1 336//1
f 310//1 338//1 337//1
f 310//1 339//1 338//1
f 310//1 340//1 339//1
f 310//1 341//1 340//1
f 310//1 342//1 341//1
f 310//1 343//1 342//1
f 310//1 344//1 343//1
f 310//1 345//1 344//1
f 310//1 346//1 345//1
f 310//1 347//1 346//1
f 310//1 348//1 347//1
f 310//1 349//1 348//1
f 310//1 350//1 349//1
f 350//5 351//5 349//5
f 351//3 352//3 349//3
f 352//1 353//1 349//1
f 309//1 354//1 310//1
f 355//8 353//8 352//8
f 356//1 353//1 355//1
f 357//1 353//1 356//1
f 358//1 353//1 357//1
f 359//1 353//1 358//1
f 360//1 353//1 359//1
f 361//3 353//3 360//3
f 362//2 353//2 361//2
f 363//1 353//1 362//1
f 364//1 353//1 363//1
f 365//1 353//1 364//1
f 365//1 366//1 353//1
f 367//1 366//1 365//1
f 368//1 366//1 367//1
f 369//1 366//1 368//1
f 370//1 366//1 369//1
f 371//1 366//1 370//1
f 372//1 366//1 371//1
f 373//1 366//1 372//1
f 374//1 366//1 373//1
f 375//1 366//1 374//1
f 375//1 376//1 366//1
f 377//1 376//1 375//1
f 378//1 376//1 377//1
f 379//1 376//1 378//1
f 380//1 376//1 379//1
f 381//1 376//1 380//1
f 381//1 382//1 376//1
f 383//1 382//1 381//1
f 384//1 382//1 383//1
f 385//1 382//1 384//1
f 386//1 382//1 385//1
f 386//1 387//1 382//1
f 388//1 387//1 386//1
f 389//1 387//1 388//1
f 390//1 387//1 389//1
f 390//1 391//1 387//1
f 392//1 391//1 390//1
f 393//1 391//1 392//1
f 393//1 394//1 391//1
f 395//1 394//1 393//1
f 396//1 394//1 395//1
f 397//1 394//1 396//1
f 397//1 398//1 394//1
f 399//1 398//1 397//1
f 400//1 398//1 399//1
f 400//1 401//1 398//1
f 402//1 401//1 400//1
f 403//1 401//1 402//1
f 403//1 404//1 401//1
f 405//1 404//1 403//1
f 406//1 404//1 405//1
f 407//1 404//1 406//1
f 407//1 408//1 404//1
f 409//1 408//1 407//1
f 410//1 408//1 409//1
f 410//1 411//1 408//1
f 412//1 411//1 410//1
f 412//1 413//1 411//1
f 414//1 413//1 412//1
f 415//1 413//1 414//1
f 415//1 416//1 413//1
f 417//1 416//1 415//1
f 418//1 416//1 417//1
f 418//1 419//1 416//1
f 420//1 419//1 418//1
f 420//1 421//1 419//1
f 422//1 421//1 420//1
f 423//1 421//1 422//1
f 423//1 424//1 421//1
f 425//1 424//1 423//1
f 426//1 424//1 425//1
f 426//1 427//1 424//1
f 428//1 427//1 426//1
f 429//1 427//1 428//1
f 429//1 430//1 427//1
f 431//1 430//1 429//1
f 432//1 430//1 431//1
f 432//1 433//1 430//1
f 434//1 433//1 432//1
f 435//1 433//1 434//1
f 436//1 433//1 435//1
f 436//1 437//1 433//1
f 438//1 437//1 436//1
f 439//1 437//1 438//1
f 439//1 440//1 437//1
f 441//1 440//1 439//1
f 442//1 440//1 441//1
f 443//1 440//1 442//1
f 443//1 444//1 440//1
f 445//1 444//1 443//1
f 446//1 444//1 445//1
f 447//1 444//1 446//1
f 447//1 448//1 444//1
f 449//1 448//1 447//1
f 450//1 448//1 449//1
f 451//1 448//1 450//1
f 451//1 452//1 448//1
f 453//1 452//1 451//1
f 454//1 452//1 453//1
f 455//1 452//1 454//1
f 455//1 456//1 452//1
f 457//1 456//1 455//1
f 458//1 456//1 457//1
f 459//1 456//1 458//1
f 460//1 456//1 459//1
f 461//1 456//1 460//1
f 461//1 462//1 456//1
f 463//1 462//1 461//1
f 464//1 462//1 463//1
f 465//1 462//1 464//1
f 466//1 462//1 465//1
f 467//1 462//1 466//1
f 468//1 462//1 467//1
f 469//1 462//1 468//1
f 470//1 462//1 469//1
f 471//2 462//2 470//2
f 472//3 462//3 471//3
f 473//1 462//1 472//1
f 474//1 462//1 473//1
f 309//1 474//1 354//1
f 309//1 475//1 474//1
f 475//1 462//1 474//1
f 475//1 476//1 462//1
f 475//1 477//1 476//1
f 475//1 478//1 477//1
f 475//1 479//1 478//1
f 475//1 480//1 479//1
f 475//1 481//1 480//1
f 475//1 482//1 481//1
f 475//1 483//1 482//1
f 475//1 484//1 483//1
f 475//1 485//1 484//1
f 475//1 486//1 485//1
f 475//1 487//1 486//1
f 475//1 488//1 487//1
f 475//1 489//1 488//1
f 475//1 490//1 489//1
f 475//1 491//1 490//1
f 475//1 492//1 491//1
f 475//1 493//1 492//1
f 475//1 494//1 493//1
f 475//1 495//1 494//1
f 475//1 496//1 495//1
f 475//1 497//1 496//1
f 475//1 498//1 497//1
f 475//1 499//1 498//1
f 475//1 500//1 499//1
f 475//1 501//1 500//1
f 475//1 502//1 501//1
f 475//1 503//1 502//1
f 475//1 504//1 503//1
f 475//1 505//1 504//1
f 475//1 506//1 505//1
f 475//1 507//1 506//1
f 309//1 508//1 475//1
f 509//9 510//9 511//9
f 509//9 511//9 512//9
f 512//9 513//9 514//9
f 512//9 514//9 515//9
f 509//9 512//9 515//9
f 516//9 509//9 515//9
f 517//9 518//9 519//9
f 517//9 519//9 520//9
f 521//9 517//9 520//9
f 521//9 520//9 522//9
f 523//9 521//9 522//9
f 523//9 522//9 524//9
f 525//9 523//9 524//9
f 525//9 524//9 526//9
f 527//9 525//9 526//9
f 527//9 526//9 528//9
f 529//9 527//9 528//9
f 529//9 528//9 530//9
f 531//9 529//9 530//9
f 531//9 530//9 532//9
f 533//9 531//9 532//9
f 533//9 532//9 534//9
f 535//9 533//9 534//9
f 535//9 534//9 536//9
f 537//9 535//9 536//9
f 537//9 536//9 538//9
f 539//9 537//9 538//9
f 539//9 538//9 540//9
f 541//9 539//9 540//9
f 541//9 540//9 542//9
f 541//9 542//9 543//9
f 544//9 541//9 543//9
f 544//9 543//9 545//9
f 546//9 544//9 545//9
f 546//9 545//9 547//9
f 547//10 545//10 548//10
f 548//9 545//9 549//9
f 550//9 546//9 551//9
f 551//9 546//9 547//9
f 550//11 551//11 552//11
f 553//10 548//10 549//10
f 550//9 552//9 554//9
f 555//9 553//9 549//9
f 550//9 554//9 556//9
f 557//9 555//9 549//9
f 550//9 556//9 558//9
f 559//9 557//9 549//9
f 550//9 558//9 560//9
f 561//9 559//9 549//9
f 550//9 560//9 562//9
f 563//9 561//9 549//9
f 550//9 562//9 564//9
f 563//9 549//9 565//9
f 566//9 563//9 565//9
f 550//9 564//9 567//9
f 568//9 566//9 565//9
f 569//9 550//9 567//9
f 569//9 567//9 570//9
f 571//9 568//9 565//9
f 569//9 570//9 572//9
f 573//9 571//9 565//9
f 569//9 572//9 574//9
f 575//9 573//9 565//9
f 575//9 565//9 576//9
f 569//9 574//9 577//9
f 578//9 575//9 576//9
f 579//9 569//9 577//9
f 579//9 577//9 580//9
f 581//9 578//9 576//9
f 579//9 580//9 582//9
f 583//9 581//9 576//9
f 583//9 576//9 584//9
f 579//9 582//9 585//9
f 586//9 583//9 584//9
f 587//9 579//9 585//9
f 587//9 585//9 588//9
f 589//9 586//9 584//9
f 587//9 588//9 590//9
f 591//9 589//9 584//9
f 591//9 584//9 592//9
f 587//9 590//9 593//9
f 594//9 591//9 592//9
f 595//9 587//9 593//9
f 595//9 593//9 596//9
f 597//9 594//9 592//9
f 597//9 592//9 598//9
f 595//9 596//9 599//9
f 600//9 597//9 598//9
f 601//9 595//9 599//9
f 601//9 599//9 602//9
f 603//9 600//9 598//9
f 601//9 602//9 604//9
f 603//9 598//9 605//9
f 606//9 603//9 605//9
f 607//9 601//9 604//9
f 607//9 604//9 608//9
f 609//9 606//9 605//9
f 607//9 608//9 609//9
f 607//9 609//9 605//9
f 607//9 605//9 610//9
f 611//9 607//9 610//9
f 611//9 610//9 612//9
f 613//9 611//9 612//9
f 613//9 612//9 614//9
f 615//9 613//9 614//9
f 616//9 615//9 614//9
f 617//9 616//9 618//9
f 618//9 616//9 614//9
f 617//9 618//9 619//9
f 617//9 619//9 620//9
f 621//9 617//9 620//9
f 621//9 620//9 622//9
f 621//9 622//9 623//9
f 624//9 621//9 623//9
f 624//9 623//9 625//9
f 624//9 625//9 626//9
f 627//9 624//9 626//9
f 627//9 626//9 628//9
f 627//9 628//9 629//9
f 630//9 631//9 632//9
f 630//9 632//9 633//9
f 627//9 629//9 634//9
f 635//9 630//9 633//9
f 636//9 627//9 634//9
f 637//9 635//9 633//9
f 636//9 634//9 638//9
f 639//9 637//9 633//9
f 640//9 639//9 633//9
f 636//9 638//9 641//9
f 642//9 640//9 633//9
f 643//9 642//9 633//9
f 644//9 636//9 641//9
f 644//9 641//9 645//9
f 646//9 643//9 633//9
f 644//9 645//9 647//9
f 648//9 646//9 633//9
f 649//9 648//9 633//9
f 644//9 647//9 650//9
f 651//9 649//9 633//9
f 644//9 650//9 652//9
f 653//9 644//9 652//9
f 654//9 651//9 633//9
f 655//9 654//9 633//9
f 653//9 652//9 656//9
f 657//9 655//9 633//9
f 653//9 656//9 658//9
f 659//9 657//9 633//9
f 653//9 658//9 660//9
f 661//9 659//9 633//9
f 662//9 661//9 633//9
f 653//9 660//9 663//9
f 664//9 653//9 663//9
f 665//9 662//9 633//9
f 664//9 663//9 666//9
f 667//9 665//9 633//9
f 664//9 666//9 668//9
f 669//9 667//9 633//9
f 670//9 669//9 633//9
f 664//9 668//9 671//9
f 672//9 670//9 633//9
f 664//9 671//9 673//9
f 674//9 672//9 633//9
f 664//9 673//9 675//9
f 675//9 674//9 633//9
f 664//9 675//9 633//9
f 676//9 664//9 633//9
f 677//9 676//9 633//9
f 678//9 677//9 633//9
f 679//9 678//9 633//9
f 680//9 679//9 633//9
f 681//9 680//9 633//9
f 681//9 633//9 682//9
f 683//9 681//9 682//9
f 683//9 682//9 684//9
f 683//9 684//9 685//9
f 683//9 685//9 686//9
f 687//9 683//9 686//9
f 687//9 686//9 688//9
f 687//9 688//9 689//9
f 690//9 687//9 689//9
f 690//9 689//9 691//9
f 690//9 691//9 692//9
f 690//9 692//9 693//9
f 694//9 690//9 693//9
f 694//9 693//9 695//9
f 694//9 695//9 696//9
f 697//9 694//9 696//9
f 697//9 696//9 698//9
f 697//9 698//9 699//9
f 697//9 699//9 700//9
f 701//9 697//9 700//9
f 701//9 700//9 702//9
f 701//9 702//9 703//9
f 701//9 703//9 704//9
f 705//9 701//9 704//9
f 705//9 704//9 706//9
f 705//9 706//9 707//9
f 708//9 705//9 707//9
f 708//9 707//9 709//9
f 708//9 709//9 710//9
f 708//9 710//9 711//9
f 712//9 708//9 711//9
f 712//11 711//11 713//11
f 714//12 715//12 716//12
f 714//13 716//13 717//13
f 714//14 717//14 718//14
f 714//10 718//10 719//10
f 714//9 719//9 720//9
f 714//15 720//15 721//15
f 722//10 714//10 721//10
f 722//11 721//11 723//11
f 722//10 723//10 724//10
f 722//9 724//9 725//9
f 722//11 725//11 726//11
f 722//9 726//9 727//9
f 722//16 727//16 728//16
f 729//9 722//9 728//9
f 729//11 728//11 730//11
f 729//10 730//10 731//10
f 729//9 731//9 732//9
f 729//11 732//11 733//11
f 729//10 733//10 734//10
f 729//9 734//9 735//9
f 736//9 729//9 735//9
f 736//11 735//11 737//11
f 736//9 737//9 738//9
f 736//9 738//9 739//9
f 736//10 739//10 740//10
f 736//10 740//10 741//10
f 736//9 741//9 742//9
f 743//9 736//9 742//9
f 744//9 745//9 746//9
f 744//9 746//9 747//9
f 743//9 742//9 748//9
f 749//9 743//9 748//9
f 750//9 749//9 748//9
f 751//9 750//9 748//9
f 752//9 751//9 748//9
f 753//9 752//9 748//9
f 754//9 753//9 748//9
f 755//9 754//9 748//9
f 756//9 755//9 748//9
f 757//9 756//9 748//9
f 758//9 757//9 748//9
f 759//9 758//9 748//9
f 760//9 759//9 748//9
f 761//9 760//9 748//9
f 762//9 761//9 748//9
f 763//9 762//9 748//9
f 764//9 763//9 748//9
f 765//9 764//9 748//9
f 766//9 765//9 748//9
f 747//9 766//9 748//9
f 744//9 747//9 767//9
f 767//9 747//9 768//9
f 768//9 747//9 769//9
f 769//9 747//9 770//9
f 770//9 747//9 771//9
f 771//9 747//9 772//9
f 772//9 747//9 773//9
f 773//9 747//9 774//9
f 774//9 747//9 775//9
f 775//9 747//9 776//9
f 776//9 747//9 777//9
f 777//9 747//9 778//9
f 778//9 747//9 779//9
f 779//9 747//9 780//9
f 780//9 747//9 781//9
f 781//9 747//9 782//9
f 782//9 747//9 783//9
f 783//9 747//9 784//9
f 784//9 747//9 785//9
f 785//9 747//9 786//9
f 786//9 747//9 787//9
f 787//9 747//9 788//9
f 788//9 747//9 789//9
f 789//9 747//9 790//9
f 790//9 747//9 791//9
f 791//9 747//9 792//9
f 792//9 747//9 793//9
f 793//9 747//9 794//9
f 794//9 747//9 795//9
f 795//9 747//9 796//9
f 796//9 747//9 797//9
f 797//9 747//9 798//9
f 798//9 747//9 799//9
f 799//9 747//9 800//9
f 800//9 747//9 801//9
f 801//9 747//9 802//9
f 802//9 747//9 803//9
f 803//9 747//9 804//9
f 804//9 747//9 805//9
f 805//9 747//9 806//9
f 806//9 747//9 748//9
f 807//17 806//17 748//17
f 808//16 807//16 748//16
f 809//18 808//18 748//18
f 810//9 809//9 748//9
f 811//9 810//9 748//9
f 812//9 811//9 748//9
f 813//9 812//9 748//9
f 814//9 813//9 748//9
f 815//9 814//9 748//9
f 744//9 767//9 816//9
f 817//9 818//9 819//9
f 819//9 818//9 820//9
f 819//9 820//9 821//9
f 819//9 821//9 822//9
f 819//9 822//9 823//9
f 819//9 823//9 824//9
f 819//9 824//9 825//9
f 819//9 825//9 826//9
f 819//9 826//9 827//9
f 819//9 827//9 828//9
f 819//9 828//9 829//9
f 819//9 829//9 830//9
f 819//9 830//9 831//9
f 819//9 831//9 832//9
f 819//9 832//9 833//9
f 819//9 833//9 834//9
f 819//9 834//9 835//9
f 819//9 835//9 836//9
f 819//9 836//9 837//9
f 819//9 837//9 838//9
f 819//9 838//9 839//9
f 819//9 839//9 840//9
f 819//9 840//9 841//9
f 819//9 841//9 842//9
f 819//9 842//9 843//9
f 819//9 843//9 844//9
f 819//9 844//9 845//9
f 819//9 845//9 846//9
f 819//9 846//9 847//9
f 819//9 847//9 848//9
f 819//9 848//9 849//9
f 819//9 849//9 850//9
f 819//9 850//9 851//9
f 819//9 851//9 852//9
f 819//9 852//9 853//9
f 819//9 853//9 854//9
f 819//9 854//9 855//9
f 819//9 855//9 856//9
f 819//9 856//9 857//9
f 819//9 857//9 858//9
f 858//18 857//18 859//18
f 859//9 857//9 860//9
f 860//9 857//9 861//9
f 817//9 819//9 862//9
f 863//9 860//9 861//9
f 864//9 863//9 861//9
f 865//9 864//9 861//9
f 866//9 865//9 861//9
f 867//19 866//19 861//19
f 868//11 867//11 861//11
f 869//9 868//9 861//9
f 870//10 869//10 861//10
f 871//18 870//18 861//18
f 872//10 871//10 861//10
f 873//9 872//9 861//9
f 873//9 861//9 874//9
f 875//9 873//9 874//9
f 876//9 875//9 874//9
f 877//9 876//9 874//9
f 878//9 877//9 874//9
f 879//9 878//9 874//9
f 880//9 879//9 874//9
f 881//9 880//9 874//9
f 882//9 881//9 874//9
f 883//9 882//9 874//9
f 883//9 874//9 884//9
f 885//9 883//9 884//9
f 886//9 885//9 884//9
f 887//9 886//9 884//9
f 888//9 887//9 884//9
f 889//9 888//9 884//9
f 889//9 884//9 890//9
f 891//9 889//9 890//9
f 892//9 891//9 890//9
f 893//9 892//9 890//9
f 894//9 893//9 890//9
f 894//9 890//9 895//9
f 896//9 894//9 895//9
f 897//9 896//9 895//9
f 898//9 897//9 895//9
f 898//9 895//9 899//9
f 900//9 898//9 899//9
f 901//9 900//9 899//9
f 901//9 899//9 902//9
f 903//9 901//9 902//9
f 904//9 903//9 902//9
f 905//9 904//9 902//9
f 905//9 902//9 906//9
f 907//9 905//9 906//9
f 908//9 907//9 906//9
f 908//9 906//9 909//9
f 910//9 908//9 909//9
f 911//9 910//9 909//9
f 911//9 909//9 912//9
f 913//9 911//9 912//9
f 914//9 913//9 912//9
f 915//9 914//9 912//9
f 915//9 912//9 916//9
f 917//9 915//9 916//9
f 918//9 917//9 916//9
f 918//9 916//9 919//9
f 920//9 918//9 919//9
f 920//9 919//9 921//9
f 922//9 920//9 921//9
f 923//9 922//9 921//9
f 923//9 921//9 924//9
f 925//9 923//9 924//9
f 926//9 925//9 924//9
f 926//9 924//9 927//9
f 928//9 926//9 927//9
f 928//9 927//9 929//9
f 930//9 928//9 929//9
f 931//9 930//9 929//9
f 931//9 929//9 932//9
f 933//9 931//9 932//9
f 934//9 933//9 932//9
f 934//9 932//9 935//9
f 936//9 934//9 935//9
f 937//9 936//9 935//9
f 937//9 935//9 938//9
f 939//9 937//9 938//9
f 940//9 939//9 938//9
f 940//9 938//9 941//9
f 942//9 940//9 941//9
f 943//9 942//9 941//9
f 944//9 943//9 941//9
f 944//9 941//9 945//9
f 946//9 944//9 945//9
f 947//9 946//9 945//9
f 947//9 945//9 948//9
f 949//9 947//9 948//9
f 950//9 949//9 948//9
f 951//9 950//9 948//9
f 951//9 948//9 952//9
f 953//9 951//9 952//9
f 954//9 953//9 952//9
f 955//9 954//9 952//9
f 955//9 952//9 956//9
f 957//9 955//9 956//9
f 958//9 957//9 956//9
f 959//9 958//9 956//9
f 959//9 956//9 960//9
f 961//9 959//9 960//9
f 962//9 961//9 960//9
f 963//9 962//9 960//9
f 963//9 960//9 964//9
f 965//9 963//9 964//9
f 966//9 965//9 964//9
f 967//9 966//9 964//9
f 968//9 967//9 964//9
f 969//9 968//9 964//9
f 969//9 964//9 970//9
f 971//9 969//9 970//9
f 972//9 971//9 970//9
f 973//9 972//9 970//9
f 974//9 973//9 970//9
f 975//9 974//9 970//9
f 976//10 975//10 970//10
f 977//9 976//9 970//9
f 978//9 977//9 970//9
f 979//9 978//9 970//9
f 980//9 979//9 970//9
f 981//10 980//10 970//10
f 982//18 981//18 970//18
f 817//9 862//9 982//9
f 817//9 982//9 983//9
f 983//9 982//9 970//9
f 983//9 970//9 984//9
f 983//9 984//9 985//9
f 983//9 985//9 986//9
f 983//9 986//9 987//9
f 983//9 987//9 988//9
f 983//9 988//9 989//9
f 983//9 989//9 990//9
f 983//9 990//9 991//9
f 983//9 991//9 992//9
f 983//9 992//9 993//9
f 983//9 993//9 994//9
f 983//9 994//9 995//9
f 983//9 995//9 996//9
f 983//9 996//9 997//9
f 983//9 997//9 998//9
f 983//9 998//9 999//9
f 983//9 999//9 1000//9
f 983//9 1000//9 1001//9
f 983//9 1001//9 1002//9
f 983//9 1002//9 1003//9
f 983//9 1003//9 1004//9
f 983//9 1004//9 1005//9
f 983//9 1005//9 1006//9
f 983//9 1006//9 1007//9
f 983//9 1007//9 1008//9
f 983//9 1008//9 1009//9
f 983//9 1009//9 1010//9
f 983//9 1010//9 1011//9
f 983//9 1011//9 1012//9
f 983//9 1012//9 1013//9
f 983//9 1013//9 1014//9
f 983//11 1014//11 1015//11
f 817//9 983//9 1016//9
f 4//20 6//20 513//20
f 4//20 513//20 512//20
f 2//21 4//21 512//21
f 2//21 512//21 511//21
f 106//22 110//22 618//22
f 106//22 618//22 614//22
f 253//23 252//23 760//23
f 253//23 760//23 761//23
f 238//24 237//24 746//24
f 238//24 746//24 745//24
f 434//25 432//25 940//25
f 434//25 940//25 942//25
f 120//26 121//26 629//26
f 120//26 629//26 628//26
f 245//27 244//27 752//27
f 245//27 752//27 753//27
f 144//28 148//28 656//28
f 144//28 656//28 652//28
f 214//29 206//29 714//29
f 214//29 714//29 722//29
f 377//30 375//30 883//30
f 377//30 883//30 885//30
f 165//31 167//31 675//31
f 165//31 675//31 673//31
f 154//32 153//32 661//32
f 154//32 661//32 662//32
f 223//33 224//33 732//33
f 223//33 732//33 731//33
f 140//34 138//34 646//34
f 140//34 646//34 648//34
f 232//35 233//35 741//35
f 232//35 741//35 740//35
f 122//36 124//36 631//36
f 122//37 631//37 630//37
f 508//22 309//22 817//22
f 508//22 817//22 1016//22
f 180//38 181//38 689//38
f 180//38 689//38 688//38
f 448//39 452//39 960//39
f 448//39 960//39 956//39
f 191//40 192//40 700//40
f 191//40 700//40 699//40
f 480//41 481//41 989//41
f 480//41 989//41 988//41
f 200//42 197//42 705//42
f 200//42 705//42 708//42
f 444//43 448//43 956//43
f 444//43 956//43 952//43
f 202//44 203//44 711//44
f 202//45 711//45 710//45
f 488//46 489//46 997//46
f 488//46 997//46 996//46
f 169//47 168//47 676//47
f 169//47 676//47 677//47
f 113//48 109//48 617//48
f 113//48 617//48 621//48
f 87//49 79//49 587//49
f 87//49 587//49 595//49
f 320//50 321//50 829//50
f 320//50 829//50 828//50
f 31//51 29//51 537//51
f 31//51 537//51 539//51
f 328//52 329//52 837//52
f 328//52 837//52 836//52
f 15//53 13//53 521//53
f 15//53 521//53 523//53
f 336//54 337//54 845//54
f 336//54 845//54 844//54
f 18//55 20//55 528//55
f 18//55 528//55 526//55
f 344//56 345//56 853//56
f 344//56 853//56 852//56
f 34//57 35//57 543//57
f 34//57 543//57 542//57
f 376//58 382//58 890//58
f 376//58 890//58 884//58
f 90//59 97//59 605//59
f 90//59 605//59 598//59
f 410//60 409//60 917//60
f 410//60 917//60 918//60
f 104//61 106//61 614//61
f 104//61 614//61 612//61
f 89//62 86//62 594//62
f 89//62 594//62 597//62
f 399//63 397//63 905//63
f 399//63 905//63 907//63
f 67//64 65//64 573//64
f 67//64 573//64 575//64
f 388//65 386//65 894//65
f 388//65 894//65 896//65
f 49//66 47//66 555//66
f 49//66 555//66 557//66
f 342//67 343//67 851//67
f 342//67 851//67 850//67
f 48//68 50//68 558//68
f 48//68 558//68 556//68
f 369//69 368//69 876//69
f 369//69 876//69 877//69
f 66//70 69//70 577//70
f 66//70 577//70 574//70
f 360//71 359//71 867//71
f 360//71 867//71 868//71
f 341//72 342//72 850//72
f 341//72 850//72 849//72
f 305//73 304//73 812//73
f 305//73 812//73 813//73
f 469//74 468//74 976//74
f 469//74 976//74 977//74
f 297//75 296//75 804//75
f 297//75 804//75 805//75
f 460//76 459//76 967//76
f 460//76 967//76 968//76
f 289//77 288//77 796//77
f 289//77 796//77 797//77
f 281//78 280//78 788//78
f 281//78 788//78 789//78
f 439//79 438//79 946//79
f 439//79 946//79 947//79
f 273//80 272//80 780//80
f 273//80 780//80 781//80
f 428//81 426//81 934//81
f 428//81 934//81 936//81
f 265//82 264//82 772//82
f 265//82 772//82 773//82
f 415//83 414//83 922//83
f 415//83 922//83 923//83
f 412//84 410//84 918//84
f 412//84 918//84 920//84
f 504//85 505//85 1013//85
f 504//85 1013//85 1012//85
f 378//86 377//86 885//86
f 378//86 885//86 886//86
f 236//87 238//87 745//87
f 236//87 745//87 744//87
f 6//24 5//24 514//24
f 6//24 514//24 513//24
f 254//88 253//88 761//88
f 254//88 761//88 762//88
f 110//89 111//89 619//89
f 110//89 619//89 618//89
f 246//90 245//90 753//90
f 246//90 753//90 754//90
f 121//91 126//91 634//91
f 121//91 634//91 629//91
f 221//92 214//92 722//92
f 221//92 722//92 729//92
f 148//93 150//93 658//93
f 148//93 658//93 656//93
f 136//94 128//94 636//94
f 136//94 636//94 644//94
f 212//95 213//95 721//95
f 212//96 721//96 720//96
f 167//97 166//97 674//97
f 167//97 674//97 675//97
f 153//98 151//98 659//98
f 153//98 659//98 661//98
f 231//99 232//99 740//99
f 231//99 740//99 739//99
f 138//100 135//100 643//100
f 138//101 643//101 646//101
f 419//102 421//102 929//102
f 419//102 929//102 927//102
f 124//24 123//24 632//24
f 124//24 632//24 631//24
f 181//103 183//103 691//103
f 181//103 691//103 689//103
f 192//104 194//104 702//104
f 192//104 702//104 700//104
f 487//105 488//105 996//105
f 487//105 996//105 995//105
f 203//106 205//106 713//106
f 203//106 713//106 711//106
f 426//107 425//107 933//107
f 426//107 933//107 934//107
f 109//108 108//108 616//108
f 109//108 616//108 617//108
f 75//109 73//109 581//109
f 75//109 581//109 583//109
f 319//110 320//110 828//110
f 319//110 828//110 827//110
f 79//111 71//111 579//111
f 79//111 579//111 587//111
f 327//112 328//112 836//112
f 327//112 836//112 835//112
f 29//113 27//113 535//113
f 29//113 535//113 537//113
f 13//114 9//114 517//114
f 13//114 517//114 521//114
f 495//115 496//115 1004//115
f 495//115 1004//115 1003//115
f 20//116 22//116 530//116
f 20//116 530//116 528//116
f 366//117 376//117 884//117
f 366//117 884//117 874//117
f 35//118 37//118 545//118
f 35//118 545//118 543//118
f 97//119 102//119 610//119
f 97//119 610//119 605//119
f 400//120 399//120 907//120
f 400//121 907//121 908//121
f 86//122 83//122 591//122
f 86//122 591//122 594//122
f 474//123 473//123 981//123
f 474//123 981//123 982//123
f 389//124 388//124 896//124
f 389//124 896//124 897//124
f 65//125 63//125 571//125
f 65//125 571//125 573//125
f 213//126 215//126 723//126
f 213//126 723//126 721//126
f 379//127 378//127 886//127
f 379//127 886//127 887//127
f 47//128 45//128 553//128
f 47//128 553//128 555//128
f 50//129 52//129 560//129
f 50//129 560//129 558//129
f 442//130 441//130 949//130
f 442//130 949//130 950//130
f 361//131 360//131 868//131
f 361//131 868//131 869//131
f 69//132 72//132 580//132
f 69//132 580//132 577//132
f 91//133 94//133 602//133
f 91//133 602//133 599//133
f 470//134 469//134 977//134
f 470//134 977//134 978//134
f 304//135 303//135 811//135
f 304//135 811//135 812//135
f 461//136 460//136 968//136
f 461//136 968//136 969//136
f 296//137 295//137 803//137
f 296//137 803//137 804//137
f 451//138 450//138 958//138
f 451//138 958//138 959//138
f 288//139 287//139 795//139
f 288//139 795//139 796//139
f 16//140 18//140 526//140
f 16//140 526//140 524//140
f 441//141 439//141 947//141
f 441//141 947//141 949//141
f 280//142 279//142 787//142
f 280//142 787//142 788//142
f 492//143 493//143 1001//143
f 492//143 1001//143 1000//143
f 429//144 428//144 936//144
f 429//144 936//144 937//144
f 272//145 271//145 779//145
f 272//145 779//145 780//145
f 168//146 156//146 664//146
f 168//146 664//146 676//146
f 417//147 415//147 923//147
f 417//147 923//147 925//147
f 264//148 263//148 771//148
f 264//148 771//148 772//148
f 424//149 427//149 935//149
f 424//149 935//149 932//149
f 5//150 7//150 515//150
f 5//150 515//150 514//150
f 239//151 258//151 766//151
f 239//151 766//151 747//151
f 111//152 112//152 620//152
f 111//152 620//152 619//152
f 251//153 250//153 758//153
f 251//153 758//153 759//153
f 503//154 504//154 1012//154
f 503//154 1012//154 1011//154
f 126//155 130//155 638//155
f 126//155 638//155 634//155
f 243//156 242//156 750//156
f 243//156 750//156 751//156
f 150//157 152//157 660//157
f 150//157 660//157 658//157
f 208//158 207//158 716//158
f 208//159 716//159 715//159
f 166//160 164//160 672//160
f 166//160 672//160 674//160
f 216//161 217//161 725//161
f 216//162 725//162 724//162
f 151//163 149//163 657//163
f 151//163 657//163 659//163
f 225//164 226//164 734//164
f 225//164 734//164 733//164
f 135//165 134//165 642//165
f 135//165 642//165 643//165
f 88//166 91//166 599//166
f 88//166 599//166 596//166
f 230//167 231//167 739//167
f 230//167 739//167 738//167
f 374//168 373//168 881//168
f 374//168 881//168 882//168
f 350//22 310//22 819//22
f 350//22 819//22 858//22
f 123//61 125//61 633//61
f 123//61 633//61 632//61
f 427//169 430//169 938//169
f 427//169 938//169 935//169
f 183//170 184//170 692//170
f 183//170 692//170 691//170
f 456//171 462//171 970//171
f 456//171 970//171 964//171
f 194//172 195//172 703//172
f 194//172 703//172 702//172
f 482//173 483//173 991//173
f 482//173 991//173 990//173
f 32//174 34//174 542//174
f 32//174 542//174 540//174
f 205//175 204//175 712//175
f 205//175 712//175 713//175
f 490//176 491//176 999//176
f 490//176 999//176 998//176
f 179//177 175//177 683//177
f 179//177 683//177 687//177
f 498//178 499//178 1007//178
f 498//178 1007//178 1006//178
f 506//179 507//179 1015//179
f 506//179 1015//179 1014//179
f 338//180 339//180 847//180
f 338//180 847//180 846//180
f 108//181 107//181 615//181
f 108//181 615//181 616//181
f 314//182 315//182 823//182
f 314//182 823//182 822//182
f 71//183 61//183 569//183
f 71//183 569//183 579//183
f 322//184 323//184 831//184
f 322//184 831//184 830//184
f 27//185 25//185 533//185
f 27//185 533//185 535//185
f 330//186 331//186 839//186
f 330//186 839//186 838//186
f 9//187 11//187 518//187
f 9//187 518//187 517//187
f 22//188 24//188 532//188
f 22//188 532//188 530//188
f 418//189 417//189 925//189
f 418//189 925//189 926//189
f 37//190 41//190 549//190
f 37//190 549//190 545//190
f 387//191 391//191 899//191
f 387//191 899//191 895//191
f 102//192 104//192 612//192
f 102//192 612//192 610//192
f 407//193 406//193 914//193
f 407//193 914//193 915//193
f 309//87 311//87 818//87
f 309//87 818//87 817//87
f 83//194 81//194 589//194
f 83//194 589//194 591//194
f 396//195 395//195 903//195
f 396//195 903//195 904//195
f 63//196 60//196 568//196
f 63//196 568//196 571//196
f 385//197 384//197 892//197
f 385//197 892//197 893//197
f 52//198 54//198 562//198
f 52//198 562//198 560//198
f 367//199 365//199 873//199
f 367//199 873//199 875//199
f 94//200 96//200 604//200
f 94//200 604//200 602//200
f 354//24 474//24 982//24
f 354//24 982//24 862//24
f 303//201 302//201 810//201
f 303//201 810//201 811//201
f 467//202 466//202 974//202
f 467//202 974//202 975//202
f 295//203 294//203 802//203
f 295//203 802//203 803//203
f 287//204 286//204 794//204
f 287//204 794//204 795//204
f 421//205 424//205 932//205
f 421//205 932//205 929//205
f 279//206 278//206 786//206
f 279//206 786//206 787//206
f 436//207 435//207 943//207
f 436//207 943//207 944//207
f 271//208 270//208 778//208
f 271//208 778//208 779//208
f 425//209 423//209 931//209
f 425//209 931//209 933//209
f 438//210 436//210 944//210
f 438//210 944//210 946//210
f 263//211 262//211 770//211
f 263//211 770//211 771//211
f 349//212 353//212 861//212
f 349//212 861//212 857//212
f 237//61 239//61 747//61
f 237//61 747//61 746//61
f 7//22 8//22 516//22
f 7//22 516//22 515//22
f 252//213 251//213 759//213
f 252//213 759//213 760//213
f 112//214 114//214 622//214
f 112//214 622//214 620//214
f 244//215 243//215 751//215
f 244//215 751//215 752//215
f 130//216 133//216 641//216
f 130//216 641//216 638//216
f 45//217 40//217 548//217
f 45//217 548//217 553//217
f 471//218 470//218 978//218
f 471//218 978//218 979//218
f 375//219 374//219 882//219
f 375//219 882//219 883//219
f 206//220 208//220 715//220
f 206//220 715//220 714//220
f 152//221 155//221 663//221
f 152//221 663//221 660//221
f 92//222 89//222 597//222
f 92//222 597//222 600//222
f 215//223 216//223 724//223
f 215//223 724//223 723//223
f 164//224 162//224 670//224
f 164//224 670//224 672//224
f 224//225 225//225 733//225
f 224//225 733//225 732//225
f 149//226 147//226 655//226
f 149//226 655//226 657//226
f 233//227 234//227 742//227
f 233//227 742//227 741//227
f 134//228 132//228 640//228
f 134//228 640//228 642//228
f 119//229 116//229 624//229
f 119//229 624//229 627//229
f 125//230 174//230 682//230
f 125//230 682//230 633//230
f 452//231 456//231 964//231
f 452//231 964//231 960//231
f 184//232 185//232 693//232
f 184//232 693//232 692//232
f 481//233 482//233 990//233
f 481//233 990//233 989//233
f 195//234 196//234 704//234
f 195//234 704//234 703//234
f 489//235 490//235 998//235
f 489//235 998//235 997//235
f 204//236 200//236 708//236
f 204//236 708//236 712//236
f 497//237 498//237 1006//237
f 497//237 1006//237 1005//237
f 145//238 136//238 644//238
f 145//238 644//238 653//238
f 313//239 314//239 822//239
f 313//239 822//239 821//239
f 107//240 105//240 613//240
f 107//240 613//240 615//240
f 450//241 449//241 957//241
f 450//241 957//241 958//241
f 321//242 322//242 830//242
f 321//242 830//242 829//242
f 61//243 42//243 550//243
f 61//243 550//243 569//243
f 329//244 330//244 838//244
f 329//244 838//244 837//244
f 25//245 23//245 531//245
f 25//245 531//245 533//245
f 496//246 497//246 1005//246
f 496//246 1005//246 1004//246
f 11//247 10//247 519//247
f 11//247 519//247 518//247
f 335//248 336//248 844//248
f 335//248 844//248 843//248
f 382//249 387//249 895//249
f 382//249 895//249 890//249
f 41//250 57//250 565//250
f 41//250 565//250 549//250
f 479//251 480//251 988//251
f 479//251 988//251 987//251
f 409//252 407//252 915//252
f 409//252 915//252 917//252
f 397//253 396//253 904//253
f 397//253 904//253 905//253
f 81//254 78//254 586//254
f 81//254 586//254 589//254
f 175//255 173//255 681//255
f 175//255 681//255 683//255
f 60//256 58//256 566//256
f 60//256 566//256 568//256
f 40//257 39//257 547//257
f 40//257 547//257 548//257
f 368//258 367//258 875//258
f 368//258 875//258 876//258
f 54//259 56//259 564//259
f 54//259 564//259 562//259
f 359//260 358//260 866//260
f 359//260 866//260 867//260
f 74//261 77//261 585//261
f 74//261 585//261 582//261
f 310//61 354//61 862//61
f 310//61 862//61 819//61
f 96//262 100//262 608//262
f 96//262 608//262 604//262
f 468//263 467//263 975//263
f 468//263 975//263 976//263
f 302//264 301//264 809//264
f 302//264 809//264 810//264
f 459//265 458//265 966//265
f 459//265 966//265 967//265
f 294//266 293//266 801//266
f 294//266 801//266 802//266
f 300//267 299//267 807//267
f 300//267 807//267 808//267
f 449//268 447//268 955//268
f 449//268 955//268 957//268
f 286//269 285//269 793//269
f 286//269 793//269 794//269
f 72//270 74//270 582//270
f 72//270 582//270 580//270
f 358//271 357//271 865//271
f 358//271 865//271 866//271
f 278//272 277//272 785//272
f 278//272 785//272 786//272
f 312//273 313//273 821//273
f 312//273 821//273 820//273
f 270//274 269//274 777//274
f 270//274 777//274 778//274
f 343//275 344//275 852//275
f 343//276 852//276 851//276
f 414//277 412//277 920//277
f 414//277 920//277 922//277
f 262//278 261//278 769//278
f 262//278 769//278 770//278
f 8//279 1//279 509//279
f 8//279 509//279 516//279
f 114//280 115//280 623//280
f 114//280 623//280 622//280
f 193//281 189//281 697//281
f 193//281 697//281 701//281
f 133//282 137//282 645//282
f 133//282 645//282 641//282
f 155//283 158//283 666//283
f 155//283 666//283 663//283
f 209//284 210//284 718//284
f 209//284 718//284 717//284
f 162//285 161//285 669//285
f 162//285 669//285 670//285
f 218//286 219//286 727//286
f 218//286 727//286 726//286
f 235//287 228//287 736//287
f 235//287 736//287 743//287
f 147//288 146//288 654//288
f 147//288 654//288 655//288
f 227//289 229//289 737//289
f 227//289 737//289 735//289
f 234//61 240//61 748//61
f 234//61 748//61 742//61
f 132//290 131//290 639//290
f 132//290 639//290 640//290
f 411//291 413//291 921//291
f 411//291 921//291 919//291
f 174//292 176//292 684//292
f 174//292 684//292 682//292
f 433//293 437//293 945//293
f 433//293 945//293 941//293
f 257//294 256//294 764//294
f 257//294 764//294 765//294
f 185//295 187//295 695//295
f 185//295 695//295 693//295
f 476//296 477//296 985//296
f 476//296 985//296 984//296
f 196//297 198//297 706//297
f 196//297 706//297 704//297
f 484//298 485//298 993//298
f 484//298 993//298 992//298
f 372//299 371//299 879//299
f 372//299 879//299 880//299
f 173//300 172//300 680//300
f 173//300 680//300 681//300
f 500//301 501//301 1009//301
f 500//301 1009//301 1008//301
f 466//302 465//302 973//302
f 466//302 973//302 974//302
f 475//61 508//61 1016//61
f 475//61 1016//61 983//61
f 105//303 103//303 611//303
f 105//303 611//303 613//303
f 316//304 317//304 825//304
f 316//304 825//304 824//304
f 42//305 38//305 546//305
f 42//305 546//305 550//305
f 324//306 325//306 833//306
f 324//306 833//306 832//306
f 311//24 312//24 820//24
f 311//24 820//24 818//24
f 23//307 21//307 529//307
f 23//307 529//307 531//307
f 332//308 333//308 841//308
f 332//308 841//308 840//308
f 186//309 182//309 690//309
f 186//309 690//309 694//309
f 10//310 12//310 520//310
f 10//310 520//310 519//310
f 340//311 341//311 849//311
f 340//311 849//311 848//311
f 26//312 28//312 536//312
f 26//312 536//312 534//312
f 348//313 349//313 857//313
f 348//313 857//313 856//313
f 505//314 506//314 1014//314
f 505//314 1014//314 1013//314
f 57//315 68//315 576//315
f 57//315 576//315 565//315
f 394//316 398//316 906//316
f 394//316 906//316 902//316
f 101//317 98//317 606//317
f 101//317 606//317 609//317
f 405//318 403//318 911//318
f 405//318 911//318 913//318
f 78//319 75//319 583//319
f 78//319 583//319 586//319
f 393//320 392//320 900//320
f 393//320 900//320 901//320
f 249//321 248//321 756//321
f 249//321 756//321 757//321
f 383//322 381//322 889//322
f 383//323 889//323 891//323
f 364//324 363//324 871//324
f 364//324 871//324 872//324
f 77//325 80//325 588//325
f 77//325 588//325 585//325
f 356//326 355//326 863//326
f 356//326 863//326 864//326
f 58//327 55//327 563//327
f 58//327 563//327 566//327
f 100//24 101//24 609//24
f 100//24 609//24 608//24
f 473//328 472//328 980//328
f 473//328 980//328 981//328
f 301//329 300//329 808//329
f 301//329 808//329 809//329
f 465//330 464//330 972//330
f 465//330 972//330 973//330
f 293//331 292//331 800//331
f 293//331 800//331 801//331
f 285//332 284//332 792//332
f 285//332 792//332 793//332
f 445//333 443//333 951//333
f 445//333 951//333 953//333
f 277//334 276//334 784//334
f 277//334 784//334 785//334
f 269//335 268//335 776//335
f 269//335 776//335 777//335
f 422//336 420//336 928//336
f 422//336 928//336 930//336
f 261//337 260//337 768//337
f 261//337 768//337 769//337
f 258//338 257//338 765//338
f 258//338 765//338 766//338
f 1//339 3//339 510//339
f 1//339 510//339 509//339
f 250//340 249//340 757//340
f 250//340 757//340 758//340
f 115//341 117//341 625//341
f 115//341 625//341 623//341
f 241//342 235//342 743//342
f 241//342 743//342 749//342
f 242//343 241//343 749//343
f 242//343 749//343 750//343
f 137//344 139//344 647//344
f 137//344 647//344 645//344
f 207//345 209//345 717//345
f 207//345 717//345 716//345
f 158//346 160//346 668//346
f 158//346 668//346 666//346
f 355//347 352//347 860//347
f 355//347 860//347 863//347
f 458//348 457//348 965//348
f 458//348 965//348 966//348
f 217//349 218//349 726//349
f 217//349 726//349 725//349
f 161//350 159//350 667//350
f 161//350 667//350 669//350
f 226//351 227//351 735//351
f 226//351 735//351 734//351
f 146//352 143//352 651//352
f 146//353 651//353 654//353
f 39//354 43//354 551//354
f 39//354 551//354 547//354
f 373//355 372//355 880//355
f 373//356 880//356 881//356
f 408//357 411//357 919//357
f 408//357 919//357 916//357
f 131//358 129//358 637//358
f 131//358 637//358 639//358
f 430//359 433//359 941//359
f 430//359 941//359 938//359
f 176//360 177//360 685//360
f 176//360 685//360 684//360
f 462//361 476//361 984//361
f 462//361 984//361 970//361
f 187//362 188//362 696//362
f 187//362 696//362 695//362
f 483//363 484//363 992//363
f 483//363 992//363 991//363
f 198//364 199//364 707//364
f 198//364 707//364 706//364
f 491//365 492//365 1000//365
f 491//365 1000//365 999//365
f 197//366 193//366 701//366
f 197//366 701//366 705//366
f 499//367 500//367 1008//367
f 499//367 1008//367 1007//367
f 172//368 171//368 679//368
f 172//368 679//368 680//368
f 128//369 119//369 627//369
f 128//369 627//369 636//369
f 315//370 316//370 824//370
f 315//370 824//370 823//370
f 103//371 99//371 607//371
f 103//371 607//371 611//371
f 323//372 324//372 832//372
f 323//372 832//372 831//372
f 38//373 36//373 544//373
f 38//373 544//373 546//373
f 331//374 332//374 840//374
f 331//374 840//374 839//374
f 21//375 19//375 527//375
f 21//375 527//375 529//375
f 339//376 340//376 848//376
f 339//376 848//376 847//376
f 12//377 14//377 522//377
f 12//377 522//377 520//377
f 447//378 446//378 954//378
f 447//378 954//378 955//378
f 347//379 348//379 856//379
f 347//379 856//379 855//379
f 28//380 30//380 538//380
f 28//380 538//380 536//380
f 306//381 305//381 813//381
f 306//381 813//381 814//381
f 391//382 394//382 902//382
f 391//382 902//382 899//382
f 68//383 76//383 584//383
f 68//383 584//383 576//383
f 56//384 59//384 567//384
f 56//384 567//384 564//384
f 404//385 408//385 916//385
f 404//385 916//385 912//385
f 406//386 405//386 913//386
f 406//386 913//386 914//386
f 98//387 95//387 603//387
f 98//387 603//387 606//387
f 337//388 338//388 846//388
f 337//388 846//388 845//388
f 384//389 383//389 891//389
f 384//389 891//389 892//389
f 55//390 53//390 561//390
f 55//390 561//390 563//390
f 43//391 44//391 552//391
f 43//391 552//391 551//391
f 346//392 347//392 855//392
f 346//392 855//392 854//392
f 365//393 364//393 872//393
f 365//393 872//393 873//393
f 59//394 62//394 570//394
f 59//394 570//394 567//394
f 357//395 356//395 864//395
f 357//395 864//395 865//395
f 80//396 82//396 590//396
f 80//396 590//396 588//396
f 240//22 307//22 815//22
f 240//22 815//22 748//22
f 457//397 455//397 963//397
f 457//397 963//397 965//397
f 292//398 291//398 799//398
f 292//398 799//398 800//398
f 446//399 445//399 953//399
f 446//399 953//399 954//399
f 284//400 283//400 791//400
f 284//400 791//400 792//400
f 435//401 434//401 942//401
f 435//401 942//401 943//401
f 276//402 275//402 783//402
f 276//402 783//402 784//402
f 423//403 422//403 930//403
f 423//403 930//403 931//403
f 268//404 267//404 775//404
f 268//404 775//404 776//404
f 298//405 297//405 805//405
f 298//405 805//405 806//405
f 260//406 259//406 767//406
f 260//406 767//406 768//406
f 308//22 236//22 744//22
f 308//22 744//22 816//22
f 3//24 2//24 511//24
f 3//24 511//24 510//24
f 255//407 254//407 762//407
f 255//407 762//407 763//407
f 117//408 118//408 626//408
f 117//408 626//408 625//408
f 247//409 246//409 754//409
f 247//409 754//409 755//409
f 345//410 346//410 854//410
f 345//410 854//410 853//410
f 402//411 400//411 908//411
f 402//411 908//411 910//411
f 139//412 142//412 650//412
f 139//412 650//412 647//412
f 228//53 221//53 729//53
f 228//53 729//53 736//53
f 24//413 26//413 534//413
f 24//413 534//413 532//413
f 160//414 163//414 671//414
f 160//414 671//414 668//414
f 211//415 212//415 720//415
f 211//415 720//415 719//415
f 494//416 495//416 1003//416
f 494//416 1003//416 1002//416
f 507//22 475//22 983//22
f 507//22 983//22 1015//22
f 159//417 157//417 665//417
f 159//417 665//417 667//417
f 220//418 222//418 730//418
f 220//418 730//418 728//418
f 143//419 141//419 649//419
f 143//419 649//419 651//419
f 129//420 127//420 635//420
f 129//420 635//420 637//420
f 416//421 419//421 927//421
f 416//421 927//421 924//421
f 177//422 178//422 686//422
f 177//422 686//422 685//422
f 440//423 444//423 952//423
f 440//423 952//423 948//423
f 188//424 190//424 698//424
f 188//424 698//424 696//424
f 478//425 479//425 987//425
f 478//425 987//425 986//425
f 199//426 201//426 709//426
f 199//426 709//426 707//426
f 486//427 487//427 995//427
f 486//427 995//427 994//427
f 171//428 170//428 678//428
f 171//428 678//428 679//428
f 502//429 503//429 1011//429
f 502//429 1011//429 1010//429
f 370//430 369//430 877//430
f 370//430 877//430 878//430
f 99//431 93//431 601//431
f 99//431 601//431 607//431
f 318//432 319//432 827//432
f 318//433 827//433 826//433
f 36//434 33//434 541//434
f 36//434 541//434 544//434
f 326//435 327//435 835//435
f 326//435 835//435 834//435
f 390//436 389//436 897//436
f 390//436 897//436 898//436
f 19//437 17//437 525//437
f 19//437 525//437 527//437
f 334//438 335//438 843//438
f 334//438 843//438 842//438
f 14//439 16//439 524//439
f 14//439 524//439 522//439
f 30//440 32//440 540//440
f 30//440 540//440 538//440
f 353//441 366//441 874//441
f 353//441 874//441 861//441
f 76//442 84//442 592//442
f 76//442 592//442 584//442
f 401//443 404//443 912//443
f 401//443 912//443 909//443
f 95//444 92//444 600//444
f 95//444 600//444 603//444
f 73//445 70//445 578//445
f 73//445 578//445 581//445
f 53//446 51//446 559//446
f 53//446 559//446 561//446
f 380//447 379//447 887//447
f 380//447 887//447 888//447
f 44//448 46//448 554//448
f 44//448 554//448 552//448
f 371//449 370//449 878//449
f 371//449 878//449 879//449
f 62//450 64//450 572//450
f 62//450 572//450 570//450
f 82//451 85//451 593//451
f 82//451 593//451 590//451
f 352//452 351//452 859//452
f 352//452 859//452 860//452
f 307//453 306//453 814//453
f 307//453 814//453 815//453
f 299//454 298//454 806//454
f 299//454 806//454 807//454
f 463//455 461//455 969//455
f 463//455 969//455 971//455
f 291//456 290//456 798//456
f 291//456 798//456 799//456
f 453//457 451//457 959//457
f 453//457 959//457 961//457
f 283//458 282//458 790//458
f 283//458 790//458 791//458
f 275//459 274//459 782//459
f 275//459 782//459 783//459
f 431//460 429//460 937//460
f 431//460 937//460 939//460
f 267//461 266//461 774//461
f 267//461 774//461 775//461
f 259//61 308//61 816//61
f 259//61 816//61 767//61
f 156//462 145//462 653//462
f 156//462 653//462 664//462
f 256//463 255//463 763//463
f 256//463 763//463 764//463
f 248//464 247//464 755//464
f 248//464 755//464 756//464
f 118//465 120//465 628//465
f 118//465 628//465 626//465
f 222//466 223//466 731//466
f 222//466 731//466 730//466
f 142//467 144//467 652//467
f 142//467 652//467 650//467
f 210//468 211//468 719//468
f 210//468 719//468 718//468
f 163//469 165//469 673//469
f 163//469 673//469 671//469
f 219//470 220//470 728//470
f 219//470 728//470 727//470
f 157//471 154//471 662//471
f 157//471 662//471 665//471
f 229//472 230//472 738//472
f 229//472 738//472 737//472
f 141//473 140//473 648//473
f 141//473 648//473 649//473
f 413//474 416//474 924//474
f 413//474 924//474 921//474
f 127//475 122//475 630//475
f 127//475 630//475 635//475
f 351//476 350//476 858//476
f 351//476 858//476 859//476
f 455//477 454//477 962//477
f 455//477 962//477 963//477
f 437//478 440//478 948//478
f 437//478 948//478 945//478
f 178//479 180//479 688//479
f 178//479 688//479 686//479
f 477//480 478//480 986//480
f 477//480 986//480 985//480
f 190//481 191//481 699//481
f 190//481 699//481 698//481
f 485//482 486//482 994//482
f 485//482 994//482 993//482
f 201//483 202//483 710//483
f 201//483 710//483 709//483
f 189//484 186//484 694//484
f 189//484 694//484 697//484
f 501//485 502//485 1010//485
f 501//485 1010//485 1009//485
f 170//486 169//486 677//486
f 170//486 677//486 678//486
f 116//487 113//487 621//487
f 116//487 621//487 624//487
f 395//488 393//488 901//488
f 395//488 901//488 903//488
f 493//489 494//489 1002//489
f 493//489 1002//489 1001//489
f 317//490 318//490 826//490
f 317//490 826//490 825//490
f 93//491 87//491 595//491
f 93//491 595//491 601//491
f 325//492 326//492 834//492
f 325//492 834//492 833//492
f 33//493 31//493 539//493
f 33//493 539//493 541//493
f 333//494 334//494 842//494
f 333//494 842//494 841//494
f 17//495 15//495 523//495
f 17//495 523//495 525//495
f 398//496 401//496 909//496
f 398//496 909//496 906//496
f 84//497 90//497 598//497
f 84//497 598//497 592//497
f 403//498 402//498 910//498
f 403//498 910//498 911//498
f 392//499 390//499 898//499
f 392//499 898//499 900//499
f 70//500 67//500 575//500
f 70//500 575//500 578//500
f 381//501 380//501 888//501
f 381//501 888//501 889//501
f 51//502 49//502 557//502
f 51//502 557//502 559//502
f 386//503 385//503 893//503
f 386//503 893//503 894//503
f 362//504 361//504 869//504
f 362//504 869//504 870//504
f 46//505 48//505 556//505
f 46//505 556//505 554//505
f 363//506 362//506 870//506
f 363//506 870//506 871//506
f 64//507 66//507 574//507
f 64//507 574//507 572//507
f 85//508 88//508 596//508
f 85//508 596//508 593//508
f 472//509 471//509 979//509
f 472//509 979//509 980//509
f 464//510 463//510 971//510
f 464//510 971//510 972//510
f 182//511 179//511 687//511
f 182//511 687//511 690//511
f 454//512 453//512 961//512
f 454//512 961//512 962//512
f 290//513 289//513 797//513
f 290//513 797//513 798//513
f 443//514 442//514 950//514
f 443//514 950//514 951//514
f 282//515 281//515 789//515
f 282//515 789//515 790//515
f 432//516 431//516 939//516
f 432//516 939//516 940//516
f 274//517 273//517 781//517
f 274//517 781//517 782//517
f 420//518 418//518 926//518
f 420//518 926//518 928//518
f 266//519 265//519 773//519
f 266//519 773//519 774//519
f 1017//87 1018//87 1019//87
f 1017//87 1019//87 1020//87
f 1021//9 1022//9 1023//9
f 1024//9 1023//9 1022//9
f 1024//9 1019//9 1023//9
f 1018//9 1023//9 1019//9
f 1025//1 1026//1 1017//1
f 1027//1 1028//1 1026//1
f 1017//1 1026//1 1029//1
f 1030//1 1020//1 1031//1
f 1029//1 1026//1 1028//1
f 1032//1 1033//1 1027//1
f 1028//1 1027//1 1033//1
f 1033//1 1032//1 1031//1
f 1033//1 1031//1 1034//1
f 1025//1 1017//1 1030//1
f 1017//1 1020//1 1030//1
f 1034//1 1031//1 1020//1
f 1032//520 1035//520 1036//520
f 1032//520 1036//520 1031//520
f 1037//1 1036//1 1038//1
f 1039//1 1038//1 1036//1
f 1035//1 1040//1 1036//1
f 1039//1 1036//1 1040//1
f 1038//61 1025//61 1030//61
f 1038//61 1030//61 1037//61
f 1029//521 1021//521 1023//521
f 1021//521 1029//521 1028//521
f 1029//522 1023//522 1018//522
f 1017//522 1029//522 1018//522
f 1031//523 1036//523 1037//523
f 1031//523 1037//523 1030//523
f 1039//524 1026//524 1025//524
f 1039//524 1025//524 1038//524
f 1034//525 1020//525 1024//525
f 1040//525 1027//525 1026//525
f 1040//525 1026//525 1039//525
f 1020//525 1019//525 1024//525
f 1027//87 1040//87 1035//87
f 1027//87 1035//87 1032//87
f 1034//524 1024//524 1033//524
f 1033//524 1024//524 1022//524
f 1033//61 1022//61 1028//61
f 1021//61 1028//61 1022//61
