# Blender v3.2.0 OBJ File: ''
# www.blender.org
mtllib RockWall.mtl
o Rock_Wall_Template(DoNotScale)_Rock_Wall_Template(DoNotScale).001
v 5.104505 0.100482 0.957095
v 5.104505 -0.100482 0.957095
v 5.104505 -0.100482 -0.957095
v 5.104505 0.100482 -0.957095
v -5.104505 0.100482 -0.957095
v -5.104505 -0.100482 -0.957095
v -5.104505 -0.100482 0.957095
v -5.104505 0.100482 0.957095
vn 1.0000 0.0000 0.0000
vn -1.0000 0.0000 0.0000
vn 0.0000 1.0000 0.0000
vn 0.0000 0.0000 -1.0000
vn 0.0000 -1.0000 0.0000
vn 0.0000 0.0000 1.0000
usemtl None
s off
f 1//1 2//1 3//1
f 1//1 3//1 4//1
f 5//2 6//2 7//2
f 5//2 7//2 8//2
f 4//3 5//3 8//3
f 4//3 8//3 1//3
f 4//4 3//4 6//4
f 4//4 6//4 5//4
f 2//5 7//5 6//5
f 2//5 6//5 3//5
f 8//6 7//6 2//6
f 8//6 2//6 1//6
