# This file uses centimeters as units for non-parametric coordinates.

mtllib tokens.mtl
g default
v 0.000000 0.011137 0.000000
v 0.000000 0.313140 0.000000
v 0.478705 0.026235 -0.155541
v 0.476757 0.018686 -0.154908
v 0.471435 0.013159 -0.153179
v 0.464166 0.011137 -0.150817
v 0.407211 0.026235 -0.295856
v 0.405554 0.018686 -0.294652
v 0.401027 0.013159 -0.291363
v 0.394843 0.011137 -0.286870
v 0.295856 0.026235 -0.407211
v 0.294652 0.018686 -0.405554
v 0.291363 0.013159 -0.401027
v 0.286870 0.011137 -0.394843
v 0.155541 0.026235 -0.478705
v 0.154908 0.018686 -0.476757
v 0.153179 0.013159 -0.471435
v 0.150817 0.011137 -0.464166
v 0.000000 0.026235 -0.503340
v 0.000000 0.018686 -0.501292
v 0.000000 0.013159 -0.495696
v 0.000000 0.011137 -0.488053
v -0.155541 0.026235 -0.478705
v -0.154908 0.018686 -0.476757
v -0.153179 0.013159 -0.471435
v -0.150817 0.011137 -0.464166
v -0.295856 0.026235 -0.407210
v -0.294652 0.018686 -0.405554
v -0.291363 0.013159 -0.401027
v -0.286870 0.011137 -0.394843
v -0.407210 0.026235 -0.295856
v -0.405554 0.018686 -0.294652
v -0.401027 0.013159 -0.291363
v -0.394843 0.011137 -0.286870
v -0.478705 0.026235 -0.155541
v -0.476757 0.018686 -0.154908
v -0.471435 0.013159 -0.153179
v -0.464166 0.011137 -0.150817
v -0.503340 0.026235 0.000000
v -0.501292 0.018686 0.000000
v -0.495696 0.013159 0.000000
v -0.488053 0.011137 0.000000
v -0.478705 0.026235 0.155541
v -0.476757 0.018686 0.154908
v -0.471435 0.013159 0.153179
v -0.464166 0.011137 0.150817
v -0.407210 0.026235 0.295856
v -0.405554 0.018686 0.294652
v -0.401027 0.013159 0.291363
v -0.394843 0.011137 0.286870
v -0.295856 0.026235 0.407210
v -0.294652 0.018686 0.405554
v -0.291363 0.013159 0.401027
v -0.286870 0.011137 0.394843
v -0.155541 0.026235 0.478705
v -0.154908 0.018686 0.476757
v -0.153179 0.013159 0.471435
v -0.150817 0.011137 0.464166
v -0.000000 0.026235 0.503340
v -0.000000 0.018686 0.501292
v -0.000000 0.013159 0.495696
v -0.000000 0.011137 0.488053
v 0.155541 0.026235 0.478705
v 0.154908 0.018686 0.476757
v 0.153179 0.013159 0.471435
v 0.150817 0.011137 0.464166
v 0.295856 0.026235 0.407210
v 0.294652 0.018686 0.405554
v 0.291363 0.013159 0.401027
v 0.286870 0.011137 0.394843
v 0.407210 0.026235 0.295856
v 0.405553 0.018686 0.294652
v 0.401027 0.013159 0.291363
v 0.394843 0.011137 0.286870
v 0.478705 0.026235 0.155541
v 0.476757 0.018686 0.154908
v 0.471435 0.013159 0.153179
v 0.464166 0.011137 0.150817
v 0.503340 0.026235 0.000000
v 0.501292 0.018686 -0.000000
v 0.495696 0.013159 -0.000000
v 0.488053 0.011137 -0.000000
v 0.478705 0.298042 -0.155541
v 0.476757 0.305591 -0.154908
v 0.471435 0.311118 -0.153179
v 0.464166 0.313140 -0.150817
v 0.407211 0.298042 -0.295856
v 0.405554 0.305591 -0.294652
v 0.401027 0.311118 -0.291363
v 0.394843 0.313140 -0.286870
v 0.295856 0.298042 -0.407211
v 0.294652 0.305591 -0.405554
v 0.291363 0.311118 -0.401027
v 0.286870 0.313140 -0.394843
v 0.155541 0.298042 -0.478705
v 0.154908 0.305591 -0.476757
v 0.153179 0.311118 -0.471435
v 0.150817 0.313140 -0.464166
v 0.000000 0.298042 -0.503340
v 0.000000 0.305591 -0.501292
v 0.000000 0.311118 -0.495696
v 0.000000 0.313140 -0.488053
v -0.155541 0.298042 -0.478705
v -0.154908 0.305591 -0.476757
v -0.153179 0.311118 -0.471435
v -0.150817 0.313140 -0.464166
v -0.295856 0.298042 -0.407210
v -0.294652 0.305591 -0.405554
v -0.291363 0.311118 -0.401027
v -0.286870 0.313140 -0.394843
v -0.407210 0.298042 -0.295856
v -0.405554 0.305591 -0.294652
v -0.401027 0.311118 -0.291363
v -0.394843 0.313140 -0.286870
v -0.478705 0.298042 -0.155541
v -0.476757 0.305591 -0.154908
v -0.471435 0.311118 -0.153179
v -0.464166 0.313140 -0.150817
v -0.503340 0.298042 0.000000
v -0.501292 0.305591 0.000000
v -0.495696 0.311118 0.000000
v -0.488053 0.313140 0.000000
v -0.478705 0.298042 0.155541
v -0.476757 0.305591 0.154908
v -0.471435 0.311118 0.153179
v -0.464166 0.313140 0.150817
v -0.407210 0.298042 0.295856
v -0.405554 0.305591 0.294652
v -0.401027 0.311118 0.291363
v -0.394843 0.313140 0.286870
v -0.295856 0.298042 0.407210
v -0.294652 0.305591 0.405554
v -0.291363 0.311118 0.401027
v -0.286870 0.313140 0.394843
v -0.155541 0.298042 0.478705
v -0.154908 0.305591 0.476757
v -0.153179 0.311118 0.471435
v -0.150817 0.313140 0.464166
v -0.000000 0.298042 0.503340
v -0.000000 0.305591 0.501292
v -0.000000 0.311118 0.495696
v -0.000000 0.313140 0.488053
v 0.155541 0.298042 0.478705
v 0.154908 0.305591 0.476757
v 0.153179 0.311118 0.471435
v 0.150817 0.313140 0.464166
v 0.295856 0.298042 0.407210
v 0.294652 0.305591 0.405554
v 0.291363 0.311118 0.401027
v 0.286870 0.313140 0.394843
v 0.407210 0.298042 0.295856
v 0.405553 0.305591 0.294652
v 0.401027 0.311118 0.291363
v 0.394843 0.313140 0.286870
v 0.478705 0.298042 0.155541
v 0.476757 0.305591 0.154908
v 0.471435 0.311118 0.153179
v 0.464166 0.313140 0.150817
v 0.503340 0.298042 0.000000
v 0.501292 0.305591 -0.000000
v 0.495696 0.311118 -0.000000
v 0.488053 0.313140 -0.000000
vt 0.327550 0.573718
vt 0.327550 0.510375
vt 0.450252 0.510375
vt 0.450252 0.573718
vt 0.327550 0.460106
vt 0.450252 0.460107
vt 0.166308 0.460106
vt 0.166308 0.523449
vt 0.043606 0.523449
vt 0.043606 0.460106
vt 0.166308 0.593665
vt 0.043606 0.593665
vt 0.166308 0.663881
vt 0.043606 0.663881
vt 0.166308 0.727223
vt 0.043606 0.727223
vt 0.185578 0.827761
vt 0.185578 0.777492
vt 0.308280 0.777492
vt 0.308280 0.827761
vt 0.185578 0.714150
vt 0.308280 0.714150
vt 0.185578 0.643934
vt 0.308280 0.643934
vt 0.185578 0.573718
vt 0.308280 0.573718
vt 0.185578 0.510375
vt 0.308280 0.510375
vt 0.185578 0.460106
vt 0.308280 0.460107
vt 0.008647 0.998008
vt 0.008647 0.934666
vt 0.131349 0.934666
vt 0.131349 0.998008
vt 0.008647 0.864450
vt 0.131349 0.864450
vt 0.008647 0.794234
vt 0.131349 0.794234
vt 0.008647 0.730891
vt 0.131349 0.730891
vt 0.327550 0.827761
vt 0.327550 0.777492
vt 0.450252 0.777492
vt 0.450252 0.827761
vt 0.327550 0.714150
vt 0.450252 0.714150
vt 0.327550 0.643934
vt 0.450252 0.643934
vt 0.872116 0.599910
vt 0.903411 0.661329
vt 0.693871 0.729413
vt 0.823374 0.551168
vt 0.761955 0.519874
vt 0.693872 0.509091
vt 0.625788 0.519874
vt 0.564369 0.551168
vt 0.515627 0.599911
vt 0.484333 0.661330
vt 0.473549 0.729413
vt 0.484332 0.797496
vt 0.515627 0.858915
vt 0.564370 0.907657
vt 0.625788 0.938952
vt 0.693871 0.949735
vt 0.761955 0.938951
vt 0.823374 0.907657
vt 0.872116 0.858915
vt 0.903410 0.797496
vt 0.914193 0.729413
vt 0.903129 0.797496
vt 0.871834 0.858915
vt 0.693590 0.729413
vt 0.823092 0.907657
vt 0.761673 0.938951
vt 0.693590 0.949735
vt 0.625506 0.938951
vt 0.564087 0.907657
vt 0.515345 0.858915
vt 0.484051 0.797496
vt 0.473267 0.729413
vt 0.484050 0.661329
vt 0.515345 0.599911
vt 0.564088 0.551169
vt 0.625506 0.519874
vt 0.693589 0.509090
vt 0.761673 0.519874
vt 0.823092 0.551168
vt 0.871834 0.599910
vt 0.903128 0.661329
vt 0.913911 0.729413
vt 0.909974 0.659197
vt 0.877699 0.595854
vt 0.324155 0.573721
vt 0.324155 0.510380
vt 0.320734 0.573718
vt 0.320734 0.510375
vt 0.827430 0.545585
vt 0.324151 0.460106
vt 0.320734 0.460106
vt 0.764087 0.513311
vt 0.169707 0.460106
vt 0.169703 0.523452
vt 0.173124 0.460106
vt 0.173124 0.523449
vt 0.693871 0.502190
vt 0.169703 0.593665
vt 0.173124 0.593665
vt 0.623656 0.513311
vt 0.169703 0.663878
vt 0.173124 0.663881
vt 0.560313 0.545585
vt 0.169707 0.727223
vt 0.173124 0.727223
vt 0.510044 0.595854
vt 0.182179 0.827761
vt 0.182183 0.777487
vt 0.178762 0.827761
vt 0.178762 0.777492
vt 0.477769 0.659197
vt 0.182183 0.714147
vt 0.178762 0.714150
vt 0.466648 0.729413
vt 0.182183 0.643934
vt 0.178762 0.643934
vt 0.477769 0.799629
vt 0.182183 0.573721
vt 0.178762 0.573718
vt 0.510044 0.862971
vt 0.182183 0.510380
vt 0.178762 0.510375
vt 0.560313 0.913240
vt 0.182179 0.460106
vt 0.178762 0.460106
vt 0.623656 0.945515
vt 0.005248 0.998008
vt 0.005252 0.934663
vt 0.001831 0.998008
vt 0.001831 0.934666
vt 0.693871 0.956636
vt 0.005252 0.864450
vt 0.001831 0.864450
vt 0.764087 0.945515
vt 0.005252 0.794236
vt 0.001831 0.794234
vt 0.827430 0.913240
vt 0.005248 0.730891
vt 0.001831 0.730891
vt 0.877699 0.862971
vt 0.324151 0.827761
vt 0.324155 0.777488
vt 0.320734 0.827761
vt 0.320734 0.777492
vt 0.909974 0.799629
vt 0.324155 0.714147
vt 0.320734 0.714150
vt 0.921095 0.729413
vt 0.324155 0.643934
vt 0.320734 0.643934
vt 0.909692 0.799629
vt 0.920813 0.729413
vt 0.453647 0.573721
vt 0.453647 0.643934
vt 0.457068 0.573718
vt 0.457068 0.643934
vt 0.877417 0.862971
vt 0.453647 0.510380
vt 0.457068 0.510375
vt 0.827148 0.913240
vt 0.453651 0.460107
vt 0.457068 0.460106
vt 0.763805 0.945515
vt 0.036790 0.460106
vt 0.040207 0.460106
vt 0.040211 0.523452
vt 0.036790 0.523449
vt 0.693590 0.956636
vt 0.040211 0.593665
vt 0.036790 0.593665
vt 0.623374 0.945515
vt 0.040211 0.663878
vt 0.036790 0.663881
vt 0.560031 0.913240
vt 0.040207 0.727223
vt 0.036790 0.727223
vt 0.509762 0.862971
vt 0.315096 0.827761
vt 0.311679 0.827761
vt 0.311675 0.777487
vt 0.315096 0.777492
vt 0.477487 0.799628
vt 0.311675 0.714147
vt 0.315096 0.714150
vt 0.466366 0.729413
vt 0.311675 0.643934
vt 0.315096 0.643934
vt 0.477487 0.659197
vt 0.311675 0.573721
vt 0.315096 0.573718
vt 0.509762 0.595854
vt 0.311675 0.510380
vt 0.315096 0.510375
vt 0.560031 0.545585
vt 0.311679 0.460107
vt 0.315096 0.460106
vt 0.623374 0.513311
vt 0.138165 0.998008
vt 0.134747 0.998008
vt 0.134744 0.934663
vt 0.138165 0.934666
vt 0.693590 0.502190
vt 0.134744 0.864450
vt 0.138165 0.864450
vt 0.763805 0.513311
vt 0.134744 0.794236
vt 0.138165 0.794234
vt 0.827148 0.545585
vt 0.134747 0.730891
vt 0.138165 0.730891
vt 0.877417 0.595854
vt 0.457068 0.827761
vt 0.453651 0.827761
vt 0.453647 0.777488
vt 0.457068 0.777492
vt 0.909692 0.659197
vt 0.453647 0.714147
vt 0.457068 0.714150
vn 0.951033 -0.007131 -0.309008
vn 0.808996 -0.007131 -0.587770
vn 0.808996 0.007131 -0.587770
vn 0.951033 0.007131 -0.309008
vn 0.587770 -0.007131 -0.808997
vn 0.587770 0.007131 -0.808997
vn 0.309009 -0.007131 -0.951032
vn 0.309009 0.007131 -0.951032
vn -0.000000 -0.007131 -0.999975
vn -0.000000 0.007131 -0.999975
vn -0.309009 -0.007131 -0.951032
vn -0.309009 0.007131 -0.951032
vn -0.587771 -0.007131 -0.808996
vn -0.587771 0.007131 -0.808996
vn -0.808997 -0.007131 -0.587770
vn -0.808997 0.007131 -0.587770
vn -0.951032 -0.007131 -0.309009
vn -0.951032 0.007131 -0.309009
vn -0.999975 -0.007131 -0.000000
vn -0.999975 0.007131 0.000000
vn -0.951032 -0.007131 0.309009
vn -0.951032 0.007131 0.309009
vn -0.808996 -0.007131 0.587771
vn -0.808996 0.007131 0.587771
vn -0.587770 -0.007131 0.808996
vn -0.587770 0.007131 0.808997
vn -0.309009 -0.007131 0.951032
vn -0.309009 0.007131 0.951032
vn 0.000000 -0.007131 0.999975
vn 0.000000 0.007131 0.999975
vn 0.309009 -0.007131 0.951032
vn 0.309009 0.007131 0.951032
vn 0.587770 -0.007131 0.808996
vn 0.587770 0.007131 0.808997
vn 0.808996 -0.007131 0.587770
vn 0.808996 0.007131 0.587770
vn 0.951032 -0.007131 0.309009
vn 0.951032 0.007131 0.309009
vn 0.999975 -0.007131 0.000001
vn 0.999975 0.007131 0.000001
vn 0.007930 -0.999952 -0.005762
vn 0.009322 -0.999952 -0.003029
vn 0.000000 -1.000000 -0.000000
vn 0.005762 -0.999952 -0.007930
vn 0.003029 -0.999952 -0.009322
vn 0.000000 -0.999952 -0.009802
vn -0.003029 -0.999952 -0.009322
vn -0.005762 -0.999952 -0.007930
vn -0.007930 -0.999952 -0.005762
vn -0.009322 -0.999952 -0.003029
vn -0.009802 -0.999952 -0.000000
vn -0.009322 -0.999952 0.003029
vn -0.007930 -0.999952 0.005762
vn -0.005762 -0.999952 0.007930
vn -0.003029 -0.999952 0.009322
vn -0.000000 -0.999952 0.009802
vn 0.003029 -0.999952 0.009322
vn 0.005762 -0.999952 0.007930
vn 0.007930 -0.999952 0.005762
vn 0.009322 -0.999952 0.003029
vn 0.009802 -0.999952 0.000000
vn 0.009323 0.999952 -0.003029
vn 0.007930 0.999952 -0.005762
vn 0.000000 1.000000 0.000000
vn 0.005762 0.999952 -0.007930
vn 0.003029 0.999952 -0.009323
vn 0.000000 0.999952 -0.009802
vn -0.003029 0.999952 -0.009323
vn -0.005762 0.999952 -0.007930
vn -0.007930 0.999952 -0.005762
vn -0.009323 0.999952 -0.003029
vn -0.009802 0.999952 -0.000000
vn -0.009323 0.999952 0.003029
vn -0.007930 0.999952 0.005762
vn -0.005762 0.999952 0.007930
vn -0.003029 0.999952 0.009322
vn -0.000000 0.999952 0.009802
vn 0.003029 0.999952 0.009323
vn 0.005762 0.999952 0.007930
vn 0.007930 0.999952 0.005762
vn 0.009323 0.999952 0.003029
vn 0.009802 0.999952 0.000000
vn 0.243319 -0.966719 -0.079059
vn 0.417766 -0.856355 -0.303525
vn 0.917879 -0.261827 -0.298236
vn 0.780795 -0.261823 -0.567281
vn 0.668319 -0.711475 -0.217149
vn 0.668319 -0.711475 -0.217149
vn 0.568504 -0.711476 -0.413043
vn 0.303525 -0.856355 -0.417766
vn 0.567281 -0.261822 -0.780796
vn 0.413043 -0.711476 -0.568505
vn 0.079059 -0.966719 -0.243320
vn 0.298237 -0.261824 -0.917880
vn 0.217150 -0.711475 -0.668319
vn 0.217150 -0.711475 -0.668319
vn 0.000000 -0.966719 -0.255842
vn -0.000000 -0.492154 -0.870508
vn -0.000000 -0.711473 -0.702713
vn -0.079059 -0.966719 -0.243320
vn -0.269002 -0.492153 -0.827903
vn -0.217151 -0.711472 -0.668321
vn -0.150380 -0.966719 -0.206980
vn -0.567281 -0.261822 -0.780795
vn -0.413044 -0.711474 -0.568506
vn -0.413044 -0.711474 -0.568506
vn -0.206980 -0.966719 -0.150380
vn -0.780795 -0.261824 -0.567280
vn -0.568505 -0.711476 -0.413043
vn -0.568505 -0.711476 -0.413043
vn -0.243319 -0.966719 -0.079059
vn -0.917879 -0.261826 -0.298237
vn -0.668318 -0.711476 -0.217149
vn -0.668318 -0.711476 -0.217150
vn -0.255840 -0.966719 -0.000000
vn -0.965116 -0.261824 -0.000000
vn -0.702711 -0.711476 -0.000000
vn -0.702711 -0.711476 -0.000000
vn -0.243319 -0.966719 0.079059
vn -0.917879 -0.261824 0.298237
vn -0.668318 -0.711476 0.217149
vn -0.668318 -0.711476 0.217150
vn -0.417766 -0.856355 0.303525
vn -0.780795 -0.261823 0.567281
vn -0.568505 -0.711476 0.413043
vn -0.303525 -0.856355 0.417766
vn -0.567281 -0.261822 0.780796
vn -0.413043 -0.711475 0.568505
vn -0.079059 -0.966719 0.243320
vn -0.298237 -0.261824 0.917880
vn -0.217150 -0.711475 0.668319
vn -0.217150 -0.711475 0.668319
vn 0.000000 -0.966719 0.255842
vn 0.000000 -0.492154 0.870508
vn 0.000000 -0.711473 0.702713
vn 0.079059 -0.966719 0.243320
vn 0.269002 -0.492154 0.827903
vn 0.217150 -0.711473 0.668321
vn 0.150379 -0.966719 0.206980
vn 0.567280 -0.261824 0.780795
vn 0.413044 -0.711475 0.568506
vn 0.413044 -0.711475 0.568506
vn 0.206980 -0.966719 0.150380
vn 0.780796 -0.261823 0.567281
vn 0.568505 -0.711476 0.413043
vn 0.568505 -0.711476 0.413043
vn 0.243321 -0.966718 0.079060
vn 0.917880 -0.261823 0.298237
vn 0.668316 -0.711477 0.217149
vn 0.668316 -0.711477 0.217149
vn 0.255842 -0.966719 0.000000
vn 0.965115 -0.261827 0.000001
vn 0.702711 -0.711476 0.000001
vn 0.702711 -0.711476 0.000001
vn 0.243322 0.966718 -0.079061
vn 0.255845 0.966718 0.000001
vn 0.917879 0.261827 -0.298236
vn 0.965115 0.261827 0.000001
vn 0.668319 0.711475 -0.217149
vn 0.668319 0.711475 -0.217149
vn 0.702711 0.711476 0.000001
vn 0.702711 0.711476 0.000001
vn 0.417767 0.856355 -0.303525
vn 0.568504 0.711476 -0.413042
vn 0.780796 0.261823 -0.567280
vn 0.303526 0.856354 -0.417767
vn 0.413043 0.711475 -0.568505
vn 0.567281 0.261823 -0.780795
vn 0.079060 0.966718 -0.243324
vn 0.217150 0.711474 -0.668319
vn 0.217150 0.711474 -0.668319
vn 0.298237 0.261825 -0.917879
vn 0.000000 0.966718 -0.255845
vn -0.000000 0.492154 -0.870508
vn -0.000000 0.711473 -0.702714
vn -0.079060 0.966718 -0.243323
vn -0.269002 0.492153 -0.827903
vn -0.217151 0.711473 -0.668320
vn -0.150382 0.966718 -0.206982
vn -0.413044 0.711475 -0.568505
vn -0.413044 0.711475 -0.568505
vn -0.567282 0.261822 -0.780795
vn -0.206983 0.966718 -0.150381
vn -0.568505 0.711476 -0.413043
vn -0.568505 0.711476 -0.413043
vn -0.780795 0.261824 -0.567280
vn -0.243323 0.966718 -0.079061
vn -0.668318 0.711476 -0.217149
vn -0.668318 0.711476 -0.217149
vn -0.917879 0.261826 -0.298237
vn -0.255844 0.966718 -0.000000
vn -0.702711 0.711476 0.000000
vn -0.702711 0.711476 0.000000
vn -0.965116 0.261824 0.000000
vn -0.243322 0.966718 0.079061
vn -0.668318 0.711476 0.217149
vn -0.668318 0.711476 0.217149
vn -0.917879 0.261824 0.298237
vn -0.417767 0.856355 0.303525
vn -0.568505 0.711476 0.413043
vn -0.780796 0.261823 0.567280
vn -0.303526 0.856355 0.417766
vn -0.413043 0.711475 0.568505
vn -0.567280 0.261822 0.780796
vn -0.079060 0.966718 0.243322
vn -0.217150 0.711475 0.668318
vn -0.217150 0.711475 0.668318
vn -0.298237 0.261823 0.917880
vn -0.000000 0.966718 0.255845
vn 0.000000 0.492154 0.870508
vn 0.000000 0.711473 0.702713
vn 0.079061 0.966718 0.243324
vn 0.269002 0.492153 0.827903
vn 0.217151 0.711473 0.668320
vn 0.150381 0.966718 0.206983
vn 0.413044 0.711475 0.568505
vn 0.413044 0.711475 0.568505
vn 0.567280 0.261824 0.780795
vn 0.206983 0.966718 0.150382
vn 0.568505 0.711476 0.413043
vn 0.568505 0.711476 0.413043
vn 0.780796 0.261823 0.567280
vn 0.243325 0.966717 0.079062
vn 0.668316 0.711477 0.217148
vn 0.668316 0.711477 0.217149
vn 0.917880 0.261823 0.298237
s 1
g polySurface33 polySurface7
usemtl lambert2SG
f 3/1/1 7/2/2 87/3/3 83/4/4
f 7/2/2 11/5/5 91/6/6 87/3/3
f 11/7/5 15/8/7 95/9/8 91/10/6
f 15/8/7 19/11/9 99/12/10 95/9/8
f 19/11/9 23/13/11 103/14/12 99/12/10
f 23/13/11 27/15/13 107/16/14 103/14/12
f 27/17/13 31/18/15 111/19/16 107/20/14
f 31/18/15 35/21/17 115/22/18 111/19/16
f 35/21/17 39/23/19 119/24/20 115/22/18
f 39/23/19 43/25/21 123/26/22 119/24/20
f 43/25/21 47/27/23 127/28/24 123/26/22
f 47/27/23 51/29/25 131/30/26 127/28/24
f 51/31/25 55/32/27 135/33/28 131/34/26
f 55/32/27 59/35/29 139/36/30 135/33/28
f 59/35/29 63/37/31 143/38/32 139/36/30
f 63/37/31 67/39/33 147/40/34 143/38/32
f 67/41/33 71/42/35 151/43/36 147/44/34
f 71/42/35 75/45/37 155/46/38 151/43/36
f 75/45/37 79/47/39 159/48/40 155/46/38
f 79/47/39 3/1/1 83/4/4 159/48/40
f 10/49/41 6/50/42 1/51/43
f 14/52/44 10/49/41 1/51/43
f 18/53/45 14/52/44 1/51/43
f 22/54/46 18/53/45 1/51/43
f 26/55/47 22/54/46 1/51/43
f 30/56/48 26/55/47 1/51/43
f 34/57/49 30/56/48 1/51/43
f 38/58/50 34/57/49 1/51/43
f 42/59/51 38/58/50 1/51/43
f 46/60/52 42/59/51 1/51/43
f 50/61/53 46/60/52 1/51/43
f 54/62/54 50/61/53 1/51/43
f 58/63/55 54/62/54 1/51/43
f 62/64/56 58/63/55 1/51/43
f 66/65/57 62/64/56 1/51/43
f 70/66/58 66/65/57 1/51/43
f 74/67/59 70/66/58 1/51/43
f 78/68/60 74/67/59 1/51/43
f 82/69/61 78/68/60 1/51/43
f 6/50/42 82/69/61 1/51/43
f 86/70/62 90/71/63 2/72/64
f 90/71/63 94/73/65 2/72/64
f 94/73/65 98/74/66 2/72/64
f 98/74/66 102/75/67 2/72/64
f 102/75/67 106/76/68 2/72/64
f 106/76/68 110/77/69 2/72/64
f 110/77/69 114/78/70 2/72/64
f 114/78/70 118/79/71 2/72/64
f 118/79/71 122/80/72 2/72/64
f 122/80/72 126/81/73 2/72/64
f 126/81/73 130/82/74 2/72/64
f 130/82/74 134/83/75 2/72/64
f 134/83/75 138/84/76 2/72/64
f 138/84/76 142/85/77 2/72/64
f 142/85/77 146/86/78 2/72/64
f 146/86/78 150/87/79 2/72/64
f 150/87/79 154/88/80 2/72/64
f 154/88/80 158/89/81 2/72/64
f 158/89/81 162/90/82 2/72/64
f 162/90/82 86/70/62 2/72/64
f 5/91/83 6/50/42 10/49/41 9/92/84
f 3/1/1 4/93/85 8/94/86 7/2/2
f 4/93/87 5/95/88 9/96/84 8/94/89
f 9/92/84 10/49/41 14/52/44 13/97/90
f 7/2/2 8/94/86 12/98/91 11/5/5
f 8/94/89 9/96/84 13/99/90 12/98/92
f 13/97/90 14/52/44 18/53/45 17/100/93
f 11/7/5 12/101/91 16/102/94 15/8/7
f 12/101/92 13/103/90 17/104/95 16/102/96
f 17/100/93 18/53/45 22/54/46 21/105/97
f 15/8/7 16/102/94 20/106/98 19/11/9
f 16/102/96 17/104/95 21/107/99 20/106/98
f 21/105/97 22/54/46 26/55/47 25/108/100
f 19/11/9 20/106/98 24/109/101 23/13/11
f 20/106/98 21/107/99 25/110/102 24/109/101
f 25/108/100 26/55/47 30/56/48 29/111/103
f 23/13/11 24/109/101 28/112/104 27/15/13
f 24/109/101 25/110/102 29/113/105 28/112/106
f 29/111/103 30/56/48 34/57/49 33/114/107
f 27/17/13 28/115/104 32/116/108 31/18/15
f 28/115/106 29/117/105 33/118/109 32/116/110
f 33/114/107 34/57/49 38/58/50 37/119/111
f 31/18/15 32/116/108 36/120/112 35/21/17
f 32/116/110 33/118/109 37/121/113 36/120/114
f 37/119/111 38/58/50 42/59/51 41/122/115
f 35/21/17 36/120/112 40/123/116 39/23/19
f 36/120/114 37/121/113 41/124/117 40/123/118
f 41/122/115 42/59/51 46/60/52 45/125/119
f 39/23/19 40/123/116 44/126/120 43/25/21
f 40/123/118 41/124/117 45/127/121 44/126/122
f 45/125/119 46/60/52 50/61/53 49/128/123
f 43/25/21 44/126/120 48/129/124 47/27/23
f 44/126/122 45/127/121 49/130/123 48/129/125
f 49/128/123 50/61/53 54/62/54 53/131/126
f 47/27/23 48/129/124 52/132/127 51/29/25
f 48/129/125 49/130/123 53/133/126 52/132/128
f 53/131/126 54/62/54 58/63/55 57/134/129
f 51/31/25 52/135/127 56/136/130 55/32/27
f 52/135/128 53/137/126 57/138/131 56/136/132
f 57/134/129 58/63/55 62/64/56 61/139/133
f 55/32/27 56/136/130 60/140/134 59/35/29
f 56/136/132 57/138/131 61/141/135 60/140/134
f 61/139/133 62/64/56 66/65/57 65/142/136
f 59/35/29 60/140/134 64/143/137 63/37/31
f 60/140/134 61/141/135 65/144/138 64/143/137
f 65/142/136 66/65/57 70/66/58 69/145/139
f 63/37/31 64/143/137 68/146/140 67/39/33
f 64/143/137 65/144/138 69/147/141 68/146/142
f 69/145/139 70/66/58 74/67/59 73/148/143
f 67/41/33 68/149/140 72/150/144 71/42/35
f 68/149/142 69/151/141 73/152/145 72/150/146
f 73/148/143 74/67/59 78/68/60 77/153/147
f 71/42/35 72/150/144 76/154/148 75/45/37
f 72/150/146 73/152/145 77/155/149 76/154/150
f 77/153/147 78/68/60 82/69/61 81/156/151
f 75/45/37 76/154/148 80/157/152 79/47/39
f 76/154/150 77/155/149 81/158/153 80/157/154
f 6/50/42 5/91/83 81/156/151 82/69/61
f 5/95/88 4/93/87 80/157/154 81/158/153
f 4/93/85 3/1/1 79/47/39 80/157/152
f 85/159/155 86/70/62 162/90/82 161/160/156
f 83/4/4 84/161/157 160/162/158 159/48/40
f 84/161/159 85/163/160 161/164/161 160/162/162
f 86/70/62 85/159/155 89/165/163 90/71/63
f 85/163/160 84/161/159 88/166/164 89/167/163
f 84/161/157 83/4/4 87/3/3 88/166/165
f 90/71/63 89/165/163 93/168/166 94/73/65
f 89/167/163 88/166/164 92/169/167 93/170/166
f 88/166/165 87/3/3 91/6/6 92/169/168
f 94/73/65 93/168/166 97/171/169 98/74/66
f 93/172/166 92/173/167 96/174/170 97/175/171
f 92/173/168 91/10/6 95/9/8 96/174/172
f 98/74/66 97/171/169 101/176/173 102/75/67
f 97/175/171 96/174/170 100/177/174 101/178/175
f 96/174/172 95/9/8 99/12/10 100/177/174
f 102/75/67 101/176/173 105/179/176 106/76/68
f 101/178/175 100/177/174 104/180/177 105/181/178
f 100/177/174 99/12/10 103/14/12 104/180/177
f 106/76/68 105/179/176 109/182/179 110/77/69
f 105/181/178 104/180/177 108/183/180 109/184/181
f 104/180/177 103/14/12 107/16/14 108/183/182
f 110/77/69 109/182/179 113/185/183 114/78/70
f 109/186/181 108/187/180 112/188/184 113/189/185
f 108/187/182 107/20/14 111/19/16 112/188/186
f 114/78/70 113/185/183 117/190/187 118/79/71
f 113/189/185 112/188/184 116/191/188 117/192/189
f 112/188/186 111/19/16 115/22/18 116/191/190
f 118/79/71 117/190/187 121/193/191 122/80/72
f 117/192/189 116/191/188 120/194/192 121/195/193
f 116/191/190 115/22/18 119/24/20 120/194/194
f 122/80/72 121/193/191 125/196/195 126/81/73
f 121/195/193 120/194/192 124/197/196 125/198/197
f 120/194/194 119/24/20 123/26/22 124/197/198
f 126/81/73 125/196/195 129/199/199 130/82/74
f 125/198/197 124/197/196 128/200/200 129/201/199
f 124/197/198 123/26/22 127/28/24 128/200/201
f 130/82/74 129/199/199 133/202/202 134/83/75
f 129/201/199 128/200/200 132/203/203 133/204/202
f 128/200/201 127/28/24 131/30/26 132/203/204
f 134/83/75 133/202/202 137/205/205 138/84/76
f 133/206/202 132/207/203 136/208/206 137/209/207
f 132/207/204 131/34/26 135/33/28 136/208/208
f 138/84/76 137/205/205 141/210/209 142/85/77
f 137/209/207 136/208/206 140/211/210 141/212/211
f 136/208/208 135/33/28 139/36/30 140/211/210
f 142/85/77 141/210/209 145/213/212 146/86/78
f 141/212/211 140/211/210 144/214/213 145/215/214
f 140/211/210 139/36/30 143/38/32 144/214/213
f 146/86/78 145/213/212 149/216/215 150/87/79
f 145/215/214 144/214/213 148/217/216 149/218/217
f 144/214/213 143/38/32 147/40/34 148/217/218
f 150/87/79 149/216/215 153/219/219 154/88/80
f 149/220/217 148/221/216 152/222/220 153/223/221
f 148/221/218 147/44/34 151/43/36 152/222/222
f 154/88/80 153/219/219 157/224/223 158/89/81
f 153/223/221 152/222/220 156/225/224 157/226/225
f 152/222/222 151/43/36 155/46/38 156/225/226
f 158/89/81 157/224/223 161/160/156 162/90/82
f 157/226/225 156/225/224 160/162/162 161/164/161
f 156/225/226 155/46/38 159/48/40 160/162/158
