# Blender 5.2.1 LTS
# www.blender.org
mtllib obstructors collider.mtl
o Object.1
v -0.094142 -0.203820 -0.013206
v -0.105226 -0.204595 -0.003091
v -0.109489 -0.203549 0.019582
v -0.109102 -0.192038 0.021753
v -0.114295 -0.198549 0.030744
v -0.104683 -0.189286 0.024853
v -0.112900 -0.196495 0.042604
v -0.085305 -0.191844 0.026326
v -0.118249 -0.202735 0.053069
v -0.105071 -0.191728 0.041751
v -0.087785 -0.194557 0.045240
v -0.109954 -0.196223 0.053069
v -0.083367 -0.200836 0.043999
v -0.078949 -0.199750 0.025163
v -0.091041 -0.198045 0.060898
v -0.102668 -0.202347 0.067254
v -0.088328 -0.205603 0.062603
v -0.070655 -0.201456 0.062138
v -0.057477 -0.205642 0.085702
v -0.089956 -0.204673 0.081594
v -0.035696 -0.198510 0.053456
v -0.047323 -0.198433 0.030899
v -0.002015 -0.198626 0.024194
v 0.007015 -0.200022 0.060355
v -0.031432 -0.201068 0.072912
v 0.002636 -0.205370 0.083687
v -0.048408 -0.202928 0.094771
v 0.006007 -0.203045 0.095857
v -0.060035 -0.203122 -0.026849
v -0.078794 -0.202890 -0.011850
v -0.071352 -0.201301 0.006366
v -0.043990 -0.199557 0.009389
v -0.026200 -0.201107 -0.009990
v -0.005504 -0.203781 -0.031887
v 0.013371 -0.201456 -0.008245
v -0.109954 -0.197076 0.005358
v -0.103908 -0.179790 0.004157
v -0.101350 -0.168202 -0.003556
v -0.105614 -0.196611 -0.012586
v -0.101660 -0.174597 -0.014602
v -0.090576 -0.196844 -0.021966
v -0.097165 -0.150335 -0.022702
v -0.096544 -0.139483 -0.014524
v -0.082127 -0.159830 -0.029407
v -0.096234 -0.129251 -0.021656
v -0.094064 -0.110260 -0.016036
v -0.077088 -0.174209 -0.022779
v -0.074298 -0.186418 0.005320
v -0.074763 -0.167814 -0.009486
v -0.067089 -0.132351 -0.021927
v -0.080421 -0.176263 0.006405
v -0.081894 -0.180759 0.021908
v -0.080189 -0.158474 -0.002277
v -0.089723 -0.173473 0.007916
v -0.101040 -0.180604 0.018652
v -0.088948 -0.152660 -0.002044
v -0.085072 -0.113360 -0.006075
v -0.072050 -0.116577 -0.006540
v -0.084452 -0.111074 0.001366
v -0.093832 -0.097199 -0.004719
v -0.096234 -0.076425 -0.017431
v -0.077631 -0.098981 0.007257
v -0.091661 -0.076657 0.000049
v -0.089336 -0.073324 -0.002781
v -0.070267 -0.079486 0.007335
v -0.089103 -0.071619 -0.022431
v -0.059338 -0.097857 -0.002161
v -0.057787 -0.110260 -0.019873
v -0.051198 -0.079409 -0.006579
v -0.074608 -0.055186 -0.003052
v -0.085072 -0.054488 -0.018012
v -0.089026 -0.049837 -0.028942
v -0.058562 -0.055147 -0.012896
v -0.068329 -0.041776 -0.012896
v -0.058407 -0.076037 -0.009098
v -0.067399 -0.015711 -0.023942
v -0.077631 -0.014878 -0.040065
v -0.065616 0.013163 -0.054096
v -0.045307 0.007853 -0.049251
v -0.056237 -0.078518 -0.030066
v -0.049571 -0.052705 -0.021811
v -0.039881 -0.015304 -0.040259
v -0.046703 -0.024664 -0.038127
v -0.045152 -0.048558 -0.055995
v -0.053989 -0.078014 -0.036887
v -0.072903 -0.068944 -0.048243
v -0.065384 -0.064720 -0.043050
v -0.084142 -0.025052 -0.054909
v -0.085693 -0.043675 -0.053127
v -0.088871 -0.072936 -0.033167
v -0.083600 -0.074680 -0.032856
v -0.087398 -0.076308 -0.035957
v -0.069802 -0.076192 -0.038282
v -0.071430 -0.090610 -0.041150
v -0.087088 -0.086153 -0.036112
v -0.095614 -0.106268 -0.033632
v -0.085460 -0.112624 -0.045995
v -0.092204 -0.111384 -0.032701
v -0.063988 -0.112159 -0.040763
v -0.091351 -0.131964 -0.039135
v -0.074530 -0.114601 -0.047352
v -0.070267 -0.133204 -0.036848
v -0.082514 -0.138320 -0.031965
v -0.052749 0.146546 -0.058475
v -0.002519 0.146663 -0.048825
v 0.002403 0.151885 -0.047468
v -0.031277 0.233343 -0.048670
v -0.040036 0.017620 -0.049290
v -0.039959 0.011012 -0.050452
v -0.071197 0.090426 -0.047119
v -0.069337 0.122565 -0.052700
v -0.052904 0.074555 -0.040104
v -0.026432 0.070001 -0.038244
v -0.022053 0.055234 -0.049212
v -0.038098 0.083701 -0.019098
v -0.057477 0.092054 -0.029368
v -0.031239 0.116296 -0.018594
v -0.053911 0.122081 -0.031500
v -0.040579 0.138785 -0.035066
v -0.026471 0.137603 -0.045181
v -0.036858 0.155451 -0.049406
v -0.018720 0.156400 -0.045065
v -0.040346 0.148969 -0.025144
v -0.048718 0.162214 -0.044057
v -0.049261 0.194164 -0.040375
v -0.048175 0.219696 -0.046422
v -0.039959 0.016457 -0.053708
v -0.042439 0.037541 -0.057739
v -0.027750 0.035332 -0.052816
v 0.000736 0.065524 -0.055840
v -0.019107 0.026263 -0.040647
v -0.015077 0.001458 -0.036732
v 0.002170 0.003299 -0.052506
v 0.009379 0.026147 -0.058436
v 0.015813 0.007272 -0.053398
v -0.037866 0.195206 -0.024485
v -0.039106 0.225001 -0.026074
v -0.022789 0.245709 -0.048321
v -0.027556 0.220059 -0.024214
v -0.013836 0.236015 -0.049987
v -0.002713 0.220602 -0.055181
v -0.005465 0.223189 -0.040492
v -0.015077 0.204532 -0.025725
v -0.005271 0.200177 -0.042236
v -0.022944 0.183104 -0.022741
v -0.000620 0.183530 -0.045608
v 0.006705 -0.017029 -0.036849
v 0.012674 -0.050225 -0.053165
v 0.006201 -0.027435 -0.047390
v -0.020038 0.094670 -0.013362
v -0.005542 0.074438 -0.037934
v 0.009224 0.093429 -0.027702
v -0.007364 0.112324 -0.015920
v 0.003760 0.139870 -0.021113
v 0.010542 0.109397 -0.011617
v 0.016588 0.111045 -0.006075
v 0.017828 0.127681 -0.009214
v 0.013488 0.164937 -0.023710
v 0.018177 0.160140 -0.054406
v 0.006472 0.149666 -0.017237
v 0.019921 0.148222 -0.028903
v 0.009457 0.017136 -0.046848
v -0.054579 -0.206070 -0.047508
v -0.081122 -0.206070 -0.036213
v -0.083128 -0.206070 -0.034813
v -0.048349 -0.206070 -0.048729
v -0.017012 -0.206071 -0.048820
v 0.002209 -0.206071 -0.043598
v 0.011444 -0.206071 -0.039536
v 0.013075 -0.206071 0.078083
v 0.016544 -0.206071 0.096651
v 0.004757 -0.206071 0.102231
v -0.085006 -0.206070 -0.034098
v -0.100114 -0.206070 -0.023911
v -0.105192 -0.206070 -0.016147
v -0.063929 -0.206070 0.101915
v -0.080366 -0.206070 0.093358
v -0.035069 -0.206070 0.106984
v -0.103311 -0.206070 0.069209
v -0.099675 -0.206070 0.079260
v -0.096410 -0.206070 0.073372
v -0.117100 -0.206070 0.055748
v -0.106490 -0.206070 0.062566
v -0.115370 -0.206070 0.032845
v -0.114995 -0.206070 0.031159
v -0.115036 -0.206070 0.030744
v -0.092111 -0.206070 0.063559
v -0.102261 -0.206070 0.066381
v -0.068966 -0.206070 0.080656
v -0.114927 -0.206070 0.030528
v -0.114396 -0.206070 0.029396
v -0.114943 -0.206070 0.002122
v -0.110130 -0.206070 -0.009256
v -0.116528 -0.206070 0.011937
v -0.022017 -0.206070 0.107137
v -0.042669 0.037847 -0.058494
v -0.043026 0.037559 -0.058494
v -0.032317 0.037678 -0.058494
v -0.039647 0.052029 -0.058494
v -0.039863 0.055576 -0.058494
v -0.041309 0.056440 -0.058494
v -0.076688 0.105491 -0.058494
v -0.074732 0.116119 -0.058494
v -0.052860 0.146396 -0.058494
v -0.052762 0.146548 -0.058494
v -0.052746 0.146553 -0.058494
v -0.052734 0.146553 -0.058494
v 0.002336 0.064035 -0.058494
v 0.002464 0.052590 -0.058494
v -0.005014 0.039924 -0.058494
v 0.001358 0.040010 -0.058494
v 0.002150 0.037985 -0.058494
v 0.003441 0.031301 -0.058494
v 0.009242 0.026538 -0.058494
v 0.009389 0.026155 -0.058494
v 0.009423 0.026158 -0.058494
v 0.006694 -0.040507 -0.058494
v 0.011021 -0.046643 -0.058494
v -0.000996 -0.020726 -0.058494
v 0.014093 0.032755 -0.058494
v -0.003708 -0.013540 -0.058494
v -0.001518 -0.000536 -0.058494
v 0.009459 0.026302 -0.058494
v 0.019330 -0.055890 -0.058494
v 0.015212 -0.049991 -0.058494
v -0.083409 -0.023260 -0.058494
v -0.082401 -0.024909 -0.058494
v -0.083223 -0.018246 -0.058494
v -0.062543 0.037880 -0.058494
v -0.070661 0.018636 -0.058494
v -0.059058 0.041670 -0.058494
v -0.021298 -0.008218 -0.058494
v -0.032965 0.000496 -0.058494
v -0.013034 -0.005637 -0.058494
v -0.034886 0.007079 -0.058494
v -0.044360 0.018369 -0.058494
v -0.044946 0.017557 -0.058494
v -0.045086 0.018882 -0.058494
v -0.039336 0.012408 -0.058494
v -0.041440 0.029561 -0.058494
v -0.043475 0.032423 -0.058494
v -0.040100 0.010424 -0.058494
v -0.046011 0.017176 -0.058494
v -0.039175 0.008602 -0.058494
v -0.034044 -0.008308 -0.058494
v -0.033053 -0.013771 -0.058494
v -0.044265 -0.046795 -0.058494
v -0.042735 -0.043760 -0.058494
v -0.048117 -0.050083 -0.058494
v -0.053408 -0.056988 -0.058494
v -0.059145 -0.057579 -0.058494
v -0.072114 -0.057686 -0.058494
v -0.075631 -0.054702 -0.058494
v -0.077740 0.002143 -0.058494
v -0.067745 0.014604 -0.058494
v -0.035735 -0.017858 -0.058494
v -0.033911 -0.024817 -0.058494
v -0.079949 -0.045840 -0.058494
v -0.082996 -0.041044 -0.058494
v -0.037315 0.011549 -0.058494
v -0.045410 0.026277 -0.058494
v 0.018620 0.150099 -0.058494
v 0.002579 0.151937 -0.058494
v -0.001167 0.147974 -0.058494
v -0.043768 0.141543 -0.058494
v -0.039871 0.140946 -0.058494
v -0.041895 0.146486 -0.058494
v -0.034207 0.162591 -0.058494
v -0.039295 0.172377 -0.058494
v -0.044022 0.178324 -0.058494
v -0.043822 0.189335 -0.058494
v -0.044112 0.200125 -0.058494
v -0.041449 0.221464 -0.058494
v -0.036759 0.225456 -0.058494
v -0.024697 0.232212 -0.058494
v -0.019048 0.240195 -0.058494
v -0.013315 0.234153 -0.058494
v -0.010636 0.229289 -0.058494
v -0.008174 0.154471 -0.058494
v -0.003329 0.182216 -0.058494
v -0.003067 0.150926 -0.058494
v -0.002945 0.147393 -0.058494
v -0.001306 0.185236 -0.058494
v -0.001760 0.186842 -0.058494
v -0.001840 0.197314 -0.058494
v -0.002797 0.219623 -0.058494
v -0.052714 0.146528 -0.058494
v -0.068298 0.083336 -0.058494
v -0.065797 0.080814 -0.058494
v -0.042873 0.056801 -0.058494
v 0.021923 0.098646 -0.058494
v 0.021923 0.100598 -0.058494
v 0.021923 0.110607 -0.058494
v 0.021923 0.090440 -0.058494
v 0.021923 0.074685 -0.058494
v 0.021923 0.073757 -0.058494
v 0.021923 0.073914 -0.058311
v 0.021923 0.017223 -0.058494
v 0.021923 0.019827 -0.058494
v 0.021923 0.021986 -0.058494
v 0.021923 0.038767 -0.057944
v 0.021923 0.035523 -0.054724
v 0.021923 0.039320 -0.058494
v 0.021923 0.026731 -0.058494
v 0.021923 0.015451 -0.058494
v 0.021923 0.007927 -0.058494
v 0.021923 -0.000435 -0.058494
v 0.021923 -0.016118 -0.058494
v 0.021923 -0.026243 -0.058494
v 0.021923 -0.029271 -0.058494
v 0.021923 -0.014898 -0.058494
v 0.021923 -0.008223 -0.058494
v 0.021923 -0.002879 -0.058494
v 0.021923 -0.001673 -0.058494
v 0.021923 -0.000554 -0.058494
v 0.021923 -0.206071 0.036281
v 0.021923 -0.206071 0.034647
v 0.021923 -0.206071 0.046995
v 0.021923 -0.206071 0.048175
v 0.021923 -0.206071 0.049823
v 0.021923 -0.201199 0.040313
v 0.021923 -0.201396 0.054234
v 0.021923 -0.203695 0.062841
v 0.021923 -0.205722 0.070006
v 0.021923 -0.206071 0.071237
v 0.021923 -0.206071 0.051078
v 0.021923 -0.206071 0.076586
v 0.021923 -0.205159 0.081579
v 0.021923 -0.206071 0.077480
v 0.021923 -0.204125 0.088598
v 0.021923 -0.203950 0.088173
v 0.021923 -0.206071 0.093313
v 0.021923 -0.200814 0.025233
v 0.021923 -0.201886 0.000296
v 0.021923 -0.202779 -0.012091
v 0.021923 -0.206071 -0.031260
v 0.021923 -0.206071 -0.027438
v 0.021923 -0.206071 -0.022709
v 0.021923 -0.206071 -0.033050
v 0.021923 -0.206071 -0.033639
v 0.021923 -0.206071 -0.007124
v 0.021923 -0.206071 -0.007609
v 0.021923 -0.206071 -0.013429
v 0.021923 -0.206071 -0.014750
v 0.021923 -0.206071 0.015019
v 0.021923 -0.206071 0.015400
v 0.021923 -0.206071 0.019075
v 0.021923 0.004142 -0.042073
v 0.021923 0.002523 -0.038204
v 0.021923 0.010403 -0.052593
v 0.021923 0.014787 -0.050126
v 0.021923 -0.001179 -0.035931
v 0.021923 -0.021154 -0.025817
v 0.021923 -0.056272 -0.058494
v 0.021923 -0.069303 -0.045134
v 0.021923 -0.056110 -0.058494
v 0.021923 -0.055864 -0.058494
v 0.021923 -0.051387 -0.058494
v 0.021923 -0.050114 -0.058494
v 0.021923 -0.039727 -0.058494
v 0.021923 -0.044480 -0.058494
v 0.021923 -0.047888 -0.058494
v 0.021923 -0.063584 -0.020119
v 0.021923 -0.064604 -0.022313
v 0.021923 -0.073901 -0.038803
v 0.021923 -0.023328 -0.027916
v 0.021923 0.093792 -0.058494
v 0.021923 0.081570 -0.049411
v 0.021923 0.104241 -0.009934
v 0.021923 0.110157 -0.007223
v 0.021923 0.092386 -0.021766
v 0.021923 0.091842 -0.037185
v 0.021923 0.124451 -0.009660
v 0.021923 0.126002 -0.007747
v 0.021923 0.138736 -0.004064
v 0.021923 0.144536 -0.003374
v 0.021923 0.149608 -0.058494
v 0.021923 0.148297 -0.035441
v 0.021923 0.148421 -0.058494
v 0.021923 0.143492 -0.058494
v 0.021923 0.142891 -0.058494
v 0.021923 0.123615 -0.058494
v 0.021923 0.133170 -0.058494
v 0.021923 0.118817 -0.058494
v 0.021923 0.161444 -0.020438
v 0.021923 0.166690 -0.040747
v 0.021923 0.147790 -0.005734
v 0.021923 0.163984 -0.050701
v 0.021923 0.159267 -0.056672
v 0.021923 0.156961 -0.058001
v 0.021923 0.156125 -0.055823
v 0.021923 0.137292 -0.058494
v 0.021923 0.139561 -0.058494
vn -0.0000 -1.0000 -0.0000
vn -0.0000 -0.0000 -1.0000
vn -0.0000 0.0001 -1.0000
vn -0.0000 -0.0000 1.0000
vn -0.0003 -0.0000 -1.0000
vn 0.0002 -0.0000 1.0000
vn 1.0000 -0.0000 -0.0000
vn -0.9821 -0.0000 -0.1885
vn -0.9822 -0.0000 -0.1877
vn 0.9867 -0.0000 -0.1627
vn -0.9928 -0.0000 -0.1201
vn -1.0000 -0.0000 -0.0000
vn 0.4550 -0.0000 -0.8905
vn 0.1094 -0.5716 0.8132
vn 0.4725 -0.7116 0.5199
vn 0.5157 -0.6810 0.5199
vn 0.0443 -0.5003 0.8647
vn -0.2751 -0.6709 0.6886
vn -0.1865 0.2542 0.9490
vn -0.0736 0.2134 0.9742
vn -0.2722 0.4924 0.8267
vn -0.3503 0.4544 0.8190
vn -0.6350 0.6084 0.4760
vn -0.7981 0.1476 0.5841
vn -0.8002 0.1473 0.5814
vn 0.2907 0.9264 0.2393
vn 0.0394 0.7322 0.6799
vn -0.4692 0.5185 0.7148
vn -0.4692 0.5186 0.7148
vn 0.3590 -0.7146 0.6004
vn 0.3522 -0.7095 0.6104
vn 0.3521 -0.7095 0.6105
vn -0.6874 -0.6819 0.2498
vn -0.6565 -0.5116 0.5543
vn -0.5640 -0.5339 0.6300
vn -0.4401 0.0788 0.8945
vn -0.3327 0.0555 0.9414
vn 0.2022 -0.6942 0.6908
vn -0.1809 -0.8487 0.4970
vn -0.1742 -0.7542 0.6331
vn -0.1743 -0.7542 0.6331
vn 0.2693 -0.1590 0.9499
vn -0.0108 0.7981 0.6024
vn 0.5548 0.2169 0.8032
vn 0.6619 0.1279 0.7386
vn 0.0152 0.9283 0.3714
vn -0.7874 -0.4022 0.4672
vn -0.4624 -0.0281 0.8862
vn 0.0151 0.9283 0.3715
vn -0.5596 0.6950 0.4515
vn -0.7868 0.0687 0.6133
vn -0.1585 -0.1127 0.9809
vn -0.9922 -0.1217 -0.0262
vn -0.5086 0.6066 0.6110
vn -0.5086 0.6066 0.6111
vn -0.7382 0.5301 0.4172
vn -0.7382 0.5301 0.4171
vn -0.8807 -0.3768 -0.2871
vn 0.1354 -0.4860 0.8634
vn 0.1355 -0.4861 0.8634
vn -0.8786 -0.4775 0.0044
vn -0.3164 -0.7441 0.5884
vn -0.8693 -0.2537 -0.4243
vn -0.8697 -0.3381 0.3595
vn -0.8707 -0.3285 0.3659
vn -0.8816 0.1484 0.4480
vn -0.5123 0.4494 0.7318
vn -0.2365 0.8963 0.3752
vn -0.5788 -0.5663 0.5867
vn -0.8099 -0.5713 -0.1328
vn -0.5925 -0.7416 -0.3148
vn -0.7571 -0.5286 -0.3838
vn -0.7571 -0.5286 -0.3839
vn -0.9424 -0.3034 0.1411
vn -0.1051 -0.7119 -0.6944
vn -0.9484 -0.2761 0.1556
vn -0.7847 0.1179 0.6086
vn -0.4643 0.4001 0.7902
vn 0.3839 -0.8667 0.3186
vn 0.2824 -0.9039 0.3212
vn -0.5293 -0.7087 0.4664
vn -0.5217 -0.1538 0.8391
vn 0.3061 -0.1615 0.9382
vn 0.2412 -0.6740 -0.6982
vn 0.2413 -0.6740 -0.6982
vn -0.7945 -0.5747 0.1961
vn -0.5017 0.2116 0.8388
vn -0.2141 0.1969 0.9568
vn 0.7355 0.6521 0.1840
vn 0.8783 0.0384 -0.4766
vn 0.5656 0.7999 -0.2006
vn 0.5656 0.7999 -0.2005
vn 0.5792 -0.4183 -0.6997
vn -0.9933 -0.1144 0.0127
vn -0.4667 0.2970 0.8331
vn -0.6740 0.5407 0.5034
vn -0.7000 0.5360 0.4719
vn 0.0235 0.7214 0.6922
vn 0.4600 0.4130 0.7860
vn 0.7549 0.3835 0.5320
vn 0.7550 0.3835 0.5320
vn 0.8274 0.2168 0.5181
vn 0.9045 -0.4214 0.0658
vn -0.7824 -0.4780 -0.3991
vn -0.9825 0.0363 -0.1829
vn -0.9378 0.2522 0.2385
vn -0.9216 0.3522 0.1629
vn -0.9904 0.0711 -0.1184
vn -0.9911 0.0175 -0.1321
vn -0.9998 -0.0028 -0.0213
vn -0.9169 0.1173 0.3816
vn -0.6178 0.6179 0.4864
vn -0.6551 0.3145 0.6870
vn 0.5492 0.3094 0.7763
vn 0.6275 0.3427 0.6992
vn 0.5779 0.4221 0.6985
vn 0.7020 -0.3749 0.6054
vn 0.9060 -0.3219 0.2748
vn -0.6653 -0.6958 -0.2707
vn 0.3937 -0.4779 -0.7852
vn 0.5285 0.1078 -0.8420
vn -0.1295 0.2075 -0.9696
vn -0.0596 0.9120 -0.4057
vn -0.1231 0.9327 -0.3389
vn -0.6727 0.6687 -0.3167
vn -0.5246 0.8487 0.0674
vn -0.7179 0.6678 0.1967
vn -0.1466 0.6976 0.7013
vn -0.3655 0.3099 0.8777
vn 0.4748 0.4163 0.7755
vn 0.0183 0.9993 0.0338
vn 0.5484 0.3626 0.7535
vn 0.2527 -0.1713 -0.9523
vn 0.4402 0.8959 -0.0604
vn 0.9648 -0.1546 -0.2128
vn 0.9572 -0.0853 -0.2764
vn 0.9033 -0.3584 -0.2356
vn 0.9327 -0.3119 -0.1808
vn 0.3761 -0.9262 -0.0272
vn 0.5668 -0.0872 -0.8192
vn 0.6268 -0.1341 -0.7675
vn 0.9712 -0.2308 -0.0589
vn 0.9877 -0.0816 -0.1335
vn 0.7679 0.4105 0.4917
vn 0.8876 0.1926 0.4185
vn 0.2669 0.4198 0.8675
vn 0.2912 0.4041 0.8671
vn 0.0828 0.0850 0.9929
vn 0.0592 0.0961 0.9936
vn -0.7127 0.1408 0.6872
vn -0.5778 -0.7654 0.2834
vn -0.8223 -0.3642 0.4372
vn -0.9942 -0.0601 0.0898
vn -0.9954 -0.0608 0.0739
vn -0.8262 -0.5607 -0.0544
vn -0.9818 0.1476 -0.1195
vn -0.9925 0.0886 0.0839
vn -0.9989 0.0432 0.0185
vn -0.3733 0.0624 -0.9256
vn -0.4975 -0.1904 -0.8463
vn -0.9848 0.1607 -0.0654
vn -0.9611 0.2500 -0.1178
vn -0.9616 0.1517 -0.2287
vn -0.9193 -0.3189 -0.2306
vn -0.4625 -0.6878 -0.5595
vn -0.1698 0.9792 -0.1111
vn 0.0928 0.9948 -0.0428
vn 0.0899 0.9956 0.0254
vn 0.0975 0.9951 0.0140
vn 0.1914 0.9483 0.2533
vn 0.2062 0.9415 0.2664
vn 0.2062 0.9415 0.2665
vn -0.1921 0.9780 -0.0812
vn -0.1921 0.9780 -0.0813
vn -0.2912 0.9555 -0.0470
vn -0.3813 0.9233 0.0466
vn -0.9000 0.1094 -0.4219
vn -0.8888 0.0877 -0.4498
vn -0.8888 0.0876 -0.4499
vn -0.6145 0.7636 0.1980
vn 0.1413 0.6318 -0.7621
vn -0.1781 0.3725 0.9108
vn -0.7781 0.5995 0.1876
vn -0.9438 0.3265 -0.0513
vn -0.9987 0.0253 0.0442
vn -0.4329 0.8912 0.1357
vn -0.4367 0.5632 0.7014
vn -0.0770 0.8660 0.4941
vn -0.1500 0.4056 0.9017
vn 0.4301 0.2169 0.8763
vn 0.7762 0.5922 0.2162
vn -0.0250 0.9984 0.0517
vn -0.0687 0.9958 0.0613
vn -0.0484 0.9889 0.1406
vn 0.0146 0.9918 0.1272
vn 0.0493 0.9715 0.2320
vn 0.0075 0.9366 0.3502
vn -0.0135 0.9616 -0.2741
vn 0.0059 0.9819 -0.1893
vn -0.0030 0.9677 0.2522
vn -0.1553 0.9863 0.0562
vn -0.2014 0.9399 0.2758
vn -0.1046 0.9740 0.2010
vn 0.1823 0.9357 -0.3022
vn 0.0556 0.9762 -0.2096
vn 0.0556 0.9762 -0.2097
vn -0.0910 0.9882 0.1232
vn 0.2144 0.8654 0.4529
vn 0.2304 0.8995 0.3712
vn -0.0304 0.9833 -0.1795
vn -0.0311 0.9831 -0.1803
vn 0.2303 0.8996 0.3710
vn -0.8825 0.4275 -0.1962
vn -0.9902 0.0976 0.0996
vn -0.8825 0.4275 -0.1961
vn -0.6104 0.7775 0.1516
vn -0.0765 0.9971 -0.0043
vn -0.1252 0.3702 0.9205
vn -0.5079 0.8541 0.1118
vn 0.1313 0.9807 0.1447
vn 0.0037 0.9759 0.2182
vn 0.8098 0.5140 0.2829
vn 0.8630 0.3839 0.3285
vn 0.3578 0.3259 0.8751
vn -0.0937 0.8956 0.4348
vn -0.5161 0.6575 0.5489
vn -0.6503 -0.2400 0.7208
vn -0.6503 -0.2402 0.7207
vn -0.4855 0.4398 0.7556
vn 0.2628 -0.1928 0.9454
vn -0.9246 -0.3744 -0.0699
vn -0.2119 0.9349 0.2846
vn -0.0532 0.9515 0.3029
vn 0.0807 0.8942 0.4403
vn 0.0723 0.9334 -0.3515
vn -0.0676 0.9751 0.2110
vn -0.0466 0.9985 0.0274
vn -0.0312 0.9979 -0.0570
vn -0.0035 0.9986 -0.0527
vn 0.0046 0.9971 -0.0756
vn 0.0124 0.9966 -0.0811
vn 0.0135 0.9940 -0.1086
vn 0.0658 0.9866 -0.1496
vn -0.0292 0.9884 -0.1488
vn -0.0004 0.9910 -0.1337
vn -0.0674 0.9851 -0.1584
vn -0.0845 0.9890 -0.1210
vn -0.0487 0.9906 -0.1280
vn 0.1009 -0.7978 -0.5944
vn 0.5103 -0.3326 -0.7931
vn 0.1211 0.9901 -0.0713
vn -0.0431 0.9967 -0.0693
vn -0.0554 0.9958 -0.0735
vn 0.9101 0.1530 -0.3851
vn 0.9131 0.2055 0.3521
vn 0.0847 0.9850 -0.1505
vn 0.0444 0.9856 -0.1634
vn 0.0009 0.9927 -0.1204
vn -0.0135 0.9957 -0.0920
vn -0.0519 0.9933 -0.1029
vn 0.0044 1.0000 0.0011
vn -0.2198 0.9575 0.1868
vn 0.8205 0.5408 0.1852
vn 0.9739 0.1757 0.1435
vn 0.1176 0.9807 0.1561
vn -0.7058 0.7073 -0.0395
vn -0.9903 0.0976 0.0994
vn -0.9000 0.1098 -0.4218
vn 0.0304 0.9991 0.0310
vn -0.1013 0.9834 -0.1502
vn -0.1553 0.9816 -0.1113
vn -0.4234 -0.6168 -0.6636
vn -0.9046 -0.3984 -0.1517
vn -0.5289 0.0173 -0.8485
vn -0.9206 0.3359 0.1993
vn -0.5906 -0.0273 -0.8065
vn -0.9871 0.1286 -0.0958
vn -0.5607 0.3756 0.7379
vn -0.9602 0.0463 -0.2754
vn -0.5671 -0.8231 -0.0307
vn -0.8827 0.1065 -0.4577
vn -0.1685 -0.2836 -0.9440
vn 0.0668 -0.4789 -0.8753
vn -0.0728 0.2584 -0.9633
vn 0.4972 0.1563 -0.8534
vn -0.2021 0.3316 -0.9215
vn -0.6989 0.2120 -0.6830
vn -0.7563 -0.5644 -0.3310
vn -0.8001 0.2733 -0.5340
vn -0.5974 -0.0529 0.8002
vn -0.5987 -0.1205 0.7919
vn 0.2687 -0.5401 0.7975
vn 0.4266 -0.4704 0.7725
vn 0.6815 -0.5701 0.4589
vn 0.4591 -0.1769 0.8706
vn -0.8004 0.0985 0.5913
vn -0.2183 -0.9276 0.3032
vn 0.8964 -0.1311 0.4234
vn -0.5596 0.3746 0.7393
vn 0.3180 0.9021 0.2918
vn 0.7792 0.4202 0.4650
vn 0.9824 -0.1146 -0.1473
vn 0.8150 0.0267 0.5788
vn 0.3948 -0.2669 -0.8792
vn -0.6398 -0.1021 -0.7617
vn 0.0314 -0.7284 -0.6844
vn 0.5545 -0.3091 -0.7726
vn 0.7173 -0.3576 0.5979
vn 0.8963 -0.3226 0.3043
vn 0.5883 -0.0665 0.8059
vn -0.6709 0.5521 0.4950
vn -0.3070 0.1122 0.9451
vn -0.9664 0.0433 0.2534
vn -0.9023 -0.0216 -0.4305
vn -0.3049 0.0054 -0.9524
vn 0.4978 0.1565 -0.8531
vn -0.3779 -0.2274 -0.8975
vn 0.4843 -0.8749 0.0105
vn -0.2488 -0.8381 -0.4854
vn -0.4840 -0.5704 -0.6636
vn 0.6894 -0.5283 -0.4956
vn 0.0738 -0.7157 -0.6945
vn 0.6208 -0.7273 -0.2927
vn -0.6957 -0.4421 -0.5662
vn -0.7070 -0.3445 -0.6176
vn 0.0056 -0.6734 -0.7392
vn -0.5388 -0.0728 0.8393
vn 0.9947 0.0256 0.0999
vn -0.1910 -0.1395 0.9716
vn -0.9739 0.2270 0.0082
vn -0.3180 -0.9418 0.1087
vn -0.8995 0.0332 -0.4356
vn 0.8930 -0.4501 -0.0006
vn 0.9689 -0.2273 0.0977
vn 0.8078 -0.5300 0.2579
vn 0.9187 0.1665 0.3580
vn 0.8830 0.2679 0.3855
vn 0.5041 -0.1748 0.8458
vn -0.7610 0.4084 0.5040
vn 0.6431 0.5631 0.5190
vn -0.2025 0.1131 0.9727
vn -0.4077 0.0773 0.9098
vn -0.4528 0.7662 0.4560
vn 0.2851 0.2075 0.9358
vn -0.0109 0.2544 0.9670
vn -0.7985 0.1972 -0.5688
vn -0.0902 0.9885 0.1210
vn 0.9147 0.3504 0.2012
vn 0.1635 0.1992 0.9662
vn -0.0994 0.7627 0.6390
vn -0.3712 -0.6221 0.6893
vn -0.6980 -0.6663 0.2625
vn 0.8588 0.0096 0.5122
vn -0.4780 -0.6822 0.5533
vn 0.2334 0.1635 0.9585
vn -0.3625 -0.6584 0.6597
vn -0.0981 -0.9946 0.0351
vn 0.1252 -0.4134 0.9019
vn -0.6910 0.1835 0.6992
vn -0.4165 -0.2526 0.8733
vn -0.6811 -0.0865 0.7271
vn -0.6811 -0.0865 0.7270
vn -0.5883 -0.5275 -0.6129
vn -0.0101 0.6925 0.7214
vn -0.2537 0.8752 0.4120
vn 0.1469 0.9875 0.0562
vn 0.1469 0.9876 0.0562
vn -0.7266 0.6870 -0.0084
vn -0.3821 0.5526 -0.7407
vn -0.3626 0.7214 -0.5900
vn 0.1508 0.9840 0.0953
vn 0.6006 0.4763 0.6422
vn 0.4874 0.8724 0.0363
vn -0.0000 0.9363 0.3512
vn -0.2841 0.9125 0.2944
vn -0.7012 0.4492 0.5536
vn -0.8061 0.5826 0.1041
vn -0.7124 -0.2603 0.6517
vn -0.8999 0.4296 0.0750
vn -0.7536 -0.3919 -0.5277
vn -0.5678 -0.4514 -0.6884
vn 0.7699 -0.1345 0.6239
vn 0.5416 0.7801 0.3133
vn 0.9986 0.0344 -0.0414
vn 0.8251 -0.5528 -0.1170
vn 0.9622 0.2719 -0.0152
vn 0.7138 0.0581 0.6979
vn 0.6643 -0.3838 0.6414
vn 0.6846 -0.4452 0.5771
vn 0.1084 -0.9642 -0.2420
vn -0.1222 -0.0076 0.9925
vn -0.8132 0.0354 0.5808
vn -0.9274 -0.0583 0.3696
vn -0.8126 -0.0027 0.5829
vn -0.9178 0.1280 0.3757
vn -0.9593 -0.0258 -0.2811
vn -0.8751 0.1092 -0.4715
vn -0.6289 0.7388 -0.2422
vn 0.7607 0.6169 -0.2016
vn 0.9984 0.0429 -0.0381
vn 0.9787 0.0075 0.2052
vn 0.9827 -0.0058 0.1851
vn 0.8556 -0.0319 0.5166
vn 0.5244 0.3457 0.7781
vn 0.3598 0.6954 0.6221
vn 0.6248 0.4699 0.6235
vn 0.1639 0.6593 0.7339
vn -0.8211 0.5657 -0.0756
vn -0.6959 0.4924 -0.5228
vn 0.7214 0.6844 -0.1057
vn 0.8747 0.4818 -0.0519
vn 0.7214 0.6844 -0.1056
vn 0.0707 -0.0402 0.9967
vn 0.8181 0.5727 0.0524
vn -0.4493 0.8022 -0.3933
vn -0.9564 0.0174 -0.2917
vn -0.6207 0.7806 0.0731
vn -0.1392 0.0470 0.9891
vn -0.0030 0.1390 0.9903
vn 0.8113 -0.2226 0.5406
vn -0.5690 -0.7704 -0.2876
vn -0.2363 0.0915 0.9674
vn 0.4864 0.8730 0.0365
vn 0.1794 -0.0801 0.9805
vn -0.3095 0.9471 0.0852
vn -0.7508 -0.6166 -0.2368
vn -0.7508 -0.6166 -0.2369
vn -0.3778 0.4622 -0.8023
vn -0.1887 0.7706 -0.6087
vn -0.5899 0.7792 -0.2119
vn 0.1138 0.9935 0.0065
vn -0.4058 -0.8383 -0.3640
vn -0.9201 0.3405 -0.1938
vn -0.5899 0.7791 -0.2119
vn -0.8063 0.5825 0.1028
vn -0.9350 -0.3541 -0.0176
vn -0.7898 0.1362 0.5980
vn -0.6387 0.5671 0.5201
vn -0.4684 0.1178 0.8756
vn -0.1530 0.8962 0.4164
vn -0.0767 0.1967 0.9774
vn -0.5763 0.1235 0.8079
vn -0.4295 -0.6230 0.6537
vn 0.6412 -0.3623 0.6765
vn 0.3789 -0.2688 0.8855
vn 0.1516 -0.7578 0.6346
vt 0.000000 0.000000
vt 0.903564 0.390137
vt 0.900879 0.383057
vt 0.905762 0.380371
vt 0.909180 0.386475
vt 0.903809 0.399658
vt 0.894043 0.401855
vt 0.899414 0.406250
vt 0.888184 0.411133
vt 0.886963 0.396240
vt 0.876709 0.399902
vt 0.047607 0.451172
vt 0.053955 0.447021
vt 0.052002 0.458252
vt 0.040771 0.454834
vt 0.037109 0.442139
vt 0.035345 0.448668
vt 0.037289 0.452745
vt 0.892305 0.426645
vt 0.885196 0.431217
vt 0.889404 0.425781
vt 0.895573 0.421403
vt 0.890137 0.420166
vt 0.896219 0.420383
vt 0.909540 0.399021
vt 0.912804 0.394195
vt 0.036128 0.787185
vt 0.040143 0.787776
vt 0.035889 0.795654
vt 0.034794 0.794851
vt 0.036045 0.787173
vt 0.032986 0.438265
vt 0.032941 0.439558
vt 0.040039 0.433350
vt 0.043701 0.440186
vt 0.049805 0.434814
vt 0.893555 0.393555
vt 0.891602 0.385742
vt 0.045654 0.425293
vt 0.035063 0.424372
vt 0.034774 0.424879
vt 0.007521 0.015477
vt 0.019775 0.015381
vt 0.011536 0.018010
vt 0.018799 0.021729
vt 0.009466 0.019341
vt 0.018799 0.030762
vt 0.009276 0.020132
vt 0.010010 0.032227
vt 0.008764 0.022620
vt 0.025477 0.014382
vt 0.021511 0.013593
vt 0.019976 0.007746
vt 0.015381 0.009521
vt 0.019480 0.006501
vt 0.025391 0.014648
vt 0.025631 0.014437
vt 0.027225 0.015532
vt 0.027366 0.016990
vt 0.031062 0.022461
vt 0.242885 0.994733
vt 0.242999 0.994933
vt 0.240326 0.997410
vt 0.236328 0.994629
vt 0.236878 0.998776
vt 0.236816 0.998779
vt 0.231934 0.993408
vt 0.235840 0.989752
vt 0.233743 0.990392
vt 0.122593 0.121069
vt 0.124121 0.120997
vt 0.120117 0.122803
vt 0.030793 0.022832
vt 0.028564 0.022461
vt 0.126317 0.120721
vt 0.155151 0.116946
vt 0.153076 0.124756
vt 0.147124 0.121284
vt 0.151123 0.130859
vt 0.143866 0.122486
vt 0.139893 0.132080
vt 0.139498 0.127802
vt 0.148423 0.140403
vt 0.146658 0.140443
vt 0.140869 0.137939
vt 0.158245 0.136057
vt 0.158696 0.134834
vt 0.158000 0.115921
vt 0.160645 0.117188
vt 0.159851 0.114693
vt 0.162349 0.112709
vt 0.172543 0.116162
vt 0.169771 0.114650
vt 0.173062 0.126552
vt 0.172977 0.125480
vt 0.192407 0.158606
vt 0.194383 0.151340
vt 0.193013 0.159219
vt 0.150127 0.139827
vt 0.130371 0.131836
vt 0.134987 0.122884
vt 0.131872 0.121830
vt 0.121338 0.123535
vt 0.118652 0.126221
vt 0.212402 0.837646
vt 0.216797 0.835938
vt 0.214844 0.837646
vt 0.032747 0.018157
vt 0.035889 0.019531
vt 0.035645 0.021484
vt 0.032623 0.018462
vt 0.219927 0.825436
vt 0.221192 0.825378
vt 0.222168 0.827881
vt 0.212680 0.828260
vt 0.210255 0.829487
vt 0.207806 0.834304
vt 0.032582 0.017737
vt 0.032893 0.014618
vt 0.035400 0.017334
vt 0.034668 0.017822
vt 0.032762 0.017822
vt 0.026855 0.022705
vt 0.574320 0.524397
vt 0.567627 0.523926
vt 0.568136 0.522271
vt 0.577637 0.533203
vt 0.642578 0.522217
vt 0.635254 0.524170
vt 0.636719 0.507568
vt 0.627197 0.509521
vt 0.624268 0.519287
vt 0.622892 0.506651
vt 0.622264 0.507267
vt 0.617006 0.517423
vt 0.622070 0.536133
vt 0.614807 0.519579
vt 0.610107 0.529297
vt 0.610302 0.527029
vt 0.583185 0.529745
vt 0.584073 0.530207
vt 0.583496 0.531250
vt 0.581603 0.528785
vt 0.588623 0.543945
vt 0.590576 0.535645
vt 0.597900 0.546875
vt 0.595459 0.550049
vt 0.643066 0.546875
vt 0.638184 0.539063
vt 0.643799 0.537109
vt 0.632324 0.534180
vt 0.623779 0.523926
vt 0.625488 0.539063
vt 0.614014 0.546387
vt 0.612305 0.543213
vt 0.605469 0.543457
vt 0.606445 0.547852
vt 0.607666 0.552979
vt 0.600098 0.550293
vt 0.599854 0.548096
vt 0.593506 0.553955
vt 0.643555 0.551514
vt 0.638428 0.549561
vt 0.638184 0.551758
vt 0.631348 0.551758
vt 0.632813 0.542969
vt 0.623779 0.549316
vt 0.622314 0.546387
vt 0.612061 0.560791
vt 0.619385 0.561523
vt 0.617432 0.571289
vt 0.612305 0.569580
vt 0.609619 0.575195
vt 0.612305 0.582764
vt 0.616699 0.588135
vt 0.621582 0.585938
vt 0.624268 0.595459
vt 0.625977 0.591553
vt 0.625244 0.582764
vt 0.628662 0.589844
vt 0.629395 0.581543
vt 0.626221 0.567139
vt 0.632813 0.567871
vt 0.638916 0.569092
vt 0.632568 0.565430
vt 0.637695 0.562012
vt 0.599609 0.562988
vt 0.595215 0.568359
vt 0.600098 0.565674
vt 0.601074 0.575439
vt 0.599609 0.579346
vt 0.604492 0.582520
vt 0.605225 0.592041
vt 0.600098 0.591553
vt 0.602295 0.604248
vt 0.607910 0.601318
vt 0.606445 0.605957
vt 0.613037 0.602783
vt 0.513779 0.364624
vt 0.517090 0.363770
vt 0.516846 0.367188
vt 0.512871 0.366393
vt 0.085053 0.516839
vt 0.070068 0.509277
vt 0.080580 0.506825
vt 0.078490 0.500856
vt 0.070068 0.493896
vt 0.077019 0.495208
vt 0.068604 0.483887
vt 0.077250 0.491361
vt 0.077217 0.488316
vt 0.073258 0.485519
vt 0.077211 0.487793
vt 0.517072 0.360860
vt 0.514655 0.362488
vt 0.522705 0.362061
vt 0.587331 0.733193
vt 0.588728 0.729949
vt 0.592041 0.728760
vt 0.592041 0.724038
vt 0.592153 0.723542
vt 0.592170 0.723464
vt 0.596680 0.729736
vt 0.594971 0.725098
vt 0.599121 0.729248
vt 0.606934 0.732422
vt 0.631348 0.603271
vt 0.632813 0.595459
vt 0.635986 0.597412
vt 0.634277 0.591553
vt 0.597412 0.605957
vt 0.599121 0.597168
vt 0.600098 0.609619
vt 0.633789 0.587891
vt 0.629150 0.597656
vt 0.627686 0.604248
vt 0.610107 0.724365
vt 0.611816 0.733154
vt 0.614746 0.717041
vt 0.627930 0.722168
vt 0.628906 0.712646
vt 0.642578 0.715820
vt 0.641602 0.706055
vt 0.618896 0.707275
vt 0.622559 0.703125
vt 0.642334 0.699951
vt 0.631971 0.696620
vt 0.627227 0.697337
vt 0.601308 0.710577
vt 0.603706 0.706950
vt 0.607422 0.707031
vt 0.610968 0.702384
vt 0.616976 0.699404
vt 0.604832 0.709880
vt 0.614687 0.708595
vt 0.608398 0.715332
vt 0.606792 0.714529
vt 0.068658 0.475944
vt 0.073662 0.477829
vt 0.069336 0.479248
vt 0.076396 0.480956
vt 0.076103 0.478809
vt 0.077023 0.485700
vt 0.076747 0.483855
vt 0.076423 0.481149
vt 0.592455 0.722699
vt 0.597168 0.721680
vt 0.592220 0.723329
vt 0.596436 0.716064
vt 0.599121 0.718750
vt 0.606201 0.723389
vt 0.600098 0.723633
vt 0.606201 0.718018
vt 0.602783 0.714355
vt 0.602600 0.712890
vt 0.600887 0.713394
vt 0.595574 0.714687
vt 0.641995 0.697410
vt 0.624268 0.731689
vt 0.061035 0.525879
vt 0.048340 0.525879
vt 0.057861 0.519043
vt 0.069092 0.528320
vt 0.082764 0.520996
vt 0.077637 0.533936
vt 0.082483 0.537364
vt 0.085958 0.534094
vt 0.063841 0.547942
vt 0.060732 0.549166
vt 0.057129 0.542236
vt 0.075314 0.542163
vt 0.049264 0.547480
vt 0.048484 0.547161
vt 0.047949 0.547347
vt 0.049805 0.538574
vt 0.045410 0.542480
vt 0.612793 0.597900
vt 0.618164 0.600098
vt 0.086811 0.521829
vt 0.050293 0.531250
vt 0.623047 0.602295
vt 0.089563 0.530732
vt 0.641846 0.732422
vt 0.514307 0.371207
vt 0.637207 0.578613
vt 0.605713 0.571289
vt 0.604736 0.562988
vt 0.608398 0.562744
vt 0.601074 0.553711
vt 0.631836 0.559570
vt 0.625244 0.557373
vt 0.602295 0.540039
vt 0.599122 0.534934
vt 0.596970 0.534774
vt 0.608329 0.529564
vt 0.606414 0.532243
vt 0.604350 0.533017
vt 0.609645 0.528162
vt 0.590481 0.533577
vt 0.593048 0.533766
vt 0.617571 0.515553
vt 0.618483 0.513503
vt 0.032569 0.022304
vt 0.229743 0.989184
vt 0.242217 0.993558
vt 0.006104 0.024902
vt 0.004883 0.032227
vt 0.602315 0.797907
vt 0.602272 0.797879
vt 0.602295 0.797852
vt 0.602268 0.797872
vt 0.026111 0.802971
vt 0.026166 0.802850
vt 0.026123 0.802979
vt 0.006159 0.024755
vt 0.006592 0.011230
vt 0.035276 0.423720
vt 0.031510 0.796848
vt 0.898139 0.413308
vt 0.897673 0.413943
vt 0.895996 0.413086
vt 0.900635 0.408936
vt 0.902430 0.409994
vt 0.904046 0.408424
vt 0.907507 0.404041
vt 0.896662 0.418078
vt 0.885986 0.417725
vt 0.877930 0.415283
vt 0.875768 0.422039
vt 0.876093 0.423057
vt 0.883954 0.419383
vt 0.447372 0.045195
vt 0.450928 0.045898
vt 0.447210 0.046551
vt 0.450684 0.044189
vt 0.875732 0.414063
vt 0.873047 0.404785
vt 0.047493 0.466861
vt 0.056152 0.463623
vt 0.049027 0.467277
vt 0.044200 0.465345
vt 0.044186 0.465340
vt 0.044189 0.465332
vt 0.430175 0.021985
vt 0.430172 0.021978
vt 0.430176 0.021973
vt 0.430168 0.021970
vt 0.274175 0.866693
vt 0.274239 0.866716
vt 0.274170 0.866699
vt 0.044149 0.465272
vt 0.053955 0.473145
vt 0.049048 0.470037
vt 0.051660 0.476587
vt 0.053695 0.480561
vt 0.058350 0.478760
vt 0.055203 0.484109
vt 0.922505 0.652398
vt 0.926054 0.643399
vt 0.928223 0.655762
vt 0.922363 0.657471
vt 0.920863 0.653420
vt 0.447180 0.044488
vt 0.447233 0.043739
vt 0.926318 0.642241
vt 0.926584 0.641708
vt 0.930420 0.645264
vt 0.934326 0.640381
vt 0.941162 0.648926
vt 0.940918 0.662109
vt 0.060791 0.468262
vt 0.062744 0.475830
vt 0.947998 0.645996
vt 0.953369 0.648438
vt 0.062988 0.487061
vt 0.950195 0.634277
vt 0.956299 0.633301
vt 0.056374 0.487061
vt 0.062500 0.496338
vt 0.057058 0.490748
vt 0.057611 0.497605
vt 0.060059 0.504150
vt 0.057152 0.499877
vt 0.936384 0.627411
vt 0.933838 0.632080
vt 0.933023 0.631230
vt 0.928499 0.638551
vt 0.937988 0.633789
vt 0.941162 0.641113
vt 0.946289 0.636475
vt 0.939941 0.627930
vt 0.944336 0.626221
vt 0.948486 0.623291
vt 0.943778 0.622450
vt 0.940981 0.624328
vt 0.938338 0.625716
vt 0.460433 0.021810
vt 0.457177 0.019971
vt 0.460938 0.019287
vt 0.926025 0.663086
vt 0.880859 0.427979
vt 0.879448 0.427027
vt 0.878967 0.427843
vt 0.047688 0.745895
vt 0.046958 0.746589
vt 0.047363 0.744629
vt 0.050345 0.744110
vt 0.882285 0.430830
vt 0.046880 0.746585
vt 0.045487 0.740952
vt 0.048096 0.740234
vt 0.041748 0.419189
s 0
usemtl Mat_0.003
f 316/1/1 175/1/1 174/1/1
f 316/1/1 174/1/1 317/1/1
f 325/1/1 194/1/1 326/1/1
f 326/1/1 194/1/1 192/1/1
f 326/1/1 192/1/1 320/1/1
f 320/1/1 192/1/1 193/1/1
f 320/1/1 193/1/1 319/1/1
f 319/1/1 175/1/1 318/1/1
f 319/1/1 193/1/1 175/1/1
f 170/1/1 190/1/1 191/1/1
f 170/1/1 186/1/1 190/1/1
f 181/1/1 195/1/1 178/1/1
f 181/1/1 178/1/1 180/1/1
f 179/1/1 181/1/1 180/1/1
f 177/1/1 178/1/1 176/1/1
f 172/1/1 189/1/1 187/1/1
f 187/1/1 184/1/1 172/1/1
f 172/1/1 184/1/1 171/1/1
f 332/1/1 170/1/1 329/1/1
f 327/1/1 329/1/1 170/1/1
f 332/1/1 171/1/1 170/1/1
f 184/1/1 170/1/1 171/1/1
f 170/1/1 184/1/1 185/1/1
f 183/1/1 187/1/1 188/1/1
f 187/1/1 183/1/1 182/1/1
f 184/1/1 187/1/1 182/1/1
f 189/1/1 172/1/1 195/1/1
f 178/1/1 177/1/1 180/1/1
f 189/1/1 195/1/1 181/1/1
f 339/1/1 168/1/1 169/1/1
f 339/1/1 169/1/1 340/1/1
f 343/1/1 166/1/1 344/1/1
f 343/1/1 163/1/1 166/1/1
f 338/1/1 166/1/1 167/1/1
f 341/1/1 165/1/1 164/1/1
f 341/1/1 164/1/1 342/1/1
f 346/1/1 165/1/1 345/1/1
f 346/1/1 173/1/1 165/1/1
f 347/1/1 173/1/1 346/1/1
f 347/1/1 174/1/1 173/1/1
f 341/1/1 345/1/1 165/1/1
f 342/1/1 164/1/1 163/1/1
f 342/1/1 163/1/1 343/1/1
f 338/1/1 344/1/1 166/1/1
f 338/1/1 167/1/1 337/1/1
f 336/1/1 337/1/1 167/1/1
f 336/1/1 167/1/1 168/1/1
f 336/1/1 168/1/1 339/1/1
f 170/1/1 185/1/1 186/1/1
f 194/1/1 170/1/1 191/1/1
f 325/1/1 170/1/1 194/1/1
f 347/1/1 317/1/1 174/1/1
f 316/1/1 318/1/1 175/1/1
f 291/1/2 202/1/2 203/1/2
f 291/1/2 203/1/2 292/1/2
f 296/1/2 208/1/2 288/1/2
f 296/1/2 288/1/2 295/1/2
f 294/1/2 202/1/2 367/1/2
f 294/1/2 288/1/2 202/1/2
f 294/1/2 295/1/2 288/1/2
f 288/1/2 208/1/2 289/1/2
f 201/1/2 290/1/2 209/1/2
f 210/1/2 201/1/2 209/1/2
f 212/1/2 210/1/2 211/1/2
f 213/1/2 198/1/2 212/1/2
f 198/1/2 213/1/2 196/1/2
f 200/1/2 210/1/2 199/1/2
f 210/1/2 198/1/2 199/1/2
f 298/1/2 239/1/2 240/1/2
f 298/1/2 240/1/2 299/1/2
f 303/1/2 304/1/2 220/1/2
f 300/1/2 223/1/2 220/1/2
f 305/1/2 306/1/2 239/1/2
f 306/1/2 307/1/2 239/1/2
f 315/1/3 239/1/3 307/1/3
f 314/1/2 260/1/2 315/1/2
f 314/1/2 235/1/2 260/1/2
f 222/1/2 233/1/2 235/1/2
f 313/1/2 222/1/2 235/1/2
f 313/1/2 312/1/2 222/1/2
f 311/1/2 222/1/2 312/1/2
f 311/1/2 308/1/2 221/1/2
f 308/1/2 309/1/2 221/1/2
f 310/1/2 221/1/2 309/1/2
f 360/1/2 219/1/2 310/1/2
f 360/1/2 217/1/2 219/1/2
f 362/1/2 217/1/2 361/1/2
f 362/1/2 218/1/2 217/1/2
f 357/1/2 224/1/2 225/1/2
f 359/1/2 225/1/2 218/1/2
f 359/1/2 218/1/2 362/1/2
f 359/1/2 358/1/2 225/1/2
f 357/1/2 225/1/2 358/1/2
f 357/1/2 356/1/2 224/1/2
f 356/1/2 354/1/2 224/1/2
f 360/1/2 361/1/2 217/1/2
f 310/1/2 219/1/2 221/1/2
f 311/1/2 221/1/2 222/1/2
f 234/1/2 233/1/2 222/1/2
f 230/1/2 237/1/2 243/1/2
f 242/1/2 230/1/2 243/1/2
f 230/1/2 242/1/2 255/1/2
f 261/1/2 229/1/2 231/1/2
f 230/1/2 238/1/2 236/1/2
f 230/1/2 261/1/2 238/1/2
f 261/1/2 230/1/2 229/1/2
f 254/1/2 242/1/2 244/1/2
f 245/1/2 254/1/2 244/1/2
f 245/1/2 228/1/2 254/1/2
f 228/1/2 245/1/2 246/1/2
f 228/1/2 246/1/2 256/1/2
f 257/1/2 228/1/2 256/1/2
f 248/1/2 226/1/2 257/1/2
f 226/1/2 248/1/2 227/1/2
f 250/1/2 252/1/2 253/1/2
f 250/1/2 253/1/2 249/1/2
f 249/1/2 258/1/2 247/1/2
f 247/1/2 258/1/2 259/1/2
f 247/1/2 259/1/2 248/1/2
f 249/1/2 253/1/2 258/1/2
f 252/1/2 250/1/2 251/1/2
f 248/1/2 259/1/2 227/1/2
f 257/1/2 226/1/2 228/1/2
f 242/1/2 254/1/2 255/1/2
f 230/1/2 236/1/2 237/1/2
f 234/1/2 232/1/2 233/1/2
f 313/1/2 235/1/2 314/1/2
f 315/1/2 260/1/2 239/1/2
f 214/1/2 241/1/2 213/1/2
f 240/1/2 214/1/2 215/1/2
f 240/1/4 215/1/4 216/1/4
f 240/1/4 216/1/4 223/1/4
f 300/1/2 220/1/2 304/1/2
f 299/1/2 223/1/2 300/1/2
f 299/1/2 240/1/2 223/1/2
f 298/1/2 305/1/2 239/1/2
f 214/1/2 240/1/2 241/1/2
f 213/1/2 241/1/2 197/1/2
f 196/1/2 213/1/2 197/1/2
f 198/1/2 210/1/2 212/1/2
f 201/1/2 210/1/2 200/1/2
f 290/1/2 208/1/2 209/1/2
f 208/1/2 290/1/2 289/1/2
f 393/1/2 282/1/2 381/1/2
f 381/1/2 282/1/2 264/1/2
f 381/1/2 264/1/2 380/1/2
f 379/1/2 380/1/2 264/1/2
f 379/1/2 264/1/2 262/1/2
f 262/1/2 264/1/2 263/1/2
f 203/1/2 265/1/2 266/1/2
f 382/1/2 203/1/2 266/1/2
f 265/1/2 203/1/2 204/1/2
f 265/1/2 204/1/2 205/1/2
f 265/1/5 205/1/5 206/1/5
f 265/1/2 206/1/2 207/1/2
f 265/1/6 207/1/6 287/1/6
f 392/1/2 266/1/2 267/1/2
f 270/1/2 279/1/2 269/1/2
f 279/1/2 270/1/2 280/1/2
f 267/1/2 279/1/2 281/1/2
f 267/1/2 281/1/2 282/1/2
f 280/1/2 271/1/2 283/1/2
f 271/1/2 284/1/2 283/1/2
f 286/1/2 273/1/2 274/1/2
f 286/1/2 274/1/2 278/1/2
f 277/1/2 275/1/2 276/1/2
f 278/1/2 275/1/2 277/1/2
f 278/1/2 274/1/2 275/1/2
f 285/1/2 273/1/2 286/1/2
f 285/1/2 272/1/2 273/1/2
f 284/1/2 272/1/2 285/1/2
f 284/1/2 271/1/2 272/1/2
f 280/1/2 270/1/2 271/1/2
f 269/1/2 279/1/2 268/1/2
f 279/1/2 267/1/2 268/1/2
f 393/1/2 267/1/2 282/1/2
f 392/1/2 267/1/2 393/1/2
f 392/1/2 383/1/2 266/1/2
f 382/1/2 266/1/2 383/1/2
f 382/1/2 384/1/2 203/1/2
f 384/1/2 293/1/2 203/1/2
f 379/1/2 262/1/2 377/1/2
f 293/1/2 292/1/2 203/1/2
f 291/1/2 367/1/2 202/1/2
f 385/1/7 291/1/7 292/1/7
f 293/1/7 385/1/7 292/1/7
f 293/1/7 378/1/7 385/1/7
f 378/1/7 386/1/7 385/1/7
f 368/1/7 387/1/7 376/1/7
f 368/1/7 376/1/7 372/1/7
f 387/1/7 297/1/7 296/1/7
f 385/1/7 296/1/7 295/1/7
f 385/1/7 295/1/7 294/1/7
f 385/1/7 294/1/7 367/1/7
f 302/1/7 298/1/7 299/1/7
f 302/1/7 299/1/7 300/1/7
f 302/1/7 300/1/7 304/1/7
f 301/1/7 302/1/7 304/1/7
f 303/1/7 301/1/7 304/1/7
f 350/1/7 306/1/7 351/1/7
f 306/1/7 302/1/7 351/1/7
f 302/1/7 306/1/7 305/1/7
f 350/1/7 315/1/7 307/1/7
f 350/1/7 314/1/7 315/1/7
f 350/1/7 311/1/7 312/1/7
f 350/1/7 308/1/7 311/1/7
f 309/1/7 349/1/7 310/1/7
f 310/1/7 349/1/7 352/1/7
f 310/1/7 352/1/7 360/1/7
f 366/1/7 352/1/7 353/1/7
f 352/1/7 366/1/7 354/1/7
f 352/1/7 354/1/7 356/1/7
f 352/1/7 356/1/7 357/1/7
f 352/1/7 357/1/7 358/1/7
f 352/1/7 358/1/7 359/1/7
f 352/1/7 359/1/7 362/1/7
f 352/1/7 362/1/7 361/1/7
f 366/1/7 365/1/7 355/1/7
f 366/1/7 364/1/7 365/1/7
f 364/1/7 366/1/7 363/1/7
f 354/1/7 366/1/7 355/1/7
f 352/1/7 361/1/7 360/1/7
f 309/1/7 348/1/7 349/1/7
f 308/1/7 348/1/7 309/1/7
f 308/1/7 350/1/7 348/1/7
f 350/1/7 312/1/7 313/1/7
f 333/1/7 316/1/7 317/1/7
f 347/1/7 333/1/7 317/1/7
f 347/1/7 334/1/7 333/1/7
f 326/1/7 321/1/7 322/1/7
f 323/1/7 326/1/7 322/1/7
f 326/1/7 324/1/7 325/1/7
f 321/1/7 320/1/7 319/1/7
f 321/1/7 319/1/7 318/1/7
f 316/1/7 321/1/7 318/1/7
f 329/1/7 330/1/7 332/1/7
f 331/1/7 329/1/7 328/1/7
f 329/1/7 327/1/7 328/1/7
f 330/1/7 329/1/7 331/1/7
f 339/1/7 340/1/7 335/1/7
f 337/1/7 339/1/7 335/1/7
f 338/1/7 337/1/7 335/1/7
f 344/1/7 338/1/7 335/1/7
f 344/1/7 335/1/7 343/1/7
f 335/1/7 341/1/7 342/1/7
f 341/1/7 335/1/7 334/1/7
f 341/1/7 334/1/7 345/1/7
f 334/1/7 346/1/7 345/1/7
f 335/1/7 342/1/7 343/1/7
f 339/1/4 337/1/4 336/1/4
f 324/1/7 326/1/7 323/1/7
f 321/1/7 326/1/7 320/1/7
f 334/1/7 347/1/7 346/1/7
f 316/1/7 333/1/7 321/1/7
f 350/1/7 313/1/7 314/1/7
f 306/1/7 350/1/7 307/1/7
f 302/1/7 305/1/7 298/1/7
f 372/1/7 376/1/7 375/1/7
f 373/1/7 372/1/7 375/1/7
f 373/1/7 375/1/7 374/1/7
f 371/1/7 373/1/7 370/1/7
f 371/1/7 370/1/7 369/1/7
f 372/1/7 373/1/7 371/1/7
f 387/1/7 368/1/7 297/1/7
f 381/1/7 377/1/7 378/1/7
f 384/1/7 381/1/7 378/1/7
f 381/1/8 384/1/8 382/1/8
f 381/1/9 382/1/9 383/1/9
f 381/1/10 383/1/10 392/1/10
f 381/1/11 392/1/11 393/1/11
f 377/1/12 380/1/12 379/1/12
f 377/1/13 381/1/13 380/1/13
f 390/1/7 389/1/7 388/1/7
f 390/1/7 388/1/7 391/1/7
f 391/1/7 388/1/7 386/1/7
f 296/1/7 385/1/7 387/1/7
f 391/1/7 386/1/7 378/1/7
f 384/1/7 378/1/7 293/1/7
f 385/1/7 367/1/7 291/1/7
f 151/2/14 113/3/14 114/4/14
f 151/2/15 114/4/15 130/5/15
f 151/2/16 130/5/16 152/6/16
f 153/7/17 151/2/17 152/6/17
f 153/7/18 152/6/18 155/8/18
f 153/7/19 155/8/19 154/9/19
f 117/10/20 153/7/20 154/9/20
f 117/10/21 154/9/21 119/11/21
f 118/12/22 117/13/22 119/14/22
f 118/12/23 119/14/23 111/15/23
f 110/16/24 118/12/24 111/15/24
f 202/17/25 110/16/25 111/15/25
f 202/17/25 111/15/25 203/18/25
f 385/19/26 386/20/26 158/21/26
f 387/22/27 385/19/27 158/21/27
f 387/22/28 158/21/28 160/23/28
f 387/22/29 160/23/29 376/24/29
f 372/25/30 130/5/30 368/26/30
f 297/27/31 368/28/31 130/29/31
f 297/27/31 130/29/31 208/30/31
f 297/27/32 208/30/32 296/31/32
f 289/32/33 110/16/33 288/33/33
f 289/32/33 112/34/33 110/16/33
f 112/34/34 116/35/34 110/16/34
f 112/34/35 115/36/35 116/35/35
f 116/35/36 115/36/36 117/13/36
f 150/37/37 117/10/37 115/38/37
f 150/37/38 115/38/38 151/2/38
f 112/34/39 113/39/39 115/36/39
f 201/40/40 113/39/40 112/34/40
f 201/40/41 112/34/41 290/41/41
f 209/42/42 129/43/42 210/44/42
f 210/44/43 129/43/43 131/45/43
f 210/44/43 131/45/43 211/46/43
f 211/46/44 132/47/44 212/48/44
f 212/48/45 132/47/45 133/49/45
f 212/48/45 133/49/45 213/50/45
f 196/51/46 129/43/46 198/52/46
f 199/53/47 198/52/47 129/43/47
f 199/53/48 129/43/48 114/54/48
f 199/53/48 114/54/48 200/55/48
f 196/51/49 128/56/49 129/43/49
f 196/51/50 197/57/50 128/56/50
f 197/57/51 241/58/51 128/56/51
f 241/58/52 240/59/52 128/56/52
f 239/60/53 128/56/53 240/59/53
f 301/61/54 303/62/54 220/63/54
f 301/61/55 220/63/55 162/64/55
f 223/65/56 162/64/56 220/63/56
f 223/65/57 134/66/57 162/64/57
f 162/64/58 134/66/58 135/67/58
f 351/68/59 162/64/59 135/67/59
f 351/68/60 135/67/60 350/69/60
f 260/70/61 235/71/61 127/72/61
f 239/60/62 260/73/62 127/74/62
f 233/75/63 127/72/63 235/71/63
f 217/76/64 149/77/64 219/78/64
f 219/78/65 149/77/65 147/79/65
f 219/78/65 147/79/65 221/80/65
f 221/80/66 147/79/66 133/81/66
f 221/80/66 133/81/66 222/82/66
f 349/83/67 133/81/67 147/79/67
f 348/84/68 133/81/68 349/83/68
f 348/84/68 135/85/68 133/81/68
f 353/86/69 147/79/69 149/77/69
f 353/86/69 149/77/69 366/87/69
f 217/76/70 218/88/70 148/89/70
f 218/88/71 225/90/71 148/89/71
f 224/91/72 148/89/72 225/90/72
f 365/92/73 148/89/73 224/91/73
f 365/92/73 224/91/73 355/93/73
f 363/94/74 148/89/74 364/95/74
f 363/94/74 149/77/74 148/89/74
f 354/96/75 355/97/75 224/98/75
f 365/92/76 364/95/76 148/89/76
f 363/94/77 366/87/77 149/77/77
f 353/86/78 352/99/78 147/79/78
f 217/76/64 148/89/64 149/77/64
f 349/83/67 147/79/67 352/99/67
f 222/82/79 132/100/79 234/101/79
f 232/102/80 234/101/80 132/100/80
f 232/102/81 132/100/81 109/103/81
f 232/102/81 109/103/81 233/75/81
f 109/103/82 132/100/82 108/104/82
f 108/105/83 79/106/83 109/107/83
f 237/108/84 109/109/84 79/110/84
f 237/108/85 79/110/85 243/111/85
f 230/112/86 255/113/86 78/114/86
f 229/115/87 230/112/87 78/114/87
f 229/115/88 78/114/88 108/105/88
f 229/115/88 108/105/88 231/116/88
f 261/117/89 231/116/89 108/105/89
f 238/118/90 261/119/90 108/120/90
f 238/118/91 108/120/91 127/121/91
f 238/118/92 127/121/92 236/122/92
f 236/122/93 127/121/93 109/109/93
f 128/56/94 127/74/94 108/123/94
f 128/56/95 108/123/95 131/45/95
f 254/124/96 78/125/96 255/126/96
f 254/124/96 77/127/96 78/125/96
f 77/128/97 76/129/97 78/130/97
f 78/130/98 76/129/98 79/131/98
f 79/131/99 76/129/99 82/132/99
f 242/133/100 79/131/100 82/132/100
f 242/133/101 82/132/101 244/134/101
f 256/135/102 81/136/102 257/137/102
f 257/137/103 81/136/103 84/138/103
f 257/137/103 84/138/103 248/139/103
f 226/140/104 227/141/104 88/142/104
f 228/143/105 226/140/105 88/142/105
f 228/143/106 88/142/106 77/127/106
f 77/127/107 88/142/107 72/144/107
f 88/142/108 89/145/108 72/144/108
f 72/144/109 89/145/109 90/146/109
f 72/144/110 90/146/110 66/147/110
f 66/148/111 71/149/111 72/150/111
f 72/150/112 71/149/112 74/151/112
f 72/150/113 74/151/113 76/129/113
f 74/151/114 81/136/114 76/129/114
f 83/152/115 76/129/115 81/136/115
f 74/151/116 73/153/116 81/136/116
f 81/136/117 73/153/117 80/154/117
f 85/155/118 81/136/118 80/154/118
f 87/156/119 85/155/119 80/154/119
f 93/157/120 87/156/120 80/154/120
f 93/157/121 80/154/121 94/158/121
f 93/157/122 94/158/122 92/159/122
f 91/160/123 93/157/123 92/159/123
f 66/147/124 91/160/124 92/159/124
f 66/147/125 92/159/125 61/161/125
f 61/162/126 64/163/126 66/148/126
f 61/162/127 63/164/127 64/163/127
f 63/164/128 65/165/128 64/163/128
f 70/166/129 64/163/129 65/165/129
f 70/166/130 65/165/130 73/153/130
f 70/166/131 73/153/131 71/149/131
f 73/153/132 65/165/132 69/167/132
f 73/153/133 69/167/133 75/168/133
f 75/168/134 69/167/134 80/154/134
f 99/169/135 80/154/135 69/167/135
f 99/169/136 69/167/136 68/170/136
f 99/169/137 68/170/137 50/171/137
f 102/172/138 99/169/138 50/171/138
f 103/173/139 102/172/139 50/171/139
f 44/174/140 103/173/140 50/171/140
f 47/175/141 44/174/141 50/171/141
f 47/175/142 50/171/142 49/176/142
f 48/177/143 47/175/143 49/176/143
f 51/178/144 48/177/144 49/176/144
f 51/178/145 49/176/145 53/179/145
f 54/180/146 51/178/146 53/179/146
f 56/181/147 54/180/147 53/179/147
f 56/181/148 53/179/148 58/182/148
f 56/181/149 58/182/149 57/183/149
f 46/184/150 56/181/150 57/183/150
f 46/184/151 57/183/151 59/185/151
f 46/184/152 59/185/152 60/186/152
f 46/184/153 60/186/153 61/162/153
f 61/161/154 96/187/154 46/188/154
f 46/188/155 96/187/155 98/189/155
f 46/188/156 98/189/156 45/190/156
f 45/190/157 43/191/157 46/188/157
f 42/192/158 43/191/158 45/190/158
f 42/192/159 45/190/159 44/174/159
f 44/174/160 40/193/160 42/192/160
f 40/193/161 38/194/161 42/192/161
f 36/195/162 38/194/162 40/193/162
f 36/195/163 40/193/163 39/196/163
f 2/197/164 36/195/164 39/196/164
f 2/197/165 39/196/165 1/198/165
f 175/199/166 2/200/166 1/201/166
f 175/199/166 1/201/166 174/202/166
f 334/203/167 23/204/167 333/205/167
f 321/206/168 333/205/168 23/204/168
f 321/206/169 23/204/169 24/207/169
f 321/206/169 24/207/169 322/208/169
f 322/208/170 26/209/170 323/210/170
f 324/211/171 323/210/171 26/209/171
f 324/211/172 26/209/172 170/212/172
f 324/211/171 170/212/171 325/213/171
f 192/214/173 2/200/173 193/215/173
f 192/214/174 3/216/174 2/200/174
f 192/217/175 194/218/175 3/219/175
f 194/218/176 191/220/176 3/219/176
f 190/221/177 3/219/177 191/220/177
f 186/222/178 4/223/178 190/221/178
f 186/222/179 5/224/179 4/223/179
f 4/223/180 5/224/180 6/225/180
f 4/223/181 6/225/181 8/226/181
f 8/227/182 55/228/182 4/229/182
f 4/229/183 55/228/183 37/230/183
f 36/195/184 4/231/184 37/232/184
f 3/233/185 4/231/185 36/195/185
f 37/230/186 55/228/186 54/180/186
f 37/230/187 54/180/187 38/234/187
f 55/228/188 52/235/188 54/180/188
f 8/227/189 52/235/189 55/228/189
f 14/236/190 52/235/190 8/227/190
f 8/226/191 13/237/191 14/238/191
f 14/238/192 13/237/192 18/239/192
f 21/240/193 14/238/193 18/239/193
f 21/240/194 18/239/194 25/241/194
f 21/240/195 25/241/195 24/242/195
f 24/242/196 25/241/196 26/243/196
f 26/243/197 25/241/197 19/244/197
f 26/243/198 19/244/198 27/245/198
f 26/243/199 27/245/199 28/246/199
f 195/247/200 28/246/200 27/245/200
f 195/247/200 27/245/200 178/248/200
f 179/249/201 180/250/201 20/251/201
f 180/250/202 177/252/202 20/251/202
f 176/253/203 20/251/203 177/252/203
f 176/253/203 27/245/203 20/251/203
f 181/254/204 179/249/204 20/251/204
f 181/254/205 20/251/205 19/244/205
f 181/254/206 19/244/206 189/255/206
f 189/255/207 19/244/207 17/256/207
f 189/255/207 17/256/207 187/257/207
f 172/258/208 171/259/208 28/260/208
f 330/261/209 28/260/209 171/259/209
f 330/261/209 171/259/209 332/262/209
f 327/263/210 170/212/210 28/260/210
f 327/263/210 28/260/210 328/264/210
f 331/265/211 328/264/211 28/260/211
f 330/261/212 331/265/212 28/260/212
f 184/266/213 7/267/213 185/268/213
f 185/268/214 7/267/214 5/224/214
f 184/266/215 9/269/215 7/267/215
f 7/267/216 9/269/216 12/270/216
f 7/267/217 12/270/217 11/271/217
f 11/271/218 10/272/218 7/267/218
f 6/225/219 7/267/219 10/272/219
f 6/225/220 10/272/220 11/271/220
f 11/271/221 12/270/221 15/273/221
f 11/271/222 15/273/222 13/237/222
f 13/237/223 15/273/223 17/256/223
f 17/256/224 15/273/224 16/274/224
f 12/270/225 16/274/225 15/273/225
f 12/270/226 9/269/226 16/274/226
f 188/275/227 16/274/227 9/269/227
f 188/275/228 9/269/228 183/276/228
f 182/277/229 183/276/229 9/269/229
f 187/257/230 16/274/230 188/275/230
f 184/266/231 182/277/231 9/269/231
f 187/257/230 17/256/230 16/274/230
f 18/239/232 17/256/232 19/244/232
f 176/253/233 178/248/233 27/245/233
f 195/247/234 172/278/234 28/246/234
f 27/245/235 19/244/235 20/251/235
f 25/241/236 18/239/236 19/244/236
f 14/238/237 21/240/237 22/279/237
f 32/280/238 14/281/238 22/282/238
f 32/280/239 22/282/239 23/204/239
f 33/283/240 32/280/240 23/204/240
f 35/284/241 33/283/241 23/204/241
f 34/285/242 33/283/242 35/284/242
f 168/286/243 34/285/243 35/284/243
f 168/286/243 35/284/243 169/287/243
f 166/288/244 163/289/244 29/290/244
f 166/288/245 29/290/245 34/285/245
f 166/288/245 34/285/245 167/291/245
f 163/289/246 164/292/246 29/290/246
f 165/293/247 29/290/247 164/292/247
f 173/294/248 30/295/248 165/293/248
f 173/294/248 1/296/248 30/295/248
f 1/198/249 41/297/249 30/298/249
f 47/175/250 30/298/250 41/297/250
f 334/203/251 335/299/251 35/284/251
f 165/293/247 30/295/247 29/290/247
f 29/290/252 30/295/252 31/300/252
f 29/290/253 31/300/253 32/280/253
f 30/298/254 48/177/254 31/301/254
f 31/301/255 48/177/255 14/236/255
f 340/302/256 35/284/256 335/299/256
f 340/302/256 169/287/256 35/284/256
f 168/286/257 167/291/257 34/285/257
f 29/290/258 33/283/258 34/285/258
f 29/290/259 32/280/259 33/283/259
f 32/280/260 31/300/260 14/281/260
f 22/279/261 21/240/261 23/303/261
f 18/239/262 13/237/262 17/256/262
f 8/226/263 11/271/263 13/237/263
f 14/236/264 51/178/264 52/235/264
f 6/225/265 11/271/265 8/226/265
f 5/224/266 7/267/266 6/225/266
f 185/268/267 5/224/267 186/222/267
f 190/221/268 4/223/268 3/219/268
f 170/212/210 26/209/210 28/260/210
f 322/208/170 24/207/170 26/209/170
f 23/303/269 21/240/269 24/242/269
f 334/203/167 35/284/167 23/204/167
f 173/304/270 174/202/270 1/201/270
f 175/199/271 193/215/271 2/200/271
f 1/198/272 39/196/272 41/297/272
f 3/233/273 36/195/273 2/197/273
f 41/297/274 39/196/274 40/193/274
f 36/195/275 37/232/275 38/194/275
f 41/297/276 40/193/276 44/174/276
f 42/192/277 38/194/277 43/191/277
f 38/234/278 56/181/278 43/305/278
f 45/190/279 98/189/279 100/306/279
f 103/173/280 45/190/280 100/306/280
f 100/306/281 98/189/281 97/307/281
f 97/307/282 101/308/282 100/306/282
f 101/308/283 102/172/283 100/306/283
f 101/308/284 97/307/284 94/158/284
f 101/308/285 94/158/285 99/169/285
f 95/309/286 94/158/286 97/307/286
f 95/309/287 97/307/287 96/187/287
f 98/189/288 96/187/288 97/307/288
f 61/161/289 95/309/289 96/187/289
f 59/185/290 62/310/290 60/186/290
f 63/164/291 60/186/291 62/310/291
f 59/185/292 58/182/292 62/310/292
f 67/311/293 62/310/293 58/182/293
f 67/311/294 58/182/294 68/170/294
f 62/310/295 67/311/295 65/165/295
f 43/305/296 56/181/296 46/184/296
f 59/185/297 57/183/297 58/182/297
f 58/182/298 53/179/298 50/171/298
f 38/234/299 54/180/299 56/181/299
f 52/235/300 51/178/300 54/180/300
f 14/236/301 48/177/301 51/178/301
f 30/298/302 47/175/302 48/177/302
f 53/179/303 49/176/303 50/171/303
f 47/175/304 41/297/304 44/174/304
f 45/190/305 103/173/305 44/174/305
f 103/173/306 100/306/306 102/172/306
f 101/308/307 99/169/307 102/172/307
f 68/170/308 58/182/308 50/171/308
f 69/167/309 67/311/309 68/170/309
f 65/165/310 67/311/310 69/167/310
f 71/149/311 64/163/311 70/166/311
f 63/164/312 62/310/312 65/165/312
f 61/162/313 60/186/313 63/164/313
f 61/161/314 92/159/314 95/309/314
f 95/309/315 92/159/315 94/158/315
f 99/169/316 94/158/316 80/154/316
f 91/160/317 87/156/317 93/157/317
f 91/160/318 86/312/318 87/156/318
f 90/146/319 86/312/319 91/160/319
f 252/313/320 86/312/320 90/146/320
f 252/313/320 90/146/320 253/314/320
f 249/315/321 85/155/321 250/316/321
f 250/316/322 85/155/322 86/312/322
f 250/316/322 86/312/322 251/317/322
f 249/315/321 84/138/321 85/155/321
f 249/315/323 247/318/323 84/138/323
f 259/319/324 258/320/324 89/145/324
f 253/314/325 89/145/325 258/320/325
f 252/313/326 251/317/326 86/312/326
f 86/312/327 85/155/327 87/156/327
f 75/168/328 80/154/328 73/153/328
f 74/151/329 71/149/329 73/153/329
f 71/149/330 66/148/330 64/163/330
f 90/146/331 91/160/331 66/147/331
f 253/314/325 90/146/325 89/145/325
f 259/319/332 89/145/332 88/142/332
f 259/319/332 88/142/332 227/141/332
f 247/318/333 248/139/333 84/138/333
f 84/138/334 81/136/334 85/155/334
f 256/135/102 83/152/102 81/136/102
f 246/321/335 83/152/335 256/135/335
f 246/321/335 82/132/335 83/152/335
f 246/321/336 245/322/336 82/132/336
f 245/322/337 244/134/337 82/132/337
f 82/132/338 76/129/338 83/152/338
f 72/150/339 76/129/339 77/128/339
f 228/143/106 77/127/106 254/124/106
f 242/323/340 243/111/340 79/110/340
f 236/122/93 109/109/93 237/108/93
f 108/105/341 78/114/341 79/106/341
f 131/45/342 108/123/342 132/47/342
f 233/75/63 109/103/63 127/72/63
f 348/324/343 350/69/343 135/67/343
f 351/68/344 302/325/344 162/64/344
f 134/326/345 133/49/345 135/327/345
f 223/328/346 216/329/346 134/330/346
f 216/329/347 215/331/347 134/330/347
f 215/332/348 214/333/348 134/334/348
f 213/50/349 134/326/349 214/335/349
f 301/61/55 162/64/55 302/325/55
f 239/60/53 127/74/53 128/56/53
f 213/50/349 133/49/349 134/326/349
f 222/82/79 133/81/79 132/100/79
f 211/46/44 131/45/44 132/47/44
f 128/56/350 131/45/350 129/43/350
f 209/42/42 130/336/42 129/43/42
f 200/337/351 113/39/351 201/40/351
f 289/32/352 290/41/352 112/34/352
f 209/338/353 208/30/353 130/29/353
f 373/339/354 374/340/354 157/341/354
f 373/339/355 157/341/355 156/342/355
f 373/339/355 156/342/355 370/343/355
f 369/344/356 152/6/356 371/345/356
f 372/25/357 371/345/357 152/6/357
f 369/344/356 156/342/356 152/6/356
f 369/344/358 370/343/358 156/342/358
f 155/8/359 156/342/359 157/341/359
f 374/340/360 375/346/360 157/341/360
f 376/24/361 157/341/361 375/346/361
f 376/24/362 160/23/362 157/341/362
f 157/341/363 160/23/363 161/347/363
f 157/341/364 161/347/364 154/9/364
f 161/347/365 106/348/365 154/9/365
f 262/349/366 106/348/366 161/347/366
f 377/350/366 262/349/366 161/347/366
f 377/350/367 161/347/367 378/351/367
f 264/352/368 106/353/368 263/354/368
f 264/352/368 105/355/368 106/353/368
f 119/11/369 106/348/369 105/356/369
f 119/11/370 105/356/370 120/357/370
f 265/358/371 119/14/371 120/359/371
f 265/358/371 120/359/371 266/360/371
f 287/361/372 207/362/372 104/363/372
f 287/361/373 104/363/373 119/14/373
f 207/364/374 206/365/374 104/366/374
f 206/365/375 205/367/375 104/366/375
f 205/368/376 204/369/376 104/370/376
f 203/18/377 104/363/377 204/371/377
f 266/360/378 120/359/378 121/372/378
f 266/360/378 121/372/378 267/373/378
f 268/374/379 267/373/379 121/372/379
f 269/375/380 268/374/380 121/372/380
f 269/375/381 121/372/381 124/376/381
f 269/375/381 124/376/381 270/377/381
f 279/378/382 280/379/382 122/380/382
f 279/378/383 122/380/383 105/381/383
f 279/378/383 105/381/383 281/382/383
f 282/383/384 281/384/384 105/355/384
f 283/385/385 122/380/385 280/379/385
f 284/386/386 146/387/386 283/385/386
f 284/386/386 144/388/386 146/387/386
f 144/388/387 145/389/387 146/387/387
f 146/387/388 145/389/388 123/390/388
f 146/387/389 123/390/389 122/380/389
f 121/372/390 122/391/390 123/392/390
f 145/389/391 136/393/391 123/390/391
f 136/393/392 125/394/392 123/390/392
f 124/376/393 123/392/393 125/395/393
f 136/393/394 137/396/394 125/394/394
f 125/394/395 137/396/395 126/397/395
f 271/398/396 125/395/396 126/399/396
f 271/398/396 126/399/396 272/400/396
f 273/401/397 272/400/397 126/399/397
f 273/401/398 126/399/398 107/402/398
f 273/401/398 107/402/398 274/403/398
f 278/404/399 141/405/399 286/406/399
f 285/407/400 286/406/400 141/405/400
f 285/407/401 141/405/401 144/388/401
f 141/405/402 142/408/402 144/388/402
f 144/388/403 142/408/403 143/409/403
f 139/410/404 143/409/404 142/408/404
f 140/411/405 139/410/405 142/408/405
f 140/411/406 138/412/406 139/410/406
f 137/396/407 139/410/407 138/412/407
f 107/413/408 137/396/408 138/412/408
f 275/414/409 107/413/409 138/412/409
f 275/414/409 138/412/409 276/415/409
f 276/415/410 140/411/410 277/416/410
f 278/404/411 277/416/411 140/411/411
f 276/415/412 138/412/412 140/411/412
f 143/409/413 139/410/413 136/393/413
f 140/411/414 142/408/414 141/405/414
f 278/404/399 140/411/399 141/405/399
f 275/417/415 274/418/415 107/419/415
f 270/377/416 125/395/416 271/398/416
f 126/397/417 137/396/417 107/413/417
f 137/396/418 136/393/418 139/410/418
f 143/409/419 136/393/419 145/389/419
f 143/409/420 145/389/420 144/388/420
f 285/407/401 144/388/401 284/386/401
f 283/385/385 146/387/385 122/380/385
f 270/377/416 124/376/416 125/395/416
f 121/372/421 123/392/421 124/376/421
f 121/372/422 120/359/422 122/391/422
f 287/361/423 119/14/423 265/358/423
f 105/381/424 122/380/424 120/420/424
f 264/352/425 282/383/425 105/355/425
f 378/351/426 161/347/426 159/421/426
f 378/351/426 159/421/426 391/422/426
f 390/423/427 391/422/427 159/421/427
f 389/424/428 390/425/428 159/426/428
f 388/427/429 389/424/429 159/426/429
f 388/428/430 159/421/430 158/21/430
f 262/429/431 263/430/431 106/431/431
f 161/347/432 160/23/432 159/421/432
f 160/23/433 158/21/433 159/421/433
f 388/428/434 158/21/434 386/20/434
f 203/18/435 111/15/435 104/363/435
f 202/17/436 288/33/436 110/16/436
f 110/16/437 116/35/437 118/12/437
f 111/15/438 119/14/438 104/363/438
f 118/12/439 116/35/439 117/13/439
f 154/9/440 106/348/440 119/11/440
f 150/37/441 153/7/441 117/10/441
f 155/8/442 157/341/442 154/9/442
f 152/6/443 156/342/443 155/8/443
f 150/37/444 151/2/444 153/7/444
f 372/25/30 152/6/30 130/5/30
f 114/54/445 129/43/445 130/336/445
f 200/337/351 114/432/351 113/39/351
f 151/2/446 115/38/446 113/3/446
o Object.2
v 0.020115 -0.092276 -0.021772
v 0.012131 -0.098981 -0.019524
v 0.011085 -0.111500 -0.054522
v 0.014805 -0.116228 -0.058087
v 0.017479 -0.114368 -0.008943
v 0.021898 -0.092804 -0.058494
v 0.014799 -0.116511 -0.058494
v 0.014873 -0.116665 -0.058494
v 0.014837 -0.116335 -0.058494
v 0.014973 -0.115722 -0.058494
v 0.013227 -0.108604 -0.058494
v 0.021923 -0.077750 -0.019479
v 0.021923 -0.085243 -0.029022
v 0.021923 -0.081534 -0.033554
v 0.021923 -0.088850 -0.012772
v 0.021923 -0.087472 -0.005907
v 0.021923 -0.088975 -0.018747
v 0.021923 -0.109240 -0.058494
v 0.021923 -0.110721 -0.058494
v 0.021923 -0.108726 -0.058494
v 0.021923 -0.107095 -0.058494
v 0.021923 -0.105851 -0.058494
v 0.021923 -0.092807 -0.058494
v 0.021923 -0.092794 -0.058494
v 0.021923 -0.092691 -0.058221
v 0.021923 -0.090479 -0.049489
v 0.021923 -0.090362 -0.049031
v 0.021923 -0.089510 -0.046228
v 0.021923 -0.108952 -0.010840
v 0.021923 -0.110513 -0.009923
v 0.021923 -0.128111 -0.033035
v 0.021923 -0.130516 -0.044448
v 0.021923 -0.116855 -0.008265
v 0.021923 -0.120205 -0.058494
v 0.021923 -0.129893 -0.058494
v 0.021923 -0.120117 -0.058494
v 0.021923 -0.119969 -0.058494
v 0.021923 -0.119453 -0.058494
v 0.021923 -0.115943 -0.058494
v 0.021923 -0.129818 -0.058394
v 0.021923 -0.125817 -0.053146
v 0.021923 -0.130153 -0.045864
vn -0.0000 -0.0000 -1.0000
vn -0.0003 -0.0000 -1.0000
vn -0.0001 0.0005 -1.0000
vn 1.0000 -0.0000 -0.0000
vn 1.0000 -0.0000 -0.0002
vn -0.9604 -0.2521 0.1189
vn -0.2417 0.4914 0.8367
vn -0.2417 0.4913 0.8367
vn -0.8858 -0.4541 0.0957
vn -0.8266 -0.5451 -0.1397
vn -0.8729 0.0318 0.4869
vn -0.8731 0.4874 -0.0102
vn -0.6601 0.7365 -0.1478
vn -0.4266 0.7000 0.5728
vn -0.4266 0.7000 0.5727
vn -0.8702 0.4776 -0.1210
vn -0.3658 0.8702 -0.3301
vn -0.8643 0.4812 -0.1463
vn -0.7966 -0.1954 -0.5721
vn -0.9677 0.2151 -0.1312
vn -0.9694 0.2086 -0.1297
vn -0.8598 -0.4129 0.3004
vn -0.8308 -0.4427 0.3373
vn -0.8308 -0.4428 0.3372
vn -0.8307 -0.4427 0.3375
vn -0.9152 0.3410 -0.2146
vn -0.9841 0.1398 -0.1097
vn -0.6257 -0.6702 -0.3992
vn -0.4970 -0.7900 0.3590
vn -0.0061 0.2530 0.9675
vn -0.7376 -0.1512 0.6581
vt 0.000000 0.000000
vt 0.186768 0.114014
vt 0.193115 0.102783
vt 0.194336 0.113037
vt 0.192845 0.115139
vt 0.193513 0.114889
vt 0.200942 0.107474
vt 0.202120 0.104877
vt 0.194580 0.101074
vt 0.201792 0.104388
vt 0.181827 0.119709
vt 0.177858 0.122813
vt 0.181885 0.117676
vt 0.183427 0.120285
vt 0.185338 0.121570
vt 0.176626 0.115669
vt 0.178296 0.116809
vt 0.178354 0.109838
vt 0.178195 0.110017
vt 0.191913 0.102237
vt 0.181370 0.106426
vt 0.209012 0.144271
vt 0.209138 0.144235
vt 0.209144 0.144243
vt 0.181494 0.106308
vt 0.177796 0.110874
vt 0.194384 0.101053
vt 0.309047 0.170390
vt 0.308880 0.170025
vt 0.309082 0.169922
vt 0.308854 0.169922
vt 0.308760 0.169869
vt 0.299487 0.164646
vt 0.299430 0.164646
vt 0.302484 0.164677
vt 0.201686 0.102258
vt 0.196379 0.113966
s 0
usemtl Mat_0.003
f 429/433/447 402/433/447 430/433/447
f 430/433/447 402/433/447 403/433/447
f 430/433/447 403/433/447 431/433/447
f 432/433/447 431/433/447 403/433/447
f 432/433/447 403/433/447 404/433/447
f 432/433/447 404/433/447 412/433/447
f 414/433/447 413/433/447 404/433/447
f 415/433/447 414/433/447 404/433/447
f 415/433/447 404/433/447 399/433/447
f 415/433/448 399/433/448 416/433/448
f 417/433/449 416/433/449 399/433/449
f 413/433/447 411/433/447 404/433/447
f 411/433/447 412/433/447 404/433/447
f 427/433/447 428/433/447 401/433/447
f 427/433/447 401/433/447 400/433/447
f 427/433/447 400/433/447 429/433/447
f 429/433/447 400/433/447 402/433/447
f 423/433/450 424/433/450 422/433/450
f 424/433/450 409/433/450 422/433/450
f 425/433/450 409/433/450 424/433/450
f 410/433/450 425/433/450 435/433/450
f 434/433/450 410/433/450 435/433/450
f 410/433/450 434/433/450 405/433/450
f 430/433/450 407/433/450 406/433/450
f 406/433/450 429/433/450 430/433/450
f 421/433/450 432/433/450 412/433/450
f 421/433/450 412/433/450 411/433/450
f 421/433/450 411/433/450 413/433/450
f 414/433/450 421/433/450 413/433/450
f 420/433/450 415/433/450 416/433/450
f 420/433/450 416/433/450 417/433/450
f 420/433/451 417/433/451 419/433/451
f 419/433/450 417/433/450 418/433/450
f 420/433/450 414/433/450 415/433/450
f 414/433/450 420/433/450 421/433/450
f 432/433/450 421/433/450 407/433/450
f 432/433/450 407/433/450 431/433/450
f 406/433/450 433/433/450 428/433/450
f 406/433/450 428/433/450 427/433/450
f 406/433/450 434/433/450 433/433/450
f 406/433/450 427/433/450 429/433/450
f 407/433/450 430/433/450 431/433/450
f 434/433/450 406/433/450 405/433/450
f 425/433/450 410/433/450 408/433/450
f 409/433/450 425/433/450 408/433/450
f 424/433/450 423/433/450 426/433/450
f 395/434/452 396/435/452 398/436/452
f 422/437/453 395/434/453 398/436/453
f 422/437/454 398/436/454 423/438/454
f 424/439/455 396/435/455 425/440/455
f 425/440/456 396/435/456 397/441/456
f 425/440/456 397/441/456 435/442/456
f 410/443/457 405/444/457 394/445/457
f 408/446/458 410/443/458 394/445/458
f 408/446/459 394/445/459 395/434/459
f 408/446/459 395/434/459 409/447/459
f 407/448/460 395/434/460 394/445/460
f 407/448/461 394/445/461 406/449/461
f 419/450/462 396/435/462 420/451/462
f 419/450/462 404/452/462 396/435/462
f 418/453/462 404/452/462 419/450/462
f 418/454/463 417/455/463 399/456/463
f 418/453/462 399/457/462 404/452/462
f 420/451/464 395/434/464 421/458/464
f 403/459/465 396/435/465 404/452/465
f 403/460/466 402/461/466 397/462/466
f 402/461/467 400/463/467 397/462/467
f 400/463/468 401/464/468 397/462/468
f 433/465/469 397/462/469 401/464/469
f 433/465/470 401/464/470 428/466/470
f 433/465/471 434/467/471 397/462/471
f 407/448/472 421/458/472 395/434/472
f 405/444/473 406/449/473 394/445/473
f 434/468/474 435/442/474 397/441/474
f 403/459/465 397/441/465 396/435/465
f 424/439/475 426/469/475 398/436/475
f 426/469/476 423/438/476 398/436/476
f 422/437/477 409/447/477 395/434/477
f 424/439/455 398/436/455 396/435/455
f 420/451/464 396/435/464 395/434/464
