# Blender v3.2.0 OBJ File: ''
# www.blender.org
mtllib PallOfAshesCloud.mtl
o Pall_of_Ashes_(Cloud)
v 2.690160 -0.191273 2.690158
v 2.413560 -0.191273 2.940896
v 2.578321 -0.191273 2.578320
v 2.025721 0.191274 -3.031764
v 1.793457 0.191274 -3.355296
v 1.718865 0.191274 -3.215698
v 2.025721 -0.191273 3.031764
v 2.313105 -0.191273 2.818572
v 2.113693 -0.191273 3.163274
v 2.313105 0.191274 -2.818572
v 2.113693 0.191274 -3.163274
v 1.104354 0.191274 -3.640683
v 1.395333 0.191274 -3.368676
v 1.455945 0.191274 -3.514865
v 1.793457 -0.191273 3.355296
v -0.000048 0.191274 3.646275
v 0.372912 0.191274 3.786173
v 0.357434 0.191274 3.628700
v -0.000048 0.191274 3.804546
v 0.742178 0.191274 3.731352
v 1.395333 -0.191273 3.368676
v 1.718865 -0.191273 3.215698
v 1.455945 -0.191273 3.514865
v -3.731350 -0.191273 0.742176
v -3.640681 -0.191273 1.104352
v -3.640681 0.191274 1.104352
v -3.731350 0.191274 0.742176
v -3.514863 -0.191273 1.455944
v -3.514863 0.191274 1.455944
v 1.104354 -0.191273 3.640683
v -3.628699 0.191274 0.357433
v -3.576174 0.191274 0.711321
v 2.578321 0.191274 -2.578320
v 2.413560 0.191274 -2.940895
v 2.940897 0.191274 -2.413558
v 2.690160 0.191274 -2.690158
v 0.711322 -0.191273 3.576176
v 1.058420 -0.191273 3.489202
v 0.357434 -0.191273 3.628700
v 0.742178 -0.191273 3.731352
v -0.000048 0.191274 -3.804546
v -0.372909 0.191274 -3.786172
v -0.000048 0.191274 -3.646275
v 0.357434 0.191274 -3.628700
v 0.372912 0.191274 -3.786172
v 0.742178 0.191274 -3.731352
v -0.000048 -0.191273 3.804546
v -0.372909 0.191274 3.786173
v -0.372909 -0.191273 3.786173
v -3.489200 0.191274 -1.058419
v -3.640681 0.191274 -1.104352
v -3.576174 0.191274 -0.711321
v -2.313102 0.191274 -2.818572
v -2.413557 0.191274 -2.940895
v -2.578318 0.191274 -2.578320
v -3.355294 0.191274 -1.793455
v -3.514863 0.191274 -1.455944
v -3.215696 0.191274 -1.718863
v -0.357431 -0.191273 3.628700
v -0.357431 0.191274 3.628700
v -0.000048 -0.191273 3.646275
v 0.372912 -0.191273 3.786173
v -2.025718 0.191274 -3.031764
v -2.113690 0.191274 -3.163274
v -3.368675 0.191274 -1.395331
v -3.031762 0.191274 -2.025719
v -0.711319 0.191274 3.576176
v -2.940894 0.191274 -2.413558
v -3.163272 0.191274 -2.113692
v -2.818571 0.191274 -2.313103
v -1.718862 0.191274 -3.215698
v -1.793454 0.191274 -3.355296
v -2.690156 0.191274 -2.690158
v -1.395330 0.191274 -3.368676
v -1.455942 0.191274 -3.514865
v -3.355294 -0.191273 1.793455
v -3.355294 0.191274 1.793455
v -1.058417 0.191274 -3.489202
v -1.104351 0.191274 -3.640683
v 3.489204 0.191274 1.058419
v 3.489204 -0.191273 1.058419
v 3.368678 -0.191273 1.395331
v 3.368678 0.191274 1.395331
v -0.742175 0.191274 -3.731352
v -0.711319 0.191274 -3.576176
v -3.163272 -0.191273 2.113692
v -3.163272 0.191274 2.113692
v 3.215699 -0.191273 1.718863
v 3.215699 0.191274 1.718863
v -3.786171 0.191274 0.372911
v -3.646273 0.191274 0.000050
v -3.804544 0.191274 0.000050
v -3.628699 0.191274 -0.357433
v -3.786171 0.191274 -0.372910
v -3.731350 0.191274 -0.742176
v -0.357431 0.191274 -3.628700
v 3.031765 -0.191273 2.025719
v 3.031765 0.191274 2.025719
v -2.940894 -0.191273 2.413558
v -2.940894 0.191274 2.413558
v 2.818574 -0.191273 2.313103
v 2.818574 0.191274 2.313103
v -2.690156 -0.191273 2.690158
v -2.690156 0.191274 2.690158
v 3.031765 0.191274 -2.025719
v 3.163275 0.191274 -2.113692
v 2.818574 0.191274 -2.313103
v 2.578321 0.191274 2.578320
v -1.395330 0.191274 3.368676
v -1.104351 0.191274 3.640683
v -1.058417 0.191274 3.489202
v 3.215699 0.191274 -1.718863
v 3.355297 0.191274 -1.793455
v -1.718862 0.191274 3.215698
v -1.455942 0.191274 3.514865
v -2.413557 -0.191273 2.940896
v -2.413557 0.191274 2.940896
v 2.313105 0.191274 2.818572
v 3.368678 0.191274 -1.395331
v 3.514867 0.191274 -1.455944
v -2.025718 0.191274 3.031764
v -1.793454 0.191274 3.355296
v 2.025721 0.191274 3.031764
v 3.489204 0.191274 -1.058419
v 3.640685 0.191274 -1.104352
v -2.113690 -0.191273 3.163274
v -2.113690 0.191274 3.163274
v -2.313102 0.191274 2.818572
v 3.731353 0.191274 -0.742176
v 3.576178 0.191274 -0.711321
v 1.718865 0.191274 3.215698
v -2.578318 0.191274 2.578320
v 3.628702 0.191274 -0.357433
v -1.793454 -0.191273 3.355296
v 1.395333 0.191274 3.368676
v -2.818571 0.191274 2.313103
v 3.646277 0.191274 0.000050
v 3.786174 0.191274 -0.372910
v -1.455942 -0.191273 3.514865
v 1.058420 0.191274 3.489202
v -3.031762 0.191274 2.025719
v -1.104351 -0.191273 3.640683
v -3.215696 0.191274 1.718863
v 3.640685 0.191274 1.104352
v 3.576178 0.191274 0.711321
v 3.640685 -0.191273 -1.104352
v -3.368675 0.191274 1.395331
v 3.355297 -0.191273 -1.793455
v 3.804548 0.191274 0.000050
v 3.628702 0.191274 0.357433
v 3.786174 0.191274 0.372911
v 3.731353 0.191274 0.742176
v 3.514867 -0.191273 -1.455944
v -0.742175 -0.191273 3.731352
v -0.742175 0.191274 3.731352
v 3.163275 -0.191273 -2.113692
v -3.489200 0.191274 1.058419
v -0.711319 -0.191273 3.576176
v 2.940897 -0.191273 -2.413558
v -1.058417 -0.191273 3.489202
v 2.818574 -0.191273 -2.313103
v 3.031765 -0.191273 -2.025719
v 2.690160 -0.191273 -2.690158
v 3.514867 0.191274 1.455944
v -1.395330 -0.191273 3.368676
v 2.413560 -0.191273 -2.940895
v 3.215699 -0.191273 -1.718863
v 2.113693 -0.191273 -3.163274
v 3.355297 0.191274 1.793455
v -1.718862 -0.191273 3.215698
v 3.368678 -0.191273 -1.395331
v 1.793457 -0.191273 -3.355296
v -2.025718 -0.191273 3.031764
v 3.489204 -0.191273 -1.058419
v 3.163275 0.191274 2.113692
v 3.576178 -0.191273 -0.711321
v -2.313102 -0.191273 2.818572
v 1.455945 -0.191273 -3.514865
v 2.940897 0.191274 2.413558
v 3.628702 -0.191273 -0.357433
v -2.578318 -0.191273 2.578320
v 2.413560 0.191274 2.940896
v 3.646277 -0.191273 0.000050
v 1.104354 -0.191273 -3.640683
v -2.818571 -0.191273 2.313103
v 0.742178 -0.191273 -3.731352
v 3.628702 -0.191273 0.357433
v 2.113693 0.191274 3.163274
v -3.031762 -0.191273 2.025719
v 3.576178 -0.191273 0.711321
v 1.793457 0.191274 3.355296
v 2.690160 0.191274 2.690158
v 0.372912 -0.191273 -3.786172
v -3.215696 -0.191273 1.718863
v -0.000048 -0.191273 -3.804546
v 1.455945 0.191274 3.514865
v -3.368675 -0.191273 1.395331
v -0.372909 -0.191273 -3.786172
v -3.489200 -0.191273 1.058419
v 1.104354 0.191274 3.640683
v 0.711322 0.191274 3.576176
v -0.742175 -0.191273 -3.731352
v -0.357431 -0.191273 -3.628700
v -0.000048 -0.191273 -3.646275
v -3.628699 -0.191273 0.357433
v -3.576174 -0.191273 0.711321
v 0.357434 -0.191273 -3.628700
v -3.163272 -0.191273 -2.113692
v -3.355294 -0.191273 -1.793455
v -3.514863 -0.191273 -1.455944
v 0.711322 -0.191273 -3.576176
v 0.711322 0.191274 -3.576176
v -3.628699 -0.191273 -0.357433
v -3.731350 -0.191273 -0.742176
v -3.576174 -0.191273 -0.711321
v 1.058420 -0.191273 -3.489202
v 1.058420 0.191274 -3.489202
v -3.489200 -0.191273 -1.058419
v -3.640681 -0.191273 -1.104352
v 1.395333 -0.191273 -3.368676
v -3.368675 -0.191273 -1.395331
v -3.215696 -0.191273 -1.718863
v 1.718865 -0.191273 -3.215698
v -3.031762 -0.191273 -2.025719
v -3.786171 -0.191273 -0.372910
v 2.025721 -0.191273 -3.031764
v -3.804544 -0.191273 0.000050
v -2.818571 -0.191273 -2.313103
v 2.940897 -0.191273 2.413558
v 2.313105 -0.191273 -2.818572
v -3.786171 -0.191273 0.372911
v 2.578321 -0.191273 -2.578320
v -3.646273 -0.191273 0.000050
v 3.163275 -0.191273 2.113692
v -1.104351 -0.191273 -3.640683
v -1.455942 -0.191273 -3.514865
v 3.355297 -0.191273 1.793455
v -1.793454 -0.191273 -3.355296
v -2.113690 -0.191273 -3.163274
v 3.514867 -0.191273 1.455944
v -2.413557 -0.191273 -2.940895
v 3.640685 -0.191273 1.104352
v -2.690156 -0.191273 -2.690158
v -2.940894 -0.191273 -2.413558
v -2.578318 -0.191273 -2.578320
v -2.313102 -0.191273 -2.818572
v -2.025718 -0.191273 -3.031764
v -1.718862 -0.191273 -3.215698
v -1.395330 -0.191273 -3.368676
v -1.058417 -0.191273 -3.489202
v -0.711319 -0.191273 -3.576176
v 3.731353 -0.191273 0.742176
v 3.786174 -0.191273 0.372911
v 3.804548 -0.191273 0.000050
v 3.786174 -0.191273 -0.372910
v 3.731353 -0.191273 -0.742176
vn 0.0000 -1.0000 0.0000
vn 0.0000 1.0000 -0.0000
vn -0.9701 0.0000 0.2428
vn -0.9415 0.0000 0.3369
vn -0.0492 0.0000 0.9988
vn 0.0491 0.0000 -0.9988
vn 0.1468 0.0000 -0.9892
vn -0.9041 0.0000 0.4274
vn -0.9416 0.0000 -0.3368
vn -0.8576 0.0000 0.5143
vn -0.9040 0.0000 -0.4275
vn -0.8577 0.0000 -0.5141
vn -0.8032 0.0000 0.5957
vn -0.8031 0.0000 -0.5958
vn -0.7409 0.0000 0.6716
vn -0.7411 0.0000 -0.6714
vn -0.6716 0.0000 0.7409
vn -0.6714 0.0000 -0.7411
vn -0.5958 0.0000 -0.8031
vn -0.5957 0.0000 0.8032
vn -0.5141 0.0000 -0.8577
vn -0.5143 0.0000 0.8576
vn -0.4275 0.0000 -0.9040
vn -0.4274 0.0000 0.9041
vn -0.3368 0.0000 -0.9416
vn -0.3369 0.0000 0.9415
vn 0.9415 0.0000 -0.3369
vn 0.9041 0.0000 -0.4274
vn -0.2428 0.0000 0.9701
vn -0.2429 0.0000 0.9701
vn 0.8576 0.0000 -0.5143
vn -0.1469 0.0000 0.9892
vn 0.8032 0.0000 -0.5957
vn 0.2431 0.0000 -0.9700
vn -0.7411 0.0000 0.6714
vn -0.8031 0.0000 0.5958
vn 0.7409 0.0000 -0.6716
vn 0.3368 0.0000 -0.9416
vn 0.6716 0.0000 -0.7409
vn -0.8577 0.0000 0.5141
vn 0.5957 0.0000 -0.8032
vn 0.4275 0.0000 -0.9040
vn -0.9040 0.0000 0.4275
vn 0.5143 0.0000 -0.8576
vn 0.5141 0.0000 -0.8577
vn -0.9416 0.0000 0.3368
vn -0.9700 0.0000 0.2431
vn 0.5958 0.0000 -0.8031
vn 0.4274 0.0000 -0.9041
vn -0.9892 0.0000 0.1468
vn 0.6714 0.0000 -0.7411
vn -0.9988 0.0000 0.0491
vn 0.3369 0.0000 -0.9415
vn 0.7411 0.0000 -0.6714
vn 0.2428 0.0000 -0.9701
vn -0.9988 0.0000 -0.0491
vn 0.8031 0.0000 -0.5958
vn 0.2429 0.0000 -0.9701
vn -0.9892 0.0000 -0.1468
vn 0.8577 0.0000 -0.5141
vn 0.0492 0.0000 -0.9988
vn -0.9700 0.0000 -0.2431
vn 0.9040 0.0000 -0.4275
vn -0.0492 0.0000 -0.9988
vn 0.0492 0.0000 0.9988
vn 0.1469 0.0000 0.9892
vn 0.9416 0.0000 -0.3368
vn 0.2429 0.0000 0.9701
vn 0.9700 0.0000 -0.2431
vn 0.2428 0.0000 0.9701
vn -0.2431 0.0000 -0.9700
vn 0.3369 0.0000 0.9415
vn -0.1468 0.0000 -0.9892
vn 0.1468 0.0000 0.9892
vn 0.4274 0.0000 0.9041
vn -0.0491 0.0000 -0.9988
vn 0.0491 0.0000 0.9988
vn -0.0491 0.0000 0.9988
vn 0.5143 0.0000 0.8576
vn -0.8576 0.0000 -0.5143
vn -0.9041 0.0000 -0.4274
vn -0.1468 0.0000 0.9892
vn -0.2431 0.0000 0.9700
vn 0.5957 0.0000 0.8032
vn -0.3368 0.0000 0.9416
vn -0.9415 0.0000 -0.3369
vn -0.4275 0.0000 0.9040
vn -0.9701 0.0000 -0.2428
vn 0.6716 0.0000 0.7409
vn -0.9892 0.0000 -0.1469
vn -0.5141 0.0000 0.8577
vn -0.9988 0.0000 -0.0492
vn 0.7409 0.0000 0.6716
vn -0.5958 0.0000 0.8031
vn -0.9988 0.0000 0.0492
vn -0.9892 0.0000 0.1469
vn -0.6714 0.0000 0.7411
vn 0.8032 0.0000 0.5957
vn 0.9892 0.0000 -0.1468
vn -0.2428 0.0000 -0.9701
vn -0.2429 0.0000 -0.9701
vn 0.9988 0.0000 -0.0491
vn -0.3369 0.0000 -0.9415
vn 0.8576 0.0000 0.5143
vn 0.9988 0.0000 0.0491
vn -0.4274 0.0000 -0.9041
vn 0.9892 0.0000 0.1468
vn -0.5143 0.0000 -0.8576
vn 0.9700 0.0000 0.2431
vn 0.9041 0.0000 0.4274
vn -0.5957 0.0000 -0.8032
vn 0.9416 0.0000 0.3368
vn 0.9415 0.0000 0.3369
vn 0.9040 0.0000 0.4275
vn -0.6716 0.0000 -0.7409
vn 0.8577 0.0000 0.5141
vn 0.8031 0.0000 0.5958
vn 0.9701 0.0000 0.2428
vn -0.7409 0.0000 -0.6716
vn 0.7411 0.0000 0.6714
vn -0.8032 0.0000 -0.5957
vn 0.6714 0.0000 0.7411
vn 0.5958 0.0000 0.8031
vn 0.5141 0.0000 0.8577
vn 0.4275 0.0000 0.9040
vn 0.3368 0.0000 0.9416
vn 0.2431 0.0000 0.9700
vn 0.9701 0.0000 0.2429
vn 0.9988 0.0000 0.0492
vn 0.9988 0.0000 -0.0492
vn 0.9701 0.0000 -0.2428
vn 0.9701 0.0000 -0.2429
usemtl None
s off
f 1//1 2//1 3//1
f 4//2 5//2 6//2
f 7//1 8//1 9//1
f 2//1 9//1 8//1
f 8//1 3//1 2//1
f 10//2 11//2 4//2
f 12//2 13//2 14//2
f 9//1 15//1 7//1
f 16//2 17//2 18//2
f 17//2 16//2 19//2
f 20//2 18//2 17//2
f 14//2 6//2 5//2
f 21//1 22//1 23//1
f 15//1 23//1 22//1
f 22//1 7//1 15//1
f 24//3 25//3 26//3
f 24//3 26//3 27//3
f 25//4 28//4 29//4
f 25//4 29//4 26//4
f 23//1 30//1 21//1
f 31//2 27//2 32//2
f 33//2 34//2 10//2
f 35//2 36//2 33//2
f 36//2 34//2 33//2
f 11//2 10//2 34//2
f 5//2 4//2 11//2
f 37//1 38//1 30//1
f 38//1 21//1 30//1
f 39//1 37//1 40//1
f 30//1 40//1 37//1
f 41//2 42//2 43//2
f 44//2 45//2 43//2
f 46//2 45//2 44//2
f 41//2 43//2 45//2
f 47//5 19//5 48//5
f 47//5 48//5 49//5
f 50//2 51//2 52//2
f 53//2 54//2 55//2
f 56//2 57//2 58//2
f 59//6 60//6 16//6
f 59//6 16//6 61//6
f 47//1 49//1 61//1
f 39//1 62//1 61//1
f 40//1 62//1 39//1
f 47//1 61//1 62//1
f 63//2 64//2 53//2
f 50//2 65//2 51//2
f 66//2 56//2 58//2
f 59//7 67//7 60//7
f 68//2 69//2 70//2
f 65//2 58//2 57//2
f 51//2 65//2 57//2
f 71//2 72//2 63//2
f 54//2 73//2 55//2
f 68//2 55//2 73//2
f 74//2 75//2 71//2
f 55//2 68//2 70//2
f 66//2 70//2 69//2
f 56//2 66//2 69//2
f 28//8 76//8 77//8
f 28//8 77//8 29//8
f 78//2 79//2 74//2
f 72//2 64//2 63//2
f 54//2 53//2 64//2
f 80//9 81//9 82//9
f 80//9 82//9 83//9
f 84//2 79//2 85//2
f 76//10 86//10 87//10
f 76//10 87//10 77//10
f 83//11 82//11 88//11
f 83//11 88//11 89//11
f 27//2 31//2 90//2
f 31//2 91//2 90//2
f 92//2 90//2 91//2
f 93//2 94//2 91//2
f 52//2 95//2 93//2
f 95//2 52//2 51//2
f 94//2 93//2 95//2
f 92//2 91//2 94//2
f 78//2 85//2 79//2
f 72//2 71//2 75//2
f 85//2 96//2 84//2
f 97//12 98//12 89//12
f 97//12 89//12 88//12
f 86//13 99//13 100//13
f 86//13 100//13 87//13
f 75//2 74//2 79//2
f 101//14 102//14 98//14
f 101//14 98//14 97//14
f 99//15 103//15 104//15
f 99//15 104//15 100//15
f 105//2 106//2 107//2
f 3//16 108//16 102//16
f 3//16 102//16 101//16
f 109//2 110//2 111//2
f 112//2 113//2 105//2
f 114//2 115//2 109//2
f 67//2 111//2 110//2
f 116//17 117//17 104//17
f 116//17 104//17 103//17
f 8//18 118//18 108//18
f 8//18 108//18 3//18
f 119//2 120//2 112//2
f 106//2 35//2 107//2
f 33//2 107//2 35//2
f 121//2 122//2 114//2
f 110//2 109//2 115//2
f 7//19 123//19 118//19
f 7//19 118//19 8//19
f 124//2 125//2 119//2
f 126//20 127//20 117//20
f 126//20 117//20 116//20
f 128//2 127//2 121//2
f 129//2 125//2 130//2
f 120//2 113//2 112//2
f 106//2 105//2 113//2
f 22//21 131//21 123//21
f 22//21 123//21 7//21
f 132//2 117//2 128//2
f 115//2 114//2 122//2
f 133//2 129//2 130//2
f 127//22 126//22 122//22
f 134//22 122//22 126//22
f 21//23 135//23 131//23
f 21//23 131//23 22//23
f 136//2 100//2 132//2
f 122//2 121//2 127//2
f 137//2 138//2 133//2
f 124//2 130//2 125//2
f 120//2 119//2 125//2
f 139//24 115//24 134//24
f 38//25 140//25 135//25
f 38//25 135//25 21//25
f 141//2 87//2 136//2
f 127//2 128//2 117//2
f 134//24 115//24 122//24
f 115//26 142//26 110//26
f 143//2 77//2 141//2
f 117//2 132//2 104//2
f 80//2 144//2 145//2
f 146//27 120//27 125//27
f 147//2 29//2 143//2
f 104//2 132//2 100//2
f 142//26 115//26 139//26
f 120//28 148//28 113//28
f 129//2 133//2 138//2
f 149//2 138//2 137//2
f 150//2 151//2 137//2
f 145//2 152//2 150//2
f 152//2 151//2 150//2
f 149//2 137//2 151//2
f 100//2 136//2 87//2
f 148//28 120//28 153//28
f 154//29 155//29 110//29
f 154//30 110//30 142//30
f 156//31 106//31 148//31
f 48//32 155//32 154//32
f 48//32 154//32 49//32
f 148//31 106//31 113//31
f 157//2 26//2 147//2
f 27//2 26//2 32//2
f 29//2 147//2 26//2
f 29//2 77//2 143//2
f 87//2 141//2 77//2
f 67//2 155//2 60//2
f 16//2 60//2 48//2
f 106//33 156//33 35//33
f 67//7 59//7 158//7
f 110//2 155//2 67//2
f 48//2 60//2 155//2
f 159//33 35//33 156//33
f 157//2 32//2 26//2
f 67//34 158//34 160//34
f 67//34 160//34 111//34
f 33//35 161//35 107//35
f 107//36 161//36 162//36
f 107//36 162//36 105//36
f 159//37 163//37 36//37
f 159//37 36//37 35//37
f 89//2 164//2 83//2
f 83//2 144//2 80//2
f 165//38 109//38 111//38
f 165//38 111//38 160//38
f 163//39 166//39 34//39
f 163//39 34//39 36//39
f 105//40 162//40 167//40
f 105//40 167//40 112//40
f 166//41 168//41 11//41
f 166//41 11//41 34//41
f 98//2 169//2 89//2
f 170//42 114//42 109//42
f 170//42 109//42 165//42
f 112//43 167//43 171//43
f 112//43 171//43 119//43
f 5//44 11//44 172//44
f 168//44 172//44 11//44
f 173//45 121//45 114//45
f 173//45 114//45 170//45
f 119//46 171//46 174//46
f 119//46 174//46 124//46
f 102//2 175//2 98//2
f 144//2 83//2 164//2
f 124//47 174//47 176//47
f 124//47 176//47 130//47
f 177//48 128//48 121//48
f 177//48 121//48 173//48
f 14//49 5//49 178//49
f 172//49 178//49 5//49
f 164//2 89//2 169//2
f 108//2 179//2 102//2
f 130//50 176//50 180//50
f 130//50 180//50 133//50
f 181//51 132//51 128//51
f 181//51 128//51 177//51
f 118//2 182//2 108//2
f 169//2 98//2 175//2
f 133//52 180//52 183//52
f 133//52 183//52 137//52
f 12//53 14//53 184//53
f 178//53 184//53 14//53
f 185//54 136//54 132//54
f 185//54 132//54 181//54
f 184//55 186//55 12//55
f 187//56 150//56 137//56
f 187//56 137//56 183//56
f 123//2 188//2 118//2
f 175//2 102//2 179//2
f 189//57 141//57 136//57
f 189//57 136//57 185//57
f 12//58 186//58 46//58
f 190//59 145//59 150//59
f 190//59 150//59 187//59
f 131//2 191//2 123//2
f 179//2 108//2 192//2
f 186//7 193//7 45//7
f 186//7 45//7 46//7
f 194//60 143//60 141//60
f 194//60 141//60 189//60
f 193//61 195//61 41//61
f 193//61 41//61 45//61
f 81//62 80//62 145//62
f 81//62 145//62 190//62
f 135//2 196//2 131//2
f 192//2 108//2 182//2
f 197//63 147//63 143//63
f 197//63 143//63 194//63
f 195//64 198//64 42//64
f 195//64 42//64 41//64
f 19//65 47//65 62//65
f 19//65 62//65 17//65
f 62//66 40//66 20//66
f 62//66 20//66 17//66
f 199//67 157//67 147//67
f 199//67 147//67 197//67
f 140//2 200//2 135//2
f 182//2 118//2 188//2
f 20//68 30//68 200//68
f 20//2 200//2 201//2
f 188//2 123//2 191//2
f 199//69 32//69 157//69
f 40//70 30//70 20//70
f 37//71 201//71 140//71
f 37//71 140//71 38//71
f 18//2 20//2 201//2
f 191//2 131//2 196//2
f 196//72 30//72 23//72
f 198//73 202//73 42//73
f 39//73 18//73 201//73
f 39//73 201//73 37//73
f 48//2 19//2 16//2
f 140//2 201//2 200//2
f 196//2 135//2 200//2
f 30//72 196//72 200//72
f 203//74 96//74 85//74
f 152//2 145//2 144//2
f 191//75 23//75 15//75
f 18//76 39//76 61//76
f 18//76 61//76 16//76
f 204//77 43//77 96//77
f 204//77 96//77 203//77
f 23//75 191//75 196//75
f 205//1 206//1 24//1
f 207//78 44//78 43//78
f 207//78 43//78 204//78
f 188//79 15//79 9//79
f 208//80 209//80 56//80
f 208//80 56//80 69//80
f 56//81 210//81 57//81
f 211//82 212//82 44//82
f 211//82 44//82 207//82
f 15//79 188//79 191//79
f 213//1 214//1 215//1
f 209//81 210//81 56//81
f 216//83 217//83 212//83
f 216//83 212//83 211//83
f 182//84 9//84 2//84
f 218//1 215//1 219//1
f 220//85 13//85 217//85
f 220//85 217//85 216//85
f 221//1 218//1 219//1
f 9//84 182//84 188//84
f 51//86 57//86 219//86
f 210//86 219//86 57//86
f 219//1 210//1 221//1
f 222//1 221//1 210//1
f 223//87 6//87 13//87
f 223//87 13//87 220//87
f 214//88 95//88 219//88
f 51//88 219//88 95//88
f 192//89 2//89 1//89
f 210//1 209//1 222//1
f 224//1 222//1 209//1
f 214//90 225//90 94//90
f 214//90 94//90 95//90
f 226//91 4//91 6//91
f 226//91 6//91 223//91
f 2//89 192//89 182//89
f 225//92 227//92 92//92
f 225//92 92//92 94//92
f 209//1 208//1 224//1
f 228//1 224//1 208//1
f 179//93 1//93 229//93
f 230//94 10//94 4//94
f 230//94 4//94 226//94
f 92//95 227//95 231//95
f 92//95 231//95 90//95
f 231//96 24//96 27//96
f 231//96 27//96 90//96
f 1//93 179//93 192//93
f 232//97 33//97 10//97
f 232//97 10//97 230//97
f 213//1 233//1 225//1
f 227//1 225//1 233//1
f 214//1 213//1 225//1
f 219//1 215//1 214//1
f 231//1 227//1 233//1
f 233//1 205//1 231//1
f 24//1 231//1 205//1
f 175//98 229//98 234//98
f 161//35 33//35 232//35
f 206//69 32//69 199//69
f 202//73 84//73 42//73
f 229//98 175//98 179//98
f 205//99 31//99 32//99
f 205//99 32//99 206//99
f 79//100 84//100 235//100
f 202//101 235//101 84//101
f 31//102 205//102 233//102
f 31//102 233//102 91//102
f 49//1 154//1 59//1
f 235//103 236//103 75//103
f 235//103 75//103 79//103
f 169//104 175//104 237//104
f 234//104 237//104 175//104
f 213//105 93//105 91//105
f 213//105 91//105 233//105
f 72//106 75//106 238//106
f 236//106 238//106 75//106
f 215//107 52//107 93//107
f 215//107 93//107 213//107
f 160//1 142//1 165//1
f 72//108 239//108 64//108
f 218//109 50//109 52//109
f 218//109 52//109 215//109
f 238//108 239//108 72//108
f 240//110 164//110 169//110
f 240//110 169//110 237//110
f 142//1 139//1 165//1
f 170//1 165//1 139//1
f 54//111 239//111 241//111
f 221//112 65//112 50//112
f 221//112 50//112 218//112
f 54//111 64//111 239//111
f 242//113 144//113 240//113
f 139//1 134//1 170//1
f 173//1 170//1 134//1
f 134//1 126//1 173//1
f 222//114 58//114 65//114
f 222//114 65//114 221//114
f 54//115 243//115 73//115
f 240//113 144//113 164//113
f 224//116 66//116 58//116
f 224//116 58//116 222//116
f 177//1 173//1 126//1
f 241//115 243//115 54//115
f 228//117 70//117 66//117
f 228//117 66//117 224//117
f 152//118 144//118 242//118
f 126//1 116//1 177//1
f 181//1 177//1 116//1
f 68//119 73//119 244//119
f 243//119 244//119 73//119
f 186//1 184//1 211//1
f 116//1 103//1 181//1
f 103//1 99//1 181//1
f 228//120 55//120 70//120
f 69//121 68//121 208//121
f 244//121 208//121 68//121
f 185//1 181//1 99//1
f 99//1 86//1 185//1
f 245//120 55//120 228//120
f 220//1 216//1 184//1
f 184//1 178//1 220//1
f 223//1 220//1 178//1
f 246//122 53//122 55//122
f 246//122 55//122 245//122
f 189//1 185//1 86//1
f 86//1 76//1 189//1
f 247//123 63//123 53//123
f 247//123 53//123 246//123
f 178//1 172//1 223//1
f 226//1 223//1 172//1
f 248//124 71//124 63//124
f 248//124 63//124 247//124
f 194//1 189//1 76//1
f 76//1 28//1 194//1
f 249//125 74//125 71//125
f 249//125 71//125 248//125
f 250//126 78//126 74//126
f 250//126 74//126 249//126
f 172//1 168//1 226//1
f 230//1 226//1 168//1
f 251//127 85//127 78//127
f 251//127 78//127 250//127
f 203//74 85//74 251//74
f 242//128 252//128 152//128
f 197//1 194//1 28//1
f 28//1 25//1 197//1
f 199//1 197//1 25//1
f 25//1 24//1 206//1
f 206//1 199//1 25//1
f 252//107 253//107 151//107
f 252//107 151//107 152//107
f 168//1 166//1 230//1
f 232//1 230//1 166//1
f 166//1 163//1 232//1
f 163//1 159//1 232//1
f 161//1 232//1 159//1
f 253//129 254//129 149//129
f 253//129 149//129 151//129
f 255//130 138//130 149//130
f 255//130 149//130 254//130
f 256//99 129//99 138//99
f 256//99 138//99 255//99
f 160//1 158//1 142//1
f 154//1 142//1 158//1
f 158//1 59//1 154//1
f 146//131 125//131 129//131
f 146//132 129//132 256//132
f 153//27 120//27 146//27
f 216//1 211//1 184//1
f 204//1 203//1 198//1
f 198//1 195//1 204//1
f 202//1 198//1 203//1
f 204//1 193//1 207//1
f 211//1 207//1 186//1
f 193//1 204//1 195//1
f 186//1 207//1 193//1
f 208//1 244//1 228//1
f 43//2 42//2 96//2
f 42//2 84//2 96//2
f 243//1 241//1 245//1
f 244//1 243//1 245//1
f 245//1 228//1 244//1
f 212//2 46//2 44//2
f 246//1 245//1 241//1
f 241//1 239//1 246//1
f 217//2 12//2 212//2
f 247//1 246//1 239//1
f 239//1 238//1 247//1
f 13//2 12//2 217//2
f 248//1 247//1 238//1
f 238//1 236//1 248//1
f 6//2 14//2 13//2
f 46//2 212//2 12//2
f 249//1 248//1 236//1
f 236//1 235//1 249//1
f 250//1 249//1 235//1
f 251//1 250//1 235//1
f 235//1 202//1 251//1
f 203//1 251//1 202//1
f 159//1 156//1 161//1
f 156//1 148//1 162//1
f 162//1 161//1 156//1
f 167//1 162//1 148//1
f 148//1 153//1 167//1
f 171//1 167//1 153//1
f 153//1 146//1 171//1
f 174//1 171//1 146//1
f 176//1 174//1 146//1
f 146//1 256//1 176//1
f 180//1 176//1 256//1
f 256//1 255//1 180//1
f 187//1 252//1 190//1
f 255//1 254//1 183//1
f 183//1 180//1 255//1
f 183//1 253//1 187//1
f 253//1 183//1 254//1
f 252//1 187//1 253//1
f 242//1 190//1 252//1
f 61//1 49//1 59//1
f 81//1 190//1 242//1
f 82//1 81//1 242//1
f 88//1 82//1 240//1
f 240//1 82//1 242//1
f 97//1 88//1 237//1
f 240//1 237//1 88//1
f 101//1 97//1 234//1
f 237//1 234//1 97//1
f 101//1 229//1 3//1
f 1//1 3//1 229//1
f 229//1 101//1 234//1
