# Blender 5.2.1 LTS
# www.blender.org
mtllib hunting dog colldier.mtl
o Object.1
v -0.033108 -0.203936 0.071076
v -0.057438 -0.158125 0.152544
v -0.010939 -0.221300 0.080843
v -0.032920 -0.174636 0.146575
v -0.021171 -0.193317 0.125569
v 0.028777 -0.197968 0.084486
v -0.040143 -0.177039 0.219672
v -0.025798 -0.202231 0.183550
v 0.037750 -0.168667 0.133320
v 0.058785 -0.186340 0.084099
v 0.053340 -0.161923 0.174093
v -0.035032 -0.211378 0.239360
v 0.075771 -0.174713 0.208820
v -0.008187 -0.142235 0.009413
v 0.061149 -0.124329 0.012514
v 0.007567 -0.144482 0.052356
v 0.105769 -0.211998 0.051155
v 0.092398 -0.193549 0.111074
v 0.057216 -0.213548 0.059953
v 0.097262 -0.155490 0.026660
v 0.060268 -0.135801 0.043907
v -0.001202 -0.174791 0.078285
v 0.073651 -0.146747 -0.000000
v 0.095336 -0.172825 -0.000000
v 0.055951 -0.126843 -0.000000
v 0.051377 -0.123386 -0.000000
v -0.001295 -0.137664 -0.000000
v -0.013685 -0.138181 -0.000000
v -0.015917 -0.142826 -0.000000
v -0.023620 -0.150028 -0.000000
v 0.111810 -0.247477 -0.000000
v 0.096710 -0.247477 -0.000000
v 0.105341 -0.247477 -0.000000
v 0.111383 -0.247477 -0.000000
v 0.111484 -0.247477 -0.000000
v 0.111516 -0.247477 -0.000000
v 0.091018 -0.247477 -0.000000
v 0.086411 -0.247477 -0.000000
v 0.078658 -0.247477 -0.000000
v 0.064528 -0.247477 -0.000000
v 0.073202 -0.247477 -0.000000
v 0.074443 -0.247477 -0.000000
v 0.075219 -0.247477 -0.000000
v 0.054821 -0.247477 -0.000000
v 0.026504 -0.247477 -0.000000
v 0.052360 -0.247477 -0.000000
v 0.001031 -0.247477 -0.000000
v -0.013849 -0.247477 -0.000000
v -0.000930 -0.247477 -0.000000
v -0.016574 -0.247477 -0.000000
v -0.024863 -0.247477 -0.000000
v -0.033083 -0.247477 -0.000000
v -0.054547 -0.247477 -0.000000
v -0.057256 -0.247477 -0.000000
v 0.025948 -0.247476 0.240564
v 0.031601 -0.247476 0.240564
v 0.010834 -0.247476 0.240564
v 0.007579 -0.247476 0.240564
v 0.003695 -0.247476 0.240564
v 0.002315 -0.247476 0.240564
v -0.003933 -0.247476 0.240564
v -0.005526 -0.247476 0.240564
v -0.007822 -0.247476 0.240564
v -0.009118 -0.247476 0.240564
v -0.060404 -0.247476 0.240564
v -0.037261 -0.211237 0.240564
v -0.034268 -0.211348 0.240564
v -0.033798 -0.209878 0.240564
v -0.034840 -0.211099 0.240564
v -0.018690 -0.191990 0.240564
v 0.033432 -0.164561 0.240564
v 0.047455 -0.157222 0.240564
v 0.054635 -0.161514 0.240564
v 0.085509 -0.247476 0.240564
v 0.088517 -0.247476 0.240564
v 0.081208 -0.247476 0.240564
v 0.080569 -0.247476 0.240564
v 0.078624 -0.247476 0.240564
v 0.076695 -0.247476 0.240564
v 0.042552 -0.247476 0.240564
v 0.036654 -0.247476 0.240564
v 0.032367 -0.247476 0.240564
v 0.092011 -0.247476 0.240564
v 0.088973 -0.247476 0.240564
v 0.097934 -0.247476 0.240564
v 0.107346 -0.177476 0.240564
v -0.064967 -0.247477 -0.000000
v -0.064967 -0.222658 -0.000000
v -0.064967 -0.247477 0.028627
v -0.064967 -0.168481 0.233893
v -0.064967 -0.167862 0.233567
v -0.064967 -0.181129 0.240564
v -0.064967 -0.184176 0.240564
v -0.064967 -0.184934 0.240564
v -0.064967 -0.247477 0.033539
v -0.064967 -0.247477 0.034826
v -0.064967 -0.247477 0.055158
v -0.064967 -0.247477 0.057532
v -0.064967 -0.247477 0.077579
v -0.064967 -0.247477 0.084799
v -0.064967 -0.247477 0.078651
v -0.064967 -0.243252 0.240564
v -0.064967 -0.247476 0.240564
v -0.064967 -0.216510 0.240564
v -0.064967 -0.247476 0.133212
v -0.064967 -0.247476 0.225706
v -0.064967 -0.247476 0.129937
v -0.064967 -0.247476 0.128564
v -0.064967 -0.202593 0.240564
v -0.064967 -0.202188 0.240564
v -0.064967 -0.185797 0.240564
v -0.064967 -0.159016 0.128262
v -0.064967 -0.158197 0.152041
v -0.064967 -0.154461 0.164597
v -0.064967 -0.174882 0.076145
v -0.064967 -0.191596 0.001111
v -0.064967 -0.190724 -0.000000
v -0.064967 -0.204578 -0.000000
v -0.064967 -0.204888 -0.000000
v -0.064967 -0.206050 -0.000000
v -0.064967 -0.210710 0.025438
v -0.064967 -0.213052 0.029481
v -0.064967 -0.162001 0.229494
v -0.064967 -0.157963 0.194089
v -0.064967 -0.185277 0.240564
v -0.064967 -0.247476 0.119872
v -0.064967 -0.247476 0.122240
v -0.064967 -0.247476 0.115049
v -0.064967 -0.247476 0.113463
v -0.064967 -0.247477 0.090224
v -0.064967 -0.207684 -0.000000
v -0.064967 -0.218981 -0.000000
v 0.114359 -0.229087 0.240564
v 0.114359 -0.247476 0.240564
v 0.114712 -0.247476 0.191309
v 0.114817 -0.247476 0.176635
v 0.114891 -0.247476 0.166361
v 0.114359 -0.224340 0.240564
v 0.114359 -0.220566 0.240564
v 0.114359 -0.220229 0.240564
v 0.114359 -0.217862 0.240564
v 0.114359 -0.216677 0.240564
v 0.114359 -0.209123 0.240564
v 0.115203 -0.247476 0.122800
v 0.115052 -0.247476 0.143854
v 0.115282 -0.247476 0.111736
v 0.115294 -0.247476 0.110121
v 0.114359 -0.206637 0.240564
v 0.114359 -0.202515 0.240564
v 0.114359 -0.186476 0.240564
v 0.115421 -0.247477 0.092350
v 0.115510 -0.247477 0.079960
v 0.115379 -0.247477 0.098172
v 0.115997 -0.247477 0.011980
v 0.115985 -0.247477 0.013668
v 0.115878 -0.247477 0.028620
v 0.115638 -0.247477 0.062008
v 0.115713 -0.247477 0.051641
v 0.115586 -0.247477 0.069366
v 0.115968 -0.185820 0.016029
v 0.115936 -0.182494 0.020489
v 0.115982 -0.187241 0.014123
v 0.116083 -0.215025 -0.000000
v 0.116083 -0.194409 -0.000000
v 0.116083 -0.223035 -0.000000
v 0.116083 -0.247477 -0.000000
v 0.116005 -0.247477 0.010860
v 0.116004 -0.247477 0.010948
v 0.115999 -0.247477 0.011632
v 0.115999 -0.247477 0.011642
v 0.115999 -0.247477 0.011717
v 0.115999 -0.247477 0.011748
v 0.114758 -0.189716 0.184919
v 0.115034 -0.187533 0.146444
v 0.115196 -0.195264 0.123740
v 0.115405 -0.204267 0.094656
v 0.115614 -0.211407 0.065475
v 0.115922 -0.193743 0.022442
v 0.115860 -0.199508 0.031091
v 0.115753 -0.247477 0.046090
v 0.115324 -0.247476 0.105953
v 0.115332 -0.247476 0.104838
v 0.115342 -0.247476 0.103383
v 0.115379 -0.247477 0.098236
v 0.114700 -0.190382 0.192979
v 0.114376 -0.180179 0.238273
v 0.114359 -0.184251 0.240564
v 0.114359 -0.179662 0.240564
v 0.115332 -0.247476 0.104736
v 0.115308 -0.247476 0.108142
v 0.115306 -0.247476 0.108369
v 0.114359 -0.208544 0.240564
v 0.114959 -0.247476 0.156888
v 0.115028 -0.247476 0.147244
v 0.114912 -0.247476 0.163395
v 0.114905 -0.247476 0.164324
vn -0.0000 -1.0000 -0.0000
vn -0.0000 -1.0000 0.0005
vn -0.0000 -1.0000 0.0010
vn -0.0000 -1.0000 -0.0003
vn -0.0001 -1.0000 -0.0000
vn -0.0000 -0.0000 -1.0000
vn -0.0000 -0.0000 1.0000
vn -0.0001 -0.0000 1.0000
vn -1.0000 -0.0000 -0.0000
vn 1.0000 -0.0000 -0.0000
vn 0.9495 -0.3136 -0.0000
vn 1.0000 -0.0000 0.0072
vn 1.0000 -0.0008 0.0064
vn 1.0000 -0.0000 0.0071
vn 1.0000 0.0001 0.0074
vn 1.0000 -0.0003 0.0064
vn 1.0000 -0.0004 0.0067
vn 1.0000 0.0007 0.0094
vn 1.0000 -0.0001 0.0068
vn 1.0000 -0.0000 0.0070
vn 1.0000 -0.0000 0.0069
vn 0.4036 0.9133 0.0547
vn 0.3995 0.9134 0.0783
vn 0.2911 0.9338 -0.2083
vn 0.2911 0.9337 -0.2083
vn -0.4612 0.8813 -0.1032
vn -0.4634 0.8805 -0.1004
vn -0.7638 0.6451 -0.0206
vn -0.7638 0.6451 -0.0207
vn -0.8178 0.2614 0.5126
vn 0.3851 0.8837 -0.2660
vn -0.0558 0.9746 -0.2168
vn 0.4521 0.4161 0.7889
vn 0.4523 0.4161 0.7889
vn 0.0099 0.9584 -0.2852
vn -0.0072 0.9994 -0.0344
vn 0.6369 0.7375 -0.2245
vn -0.6120 0.6218 0.4886
vn -0.6072 0.6494 0.4578
vn -0.7339 0.3527 0.5805
vn -0.0380 0.9096 0.4138
vn -0.2521 0.9301 0.2670
vn 0.2291 0.9303 -0.2864
vn 0.2420 0.9190 -0.3112
vn 0.3716 0.9014 -0.2221
vn 0.2257 0.9436 -0.2424
vn -0.4513 0.8920 0.0250
vn -0.3958 0.9119 0.1086
vn 0.9294 0.3465 0.1274
vn 0.8900 0.4444 0.1026
vn 0.5892 0.7387 -0.3273
vn -0.3844 0.7405 -0.5512
vn -0.2276 0.2402 0.9437
vn -0.2107 -0.0111 0.9775
vn -0.6705 0.6421 0.3716
vn -0.6698 0.6425 0.3722
vn -0.8010 0.5058 0.3203
vn 0.2851 0.5741 0.7675
vn 0.0488 0.5285 0.8475
vn -0.0997 0.9355 0.3390
vn 0.5533 0.7772 0.2996
vn 0.4852 0.1584 0.8599
vn 0.4966 0.1479 0.8553
vn 0.6955 0.5784 -0.4263
vn 0.6830 0.6073 -0.4057
vn 0.6812 0.6548 -0.3274
vn 0.0738 0.8296 0.5535
vn -0.4666 0.8369 0.2862
vn 0.2737 0.9347 -0.2267
vn -0.1542 0.6608 -0.7346
vn -0.2608 0.6492 -0.7145
vn 0.6856 0.1212 0.7178
vn -0.3217 0.8142 -0.4833
vn 0.4342 0.7967 -0.4204
vn 0.5705 0.8171 0.0832
vn 0.5430 0.8343 0.0952
vn 0.5570 0.4740 0.6820
vn -0.2988 0.8504 -0.4330
vn 0.3571 0.9122 -0.2012
vn 0.5577 0.7379 -0.3799
vn -0.2535 0.9567 0.1431
vn 0.5177 0.6622 -0.5417
vn 0.6585 0.7228 -0.2098
vn 0.5579 0.8241 0.0979
vn 0.5570 0.4739 0.6820
vn 0.4522 0.4161 0.7889
vn 0.9465 0.2546 0.1983
vn 0.5130 0.8582 -0.0153
vn 0.2839 0.9376 -0.2008
vt 0.000000 0.000000
vt 0.619404 0.971367
vt 0.618593 0.965153
vt 0.630371 0.969971
vt 0.901717 0.602805
vt 0.898926 0.589844
vt 0.905518 0.594727
vt 0.903176 0.602832
vt 0.911191 0.601590
vt 0.911513 0.600142
vt 0.911596 0.601527
vt 0.911676 0.589227
vt 0.901123 0.572998
vt 0.911745 0.586226
vt 0.912063 0.574884
vt 0.913574 0.569824
vt 0.913689 0.570200
vt 0.913865 0.569956
vt 0.913840 0.569798
vt 0.913925 0.569331
vt 0.910127 0.561324
vt 0.910004 0.561295
vt 0.894361 0.559047
vt 0.896605 0.559149
vt 0.894531 0.560547
vt 0.890042 0.558302
vt 0.877930 0.564697
vt 0.879905 0.557291
vt 0.063952 0.499682
vt 0.070808 0.506124
vt 0.063911 0.499846
vt 0.073730 0.507080
vt 0.071818 0.507231
vt 0.071962 0.507926
vt 0.073055 0.509107
vt 0.078857 0.517334
vt 0.076662 0.517140
vt 0.618628 0.961315
vt 0.618290 0.956467
vt 0.623047 0.959229
vt 0.630371 0.957764
vt 0.886475 0.587891
vt 0.893311 0.584229
vt 0.889160 0.569580
vt 0.905273 0.566895
vt 0.893066 0.565918
vt 0.881836 0.568848
vt 0.881592 0.572998
vt 0.092041 0.511230
vt 0.093262 0.502686
vt 0.094971 0.505859
vt 0.088867 0.506104
vt 0.726318 0.000488
vt 0.721924 0.006836
vt 0.710449 0.000244
vt 0.064887 0.495371
vt 0.070313 0.492432
vt 0.064851 0.496098
vt 0.714844 0.006592
vt 0.082520 0.507080
vt 0.083496 0.515625
vt 0.083496 0.523438
vt 0.092041 0.518555
vt 0.086051 0.528913
vt 0.087412 0.529576
vt 0.085739 0.530016
vt 0.078536 0.522425
vt 0.085832 0.529685
vt 0.077030 0.518248
vt 0.083424 0.531618
vt 0.081863 0.527555
vt 0.092285 0.526367
vt 0.088995 0.529059
vt 0.094458 0.527402
vt 0.099365 0.520508
vt 0.095947 0.516113
vt 0.097900 0.505615
vt 0.908329 0.560974
vt 0.902169 0.559910
vt 0.098138 0.525725
vt 0.869791 0.557915
vt 0.912642 0.561902
vt 0.911657 0.590692
s 0
usemtl Mat_0.001
f 55/1/1 54/1/1 56/1/1
f 79/1/1 80/1/1 52/1/1
f 79/1/1 52/1/1 51/1/1
f 79/1/1 51/1/1 78/1/1
f 95/1/1 57/1/1 58/1/1
f 95/1/1 58/1/1 96/1/1
f 87/1/1 55/1/1 89/1/1
f 89/1/1 55/1/1 57/1/1
f 97/1/1 59/1/1 98/1/1
f 99/1/1 98/1/1 59/1/1
f 99/1/1 60/1/1 101/1/1
f 100/1/1 101/1/1 60/1/1
f 100/1/1 61/1/1 130/1/1
f 129/1/1 130/1/1 61/1/1
f 129/1/1 62/1/1 128/1/1
f 126/1/1 128/1/1 62/1/1
f 126/1/1 62/1/1 63/1/1
f 126/1/1 63/1/1 127/1/1
f 108/1/1 64/1/1 107/1/1
f 105/1/1 107/1/1 64/1/1
f 105/1/1 64/1/1 65/1/1
f 105/1/1 65/1/1 106/1/1
f 81/1/1 53/1/1 52/1/1
f 77/1/1 50/1/1 48/1/1
f 151/1/1 39/1/1 38/1/1
f 151/1/1 38/1/1 152/1/1
f 153/1/2 184/1/2 39/1/2
f 183/1/1 39/1/1 184/1/1
f 183/1/1 43/1/1 39/1/1
f 183/1/1 189/1/1 43/1/1
f 189/1/1 182/1/1 43/1/1
f 181/1/1 43/1/1 182/1/1
f 181/1/1 190/1/1 42/1/1
f 190/1/1 191/1/1 42/1/1
f 147/1/1 42/1/1 191/1/1
f 147/1/1 146/1/1 41/1/1
f 144/1/1 41/1/1 146/1/1
f 144/1/1 40/1/1 41/1/1
f 83/1/1 47/1/1 45/1/1
f 135/1/1 45/1/1 46/1/1
f 135/1/1 46/1/1 136/1/1
f 137/1/1 44/1/1 196/1/1
f 195/1/1 196/1/1 44/1/1
f 193/1/1 195/1/1 44/1/1
f 193/1/1 40/1/1 194/1/1
f 145/1/1 194/1/1 40/1/1
f 157/1/1 37/1/1 32/1/1
f 157/1/1 32/1/1 158/1/1
f 156/1/1 33/1/1 34/1/1
f 156/1/1 34/1/1 155/1/1
f 166/1/1 167/1/1 31/1/1
f 167/1/1 168/1/1 31/1/1
f 169/1/1 31/1/1 168/1/1
f 169/1/1 170/1/1 36/1/1
f 171/1/1 36/1/1 170/1/1
f 171/1/3 172/1/3 35/1/3
f 154/1/1 35/1/1 172/1/1
f 154/1/1 155/1/1 34/1/1
f 180/1/1 33/1/1 156/1/1
f 180/1/1 32/1/1 33/1/1
f 154/1/1 34/1/1 35/1/1
f 171/1/4 35/1/4 36/1/4
f 169/1/1 36/1/1 31/1/1
f 180/1/1 158/1/1 32/1/1
f 159/1/1 37/1/1 157/1/1
f 159/1/1 38/1/1 37/1/1
f 137/1/1 136/1/1 46/1/1
f 134/1/1 45/1/1 135/1/1
f 137/1/1 46/1/1 44/1/1
f 193/1/1 44/1/1 40/1/1
f 144/1/1 145/1/1 40/1/1
f 147/1/1 41/1/1 42/1/1
f 181/1/1 42/1/1 43/1/1
f 159/1/1 152/1/1 38/1/1
f 151/1/1 153/1/1 39/1/1
f 74/1/1 48/1/1 49/1/1
f 75/1/1 49/1/1 47/1/1
f 103/1/1 106/1/1 65/1/1
f 108/1/1 63/1/1 64/1/1
f 108/1/1 127/1/1 63/1/1
f 97/1/1 96/1/1 58/1/1
f 89/1/5 57/1/5 95/1/5
f 97/1/1 58/1/1 59/1/1
f 99/1/1 59/1/1 60/1/1
f 100/1/1 60/1/1 61/1/1
f 129/1/1 61/1/1 62/1/1
f 134/1/1 85/1/1 45/1/1
f 83/1/1 45/1/1 85/1/1
f 83/1/1 84/1/1 47/1/1
f 75/1/1 47/1/1 84/1/1
f 74/1/1 49/1/1 75/1/1
f 74/1/1 76/1/1 48/1/1
f 77/1/1 48/1/1 76/1/1
f 78/1/1 50/1/1 77/1/1
f 78/1/1 51/1/1 50/1/1
f 81/1/1 52/1/1 80/1/1
f 81/1/1 82/1/1 53/1/1
f 56/1/1 53/1/1 82/1/1
f 56/1/1 54/1/1 53/1/1
f 87/1/1 54/1/1 55/1/1
f 131/1/6 53/1/6 132/1/6
f 132/1/6 53/1/6 54/1/6
f 132/1/6 54/1/6 88/1/6
f 87/1/6 88/1/6 54/1/6
f 131/1/6 52/1/6 53/1/6
f 120/1/6 52/1/6 131/1/6
f 119/1/6 51/1/6 120/1/6
f 119/1/6 50/1/6 51/1/6
f 118/1/6 50/1/6 119/1/6
f 118/1/6 48/1/6 50/1/6
f 117/1/6 48/1/6 118/1/6
f 39/1/6 27/1/6 26/1/6
f 25/1/6 39/1/6 26/1/6
f 39/1/6 25/1/6 38/1/6
f 27/1/6 41/1/6 40/1/6
f 27/1/6 40/1/6 44/1/6
f 27/1/6 44/1/6 46/1/6
f 27/1/6 46/1/6 45/1/6
f 47/1/6 27/1/6 45/1/6
f 37/1/6 25/1/6 23/1/6
f 37/1/6 23/1/6 32/1/6
f 163/1/6 24/1/6 164/1/6
f 163/1/6 31/1/6 24/1/6
f 31/1/6 23/1/6 24/1/6
f 23/1/6 31/1/6 36/1/6
f 23/1/6 36/1/6 35/1/6
f 23/1/6 35/1/6 34/1/6
f 23/1/6 34/1/6 33/1/6
f 165/1/6 166/1/6 31/1/6
f 163/1/6 165/1/6 31/1/6
f 23/1/6 33/1/6 32/1/6
f 27/1/6 42/1/6 41/1/6
f 27/1/6 43/1/6 42/1/6
f 25/1/6 37/1/6 38/1/6
f 27/1/6 39/1/6 43/1/6
f 27/1/6 47/1/6 28/1/6
f 28/1/6 47/1/6 29/1/6
f 47/1/6 30/1/6 29/1/6
f 30/1/6 47/1/6 49/1/6
f 48/1/6 30/1/6 49/1/6
f 117/1/6 30/1/6 48/1/6
f 120/1/6 51/1/6 52/1/6
f 70/1/7 55/1/7 56/1/7
f 70/1/7 56/1/7 82/1/7
f 70/1/7 82/1/7 81/1/7
f 70/1/7 81/1/7 80/1/7
f 79/1/7 70/1/7 80/1/7
f 71/1/7 79/1/7 78/1/7
f 71/1/7 78/1/7 77/1/7
f 71/1/7 77/1/7 76/1/7
f 71/1/7 76/1/7 74/1/7
f 71/1/7 74/1/7 75/1/7
f 71/1/7 75/1/7 84/1/7
f 71/1/7 84/1/7 83/1/7
f 71/1/7 83/1/7 85/1/7
f 133/1/7 71/1/7 85/1/7
f 133/1/7 85/1/7 134/1/7
f 150/1/7 187/1/7 86/1/7
f 150/1/7 86/1/7 73/1/7
f 150/1/7 73/1/7 149/1/7
f 148/1/7 149/1/7 73/1/7
f 192/1/7 148/1/7 73/1/7
f 192/1/7 73/1/7 72/1/7
f 192/1/7 72/1/7 143/1/7
f 141/1/7 142/1/7 72/1/7
f 140/1/7 141/1/7 72/1/7
f 139/1/7 140/1/7 72/1/7
f 138/1/7 139/1/7 72/1/7
f 138/1/7 72/1/7 71/1/7
f 111/1/7 62/1/7 125/1/7
f 125/1/7 62/1/7 61/1/7
f 125/1/7 61/1/7 94/1/7
f 94/1/7 61/1/7 66/1/7
f 94/1/7 66/1/7 93/1/7
f 92/1/7 93/1/7 66/1/7
f 66/1/7 61/1/7 60/1/7
f 66/1/7 60/1/7 59/1/7
f 66/1/7 59/1/7 58/1/7
f 57/1/7 66/1/7 58/1/7
f 55/1/7 67/1/7 57/1/7
f 102/1/7 103/1/7 65/1/7
f 109/1/7 104/1/7 64/1/7
f 109/1/7 64/1/7 63/1/7
f 109/1/7 63/1/7 110/1/7
f 102/1/7 64/1/7 104/1/7
f 102/1/7 65/1/7 64/1/7
f 111/1/7 63/1/7 62/1/7
f 111/1/7 110/1/7 63/1/7
f 66/1/7 57/1/7 69/1/7
f 57/1/8 67/1/8 69/1/8
f 67/1/7 55/1/7 68/1/7
f 142/1/7 143/1/7 72/1/7
f 187/1/7 188/1/7 86/1/7
f 138/1/7 71/1/7 133/1/7
f 79/1/7 71/1/7 70/1/7
f 55/1/7 70/1/7 68/1/7
f 91/1/9 124/1/9 90/1/9
f 124/1/9 92/1/9 90/1/9
f 92/1/9 124/1/9 114/1/9
f 113/1/9 92/1/9 114/1/9
f 115/1/9 110/1/9 112/1/9
f 112/1/9 110/1/9 111/1/9
f 125/1/9 112/1/9 111/1/9
f 93/1/9 112/1/9 94/1/9
f 96/1/10 87/1/10 95/1/10
f 95/1/9 87/1/9 89/1/9
f 98/1/11 87/1/11 96/1/11
f 98/1/7 96/1/7 97/1/7
f 101/1/7 98/1/7 99/1/7
f 130/1/7 101/1/7 100/1/7
f 132/1/9 130/1/9 129/1/9
f 128/1/9 132/1/9 129/1/9
f 127/1/9 132/1/9 126/1/9
f 108/1/9 132/1/9 127/1/9
f 107/1/9 132/1/9 108/1/9
f 122/1/9 105/1/9 106/1/9
f 103/1/9 122/1/9 106/1/9
f 102/1/9 122/1/9 103/1/9
f 122/1/9 102/1/9 115/1/9
f 115/1/9 102/1/9 104/1/9
f 109/1/9 115/1/9 104/1/9
f 105/1/9 122/1/9 120/1/9
f 105/1/9 120/1/9 131/1/9
f 132/1/9 105/1/9 131/1/9
f 120/1/9 122/1/9 119/1/9
f 118/1/9 116/1/9 117/1/9
f 118/1/9 122/1/9 121/1/9
f 116/1/9 118/1/9 121/1/9
f 122/1/9 118/1/9 119/1/9
f 105/1/9 132/1/9 107/1/9
f 126/1/9 132/1/9 128/1/9
f 130/1/9 132/1/9 88/1/9
f 101/1/9 130/1/9 88/1/9
f 98/1/9 101/1/9 88/1/9
f 87/1/9 98/1/9 88/1/9
f 94/1/9 112/1/9 125/1/9
f 110/1/9 115/1/9 109/1/9
f 112/1/9 93/1/9 113/1/9
f 113/1/9 93/1/9 92/1/9
f 124/1/9 91/1/9 123/1/9
f 173/1/12 133/1/12 134/1/12
f 173/1/12 134/1/12 174/1/12
f 186/1/12 188/1/12 187/1/12
f 150/1/12 186/1/12 187/1/12
f 143/1/12 186/1/12 192/1/12
f 142/1/12 186/1/12 143/1/12
f 141/1/12 186/1/12 142/1/12
f 152/1/12 177/1/12 151/1/12
f 151/1/12 177/1/12 153/1/12
f 177/1/13 184/1/13 153/1/13
f 176/1/12 181/1/12 182/1/12
f 181/1/12 176/1/12 190/1/12
f 176/1/12 147/1/12 191/1/12
f 147/1/14 176/1/14 146/1/14
f 136/1/12 174/1/12 135/1/12
f 174/1/12 136/1/12 175/1/12
f 175/1/12 136/1/12 137/1/12
f 196/1/14 175/1/14 137/1/14
f 193/1/12 175/1/12 195/1/12
f 194/1/12 175/1/12 193/1/12
f 145/1/12 175/1/12 194/1/12
f 175/1/12 145/1/12 176/1/12
f 160/1/12 161/1/12 178/1/12
f 160/1/12 178/1/12 162/1/12
f 164/1/12 157/1/12 158/1/12
f 180/1/12 164/1/12 158/1/12
f 164/1/12 180/1/12 163/1/12
f 165/1/12 156/1/12 155/1/12
f 154/1/12 165/1/12 155/1/12
f 165/1/15 154/1/15 172/1/15
f 165/1/16 172/1/16 171/1/16
f 165/1/17 171/1/17 170/1/17
f 165/1/18 170/1/18 169/1/18
f 165/1/12 169/1/12 168/1/12
f 165/1/19 168/1/19 167/1/19
f 165/1/12 167/1/12 166/1/12
f 163/1/12 156/1/12 165/1/12
f 163/1/12 180/1/12 156/1/12
f 162/1/12 157/1/12 164/1/12
f 157/1/12 162/1/12 159/1/12
f 162/1/12 152/1/12 159/1/12
f 152/1/12 162/1/12 178/1/12
f 152/1/12 178/1/12 179/1/12
f 176/1/12 183/1/12 177/1/12
f 176/1/12 145/1/12 144/1/12
f 195/1/12 175/1/12 196/1/12
f 146/1/12 176/1/12 144/1/12
f 176/1/20 191/1/20 190/1/20
f 176/1/21 182/1/21 189/1/21
f 183/1/12 176/1/12 189/1/12
f 177/1/12 183/1/12 184/1/12
f 177/1/12 152/1/12 179/1/12
f 138/1/12 186/1/12 139/1/12
f 133/1/12 186/1/12 138/1/12
f 139/1/12 186/1/12 140/1/12
f 140/1/12 186/1/12 141/1/12
f 192/1/12 186/1/12 148/1/12
f 148/1/12 186/1/12 149/1/12
f 149/1/12 186/1/12 150/1/12
f 186/1/12 133/1/12 185/1/12
f 174/1/12 134/1/12 135/1/12
f 133/1/12 173/1/12 185/1/12
f 173/2/22 174/3/22 11/4/22
f 173/5/23 11/6/23 13/7/23
f 173/5/23 13/7/23 185/8/23
f 186/9/24 185/8/24 13/7/24
f 186/9/25 13/7/25 86/10/25
f 186/9/25 86/10/25 188/11/25
f 72/12/26 8/13/26 71/14/26
f 70/15/27 71/14/27 8/13/27
f 70/15/28 8/13/28 12/16/28
f 70/15/29 12/16/29 68/17/29
f 67/18/30 68/17/30 12/16/30
f 69/19/31 67/18/31 12/16/31
f 66/20/32 69/19/32 12/16/32
f 90/21/33 66/20/33 12/16/33
f 90/21/34 12/16/34 91/22/34
f 113/23/35 114/24/35 2/25/35
f 112/26/36 113/23/36 2/25/36
f 112/26/37 2/25/37 1/27/37
f 112/26/37 1/27/37 115/28/37
f 116/29/38 30/30/38 117/31/38
f 116/29/38 14/32/38 30/30/38
f 29/33/39 30/30/39 14/32/39
f 28/34/40 29/33/40 14/32/40
f 27/35/41 28/34/41 14/32/41
f 27/35/42 14/32/42 15/36/42
f 27/35/42 15/36/42 26/37/42
f 175/38/43 176/39/43 18/40/43
f 175/38/44 18/40/44 11/4/44
f 11/4/45 18/40/45 10/41/45
f 10/42/46 9/43/46 11/6/46
f 11/6/47 9/43/47 8/13/47
f 5/44/48 8/13/48 9/43/48
f 5/44/49 7/45/49 8/13/49
f 4/46/50 7/45/50 5/44/50
f 3/47/51 4/46/51 5/44/51
f 3/47/52 5/44/52 6/48/52
f 6/49/53 1/50/53 3/51/53
f 6/49/54 22/52/54 1/50/54
f 1/53/55 22/54/55 14/55/55
f 122/56/56 1/57/56 14/32/56
f 122/56/56 14/32/56 121/58/56
f 14/55/57 22/54/57 16/59/57
f 6/49/58 16/60/58 22/52/58
f 6/49/59 21/61/59 16/60/59
f 21/61/60 15/36/60 16/60/60
f 20/62/61 15/36/61 21/61/61
f 20/62/62 21/61/62 19/63/62
f 161/64/63 20/62/63 19/63/63
f 161/64/63 19/63/63 178/65/63
f 162/66/64 23/67/64 160/68/64
f 160/68/64 23/67/64 20/62/64
f 25/69/65 20/62/65 23/67/65
f 162/66/66 164/70/66 24/71/66
f 162/66/64 24/71/64 23/67/64
f 178/65/67 17/72/67 179/73/67
f 177/74/68 179/73/68 17/72/68
f 177/74/69 17/72/69 18/75/69
f 178/65/67 19/63/67 17/72/67
f 17/72/70 19/63/70 10/76/70
f 10/76/71 19/63/71 6/49/71
f 160/68/64 20/62/64 161/64/64
f 25/69/65 15/36/65 20/62/65
f 6/49/72 19/63/72 21/61/72
f 10/76/73 6/49/73 5/77/73
f 3/47/74 2/25/74 4/46/74
f 4/46/75 2/25/75 7/45/75
f 123/78/76 7/45/76 2/25/76
f 123/78/76 2/25/76 124/79/76
f 91/22/77 7/45/77 123/78/77
f 5/44/78 9/43/78 10/42/78
f 18/75/79 17/72/79 10/76/79
f 177/74/69 18/75/69 176/80/69
f 25/69/80 26/37/80 15/36/80
f 15/36/81 14/32/81 16/60/81
f 116/29/38 121/58/38 14/32/38
f 122/81/82 115/28/82 1/27/82
f 1/27/83 2/25/83 3/47/83
f 114/24/84 124/79/84 2/25/84
f 91/22/85 12/16/85 7/45/85
f 90/21/86 92/82/86 66/20/86
f 8/13/87 7/45/87 12/16/87
f 72/12/26 11/6/26 8/13/26
f 73/83/88 11/6/88 72/12/88
f 73/83/89 86/10/89 13/7/89
f 73/83/88 13/7/88 11/6/88
f 175/38/44 11/4/44 174/3/44
o Object.2
v -0.049905 0.169374 0.090455
v -0.056746 0.291324 0.077510
v -0.053572 0.324481 0.016389
v -0.041054 0.313280 0.027784
v -0.040070 0.321497 0.010072
v -0.023899 0.306323 0.011894
v -0.022814 0.282701 0.047124
v -0.002684 0.277682 0.032357
v -0.012402 0.263361 0.021815
v -0.025643 0.262217 0.042279
v -0.009021 0.256249 0.066309
v -0.017538 0.241676 0.042357
v -0.035032 0.296557 0.041659
v -0.014476 0.288224 0.068906
v -0.053369 0.301769 0.060534
v -0.030129 0.292313 0.083091
v -0.039615 0.251482 0.096113
v -0.053829 0.270202 0.071037
v -0.007965 0.224080 0.069099
v -0.048989 0.212724 0.092625
v -0.036451 0.234874 0.093168
v -0.027019 0.210147 0.089137
v -0.048844 0.199295 0.089214
v -0.039121 0.203830 0.106268
v -0.012848 0.188210 0.094485
v -0.052637 0.197028 0.110919
v -0.022324 0.179103 0.088827
v 0.002277 0.196117 0.062394
v -0.015939 0.198016 0.062588
v -0.020086 0.212783 0.054875
v -0.024868 0.160460 0.065069
v -0.029305 0.167863 0.049760
v -0.007955 0.206601 0.040845
v 0.005445 0.178482 0.013560
v -0.009612 0.158135 0.023676
v 0.000765 0.156585 0.006506
v -0.019631 0.131431 0.010886
v -0.051242 0.114920 0.036621
v -0.034199 0.128253 0.053325
v -0.064730 0.083178 0.027745
v -0.060532 0.098526 0.048093
v -0.061438 0.118951 0.083788
v -0.042231 0.159104 0.092703
v -0.046121 0.113176 0.065107
v 0.013042 0.198287 0.004336
v 0.003197 0.259078 0.002398
v 0.007132 0.164842 -0.000000
v 0.010611 0.169196 -0.000000
v 0.002274 0.151902 -0.000000
v -0.000127 0.148789 -0.000000
v -0.048111 0.323938 -0.000000
v -0.049231 0.334994 -0.000000
v -0.045257 0.324929 -0.000000
v -0.035072 0.315199 -0.000000
v -0.022799 0.321235 -0.000000
v 0.005491 0.255820 -0.000000
v 0.004510 0.259293 -0.000000
v 0.006735 0.248594 -0.000000
v 0.015863 0.195057 -0.000000
v 0.014868 0.204248 -0.000000
v 0.014327 0.192974 -0.000000
v 0.010143 0.227531 -0.000000
v -0.038910 0.105317 -0.000000
v -0.044243 0.099911 -0.000000
v -0.026813 0.113438 -0.000000
v -0.015964 0.125859 -0.000000
v -0.057770 0.340073 -0.000000
v -0.054699 0.339957 -0.000000
v -0.020480 0.320936 -0.000000
v -0.021036 0.316902 -0.000000
v -0.060716 0.090428 -0.000000
v -0.016185 0.286869 -0.000000
v -0.001857 0.267827 -0.000000
v -0.064967 0.115141 0.083829
v -0.064967 0.115335 0.081699
v -0.064967 0.106377 0.070122
v -0.064967 0.184534 0.112505
v -0.064967 0.195700 0.112618
v -0.064967 0.164943 0.101386
v -0.064967 0.143940 0.091001
v -0.064967 0.238684 0.108485
v -0.064967 0.222724 0.113740
v -0.064967 0.214750 0.111816
v -0.064967 0.179426 -0.000000
v -0.064967 0.163823 -0.000000
v -0.064967 0.107235 -0.000000
v -0.064967 0.088245 -0.000000
v -0.064967 0.089189 0.001762
v -0.064967 0.083111 0.027501
v -0.064967 0.083199 0.027459
v -0.064967 0.083080 0.027516
v -0.064967 0.332357 0.011723
v -0.064967 0.328958 0.028809
v -0.064967 0.332760 0.009698
v -0.064967 0.222934 -0.000000
v -0.064967 0.251881 -0.000000
v -0.064967 0.334418 0.001097
v -0.064967 0.335635 -0.000000
v -0.064967 0.331698 -0.000000
v -0.064967 0.274886 -0.000000
v -0.064967 0.330481 -0.000000
v -0.064967 0.326452 0.038801
v -0.064967 0.321719 0.045849
v -0.064967 0.315604 0.054891
v -0.064967 0.308807 0.063635
v -0.064967 0.282758 0.078354
v -0.064967 0.293006 0.080972
v -0.064967 0.278009 0.083290
v -0.064967 0.270384 0.091623
v -0.064967 0.305699 0.070671
v -0.064967 0.297201 0.076193
v -0.064967 0.095751 0.048042
v -0.064967 0.094364 0.042518
v -0.064967 0.083117 0.027661
v -0.064967 0.100835 0.023489
v -0.064967 0.210852 0.122636
v -0.064967 0.195097 0.119489
v -0.064967 0.124097 0.086459
v -0.064967 0.099264 0.054432
vn -0.0000 -0.0000 -1.0000
vn -1.0000 -0.0000 -0.0000
vn -1.0000 0.0001 -0.0000
vn 0.9885 -0.1513 -0.0000
vn 0.6223 -0.4412 0.6466
vn -0.3381 -0.0469 0.9399
vn 0.6664 0.5960 0.4480
vn 0.7126 0.0038 0.7015
vn 0.8239 -0.0057 0.5667
vn 0.0948 -0.9917 -0.0870
vn 0.5802 -0.1596 0.7987
vn 0.8091 0.5528 0.1992
vn 0.6155 -0.3493 0.7065
vn 0.3811 -0.2063 0.9012
vn 0.4123 -0.8030 0.4304
vn 0.7571 -0.1435 -0.6374
vn 0.7570 -0.1435 -0.6374
vn -0.0103 -0.7973 0.6035
vn 0.5171 -0.8301 0.2084
vn 0.4771 -0.7701 0.4235
vn 0.4016 -0.8341 0.3781
vn 0.4090 -0.7217 0.5584
vn 0.7320 -0.6785 -0.0618
vn 0.3006 -0.2687 0.9151
vn 0.8411 -0.3784 -0.3866
vn 0.2766 -0.3989 0.8743
vn 0.6677 -0.6540 0.3556
vn 0.9292 -0.1454 -0.3397
vn 0.8961 -0.2378 -0.3747
vn 0.7911 -0.0935 -0.6045
vn 0.7359 -0.2238 0.6391
vn 0.5781 -0.5186 0.6299
vn 0.7202 -0.5004 0.4805
vn 0.8277 -0.2123 0.5194
vn 0.6397 -0.3561 0.6812
vn 0.8473 -0.3181 0.4253
vn 0.6867 0.7188 -0.1087
vn -0.2992 0.6084 0.7351
vn 0.0798 0.6180 0.7821
vn 0.8011 -0.1105 -0.5883
vn 0.9872 0.1595 0.0006
vn 0.7120 0.5358 0.4539
vn 0.7120 0.5358 0.4538
vn 0.5791 -0.4268 0.6946
vn 0.8900 -0.1391 0.4343
vn 0.7767 -0.0045 0.6299
vn 0.8670 0.2188 0.4477
vn 0.8081 0.1640 0.5658
vn 0.8029 0.1382 0.5799
vn 0.8429 0.2380 0.4826
vn 0.7868 0.1273 0.6040
vn 0.7892 0.3134 0.5281
vn 0.8146 0.3196 -0.4841
vn 0.9419 0.0018 -0.3360
vn 0.8292 -0.2822 -0.4825
vn 0.7824 0.1882 0.5936
vn 0.5352 0.3773 -0.7558
vn 0.8644 0.2067 0.4583
vn 0.4490 0.4746 0.7570
vn 0.6690 0.1361 0.7307
vn 0.6423 -0.0136 0.7663
vn -0.9103 -0.2340 0.3414
vn -0.5052 0.2658 0.8211
vn 0.8537 0.2446 0.4597
vn 0.7852 0.4463 0.4293
vn 0.3366 -0.2331 0.9124
vn 0.3962 0.6900 0.6057
vn 0.2472 0.5279 0.8125
vn 0.7841 0.5677 0.2507
vn 0.5409 0.6640 0.5162
vn 0.3932 -0.5857 0.7087
vn 0.6554 -0.6466 0.3903
vn 0.6486 -0.5665 0.5084
vn 0.7155 -0.4941 0.4939
vn -0.3816 0.6189 0.6865
vn 0.0274 0.7277 0.6853
vn 0.0273 0.7277 0.6853
vn 0.7884 0.0799 -0.6100
vn -0.2943 0.8481 0.4405
vn 0.6282 0.6919 0.3559
vn 0.7036 0.6289 0.3308
vn 0.5885 0.6798 0.4377
vn 0.4838 0.6554 0.5800
vn 0.6450 0.6120 0.4576
vn 0.3276 0.9430 0.0578
vn 0.3040 0.9507 0.0614
vn 0.6785 0.0563 0.7325
vn 0.9011 0.1856 -0.3920
vn 0.6906 0.0692 0.7199
vn 0.7569 0.5029 -0.4173
vn 0.5428 0.8146 0.2044
vn 0.5133 0.8417 0.1674
vn 0.5811 0.6756 0.4537
vn 0.5819 0.6737 0.4556
vn 0.5159 0.8412 0.1622
vn -0.1365 0.8556 0.4993
vn -0.1840 -0.3111 0.9324
vn 0.7833 0.4586 0.4197
vn 0.8234 0.1775 0.5390
vn 0.7512 -0.1548 0.6417
vn -0.6684 0.3624 0.6495
vn 0.1438 -0.1055 0.9840
vn 0.1739 0.8777 0.4465
vn -0.8435 -0.1408 0.5184
vn -0.5252 -0.6990 0.4853
vn -0.4973 -0.6419 -0.5837
vn -0.0895 -0.7975 -0.5966
vn 0.0405 -0.5574 0.8293
vn 0.5887 0.5292 0.6110
vn 0.6493 -0.7508 0.1211
vn 0.6884 0.0851 0.7203
vn 0.8246 0.0198 -0.5654
vn 0.5269 -0.2639 0.8079
vn 0.6234 -0.6916 0.3647
vn 0.8650 0.0936 0.4930
vn 0.7191 0.5365 0.4416
vn 0.8010 -0.1105 -0.5883
vn 0.5197 0.7169 0.4647
vn 0.6721 -0.5183 0.5288
vn 0.6324 -0.5054 0.5871
vn 0.9459 0.2495 0.2075
vn 0.6943 -0.4308 0.5765
vn 0.6668 -0.2690 0.6950
vn -0.0589 -0.4751 -0.8780
vn 0.7496 -0.1506 -0.6446
vn 0.1583 -0.9565 0.2452
vn 0.7241 -0.2988 -0.6216
vn 0.7242 -0.2990 -0.6214
vn 0.7451 -0.1339 -0.6534
vn 0.4549 -0.7902 0.4108
vn 0.6133 -0.3899 0.6869
vn 0.6238 -0.0971 0.7755
vn 0.7983 -0.3584 0.4840
vt 0.000000 0.000000
vt 0.538818 0.643311
vt 0.540039 0.648193
vt 0.531250 0.644531
vt 0.528564 0.642578
vt 0.533203 0.651611
vt 0.522949 0.642090
vt 0.525366 0.636943
vt 0.523262 0.636624
vt 0.521484 0.637207
vt 0.522609 0.635098
vt 0.518416 0.635300
vt 0.518727 0.637868
vt 0.529698 0.638611
vt 0.534244 0.640513
vt 0.538030 0.641996
vt 0.550250 0.660937
vt 0.550543 0.661199
vt 0.549780 0.661736
vt 0.541992 0.657471
vt 0.546638 0.657697
vt 0.548340 0.654785
vt 0.548394 0.654832
vt 0.548395 0.654775
vt 0.544189 0.651367
vt 0.545896 0.651936
vt 0.544969 0.651047
vt 0.544189 0.649857
vt 0.542458 0.646486
vt 0.539932 0.643716
vt 0.539748 0.643311
vt 0.538330 0.653809
vt 0.531982 0.656250
vt 0.528320 0.652100
vt 0.523926 0.657471
vt 0.532959 0.661377
vt 0.538818 0.662354
vt 0.532471 0.664307
vt 0.524902 0.660645
vt 0.528076 0.664551
vt 0.531119 0.666128
vt 0.533577 0.665198
vt 0.492597 0.664141
vt 0.498291 0.664795
vt 0.495378 0.665604
vt 0.497167 0.667604
vt 0.505127 0.664551
vt 0.497659 0.668065
vt 0.506836 0.666748
vt 0.498247 0.668214
vt 0.392420 0.895693
vt 0.389326 0.891422
vt 0.397705 0.896240
vt 0.396973 0.900391
vt 0.395420 0.899196
vt 0.407862 0.906613
vt 0.407361 0.906631
vt 0.407227 0.905518
vt 0.411621 0.905029
vt 0.412254 0.908020
vt 0.403564 0.894531
vt 0.401853 0.903634
vt 0.405821 0.905781
vt 0.398478 0.901780
vt 0.397279 0.901151
vt 0.396743 0.900748
vt 0.399414 0.892578
vt 0.511230 0.661621
vt 0.511719 0.656738
vt 0.517334 0.661377
vt 0.517578 0.654785
vt 0.523926 0.653320
vt 0.520508 0.648926
vt 0.517090 0.647705
vt 0.513184 0.646973
vt 0.510742 0.648926
vt 0.504395 0.646973
vt 0.517578 0.642334
vt 0.512441 0.639273
vt 0.505012 0.642830
vt 0.501705 0.645506
vt 0.503071 0.644325
vt 0.499512 0.648193
vt 0.499304 0.646428
vt 0.498037 0.647149
vt 0.496378 0.648460
vt 0.495627 0.650006
vt 0.498047 0.652832
vt 0.494447 0.652082
vt 0.545461 0.663330
vt 0.543069 0.664054
vt 0.539958 0.664033
vt 0.534261 0.665102
vt 0.487129 0.661267
vt 0.487571 0.662357
vt 0.486926 0.661465
vt 0.490967 0.659912
vt 0.495850 0.659912
vt 0.488377 0.662901
vt 0.491363 0.664088
vt 0.489964 0.663479
vt 0.493896 0.662842
vt 0.504395 0.660645
vt 0.500000 0.658691
vt 0.503662 0.652832
vt 0.505615 0.656982
vt 0.491888 0.654924
vt 0.490253 0.656444
vt 0.488143 0.659518
vt 0.488367 0.659192
vt 0.493042 0.653549
vt 0.515527 0.638037
vt 0.519531 0.644287
vt 0.522705 0.647705
vt 0.413368 0.907790
vt 0.548404 0.654808
vt 0.548401 0.654814
vt 0.546765 0.663153
s 0
usemtl Mat_0.001
f 291/84/90 292/84/90 259/84/90
f 280/84/90 291/84/90 259/84/90
f 280/84/90 259/84/90 260/84/90
f 280/84/90 260/84/90 281/84/90
f 281/84/90 267/84/90 282/84/90
f 283/84/90 282/84/90 267/84/90
f 250/84/90 243/84/90 245/84/90
f 246/84/90 250/84/90 245/84/90
f 246/84/90 249/84/90 250/84/90
f 266/84/90 251/84/90 265/84/90
f 257/84/90 268/84/90 269/84/90
f 257/84/90 269/84/90 255/84/90
f 269/84/90 258/84/90 256/84/90
f 269/84/90 254/84/90 258/84/90
f 254/84/90 269/84/90 253/84/90
f 254/84/90 253/84/90 252/84/90
f 296/84/90 297/84/90 261/84/90
f 296/84/90 261/84/90 259/84/90
f 295/84/90 262/84/90 261/84/90
f 294/84/90 262/84/90 295/84/90
f 264/84/90 262/84/90 263/84/90
f 247/84/90 262/84/90 264/84/90
f 247/84/90 264/84/90 248/84/90
f 249/84/90 262/84/90 247/84/90
f 294/84/90 263/84/90 262/84/90
f 295/84/90 261/84/90 297/84/90
f 269/84/90 256/84/90 255/84/90
f 268/84/90 257/84/90 244/84/90
f 243/84/90 268/84/90 244/84/90
f 268/84/90 251/84/90 266/84/90
f 268/84/90 250/84/90 251/84/90
f 262/84/90 249/84/90 246/84/90
f 250/84/90 268/84/90 243/84/90
f 281/84/90 260/84/90 267/84/90
f 296/84/90 259/84/90 292/84/90
f 291/84/91 273/84/91 274/84/91
f 313/84/91 291/84/91 274/84/91
f 279/84/91 291/84/91 312/84/91
f 291/84/91 279/84/91 292/84/91
f 281/84/91 276/84/91 280/84/91
f 280/84/91 276/84/91 275/84/91
f 273/84/91 280/84/91 275/84/91
f 281/84/91 314/84/91 276/84/91
f 282/84/91 314/84/91 281/84/91
f 309/84/91 311/84/91 286/84/91
f 309/84/91 286/84/91 285/84/91
f 309/84/92 285/84/92 287/84/92
f 309/84/91 287/84/91 310/84/91
f 272/84/91 282/84/91 315/84/91
f 271/84/91 282/84/91 272/84/91
f 314/84/91 271/84/91 270/84/91
f 296/84/91 277/84/91 305/84/91
f 304/84/91 296/84/91 305/84/91
f 302/84/91 296/84/91 304/84/91
f 300/84/91 296/84/91 301/84/91
f 296/84/91 300/84/91 297/84/91
f 295/84/91 293/84/91 294/84/91
f 289/84/91 299/84/91 298/84/91
f 299/84/91 289/84/91 288/84/91
f 299/84/92 288/84/92 290/84/92
f 299/84/91 290/84/91 293/84/91
f 295/84/91 300/84/91 299/84/91
f 293/84/91 295/84/91 299/84/91
f 300/84/91 295/84/91 297/84/91
f 301/84/91 296/84/91 306/84/91
f 306/84/91 296/84/91 307/84/91
f 307/84/91 296/84/91 303/84/91
f 303/84/91 296/84/91 302/84/91
f 292/84/91 277/84/91 296/84/91
f 277/84/91 292/84/91 278/84/91
f 315/84/91 282/84/91 308/84/91
f 282/84/91 311/84/91 308/84/91
f 311/84/91 309/84/91 308/84/91
f 311/84/93 283/84/93 284/84/93
f 283/84/91 311/84/91 282/84/91
f 314/84/91 282/84/91 271/84/91
f 292/84/91 279/84/91 278/84/91
f 312/84/91 291/84/91 313/84/91
f 280/84/91 273/84/91 291/84/91
f 238/85/94 240/86/94 239/87/94
f 197/88/95 238/85/95 239/87/95
f 197/88/96 239/87/96 227/89/96
f 227/89/97 219/90/97 197/88/97
f 273/91/98 197/88/98 219/90/98
f 273/91/98 219/90/98 274/92/98
f 274/92/99 222/93/99 313/94/99
f 312/95/100 313/94/100 222/93/100
f 312/95/101 222/93/101 219/90/101
f 312/95/101 219/90/101 279/96/101
f 275/97/102 276/98/102 197/88/102
f 314/99/103 197/88/103 276/98/103
f 284/100/104 283/101/104 267/102/104
f 284/100/104 267/102/104 234/103/104
f 284/100/104 234/103/104 311/104/104
f 311/104/105 234/103/105 236/105/105
f 311/104/106 236/105/106 286/106/106
f 310/107/107 237/108/107 309/109/107
f 308/110/108 309/109/108 237/108/108
f 315/111/109 308/110/109 237/108/109
f 315/111/110 237/108/110 240/86/110
f 315/111/110 240/86/110 272/112/110
f 272/112/111 238/85/111 271/113/111
f 270/114/112 271/113/112 238/85/112
f 314/99/113 270/114/113 238/85/113
f 240/86/114 237/108/114 227/89/114
f 235/115/115 227/89/115 237/108/115
f 235/115/116 237/108/116 236/105/116
f 235/115/117 228/116/117 227/89/117
f 228/116/118 225/117/118 227/89/118
f 226/118/119 225/117/119 228/116/119
f 231/119/120 226/118/120 228/116/120
f 231/119/121 228/116/121 233/120/121
f 231/119/122 233/120/122 232/121/122
f 232/121/123 229/122/123 231/119/123
f 230/123/124 229/122/124 232/121/124
f 243/124/125 230/123/125 232/121/125
f 243/124/125 232/121/125 245/125/125
f 249/126/126 202/127/126 250/128/126
f 251/129/127 250/128/127 202/127/127
f 251/129/128 202/127/128 204/130/128
f 251/129/128 204/130/128 265/131/128
f 265/131/129 205/132/129 266/133/129
f 268/134/130 266/135/130 205/136/130
f 268/134/131 205/136/131 242/137/131
f 268/134/132 242/137/132 269/138/132
f 257/139/133 255/140/133 241/141/133
f 257/139/134 241/141/134 230/142/134
f 257/139/134 230/142/134 244/143/134
f 230/142/135 241/141/135 208/144/135
f 205/136/136 208/144/136 241/141/136
f 258/145/137 205/136/137 241/141/137
f 258/145/137 241/141/137 256/146/137
f 254/147/138 252/148/138 242/137/138
f 252/148/139 253/149/139 242/137/139
f 254/147/140 205/136/140 258/145/140
f 208/144/141 205/136/141 206/150/141
f 206/151/142 207/152/142 208/153/142
f 207/152/143 215/154/143 208/153/143
f 215/154/144 226/118/144 208/153/144
f 208/153/145 226/118/145 229/122/145
f 215/154/146 224/155/146 226/118/146
f 221/156/147 224/155/147 215/154/147
f 218/157/148 221/156/148 215/154/148
f 217/158/149 218/157/149 215/154/149
f 213/159/150 217/158/150 215/154/150
f 217/158/151 213/159/151 214/160/151
f 217/158/152 214/160/152 216/161/152
f 277/162/153 216/161/153 214/160/153
f 277/162/153 214/160/153 305/163/153
f 302/164/154 304/165/154 214/160/154
f 302/164/155 214/160/155 198/166/155
f 302/164/155 198/166/155 303/167/155
f 307/168/156 303/167/156 198/166/156
f 306/169/157 307/168/157 198/166/157
f 301/170/158 306/169/158 198/166/158
f 301/170/159 198/166/159 211/171/159
f 301/170/159 211/171/159 300/172/159
f 259/173/160 261/174/160 233/120/160
f 259/173/161 233/120/161 234/103/161
f 261/174/162 262/175/162 233/120/162
f 246/176/163 233/120/163 262/175/163
f 293/177/164 263/178/164 294/179/164
f 293/177/164 199/180/164 263/178/164
f 263/178/165 199/180/165 200/181/165
f 263/178/166 200/181/166 264/182/166
f 247/183/167 248/184/167 201/185/167
f 249/126/168 247/183/168 201/185/168
f 264/182/169 201/185/169 248/184/169
f 264/182/169 200/181/169 201/185/169
f 201/185/170 200/181/170 203/186/170
f 201/185/171 203/186/171 202/127/171
f 209/187/172 203/186/172 200/181/172
f 209/187/173 200/181/173 211/171/173
f 212/188/174 209/187/174 211/171/174
f 210/189/175 209/187/175 212/188/175
f 210/189/176 212/188/176 207/152/176
f 203/186/177 210/189/177 207/152/177
f 207/152/178 212/188/178 213/159/178
f 203/186/179 209/187/179 210/189/179
f 298/190/180 200/181/180 199/180/180
f 298/190/180 199/180/180 289/191/180
f 290/192/181 288/193/181 199/180/181
f 288/193/181 289/191/181 199/180/181
f 298/190/182 299/194/182 200/181/182
f 300/172/183 200/181/183 299/194/183
f 293/177/184 290/192/184 199/180/184
f 300/172/183 211/171/183 200/181/183
f 211/171/185 198/166/185 212/188/185
f 212/188/186 198/166/186 214/160/186
f 304/165/187 305/163/187 214/160/187
f 277/162/188 278/195/188 216/161/188
f 279/96/189 216/161/189 278/195/189
f 212/188/190 214/160/190 213/159/190
f 217/158/191 216/161/191 218/157/191
f 218/157/192 216/161/192 220/196/192
f 220/196/193 216/161/193 219/90/193
f 223/197/194 220/196/194 219/90/194
f 223/197/195 219/90/195 225/117/195
f 223/197/196 225/117/196 224/155/196
f 221/156/197 220/196/197 223/197/197
f 218/157/198 220/196/198 221/156/198
f 221/156/199 223/197/199 224/155/199
f 207/152/200 213/159/200 215/154/200
f 206/151/201 203/186/201 207/152/201
f 206/151/202 204/130/202 203/186/202
f 205/132/203 204/130/203 206/151/203
f 255/140/204 256/146/204 241/141/204
f 253/149/205 269/138/205 242/137/205
f 254/147/140 242/137/140 205/136/140
f 265/131/206 204/130/206 205/132/206
f 204/130/207 202/127/207 203/186/207
f 249/126/126 201/185/126 202/127/126
f 246/176/208 245/125/208 232/121/208
f 243/198/209 244/143/209 230/142/209
f 208/153/210 229/122/210 230/123/210
f 246/176/163 232/121/163 233/120/163
f 233/120/211 228/116/211 234/103/211
f 229/122/212 226/118/212 231/119/212
f 226/118/213 224/155/213 225/117/213
f 235/115/214 234/103/214 228/116/214
f 310/107/107 236/105/107 237/108/107
f 310/107/215 287/199/215 236/105/215
f 287/199/216 285/200/216 236/105/216
f 285/200/217 286/106/217 236/105/217
f 234/103/218 235/115/218 236/105/218
f 267/102/219 260/201/219 234/103/219
f 259/173/161 234/103/161 260/201/161
f 279/96/189 219/90/189 216/161/189
f 274/92/99 219/90/99 222/93/99
f 273/91/220 275/97/220 197/88/220
f 225/117/221 219/90/221 227/89/221
f 314/99/103 238/85/103 197/88/103
f 239/87/222 240/86/222 227/89/222
f 272/112/111 240/86/111 238/85/111
