# This file uses centimeters as units for non-parametric coordinates.

mtllib Collider_rules.mtl
g default
v 0.000000 -0.008293 0.500000
v 0.654525 -0.008293 0.500000
v 0.000000 0.008293 0.500000
v 0.654525 0.008293 0.500000
v 0.000000 0.008293 -0.500000
v 0.654525 0.008293 -0.500000
v 0.000000 -0.008293 -0.500000
v 0.654525 -0.008293 -0.500000
vt 0.685688 0.865622
vt 0.792474 0.865622
vt 0.792474 0.972408
vt 0.685688 0.972408
vt 0.794851 0.865622
vt 0.901637 0.865622
vt 0.901637 0.972408
vt 0.794851 0.972408
vt 0.313342 0.002186
vt 0.313342 0.979596
vt 0.215601 0.979596
vt 0.215601 0.002186
vt 0.776589 0.757608
vt 0.883374 0.757608
vt 0.883374 0.864394
vt 0.776589 0.864394
vt 0.685688 0.649595
vt 0.792474 0.649595
vt 0.792474 0.756381
vt 0.685688 0.756381
vt 0.885261 0.864394
vt 0.885261 0.757608
vt 0.992047 0.757608
vt 0.992047 0.864394
vn 0.000000 0.000000 1.000000
vn 0.000000 0.000000 1.000000
vn 0.000000 0.000000 1.000000
vn 0.000000 0.000000 1.000000
vn 0.000000 1.000000 0.000000
vn 0.000000 1.000000 0.000000
vn 0.000000 1.000000 0.000000
vn 0.000000 1.000000 0.000000
vn 0.000000 0.000000 -1.000000
vn 0.000000 0.000000 -1.000000
vn 0.000000 0.000000 -1.000000
vn 0.000000 0.000000 -1.000000
vn 0.000000 -1.000000 0.000000
vn 0.000000 -1.000000 0.000000
vn 0.000000 -1.000000 0.000000
vn 0.000000 -1.000000 0.000000
vn 1.000000 0.000000 0.000000
vn 1.000000 0.000000 0.000000
vn 1.000000 0.000000 0.000000
vn 1.000000 0.000000 0.000000
vn -1.000000 0.000000 0.000000
vn -1.000000 0.000000 0.000000
vn -1.000000 0.000000 0.000000
vn -1.000000 0.000000 0.000000
s off
g collider_rules
usemtl lambert3SG
f 1/17/1 2/18/2 4/19/3 3/20/4
f 3/9/5 4/10/6 6/11/7 5/12/8
f 5/21/9 6/22/10 8/23/11 7/24/12
f 7/13/13 8/14/14 2/15/15 1/16/16
f 2/1/17 8/2/18 6/3/19 4/4/20
f 7/5/21 1/6/22 3/7/23 5/8/24
