# This file uses centimeters as units for non-parametric coordinates.

mtllib rules_4.mtl
g default
v -0.005090 0.001422 0.500000
v 3.994910 0.001422 0.500000
v -0.005090 0.151422 0.500000
v 3.994910 0.151422 0.500000
v -0.005090 0.151422 -0.500000
v 3.994910 0.151422 -0.500000
v -0.005090 0.001422 -0.500000
v 3.994910 0.001422 -0.500000
vt 0.743496 0.766519
vt 0.743496 0.766519
vt 0.743496 0.962548
vt 0.743496 0.962548
vt 0.947199 0.962548
vt 0.947199 0.962548
vt 0.947199 0.766519
vt 0.947199 0.766519
vt 0.988651 0.005502
vt 0.988651 0.417442
vt 0.888449 0.417442
vt 0.888449 0.005502
vn 0.000000 0.000000 1.000000
vn 0.000000 0.000000 1.000000
vn 0.000000 0.000000 1.000000
vn 0.000000 0.000000 1.000000
vn 0.000000 1.000000 0.000000
vn 0.000000 1.000000 0.000000
vn 0.000000 1.000000 0.000000
vn 0.000000 1.000000 0.000000
vn 0.000000 0.000000 -1.000000
vn 0.000000 0.000000 -1.000000
vn 0.000000 0.000000 -1.000000
vn 0.000000 0.000000 -1.000000
vn 0.000000 -1.000000 0.000000
vn 0.000000 -1.000000 0.000000
vn 0.000000 -1.000000 0.000000
vn 0.000000 -1.000000 0.000000
vn 1.000000 0.000000 0.000000
vn 1.000000 0.000000 0.000000
vn 1.000000 0.000000 0.000000
vn 1.000000 0.000000 0.000000
vn -1.000000 0.000000 0.000000
vn -1.000000 0.000000 0.000000
vn -1.000000 0.000000 0.000000
vn -1.000000 0.000000 0.000000
s off
g inches_4
usemtl lambert2SG
f 1/1/1 2/2/2 4/3/3 3/4/4
f 3/9/5 4/10/6 6/11/7 5/12/8
f 5/6/9 6/5/10 8/7/11 7/8/12
f 7/8/13 8/7/14 2/2/15 1/1/16
f 2/2/17 8/7/18 6/5/19 4/3/20
f 7/8/21 1/1/22 3/4/23 5/6/24
