# Blender 5.2.1 LTS
# www.blender.org
mtllib griever+swarm collider.mtl
o Object.1
v -0.213608 0.116892 -0.013979
v -0.197175 0.116117 0.053923
v -0.159425 0.125729 0.072139
v -0.089614 0.120845 0.111904
v 0.141535 0.112474 -0.061883
v 0.156311 0.126504 0.019507
v 0.115015 0.116582 -0.026924
v 0.084649 0.118055 -0.013204
v 0.038275 0.116117 -0.018708
v 0.063056 0.147278 -0.075759
v -0.078830 0.124256 -0.083277
v -0.145705 0.109218 -0.104904
v -0.062552 0.124799 -0.045760
v -0.086823 0.127744 0.003074
v -0.091813 0.130535 -0.045605
v -0.121569 0.127512 -0.059635
v -0.182913 0.110768 -0.083975
v -0.126889 0.131775 -0.015840
v -0.168495 0.128132 -0.008708
v -0.207620 0.114954 -0.022041
v -0.189366 0.123326 0.039816
v -0.141888 0.131620 0.025786
v -0.127955 0.129139 0.058109
v -0.108363 0.130070 0.031367
v -0.072774 0.122318 0.058419
v -0.017554 0.121311 0.133066
v -0.032326 0.121466 0.116478
v -0.031759 0.118443 0.077565
v 0.035585 0.124489 0.129888
v 0.012238 0.126194 0.111904
v -0.012419 0.119760 0.062450
v 0.049031 0.132162 0.089270
v 0.092967 0.134100 0.096324
v 0.107913 0.126659 0.108494
v 0.073351 0.135186 0.063535
v 0.117031 0.135651 0.073225
v 0.051808 0.128829 0.031987
v 0.113252 0.135418 0.046172
v 0.179304 0.123093 0.068341
v 0.153772 0.130225 0.062450
v 0.189400 0.121156 0.033925
v 0.127505 0.129527 0.021522
v 0.014545 0.121000 0.022763
v 0.024316 0.155960 -0.008708
v 0.026709 0.211538 -0.047388
v 0.057022 0.211847 -0.095525
v 0.035082 0.272076 -0.089479
v 0.056680 0.304323 -0.128468
v -0.015079 0.161463 0.032374
v 0.009343 0.224560 -0.048318
v 0.043899 0.351374 -0.127616
v 0.026733 0.304090 -0.102811
v 0.028154 0.404471 -0.145057
v 0.022742 0.444043 -0.162807
v 0.017199 0.330367 -0.119787
v 0.013437 0.343778 -0.139708
v 0.017423 0.329747 -0.156684
v 0.005191 0.261612 -0.090486
v 0.007258 0.243008 -0.112888
v 0.025613 0.146968 -0.122422
v -0.004571 0.217971 -0.052427
v -0.007482 0.208282 -0.067387
v -0.018262 0.192547 -0.008321
v -0.016280 0.142549 -0.041264
v -0.027869 0.163168 -0.014910
v -0.030238 0.144797 0.050048
v -0.032321 0.163323 0.016251
v 0.054452 0.170842 -0.162187
v 0.071459 0.135883 -0.144902
v 0.082430 0.203476 -0.162265
v 0.081805 0.205491 -0.145677
v 0.082255 0.130845 -0.109942
v 0.076112 0.259132 -0.150250
v -0.135330 0.115824 0.103031
v -0.083937 0.116532 0.123296
v -0.039301 0.116977 0.136052
v -0.056582 0.114852 0.075195
v -0.040932 0.114576 0.067290
v -0.049819 0.114386 0.061837
v -0.043606 0.113692 0.041986
v -0.042301 0.113662 0.041120
v -0.044783 0.114359 0.061085
v -0.042273 0.113655 0.040918
v -0.032415 0.112424 0.005658
v -0.043333 0.113639 0.040460
v -0.037893 0.112436 0.006010
v -0.035740 0.112255 0.000812
v -0.142077 0.115731 0.100368
v -0.153993 0.115400 0.090894
v -0.206795 0.113198 0.027831
v -0.212492 0.112417 0.005469
v -0.205290 0.113704 0.042320
v -0.198182 0.114529 0.065933
v -0.223120 0.111865 -0.010337
v -0.216704 0.112003 -0.006381
v -0.216826 0.111559 -0.019112
v -0.212761 0.111429 -0.022824
v -0.191576 0.109786 -0.069876
v -0.183472 0.109252 -0.085170
v -0.147697 0.108577 -0.104493
v -0.143899 0.108525 -0.105986
v 0.076294 0.116702 0.128155
v 0.136774 0.115871 0.104364
v 0.049553 0.116936 0.134878
v -0.000890 0.117089 0.139260
v -0.016651 0.117077 0.138920
v 0.006067 0.109584 -0.075658
v 0.013977 0.109061 -0.090640
v 0.036773 0.108093 -0.118360
v -0.027766 0.111066 -0.033212
v -0.030120 0.109688 -0.072697
v -0.032237 0.109489 -0.078377
v -0.053891 0.108401 -0.109534
v -0.088711 0.108201 -0.115258
v -0.136099 0.108459 -0.107872
v 0.075491 0.107860 -0.125024
v 0.064018 0.107609 -0.132208
v 0.077476 0.107961 -0.122140
v 0.078622 0.108198 -0.115352
v 0.079927 0.108920 -0.094672
v 0.133614 0.109732 -0.071411
v 0.128835 0.109878 -0.067231
v 0.151802 0.109952 -0.065135
v 0.173103 0.111192 -0.029621
v 0.185049 0.111790 -0.012506
v 0.187599 0.111911 -0.009036
v 0.195591 0.112763 0.015375
v 0.186740 0.114821 0.074312
v 0.182692 0.114906 0.076739
v 0.051471 0.110785 -0.041268
v 0.082372 0.110719 -0.043168
v 0.075759 0.109232 -0.085735
v 0.102071 0.110518 -0.048929
v 0.200842 0.113610 0.039613
v 0.198730 0.113896 0.047810
v 0.059851 0.107601 -0.132457
v 0.041363 0.107928 -0.123086
v -0.016910 0.111152 -0.030776
v -0.031746 0.112364 0.003940
v -0.213887 0.111855 -0.010617
v -0.044435 0.114388 0.061902
v 0.053803 0.178930 -0.164819
v 0.038085 0.218932 -0.164819
v 0.055544 0.176423 -0.164819
v 0.081308 0.206357 -0.164819
v 0.082562 0.209059 -0.164819
v 0.082725 0.235521 -0.164819
v 0.083831 0.251177 -0.164819
v 0.079500 0.281135 -0.164819
v 0.036695 0.475495 -0.164819
v 0.036984 0.475614 -0.164819
v 0.034221 0.470916 -0.164819
v 0.015962 0.409334 -0.164819
v 0.022437 0.446389 -0.164819
v 0.017692 0.365031 -0.164819
v 0.020156 0.342250 -0.164819
v 0.023811 0.316307 -0.164819
v 0.070067 0.350545 -0.164819
v 0.052994 0.445972 -0.164819
v 0.076825 0.307373 -0.164819
v 0.050472 0.455848 -0.164819
v 0.022577 0.451402 -0.164819
v 0.070105 0.177445 -0.164819
vn -0.0000 -0.9994 0.0349
vn -0.0001 -0.9994 0.0349
vn 0.0002 -0.9994 0.0349
vn -0.0023 -0.9994 0.0348
vn -0.0002 -0.9994 0.0349
vn 0.0001 -0.9994 0.0349
vn -0.0000 -0.0000 -1.0000
vn -0.0001 -0.0000 -1.0000
vn -0.0125 0.9997 0.0204
vn -0.0046 0.9970 -0.0775
vn -0.1140 0.9591 -0.2591
vn -0.1140 0.9591 -0.2592
vn -0.0785 0.8021 0.5921
vn -0.0133 0.8093 0.5872
vn 0.0688 0.6354 0.7692
vn 0.1696 0.7421 0.6485
vn -0.4171 -0.4156 -0.8083
vn 0.0550 -0.4209 -0.9054
vn 0.7979 -0.2682 -0.5399
vn 0.9797 -0.1186 -0.1614
vn 0.9878 -0.1448 -0.0573
vn 0.8922 0.1905 0.4095
vn 0.8677 0.1670 0.4681
vn -0.0125 0.9715 -0.2369
vn -0.0583 0.9707 -0.2332
vn 0.1133 0.9258 -0.3605
vn 0.1913 0.9702 -0.1486
vn 0.2516 0.9451 -0.2086
vn 0.3591 0.7366 0.5731
vn 0.3581 0.7400 0.5693
vn 0.3141 0.5419 0.7796
vn 0.3592 0.7365 0.5732
vn 0.2110 0.9327 0.2923
vn 0.2099 0.9483 0.2382
vn 0.2640 0.9642 0.0232
vn 0.1903 0.9790 -0.0736
vn 0.1568 0.9847 -0.0761
vn 0.0900 0.9792 -0.1820
vn -0.0443 0.9656 -0.2564
vn -0.0711 0.9861 -0.1501
vn -0.1918 0.9792 -0.0663
vn -0.1699 0.9833 -0.0655
vn -0.1822 0.9826 -0.0370
vn -0.1126 0.9910 -0.0728
vn -0.0568 0.9843 0.1671
vn -0.0696 0.9842 0.1629
vn 0.0994 0.8986 0.4273
vn -0.0495 0.9862 0.1578
vn -0.1825 0.9788 -0.0934
vn 0.7923 0.2708 0.5468
vn 0.7402 0.3623 0.5664
vn 0.6071 0.4899 0.6256
vn 0.5007 0.5271 0.6866
vn 0.0133 0.7218 0.6920
vn -0.1493 0.7801 0.6075
vn -0.6535 0.6460 0.3944
vn -0.8025 0.5010 0.3241
vn -0.9819 0.1269 -0.1408
vn -0.9630 -0.0225 -0.2685
vn -0.9307 -0.0626 -0.3603
vn -0.9308 -0.0626 -0.3603
vn -0.9153 -0.1110 -0.3873
vn -0.8842 -0.1319 -0.4481
vn -0.8800 -0.1160 -0.4606
vn -0.7468 -0.2775 -0.6044
vn -0.6955 -0.2693 -0.6661
vn -0.6937 -0.2726 -0.6667
vn 0.9038 0.1307 0.4075
vn 0.9956 -0.0703 -0.0625
vn 0.9992 -0.0061 0.0384
vn 0.7220 -0.2797 -0.6328
vn 0.0303 -0.4312 -0.9018
vn 0.6831 -0.3172 -0.6579
vn 0.8953 0.1313 0.4258
vn 0.8870 0.2090 0.4118
vn 0.8217 0.2356 0.5190
vn 0.8194 0.2465 0.5176
vn 0.3367 0.5057 0.7943
vn 0.4389 0.4406 0.7831
vn -0.4685 0.5668 0.6777
vn -0.4811 0.8158 0.3209
vn -0.9223 0.3805 -0.0669
vn -0.9413 0.3268 -0.0847
vn -0.9694 0.2437 0.0308
vn -0.9683 0.1408 -0.2062
vn -0.9529 0.0070 -0.3033
vn -0.9928 0.0299 -0.1164
vn -0.8728 0.3123 0.3750
vn -0.3439 0.4183 0.8407
vn -0.4811 0.3458 0.8055
vn 0.2647 0.3709 0.8902
vn -0.1149 0.2791 0.9534
vn -0.3926 0.2343 0.8894
vn -0.5294 0.2859 0.7988
vn -0.6713 0.2250 0.7062
vn -0.9297 0.1625 0.3306
vn 0.8491 0.1519 0.5059
vn 0.8618 0.1349 0.4889
vn -0.8687 -0.1224 -0.4799
vn -0.8895 -0.0962 -0.4467
vn -0.9794 -0.0383 -0.1983
vn -0.8716 -0.1278 -0.4733
vn 0.7324 0.1871 0.6547
vn 0.7323 0.1871 0.6547
vn 0.7773 0.2004 0.5963
vn -0.9831 0.0274 0.1811
vn 0.4136 0.2822 0.8656
vn -0.9069 0.2498 0.3394
vn -0.9737 -0.0009 -0.2279
vn -0.8838 -0.1241 -0.4510
vn -0.7767 0.5036 0.3783
vn 0.1555 0.4141 0.8969
vn 0.7659 0.2183 0.6048
vn 0.8795 0.1626 0.4473
vn 0.9286 0.0946 0.3589
vn -0.4453 -0.3091 -0.8403
vn -0.8792 -0.1223 -0.4605
vn -0.9231 -0.0288 -0.3834
vn -0.9819 0.1268 -0.1409
vn -0.9828 0.1340 -0.1268
vn -0.7262 0.5161 0.4541
vn -0.9324 0.3352 -0.1349
vn -0.0377 0.7927 0.6084
vn 0.4432 0.6362 0.6316
vn 0.8467 0.2789 0.4531
vn 0.8623 0.1837 0.4718
vn -0.1533 0.9674 -0.2017
vn -0.0545 0.9964 0.0656
vn -0.0207 0.9988 0.0454
vn -0.0090 0.9999 -0.0073
vn -0.0452 0.9638 -0.2626
vn 0.0811 0.9575 -0.2768
vn 0.5118 0.8530 0.1021
vn 0.5231 0.8284 -0.2002
vn 0.2459 0.9454 -0.2138
vn 0.5969 0.7869 -0.1568
vn 0.1381 0.9900 -0.0278
vn 0.2229 0.9293 0.2945
vn 0.6205 0.7417 0.2548
vn 0.2460 0.9454 -0.2138
vn -0.0575 0.9855 -0.1594
vn -0.1250 0.9762 -0.1770
vn -0.1142 0.9729 -0.2010
vn -0.0626 0.9681 -0.2425
vn -0.0121 0.9707 -0.2402
vn 0.8613 0.1828 0.4740
vn 0.8922 0.1994 0.4053
vn 0.9991 0.0227 0.0349
vn 0.4781 -0.4614 -0.7474
vn 0.3164 0.9146 -0.2518
vn 0.3130 0.9379 -0.1494
vn 0.2926 0.9522 0.0880
vn 0.2978 0.9545 0.0137
vn 0.2935 0.9558 0.0192
vn 0.3171 0.9461 0.0662
vn 0.3077 0.9435 0.1229
vn 0.1221 0.9903 0.0657
vn 0.1211 0.9850 0.1230
vn 0.0360 0.9975 0.0610
vn -0.0618 0.9928 0.1028
vn -0.1522 0.9860 0.0677
vn -0.3550 0.8974 0.2621
vn -0.4397 0.7268 0.5276
vn -0.3491 0.6560 -0.6692
vn -0.3191 0.4609 -0.8281
vn -0.1670 0.6796 -0.7143
vn -0.0625 0.8996 -0.4323
vn -0.1800 0.8869 0.4255
vn -0.1799 0.8872 0.4248
vn -0.1070 0.9403 -0.3229
vn -0.1345 0.9416 -0.3088
vn -0.1893 0.9641 -0.1862
vn -0.1052 0.9885 -0.1090
vn -0.0523 0.9933 -0.1031
vn 0.0770 0.9958 0.0492
vn 0.1924 0.9806 0.0365
vn 0.1020 0.9948 -0.0041
vn -0.0922 0.9953 -0.0295
vn -0.2624 0.9501 -0.1689
vn -0.3073 0.9509 -0.0380
vn -0.4341 0.9008 0.0062
vn 0.7985 0.3031 0.5202
vn -0.2857 0.8547 0.4335
vn -0.5443 0.7286 -0.4158
vn -0.4354 0.7467 -0.5029
vn -0.5183 0.8141 -0.2618
vn -0.7134 0.5767 -0.3982
vn -0.2790 0.9603 -0.0045
vn -0.3969 0.9137 0.0876
vn 0.7985 0.3030 0.5202
vn -0.5561 0.8234 0.1129
vn -0.0195 0.9851 -0.1709
vn -0.3491 0.6559 -0.6692
vn -0.0891 0.9884 0.1232
vn -0.1643 0.9860 0.0270
vn 0.0430 0.9989 0.0192
vn -0.0296 0.9845 0.1729
vn 0.1746 0.9833 0.0521
vn 0.3512 0.9350 0.0496
vn 0.3838 0.9218 -0.0551
vn 0.1910 0.9768 -0.0970
vn 0.0714 0.8824 -0.4650
vn -0.1248 0.9057 0.4052
vn -0.1288 0.9885 -0.0787
vn -0.0955 0.9910 0.0943
vt 0.000000 0.000000
vt 0.208984 0.710449
vt 0.203369 0.716064
vt 0.203125 0.713135
vt 0.199951 0.708008
vt 0.203721 0.706819
vt 0.201286 0.706340
vt 0.205951 0.715696
vt 0.203795 0.716915
vt 0.202242 0.718244
vt 0.197329 0.722802
vt 0.197754 0.719971
vt 0.194750 0.725863
vt 0.208037 0.673490
vt 0.208323 0.675950
vt 0.200439 0.670410
vt 0.205322 0.669189
vt 0.208239 0.672621
vt 0.209269 0.670086
vt 0.200195 0.662598
vt 0.209679 0.669655
vt 0.210449 0.665283
vt 0.210616 0.668791
vt 0.212511 0.668203
vt 0.216064 0.659668
vt 0.213918 0.667474
vt 0.195945 0.323922
vt 0.192627 0.318848
vt 0.198242 0.312744
vt 0.197767 0.316784
vt 0.202393 0.313232
vt 0.200150 0.318010
vt 0.203857 0.317139
vt 0.201316 0.320030
vt 0.206332 0.323658
vt 0.204058 0.323474
vt 0.205566 0.322510
vt 0.213978 0.324529
vt 0.215332 0.318848
vt 0.217593 0.324952
vt 0.182059 0.735385
vt 0.190430 0.727783
vt 0.182612 0.735141
vt 0.188966 0.731685
vt 0.181152 0.732666
vt 0.185059 0.725342
vt 0.181396 0.729004
vt 0.176514 0.732178
vt 0.176025 0.726074
vt 0.182373 0.722656
vt 0.178467 0.722656
vt 0.185303 0.714111
vt 0.187500 0.719238
vt 0.192139 0.718506
vt 0.194824 0.708496
vt 0.197998 0.716064
vt 0.189697 0.724609
vt 0.187500 0.708252
vt 0.184570 0.702393
vt 0.182617 0.692871
vt 0.194580 0.700439
vt 0.197998 0.702637
vt 0.192139 0.693848
vt 0.197998 0.697754
vt 0.201709 0.705420
vt 0.201783 0.705323
vt 0.202363 0.702604
vt 0.198730 0.693604
vt 0.202368 0.702577
vt 0.204168 0.695022
vt 0.199951 0.689697
vt 0.204125 0.694799
vt 0.203598 0.691628
vt 0.204644 0.685004
vt 0.201172 0.678223
vt 0.205030 0.682893
vt 0.207865 0.677042
vt 0.199386 0.669924
vt 0.193206 0.670112
vt 0.870470 0.614508
vt 0.859863 0.614014
vt 0.866436 0.612962
vt 0.864310 0.611753
vt 0.198383 0.658275
vt 0.201172 0.659180
vt 0.199742 0.662241
vt 0.199719 0.662693
vt 0.200855 0.667053
vt 0.199930 0.669881
vt 0.867188 0.615967
vt 0.859619 0.622314
vt 0.207764 0.654297
vt 0.174072 0.700195
vt 0.173828 0.690430
vt 0.177002 0.683350
vt 0.184326 0.689209
vt 0.175537 0.678223
vt 0.186768 0.687256
vt 0.189697 0.685303
vt 0.182129 0.680420
vt 0.186768 0.677979
vt 0.175293 0.669434
vt 0.175293 0.673584
vt 0.169434 0.665771
vt 0.170410 0.672119
vt 0.163233 0.656232
vt 0.163177 0.656206
vt 0.898841 0.579273
vt 0.895035 0.581172
vt 0.894287 0.581055
vt 0.163686 0.656560
vt 0.166260 0.658936
vt 0.169739 0.661585
vt 0.166100 0.658545
vt 0.165896 0.672334
vt 0.163523 0.659955
vt 0.171143 0.677734
vt 0.879836 0.617814
vt 0.873047 0.621826
vt 0.873956 0.615768
vt 0.879301 0.591070
vt 0.876000 0.592734
vt 0.877441 0.590332
vt 0.881496 0.589157
vt 0.174073 0.664131
vt 0.177246 0.667480
vt 0.179541 0.666840
vt 0.163344 0.658773
vt 0.894287 0.581374
vt 0.179688 0.708008
vt 0.177002 0.714355
vt 0.174072 0.718018
vt 0.177428 0.734737
vt 0.178536 0.734909
vt 0.174699 0.733539
vt 0.171589 0.731321
vt 0.171278 0.730822
vt 0.203783 0.323055
vt 0.930053 0.458832
vt 0.929719 0.453202
vt 0.935059 0.455078
vt 0.936768 0.460449
vt 0.930353 0.459621
vt 0.938077 0.467652
vt 0.944092 0.463135
vt 0.938808 0.467978
vt 0.942898 0.470061
vt 0.947266 0.469238
vt 0.943050 0.470175
vt 0.945641 0.472285
vt 0.953125 0.472168
vt 0.953125 0.464355
vt 0.948975 0.463623
vt 0.951904 0.459961
vt 0.957520 0.462891
vt 0.957764 0.457031
vt 0.959961 0.458008
vt 0.195305 0.415279
vt 0.190674 0.419678
vt 0.184082 0.418701
vt 0.192923 0.415879
vt 0.945216 0.445267
vt 0.939697 0.446533
vt 0.939913 0.446352
vt 0.939400 0.446522
vt 0.938502 0.446960
vt 0.933238 0.450022
vt 0.196492 0.414929
vt 0.205580 0.413010
vt 0.203857 0.414063
vt 0.941895 0.454102
vt 0.945313 0.445557
vt 0.951172 0.454102
vt 0.946533 0.457764
vt 0.939941 0.458008
vt 0.953613 0.448486
vt 0.956782 0.451141
vt 0.955361 0.449215
vt 0.955078 0.448242
vt 0.956082 0.449246
vt 0.170723 0.417130
vt 0.172056 0.417788
vt 0.171387 0.418457
vt 0.954573 0.447358
vt 0.956121 0.447199
vt 0.953819 0.447664
vt 0.947375 0.445786
vt 0.178701 0.418141
vt 0.181226 0.417975
vt 0.184692 0.417359
vt 0.958391 0.454196
vt 0.933412 0.464364
vt 0.209463 0.712267
vt 0.947317 0.472712
s 0
usemtl Mat_0.029
f 76/1/1 77/1/1 78/1/1
f 78/1/1 84/1/1 76/1/1
f 84/1/1 106/1/1 76/1/1
f 106/1/1 107/1/1 105/1/1
f 107/1/1 104/1/1 105/1/1
f 130/1/1 102/1/1 104/1/1
f 130/1/1 104/1/1 137/1/1
f 136/1/1 130/1/1 137/1/1
f 132/1/1 136/1/1 117/1/1
f 132/1/1 117/1/1 116/1/1
f 118/1/1 132/1/1 116/1/1
f 120/1/2 118/1/2 119/1/2
f 103/1/1 131/1/1 133/1/1
f 103/1/1 133/1/1 122/1/1
f 103/1/1 122/1/1 121/1/1
f 123/1/1 103/1/1 121/1/1
f 125/1/1 129/1/1 124/1/1
f 125/1/1 128/1/1 129/1/1
f 141/1/3 82/1/3 81/1/3
f 141/1/4 81/1/4 83/1/4
f 83/1/1 78/1/1 141/1/1
f 104/1/1 108/1/1 109/1/1
f 106/1/1 139/1/1 138/1/1
f 134/1/1 135/1/1 127/1/1
f 135/1/1 126/1/1 127/1/1
f 126/1/1 135/1/1 128/1/1
f 126/1/1 128/1/1 125/1/1
f 129/1/1 123/1/1 124/1/1
f 123/1/1 129/1/1 103/1/1
f 131/1/1 103/1/1 102/1/1
f 118/1/1 120/1/1 132/1/1
f 136/1/1 132/1/1 130/1/1
f 104/1/1 109/1/1 137/1/1
f 131/1/1 102/1/1 130/1/1
f 104/1/1 107/1/1 108/1/1
f 107/1/1 106/1/1 138/1/1
f 106/1/1 84/1/1 139/1/1
f 84/1/1 78/1/1 83/1/1
f 77/1/1 76/1/1 75/1/1
f 75/1/1 113/1/1 77/1/1
f 113/1/1 79/1/1 77/1/1
f 112/1/1 79/1/1 113/1/1
f 110/1/1 112/1/1 111/1/1
f 112/1/1 110/1/1 87/1/1
f 86/1/1 112/1/1 87/1/1
f 80/1/5 112/1/5 85/1/5
f 100/1/1 88/1/1 89/1/1
f 100/1/1 89/1/1 99/1/1
f 114/1/1 74/1/1 115/1/1
f 115/1/1 74/1/1 88/1/1
f 114/1/1 75/1/1 74/1/1
f 97/1/6 91/1/6 140/1/6
f 95/1/1 97/1/1 140/1/1
f 96/1/1 95/1/1 94/1/1
f 97/1/1 95/1/1 96/1/1
f 98/1/1 91/1/1 97/1/1
f 91/1/1 98/1/1 90/1/1
f 90/1/1 98/1/1 92/1/1
f 92/1/1 98/1/1 93/1/1
f 98/1/1 89/1/1 93/1/1
f 115/1/1 88/1/1 101/1/1
f 89/1/1 98/1/1 99/1/1
f 88/1/1 100/1/1 101/1/1
f 85/1/1 112/1/1 86/1/1
f 79/1/1 112/1/1 80/1/1
f 113/1/1 75/1/1 114/1/1
f 148/1/7 142/1/7 143/1/7
f 148/1/7 143/1/7 149/1/7
f 142/1/7 147/1/7 146/1/7
f 142/1/7 146/1/7 145/1/7
f 163/1/7 142/1/7 145/1/7
f 142/1/7 163/1/7 144/1/7
f 151/1/8 152/1/8 150/1/8
f 161/1/7 152/1/7 151/1/7
f 152/1/7 161/1/7 162/1/7
f 161/1/7 153/1/7 154/1/7
f 153/1/7 161/1/7 159/1/7
f 158/1/7 153/1/7 159/1/7
f 143/1/7 158/1/7 160/1/7
f 158/1/7 143/1/7 157/1/7
f 156/1/7 158/1/7 157/1/7
f 155/1/7 158/1/7 156/1/7
f 153/1/7 158/1/7 155/1/7
f 162/1/7 161/1/7 154/1/7
f 143/1/7 160/1/7 149/1/7
f 142/1/7 148/1/7 147/1/7
f 4/2/9 26/3/9 27/4/9
f 4/2/10 27/4/10 28/5/10
f 77/6/11 4/2/11 28/5/11
f 77/6/12 28/5/12 78/7/12
f 76/8/13 106/9/13 26/3/13
f 105/10/14 26/3/14 106/9/14
f 105/10/15 104/11/15 29/12/15
f 102/13/16 29/12/16 104/11/16
f 136/14/17 137/15/17 68/16/17
f 136/14/18 68/16/18 69/17/18
f 136/14/18 69/17/18 117/18/18
f 116/19/19 70/20/19 118/21/19
f 118/21/20 70/20/20 72/22/20
f 118/21/20 72/22/20 119/23/20
f 120/24/21 119/23/21 72/22/21
f 120/24/22 72/22/22 10/25/22
f 120/24/22 10/25/22 132/26/22
f 132/27/23 10/28/23 9/29/23
f 132/27/23 9/29/23 130/30/23
f 130/30/24 9/29/24 8/31/24
f 130/30/24 8/31/24 131/32/24
f 131/32/25 8/31/25 7/33/25
f 131/32/25 7/33/25 133/34/25
f 123/35/26 121/36/26 5/37/26
f 124/38/27 123/35/27 5/37/27
f 124/38/28 5/37/28 6/39/28
f 124/38/28 6/39/28 125/40/28
f 128/41/29 34/42/29 129/43/29
f 103/44/30 129/43/30 34/42/30
f 102/13/31 103/44/31 34/42/31
f 128/41/32 39/45/32 34/42/32
f 36/46/33 34/42/33 39/45/33
f 40/47/34 36/46/34 39/45/34
f 40/47/35 39/45/35 41/48/35
f 40/47/36 41/48/36 6/49/36
f 38/50/37 40/47/37 6/49/37
f 38/50/38 6/49/38 42/51/38
f 38/50/39 42/51/39 37/52/39
f 35/53/40 38/50/40 37/52/40
f 32/54/41 35/53/41 37/52/41
f 32/54/42 37/52/42 31/55/42
f 30/56/43 32/54/43 31/55/43
f 31/55/44 27/4/44 30/56/44
f 30/56/45 29/12/45 32/54/45
f 32/54/46 29/12/46 33/57/46
f 33/57/47 29/12/47 34/42/47
f 30/56/48 26/3/48 29/12/48
f 37/52/49 43/58/49 31/55/49
f 43/58/50 44/59/50 31/55/50
f 44/59/51 45/60/51 31/55/51
f 31/55/52 45/60/52 49/61/52
f 31/55/53 49/61/53 28/5/53
f 49/61/54 66/62/54 28/5/54
f 49/61/55 63/63/55 66/62/55
f 66/62/56 63/63/56 67/64/56
f 141/65/57 66/62/57 67/64/57
f 141/65/57 67/64/57 82/66/57
f 81/67/58 65/68/58 83/69/58
f 84/70/59 83/69/59 65/68/59
f 84/70/60 65/68/60 64/71/60
f 84/70/61 64/71/61 139/72/61
f 138/73/62 139/72/62 64/71/62
f 107/74/63 138/73/63 64/71/63
f 107/74/64 64/71/64 60/75/64
f 107/74/64 60/75/64 108/76/64
f 109/77/65 108/76/65 60/75/65
f 109/77/66 60/75/66 68/16/66
f 142/78/67 68/16/67 60/75/67
f 142/78/67 60/75/67 143/79/67
f 149/80/68 71/81/68 148/82/68
f 147/83/69 148/82/69 71/81/69
f 147/84/70 71/85/70 70/20/70
f 147/84/70 70/20/70 146/86/70
f 145/87/71 69/17/71 163/88/71
f 145/87/71 70/20/71 69/17/71
f 163/88/72 68/16/72 144/89/72
f 145/87/73 146/86/73 70/20/73
f 149/80/68 73/90/68 71/81/68
f 71/81/74 73/90/74 46/91/74
f 10/25/75 71/85/75 46/92/75
f 45/60/76 10/93/76 46/94/76
f 45/60/77 46/94/77 47/95/77
f 45/60/78 47/95/78 50/96/78
f 50/96/79 47/95/79 52/97/79
f 52/97/80 61/98/80 50/96/80
f 50/96/81 61/98/81 63/63/81
f 63/63/82 61/98/82 62/99/82
f 63/63/83 62/99/83 65/68/83
f 58/100/84 62/99/84 61/98/84
f 58/100/85 59/101/85 62/99/85
f 62/99/86 59/101/86 64/71/86
f 56/102/87 59/101/87 58/100/87
f 55/103/88 56/102/88 58/100/88
f 55/103/89 58/100/89 52/97/89
f 52/97/90 53/104/90 55/103/90
f 51/105/91 53/104/91 52/97/91
f 150/106/92 53/104/92 51/105/92
f 150/106/92 51/105/92 151/107/92
f 152/108/93 162/109/93 54/110/93
f 152/111/94 54/112/94 53/104/94
f 53/104/95 54/112/95 56/102/95
f 153/113/96 56/102/96 54/112/96
f 153/113/96 54/112/96 154/114/96
f 158/115/97 159/116/97 48/117/97
f 158/118/98 48/119/98 73/90/98
f 158/118/98 73/90/98 160/120/98
f 156/121/99 157/122/99 57/123/99
f 155/124/100 156/121/100 57/123/100
f 155/125/101 57/126/101 56/102/101
f 143/79/102 57/126/102 157/127/102
f 161/128/103 48/117/103 159/116/103
f 161/128/104 51/105/104 48/117/104
f 48/117/105 51/105/105 47/95/105
f 155/125/101 56/102/101 153/113/101
f 162/109/106 154/129/106 54/110/106
f 161/128/107 151/107/107 51/105/107
f 152/111/94 53/104/94 150/106/94
f 53/104/108 56/102/108 55/103/108
f 56/102/109 57/126/109 59/101/109
f 59/101/110 57/126/110 60/75/110
f 52/97/111 58/100/111 61/98/111
f 52/97/112 47/95/112 51/105/112
f 47/95/113 46/94/113 48/117/113
f 73/90/114 48/119/114 46/91/114
f 149/80/115 160/120/115 73/90/115
f 143/79/102 60/75/102 57/126/102
f 142/78/116 144/89/116 68/16/116
f 64/71/117 59/101/117 60/75/117
f 65/68/118 62/99/118 64/71/118
f 81/67/119 67/64/119 65/68/119
f 81/67/120 82/66/120 67/64/120
f 78/7/121 66/62/121 141/65/121
f 67/64/122 63/63/122 65/68/122
f 50/96/123 63/63/123 49/61/123
f 45/60/124 50/96/124 49/61/124
f 44/59/125 10/93/125 45/60/125
f 43/58/126 9/130/126 44/59/126
f 37/52/127 9/130/127 43/58/127
f 32/54/128 33/57/128 35/53/128
f 35/53/129 33/57/129 36/46/129
f 35/53/130 36/46/130 38/50/130
f 42/51/131 8/131/131 37/52/131
f 42/51/132 6/49/132 7/132/132
f 134/133/133 41/48/133 39/45/133
f 134/133/133 39/45/133 135/134/133
f 127/135/134 126/136/134 41/48/134
f 125/137/135 41/48/135 126/136/135
f 134/133/136 127/135/136 41/48/136
f 38/50/137 36/46/137 40/47/137
f 36/46/138 33/57/138 34/42/138
f 128/41/139 135/134/139 39/45/139
f 125/137/140 6/49/140 41/48/140
f 6/39/141 5/37/141 7/33/141
f 121/36/142 122/138/142 5/37/142
f 133/34/143 5/37/143 122/138/143
f 133/34/143 7/33/143 5/37/143
f 42/51/144 7/132/144 8/131/144
f 37/52/145 8/131/145 9/130/145
f 44/59/146 9/130/146 10/93/146
f 10/25/147 72/22/147 71/85/147
f 72/22/148 70/20/148 71/85/148
f 116/19/19 69/17/19 70/20/19
f 116/19/149 117/18/149 69/17/149
f 163/88/72 69/17/72 68/16/72
f 109/77/66 68/16/66 137/15/66
f 102/13/16 34/42/16 29/12/16
f 105/10/14 29/12/14 26/3/14
f 112/139/150 113/140/150 11/141/150
f 112/139/151 11/141/151 13/142/151
f 112/139/151 13/142/151 111/143/151
f 87/144/152 14/145/152 86/146/152
f 85/147/153 86/146/153 14/145/153
f 85/147/154 14/145/154 25/148/154
f 85/147/154 25/148/154 80/149/154
f 79/150/155 80/149/155 25/148/155
f 79/150/156 25/148/156 4/151/156
f 23/152/157 4/151/157 25/148/157
f 23/152/158 25/148/158 24/153/158
f 24/153/159 22/154/159 23/152/159
f 22/154/160 3/155/160 23/152/160
f 22/154/161 21/156/161 3/155/161
f 21/156/162 2/157/162 3/155/162
f 88/158/163 3/159/163 2/160/163
f 88/158/163 2/160/163 89/161/163
f 99/162/164 12/163/164 100/164/164
f 101/165/165 100/164/165 12/163/165
f 115/166/166 101/165/166 12/163/166
f 115/166/167 12/163/167 11/141/167
f 115/166/167 11/141/167 114/167/167
f 74/168/168 75/169/168 4/170/168
f 74/168/169 4/170/169 3/159/169
f 16/171/170 11/141/170 12/163/170
f 16/171/171 12/163/171 17/172/171
f 16/171/172 17/172/172 19/173/172
f 16/171/173 19/173/173 18/174/173
f 15/175/174 16/171/174 18/174/174
f 15/175/175 18/174/175 14/145/175
f 13/142/176 15/175/176 14/145/176
f 18/174/177 24/153/177 14/145/177
f 19/173/178 22/154/178 18/174/178
f 17/172/179 20/176/179 19/173/179
f 20/176/180 21/156/180 19/173/180
f 91/177/181 21/156/181 20/176/181
f 91/177/181 20/176/181 140/178/181
f 140/178/182 1/179/182 95/180/182
f 94/181/183 95/182/183 1/183/183
f 96/184/184 94/185/184 1/179/184
f 96/184/185 1/179/185 20/176/185
f 96/184/185 20/176/185 97/186/185
f 97/186/186 17/172/186 98/187/186
f 99/162/187 98/187/187 17/172/187
f 90/188/188 92/189/188 2/160/188
f 92/189/189 93/190/189 2/160/189
f 140/178/190 20/176/190 1/179/190
f 90/191/191 21/156/191 91/177/191
f 97/186/186 20/176/186 17/172/186
f 11/141/192 16/171/192 15/175/192
f 99/162/193 17/172/193 12/163/193
f 93/190/194 89/161/194 2/160/194
f 74/168/169 3/159/169 88/158/169
f 90/191/191 2/157/191 21/156/191
f 19/173/195 21/156/195 22/154/195
f 18/174/196 22/154/196 24/153/196
f 23/152/197 3/155/197 4/151/197
f 24/153/198 25/148/198 14/145/198
f 87/144/152 13/142/152 14/145/152
f 87/144/199 110/192/199 13/142/199
f 110/192/200 111/143/200 13/142/200
f 13/142/201 11/141/201 15/175/201
f 113/140/202 114/167/202 11/141/202
f 76/8/203 4/2/203 75/193/203
f 78/7/121 28/5/121 66/62/121
f 79/150/156 4/151/156 77/194/156
f 28/5/204 27/4/204 31/55/204
f 27/4/205 26/3/205 30/56/205
f 76/8/203 26/3/203 4/2/203
o Object.2
v -0.096096 0.921983 -0.155133
v -0.079634 0.899761 -0.125135
v -0.078229 0.905264 -0.164590
v -0.094924 0.890353 -0.151025
v -0.086620 0.871051 -0.161335
v -0.103586 0.868038 -0.162342
v -0.085719 0.868455 -0.129631
v -0.085767 0.845394 -0.149010
v -0.105204 0.839639 -0.152963
v -0.072309 0.850181 -0.106532
v -0.084847 0.818845 -0.123508
v -0.077522 0.785630 -0.150793
v -0.077735 0.949375 -0.145909
v -0.061263 0.922371 -0.117539
v -0.057600 0.948435 -0.159474
v -0.076223 0.959985 -0.151878
v -0.062474 0.981201 -0.161645
v -0.030897 0.972191 -0.148777
v -0.049481 0.938184 -0.113973
v -0.042495 0.952112 -0.134127
v -0.045237 0.974388 -0.135057
v -0.028673 0.980769 -0.134825
v -0.025674 0.957098 -0.124980
v -0.050343 0.989616 -0.156296
v -0.028300 0.998852 -0.155986
v -0.007356 0.989461 -0.134282
v -0.031619 0.938446 -0.104361
v 0.013015 0.965125 -0.115058
v 0.020509 0.983291 -0.130329
v 0.035235 0.937961 -0.103431
v 0.064403 0.938862 -0.146839
v 0.048664 0.974708 -0.144979
v 0.054132 0.956507 -0.128158
v 0.061443 0.900585 -0.129011
v 0.055045 0.906563 -0.105912
v -0.058889 0.853611 -0.159707
v -0.052339 0.835395 -0.150095
v -0.073985 0.827488 -0.131802
v -0.017288 0.823264 -0.155754
v -0.036754 0.830453 -0.147072
v -0.042083 0.813245 -0.130251
v -0.045726 0.806559 -0.102113
v -0.060013 0.821694 -0.103354
v -0.040596 0.820899 -0.119399
v -0.030151 0.846441 -0.131026
v -0.013499 0.820454 -0.096998
v -0.014652 0.803575 -0.086145
v 0.007444 0.823167 -0.078084
v -0.016881 0.840046 -0.112811
v 0.021331 0.833089 -0.091417
v 0.007555 0.858087 -0.146297
v 0.035587 0.823903 -0.087851
v 0.004373 0.828341 -0.120872
v 0.002188 0.816462 -0.104982
v 0.031084 0.844667 -0.106609
v 0.014042 0.830918 -0.132654
v 0.003316 0.831616 -0.152575
v 0.028498 0.844028 -0.135600
v 0.027743 0.890362 -0.161102
v 0.022166 0.859696 -0.129476
v 0.032211 0.866062 -0.136375
v 0.040841 0.874501 -0.113508
v 0.001432 0.854531 -0.082735
v 0.033760 0.858232 -0.095292
v 0.014701 0.855413 -0.077464
v 0.052761 0.848078 -0.094672
v 0.052422 0.827236 -0.101183
v 0.054016 0.789584 -0.118857
v 0.034203 0.878929 -0.086223
v 0.018972 0.876226 -0.091494
v 0.052136 0.880121 -0.102036
v 0.063635 0.876216 -0.115291
v 0.038997 0.898123 -0.095292
v 0.039619 0.898453 -0.119322
v 0.043113 0.902435 -0.105447
v 0.005254 0.909334 -0.091649
v 0.028957 0.927628 -0.107229
v 0.083447 0.904954 -0.129166
v 0.087899 0.870073 -0.137848
v -0.011949 0.924861 -0.100331
v 0.012524 0.952771 -0.114593
v 0.018445 0.944279 -0.135057
v 0.008478 0.956182 -0.130484
v -0.008442 0.963335 -0.145134
v 0.029972 0.917909 -0.132422
v -0.000419 0.927831 -0.156916
v -0.010864 0.941454 -0.161025
v 0.018868 0.928151 -0.162575
v 0.014281 0.915768 -0.149242
v -0.015534 0.866846 -0.149707
v -0.013776 0.856275 -0.134980
v 0.020149 0.898065 -0.139553
v 0.033048 0.887426 -0.143816
v 0.023054 0.878629 -0.132654
v -0.050275 0.781309 -0.106687
v -0.034128 0.747726 -0.133584
v -0.049335 0.785824 -0.088858
v -0.029497 0.806307 -0.082580
v -0.038343 0.779894 -0.069480
v -0.020190 0.771600 -0.073045
v -0.037413 0.760070 -0.085680
v -0.008354 0.776716 -0.095835
v -0.017244 0.770263 -0.134437
v 0.004998 0.775108 -0.096067
v -0.001553 0.750439 -0.120639
v -0.014037 0.719394 -0.130174
v 0.052450 0.756814 -0.135445
v 0.067956 0.775379 -0.124515
v 0.013285 0.732920 -0.138545
v -0.021314 0.725828 -0.152575
v 0.036309 0.728328 -0.162110
v 0.092521 0.734199 -0.158079
v 0.074223 0.731215 -0.141801
v 0.059272 0.750807 -0.121880
v 0.104410 0.736544 -0.126065
v 0.098592 0.770631 -0.117616
v 0.100714 0.774643 -0.137305
v 0.124404 0.738928 -0.150483
v 0.137049 0.788091 -0.157459
v 0.110408 0.817373 -0.155133
v 0.078055 0.841586 -0.119244
v 0.083549 0.801172 -0.129244
v 0.095927 0.846673 -0.135910
v 0.111740 0.854725 -0.143041
v 0.110350 0.848844 -0.161102
v 0.111256 0.881584 -0.158234
v 0.116594 0.916892 -0.163738
v 0.096019 0.902736 -0.143506
v 0.092298 0.941391 -0.154823
v -0.021037 0.725459 -0.164819
v -0.004113 0.720801 -0.164819
v 0.008455 0.721109 -0.164819
v 0.017570 0.861520 -0.164819
v 0.020662 0.872456 -0.164819
v 0.022052 0.888418 -0.164819
v 0.015905 0.862272 -0.164819
v 0.000139 0.867954 -0.164819
v -0.012068 0.871855 -0.164819
v 0.014904 0.858324 -0.164819
v 0.016651 0.860849 -0.164819
v -0.057059 0.759803 -0.164819
v -0.077492 0.780562 -0.164819
v -0.048617 0.745431 -0.164819
v -0.034484 0.732030 -0.164819
v 0.113669 0.808951 -0.164819
v 0.107406 0.817423 -0.164819
v 0.108341 0.821003 -0.164819
v 0.136285 0.784032 -0.164819
v 0.132997 0.788576 -0.164819
v 0.145446 0.776135 -0.164819
v 0.151598 0.752138 -0.164819
v 0.071679 0.742526 -0.164819
v 0.131781 0.711924 -0.164819
v 0.058838 0.748427 -0.164819
v 0.045919 0.736136 -0.164819
v 0.038979 0.730847 -0.164819
v 0.028832 0.725579 -0.164819
v 0.151767 0.746723 -0.164819
v 0.151700 0.744736 -0.164819
v 0.156936 0.720848 -0.164819
v 0.133412 0.711488 -0.164819
v 0.109442 0.847477 -0.164819
v 0.113681 0.852086 -0.164819
v 0.116208 0.877701 -0.164819
v 0.117213 0.879779 -0.164819
v 0.117771 0.916670 -0.164819
v 0.116229 0.919005 -0.164819
v 0.118044 0.915490 -0.164819
v 0.088106 0.945717 -0.164819
v 0.067391 0.956939 -0.164819
v 0.058685 0.952991 -0.164819
v 0.050377 0.971971 -0.164819
v 0.028900 0.994880 -0.164819
v 0.017906 1.000918 -0.164819
v 0.021193 0.905884 -0.164819
v 0.016713 0.928453 -0.164819
v 0.006478 0.928637 -0.164819
v -0.019086 0.934426 -0.164819
v -0.025499 0.935535 -0.164819
v -0.011671 0.940668 -0.164819
v -0.001877 0.936499 -0.164819
v -0.071144 0.923295 -0.164819
v -0.050306 0.944048 -0.164819
v -0.036487 0.949059 -0.164819
v -0.082494 0.956449 -0.164819
v -0.066120 0.977609 -0.164819
v -0.064796 0.980819 -0.164819
v -0.059888 0.985461 -0.164819
v -0.047117 0.990808 -0.164819
v -0.023758 1.004392 -0.164819
v -0.103836 0.879319 -0.164819
v -0.103044 0.867104 -0.164819
v -0.102788 0.848264 -0.164819
v -0.102300 0.837569 -0.164819
v -0.101502 0.825616 -0.164819
v 0.010157 1.002084 -0.164819
v -0.012219 1.005911 -0.164819
v -0.082832 0.794789 -0.164819
v -0.081997 0.788655 -0.164819
v -0.091668 0.805999 -0.164819
v -0.096989 0.817121 -0.164819
v -0.031607 0.846713 -0.164819
v -0.028042 0.856431 -0.164819
v -0.021196 0.864006 -0.164819
v -0.020872 0.837121 -0.164819
v -0.055353 0.848115 -0.164819
v -0.051305 0.839358 -0.164819
v -0.070327 0.896505 -0.164819
v -0.059817 0.880459 -0.164819
v -0.080062 0.870137 -0.164819
v -0.077884 0.905020 -0.164819
v -0.076353 0.904908 -0.164819
v -0.076753 0.909314 -0.164819
v -0.074140 0.920459 -0.164819
v -0.102337 0.894253 -0.164819
v -0.102164 0.900778 -0.164819
v -0.102427 0.893163 -0.164819
v -0.072576 0.920387 -0.164819
v -0.072886 0.921287 -0.164819
v -0.095629 0.929805 -0.164819
v -0.084986 0.949522 -0.164819
v -0.096216 0.925390 -0.164819
v -0.058847 0.857828 -0.164819
v -0.036814 0.833648 -0.164819
v 0.117552 0.914499 -0.164819
v 0.099039 0.945393 -0.164819
vn -0.0000 -0.0000 -1.0000
vn -0.0001 -0.0000 -1.0000
vn 0.3243 -0.8760 -0.3569
vn 0.4502 -0.4226 0.7866
vn 0.2799 -0.5600 0.7798
vn 0.2853 -0.4437 0.8496
vn -0.0933 -0.4461 0.8901
vn 0.3441 -0.0360 0.9382
vn 0.3623 -0.0484 0.9308
vn 0.4736 0.0390 0.8799
vn 0.5022 0.3959 0.7688
vn 0.7200 -0.0952 0.6874
vn 0.8602 0.0966 0.5008
vn 0.5214 -0.8224 0.2277
vn 0.3229 0.1876 0.9277
vn 0.4545 0.4448 0.7718
vn 0.6674 -0.0371 0.7437
vn 0.6991 0.0057 0.7150
vn 0.5675 0.2812 0.7739
vn 0.7467 0.2521 0.6156
vn 0.1874 0.5347 0.8240
vn -0.0782 0.4259 0.9014
vn 0.9119 0.1132 0.3944
vn 0.9642 0.1225 0.2353
vn 0.9556 0.2051 0.2116
vn 0.7571 0.0124 0.6532
vn 0.5261 0.0664 0.8478
vn -0.4259 -0.5731 0.7001
vn -0.9980 -0.0574 -0.0266
vn -0.9392 0.0350 0.3415
vn -0.5739 0.8146 -0.0840
vn -0.5953 0.0722 -0.8002
vn -0.9279 0.1681 0.3328
vn -0.8528 0.2411 0.4633
vn -0.7464 0.5163 0.4199
vn -0.4818 0.6606 0.5757
vn -0.6663 0.7444 0.0430
vn -0.6943 0.7157 0.0765
vn -0.6921 0.7148 0.1005
vn -0.6560 -0.3350 -0.6764
vn -0.5614 -0.6998 0.4417
vn -0.2984 -0.4714 0.8299
vn -0.0902 0.9941 0.0608
vn 0.3857 0.7541 0.5316
vn -0.2353 -0.3859 0.8920
vn -0.2400 -0.3853 0.8910
vn -0.6623 -0.4122 -0.6256
vn -0.9517 0.2844 -0.1159
vn -0.1093 0.9766 -0.1851
vn 0.6433 0.1834 0.7434
vn 0.4068 -0.0314 0.9130
vn 0.6314 -0.2406 0.7372
vn 0.9360 -0.1188 0.3315
vn 0.3837 0.1734 0.9070
vn 0.7546 -0.0662 0.6528
vn 0.3509 0.4240 0.8349
vn 0.6556 -0.2979 0.6938
vn 0.6273 -0.3090 0.7149
vn 0.4819 -0.4306 0.7631
vn 0.3156 -0.3466 0.8833
vn -0.0257 -0.3492 0.9367
vn -0.0712 -0.6944 0.7161
vn -0.8376 -0.4737 0.2721
vn -0.3732 0.3126 0.8735
vn 0.5248 -0.3640 0.7695
vn -0.6904 -0.6245 0.3653
vn -0.6911 -0.6802 0.2443
vn -0.1140 0.5231 0.8446
vn -0.5011 -0.5608 -0.6591
vn -0.9380 0.3441 0.0432
vn -0.7335 0.6629 0.1502
vn -0.6487 0.7543 0.1013
vn 0.2840 0.8888 0.3597
vn 0.3185 0.8836 0.3432
vn 0.9057 -0.2296 0.3564
vn 0.9880 -0.1468 -0.0481
vn 0.5369 0.5142 0.6688
vn -0.1168 0.9074 0.4037
vn 0.4503 -0.4367 0.7788
vn -0.5919 0.5217 0.6144
vn -0.9252 0.3795 0.0026
vn -0.9662 0.2537 -0.0465
vn -0.9606 0.2715 -0.0599
vn -0.4077 0.7586 0.5083
vn -0.3491 0.5235 0.7772
vn -0.6299 0.4500 0.6330
vn -0.3666 0.8876 0.2787
vn 0.1532 0.9815 -0.1146
vn 0.1404 -0.4120 0.9003
vn -0.4295 0.7661 0.4781
vn 0.3183 0.3117 0.8953
vn 0.8832 0.0385 0.4673
vn 0.5155 -0.8535 0.0761
vn -0.1381 -0.6306 0.7637
vn -0.8567 -0.3499 0.3789
vn -0.9042 -0.4002 0.1490
vn -0.9844 0.1760 0.0073
vn -0.2258 -0.1341 0.9649
vn 0.7185 0.6604 -0.2184
vn -0.3930 0.8440 0.3649
vn 0.7395 -0.5245 0.4219
vn -0.8175 0.0152 0.5757
vn -0.8506 -0.4519 0.2689
vn -0.9721 -0.0444 -0.2304
vn -0.9778 -0.0133 -0.2089
vn 0.3073 -0.6026 0.7365
vn 0.4078 0.7027 0.5830
vn 0.4077 0.7027 0.5830
vn 0.9045 0.3253 0.2758
vn 0.8938 0.4132 0.1740
vn -0.7809 -0.6155 -0.1063
vn -0.8680 -0.4152 0.2724
vn -0.9524 -0.1297 0.2759
vn 0.3534 0.8968 0.2662
vn 0.1795 0.5088 0.8419
vn 0.2445 0.7507 0.6137
vn 0.1566 0.8256 0.5421
vn 0.2180 0.4285 0.8769
vn 0.9994 0.0204 -0.0267
vn 0.0348 -0.6430 0.7651
vn -0.1792 0.9801 0.0854
vn 0.0292 -0.4611 0.8869
vn 0.6784 -0.0971 0.7282
vn 0.1049 0.0687 0.9921
vn 0.6900 0.6123 0.3860
vn -0.0526 -0.7211 0.6909
vn 0.1232 0.0112 0.9923
vn 0.3965 -0.0930 0.9133
vn 0.4917 -0.4263 0.7593
vn 0.9197 0.3159 -0.2333
vn 0.9197 0.3158 -0.2334
vn -0.0460 -0.9975 0.0529
vn -0.0459 -0.9976 0.0528
vn -0.7105 0.2555 0.6557
vn -0.8329 0.4496 0.3229
vn -0.1141 0.8669 0.4852
vn 0.1505 0.8802 0.4502
vn 0.1334 0.8865 0.4430
vn -0.9677 0.2339 0.0943
vn -0.8691 0.0231 0.4940
vn 0.7118 0.6917 0.1218
vn -0.8700 0.0715 0.4878
vn -0.8674 0.0883 0.4898
vn 0.2143 -0.5911 0.7776
vn 0.3835 -0.3851 0.8395
vn 0.6980 -0.6390 -0.3233
vn 0.6379 -0.7191 -0.2758
vn -0.5508 -0.8299 -0.0887
vn -0.4517 0.5977 0.6624
vn -0.7730 0.5982 0.2111
vn -0.7730 0.5982 0.2112
vn -0.3862 0.9223 -0.0172
vn -0.4836 0.8316 0.2730
vn -0.3158 0.7335 0.6018
vn -0.2899 0.7301 0.6188
vn -0.3113 0.7252 0.6142
vn -0.1701 0.3599 0.9173
vn -0.8117 0.5300 0.2454
vn -0.1283 0.5464 0.8276
vn 0.5414 -0.7866 0.2969
vn 0.0615 -0.8671 -0.4944
vn -0.6252 -0.6744 0.3928
vn -0.7557 -0.6528 0.0523
vn -0.7780 0.4679 -0.4193
vn -0.0860 0.5121 0.8546
vn -0.4137 0.0507 0.9090
vn 0.2646 0.5542 0.7892
vn 0.3995 0.5603 0.7256
vn 0.4940 0.6655 0.5595
vn 0.1783 -0.4331 0.8836
vn -0.2216 -0.2150 0.9511
vn 0.2733 0.3934 0.8778
vn -0.6027 0.1075 -0.7907
vn -0.0678 -0.9543 0.2910
vn -0.9180 -0.3811 0.1101
vn -0.7174 0.1077 0.6883
vn -0.4673 -0.7525 0.4641
vn -0.7242 0.6805 -0.1120
vn -0.6249 -0.2348 -0.7446
vn -0.6235 -0.7796 0.0590
vn -0.7298 0.5205 -0.4432
vn -0.9385 -0.2097 0.2744
vn 0.5709 -0.6902 -0.4446
vn -0.9679 0.2100 -0.1379
vn 0.1611 -0.8504 0.5009
vn -0.0178 -0.9930 -0.1168
vn -0.0178 -0.9930 -0.1169
vn 0.3431 0.6333 0.6937
vn -0.5403 -0.0266 0.8411
vn 0.0273 0.9215 0.3873
vn -0.3151 0.6950 0.6463
vn 0.9158 0.4009 0.0238
vn 0.7292 0.6836 -0.0313
vn 0.4452 0.8105 0.3806
vn -0.0707 -0.4086 0.9100
vn -0.3351 -0.5291 0.7796
vn -0.7092 -0.3612 0.6055
vn -0.2542 -0.8410 -0.4776
vn 0.6438 -0.7649 0.0215
vn -0.3777 -0.8874 0.2642
vn -0.5688 -0.6043 -0.5579
vn -0.5687 -0.6043 -0.5580
vn -0.7235 -0.1436 0.6752
vn -0.6954 -0.2361 0.6787
vn -0.9145 -0.3884 0.1130
vn 0.2099 -0.5130 0.8324
vn -0.0270 -0.8623 -0.5058
vn -0.5454 -0.3724 0.7509
vn -0.9655 0.0481 0.2561
vn -0.5565 -0.5300 -0.6399
vn -0.9815 -0.0472 0.1855
vn 0.3134 -0.8304 0.4606
vn -0.6263 0.5544 0.5481
vn -0.6346 0.6710 0.3835
vn -0.7820 0.3225 0.5333
vn -0.8844 0.3182 0.3416
vn -0.7118 0.4139 0.5675
vn 0.5336 0.3557 0.7673
vn 0.9062 0.1284 0.4028
vn 0.6959 0.1153 0.7089
vn -0.5018 -0.4077 0.7628
vn 0.0313 0.6356 0.7714
vn -0.1141 0.8670 0.4851
vn -0.9896 0.1317 0.0586
vn 0.3964 -0.0929 0.9133
vn 0.6238 -0.7768 -0.0861
vn -0.9797 -0.0635 -0.1904
vn -0.8604 0.2034 0.4674
vn -0.9718 -0.0649 -0.2267
vn -0.2803 0.9597 -0.0193
vn 0.9031 0.2881 -0.3186
vn -0.6017 -0.2087 0.7709
vn -0.6725 0.4782 0.5649
vn 0.3831 0.8863 0.2602
vn 0.2487 0.6366 0.7300
vn -0.5617 0.4588 0.6885
vn 0.5481 0.5806 0.6021
vn 0.4630 0.6782 0.5707
vn -0.1332 0.9854 0.1062
vn 0.2238 0.8043 0.5505
vn -0.3130 0.7535 0.5782
vn 0.3149 0.9460 -0.0773
vn 0.3534 0.8968 0.2661
vn -0.8608 -0.4792 0.1713
vn -0.7901 -0.4640 0.4006
vn -0.6448 -0.6800 0.3491
vn 0.7747 -0.0764 0.6277
vn 0.7343 -0.6753 0.0690
vn 0.9740 -0.0405 -0.2230
vn 0.9265 -0.2420 -0.2883
vn 0.7809 0.5772 -0.2389
vn 0.0224 -0.9134 0.4065
vn -0.2653 -0.9639 0.0230
vn -0.4390 -0.8983 0.0171
vn 0.1990 -0.9070 0.3712
vn 0.4320 -0.8321 -0.3479
vn 0.6001 -0.7874 -0.1407
vn 0.6492 -0.6824 0.3360
vn -0.4117 -0.8960 0.1663
vn -0.4343 -0.8530 0.2893
vn -0.1320 -0.4928 0.8601
vn 0.1646 -0.4138 0.8954
vn 0.4464 0.0978 0.8895
vn 0.4676 -0.0159 0.8838
vn 0.4807 0.0151 0.8767
vn 0.7929 0.2033 0.5744
vn 0.5874 0.6813 -0.4367
vn 0.7502 0.5430 -0.3773
vn 0.6839 0.6487 -0.3338
vn 0.8490 0.4924 0.1918
vn 0.7746 -0.0244 0.6319
vn 0.1421 -0.9897 0.0197
vn 0.1691 -0.9856 0.0094
vn -0.1852 -0.7666 0.6149
vn -0.7484 -0.6577 0.0852
vn -0.5979 -0.3268 -0.7320
vn 0.0148 -0.2382 0.9711
vn -0.1911 0.1712 0.9665
vn -0.1319 -0.4927 0.8602
vn 0.6580 -0.3183 0.6824
vn 0.7406 -0.0072 0.6719
vn 0.4392 -0.2180 0.8715
vn 0.6843 0.1588 0.7117
vn 0.6534 0.4313 0.6222
vn 0.6595 0.4296 0.6169
vn -0.7541 -0.5081 0.4161
vn -0.5679 -0.7265 -0.3868
vn 0.5043 -0.8631 0.0282
vn -0.0349 -0.3464 0.9374
vn 0.2350 0.6465 0.7259
vn -0.3406 0.6410 -0.6878
vn -0.1561 0.7261 -0.6697
vn 0.5072 0.6553 0.5597
vn -0.5578 0.0486 0.8286
vn -0.9386 0.1457 0.3128
vn -0.9106 -0.4032 0.0901
vn -0.7557 0.3718 0.5391
vn -0.2127 -0.4167 0.8838
vn -0.7346 0.6784 -0.0097
vn -0.2518 0.9437 -0.2144
vn -0.3061 0.9146 0.2643
vn 0.7684 0.1575 0.6202
vn 0.6137 0.3306 0.7170
vn 0.9104 0.3930 0.1293
vn -0.0897 0.4825 0.8713
vn 0.6595 0.4296 0.6168
vn 0.7447 -0.0701 0.6637
vn 0.6138 0.2719 0.7412
vn 0.9973 -0.0215 -0.0698
vn 0.6922 -0.0833 0.7169
vn 0.1036 0.9724 0.2093
vn 0.3861 -0.1718 0.9063
vn -0.7756 0.3317 0.5370
vn 0.4638 -0.6840 0.5631
vn 0.4065 -0.7365 0.5407
vn -0.3555 -0.1408 0.9240
vn -0.8172 -0.5672 0.1026
vt 0.000000 0.000000
vt 0.963135 0.922852
vt 0.959473 0.920898
vt 0.967041 0.919434
vt 0.968262 0.925049
vt 0.974121 0.916748
vt 0.978760 0.921631
vt 0.978516 0.918457
vt 0.118164 0.917725
vt 0.119629 0.911621
vt 0.121826 0.914795
vt 0.122314 0.920898
vt 0.120850 0.928711
vt 0.114990 0.925049
vt 0.110107 0.919922
vt 0.109131 0.925537
vt 0.107666 0.922363
vt 0.104248 0.918213
vt 0.101807 0.923828
vt 0.097900 0.919922
vt 0.094727 0.925781
vt 0.091553 0.922363
vt 0.096436 0.916016
vt 0.090576 0.918213
vt 0.094238 0.912598
vt 0.925293 0.239014
vt 0.927002 0.234131
vt 0.932373 0.244141
vt 0.934814 0.239990
vt 0.093506 0.907959
vt 0.101074 0.910889
vt 0.100098 0.907715
vt 0.097168 0.905029
vt 0.100830 0.900635
vt 0.096680 0.899414
vt 0.101074 0.896973
vt 0.104248 0.896240
vt 0.104980 0.893555
vt 0.095703 0.891113
vt 0.101555 0.888302
vt 0.099342 0.889057
vt 0.102148 0.888112
vt 0.108398 0.892334
vt 0.101737 0.888199
vt 0.109375 0.896729
vt 0.114746 0.893311
vt 0.114014 0.898193
vt 0.111084 0.900391
vt 0.116211 0.902100
vt 0.109863 0.901611
vt 0.106934 0.900635
vt 0.106934 0.906494
vt 0.103027 0.904053
vt 0.103516 0.902344
vt 0.112305 0.908203
vt 0.110107 0.914795
vt 0.981201 0.930908
vt 0.972656 0.929199
vt 0.978271 0.937012
vt 0.970947 0.930908
vt 0.964111 0.928467
vt 0.959961 0.927246
vt 0.960938 0.935547
vt 0.952881 0.934326
vt 0.953110 0.926988
vt 0.950914 0.931785
vt 0.107935 0.877156
vt 0.108931 0.874010
vt 0.110352 0.876709
vt 0.113281 0.879150
vt 0.108223 0.878502
vt 0.112305 0.882324
vt 0.106466 0.879321
vt 0.106201 0.881836
vt 0.105002 0.879918
vt 0.102886 0.881943
vt 0.106689 0.885254
vt 0.102753 0.883703
vt 0.101846 0.887675
vt 0.107178 0.889160
vt 0.112305 0.891113
vt 0.114502 0.887451
vt 0.109131 0.883301
vt 0.118896 0.884033
vt 0.117920 0.880859
vt 0.123047 0.885254
vt 0.118652 0.891846
vt 0.121582 0.893066
vt 0.117432 0.898438
vt 0.964600 0.942627
vt 0.968018 0.938721
vt 0.972168 0.936768
vt 0.965088 0.937988
vt 0.967285 0.936035
vt 0.968750 0.934082
vt 0.965576 0.934326
vt 0.962158 0.944580
vt 0.118652 0.874023
vt 0.123291 0.881592
vt 0.955322 0.942383
vt 0.956299 0.945313
vt 0.122803 0.869141
vt 0.121826 0.874023
vt 0.917480 0.788818
vt 0.928955 0.794922
vt 0.922363 0.796631
vt 0.929190 0.799734
vt 0.929855 0.798221
vt 0.932059 0.794321
vt 0.930818 0.796252
vt 0.933838 0.791260
vt 0.934178 0.791538
vt 0.105655 0.866570
vt 0.100324 0.867893
vt 0.106689 0.865479
vt 0.109375 0.870117
vt 0.107172 0.870117
vt 0.108731 0.870976
vt 0.113770 0.874512
vt 0.109708 0.872819
vt 0.927880 0.801647
vt 0.926200 0.804148
vt 0.923096 0.804199
vt 0.925691 0.805138
vt 0.115234 0.868896
vt 0.929688 0.786865
vt 0.929199 0.790039
vt 0.926270 0.789551
vt 0.932617 0.786377
vt 0.930420 0.779785
vt 0.097452 0.865699
vt 0.096191 0.864258
vt 0.096204 0.864365
vt 0.096066 0.864587
vt 0.095144 0.864847
vt 0.092374 0.866145
vt 0.930267 0.198611
vt 0.923584 0.201416
vt 0.930202 0.198107
vt 0.926270 0.196777
vt 0.930366 0.197982
vt 0.924561 0.188232
vt 0.930065 0.197407
vt 0.922150 0.191262
vt 0.920299 0.200356
vt 0.917269 0.216817
vt 0.923584 0.219727
vt 0.916546 0.219101
vt 0.916915 0.223588
vt 0.924316 0.225586
vt 0.916881 0.225223
vt 0.941874 0.782921
vt 0.938469 0.786453
vt 0.940674 0.782227
vt 0.937527 0.787552
vt 0.934814 0.783936
vt 0.936783 0.787567
vt 0.935548 0.789764
vt 0.931315 0.207367
vt 0.928955 0.203857
vt 0.929928 0.204149
vt 0.931152 0.212891
vt 0.927979 0.209717
vt 0.925537 0.208008
vt 0.921631 0.202881
vt 0.918701 0.207764
vt 0.919698 0.201536
vt 0.918395 0.206761
vt 0.918203 0.209215
vt 0.919678 0.215820
vt 0.918171 0.211903
vt 0.919678 0.211182
vt 0.924805 0.212646
vt 0.924805 0.215332
vt 0.928711 0.217041
vt 0.933350 0.218750
vt 0.928711 0.225830
vt 0.082275 0.893311
vt 0.079834 0.897949
vt 0.074463 0.890137
vt 0.081299 0.888672
vt 0.085449 0.892334
vt 0.081543 0.897949
vt 0.085693 0.899170
vt 0.085449 0.905029
vt 0.932373 0.232910
vt 0.922607 0.231689
vt 0.089355 0.900879
vt 0.093262 0.902832
vt 0.095703 0.904541
vt 0.090088 0.896484
vt 0.094238 0.895264
vt 0.096924 0.894531
vt 0.098633 0.896973
vt 0.089355 0.890381
vt 0.088623 0.892822
vt 0.086670 0.887695
vt 0.089285 0.889611
vt 0.088100 0.887695
vt 0.090074 0.923235
vt 0.088217 0.921516
vt 0.093069 0.889748
vt 0.096175 0.889660
vt 0.090829 0.924444
vt 0.919512 0.238896
vt 0.920963 0.237305
vt 0.919369 0.233489
vt 0.917426 0.227574
vt 0.085158 0.882678
vt 0.080322 0.884277
vt 0.084322 0.881541
vt 0.085449 0.885010
vt 0.077637 0.888184
vt 0.085949 0.884176
vt 0.086931 0.886096
vt 0.918162 0.207470
vt 0.082759 0.878916
vt 0.942120 0.781951
vt 0.093750 0.861328
vt 0.924899 0.806740
vt 0.954347 0.924159
vt 0.956259 0.921237
vt 0.102407 0.925295
vt 0.108234 0.926178
vt 0.109407 0.926251
vt 0.114364 0.926770
vt 0.115118 0.926907
vt 0.504188 0.068866
vt 0.505728 0.069699
vt 0.504639 0.071045
vt 0.963100 0.916244
vt 0.960956 0.917487
vt 0.958067 0.919248
vt 0.966279 0.914192
vt 0.967773 0.913818
vt 0.968076 0.913075
vt 0.969580 0.912413
vt 0.972396 0.911141
vt 0.513489 0.046110
vt 0.521973 0.045410
vt 0.515503 0.047998
vt 0.504010 0.040137
vt 0.511475 0.042236
vt 0.503782 0.039955
vt 0.501880 0.036287
vt 0.509277 0.036133
vt 0.505274 0.033464
vt 0.505391 0.033144
vt 0.506014 0.032462
vt 0.515381 0.031982
vt 0.509265 0.029155
vt 0.511963 0.028564
vt 0.497448 0.066598
vt 0.498662 0.066674
vt 0.498291 0.068115
vt 0.499524 0.067067
vt 0.516357 0.034912
vt 0.513672 0.037598
vt 0.516357 0.041748
vt 0.520508 0.040771
vt 0.524170 0.038818
vt 0.102069 0.925535
vt 0.095185 0.926031
vt 0.422774 0.114734
vt 0.422886 0.115054
vt 0.422607 0.115234
vt 0.422958 0.115348
vt 0.976931 0.497319
vt 0.976485 0.497348
vt 0.976807 0.497070
vt 0.094420 0.925913
s 0
usemtl Mat_0.029
f 297/195/206 330/195/206 296/195/206
f 296/195/206 330/195/206 302/195/206
f 296/195/206 302/195/206 303/195/206
f 299/195/206 304/195/206 305/195/206
f 368/195/206 299/195/206 305/195/206
f 368/195/206 305/195/206 362/195/206
f 368/195/206 362/195/206 387/195/206
f 300/195/206 368/195/206 365/195/206
f 366/195/206 300/195/206 365/195/206
f 301/195/206 366/195/206 367/195/206
f 386/195/206 364/195/206 358/195/206
f 357/195/206 386/195/206 358/195/206
f 356/195/206 386/195/206 357/195/206
f 373/195/206 356/195/206 355/195/206
f 355/195/206 372/195/206 373/195/206
f 370/195/206 363/195/206 369/195/206
f 369/195/206 363/195/206 364/195/206
f 370/195/206 361/195/206 363/195/206
f 387/195/206 361/195/206 370/195/206
f 376/195/206 378/195/206 377/195/206
f 378/195/207 345/195/207 377/195/207
f 382/195/206 377/195/206 345/195/206
f 360/195/206 383/195/206 384/195/206
f 360/195/206 384/195/206 353/195/206
f 337/195/206 346/195/206 359/195/206
f 346/195/206 379/195/206 359/195/206
f 359/195/206 379/195/206 385/195/206
f 383/195/206 359/195/206 385/195/206
f 376/195/206 354/195/206 380/195/206
f 354/195/206 376/195/206 374/195/206
f 346/195/206 378/195/206 379/195/206
f 337/195/206 347/195/206 346/195/206
f 352/195/206 348/195/206 349/195/206
f 350/195/206 352/195/206 349/195/206
f 352/195/206 350/195/206 351/195/206
f 340/195/206 334/195/206 339/195/206
f 334/195/206 338/195/206 339/195/206
f 338/195/206 334/195/206 333/195/206
f 332/195/206 338/195/206 333/195/206
f 338/195/206 332/195/206 298/195/206
f 332/195/206 297/195/206 298/195/206
f 297/195/206 332/195/206 389/195/206
f 335/195/206 342/195/206 336/195/206
f 336/195/206 342/195/206 347/195/206
f 342/195/206 335/195/206 343/195/206
f 342/195/206 343/195/206 341/195/206
f 335/195/206 340/195/206 344/195/206
f 343/195/206 335/195/206 344/195/206
f 334/195/206 340/195/206 335/195/206
f 353/195/206 348/195/206 352/195/206
f 336/195/206 347/195/206 337/195/206
f 353/195/206 384/195/206 348/195/206
f 359/195/206 383/195/206 360/195/206
f 382/195/206 381/195/206 377/195/206
f 378/195/206 346/195/206 345/195/206
f 378/195/206 376/195/206 380/195/206
f 375/195/206 374/195/206 376/195/206
f 371/195/206 354/195/206 374/195/206
f 371/195/206 355/195/206 354/195/206
f 372/195/206 355/195/206 371/195/206
f 386/195/206 356/195/206 373/195/206
f 369/195/206 364/195/206 386/195/206
f 300/195/206 366/195/206 301/195/206
f 387/195/206 362/195/206 361/195/206
f 299/195/206 368/195/206 300/195/206
f 304/195/206 299/195/206 302/195/206
f 328/195/206 307/195/206 306/195/206
f 307/195/206 328/195/206 327/195/206
f 326/195/206 307/195/206 327/195/206
f 293/195/206 326/195/206 325/195/206
f 310/195/206 293/195/206 325/195/206
f 308/195/206 295/195/206 309/195/206
f 309/195/206 295/195/206 294/195/206
f 308/195/206 320/195/206 295/195/206
f 317/195/206 312/195/206 315/195/206
f 312/195/206 316/195/206 315/195/206
f 316/195/206 323/195/206 324/195/206
f 316/195/206 321/195/206 322/195/206
f 316/195/206 314/195/206 321/195/206
f 316/195/206 313/195/206 314/195/206
f 316/195/206 311/195/206 313/195/206
f 323/195/206 316/195/206 322/195/206
f 316/195/206 312/195/206 311/195/206
f 312/195/206 317/195/206 308/195/206
f 318/195/206 319/195/206 317/195/206
f 317/195/206 319/195/206 320/195/206
f 317/195/206 320/195/206 308/195/206
f 309/195/206 294/195/206 310/195/206
f 310/195/206 294/195/206 293/195/206
f 326/195/206 293/195/206 307/195/206
f 328/195/206 304/195/206 388/195/206
f 304/195/206 331/195/206 388/195/206
f 304/195/206 330/195/206 329/195/206
f 304/195/206 329/195/206 331/195/206
f 304/195/206 328/195/206 306/195/206
f 304/195/206 302/195/206 330/195/206
f 330/195/206 297/195/206 389/195/206
f 269/196/208 273/197/208 272/198/208
f 268/199/209 269/196/209 272/198/209
f 268/199/210 272/198/210 270/200/210
f 231/201/211 268/199/211 270/200/211
f 231/201/212 270/200/212 271/202/212
f 285/203/213 231/204/213 271/205/213
f 285/203/214 271/205/214 280/206/214
f 285/203/215 280/206/215 282/207/215
f 285/203/216 282/207/216 283/208/216
f 286/209/217 285/203/217 283/208/217
f 286/209/218 283/208/218 288/210/218
f 286/209/219 288/210/219 287/211/219
f 242/212/220 286/209/220 287/211/220
f 242/212/221 287/211/221 289/213/221
f 291/214/222 242/212/222 289/213/222
f 291/214/223 289/213/223 290/215/223
f 291/214/224 290/215/224 292/216/224
f 291/214/225 292/216/225 241/217/225
f 241/217/226 292/216/226 194/218/226
f 197/219/227 241/217/227 194/218/227
f 194/220/228 196/221/228 197/222/228
f 196/221/229 198/223/229 197/222/229
f 197/219/230 198/224/230 235/225/230
f 234/226/231 235/225/231 198/224/231
f 234/226/232 198/224/232 236/227/232
f 225/228/233 234/226/233 236/227/233
f 225/228/234 236/227/234 237/229/234
f 225/228/235 237/229/235 224/230/235
f 223/231/236 225/228/236 224/230/236
f 221/232/237 223/231/237 224/230/237
f 221/232/238 224/230/238 222/233/238
f 296/234/239 221/232/239 222/233/239
f 296/234/239 222/233/239 297/235/239
f 302/236/240 219/237/240 303/238/240
f 303/238/241 219/237/241 221/232/241
f 221/232/242 219/237/242 218/239/242
f 219/237/243 217/240/243 218/239/243
f 217/240/244 213/241/244 218/239/244
f 226/242/245 218/239/245 213/241/245
f 226/242/246 213/241/246 215/243/246
f 226/242/247 215/243/247 228/244/247
f 226/242/248 228/244/248 227/245/248
f 228/244/249 229/246/249 227/245/249
f 227/245/250 229/246/250 232/247/250
f 227/245/251 232/247/251 233/248/251
f 227/245/252 233/248/252 225/228/252
f 218/239/253 227/245/253 225/228/253
f 225/228/254 233/248/254 232/247/254
f 232/247/255 229/246/255 234/226/255
f 228/244/256 215/243/256 229/246/256
f 229/246/257 215/243/257 230/249/257
f 235/225/258 229/246/258 230/249/258
f 241/217/259 235/225/259 230/249/259
f 241/217/260 230/249/260 242/212/260
f 230/249/261 284/250/261 242/212/261
f 284/250/262 230/249/262 231/204/262
f 230/249/263 215/243/263 231/204/263
f 215/251/264 267/252/264 231/201/264
f 211/253/265 267/252/265 215/251/265
f 211/253/266 265/254/266 267/252/266
f 267/252/267 265/254/267 268/199/267
f 268/199/268 265/254/268 266/255/268
f 268/199/269 266/255/269 259/256/269
f 266/255/270 258/257/270 259/256/270
f 258/257/271 175/258/271 259/256/271
f 304/259/272 259/256/272 175/258/272
f 304/259/272 175/258/272 305/260/272
f 368/261/273 387/262/273 202/263/273
f 368/261/274 202/263/274 203/264/274
f 368/261/274 203/264/274 365/265/274
f 365/265/275 208/266/275 366/267/275
f 366/267/276 208/266/276 253/268/276
f 366/267/276 253/268/276 367/269/276
f 301/270/277 367/269/277 253/268/277
f 301/270/278 253/268/278 214/271/278
f 301/270/278 214/271/278 300/272/278
f 299/273/279 300/272/279 214/271/279
f 299/273/280 214/271/280 220/274/280
f 299/273/280 220/274/280 302/236/280
f 216/275/281 220/274/281 214/271/281
f 212/276/282 216/275/282 214/271/282
f 208/266/283 212/276/283 214/271/283
f 214/271/284 254/277/284 208/266/284
f 207/278/285 212/276/285 208/266/285
f 208/266/286 203/264/286 207/278/286
f 203/264/287 204/279/287 207/278/287
f 207/278/288 204/279/288 205/280/288
f 207/278/289 205/280/289 209/281/289
f 209/281/290 205/280/290 210/282/290
f 209/281/291 210/282/291 211/283/291
f 209/281/292 211/283/292 213/241/292
f 205/284/293 261/285/293 210/286/293
f 210/286/294 261/285/294 260/287/294
f 210/286/295 260/287/295 262/288/295
f 210/286/296 262/288/296 263/289/296
f 210/286/297 263/289/297 265/254/297
f 265/254/298 263/289/298 264/290/298
f 262/288/299 264/290/299 263/289/299
f 262/288/300 260/287/300 264/290/300
f 264/290/301 260/287/301 258/257/301
f 205/284/302 258/257/302 260/287/302
f 206/291/303 258/257/303 205/284/303
f 205/280/304 201/292/304 206/293/304
f 174/294/305 206/291/305 201/295/305
f 201/292/306 173/296/306 174/297/306
f 173/298/307 172/299/307 174/300/307
f 364/301/308 174/300/308 172/299/308
f 364/301/308 172/299/308 358/302/308
f 356/303/309 357/304/309 172/299/309
f 356/303/310 172/299/310 169/305/310
f 356/303/310 169/305/310 355/306/310
f 373/307/311 372/308/311 168/309/311
f 373/307/312 168/309/312 199/310/312
f 373/307/313 199/310/313 386/311/313
f 369/312/314 386/311/314 199/310/314
f 369/312/315 199/310/315 200/313/315
f 369/312/315 200/313/315 370/314/315
f 363/315/316 361/316/316 175/317/316
f 363/315/317 175/317/317 174/300/317
f 361/316/318 362/318/318 175/317/318
f 370/314/319 200/313/319 202/263/319
f 199/310/320 171/319/320 200/313/320
f 200/313/321 171/319/321 201/292/321
f 203/264/322 200/313/322 201/292/322
f 199/310/323 168/309/323 171/319/323
f 168/320/324 170/321/324 171/322/324
f 170/321/325 172/299/325 171/322/325
f 168/320/326 169/305/326 170/321/326
f 167/323/327 169/305/327 168/320/327
f 166/324/328 167/323/328 168/320/328
f 371/325/329 166/326/329 168/309/329
f 371/325/330 374/327/330 166/326/330
f 374/327/331 375/328/331 166/326/331
f 375/328/332 376/329/332 166/326/332
f 377/330/333 166/326/333 376/329/333
f 345/331/334 176/332/334 382/333/334
f 382/333/335 176/332/335 177/334/335
f 382/333/336 177/334/336 381/335/336
f 381/335/337 177/334/337 164/336/337
f 381/335/338 164/336/338 377/337/338
f 176/332/339 164/336/339 177/334/339
f 383/338/340 164/336/340 176/332/340
f 383/338/340 176/332/340 384/339/340
f 353/340/341 189/341/341 360/342/341
f 359/343/342 360/342/342 189/341/342
f 359/343/343 189/341/343 192/344/343
f 359/343/343 192/344/343 337/345/343
f 385/346/344 379/347/344 164/348/344
f 378/349/345 164/348/345 379/347/345
f 378/349/345 165/350/345 164/348/345
f 164/348/346 165/350/346 166/324/346
f 380/351/347 165/350/347 378/349/347
f 380/351/347 167/323/347 165/350/347
f 354/352/348 167/323/348 380/351/348
f 347/353/349 178/354/349 346/355/349
f 345/331/350 346/355/350 178/354/350
f 347/353/349 181/356/349 178/354/349
f 178/354/351 181/356/351 183/357/351
f 178/354/352 183/357/352 182/358/352
f 179/359/353 178/354/353 182/358/353
f 179/359/354 182/358/354 180/360/354
f 348/361/355 179/359/355 180/360/355
f 348/361/356 180/360/356 349/362/356
f 351/363/357 188/364/357 352/365/357
f 353/340/358 352/365/358 188/364/358
f 351/363/357 187/366/357 188/364/357
f 187/366/359 184/367/359 188/364/359
f 188/364/360 184/367/360 185/368/360
f 185/368/361 189/341/361 188/364/361
f 185/368/362 186/369/362 189/341/362
f 189/341/363 186/369/363 190/370/363
f 189/341/364 190/370/364 191/371/364
f 246/372/365 191/373/365 190/374/365
f 246/372/366 190/374/366 247/375/366
f 246/372/367 247/375/367 245/376/367
f 244/377/368 246/372/368 245/376/368
f 245/376/369 243/378/369 244/377/369
f 243/378/370 193/379/370 244/377/370
f 244/377/371 193/379/371 191/373/371
f 192/344/372 191/371/372 193/380/372
f 196/221/373 192/344/373 193/380/373
f 196/221/374 195/381/374 192/344/374
f 240/382/375 193/379/375 243/378/375
f 240/382/376 198/224/376 193/379/376
f 239/383/377 198/224/377 240/382/377
f 239/383/378 240/382/378 237/229/378
f 238/384/379 239/383/379 237/229/379
f 240/382/380 248/385/380 237/229/380
f 248/385/381 255/386/381 237/229/381
f 255/386/382 256/387/382 237/229/382
f 257/388/383 237/229/383 256/387/383
f 257/388/384 256/387/384 224/230/384
f 255/386/385 222/233/385 256/387/385
f 248/385/386 222/233/386 255/386/386
f 251/389/387 222/233/387 248/385/387
f 248/385/388 252/390/388 251/389/388
f 245/376/389 251/389/389 252/390/389
f 249/391/390 251/389/390 245/376/390
f 339/392/391 251/389/391 249/391/391
f 339/392/392 249/391/392 340/393/392
f 332/394/393 333/395/393 194/218/393
f 338/396/394 298/397/394 222/233/394
f 332/394/395 292/216/395 389/398/395
f 333/399/396 334/400/396 194/220/396
f 335/401/397 194/220/397 334/400/397
f 335/401/397 195/381/397 194/220/397
f 335/401/398 336/402/398 195/381/398
f 337/345/399 195/381/399 336/402/399
f 341/403/400 181/404/400 342/405/400
f 341/403/400 250/406/400 181/404/400
f 247/375/401 181/404/401 250/406/401
f 247/375/402 250/406/402 249/391/402
f 247/375/403 186/407/403 181/404/403
f 341/403/404 343/408/404 250/406/404
f 343/408/405 344/409/405 250/406/405
f 340/393/406 250/406/406 344/409/406
f 340/393/407 249/391/407 250/406/407
f 338/396/408 251/389/408 339/392/408
f 245/376/409 252/390/409 248/385/409
f 338/396/408 222/233/408 251/389/408
f 248/385/410 240/382/410 245/376/410
f 238/384/411 198/224/411 239/383/411
f 240/382/412 243/378/412 245/376/412
f 245/376/413 247/375/413 249/391/413
f 244/377/414 191/373/414 246/372/414
f 247/375/415 190/374/415 186/407/415
f 185/368/416 181/356/416 186/369/416
f 184/367/417 181/356/417 185/368/417
f 180/360/418 184/367/418 187/366/418
f 350/410/419 180/360/419 187/366/419
f 350/410/419 187/366/419 351/363/419
f 350/410/420 349/362/420 180/360/420
f 384/339/421 179/359/421 348/361/421
f 182/358/422 184/367/422 180/360/422
f 179/359/423 176/332/423 178/354/423
f 182/358/424 183/357/424 184/367/424
f 184/367/425 183/357/425 181/356/425
f 347/411/426 342/405/426 181/404/426
f 337/345/399 192/344/399 195/381/399
f 189/341/427 191/371/427 192/344/427
f 353/340/428 188/364/428 189/341/428
f 384/339/421 176/332/421 179/359/421
f 383/412/429 385/346/429 164/348/429
f 345/331/334 178/354/334 176/332/334
f 377/330/430 164/413/430 166/326/430
f 166/324/431 165/350/431 167/323/431
f 354/352/348 169/305/348 167/323/348
f 371/325/329 168/309/329 372/308/329
f 354/352/432 355/306/432 169/305/432
f 170/321/433 169/305/433 172/299/433
f 357/304/434 358/302/434 172/299/434
f 363/315/317 174/300/317 364/301/317
f 171/322/435 172/299/435 173/298/435
f 201/292/436 171/319/436 173/296/436
f 206/291/437 174/294/437 258/257/437
f 205/284/438 260/287/438 261/285/438
f 204/279/439 201/292/439 205/280/439
f 203/264/440 201/292/440 204/279/440
f 207/278/441 209/281/441 212/276/441
f 212/276/442 209/281/442 216/275/442
f 209/281/443 217/240/443 216/275/443
f 216/275/444 219/237/444 220/274/444
f 214/271/445 253/268/445 254/277/445
f 208/266/446 254/277/446 253/268/446
f 365/265/275 203/264/275 208/266/275
f 202/263/447 200/313/447 203/264/447
f 370/314/448 202/263/448 387/262/448
f 362/318/449 305/414/449 175/317/449
f 304/259/450 306/415/450 259/256/450
f 307/416/451 259/256/451 306/415/451
f 327/417/452 288/210/452 326/418/452
f 325/419/453 326/418/453 288/210/453
f 325/419/454 283/208/454 310/420/454
f 309/421/455 310/420/455 283/208/455
f 308/422/456 309/423/456 283/424/456
f 295/425/457 273/197/457 294/426/457
f 293/427/458 294/426/458 273/197/458
f 307/416/459 293/427/459 273/197/459
f 320/428/460 272/198/460 295/425/460
f 320/428/460 274/429/460 272/198/460
f 320/428/461 319/430/461 274/429/461
f 319/430/462 318/431/462 274/429/462
f 317/432/463 274/429/463 318/431/463
f 317/432/463 270/200/463 274/429/463
f 315/433/464 270/434/464 317/435/464
f 315/433/465 316/436/465 275/437/465
f 324/438/466 275/437/466 316/436/466
f 324/438/467 323/439/467 281/440/467
f 323/439/468 322/441/468 281/440/468
f 321/442/469 281/440/469 322/441/469
f 314/443/470 280/444/470 321/442/470
f 314/443/471 313/445/471 282/446/471
f 313/447/472 311/448/472 282/449/472
f 311/448/473 312/450/473 282/449/473
f 308/422/474 282/449/474 312/450/474
f 321/442/469 280/444/469 281/440/469
f 279/451/475 281/440/475 280/444/475
f 279/451/476 278/452/476 281/440/476
f 281/440/477 278/452/477 275/437/477
f 276/453/478 275/437/478 278/452/478
f 276/453/479 278/452/479 277/454/479
f 270/434/480 276/453/480 277/454/480
f 270/434/481 275/437/481 276/453/481
f 279/451/482 277/454/482 278/452/482
f 271/455/483 277/454/483 279/451/483
f 324/438/484 281/440/484 275/437/484
f 315/433/464 275/437/464 270/434/464
f 327/417/452 289/213/452 288/210/452
f 327/417/485 328/456/485 289/213/485
f 388/457/486 289/213/486 328/456/486
f 388/458/487 331/459/487 290/460/487
f 331/459/488 329/461/488 290/460/488
f 329/462/489 330/463/489 290/464/489
f 389/398/490 290/215/490 330/465/490
f 307/416/451 273/197/451 259/256/451
f 258/257/491 174/294/491 175/258/491
f 264/290/492 258/257/492 266/255/492
f 264/290/493 266/255/493 265/254/493
f 210/286/494 265/254/494 211/253/494
f 213/241/495 211/283/495 215/243/495
f 218/239/496 226/242/496 227/245/496
f 209/281/497 213/241/497 217/240/497
f 216/275/498 217/240/498 219/237/498
f 302/236/240 220/274/240 219/237/240
f 298/397/499 297/235/499 222/233/499
f 303/238/241 221/232/241 296/234/241
f 256/387/500 222/233/500 224/230/500
f 221/232/501 218/239/501 223/231/501
f 223/231/502 218/239/502 225/228/502
f 257/388/503 224/230/503 237/229/503
f 236/227/504 238/384/504 237/229/504
f 232/247/505 234/226/505 225/228/505
f 236/227/506 198/224/506 238/384/506
f 234/226/507 229/246/507 235/225/507
f 196/221/508 193/380/508 198/223/508
f 194/220/509 195/381/509 196/221/509
f 197/219/510 235/225/510 241/217/510
f 332/394/395 194/218/395 292/216/395
f 389/398/511 292/216/511 290/215/511
f 388/457/486 290/215/486 289/213/486
f 242/212/512 291/214/512 241/217/512
f 284/250/513 286/209/513 242/212/513
f 289/213/514 287/211/514 288/210/514
f 325/419/454 288/210/454 283/208/454
f 284/250/515 285/203/515 286/209/515
f 308/422/474 283/424/474 282/449/474
f 314/443/470 282/446/470 280/444/470
f 271/455/516 279/451/516 280/444/516
f 284/250/517 231/204/517 285/203/517
f 270/434/518 277/454/518 271/455/518
f 267/252/519 268/199/519 231/201/519
f 270/200/520 272/198/520 274/429/520
f 268/199/521 259/256/521 269/196/521
f 295/425/457 272/198/457 273/197/457
f 269/196/522 259/256/522 273/197/522
