# Blender v3.2.0 OBJ File: ''
# www.blender.org
mtllib Muzzle.mtl
o Muzzle
v 0.394162 0.053836 -0.129236
v 0.411939 0.053836 -0.129267
v 0.403422 0.053836 -0.129447
v 0.420097 0.053836 -0.128728
v 0.385237 0.053836 -0.128604
v 0.427895 0.053836 -0.127830
v 0.376646 0.053836 -0.127550
v 0.435333 0.053836 -0.126573
v 0.368390 0.053836 -0.126075
v 0.442411 0.053836 -0.124957
v 0.360469 0.053836 -0.124179
v 0.449129 0.053836 -0.122981
v 0.352882 0.053836 -0.121861
v 0.455488 0.053836 -0.120646
v 0.345630 0.053836 -0.119121
v 0.461487 0.053836 -0.117952
v 0.338712 0.053836 -0.115960
v 0.467127 0.053836 -0.114899
v 0.332130 0.053836 -0.112378
v 0.472406 0.053836 -0.111486
v 0.325881 0.053836 -0.108374
v 0.477326 0.053836 -0.107715
v 0.319967 0.053836 -0.103949
v 0.481886 0.053836 -0.103584
v 0.314388 0.053836 -0.099102
v 0.486084 0.053836 -0.099116
v 0.489917 0.053836 -0.094332
v 0.309202 0.053836 -0.093895
v 0.493384 0.053836 -0.089234
v 0.304466 0.053836 -0.088388
v 0.397899 0.053836 -0.087431
v 0.401376 0.053836 -0.087357
v 0.496487 0.053836 -0.083821
v 0.300182 0.053836 -0.082581
v 0.394647 0.053836 -0.087361
v 0.391493 0.053836 -0.087151
v 0.404697 0.053836 -0.087135
v 0.388436 0.053836 -0.086801
v 0.407862 0.053836 -0.086766
v 0.385478 0.053836 -0.086310
v 0.410871 0.053836 -0.086248
v 0.382617 0.053836 -0.085680
v 0.413723 0.053836 -0.085583
v 0.379854 0.053836 -0.084910
v 0.416420 0.053836 -0.084770
v 0.377189 0.053836 -0.084000
v 0.418961 0.053836 -0.083809
v 0.374622 0.053836 -0.082949
v 0.499225 0.053836 -0.078092
v 0.421345 0.053836 -0.082700
v 0.372153 0.053836 -0.081759
v 0.423574 0.053836 -0.081444
v 0.296349 0.053836 -0.076476
v 0.369782 0.053836 -0.080428
v 0.425646 0.053836 -0.080039
v 0.367508 0.053836 -0.078958
v 0.427563 0.053836 -0.078487
v 0.365333 0.053836 -0.077347
v 0.429323 0.053836 -0.076787
v 0.501598 0.053836 -0.072049
v 0.363284 0.053836 -0.075582
v 0.430939 0.053836 -0.074940
v 0.292966 0.053836 -0.070070
v 0.361392 0.053836 -0.073649
v 0.432423 0.053836 -0.072948
v 0.359655 0.053836 -0.071546
v 0.433774 0.053836 -0.070811
v 0.503605 0.053836 -0.065690
v 0.358075 0.053836 -0.069276
v 0.434994 0.053836 -0.068529
v 0.290035 0.053836 -0.063365
v 0.356650 0.053836 -0.066837
v 0.436081 0.053836 -0.066101
v 0.355382 0.053836 -0.064229
v 0.437036 0.053836 -0.063529
v 0.505248 0.053836 -0.059016
v 0.354270 0.053836 -0.061452
v 0.437859 0.053836 -0.060810
v 0.287554 0.053836 -0.056361
v 0.353313 0.053836 -0.058507
v 0.438549 0.053836 -0.057947
v 0.506525 0.053836 -0.052027
v 0.352513 0.053836 -0.055394
v 0.439107 0.053836 -0.054939
v 0.285525 0.053836 -0.049056
v 0.351869 0.053836 -0.052112
v 0.439533 0.053836 -0.051785
v 0.351381 0.053836 -0.048661
v 0.507438 0.053836 -0.044723
v 0.439826 0.053836 -0.048486
v 0.283946 0.053836 -0.041453
v 0.351049 0.053836 -0.045042
v 0.439988 0.053836 -0.045042
v 0.507985 0.053836 -0.037103
v 0.282819 0.053836 -0.033550
v 0.508168 0.053836 -0.029169
v 0.282142 0.053836 -0.025347
v 0.508168 0.053836 -0.005640
v 0.281917 0.053836 -0.016844
v 0.282155 0.053836 -0.008266
v 0.282869 0.053836 -0.000023
v 0.351240 0.053836 -0.005640
v 0.351605 0.053836 -0.001612
v 0.352195 0.053836 0.002255
v 0.284059 0.053836 0.007887
v 0.353007 0.053836 0.005961
v 0.354044 0.053836 0.009506
v 0.285726 0.053836 0.015461
v 0.355303 0.053836 0.012891
v 0.356786 0.053836 0.016115
v 0.287868 0.053836 0.022701
v 0.358493 0.053836 0.019178
v 0.360423 0.053836 0.022080
v 0.494523 0.053836 0.022518
v 0.504169 0.053836 0.021063
v 0.496551 0.053836 0.021063
v 0.504169 0.053836 0.075030
v 0.362577 0.053836 0.024821
v 0.492377 0.053836 0.023958
v 0.290487 0.053836 0.029607
v 0.490111 0.053836 0.025381
v 0.364954 0.053836 0.027402
v 0.487727 0.053836 0.026790
v 0.485223 0.053836 0.028183
v 0.367555 0.053836 0.029822
v 0.482600 0.053836 0.029560
v 0.479859 0.053836 0.030921
v 0.293582 0.053836 0.036177
v 0.370380 0.053836 0.032081
v 0.476998 0.053836 0.032267
v 0.373431 0.053836 0.034169
v 0.474018 0.053836 0.033598
v 0.470920 0.053836 0.034913
v 0.376714 0.053836 0.036075
v 0.467702 0.053836 0.036212
v 0.380229 0.053836 0.037800
v 0.297153 0.053836 0.042413
v 0.464365 0.053836 0.037496
v 0.460960 0.053836 0.038719
v 0.383975 0.053836 0.039343
v 0.457536 0.053836 0.039836
v 0.387953 0.053836 0.040704
v 0.454093 0.053836 0.040846
v 0.392162 0.053836 0.041884
v 0.450632 0.053836 0.041749
v 0.447152 0.053836 0.042547
v 0.396602 0.053836 0.042883
v 0.301200 0.053836 0.048315
v 0.443654 0.053836 0.043238
v 0.401274 0.053836 0.043700
v 0.440137 0.053836 0.043823
v 0.406178 0.053836 0.044335
v 0.436602 0.053836 0.044302
v 0.433049 0.053836 0.044674
v 0.411312 0.053836 0.044789
v 0.429476 0.053836 0.044940
v 0.416678 0.053836 0.045062
v 0.425886 0.053836 0.045099
v 0.422276 0.053836 0.045152
v 0.305723 0.053836 0.053882
v 0.310722 0.053836 0.059115
v 0.316197 0.053836 0.064013
v 0.322120 0.053836 0.068546
v 0.328460 0.053836 0.072686
v 0.335218 0.053836 0.076431
v 0.500315 0.053836 0.076520
v 0.342394 0.053836 0.079782
v 0.496498 0.053836 0.077940
v 0.492718 0.053836 0.079290
v 0.488975 0.053836 0.080570
v 0.349988 0.053836 0.082738
v 0.485269 0.053836 0.081780
v 0.481601 0.053836 0.082920
v 0.358000 0.053836 0.085301
v 0.477969 0.053836 0.083990
v 0.474374 0.053836 0.084990
v 0.470816 0.053836 0.085919
v 0.366430 0.053836 0.087469
v 0.467296 0.053836 0.086779
v 0.463812 0.053836 0.087569
v 0.375278 0.053836 0.089243
v 0.460366 0.053836 0.088289
v 0.456907 0.053836 0.088945
v 0.453388 0.053836 0.089544
v 0.384544 0.053836 0.090623
v 0.449808 0.053836 0.090086
v 0.446167 0.053836 0.090571
v 0.442465 0.053836 0.090999
v 0.394228 0.053836 0.091608
v 0.438702 0.053836 0.091370
v 0.434879 0.053836 0.091683
v 0.404329 0.053836 0.092200
v 0.430994 0.053836 0.091940
v 0.427049 0.053836 0.092140
v 0.423043 0.053836 0.092283
v 0.414849 0.053836 0.092397
v 0.418977 0.053836 0.092368
v 0.164221 0.053836 0.086795
v 0.232782 0.053836 -0.203768
v 0.164221 0.053836 -0.203768
v 0.232782 0.053836 0.086795
v -0.080313 0.053836 -0.073799
v 0.113943 0.053836 -0.122911
v -0.080313 0.053836 -0.122911
v 0.113943 0.053836 -0.080522
v 0.027861 0.053836 -0.073799
v 0.002912 0.053836 0.036749
v -0.084884 0.053836 0.043658
v 0.116038 0.053836 0.036749
v 0.116038 0.053836 0.086795
v -0.084884 0.053836 0.086795
v -0.313039 0.053836 -0.073799
v -0.118783 0.053836 -0.122911
v -0.313039 0.053836 -0.122911
v -0.118783 0.053836 -0.080522
v -0.204866 0.053836 -0.073799
v -0.229814 0.053836 0.036749
v -0.317610 0.053836 0.043658
v -0.116689 0.053836 0.036749
v -0.116689 0.053836 0.086795
v -0.317610 0.053836 0.086795
v -0.580808 0.053836 0.013594
v -0.511866 0.053836 -0.122911
v -0.580808 0.053836 -0.122911
v -0.511866 0.053836 -0.018898
v -0.434545 0.053836 0.025732
v -0.365984 0.053836 -0.122911
v -0.434545 0.053836 -0.122911
v -0.365984 0.053836 0.086795
v -0.511859 0.053836 -0.016290
v -0.511837 0.053836 -0.013755
v -0.511801 0.053836 -0.011295
v -0.511750 0.053836 -0.008908
v -0.511684 0.053836 -0.006595
v -0.511604 0.053836 -0.004356
v -0.511510 0.053836 -0.002191
v -0.511401 0.053836 -0.000100
v -0.511277 0.053836 0.001917
v -0.511139 0.053836 0.003860
v -0.510986 0.053836 0.005729
v -0.510819 0.053836 0.007525
v -0.510625 0.053836 0.009258
v -0.510393 0.053836 0.010941
v -0.510122 0.053836 0.012573
v -0.509813 0.053836 0.014154
v -0.580675 0.053836 0.019966
v -0.509466 0.053836 0.015685
v -0.509081 0.053836 0.017165
v -0.508657 0.053836 0.018595
v -0.508195 0.053836 0.019974
v -0.580276 0.053836 0.026074
v -0.507694 0.053836 0.021302
v -0.507155 0.053836 0.022580
v -0.506578 0.053836 0.023808
v -0.505962 0.053836 0.024985
v -0.505333 0.053836 0.026110
v -0.436201 0.053836 0.026738
v -0.579612 0.053836 0.031917
v -0.504653 0.053836 0.027184
v -0.437867 0.053836 0.027703
v -0.503921 0.053836 0.028206
v -0.439544 0.053836 0.028626
v -0.503137 0.053836 0.029176
v -0.441231 0.053836 0.029508
v -0.502302 0.053836 0.030094
v -0.442930 0.053836 0.030348
v -0.501415 0.053836 0.030960
v -0.444638 0.053836 0.031147
v -0.500477 0.053836 0.031775
v -0.446358 0.053836 0.031904
v -0.499487 0.053836 0.032537
v -0.448088 0.053836 0.032620
v -0.578681 0.053836 0.037496
v -0.498446 0.053836 0.033248
v -0.449828 0.053836 0.033295
v -0.497352 0.053836 0.033907
v -0.451579 0.053836 0.033927
v -0.496208 0.053836 0.034514
v -0.453341 0.053836 0.034519
v -0.495012 0.053836 0.035068
v -0.455113 0.053836 0.035068
v -0.493749 0.053836 0.035576
v -0.456877 0.053836 0.035576
v -0.492406 0.053836 0.036039
v -0.458615 0.053836 0.036039
v -0.490982 0.053836 0.036457
v -0.460326 0.053836 0.036457
v -0.489478 0.053836 0.036832
v -0.462011 0.053836 0.036832
v -0.487893 0.053836 0.037163
v -0.463670 0.053836 0.037163
v -0.486227 0.053836 0.037449
v -0.465302 0.053836 0.037449
v -0.484481 0.053836 0.037692
v -0.466907 0.053836 0.037692
v -0.577485 0.053836 0.042810
v -0.482654 0.053836 0.037890
v -0.468487 0.053836 0.037890
v -0.480746 0.053836 0.038045
v -0.470039 0.053836 0.038045
v -0.478757 0.053836 0.038155
v -0.471565 0.053836 0.038155
v -0.476688 0.053836 0.038221
v -0.473065 0.053836 0.038221
v -0.474539 0.053836 0.038243
v -0.434545 0.053836 0.063639
v -0.576023 0.053836 0.047860
v -0.574295 0.053836 0.052645
v -0.572301 0.053836 0.057166
v -0.570042 0.053836 0.061422
v -0.567516 0.053836 0.065413
v -0.437696 0.053836 0.065957
v -0.434545 0.053836 0.086795
v -0.564725 0.053836 0.069140
v -0.440803 0.053836 0.068181
v -0.443865 0.053836 0.070309
v -0.561668 0.053836 0.072603
v -0.446881 0.053836 0.072343
v -0.449853 0.053836 0.074283
v -0.558365 0.053836 0.075794
v -0.452780 0.053836 0.076127
v -0.554836 0.053836 0.078708
v -0.455662 0.053836 0.077877
v -0.458499 0.053836 0.079533
v -0.551080 0.053836 0.081344
v -0.461291 0.053836 0.081093
v -0.464037 0.053836 0.082559
v -0.547099 0.053836 0.083703
v -0.466739 0.053836 0.083931
v -0.542891 0.053836 0.085784
v -0.469396 0.053836 0.085207
v -0.472073 0.053836 0.086386
v -0.538457 0.053836 0.087588
v -0.474835 0.053836 0.087461
v -0.477681 0.053836 0.088434
v -0.533797 0.053836 0.089115
v -0.480612 0.053836 0.089305
v -0.528911 0.053836 0.090363
v -0.483627 0.053836 0.090074
v -0.486727 0.053836 0.090740
v -0.523799 0.053836 0.091335
v -0.489912 0.053836 0.091303
v -0.493181 0.053836 0.091764
v -0.518460 0.053836 0.092028
v -0.496535 0.053836 0.092122
v -0.512896 0.053836 0.092445
v -0.499974 0.053836 0.092379
v -0.503497 0.053836 0.092532
v -0.507105 0.053836 0.092583
v -0.944943 0.053836 0.086795
v -0.860003 0.053836 -0.191257
v -0.944943 0.053836 -0.191257
v -0.876001 0.053836 -0.099382
v -0.796203 0.053836 -0.051764
v -0.647655 0.053836 -0.191257
v -0.732594 0.053836 -0.191257
v -0.720406 0.053836 -0.099382
v -0.647655 0.053836 0.086795
v -0.876001 0.053836 0.086795
v -0.823437 0.053836 0.021437
v -0.772969 0.053836 0.021437
v -0.720406 0.053836 0.086795
v 0.394162 -0.057012 -0.129236
v 0.403422 -0.057012 -0.129447
v 0.411939 -0.057012 -0.129267
v 0.420097 -0.057012 -0.128728
v 0.385237 -0.057012 -0.128604
v 0.427895 -0.057012 -0.127830
v 0.376646 -0.057012 -0.127550
v 0.435333 -0.057012 -0.126573
v 0.368390 -0.057012 -0.126075
v 0.442411 -0.057012 -0.124957
v 0.360469 -0.057012 -0.124179
v 0.449129 -0.057012 -0.122981
v 0.352882 -0.057012 -0.121861
v 0.455488 -0.057012 -0.120646
v 0.345630 -0.057012 -0.119121
v 0.461487 -0.057012 -0.117952
v 0.338712 -0.057012 -0.115960
v 0.467127 -0.057012 -0.114899
v 0.332130 -0.057012 -0.112378
v 0.472406 -0.057012 -0.111486
v 0.325881 -0.057012 -0.108374
v 0.477326 -0.057012 -0.107715
v 0.319967 -0.057012 -0.103949
v 0.481886 -0.057012 -0.103584
v 0.314388 -0.057012 -0.099102
v 0.486084 -0.057012 -0.099116
v 0.489917 -0.057012 -0.094332
v 0.309202 -0.057012 -0.093895
v 0.493384 -0.057012 -0.089234
v 0.304466 -0.057012 -0.088388
v 0.397899 -0.057012 -0.087431
v 0.401376 -0.057012 -0.087357
v 0.496487 -0.057012 -0.083821
v 0.300182 -0.057012 -0.082581
v 0.394647 -0.057012 -0.087361
v 0.391493 -0.057012 -0.087151
v 0.404697 -0.057012 -0.087135
v 0.388436 -0.057012 -0.086801
v 0.407862 -0.057012 -0.086766
v 0.385478 -0.057012 -0.086310
v 0.410871 -0.057012 -0.086248
v 0.382617 -0.057012 -0.085680
v 0.413723 -0.057012 -0.085583
v 0.379854 -0.057012 -0.084910
v 0.416420 -0.057012 -0.084770
v 0.377189 -0.057012 -0.084000
v 0.418961 -0.057012 -0.083809
v 0.374622 -0.057012 -0.082949
v 0.499225 -0.057012 -0.078092
v 0.421345 -0.057012 -0.082700
v 0.372153 -0.057012 -0.081759
v 0.423574 -0.057012 -0.081444
v 0.296349 -0.057012 -0.076476
v 0.369782 -0.057012 -0.080428
v 0.425646 -0.057012 -0.080039
v 0.367508 -0.057012 -0.078958
v 0.427563 -0.057012 -0.078487
v 0.365333 -0.057012 -0.077347
v 0.429323 -0.057012 -0.076787
v 0.501598 -0.057012 -0.072049
v 0.363284 -0.057012 -0.075582
v 0.430939 -0.057012 -0.074940
v 0.292966 -0.057012 -0.070070
v 0.361392 -0.057012 -0.073649
v 0.432423 -0.057012 -0.072948
v 0.359655 -0.057012 -0.071546
v 0.433774 -0.057012 -0.070811
v 0.503605 -0.057012 -0.065690
v 0.358075 -0.057012 -0.069276
v 0.434994 -0.057012 -0.068529
v 0.290035 -0.057012 -0.063365
v 0.356650 -0.057012 -0.066837
v 0.436081 -0.057012 -0.066101
v 0.355382 -0.057012 -0.064229
v 0.437036 -0.057012 -0.063529
v 0.505248 -0.057012 -0.059016
v 0.354270 -0.057012 -0.061452
v 0.437859 -0.057012 -0.060810
v 0.287554 -0.057012 -0.056361
v 0.353313 -0.057012 -0.058507
v 0.438549 -0.057012 -0.057947
v 0.506525 -0.057012 -0.052027
v 0.352513 -0.057012 -0.055394
v 0.439107 -0.057012 -0.054939
v 0.285525 -0.057012 -0.049056
v 0.351869 -0.057012 -0.052112
v 0.439533 -0.057012 -0.051785
v 0.351381 -0.057012 -0.048661
v 0.507438 -0.057012 -0.044723
v 0.439826 -0.057012 -0.048486
v 0.283946 -0.057012 -0.041453
v 0.351049 -0.057012 -0.045042
v 0.439988 -0.057012 -0.045042
v 0.507985 -0.057012 -0.037103
v 0.282819 -0.057012 -0.033550
v 0.508168 -0.057012 -0.029169
v 0.282142 -0.057012 -0.025347
v 0.508168 -0.057012 -0.005640
v 0.281917 -0.057012 -0.016844
v 0.282155 -0.057012 -0.008266
v 0.282869 -0.057012 -0.000023
v 0.351240 -0.057012 -0.005640
v 0.351605 -0.057012 -0.001612
v 0.352195 -0.057012 0.002255
v 0.284059 -0.057012 0.007887
v 0.353007 -0.057012 0.005961
v 0.354044 -0.057012 0.009506
v 0.285726 -0.057012 0.015461
v 0.355303 -0.057012 0.012891
v 0.356786 -0.057012 0.016115
v 0.287868 -0.057012 0.022701
v 0.358493 -0.057012 0.019178
v 0.360423 -0.057012 0.022080
v 0.494523 -0.057012 0.022518
v 0.496551 -0.057012 0.021063
v 0.504169 -0.057012 0.021063
v 0.504169 -0.057012 0.075030
v 0.362577 -0.057012 0.024821
v 0.492377 -0.057012 0.023958
v 0.290487 -0.057012 0.029607
v 0.490111 -0.057012 0.025381
v 0.364954 -0.057012 0.027402
v 0.487727 -0.057012 0.026790
v 0.485223 -0.057012 0.028183
v 0.367555 -0.057012 0.029822
v 0.482600 -0.057012 0.029560
v 0.479859 -0.057012 0.030921
v 0.293582 -0.057012 0.036177
v 0.370380 -0.057012 0.032081
v 0.476998 -0.057012 0.032267
v 0.373431 -0.057012 0.034169
v 0.474018 -0.057012 0.033598
v 0.470920 -0.057012 0.034913
v 0.376714 -0.057012 0.036075
v 0.467702 -0.057012 0.036212
v 0.380229 -0.057012 0.037800
v 0.297153 -0.057012 0.042413
v 0.464365 -0.057012 0.037496
v 0.460960 -0.057012 0.038719
v 0.383975 -0.057012 0.039343
v 0.457536 -0.057012 0.039836
v 0.387953 -0.057012 0.040704
v 0.454093 -0.057012 0.040846
v 0.392162 -0.057012 0.041884
v 0.450632 -0.057012 0.041749
v 0.447152 -0.057012 0.042547
v 0.396602 -0.057012 0.042883
v 0.301200 -0.057012 0.048315
v 0.443654 -0.057012 0.043238
v 0.401274 -0.057012 0.043700
v 0.440137 -0.057012 0.043823
v 0.406178 -0.057012 0.044335
v 0.436602 -0.057012 0.044302
v 0.433049 -0.057012 0.044674
v 0.411312 -0.057012 0.044789
v 0.429476 -0.057012 0.044940
v 0.416678 -0.057012 0.045062
v 0.425886 -0.057012 0.045099
v 0.422276 -0.057012 0.045152
v 0.305723 -0.057012 0.053882
v 0.310722 -0.057012 0.059115
v 0.316197 -0.057012 0.064013
v 0.322120 -0.057012 0.068546
v 0.328460 -0.057012 0.072686
v 0.335218 -0.057012 0.076431
v 0.500315 -0.057012 0.076520
v 0.342394 -0.057012 0.079782
v 0.496498 -0.057012 0.077940
v 0.492718 -0.057012 0.079290
v 0.488975 -0.057012 0.080570
v 0.349988 -0.057012 0.082738
v 0.485269 -0.057012 0.081780
v 0.481601 -0.057012 0.082920
v 0.358000 -0.057012 0.085301
v 0.477969 -0.057012 0.083990
v 0.474374 -0.057012 0.084990
v 0.470816 -0.057012 0.085919
v 0.366430 -0.057012 0.087469
v 0.467296 -0.057012 0.086779
v 0.463812 -0.057012 0.087569
v 0.375278 -0.057012 0.089243
v 0.460366 -0.057012 0.088289
v 0.456907 -0.057012 0.088945
v 0.453388 -0.057012 0.089544
v 0.384544 -0.057012 0.090623
v 0.449808 -0.057012 0.090086
v 0.446167 -0.057012 0.090571
v 0.442465 -0.057012 0.090999
v 0.394228 -0.057012 0.091608
v 0.438702 -0.057012 0.091370
v 0.434879 -0.057012 0.091683
v 0.404329 -0.057012 0.092200
v 0.430994 -0.057012 0.091940
v 0.427049 -0.057012 0.092140
v 0.423043 -0.057012 0.092283
v 0.414849 -0.057012 0.092397
v 0.418977 -0.057012 0.092368
v 0.164221 -0.057012 0.086795
v 0.164221 -0.057012 -0.203768
v 0.232782 -0.057012 -0.203768
v 0.232782 -0.057012 0.086795
v -0.080313 -0.057012 -0.073799
v -0.080313 -0.057012 -0.122911
v 0.113943 -0.057012 -0.122911
v 0.113943 -0.057012 -0.080522
v 0.027861 -0.057012 -0.073799
v 0.002912 -0.057012 0.036749
v -0.084884 -0.057012 0.043658
v 0.116038 -0.057012 0.036749
v 0.116038 -0.057012 0.086795
v -0.084884 -0.057012 0.086795
v -0.313039 -0.057012 -0.073799
v -0.313039 -0.057012 -0.122911
v -0.118783 -0.057012 -0.122911
v -0.118783 -0.057012 -0.080522
v -0.204866 -0.057012 -0.073799
v -0.229814 -0.057012 0.036749
v -0.317610 -0.057012 0.043658
v -0.116689 -0.057012 0.036749
v -0.116689 -0.057012 0.086795
v -0.317610 -0.057012 0.086795
v -0.580808 -0.057012 0.013594
v -0.580808 -0.057012 -0.122911
v -0.511866 -0.057012 -0.122911
v -0.511866 -0.057012 -0.018898
v -0.434545 -0.057012 0.025732
v -0.434545 -0.057012 -0.122911
v -0.365984 -0.057012 -0.122911
v -0.365984 -0.057012 0.086795
v -0.511859 -0.057012 -0.016290
v -0.511837 -0.057012 -0.013755
v -0.511801 -0.057012 -0.011295
v -0.511750 -0.057012 -0.008908
v -0.511684 -0.057012 -0.006595
v -0.511604 -0.057012 -0.004356
v -0.511510 -0.057012 -0.002191
v -0.511401 -0.057012 -0.000100
v -0.511277 -0.057012 0.001917
v -0.511139 -0.057012 0.003860
v -0.510986 -0.057012 0.005729
v -0.510819 -0.057012 0.007525
v -0.510625 -0.057012 0.009258
v -0.510393 -0.057012 0.010941
v -0.510122 -0.057012 0.012573
v -0.509813 -0.057012 0.014154
v -0.580675 -0.057012 0.019966
v -0.509466 -0.057012 0.015685
v -0.509081 -0.057012 0.017165
v -0.508657 -0.057012 0.018595
v -0.508195 -0.057012 0.019974
v -0.580276 -0.057012 0.026074
v -0.507694 -0.057012 0.021302
v -0.507155 -0.057012 0.022580
v -0.506578 -0.057012 0.023808
v -0.505962 -0.057012 0.024985
v -0.505333 -0.057012 0.026110
v -0.436201 -0.057012 0.026738
v -0.579612 -0.057012 0.031917
v -0.504653 -0.057012 0.027184
v -0.437867 -0.057012 0.027703
v -0.503921 -0.057012 0.028206
v -0.439544 -0.057012 0.028626
v -0.503137 -0.057012 0.029176
v -0.441231 -0.057012 0.029508
v -0.502302 -0.057012 0.030094
v -0.442930 -0.057012 0.030348
v -0.501415 -0.057012 0.030960
v -0.444638 -0.057012 0.031147
v -0.500477 -0.057012 0.031775
v -0.446358 -0.057012 0.031904
v -0.499487 -0.057012 0.032537
v -0.448088 -0.057012 0.032620
v -0.578681 -0.057012 0.037496
v -0.498446 -0.057012 0.033248
v -0.449828 -0.057012 0.033295
v -0.497352 -0.057012 0.033907
v -0.451579 -0.057012 0.033927
v -0.496208 -0.057012 0.034514
v -0.453341 -0.057012 0.034519
v -0.495012 -0.057012 0.035068
v -0.455113 -0.057012 0.035068
v -0.493749 -0.057012 0.035576
v -0.456877 -0.057012 0.035576
v -0.492406 -0.057012 0.036039
v -0.458615 -0.057012 0.036039
v -0.490982 -0.057012 0.036457
v -0.460326 -0.057012 0.036457
v -0.489478 -0.057012 0.036832
v -0.462011 -0.057012 0.036832
v -0.487893 -0.057012 0.037163
v -0.463670 -0.057012 0.037163
v -0.486227 -0.057012 0.037449
v -0.465302 -0.057012 0.037449
v -0.484481 -0.057012 0.037692
v -0.466907 -0.057012 0.037692
v -0.577485 -0.057012 0.042810
v -0.482654 -0.057012 0.037890
v -0.468487 -0.057012 0.037890
v -0.480746 -0.057012 0.038045
v -0.470039 -0.057012 0.038045
v -0.478757 -0.057012 0.038155
v -0.471565 -0.057012 0.038155
v -0.476688 -0.057012 0.038221
v -0.473065 -0.057012 0.038221
v -0.474539 -0.057012 0.038243
v -0.434545 -0.057012 0.063639
v -0.576023 -0.057012 0.047860
v -0.574295 -0.057012 0.052645
v -0.572301 -0.057012 0.057166
v -0.570042 -0.057012 0.061422
v -0.567516 -0.057012 0.065413
v -0.437696 -0.057012 0.065957
v -0.434545 -0.057012 0.086795
v -0.564725 -0.057012 0.069140
v -0.440803 -0.057012 0.068181
v -0.443865 -0.057012 0.070309
v -0.561668 -0.057012 0.072603
v -0.446881 -0.057012 0.072343
v -0.449853 -0.057012 0.074283
v -0.558365 -0.057012 0.075794
v -0.452780 -0.057012 0.076127
v -0.554836 -0.057012 0.078708
v -0.455662 -0.057012 0.077877
v -0.458499 -0.057012 0.079533
v -0.551080 -0.057012 0.081344
v -0.461291 -0.057012 0.081093
v -0.464037 -0.057012 0.082559
v -0.547099 -0.057012 0.083703
v -0.466739 -0.057012 0.083931
v -0.542891 -0.057012 0.085784
v -0.469396 -0.057012 0.085207
v -0.472073 -0.057012 0.086386
v -0.538457 -0.057012 0.087588
v -0.474835 -0.057012 0.087461
v -0.477681 -0.057012 0.088434
v -0.533797 -0.057012 0.089115
v -0.480612 -0.057012 0.089305
v -0.528911 -0.057012 0.090363
v -0.483627 -0.057012 0.090074
v -0.486727 -0.057012 0.090740
v -0.523799 -0.057012 0.091335
v -0.489912 -0.057012 0.091303
v -0.493181 -0.057012 0.091764
v -0.518460 -0.057012 0.092028
v -0.496535 -0.057012 0.092122
v -0.512896 -0.057012 0.092445
v -0.499974 -0.057012 0.092379
v -0.503497 -0.057012 0.092532
v -0.507105 -0.057012 0.092583
v -0.944943 -0.057012 0.086795
v -0.944943 -0.057012 -0.191257
v -0.860003 -0.057012 -0.191257
v -0.876001 -0.057012 -0.099382
v -0.796203 -0.057012 -0.051764
v -0.732594 -0.057012 -0.191257
v -0.647655 -0.057012 -0.191257
v -0.720406 -0.057012 -0.099382
v -0.647655 -0.057012 0.086795
v -0.876001 -0.057012 0.086795
v -0.823437 -0.057012 0.021437
v -0.772969 -0.057012 0.021437
v -0.720406 -0.057012 0.086795
v -1.652771 0.162072 -0.325303
v -1.652771 -0.140571 -0.325303
v -1.652771 0.162072 0.272509
v -1.652771 -0.140571 0.272509
v 1.068694 -0.140571 -0.373144
v 1.068694 0.162072 -0.373144
v 1.068694 -0.140571 0.224595
v 1.068694 0.162072 0.224595
v 0.469647 0.162072 0.641575
v 0.469647 -0.039892 0.641575
v -1.090704 -0.039892 0.641575
v -1.090704 0.162072 0.641575
v 0.878634 -0.039892 0.186257
v -1.462712 -0.039892 -0.286864
v -1.462712 -0.039892 0.227403
v 0.878634 -0.039892 -0.327973
v -1.220470 -0.140571 0.753754
v 0.593374 -0.140571 0.753754
v -1.220470 0.162072 0.753754
v 0.593374 0.162072 0.753754
v 0.878634 0.162072 -0.327973
v 0.878634 0.162072 0.186257
v 0.636393 -0.140571 -0.854389
v -1.177495 -0.140571 -0.854389
v 0.636393 0.162072 -0.854389
v -1.177495 0.162072 -0.854389
v -1.462712 0.162072 0.227403
v -1.462712 0.162072 -0.286864
v -1.053742 0.162072 -0.742209
v -1.053742 -0.039892 -0.742209
v 0.506587 -0.039892 -0.742209
v 0.506587 0.162072 -0.742209
vn 0.0000 1.0000 -0.0000
vn 0.0000 1.0000 0.0001
vn 0.0000 -1.0000 -0.0000
vn 0.0000 -1.0000 0.0001
vn -0.0000 -1.0000 -0.0001
vn 0.0000 0.0000 1.0000
vn -0.6367 0.0000 0.7711
vn -0.4436 0.0000 -0.8962
vn 0.8327 0.0000 -0.5538
vn -0.9605 0.0000 0.2781
vn 0.3809 0.0000 -0.9246
vn 1.0000 0.0000 0.0000
vn 0.0162 0.0000 -0.9999
vn 0.9986 0.0000 -0.0521
vn -0.2234 0.0000 -0.9747
vn 0.9815 0.0000 -0.1917
vn -0.4077 0.0000 -0.9131
vn 0.8861 0.0000 -0.4636
vn -0.5830 0.0000 -0.8125
vn 0.2967 0.0000 0.9550
vn 0.2418 0.0000 -0.9703
vn 0.1678 0.0000 0.9858
vn 0.0103 0.0000 -0.9999
vn 0.0356 0.0000 0.9994
vn -0.1956 0.0000 -0.9807
vn -0.2491 0.0000 0.9685
vn -0.7230 0.0000 0.6908
vn -0.9889 0.0000 0.1488
vn -0.9426 0.0000 -0.3338
vn -0.5991 0.0000 -0.8007
vn -0.1217 0.0000 -0.9926
vn 0.2821 0.0000 -0.9594
vn 0.7804 0.0000 -0.6253
vn 0.9923 0.0000 -0.1240
vn -0.9721 0.0000 0.2344
vn -0.6947 0.0000 0.7193
vn -0.1695 0.0000 0.9855
vn 0.2151 0.0000 0.9766
vn -0.9047 0.0000 0.4261
vn 0.6527 0.0000 0.7576
vn 0.7262 0.0000 0.6875
vn 0.5820 0.0000 0.8132
vn 0.4708 0.0000 0.8822
vn 0.2100 0.0000 0.9777
vn -0.0746 0.0000 0.9972
vn -0.5746 0.0000 0.8184
vn 0.9959 0.0000 -0.0904
vn -0.8452 0.0000 0.5345
vn -0.9406 0.0000 0.3396
vn 0.7864 0.0000 -0.6178
vn 0.0000 0.0000 -1.0000
vn 0.3239 0.0000 -0.9461
vn -0.0147 0.0000 -0.9999
vn -0.3399 0.0000 -0.9405
vn 0.9865 0.0000 -0.1635
vn -0.2526 0.0000 -0.9676
vn -0.3046 0.0000 0.9525
vn 0.9049 0.0000 -0.4256
vn -0.4258 0.0000 -0.9048
vn 0.6554 0.0000 -0.7552
vn 0.2826 0.0000 0.9592
vn 0.0320 0.0000 -0.9995
vn 0.1497 0.0000 0.9887
vn -0.1729 0.0000 -0.9849
vn 0.0210 0.0000 0.9998
vn -0.5010 0.0000 -0.8654
vn -0.9963 0.0000 0.0863
vn -0.9163 0.0000 -0.4006
vn -0.5395 0.0000 -0.8420
vn -0.0707 0.0000 -0.9975
vn 0.3447 0.0000 -0.9387
vn 0.8269 0.0000 -0.5624
vn -0.7761 0.0000 0.6306
vn 0.9974 0.0000 -0.0717
vn 0.5636 0.0000 -0.8261
vn -0.9571 0.0000 0.2897
vn -0.6294 0.0000 0.7770
vn -0.1160 0.0000 0.9932
vn 0.2686 0.0000 0.9632
vn 0.7147 0.0000 0.6995
vn 0.9813 0.0000 0.1925
vn 0.9685 0.0000 0.2489
vn 0.5708 0.0000 0.8211
vn 0.7288 0.0000 -0.6847
vn 0.4526 0.0000 0.8917
vn 0.1742 0.0000 0.9847
vn -0.1473 0.0000 0.9891
vn 0.9886 0.0000 -0.1506
vn -0.7496 0.0000 0.6619
vn 0.7355 0.0000 -0.6775
vn -0.9864 0.0000 0.1645
vn 0.2700 0.0000 -0.9629
vn 1.0000 0.0000 -0.0086
vn -0.0444 0.0000 -0.9990
vn 0.9975 0.0000 -0.0710
vn -0.2816 0.0000 -0.9595
vn 0.9677 0.0000 -0.2520
vn -0.4448 0.0000 -0.8956
vn 0.8446 0.0000 -0.5353
vn 0.2680 0.0000 0.9634
vn 0.1320 0.0000 0.9912
vn -0.0441 0.0000 -0.9990
vn 0.0069 0.0000 1.0000
vn -0.2376 0.0000 -0.9714
vn -0.3628 0.0000 0.9319
vn -0.4031 0.0000 -0.9151
vn -0.9996 0.0000 0.0277
vn -0.8843 0.0000 -0.4669
vn -0.4780 0.0000 -0.8784
vn -0.0227 0.0000 -0.9997
vn 0.4097 0.0000 -0.9122
vn 0.8676 0.0000 -0.4973
vn 0.9997 0.0000 -0.0230
vn -0.9375 0.0000 0.3480
vn -0.5609 0.0000 0.8279
vn -0.0667 0.0000 0.9978
vn 0.3233 0.0000 0.9463
vn 0.3232 0.0000 0.9463
vn -0.9832 0.0000 0.1824
vn 0.9901 0.0000 0.1401
vn -1.0000 0.0000 0.0000
vn -0.9589 0.0000 0.2838
vn -0.2172 0.0000 -0.9761
vn 0.5590 0.0000 0.8291
vn 0.5591 0.0000 0.8291
vn 0.4331 0.0000 0.9014
vn 0.4331 0.0000 0.9013
vn 0.1396 0.0000 0.9902
vn -0.1867 0.0000 0.9824
vn 0.9768 0.0000 -0.2142
vn -0.9756 0.0000 0.2196
vn 0.6812 0.0000 -0.7321
vn 1.0000 0.0000 -0.0028
vn 0.2194 0.0000 -0.9756
vn 0.9981 0.0000 -0.0612
vn -0.0742 0.0000 -0.9972
vn 0.9752 0.0000 -0.2211
vn -0.3100 0.0000 -0.9507
vn 0.8730 0.0000 -0.4877
vn -0.4649 0.0000 -0.8854
vn 0.3606 0.0000 0.9327
vn 0.2043 0.0000 -0.9789
vn 0.2528 0.0000 0.9675
vn -0.4231 0.0000 0.9061
vn -0.0150 0.0000 -0.9999
vn 0.1148 0.0000 0.9934
vn 0.8130 0.0000 -0.5823
vn -0.0187 0.0000 0.9998
vn -0.3823 0.0000 -0.9240
vn -0.8678 0.0000 0.4969
vn -0.9996 0.0000 -0.0265
vn -0.8469 0.0000 -0.5317
vn -0.4156 0.0000 -0.9095
vn -0.8247 0.0000 0.5655
vn 0.0211 0.0000 -0.9998
vn 0.7710 0.0000 0.6369
vn 0.9023 0.0000 -0.4312
vn -0.9127 0.0000 0.4087
vn -0.1289 0.0000 0.9917
vn -0.4912 0.0000 0.8711
vn -0.0213 0.0000 0.9998
vn -0.0212 0.0000 0.9998
vn 0.3787 0.0000 0.9255
vn 0.8208 0.0000 0.5713
vn 0.9958 0.0000 0.0914
vn -0.7214 0.0000 -0.6925
vn 0.5465 0.0000 0.8375
vn 0.4028 0.0000 0.9153
vn -0.3182 0.0000 -0.9480
vn 0.1063 0.0000 0.9943
vn -0.2476 0.0000 0.9689
vn 0.9598 0.0000 -0.2805
vn -0.8451 0.0000 0.5347
vn -0.6948 0.0000 0.7192
vn 0.6246 0.0000 -0.7809
vn -0.9979 0.0000 0.0651
vn 0.1723 0.0000 -0.9851
vn 0.9998 0.0000 -0.0213
vn -0.1041 0.0000 -0.9946
vn 0.9957 0.0000 -0.0928
vn -0.3379 0.0000 -0.9412
vn 0.9482 0.0000 -0.3177
vn -0.4862 0.0000 -0.8739
vn 0.7779 0.0000 -0.6284
vn 0.3487 0.0000 0.9372
vn 0.4208 0.0000 -0.9071
vn 0.2372 0.0000 0.9715
vn 0.1080 0.0000 -0.9941
vn 0.0981 0.0000 0.9952
vn -0.4847 0.0000 0.8747
vn -0.4216 0.0000 0.9068
vn -0.9966 0.0000 -0.0822
vn -0.8047 0.0000 -0.5937
vn -0.3534 0.0000 -0.9355
vn 0.0659 0.0000 -0.9978
vn 0.5428 0.0000 -0.8398
vn 0.9308 0.0000 -0.3654
vn -0.9989 0.0000 0.0468
vn 0.5162 0.0000 -0.8565
vn -0.8820 0.0000 0.4713
vn 0.6102 0.0000 -0.7922
vn 0.8635 0.0000 0.5043
vn 0.0215 0.0000 0.9998
vn 0.5332 0.0000 0.8460
vn -0.3613 0.0000 -0.9324
vn -0.2574 0.0000 -0.9663
vn 0.3629 0.0000 0.9318
vn 0.3630 0.0000 0.9318
vn -0.9170 0.0000 0.3989
vn 0.0743 0.0000 0.9972
vn 0.1695 0.0000 -0.9855
vn -0.8004 0.0000 0.5995
vn 0.9372 0.0000 -0.3488
vn -0.9936 0.0000 0.1130
vn 0.5646 0.0000 -0.8253
vn 0.9999 0.0000 -0.0148
vn 0.1285 0.0000 -0.9917
vn 0.9967 0.0000 -0.0815
vn -0.1341 0.0000 -0.9910
vn 0.9587 0.0000 -0.2843
vn -0.3591 0.0000 -0.9333
vn -0.5085 0.0000 -0.8610
vn 0.4343 0.0000 0.9008
vn 0.4684 0.0000 -0.8835
vn 0.3363 0.0000 0.9418
vn 0.1375 0.0000 -0.9905
vn 0.2211 0.0000 0.9752
vn -0.0719 0.0000 -0.9974
vn 0.0818 0.0000 0.9966
vn -0.1013 0.0000 0.9949
vn -0.4235 0.0000 -0.9059
vn -0.5467 0.0000 0.8374
vn -0.9350 0.0000 0.3546
vn -0.9900 0.0000 -0.1412
vn -0.7582 0.0000 -0.6520
vn -0.2922 0.0000 -0.9564
vn 0.1144 0.0000 -0.9934
vn 0.6084 0.0000 -0.7936
vn 0.9536 0.0000 -0.3011
vn -0.9961 0.0000 0.0886
vn -0.3538 0.0000 0.9353
vn 0.0665 0.0000 0.9978
vn 0.4761 0.0000 -0.8794
vn 0.4893 0.0000 0.8721
vn 0.8993 0.0000 0.4373
vn 0.5191 0.0000 0.8547
vn 0.5190 0.0000 0.8547
vn 0.3236 0.0000 0.9462
vn -0.5097 0.0000 0.8603
vn 0.0436 0.0000 0.9990
vn -0.3769 0.0000 0.9263
vn -0.3768 0.0000 0.9263
vn 0.9085 0.0000 -0.4180
vn 0.5021 0.0000 -0.8648
vn 0.0881 0.0000 -0.9961
vn -0.1641 0.0000 -0.9864
vn -0.3744 0.0000 -0.9273
vn 0.9214 0.0000 -0.3886
vn -0.5321 0.0000 -0.8467
vn 0.6988 0.0000 -0.7153
vn 0.3259 0.0000 -0.9454
vn 0.2044 0.0000 0.9789
vn 0.0553 0.0000 -0.9985
vn 0.9990 0.0000 -0.0436
vn 0.0659 0.0000 0.9978
vn -0.1493 0.0000 -0.9888
vn -0.6079 0.0000 0.7940
vn -0.4823 0.0000 -0.8760
vn -0.9150 0.0000 0.4035
vn 0.9170 0.0000 0.3989
vn -0.9791 0.0000 -0.2033
vn -0.9099 0.0000 -0.4149
vn -0.7085 0.0000 -0.7057
vn -0.3113 0.0000 0.9503
vn -0.2328 0.0000 -0.9725
vn 0.1667 0.0000 -0.9860
vn 0.6714 0.0000 -0.7411
vn 0.9710 0.0000 -0.2390
vn -0.9910 0.0000 0.1339
vn -0.8019 0.0000 0.5974
vn -0.2887 0.0000 0.9574
vn 0.1138 0.0000 0.9935
vn 0.5431 0.0000 0.8397
vn 0.9283 0.0000 0.3719
vn 0.5040 0.0000 0.8637
vn 0.2848 0.0000 0.9586
vn -0.5193 0.0000 -0.8546
vn 0.0142 0.0000 0.9999
vn -0.4434 0.0000 0.8963
vn -0.2963 0.0000 -0.9551
vn -0.8832 0.0000 0.4689
vn 0.8735 0.0000 -0.4868
vn -0.9998 0.0000 0.0209
vn 0.4405 0.0000 -0.8977
vn 0.9996 0.0000 -0.0283
vn 0.0507 0.0000 -0.9987
vn 0.9938 0.0000 -0.1111
vn -0.1938 0.0000 -0.9810
vn 0.9358 0.0000 -0.3526
vn -0.3906 0.0000 -0.9205
vn 0.9994 0.0000 -0.0357
vn 0.7398 0.0000 -0.6729
vn -0.5570 0.0000 -0.8305
vn 0.3728 0.0000 -0.9279
vn 0.3104 0.0000 0.9506
vn 0.0806 0.0000 -0.9967
vn 0.1864 0.0000 0.9825
vn -0.1248 0.0000 -0.9922
vn 0.0506 0.0000 0.9987
vn -0.1966 0.0000 0.9805
vn -0.4630 0.0000 -0.8863
vn -0.6667 0.0000 0.7453
vn -0.9766 0.0000 0.2149
vn 0.9094 0.0000 -0.4159
vn -0.9635 0.0000 -0.2677
vn -0.6558 0.0000 -0.7549
vn -0.1759 0.0000 -0.9844
vn -0.0989 0.0000 -0.9951
vn 0.9837 0.0000 -0.1798
vn 0.2226 0.0000 -0.9749
vn 0.9906 0.0000 -0.1367
vn -0.7525 0.0000 0.6586
vn -0.2271 0.0000 0.9739
vn 0.1634 0.0000 0.9866
vn 0.5950 0.0000 0.8037
vn 0.9511 0.0000 0.3088
vn 0.5925 0.0000 0.8056
vn -0.0584 0.0000 0.9983
vn 0.4879 0.0000 0.8729
vn -0.2763 0.0000 -0.9611
vn 0.2469 0.0000 0.9690
vn -0.0240 0.0000 0.9997
vn 0.7439 0.0000 -0.6683
vn -0.7439 0.0000 -0.6683
vn 0.7440 0.0000 0.6682
vn -0.7440 0.0000 0.6682
vn -0.7439 0.0000 0.6683
vn 0.7439 0.0000 0.6682
vn -0.7439 0.0000 -0.6682
vn 0.7440 0.0000 -0.6682
usemtl None
s off
f 1//1 2//1 3//1
f 1//1 4//1 2//1
f 5//1 4//1 1//1
f 5//1 6//1 4//1
f 7//1 6//1 5//1
f 7//1 8//1 6//1
f 9//1 8//1 7//1
f 9//1 10//1 8//1
f 11//1 10//1 9//1
f 11//1 12//1 10//1
f 13//1 12//1 11//1
f 13//1 14//1 12//1
f 15//1 14//1 13//1
f 15//1 16//1 14//1
f 17//1 16//1 15//1
f 17//1 18//1 16//1
f 19//1 18//1 17//1
f 19//1 20//1 18//1
f 21//1 20//1 19//1
f 21//1 22//1 20//1
f 23//1 22//1 21//1
f 23//1 24//1 22//1
f 25//1 24//1 23//1
f 25//1 26//1 24//1
f 25//1 27//1 26//1
f 28//1 27//1 25//1
f 28//1 29//1 27//1
f 30//1 29//1 28//1
f 30//1 31//1 29//1
f 31//1 32//1 29//1
f 32//1 33//1 29//1
f 34//1 35//1 30//1
f 35//1 31//1 30//1
f 34//2 36//2 35//2
f 37//1 33//1 32//1
f 34//1 38//1 36//1
f 39//1 33//1 37//1
f 34//1 40//1 38//1
f 41//1 33//1 39//1
f 34//1 42//1 40//1
f 43//1 33//1 41//1
f 34//1 44//1 42//1
f 45//1 33//1 43//1
f 34//1 46//1 44//1
f 47//1 33//1 45//1
f 34//1 48//1 46//1
f 47//1 49//1 33//1
f 50//1 49//1 47//1
f 34//1 51//1 48//1
f 52//1 49//1 50//1
f 53//1 51//1 34//1
f 53//1 54//1 51//1
f 55//1 49//1 52//1
f 53//1 56//1 54//1
f 57//1 49//1 55//1
f 53//1 58//1 56//1
f 59//1 49//1 57//1
f 59//1 60//1 49//1
f 53//1 61//1 58//1
f 62//1 60//1 59//1
f 63//1 61//1 53//1
f 63//1 64//1 61//1
f 65//1 60//1 62//1
f 63//1 66//1 64//1
f 67//1 60//1 65//1
f 67//1 68//1 60//1
f 63//1 69//1 66//1
f 70//1 68//1 67//1
f 71//1 69//1 63//1
f 71//1 72//1 69//1
f 73//1 68//1 70//1
f 71//1 74//1 72//1
f 75//1 68//1 73//1
f 75//1 76//1 68//1
f 71//1 77//1 74//1
f 78//1 76//1 75//1
f 79//1 77//1 71//1
f 79//1 80//1 77//1
f 81//1 76//1 78//1
f 81//1 82//1 76//1
f 79//1 83//1 80//1
f 84//1 82//1 81//1
f 85//1 83//1 79//1
f 85//1 86//1 83//1
f 87//1 82//1 84//1
f 85//1 88//1 86//1
f 87//1 89//1 82//1
f 90//1 89//1 87//1
f 91//1 88//1 85//1
f 91//1 92//1 88//1
f 93//1 89//1 90//1
f 91//1 93//1 92//1
f 91//1 89//1 93//1
f 91//1 94//1 89//1
f 95//1 94//1 91//1
f 95//1 96//1 94//1
f 97//1 96//1 95//1
f 97//1 98//1 96//1
f 99//1 98//1 97//1
f 100//1 98//1 99//1
f 101//1 102//1 100//1
f 102//1 98//1 100//1
f 101//1 103//1 102//1
f 101//1 104//1 103//1
f 105//1 104//1 101//1
f 105//1 106//1 104//1
f 105//1 107//1 106//1
f 108//1 107//1 105//1
f 108//1 109//1 107//1
f 108//1 110//1 109//1
f 111//1 110//1 108//1
f 111//1 112//1 110//1
f 111//1 113//1 112//1
f 114//1 115//1 116//1
f 114//1 117//1 115//1
f 111//1 118//1 113//1
f 119//1 117//1 114//1
f 120//1 118//1 111//1
f 121//1 117//1 119//1
f 120//1 122//1 118//1
f 123//1 117//1 121//1
f 124//1 117//1 123//1
f 120//1 125//1 122//1
f 126//1 117//1 124//1
f 127//1 117//1 126//1
f 128//1 125//1 120//1
f 128//1 129//1 125//1
f 130//1 117//1 127//1
f 128//1 131//1 129//1
f 132//1 117//1 130//1
f 133//1 117//1 132//1
f 128//1 134//1 131//1
f 135//1 117//1 133//1
f 128//1 136//1 134//1
f 137//1 136//1 128//1
f 138//1 117//1 135//1
f 139//1 117//1 138//1
f 137//1 140//1 136//1
f 141//1 117//1 139//1
f 137//1 142//1 140//1
f 143//1 117//1 141//1
f 137//1 144//1 142//1
f 145//1 117//1 143//1
f 146//1 117//1 145//1
f 137//1 147//1 144//1
f 148//1 147//1 137//1
f 149//1 117//1 146//1
f 148//1 150//1 147//1
f 151//1 117//1 149//1
f 148//1 152//1 150//1
f 153//1 117//1 151//1
f 154//1 117//1 153//1
f 148//1 155//1 152//1
f 156//1 117//1 154//1
f 148//1 157//1 155//1
f 158//1 117//1 156//1
f 148//1 159//1 157//1
f 159//1 117//1 158//1
f 148//1 117//1 159//1
f 160//1 117//1 148//1
f 161//1 117//1 160//1
f 162//1 117//1 161//1
f 163//1 117//1 162//1
f 164//1 117//1 163//1
f 165//1 117//1 164//1
f 165//1 166//1 117//1
f 167//1 166//1 165//1
f 167//1 168//1 166//1
f 167//1 169//1 168//1
f 167//1 170//1 169//1
f 171//1 170//1 167//1
f 171//1 172//1 170//1
f 171//1 173//1 172//1
f 174//1 173//1 171//1
f 174//1 175//1 173//1
f 174//1 176//1 175//1
f 174//1 177//1 176//1
f 178//1 177//1 174//1
f 178//1 179//1 177//1
f 178//1 180//1 179//1
f 181//1 180//1 178//1
f 181//1 182//1 180//1
f 181//1 183//1 182//1
f 181//1 184//1 183//1
f 185//1 184//1 181//1
f 185//1 186//1 184//1
f 185//1 187//1 186//1
f 185//1 188//1 187//1
f 189//1 188//1 185//1
f 189//1 190//1 188//1
f 189//1 191//1 190//1
f 192//1 191//1 189//1
f 192//1 193//1 191//1
f 192//1 194//1 193//1
f 192//1 195//1 194//1
f 196//1 195//1 192//1
f 196//1 197//1 195//1
f 198//1 199//1 200//1
f 198//1 201//1 199//1
f 202//1 203//1 204//1
f 202//1 205//1 203//1
f 202//1 206//1 205//1
f 206//1 207//1 205//1
f 208//1 207//1 206//1
f 208//1 209//1 207//1
f 208//1 210//1 209//1
f 211//1 210//1 208//1
f 212//1 213//1 214//1
f 212//1 215//1 213//1
f 212//1 216//1 215//1
f 216//1 217//1 215//1
f 218//1 217//1 216//1
f 218//1 219//1 217//1
f 218//1 220//1 219//1
f 221//1 220//1 218//1
f 222//1 223//1 224//1
f 222//1 225//1 223//1
f 226//1 227//1 228//1
f 226//1 229//1 227//1
f 222//1 230//1 225//1
f 222//1 231//1 230//1
f 222//1 232//1 231//1
f 222//1 233//1 232//1
f 222//1 234//1 233//1
f 222//1 235//1 234//1
f 222//1 236//1 235//1
f 222//1 237//1 236//1
f 222//1 238//1 237//1
f 222//1 239//1 238//1
f 222//1 240//1 239//1
f 222//1 241//1 240//1
f 222//1 242//1 241//1
f 222//1 243//1 242//1
f 222//1 244//1 243//1
f 222//1 245//1 244//1
f 246//1 245//1 222//1
f 246//1 247//1 245//1
f 246//1 248//1 247//1
f 246//1 249//1 248//1
f 246//1 250//1 249//1
f 251//1 250//1 246//1
f 251//1 252//1 250//1
f 251//1 253//1 252//1
f 251//1 254//1 253//1
f 251//1 255//1 254//1
f 251//1 256//1 255//1
f 257//1 229//1 226//1
f 258//1 256//1 251//1
f 258//1 259//1 256//1
f 260//1 229//1 257//1
f 258//1 261//1 259//1
f 262//1 229//1 260//1
f 258//1 263//1 261//1
f 264//1 229//1 262//1
f 258//1 265//1 263//1
f 266//1 229//1 264//1
f 258//1 267//1 265//1
f 268//1 229//1 266//1
f 258//1 269//1 267//1
f 270//1 229//1 268//1
f 258//1 271//1 269//1
f 272//1 229//1 270//1
f 273//1 271//1 258//1
f 273//1 274//1 271//1
f 275//1 229//1 272//1
f 273//1 276//1 274//1
f 277//1 229//1 275//1
f 273//1 278//1 276//1
f 279//1 229//1 277//1
f 273//1 280//1 278//1
f 281//1 229//1 279//1
f 273//1 282//1 280//1
f 283//1 229//1 281//1
f 273//1 284//1 282//1
f 285//1 229//1 283//1
f 273//1 286//1 284//1
f 287//1 229//1 285//1
f 273//1 288//1 286//1
f 289//1 229//1 287//1
f 273//1 290//1 288//1
f 291//1 229//1 289//1
f 273//1 292//1 290//1
f 293//1 229//1 291//1
f 273//1 294//1 292//1
f 295//1 229//1 293//1
f 296//1 294//1 273//1
f 296//1 297//1 294//1
f 298//1 229//1 295//1
f 296//1 299//1 297//1
f 300//1 229//1 298//1
f 296//1 301//1 299//1
f 302//1 229//1 300//1
f 296//1 303//1 301//1
f 304//1 229//1 302//1
f 296//1 305//1 303//1
f 305//1 229//1 304//1
f 296//1 306//1 305//1
f 306//1 229//1 305//1
f 307//1 306//1 296//1
f 308//1 306//1 307//1
f 309//1 306//1 308//1
f 310//1 306//1 309//1
f 311//1 306//1 310//1
f 311//1 312//1 306//1
f 313//1 229//1 306//1
f 314//1 312//1 311//1
f 314//1 315//1 312//1
f 314//1 316//1 315//1
f 317//1 316//1 314//1
f 317//1 318//1 316//1
f 317//1 319//1 318//1
f 320//1 319//1 317//1
f 320//1 321//1 319//1
f 322//1 321//1 320//1
f 322//1 323//1 321//1
f 322//1 324//1 323//1
f 325//1 324//1 322//1
f 325//1 326//1 324//1
f 325//1 327//1 326//1
f 328//1 327//1 325//1
f 328//1 329//1 327//1
f 330//1 329//1 328//1
f 330//1 331//1 329//1
f 330//1 332//1 331//1
f 333//1 332//1 330//1
f 333//1 334//1 332//1
f 333//1 335//1 334//1
f 336//1 335//1 333//1
f 336//1 337//1 335//1
f 338//1 337//1 336//1
f 338//1 339//1 337//1
f 338//1 340//1 339//1
f 341//1 340//1 338//1
f 341//1 342//1 340//1
f 341//1 343//1 342//1
f 344//1 343//1 341//1
f 344//1 345//1 343//1
f 346//1 345//1 344//1
f 346//1 347//1 345//1
f 346//1 348//1 347//1
f 349//2 348//2 346//2
f 350//1 351//1 352//1
f 350//1 353//1 351//1
f 353//1 354//1 351//1
f 354//1 355//1 356//1
f 354//1 357//1 355//1
f 357//1 358//1 355//1
f 350//1 359//1 353//1
f 360//1 354//1 353//1
f 354//1 361//1 357//1
f 362//1 358//1 357//1
f 360//1 361//1 354//1
f 363//3 364//3 365//3
f 363//3 365//3 366//3
f 367//3 363//3 366//3
f 367//3 366//3 368//3
f 369//3 367//3 368//3
f 369//3 368//3 370//3
f 371//3 369//3 370//3
f 371//3 370//3 372//3
f 373//3 371//3 372//3
f 373//3 372//3 374//3
f 375//3 373//3 374//3
f 375//3 374//3 376//3
f 377//3 375//3 376//3
f 377//3 376//3 378//3
f 379//3 377//3 378//3
f 379//3 378//3 380//3
f 381//3 379//3 380//3
f 381//3 380//3 382//3
f 383//3 381//3 382//3
f 383//3 382//3 384//3
f 385//3 383//3 384//3
f 385//3 384//3 386//3
f 387//3 385//3 386//3
f 387//3 386//3 388//3
f 387//3 388//3 389//3
f 390//3 387//3 389//3
f 390//3 389//3 391//3
f 392//3 390//3 391//3
f 392//3 391//3 393//3
f 393//3 391//3 394//3
f 394//3 391//3 395//3
f 396//3 392//3 397//3
f 397//3 392//3 393//3
f 396//3 397//3 398//3
f 399//3 394//3 395//3
f 396//3 398//3 400//3
f 401//3 399//3 395//3
f 396//3 400//3 402//3
f 403//3 401//3 395//3
f 396//3 402//3 404//3
f 405//3 403//3 395//3
f 396//3 404//3 406//3
f 407//3 405//3 395//3
f 396//3 406//3 408//3
f 409//3 407//3 395//3
f 396//3 408//3 410//3
f 409//3 395//3 411//3
f 412//3 409//3 411//3
f 396//3 410//3 413//3
f 414//3 412//3 411//3
f 415//3 396//3 413//3
f 415//3 413//3 416//3
f 417//3 414//3 411//3
f 415//3 416//3 418//3
f 419//3 417//3 411//3
f 415//3 418//3 420//3
f 421//3 419//3 411//3
f 421//3 411//3 422//3
f 415//3 420//3 423//3
f 424//3 421//3 422//3
f 425//3 415//3 423//3
f 425//3 423//3 426//3
f 427//3 424//3 422//3
f 425//3 426//3 428//3
f 429//3 427//3 422//3
f 429//3 422//3 430//3
f 425//3 428//3 431//3
f 432//3 429//3 430//3
f 433//3 425//3 431//3
f 433//3 431//3 434//3
f 435//3 432//3 430//3
f 433//3 434//3 436//3
f 437//3 435//3 430//3
f 437//3 430//3 438//3
f 433//3 436//3 439//3
f 440//3 437//3 438//3
f 441//3 433//3 439//3
f 441//3 439//3 442//3
f 443//3 440//3 438//3
f 443//3 438//3 444//3
f 441//3 442//3 445//3
f 446//3 443//3 444//3
f 447//3 441//3 445//3
f 447//3 445//3 448//3
f 449//3 446//3 444//3
f 447//3 448//3 450//3
f 449//3 444//3 451//3
f 452//3 449//3 451//3
f 453//3 447//3 450//3
f 453//3 450//3 454//3
f 455//3 452//3 451//3
f 453//3 454//3 455//3
f 453//3 455//3 451//3
f 453//3 451//3 456//3
f 457//3 453//3 456//3
f 457//3 456//3 458//3
f 459//3 457//3 458//3
f 459//3 458//3 460//3
f 461//3 459//3 460//3
f 462//3 461//3 460//3
f 463//3 462//3 464//3
f 464//3 462//3 460//3
f 463//3 464//3 465//3
f 463//3 465//3 466//3
f 467//3 463//3 466//3
f 467//3 466//3 468//3
f 467//3 468//3 469//3
f 470//3 467//3 469//3
f 470//3 469//3 471//3
f 470//3 471//3 472//3
f 473//3 470//3 472//3
f 473//3 472//3 474//3
f 473//3 474//3 475//3
f 476//3 477//3 478//3
f 476//3 478//3 479//3
f 473//3 475//3 480//3
f 481//3 476//3 479//3
f 482//3 473//3 480//3
f 483//3 481//3 479//3
f 482//3 480//3 484//3
f 485//3 483//3 479//3
f 486//3 485//3 479//3
f 482//3 484//3 487//3
f 488//3 486//3 479//3
f 489//3 488//3 479//3
f 490//3 482//3 487//3
f 490//3 487//3 491//3
f 492//3 489//3 479//3
f 490//3 491//3 493//3
f 494//3 492//3 479//3
f 495//3 494//3 479//3
f 490//3 493//3 496//3
f 497//3 495//3 479//3
f 490//3 496//3 498//3
f 499//3 490//3 498//3
f 500//3 497//3 479//3
f 501//3 500//3 479//3
f 499//3 498//3 502//3
f 503//3 501//3 479//3
f 499//3 502//3 504//3
f 505//3 503//3 479//3
f 499//3 504//3 506//3
f 507//3 505//3 479//3
f 508//3 507//3 479//3
f 499//3 506//3 509//3
f 510//3 499//3 509//3
f 511//3 508//3 479//3
f 510//3 509//3 512//3
f 513//3 511//3 479//3
f 510//3 512//3 514//3
f 515//3 513//3 479//3
f 516//3 515//3 479//3
f 510//3 514//3 517//3
f 518//3 516//3 479//3
f 510//3 517//3 519//3
f 520//3 518//3 479//3
f 510//3 519//3 521//3
f 521//3 520//3 479//3
f 510//3 521//3 479//3
f 522//3 510//3 479//3
f 523//3 522//3 479//3
f 524//3 523//3 479//3
f 525//3 524//3 479//3
f 526//3 525//3 479//3
f 527//3 526//3 479//3
f 527//3 479//3 528//3
f 529//3 527//3 528//3
f 529//3 528//3 530//3
f 529//3 530//3 531//3
f 529//3 531//3 532//3
f 533//3 529//3 532//3
f 533//3 532//3 534//3
f 533//3 534//3 535//3
f 536//3 533//3 535//3
f 536//3 535//3 537//3
f 536//3 537//3 538//3
f 536//3 538//3 539//3
f 540//3 536//3 539//3
f 540//3 539//3 541//3
f 540//3 541//3 542//3
f 543//3 540//3 542//3
f 543//3 542//3 544//3
f 543//3 544//3 545//3
f 543//3 545//3 546//3
f 547//3 543//3 546//3
f 547//3 546//3 548//3
f 547//3 548//3 549//3
f 547//3 549//3 550//3
f 551//3 547//3 550//3
f 551//3 550//3 552//3
f 551//3 552//3 553//3
f 554//3 551//3 553//3
f 554//3 553//3 555//3
f 554//3 555//3 556//3
f 554//3 556//3 557//3
f 558//3 554//3 557//3
f 558//3 557//3 559//3
f 560//3 561//3 562//3
f 560//3 562//3 563//3
f 564//3 565//3 566//3
f 564//3 566//3 567//3
f 564//3 567//3 568//3
f 568//3 567//3 569//3
f 570//3 568//3 569//3
f 570//3 569//3 571//3
f 570//3 571//3 572//3
f 573//3 570//3 572//3
f 574//3 575//3 576//3
f 574//3 576//3 577//3
f 574//3 577//3 578//3
f 578//3 577//3 579//3
f 580//3 578//3 579//3
f 580//3 579//3 581//3
f 580//3 581//3 582//3
f 583//3 580//3 582//3
f 584//3 585//3 586//3
f 584//3 586//3 587//3
f 588//3 589//3 590//3
f 588//3 590//3 591//3
f 584//3 587//3 592//3
f 584//3 592//3 593//3
f 584//3 593//3 594//3
f 584//3 594//3 595//3
f 584//3 595//3 596//3
f 584//3 596//3 597//3
f 584//3 597//3 598//3
f 584//3 598//3 599//3
f 584//3 599//3 600//3
f 584//3 600//3 601//3
f 584//3 601//3 602//3
f 584//3 602//3 603//3
f 584//3 603//3 604//3
f 584//3 604//3 605//3
f 584//3 605//3 606//3
f 584//3 606//3 607//3
f 608//3 584//3 607//3
f 608//3 607//3 609//3
f 608//3 609//3 610//3
f 608//3 610//3 611//3
f 608//3 611//3 612//3
f 613//3 608//3 612//3
f 613//3 612//3 614//3
f 613//3 614//3 615//3
f 613//3 615//3 616//3
f 613//3 616//3 617//3
f 613//3 617//3 618//3
f 619//3 588//3 591//3
f 620//3 613//3 618//3
f 620//3 618//3 621//3
f 622//3 619//3 591//3
f 620//3 621//3 623//3
f 624//3 622//3 591//3
f 620//3 623//3 625//3
f 626//3 624//3 591//3
f 620//3 625//3 627//3
f 628//3 626//3 591//3
f 620//3 627//3 629//3
f 630//3 628//3 591//3
f 620//3 629//3 631//3
f 632//3 630//3 591//3
f 620//3 631//3 633//3
f 634//3 632//3 591//3
f 635//3 620//3 633//3
f 635//3 633//3 636//3
f 637//3 634//3 591//3
f 635//3 636//3 638//3
f 639//3 637//3 591//3
f 635//3 638//3 640//3
f 641//3 639//3 591//3
f 635//3 640//3 642//3
f 643//3 641//3 591//3
f 635//3 642//3 644//3
f 645//3 643//3 591//3
f 635//3 644//3 646//3
f 647//3 645//3 591//3
f 635//3 646//3 648//3
f 649//3 647//3 591//3
f 635//3 648//3 650//3
f 651//3 649//3 591//3
f 635//3 650//3 652//3
f 653//3 651//3 591//3
f 635//3 652//3 654//3
f 655//3 653//3 591//3
f 635//3 654//3 656//3
f 657//3 655//3 591//3
f 658//3 635//3 656//3
f 658//3 656//3 659//3
f 660//3 657//3 591//3
f 658//4 659//4 661//4
f 662//3 660//3 591//3
f 658//3 661//3 663//3
f 664//3 662//3 591//3
f 658//5 663//5 665//5
f 666//3 664//3 591//3
f 658//4 665//4 667//4
f 667//3 666//3 591//3
f 658//3 667//3 668//3
f 668//3 667//3 591//3
f 669//3 658//3 668//3
f 670//3 669//3 668//3
f 671//3 670//3 668//3
f 672//3 671//3 668//3
f 673//3 672//3 668//3
f 673//3 668//3 674//3
f 675//3 668//3 591//3
f 676//3 673//3 674//3
f 676//3 674//3 677//3
f 676//3 677//3 678//3
f 679//3 676//3 678//3
f 679//3 678//3 680//3
f 679//3 680//3 681//3
f 682//3 679//3 681//3
f 682//3 681//3 683//3
f 684//3 682//3 683//3
f 684//3 683//3 685//3
f 684//3 685//3 686//3
f 687//3 684//3 686//3
f 687//3 686//3 688//3
f 687//3 688//3 689//3
f 690//3 687//3 689//3
f 690//3 689//3 691//3
f 692//3 690//3 691//3
f 692//3 691//3 693//3
f 692//3 693//3 694//3
f 695//3 692//3 694//3
f 695//3 694//3 696//3
f 695//3 696//3 697//3
f 698//3 695//3 697//3
f 698//3 697//3 699//3
f 700//3 698//3 699//3
f 700//3 699//3 701//3
f 700//3 701//3 702//3
f 703//3 700//3 702//3
f 703//3 702//3 704//3
f 703//3 704//3 705//3
f 706//3 703//3 705//3
f 706//3 705//3 707//3
f 708//3 706//3 707//3
f 708//3 707//3 709//3
f 708//3 709//3 710//3
f 711//3 708//3 710//3
f 712//3 713//3 714//3
f 712//3 714//3 715//3
f 715//3 714//3 716//3
f 716//3 717//3 718//3
f 716//3 718//3 719//3
f 719//3 718//3 720//3
f 712//3 715//3 721//3
f 722//3 715//3 716//3
f 716//3 719//3 723//3
f 724//3 719//3 720//3
f 722//3 716//3 723//3
f 98//6 102//6 464//6
f 98//6 464//6 460//6
f 322//7 320//7 682//7
f 322//7 682//7 684//7
f 266//8 264//8 626//8
f 266//8 626//8 628//8
f 112//9 113//9 475//9
f 112//9 475//9 474//9
f 307//10 296//10 658//10
f 307//10 658//10 669//10
f 136//11 140//11 502//11
f 136//11 502//11 498//11
f 223//12 225//12 587//12
f 223//12 587//12 586//12
f 157//13 159//13 521//13
f 157//13 521//13 519//13
f 236//14 237//14 599//14
f 236//14 599//14 598//14
f 146//15 145//15 507//15
f 146//15 507//15 508//15
f 244//16 245//16 607//16
f 244//16 607//16 606//16
f 132//17 130//17 492//17
f 132//17 492//17 494//17
f 254//18 255//18 617//18
f 254//18 617//18 616//18
f 114//19 116//19 477//19
f 114//19 477//19 476//19
f 172//20 173//20 535//20
f 172//20 535//20 534//20
f 286//21 288//21 650//21
f 286//21 650//21 648//21
f 183//22 184//22 546//22
f 183//22 546//22 545//22
f 303//23 305//23 667//23
f 303//23 667//23 665//23
f 194//24 195//24 557//24
f 194//24 557//24 556//24
f 291//25 289//25 651//25
f 291//25 651//25 653//25
f 178//26 174//26 536//26
f 178//26 536//26 540//26
f 161//27 160//27 522//27
f 161//27 522//27 523//27
f 105//28 101//28 463//28
f 105//28 463//28 467//28
f 79//29 71//29 433//29
f 79//29 433//29 441//29
f 23//30 21//30 383//30
f 23//30 383//30 385//30
f 7//31 5//31 367//31
f 7//31 367//31 369//31
f 10//32 12//32 374//32
f 10//32 374//32 372//32
f 26//33 27//33 389//33
f 26//33 389//33 388//33
f 82//34 89//34 451//34
f 82//34 451//34 444//34
f 96//12 98//12 460//12
f 96//12 460//12 458//12
f 81//35 78//35 440//35
f 81//35 440//35 443//35
f 59//36 57//36 419//36
f 59//36 419//36 421//36
f 41//37 39//37 401//37
f 41//37 401//37 403//37
f 40//38 42//38 404//38
f 40//38 404//38 402//38
f 128//39 120//39 482//39
f 128//39 482//39 490//39
f 58//40 61//40 423//40
f 58//40 423//40 420//40
f 205//41 207//41 569//41
f 205//41 569//41 567//41
f 312//42 315//42 677//42
f 312//42 677//42 674//42
f 326//43 327//43 689//43
f 326//43 689//43 688//43
f 339//44 340//44 702//44
f 339//44 702//44 701//44
f 346//45 344//45 706//45
f 346//45 706//45 708//45
f 325//46 322//46 684//46
f 325//46 684//46 687//46
f 102//47 103//47 465//47
f 102//47 465//47 464//47
f 67//48 65//48 427//48
f 67//48 427//48 429//48
f 308//49 307//49 669//49
f 308//49 669//49 670//49
f 113//50 118//50 480//50
f 113//50 480//50 475//50
f 224//51 223//51 586//51
f 224//51 586//51 585//51
f 140//52 142//52 504//52
f 140//52 504//52 502//52
f 159//53 158//53 520//53
f 159//53 520//53 521//53
f 277//54 275//54 637//54
f 277//54 637//54 639//54
f 243//55 244//55 606//55
f 243//55 606//55 605//55
f 145//56 143//56 505//56
f 145//56 505//56 507//56
f 174//57 171//57 533//57
f 174//57 533//57 536//57
f 253//58 254//58 616//58
f 253//58 616//58 615//58
f 130//59 127//59 489//59
f 130//59 489//59 492//59
f 267//60 269//60 631//60
f 267//60 631//60 629//60
f 116//51 115//51 478//51
f 116//51 478//51 477//51
f 284//32 286//32 648//32
f 284//32 648//32 646//32
f 173//61 175//61 537//61
f 173//61 537//61 535//61
f 301//62 303//62 665//62
f 301//62 665//62 663//62
f 184//63 186//63 548//63
f 184//63 548//63 546//63
f 355//12 358//12 720//12
f 355//12 720//12 718//12
f 293//64 291//64 653//64
f 293//64 653//64 655//64
f 195//65 197//65 559//65
f 195//65 559//65 557//65
f 260//66 257//66 619//66
f 260//66 619//66 622//66
f 101//67 100//67 462//67
f 101//67 462//67 463//67
f 356//51 355//51 718//51
f 356//51 718//51 717//51
f 71//68 63//68 425//68
f 71//68 425//68 433//68
f 21//69 19//69 381//69
f 21//69 381//69 383//69
f 5//70 1//70 363//70
f 5//70 363//70 367//70
f 12//71 14//71 376//71
f 12//71 376//71 374//71
f 27//72 29//72 391//72
f 27//72 391//72 389//72
f 160//73 148//73 510//73
f 160//73 510//73 522//73
f 89//74 94//74 456//74
f 89//74 456//74 451//74
f 271//75 274//75 636//75
f 271//75 636//75 633//75
f 78//76 75//76 437//76
f 78//76 437//76 440//76
f 57//77 55//77 417//77
f 57//77 417//77 419//77
f 39//78 37//78 399//78
f 39//78 399//78 401//78
f 42//79 44//79 406//79
f 42//79 406//79 404//79
f 61//80 64//80 426//80
f 61//80 426//80 423//80
f 83//81 86//81 448//81
f 83//81 448//81 445//81
f 210//6 211//6 573//6
f 210//6 573//6 572//6
f 80//82 83//82 445//82
f 80//82 445//82 442//82
f 207//51 209//51 571//51
f 207//51 571//51 569//51
f 213//12 215//12 577//12
f 213//12 577//12 576//12
f 315//83 316//83 678//83
f 315//83 678//83 677//83
f 24//84 26//84 388//84
f 24//84 388//84 386//84
f 327//85 329//85 691//85
f 327//85 691//85 689//85
f 219//12 220//12 582//12
f 219//12 582//12 581//12
f 361//6 360//6 722//6
f 361//6 722//6 723//6
f 340//86 342//86 704//86
f 340//86 704//86 702//86
f 185//87 181//87 543//87
f 185//87 543//87 547//87
f 103//88 104//88 466//88
f 103//88 466//88 465//88
f 317//89 314//89 676//89
f 317//89 676//89 679//89
f 118//90 122//90 484//90
f 118//90 484//90 480//90
f 273//91 258//91 620//91
f 273//91 620//91 635//91
f 142//92 144//92 506//92
f 142//92 506//92 504//92
f 230//93 231//93 593//93
f 230//93 593//93 592//93
f 158//94 156//94 518//94
f 158//94 518//94 520//94
f 238//95 239//95 601//95
f 238//95 601//95 600//95
f 143//96 141//96 503//96
f 143//96 503//96 505//96
f 247//97 248//97 610//97
f 247//97 610//97 609//97
f 127//98 126//98 488//98
f 127//98 488//98 489//98
f 256//99 259//99 621//99
f 256//99 621//99 618//99
f 115//12 117//12 479//12
f 115//12 479//12 478//12
f 175//100 176//100 538//100
f 175//100 538//100 537//100
f 186//101 187//101 549//101
f 186//101 549//101 548//101
f 304//102 302//102 664//102
f 304//102 664//102 666//102
f 197//103 196//103 558//103
f 197//103 558//103 559//103
f 287//104 285//104 647//104
f 287//104 647//104 649//104
f 171//105 167//105 529//105
f 171//105 529//105 533//105
f 270//106 268//106 630//106
f 270//106 630//106 632//106
f 228//51 227//51 590//51
f 228//51 590//51 589//51
f 100//107 99//107 461//107
f 100//107 461//107 462//107
f 359//6 350//6 712//6
f 359//6 712//6 721//6
f 63//108 53//108 415//108
f 63//108 415//108 425//108
f 19//109 17//109 379//109
f 19//109 379//109 381//109
f 1//110 3//110 364//110
f 1//110 364//110 363//110
f 14//111 16//111 378//111
f 14//111 378//111 376//111
f 29//112 33//112 395//112
f 29//112 395//112 391//112
f 94//113 96//113 458//113
f 94//113 458//113 456//113
f 75//114 73//114 435//114
f 75//114 435//114 437//114
f 55//115 52//115 414//115
f 55//115 414//115 417//115
f 37//116 32//116 394//116
f 37//116 394//116 399//116
f 44//117 46//117 408//117
f 44//118 408//118 406//118
f 84//119 81//119 443//119
f 84//119 443//119 446//119
f 86//120 88//120 450//120
f 86//120 450//120 448//120
f 211//121 208//121 570//121
f 211//121 570//121 573//121
f 111//122 108//122 470//122
f 111//122 470//122 473//122
f 289//123 287//123 649//123
f 289//123 649//123 651//123
f 215//41 217//41 579//41
f 215//41 579//41 577//41
f 316//124 318//124 680//124
f 316//125 680//125 678//125
f 329//126 331//126 693//126
f 329//127 693//127 691//127
f 342//128 343//128 705//128
f 342//128 705//128 704//128
f 341//129 338//129 700//129
f 341//129 700//129 703//129
f 104//130 106//130 468//130
f 104//130 468//130 466//130
f 296//131 273//131 635//131
f 296//131 635//131 658//131
f 122//132 125//132 487//132
f 122//132 487//132 484//132
f 225//133 230//133 592//133
f 225//133 592//133 587//133
f 144//134 147//134 509//134
f 144//134 509//134 506//134
f 237//135 238//135 600//135
f 237//135 600//135 599//135
f 156//136 154//136 516//136
f 156//136 516//136 518//136
f 245//137 247//137 609//137
f 245//137 609//137 607//137
f 141//138 139//138 501//138
f 141//138 501//138 503//138
f 255//139 256//139 618//139
f 255//139 618//139 617//139
f 126//140 124//140 486//140
f 126//140 486//140 488//140
f 117//141 166//141 528//141
f 117//141 528//141 479//141
f 288//142 290//142 652//142
f 288//142 652//142 650//142
f 176//143 177//143 539//143
f 176//143 539//143 538//143
f 167//144 165//144 527//144
f 167//144 527//144 529//144
f 305//145 304//145 666//145
f 305//145 666//145 667//145
f 187//146 188//146 550//146
f 187//146 550//146 549//146
f 259//147 261//147 623//147
f 259//147 623//147 621//147
f 196//148 192//148 554//148
f 196//148 554//148 558//148
f 272//149 270//149 632//149
f 272//149 632//149 634//149
f 137//150 128//150 490//150
f 137//150 490//150 499//150
f 353//12 359//12 721//12
f 353//12 721//12 715//12
f 99//151 97//151 459//151
f 99//151 459//151 461//151
f 53//152 34//152 396//152
f 53//152 396//152 415//152
f 17//153 15//153 377//153
f 17//153 377//153 379//153
f 148//154 137//154 499//154
f 148//154 499//154 510//154
f 3//155 2//155 365//155
f 3//155 365//155 364//155
f 64//156 66//156 428//156
f 64//156 428//156 426//156
f 33//157 49//157 411//157
f 33//157 411//157 395//157
f 73//158 70//158 432//158
f 73//158 432//158 435//158
f 344//159 341//159 703//159
f 344//159 703//159 706//159
f 226//121 228//121 589//121
f 226//121 589//121 588//121
f 52//160 50//160 412//160
f 52//160 412//160 414//160
f 32//161 31//161 393//161
f 32//162 393//162 394//162
f 46//163 48//163 410//163
f 46//163 410//163 408//163
f 66//164 69//164 431//164
f 66//164 431//164 428//164
f 88//165 92//165 454//165
f 88//165 454//165 450//165
f 208//166 206//166 568//166
f 208//166 568//166 570//166
f 220//6 221//6 583//6
f 220//6 583//6 582//6
f 217//51 219//51 581//51
f 217//51 581//51 579//51
f 318//167 319//167 681//167
f 318//167 681//167 680//167
f 331//168 332//168 694//168
f 331//168 694//168 693//168
f 279//169 277//169 639//169
f 279//169 639//169 641//169
f 343//170 345//170 707//170
f 343//170 707//170 705//170
f 338//171 336//171 698//171
f 338//171 698//171 700//171
f 106//172 107//172 469//172
f 106//172 469//172 468//172
f 311//173 310//173 672//173
f 311//173 672//173 673//173
f 320//174 317//174 679//174
f 320//174 679//174 682//174
f 125//175 129//175 491//175
f 125//175 491//175 487//175
f 251//176 246//176 608//176
f 251//176 608//176 613//176
f 147//177 150//177 512//177
f 147//177 512//177 509//177
f 232//178 233//178 595//178
f 232//178 595//178 594//178
f 154//179 153//179 515//179
f 154//179 515//179 516//179
f 240//180 241//180 603//180
f 240//180 603//180 602//180
f 139//181 138//181 500//181
f 139//181 500//181 501//181
f 249//182 250//182 612//182
f 249//182 612//182 611//182
f 124//183 123//183 485//183
f 124//183 485//183 486//183
f 261//184 263//184 625//184
f 261//184 625//184 623//184
f 166//185 168//185 530//185
f 166//185 530//185 528//185
f 278//186 280//186 642//186
f 278//186 642//186 640//186
f 177//187 179//187 541//187
f 177//187 541//187 539//187
f 294//188 297//188 659//188
f 294//188 659//188 656//188
f 188//189 190//189 552//189
f 188//189 552//189 550//189
f 165//190 164//190 526//190
f 165//190 526//190 527//190
f 358//6 362//6 724//6
f 358//6 724//6 720//6
f 50//191 47//191 409//191
f 50//191 409//191 412//191
f 97//192 95//192 457//192
f 97//192 457//192 459//192
f 352//51 351//51 714//51
f 352//51 714//51 713//51
f 34//193 30//193 392//193
f 34//193 392//193 396//193
f 15//194 13//194 375//194
f 15//194 375//194 377//194
f 2//195 4//195 366//195
f 2//195 366//195 365//195
f 18//196 20//196 382//196
f 18//196 382//196 380//196
f 49//197 60//197 422//197
f 49//197 422//197 411//197
f 93//198 90//198 452//198
f 93//198 452//198 455//198
f 274//199 276//199 638//199
f 274//199 638//199 636//199
f 70//200 67//200 429//200
f 70//200 429//200 432//200
f 269//201 271//201 633//201
f 269//201 633//201 631//201
f 69//202 72//202 434//202
f 69//202 434//202 431//202
f 92//51 93//51 455//51
f 92//51 455//51 454//51
f 31//203 35//203 397//203
f 31//203 397//203 393//203
f 206//6 202//6 564//6
f 206//6 564//6 568//6
f 221//121 218//121 580//121
f 221//121 580//121 583//121
f 319//204 321//204 683//204
f 319//204 683//204 681//204
f 275//205 272//205 634//205
f 275//205 634//205 637//205
f 285//206 283//206 645//206
f 285//206 645//206 647//206
f 332//207 334//207 696//207
f 332//208 696//208 694//208
f 360//209 353//209 715//209
f 360//209 715//209 722//209
f 345//210 347//210 709//210
f 345//210 709//210 707//210
f 290//211 292//211 654//211
f 290//211 654//211 652//211
f 314//212 311//212 673//212
f 314//212 673//212 676//212
f 107//213 109//213 471//213
f 107//213 471//213 469//213
f 258//214 251//214 613//214
f 258//214 613//214 620//214
f 129//215 131//215 493//215
f 129//215 493//215 491//215
f 231//216 232//216 594//216
f 231//216 594//216 593//216
f 150//217 152//217 514//217
f 150//217 514//217 512//217
f 239//218 240//218 602//218
f 239//218 602//218 601//218
f 153//219 151//219 513//219
f 153//219 513//219 515//219
f 248//220 249//220 611//220
f 248//220 611//220 610//220
f 138//221 135//221 497//221
f 138//221 497//221 500//221
f 123//222 121//222 483//222
f 123//222 483//222 485//222
f 48//223 51//223 413//223
f 48//223 413//223 410//223
f 276//224 278//224 640//224
f 276//224 640//224 638//224
f 168//225 169//225 531//225
f 168//225 531//225 530//225
f 292//226 294//226 656//226
f 292//226 656//226 654//226
f 179//227 180//227 542//227
f 179//227 542//227 541//227
f 302//228 300//228 662//228
f 302//228 662//228 664//228
f 190//229 191//229 553//229
f 190//229 553//229 552//229
f 189//230 185//230 547//230
f 189//230 547//230 551//230
f 268//231 266//231 628//231
f 268//231 628//231 630//231
f 164//232 163//232 525//232
f 164//232 525//232 526//232
f 120//233 111//233 473//233
f 120//233 473//233 482//233
f 350//121 352//121 713//121
f 350//121 713//121 712//121
f 95//234 91//234 453//234
f 95//234 453//234 457//234
f 30//235 28//235 390//235
f 30//235 390//235 392//235
f 13//236 11//236 373//236
f 13//236 373//236 375//236
f 4//237 6//237 368//237
f 4//237 368//237 366//237
f 20//238 22//238 384//238
f 20//238 384//238 382//238
f 60//239 68//239 430//239
f 60//239 430//239 422//239
f 90//240 87//240 449//240
f 90//240 449//240 452//240
f 47//241 45//241 407//241
f 47//241 407//241 409//241
f 35//242 36//242 398//242
f 35//242 398//242 397//242
f 16//243 18//243 380//243
f 16//243 380//243 378//243
f 51//244 54//244 416//244
f 51//244 416//244 413//244
f 72//245 74//245 436//245
f 72//245 436//245 434//245
f 201//6 198//6 560//6
f 201//6 560//6 563//6
f 199//12 201//12 563//12
f 199//12 563//12 562//12
f 202//121 204//121 565//121
f 202//121 565//121 564//121
f 218//166 216//166 578//166
f 218//166 578//166 580//166
f 229//6 313//6 675//6
f 229//6 675//6 591//6
f 321//246 323//246 685//246
f 321//247 685//247 683//247
f 334//248 335//248 697//248
f 334//248 697//248 696//248
f 328//249 325//249 687//249
f 328//249 687//249 690//249
f 347//250 348//250 710//250
f 347//250 710//250 709//250
f 333//251 330//251 692//251
f 333//252 692//252 695//252
f 109//253 110//253 472//253
f 109//253 472//253 471//253
f 131//254 134//254 496//254
f 131//254 496//254 493//254
f 222//121 224//121 585//121
f 222//121 585//121 584//121
f 152//255 155//255 517//255
f 152//255 517//255 514//255
f 151//256 149//256 511//256
f 151//256 511//256 513//256
f 135//257 133//257 495//257
f 135//257 495//257 497//257
f 252//258 253//258 615//258
f 252//258 615//258 614//258
f 121//259 119//259 481//259
f 121//259 481//259 483//259
f 265//260 267//260 629//260
f 265//260 629//260 627//260
f 169//248 170//248 532//248
f 169//248 532//248 531//248
f 282//261 284//261 646//261
f 282//261 646//261 644//261
f 180//262 182//262 544//262
f 180//262 544//262 542//262
f 299//263 301//263 663//263
f 299//263 663//263 661//263
f 235//264 236//264 598//264
f 235//264 598//264 597//264
f 191//265 193//265 555//265
f 191//265 555//265 553//265
f 295//266 293//266 655//266
f 295//266 655//266 657//266
f 163//267 162//267 524//267
f 163//267 524//267 525//267
f 262//268 260//268 622//268
f 262//268 622//268 624//268
f 309//269 308//269 670//269
f 309//269 670//269 671//269
f 357//270 361//270 723//270
f 357//270 723//270 719//270
f 91//271 85//271 447//271
f 91//271 447//271 453//271
f 354//272 356//272 717//272
f 354//272 717//272 716//272
f 28//273 25//273 387//273
f 28//273 387//273 390//273
f 336//274 333//274 695//274
f 336//274 695//274 698//274
f 11//275 9//275 371//275
f 11//275 371//275 373//275
f 6//276 8//276 370//276
f 6//276 370//276 368//276
f 22//277 24//277 386//277
f 22//277 386//277 384//277
f 68//278 76//278 438//278
f 68//278 438//278 430//278
f 87//279 84//279 446//279
f 87//279 446//279 449//279
f 65//280 62//280 424//280
f 65//280 424//280 427//280
f 45//281 43//281 405//281
f 45//281 405//281 407//281
f 36//282 38//282 400//282
f 36//282 400//282 398//282
f 54//283 56//283 418//283
f 54//283 418//283 416//283
f 74//284 77//284 439//284
f 74//284 439//284 436//284
f 198//121 200//121 561//121
f 198//121 561//121 560//121
f 204//51 203//51 566//51
f 204//51 566//51 565//51
f 216//6 212//6 574//6
f 216//6 574//6 578//6
f 313//121 306//121 668//121
f 313//121 668//121 675//121
f 323//285 324//285 686//285
f 323//285 686//285 685//285
f 335//286 337//286 699//286
f 335//286 699//286 697//286
f 257//287 226//287 588//287
f 257//287 588//287 619//287
f 348//288 349//288 711//288
f 348//288 711//288 710//288
f 330//289 328//289 690//289
f 330//289 690//289 692//289
f 281//290 279//290 641//290
f 281//290 641//290 643//290
f 310//291 309//291 671//291
f 310//291 671//291 672//291
f 110//292 112//292 474//292
f 110//292 474//292 472//292
f 246//293 222//293 584//293
f 246//293 584//293 608//293
f 134//294 136//294 498//294
f 134//294 498//294 496//294
f 233//295 234//295 596//295
f 233//295 596//295 595//295
f 155//296 157//296 519//296
f 155//296 519//296 517//296
f 241//297 242//297 604//297
f 241//297 604//297 603//297
f 149//298 146//298 508//298
f 149//298 508//298 511//298
f 250//299 252//299 614//299
f 250//299 614//299 612//299
f 133//300 132//300 494//300
f 133//300 494//300 495//300
f 234//301 235//301 597//301
f 234//301 597//301 596//301
f 263//302 265//302 627//302
f 263//302 627//302 625//302
f 119//303 114//303 476//303
f 119//303 476//303 481//303
f 280//304 282//304 644//304
f 280//304 644//304 642//304
f 170//305 172//305 534//305
f 170//305 534//305 532//305
f 297//306 299//306 661//306
f 297//306 661//306 659//306
f 182//307 183//307 545//307
f 182//307 545//307 544//307
f 298//308 295//308 657//308
f 298//308 657//308 660//308
f 193//309 194//309 556//309
f 193//309 556//309 555//309
f 214//51 213//51 576//51
f 214//51 576//51 575//51
f 181//310 178//310 540//310
f 181//310 540//310 543//310
f 264//311 262//311 624//311
f 264//311 624//311 626//311
f 162//312 161//312 523//312
f 162//312 523//312 524//312
f 108//313 105//313 467//313
f 108//313 467//313 470//313
f 351//314 354//314 716//314
f 351//314 716//314 714//314
f 85//315 79//315 441//315
f 85//315 441//315 447//315
f 209//12 210//12 572//12
f 209//12 572//12 571//12
f 25//316 23//316 385//316
f 25//316 385//316 387//316
f 9//317 7//317 369//317
f 9//317 369//317 371//317
f 300//318 298//318 660//318
f 300//318 660//318 662//318
f 76//319 82//319 444//319
f 76//319 444//319 438//319
f 8//320 10//320 372//320
f 8//320 372//320 370//320
f 242//321 243//321 605//321
f 242//321 605//321 604//321
f 62//322 59//322 421//322
f 62//322 421//322 424//322
f 227//12 229//12 591//12
f 227//12 591//12 590//12
f 43//323 41//323 403//323
f 43//323 403//323 405//323
f 38//324 40//324 402//324
f 38//324 402//324 400//324
f 56//325 58//325 420//325
f 56//325 420//325 418//325
f 77//326 80//326 442//326
f 77//326 442//326 439//326
f 200//51 199//51 562//51
f 200//51 562//51 561//51
f 203//12 205//12 567//12
f 203//12 567//12 566//12
f 362//121 357//121 719//121
f 362//121 719//121 724//121
f 212//121 214//121 575//121
f 212//121 575//121 574//121
f 306//327 312//327 674//327
f 306//327 674//327 668//327
f 192//328 189//328 551//328
f 192//328 551//328 554//328
f 324//329 326//329 688//329
f 324//329 688//329 686//329
f 283//330 281//330 643//330
f 283//330 643//330 645//330
f 337//331 339//331 701//331
f 337//331 701//331 699//331
f 349//332 346//332 708//332
f 349//332 708//332 711//332
f 725//121 726//121 727//121
f 727//121 726//121 728//121
f 729//12 730//12 731//12
f 732//12 731//12 730//12
f 733//51 734//51 735//51
f 733//51 735//51 736//51
f 737//1 738//1 734//1
f 734//1 739//1 735//1
f 740//1 738//1 737//1
f 739//1 734//1 738//1
f 741//6 742//6 743//6
f 744//6 743//6 742//6
f 745//121 740//121 746//121
f 737//121 746//121 740//121
f 747//51 748//51 749//51
f 750//51 749//51 748//51
f 739//12 738//12 751//12
f 752//12 751//12 738//12
f 749//333 730//333 729//333
f 747//333 749//333 729//333
f 753//6 754//6 755//6
f 753//6 755//6 756//6
f 748//334 726//334 750//334
f 726//334 725//334 750//334
f 754//1 738//1 755//1
f 740//1 755//1 738//1
f 754//335 753//335 752//335
f 754//335 752//335 738//335
f 756//336 755//336 740//336
f 756//336 740//336 745//336
f 743//337 727//337 741//337
f 728//337 741//337 727//337
f 741//3 747//3 742//3
f 741//3 728//3 747//3
f 744//338 742//338 732//338
f 731//338 732//338 742//338
f 731//3 742//3 747//3
f 731//3 747//3 729//3
f 728//3 726//3 747//3
f 748//3 747//3 726//3
f 737//339 734//339 733//339
f 737//339 733//339 746//339
f 736//340 735//340 739//340
f 736//340 739//340 751//340
f 752//1 753//1 750//1
f 730//1 749//1 745//1
f 749//1 750//1 756//1
f 756//1 745//1 749//1
f 753//1 756//1 750//1
f 750//1 725//1 752//1
f 727//1 751//1 725//1
f 744//1 746//1 733//1
f 736//1 751//1 743//1
f 743//1 744//1 736//1
f 733//1 736//1 744//1
f 746//1 732//1 745//1
f 744//1 732//1 746//1
f 730//1 745//1 732//1
f 752//1 725//1 751//1
f 743//1 751//1 727//1
