# This file uses centimeters as units for non-parametric coordinates.

mtllib animus_token.mtl
g default
v -1.900663 0.350533 2.460208
v -0.983707 0.350533 3.196584
v 0.000000 0.350533 3.513625
v 0.983707 0.350533 3.196584
v 1.900663 0.350533 2.460208
v -1.174742 0.700533 1.604770
v 0.000000 0.700533 1.687259
v 1.174742 0.700533 1.604770
v -1.363605 0.700533 0.133064
v 0.000000 0.700533 0.157252
v 1.363605 0.700533 0.133064
v -1.445641 0.700533 -1.284521
v 0.000000 0.700533 -1.290825
v 1.445641 0.700533 -1.284520
v -2.434871 0.350533 -2.437382
v -1.264766 0.350533 -2.991143
v 0.000000 0.350533 -3.057087
v 1.264766 0.350533 -2.991143
v 2.434871 0.350533 -2.437382
v -1.445641 0.000533 -1.284521
v 0.000000 0.000533 -1.290825
v 1.445641 0.000533 -1.284521
v -1.363605 0.000533 0.133064
v 0.000000 0.000533 0.157252
v 1.363605 0.000533 0.133064
v -1.174742 0.000533 1.604770
v 0.000000 0.000533 1.687259
v 1.174742 0.000533 1.604770
v 2.942066 0.350533 -1.264766
v 2.770502 0.350533 0.000000
v 2.406882 0.350533 1.264766
v -2.942066 0.350533 -1.264766
v -2.770502 0.350533 0.000000
v -2.406882 0.350533 1.264766
v -1.722700 0.003659 2.303913
v -1.826848 0.017644 2.403387
v -1.877382 0.054786 2.442287
v -1.898271 0.129587 2.458367
v -0.982340 0.129587 3.193976
v -0.970399 0.054786 3.171204
v -0.941512 0.017644 3.116112
v -0.942834 0.002291 2.872113
v 0.000000 0.129587 3.510593
v 0.000000 0.054786 3.484117
v 0.000000 0.017644 3.420068
v 0.000000 0.002291 3.136142
v 0.982340 0.129587 3.193976
v 0.970399 0.054786 3.171204
v 0.941512 0.017644 3.116112
v 0.942834 0.002291 2.872113
v 1.898271 0.129587 2.458367
v 1.877382 0.054786 2.442287
v 1.826848 0.017644 2.403387
v 1.722700 0.003659 2.303913
v -1.898271 0.571479 2.458367
v -1.877382 0.646280 2.442287
v -1.826848 0.683422 2.403387
v -1.722700 0.697407 2.303913
v -0.982340 0.571479 3.193976
v -0.970399 0.646280 3.171203
v -0.941512 0.683422 3.116112
v -0.942834 0.698775 2.872113
v 0.000000 0.571479 3.510592
v 0.000000 0.646280 3.484117
v 0.000000 0.683422 3.420069
v 0.000000 0.698775 3.136142
v 0.982340 0.571479 3.193976
v 0.970399 0.646280 3.171204
v 0.941512 0.683422 3.116112
v 0.942834 0.698775 2.872113
v 1.722700 0.697407 2.303913
v 1.826847 0.683422 2.403387
v 1.877382 0.646280 2.442287
v 1.898271 0.571479 2.458367
v -2.246251 0.697407 -2.248595
v -2.367732 0.683422 -2.372590
v -2.413695 0.646280 -2.416947
v -2.432695 0.571479 -2.435282
v -1.258129 0.698775 -2.635515
v -1.242201 0.683422 -2.902380
v -1.257649 0.646280 -2.963147
v -1.264035 0.571479 -2.988266
v 0.000000 0.698775 -2.689194
v 0.000000 0.683422 -2.965597
v 0.000000 0.646280 -3.028231
v 0.000000 0.571479 -3.054122
v 1.258129 0.698775 -2.635515
v 1.242201 0.683422 -2.902380
v 1.257649 0.646280 -2.963147
v 1.264035 0.571479 -2.988266
v 2.246251 0.697407 -2.248595
v 2.367732 0.683422 -2.372591
v 2.413695 0.646280 -2.416947
v 2.432695 0.571479 -2.435282
v -2.432695 0.129587 -2.435282
v -2.413695 0.054786 -2.416947
v -2.367732 0.017644 -2.372590
v -2.246251 0.003659 -2.248595
v -1.264035 0.129587 -2.988266
v -1.257649 0.054786 -2.963147
v -1.242201 0.017644 -2.902380
v -1.258129 0.002291 -2.635515
v 0.000000 0.129587 -3.054122
v 0.000000 0.054786 -3.028231
v 0.000000 0.017644 -2.965597
v 0.000000 0.002291 -2.689194
v 1.264035 0.129587 -2.988266
v 1.257649 0.054786 -2.963147
v 1.242201 0.017644 -2.902380
v 1.258129 0.002291 -2.635515
v 2.246251 0.003659 -2.248595
v 2.367732 0.017644 -2.372590
v 2.413695 0.054786 -2.416946
v 2.432695 0.129587 -2.435282
v -2.119874 0.698775 1.264920
v -2.320855 0.683422 1.233766
v -2.379749 0.646280 1.254989
v -2.404094 0.571479 1.263762
v 2.119874 0.698775 1.264921
v 2.320855 0.683422 1.233766
v 2.379749 0.646280 1.254989
v 2.404094 0.571479 1.263762
v -2.456648 0.698775 -0.009795
v -2.681019 0.683422 -0.018731
v -2.742280 0.646280 -0.005908
v -2.767602 0.571479 -0.000607
v 2.456648 0.698775 -0.009795
v 2.681020 0.683422 -0.018731
v 2.742280 0.646280 -0.005908
v 2.767602 0.571479 -0.000607
v -2.614188 0.698775 -1.248216
v -2.850835 0.683422 -1.252169
v -2.913292 0.646280 -1.260793
v -2.939109 0.571479 -1.264358
v 2.614188 0.698775 -1.248216
v 2.850835 0.683422 -1.252169
v 2.913292 0.646280 -1.260793
v 2.939109 0.571479 -1.264358
v -2.614188 0.002291 -1.248216
v -2.850835 0.017644 -1.252169
v -2.913292 0.054786 -1.260793
v -2.939109 0.129587 -1.264358
v 2.614188 0.002291 -1.248216
v 2.850835 0.017644 -1.252169
v 2.913292 0.054786 -1.260793
v 2.939109 0.129587 -1.264358
v -2.456649 0.002291 -0.009795
v -2.681019 0.017644 -0.018731
v -2.742280 0.054786 -0.005908
v -2.767602 0.129587 -0.000607
v 2.456649 0.002291 -0.009795
v 2.681019 0.017644 -0.018731
v 2.742280 0.054786 -0.005908
v 2.767602 0.129587 -0.000607
v -2.119874 0.002291 1.264920
v -2.320855 0.017644 1.233766
v -2.379749 0.054786 1.254989
v -2.404094 0.129587 1.263762
v 2.119874 0.002291 1.264920
v 2.320855 0.017644 1.233766
v 2.379749 0.054786 1.254989
v 2.404094 0.129587 1.263762
v 2.942066 0.473038 -1.264766
v 2.908011 0.571479 -0.632593
v 2.770502 0.473038 0.000000
v 2.598194 0.571479 0.631575
v 2.406882 0.473038 1.264766
v 2.189609 0.571479 1.895762
v -2.780583 0.129587 -1.895878
v -2.942066 0.228028 -1.264766
v -2.783267 0.350533 -1.897150
v -2.908011 0.129587 -0.632593
v -2.770502 0.228028 0.000000
v -2.910993 0.350533 -0.632383
v -2.598194 0.129587 0.631575
v -2.406882 0.228028 1.264766
v -2.601047 0.350533 0.632383
v -2.189609 0.129587 1.895762
v -2.192262 0.350533 1.897150
v -2.942066 0.473038 -1.264766
v -2.780583 0.571479 -1.895878
v -2.770502 0.473038 0.000000
v -2.908011 0.571479 -0.632593
v -2.406882 0.473038 1.264766
v -2.598194 0.571479 0.631575
v -2.189608 0.571479 1.895762
v -2.395730 0.079275 1.260748
v -2.166438 0.054786 1.883647
v -2.110384 0.017644 1.854337
v -2.282024 0.007566 1.219772
v -2.354111 0.033813 1.245750
v 0.000000 0.007566 3.377839
v -0.470111 0.017644 3.332797
v -0.484996 0.054786 3.394083
v 0.000000 0.079275 3.501497
v 0.000000 0.033813 3.456234
v 0.922465 0.007566 3.079789
v 0.470111 0.017644 3.332797
v 0.484996 0.054786 3.394083
v 0.978237 0.079275 3.186152
v 0.957823 0.033813 3.147221
v 1.793528 0.007566 2.377739
v 1.415490 0.017644 2.815144
v 1.456615 0.054786 2.862706
v 1.891094 0.079275 2.452842
v 1.855383 0.033813 2.425352
v -1.793528 0.693500 2.377739
v -1.415490 0.683422 2.815144
v -0.922465 0.693500 3.079788
v -1.855383 0.667253 2.425352
v -1.456615 0.646280 2.862706
v -0.957823 0.667253 3.147221
v -1.891094 0.621791 2.452842
v -0.978237 0.621791 3.186152
v -0.470111 0.683422 3.332797
v 0.000000 0.693500 3.377838
v -0.484996 0.646280 3.394083
v 0.000000 0.667253 3.456234
v 0.000000 0.621791 3.501497
v 0.470111 0.683422 3.332797
v 0.484996 0.646280 3.394083
v 2.395730 0.621791 1.260748
v 2.166438 0.646280 1.883647
v 2.110384 0.683422 1.854337
v 2.282024 0.693500 1.219772
v 2.354111 0.667253 1.245750
v -2.426167 0.621791 -2.428983
v -2.930239 0.621791 -1.263133
v -2.757141 0.646280 -1.884773
v -2.337426 0.693500 -2.343345
v -2.700433 0.683422 -1.857908
v -2.809655 0.693500 -1.246482
v -2.393686 0.667253 -2.397637
v -2.886102 0.667253 -1.257039
v -1.883124 0.646280 -2.767895
v -1.261841 0.621791 -2.979636
v -1.852679 0.683422 -2.712729
v -1.250924 0.667253 -2.936693
v -1.232015 0.693500 -2.862314
v -0.629495 0.646280 -3.028231
v 0.000000 0.621791 -3.045227
v -0.623225 0.683422 -2.965597
v 0.000000 0.667253 -3.000964
v 0.000000 0.693500 -2.924300
v 0.629495 0.646280 -3.028231
v 1.261841 0.621791 -2.979636
v 0.623225 0.683422 -2.965597
v 1.250924 0.667253 -2.936693
v 1.232016 0.693500 -2.862314
v 1.883124 0.646280 -2.767895
v 2.426167 0.621791 -2.428983
v 1.852679 0.683422 -2.712729
v 2.393686 0.667253 -2.397637
v 2.337426 0.693500 -2.343345
v -2.337426 0.007566 -2.343345
v -1.852679 0.017644 -2.712729
v -1.232016 0.007566 -2.862314
v -2.393686 0.033813 -2.397637
v -1.883124 0.054786 -2.767895
v -1.250924 0.033813 -2.936693
v -2.426167 0.079275 -2.428983
v -1.261841 0.079275 -2.979636
v -0.623225 0.017644 -2.965597
v 0.000000 0.007566 -2.924300
v -0.629495 0.054786 -3.028231
v 0.000000 0.033813 -3.000964
v 0.000000 0.079275 -3.045227
v 0.623225 0.017644 -2.965597
v 0.629495 0.054786 -3.028231
v 2.930239 0.079275 -1.263133
v 2.757141 0.054786 -1.884773
v 2.700433 0.017644 -1.857908
v 2.809655 0.007566 -1.246482
v 2.886102 0.033813 -1.257039
v -2.166438 0.646280 1.883647
v -2.395730 0.621791 1.260748
v -2.110384 0.683422 1.854338
v -2.354111 0.667253 1.245750
v -2.282024 0.693500 1.219772
v 2.758902 0.621791 -0.002428
v 2.573284 0.646280 0.624517
v 2.513020 0.683422 0.607443
v 2.640628 0.693500 -0.027186
v 2.715611 0.667253 -0.011490
v -2.573284 0.646280 0.624517
v -2.758903 0.621791 -0.002428
v -2.513020 0.683422 0.607443
v -2.715611 0.667253 -0.011490
v -2.640628 0.693500 -0.027186
v 2.930239 0.621791 -1.263133
v 2.881977 0.646280 -0.634425
v 2.818995 0.683422 -0.638856
v 2.809655 0.693500 -1.246482
v 2.886102 0.667253 -1.257039
v -2.881977 0.646280 -0.634425
v -2.818995 0.683422 -0.638856
v 2.757141 0.646280 -1.884773
v 2.700433 0.683422 -1.857908
v -2.757141 0.054786 -1.884773
v -2.930239 0.079275 -1.263133
v -2.700433 0.017644 -1.857908
v -2.886102 0.033813 -1.257039
v -2.809655 0.007566 -1.246482
v 2.758902 0.079275 -0.002428
v 2.881977 0.054786 -0.634425
v 2.818995 0.017644 -0.638856
v 2.640628 0.007566 -0.027186
v 2.715611 0.033813 -0.011490
v -2.881977 0.054786 -0.634425
v -2.758903 0.079275 -0.002428
v -2.818995 0.017644 -0.638856
v -2.715611 0.033813 -0.011490
v -2.640628 0.007566 -0.027186
v 2.395730 0.079275 1.260748
v 2.573283 0.054786 0.624517
v 2.513020 0.017644 0.607443
v 2.282024 0.007566 1.219772
v 2.354111 0.033813 1.245750
v -2.573283 0.054786 0.624517
v -2.513020 0.017644 0.607443
v 2.166438 0.054786 1.883647
v 2.110384 0.017644 1.854338
v -0.596461 0.700533 1.676822
v 0.000000 0.700533 0.906305
v -0.692626 0.700533 0.157252
v -1.279230 0.700533 0.866032
v 0.596461 0.700533 1.676822
v 1.279230 0.700533 0.866032
v 0.692626 0.700533 0.157252
v 0.000000 0.700533 -0.561366
v -0.733301 0.700533 -1.290825
v -1.433242 0.700533 -0.571809
v 1.433242 0.700533 -0.571809
v 0.733301 0.700533 -1.290825
v -0.733301 0.000533 -1.290825
v 0.000000 0.000533 -0.561366
v -0.692626 0.000533 0.157252
v -1.433242 0.000533 -0.571809
v 0.733301 0.000533 -1.290825
v 1.433242 0.000533 -0.571809
v 0.692626 0.000533 0.157252
v 0.000000 0.000533 0.906305
v -0.596461 0.000533 1.676822
v -1.279230 0.000533 0.866032
v 1.279230 0.000533 0.866032
v 0.596461 0.000533 1.676822
v -1.891094 0.079275 2.452842
v -1.456615 0.054786 2.862706
v -0.978237 0.079275 3.186152
v -1.473614 0.129587 2.882366
v -1.855383 0.033813 2.425352
v -1.415490 0.017644 2.815144
v -0.957823 0.033813 3.147220
v -1.793528 0.007566 2.377739
v -1.412734 0.002291 2.594862
v -0.922465 0.007566 3.079789
v 0.922465 0.693500 3.079789
v 1.415490 0.683422 2.815144
v 1.793528 0.693500 2.377739
v 1.412734 0.698775 2.594862
v 0.957824 0.667253 3.147220
v 1.456615 0.646280 2.862706
v 1.855383 0.667253 2.425352
v 0.978237 0.621791 3.186152
v 1.473614 0.571479 2.882366
v 1.891094 0.621791 2.452842
v 1.232015 0.007566 -2.862314
v 1.852679 0.017644 -2.712729
v 2.337426 0.007566 -2.343345
v 1.863307 0.002291 -2.474477
v 1.250924 0.033813 -2.936693
v 1.883124 0.054786 -2.767895
v 2.393686 0.033813 -2.397637
v 1.261841 0.079275 -2.979636
v 1.895708 0.129587 -2.790699
v 2.426167 0.079275 -2.428983
v -0.983707 0.228028 3.196584
v -1.475561 0.350533 2.884617
v -1.900663 0.228028 2.460208
v -0.491149 0.129587 3.419416
v 0.000000 0.228028 3.513625
v -0.491854 0.350533 3.422317
v 0.491149 0.129587 3.419416
v 0.983707 0.228028 3.196584
v 0.491854 0.350533 3.422317
v 1.473614 0.129587 2.882366
v 1.900663 0.228028 2.460208
v 1.475561 0.350533 2.884617
v -0.983707 0.473038 3.196584
v -1.473614 0.571479 2.882366
v -1.900663 0.473038 2.460208
v 0.000000 0.473038 3.513625
v -0.491149 0.571479 3.419416
v 0.983707 0.473038 3.196584
v 0.491149 0.571479 3.419416
v 1.900663 0.473038 2.460208
v -1.412734 0.698775 2.594862
v -1.044768 0.700533 2.326952
v -1.716663 0.700533 1.430361
v -1.921246 0.698775 1.889732
v -0.471720 0.698775 3.062594
v 0.000000 0.700533 2.501577
v 0.471720 0.698775 3.062594
v 1.044768 0.700533 2.326952
v 1.921246 0.698775 1.889732
v 1.716663 0.700533 1.430361
v -1.991294 0.700533 0.060502
v -2.300074 0.698775 0.627409
v 2.300074 0.698775 0.627409
v 1.991294 0.700533 0.060502
v -2.116060 0.700533 -1.265606
v -2.584403 0.698775 -0.633683
v 2.584403 0.698775 -0.633683
v 2.116060 0.700533 -1.265606
v -1.358304 0.700533 -2.041003
v -1.863307 0.698775 -2.474477
v -2.476854 0.698775 -1.857356
v 0.000000 0.700533 -2.072402
v -0.633842 0.698775 -2.689194
v 1.358304 0.700533 -2.041003
v 0.633842 0.698775 -2.689194
v 2.476854 0.698775 -1.857356
v 1.863307 0.698775 -2.474477
v -1.895709 0.571479 -2.790699
v -1.264766 0.473038 -2.991143
v -1.897150 0.350533 -2.793310
v -2.434871 0.473038 -2.437382
v -0.632086 0.571479 -3.054122
v 0.000000 0.473038 -3.057087
v -0.632383 0.350533 -3.057087
v 0.632087 0.571479 -3.054122
v 1.264766 0.473038 -2.991143
v 0.632383 0.350533 -3.057087
v 1.895709 0.571479 -2.790699
v 2.434871 0.473038 -2.437382
v 1.897150 0.350533 -2.793310
v -1.264766 0.228028 -2.991143
v -1.895709 0.129587 -2.790699
v -2.434871 0.228028 -2.437382
v 0.000000 0.228028 -3.057087
v -0.632086 0.129587 -3.054122
v 1.264766 0.228028 -2.991143
v 0.632087 0.129587 -3.054122
v 2.434871 0.228028 -2.437382
v -1.863307 0.002291 -2.474477
v -1.358304 0.000533 -2.041003
v -2.116060 0.000533 -1.265606
v -2.476854 0.002291 -1.857356
v -0.633842 0.002291 -2.689194
v 0.000000 0.000533 -2.072402
v 0.633842 0.002291 -2.689194
v 1.358304 0.000533 -2.041003
v 2.476854 0.002291 -1.857356
v 2.116060 0.000533 -1.265606
v -1.991294 0.000533 0.060502
v -2.584403 0.002291 -0.633683
v 2.584403 0.002291 -0.633683
v 1.991294 0.000533 0.060502
v -1.716663 0.000533 1.430361
v -2.300073 0.002291 0.627409
v 2.300073 0.002291 0.627409
v 1.716663 0.000533 1.430361
v -1.044768 0.000533 2.326952
v -1.921246 0.002291 1.889732
v 0.000000 0.000533 2.501577
v -0.471720 0.002291 3.062594
v 1.044768 0.000533 2.326952
v 0.471720 0.002291 3.062594
v 1.921246 0.002291 1.889732
v 1.412734 0.002291 2.594862
v 2.780583 0.129587 -1.895878
v 2.783267 0.350533 -1.897150
v 2.942066 0.228028 -1.264766
v 2.908011 0.129587 -0.632593
v 2.910993 0.350533 -0.632383
v 2.770502 0.228028 0.000000
v 2.598194 0.129587 0.631575
v 2.601047 0.350533 0.632383
v 2.406882 0.228028 1.264766
v 2.189608 0.129587 1.895762
v 2.192262 0.350533 1.897150
v 2.780583 0.571479 -1.895878
v -0.650262 0.700533 0.906305
v 0.650262 0.700533 0.906305
v -0.727748 0.700533 -0.561366
v 0.727748 0.700533 -0.561366
v -0.727748 0.000533 -0.561366
v 0.727748 0.000533 -0.561366
v -0.650262 0.000533 0.906305
v 0.650262 0.000533 0.906305
v -1.467774 0.079275 2.875611
v -1.438712 0.033813 2.842000
v -1.388375 0.007566 2.783785
v 1.388376 0.693500 2.783785
v 1.438712 0.667253 2.842000
v 1.467774 0.621791 2.875612
v 1.832606 0.007566 -2.676357
v 1.869870 0.033813 -2.743880
v 1.891385 0.079275 -2.782864
v -1.475561 0.228028 2.884617
v -0.491854 0.228028 3.422317
v 0.491854 0.228028 3.422317
v 1.475561 0.228028 2.884617
v -1.475561 0.473038 2.884617
v -0.491854 0.473038 3.422317
v 0.491854 0.473038 3.422317
v 1.475561 0.473038 2.884617
v -1.543934 0.700533 2.095316
v -0.527028 0.700533 2.459828
v 0.527028 0.700533 2.459828
v 1.543934 0.700533 2.095316
v -1.865611 0.700533 0.745212
v 1.865611 0.700533 0.745212
v -2.094228 0.700533 -0.603137
v 2.094228 0.700533 -0.603137
v -1.998439 0.700533 -1.946806
v -0.686956 0.700533 -2.072402
v 0.686955 0.700533 -2.072402
v 1.998439 0.700533 -1.946806
v -1.897150 0.473038 -2.793310
v -0.632383 0.473038 -3.057087
v 0.632383 0.473038 -3.057087
v 1.897150 0.473038 -2.793310
v -1.897150 0.228028 -2.793310
v -0.632383 0.228028 -3.057087
v 0.632383 0.228028 -3.057087
v 1.897150 0.228028 -2.793310
v -1.998439 0.000533 -1.946806
v -0.686956 0.000533 -2.072402
v 0.686955 0.000533 -2.072402
v 1.998439 0.000533 -1.946806
v -2.094228 0.000533 -0.603137
v 2.094228 0.000533 -0.603137
v -1.865611 0.000533 0.745212
v 1.865611 0.000533 0.745212
v -1.543934 0.000533 2.095316
v -0.527028 0.000533 2.459829
v 0.527028 0.000533 2.459829
v 1.543934 0.000533 2.095316
v 2.783267 0.228028 -1.897150
v 2.910993 0.228028 -0.632383
v 2.601047 0.228028 0.632383
v 2.192262 0.228028 1.897150
v 2.783267 0.473038 -1.897150
v 2.910993 0.473038 -0.632383
v 2.601047 0.473038 0.632383
v 2.192262 0.473038 1.897150
v -2.783267 0.228028 -1.897150
v -2.910993 0.228028 -0.632383
v -2.601047 0.228028 0.632383
v -2.192262 0.228028 1.897150
v -2.783267 0.473038 -1.897150
v -2.910993 0.473038 -0.632383
v -2.601047 0.473038 0.632383
v -2.192262 0.473038 1.897150
v -2.181648 0.079275 1.891600
v -2.073424 0.007566 1.835012
v -2.142035 0.033813 1.870888
v -0.460297 0.007566 3.292389
v -0.489035 0.079275 3.410712
v -0.478516 0.033813 3.367403
v 0.460297 0.007566 3.292389
v 0.489035 0.079275 3.410712
v 0.478516 0.033813 3.367403
v 1.388376 0.007566 2.783785
v 1.467774 0.079275 2.875611
v 1.438712 0.033813 2.842000
v -1.388375 0.693500 2.783785
v -1.438712 0.667253 2.842000
v -1.467774 0.621791 2.875611
v -0.460297 0.693500 3.292389
v -0.478516 0.667253 3.367403
v -0.489035 0.621791 3.410712
v 0.460297 0.693500 3.292389
v 0.478516 0.667253 3.367403
v 0.489035 0.621791 3.410712
v 2.181648 0.621791 1.891600
v 2.073424 0.693500 1.835012
v 2.142035 0.667253 1.870888
v -2.772529 0.621791 -1.892063
v -2.663042 0.693500 -1.840195
v -2.732454 0.667253 -1.873078
v -1.891385 0.621791 -2.782864
v -1.869870 0.667253 -2.743880
v -1.832606 0.693500 -2.676357
v -0.631196 0.621791 -3.045227
v -0.626765 0.667253 -3.000964
v -0.619091 0.693500 -2.924300
v 0.631196 0.621791 -3.045227
v 0.626765 0.667253 -3.000964
v 0.619091 0.693500 -2.924300
v 1.891385 0.621791 -2.782864
v 1.869870 0.667253 -2.743880
v 1.832606 0.693500 -2.676357
v -1.832605 0.007566 -2.676357
v -1.869870 0.033813 -2.743880
v -1.891385 0.079275 -2.782864
v -0.619091 0.007566 -2.924300
v -0.626765 0.033813 -3.000964
v -0.631196 0.079275 -3.045227
v 0.619091 0.007566 -2.924300
v 0.626765 0.033813 -3.000964
v 0.631196 0.079275 -3.045227
v 2.772529 0.079275 -1.892063
v 2.663042 0.007566 -1.840195
v 2.732454 0.033813 -1.873078
v -2.181648 0.621791 1.891600
v -2.142035 0.667253 1.870888
v -2.073424 0.693500 1.835012
v 2.589636 0.621791 0.629150
v 2.473286 0.693500 0.596185
v 2.547049 0.667253 0.617084
v -2.589636 0.621791 0.629150
v -2.547049 0.667253 0.617084
v -2.473286 0.693500 0.596185
v 2.899067 0.621791 -0.633222
v 2.777467 0.693500 -0.641777
v 2.854558 0.667253 -0.636354
v -2.899067 0.621791 -0.633222
v -2.854558 0.667253 -0.636354
v -2.777467 0.693500 -0.641777
v 2.772529 0.621791 -1.892063
v 2.732454 0.667253 -1.873078
v 2.663042 0.693500 -1.840195
v -2.772529 0.079275 -1.892063
v -2.732454 0.033813 -1.873078
v -2.663042 0.007566 -1.840195
v 2.899067 0.079275 -0.633222
v 2.777467 0.007566 -0.641777
v 2.854558 0.033813 -0.636354
v -2.899067 0.079275 -0.633222
v -2.854558 0.033813 -0.636354
v -2.777467 0.007566 -0.641777
v 2.589636 0.079275 0.629150
v 2.473286 0.007566 0.596185
v 2.547049 0.033813 0.617084
v -2.589636 0.079275 0.629150
v -2.547049 0.033813 0.617084
v -2.473286 0.007566 0.596185
v 2.181648 0.079275 1.891600
v 2.142035 0.033813 1.870888
v 2.073424 0.007566 1.835012
vt 0.519797 0.487469
vt 0.580332 0.479927
vt 0.574700 0.560585
vt 0.508859 0.564801
vt 0.533402 0.411871
vt 0.587600 0.397961
vt 0.642770 0.478834
vt 0.642770 0.560585
vt 0.570265 0.638997
vt 0.500026 0.641529
vt 0.463068 0.505727
vt 0.447476 0.577449
vt 0.544073 0.354803
vt 0.593390 0.334863
vt 0.642770 0.393591
vt 0.481149 0.436119
vt 0.705208 0.479927
vt 0.710840 0.560585
vt 0.642770 0.638997
vt 0.566588 0.714222
vt 0.492737 0.715316
vt 0.434319 0.649125
vt 0.420859 0.523045
vt 0.401996 0.589781
vt 0.546205 0.333063
vt 0.594585 0.310808
vt 0.642770 0.327164
vt 0.494884 0.383826
vt 0.697940 0.397961
vt 0.441652 0.457639
vt 0.765743 0.487469
vt 0.776681 0.564801
vt 0.715275 0.638997
vt 0.642770 0.714222
vt 0.566007 0.790583
vt 0.491439 0.789923
vt 0.423544 0.718595
vt 0.385606 0.656484
vt 0.403885 0.527771
vt 0.383864 0.593049
vt 0.497433 0.364049
vt 0.642770 0.301863
vt 0.692150 0.334863
vt 0.462436 0.414283
vt 0.752137 0.411871
vt 0.425722 0.463367
vt 0.822472 0.505727
vt 0.838064 0.577449
vt 0.785513 0.641529
vt 0.718951 0.714222
vt 0.642770 0.790583
vt 0.570859 0.872399
vt 0.500581 0.869112
vt 0.421259 0.787943
vt 0.372232 0.721793
vt 0.366347 0.658304
vt 0.455022 0.406554
vt 0.690954 0.310808
vt 0.741466 0.354803
vt 0.804390 0.436119
vt 0.864680 0.523045
vt 0.883543 0.589781
vt 0.851220 0.649125
vt 0.792803 0.715316
vt 0.719532 0.790583
vt 0.642770 0.872399
vt 0.576419 0.936965
vt 0.511068 0.931346
vt 0.433571 0.859252
vt 0.369114 0.786123
vt 0.352022 0.722640
vt 0.739334 0.333063
vt 0.790656 0.383826
vt 0.843887 0.457639
vt 0.881654 0.527771
vt 0.901675 0.593049
vt 0.899934 0.656484
vt 0.861995 0.718595
vt 0.794101 0.789923
vt 0.714681 0.872399
vt 0.642770 0.936965
vt 0.513801 0.955088
vt 0.577963 0.961576
vt 0.447717 0.914489
vt 0.383491 0.849888
vt 0.348653 0.785941
vt 0.788106 0.364049
vt 0.823103 0.414283
vt 0.859818 0.463367
vt 0.919193 0.658304
vt 0.913307 0.721793
vt 0.864281 0.787943
vt 0.784958 0.869112
vt 0.709121 0.936965
vt 0.642770 0.961576
vt 0.450931 0.935622
vt 0.407630 0.890843
vt 0.364000 0.848092
vt 0.830518 0.406554
vt 0.933518 0.722640
vt 0.916425 0.786123
vt 0.851968 0.859252
vt 0.774472 0.931346
vt 0.707577 0.961576
vt 0.398086 0.900762
vt 0.936887 0.785941
vt 0.902049 0.849888
vt 0.837822 0.914489
vt 0.771738 0.955088
vt 0.921539 0.848092
vt 0.877909 0.890843
vt 0.834609 0.935622
vt 0.887454 0.900762
vt 0.794362 0.789520
vt 0.719794 0.790180
vt 0.719213 0.713819
vt 0.793065 0.714912
vt 0.785220 0.868709
vt 0.714943 0.871996
vt 0.643031 0.790180
vt 0.643031 0.713819
vt 0.715536 0.638594
vt 0.785775 0.641125
vt 0.864542 0.787540
vt 0.862257 0.718192
vt 0.774734 0.930943
vt 0.709383 0.936562
vt 0.643031 0.871996
vt 0.852230 0.858848
vt 0.566269 0.790180
vt 0.566850 0.713819
vt 0.643031 0.638594
vt 0.711102 0.560182
vt 0.776942 0.564398
vt 0.851482 0.648721
vt 0.916687 0.785719
vt 0.913569 0.721389
vt 0.772000 0.954684
vt 0.707838 0.961173
vt 0.643031 0.936562
vt 0.838084 0.914085
vt 0.571120 0.871996
vt 0.902311 0.849485
vt 0.491700 0.789520
vt 0.492998 0.714912
vt 0.570527 0.638594
vt 0.643031 0.560182
vt 0.705469 0.479524
vt 0.766005 0.487066
vt 0.838325 0.577045
vt 0.900196 0.656080
vt 0.937149 0.785538
vt 0.933779 0.722237
vt 0.834870 0.935218
vt 0.643031 0.961173
vt 0.576680 0.936562
vt 0.878171 0.890440
vt 0.500843 0.868709
vt 0.921801 0.847688
vt 0.421520 0.787540
vt 0.423806 0.718192
vt 0.500288 0.641125
vt 0.574961 0.560182
vt 0.643031 0.478431
vt 0.698201 0.397558
vt 0.752399 0.411467
vt 0.822733 0.505323
vt 0.883805 0.589377
vt 0.919455 0.657901
vt 0.887715 0.900358
vt 0.578224 0.961173
vt 0.511329 0.930943
vt 0.433833 0.858848
vt 0.369376 0.785719
vt 0.372494 0.721389
vt 0.434581 0.648721
vt 0.509121 0.564398
vt 0.580593 0.479524
vt 0.643031 0.393188
vt 0.692411 0.334460
vt 0.741728 0.354400
vt 0.804652 0.435715
vt 0.864942 0.522642
vt 0.901937 0.592646
vt 0.514063 0.954684
vt 0.447979 0.914085
vt 0.383752 0.849485
vt 0.348914 0.785538
vt 0.352284 0.722237
vt 0.385867 0.656080
vt 0.447738 0.577045
vt 0.520058 0.487066
vt 0.587862 0.397558
vt 0.643031 0.326761
vt 0.739596 0.332660
vt 0.691216 0.310405
vt 0.790918 0.383422
vt 0.844149 0.457236
vt 0.881916 0.527368
vt 0.451193 0.935218
vt 0.407892 0.890440
vt 0.364262 0.847688
vt 0.366608 0.657901
vt 0.402258 0.589377
vt 0.463330 0.505323
vt 0.533664 0.411467
vt 0.593651 0.334460
vt 0.643031 0.301460
vt 0.788368 0.363646
vt 0.823365 0.413879
vt 0.860079 0.462964
vt 0.398347 0.900358
vt 0.384126 0.592646
vt 0.421121 0.522642
vt 0.481411 0.435715
vt 0.544335 0.354400
vt 0.594847 0.310405
vt 0.830780 0.406151
vt 0.404147 0.527368
vt 0.441914 0.457236
vt 0.495145 0.383422
vt 0.546467 0.332660
vt 0.425984 0.462964
vt 0.462698 0.413879
vt 0.497695 0.363646
vt 0.455283 0.406151
vt 0.149646 0.548907
vt 0.149646 0.498926
vt 0.157437 0.498825
vt 0.157437 0.548874
vt 0.145664 0.499228
vt 0.145664 0.549004
vt 0.149646 0.456235
vt 0.157437 0.456069
vt 0.167132 0.498825
vt 0.167132 0.548874
vt 0.149646 0.598907
vt 0.157437 0.598923
vt 0.145664 0.456734
vt 0.145664 0.598857
vt 0.143726 0.499805
vt 0.143726 0.549189
vt 0.157437 0.427900
vt 0.149646 0.428107
vt 0.167132 0.456069
vt 0.176828 0.498825
vt 0.176828 0.548874
vt 0.167132 0.598923
vt 0.149646 0.648924
vt 0.157437 0.648972
vt 0.145664 0.428727
vt 0.143726 0.457687
vt 0.145664 0.648780
vt 0.143726 0.598762
vt 0.142066 0.500730
vt 0.142066 0.549486
vt 0.167132 0.427900
vt 0.176828 0.456069
vt 0.184619 0.498926
vt 0.184619 0.548907
vt 0.176828 0.598923
vt 0.167132 0.648972
vt 0.149646 0.698958
vt 0.157437 0.699022
vt 0.142066 0.459215
vt 0.145664 0.698766
vt 0.143726 0.648505
vt 0.142066 0.598609
vt 0.176828 0.427900
vt 0.184619 0.456235
vt 0.188601 0.499228
vt 0.188601 0.549004
vt 0.184619 0.598907
vt 0.176828 0.648972
vt 0.167132 0.699022
vt 0.149646 0.748991
vt 0.157437 0.749071
vt 0.145664 0.748753
vt 0.143726 0.698399
vt 0.142066 0.648063
vt 0.184619 0.428107
vt 0.188601 0.456734
vt 0.190539 0.499805
vt 0.190539 0.549189
vt 0.188601 0.598857
vt 0.184619 0.648924
vt 0.176828 0.699022
vt 0.167132 0.749071
vt 0.149646 0.799010
vt 0.157437 0.799120
vt 0.145664 0.798681
vt 0.143726 0.748297
vt 0.142066 0.697811
vt 0.188601 0.428727
vt 0.190539 0.457687
vt 0.192199 0.500730
vt 0.192199 0.549486
vt 0.190539 0.598762
vt 0.188601 0.648780
vt 0.184619 0.698958
vt 0.176828 0.749071
vt 0.167132 0.799120
vt 0.149646 0.843537
vt 0.157437 0.843682
vt 0.145664 0.843099
vt 0.143726 0.798051
vt 0.142066 0.747566
vt 0.192199 0.459215
vt 0.192199 0.598609
vt 0.190539 0.648505
vt 0.188601 0.698766
vt 0.184619 0.748991
vt 0.176828 0.799120
vt 0.167132 0.843682
vt 0.149646 0.877093
vt 0.157437 0.877272
vt 0.145664 0.876559
vt 0.143726 0.842264
vt 0.142066 0.797041
vt 0.192199 0.648063
vt 0.190539 0.698399
vt 0.188601 0.748753
vt 0.184619 0.799010
vt 0.176828 0.843682
vt 0.167132 0.877272
vt 0.149646 0.901755
vt 0.157437 0.901962
vt 0.145664 0.901136
vt 0.143726 0.875537
vt 0.142066 0.840924
vt 0.192199 0.697811
vt 0.190539 0.748297
vt 0.188601 0.798681
vt 0.184619 0.843537
vt 0.176828 0.877272
vt 0.167132 0.901962
vt 0.192199 0.747566
vt 0.190539 0.798051
vt 0.188601 0.843099
vt 0.184619 0.877093
vt 0.176828 0.901962
vt 0.192199 0.797041
vt 0.190539 0.842264
vt 0.188601 0.876559
vt 0.184619 0.901755
vt 0.192199 0.840924
vt 0.190539 0.875537
vt 0.188601 0.901136
vt 0.205654 0.830936
vt 0.205654 0.780955
vt 0.213445 0.780987
vt 0.213445 0.831036
vt 0.201672 0.830634
vt 0.201672 0.780858
vt 0.205654 0.730955
vt 0.213445 0.730938
vt 0.223141 0.780987
vt 0.223141 0.831036
vt 0.205654 0.873626
vt 0.213445 0.873792
vt 0.201672 0.873128
vt 0.199734 0.830057
vt 0.199734 0.780673
vt 0.201672 0.731005
vt 0.205654 0.680937
vt 0.213445 0.680889
vt 0.223141 0.730938
vt 0.232836 0.780987
vt 0.232836 0.831036
vt 0.223141 0.873792
vt 0.213445 0.901962
vt 0.205654 0.901755
vt 0.201672 0.901135
vt 0.199734 0.872175
vt 0.198074 0.829131
vt 0.198074 0.780376
vt 0.199734 0.731100
vt 0.201672 0.681081
vt 0.205654 0.630904
vt 0.213445 0.630840
vt 0.223141 0.680889
vt 0.232836 0.730938
vt 0.240627 0.780955
vt 0.240627 0.830936
vt 0.232836 0.873792
vt 0.223141 0.901962
vt 0.198074 0.870647
vt 0.198074 0.731252
vt 0.199734 0.681357
vt 0.201672 0.631096
vt 0.205654 0.580870
vt 0.213445 0.580791
vt 0.223141 0.630840
vt 0.232836 0.680889
vt 0.240627 0.730955
vt 0.244609 0.830634
vt 0.244609 0.780858
vt 0.240627 0.873626
vt 0.232836 0.901962
vt 0.198074 0.681798
vt 0.199734 0.631463
vt 0.201672 0.581109
vt 0.205654 0.530852
vt 0.213445 0.530742
vt 0.223141 0.580791
vt 0.232836 0.630840
vt 0.240627 0.680937
vt 0.244609 0.731005
vt 0.244609 0.873128
vt 0.246547 0.830057
vt 0.246547 0.780673
vt 0.240627 0.901755
vt 0.198074 0.632051
vt 0.199734 0.581565
vt 0.201672 0.531181
vt 0.205654 0.486325
vt 0.213445 0.486179
vt 0.223141 0.530742
vt 0.232836 0.580791
vt 0.240627 0.630904
vt 0.244609 0.681081
vt 0.246547 0.731100
vt 0.244609 0.901135
vt 0.246547 0.872175
vt 0.248207 0.829131
vt 0.248207 0.780376
vt 0.198074 0.582296
vt 0.199734 0.531810
vt 0.201672 0.486762
vt 0.205654 0.452768
vt 0.213445 0.452590
vt 0.223141 0.486179
vt 0.232836 0.530742
vt 0.240627 0.580870
vt 0.244609 0.631096
vt 0.246547 0.681357
vt 0.248207 0.731252
vt 0.248207 0.870647
vt 0.198074 0.532820
vt 0.199734 0.487598
vt 0.201672 0.453303
vt 0.205654 0.428106
vt 0.213445 0.427900
vt 0.223141 0.452590
vt 0.232836 0.486179
vt 0.240627 0.530852
vt 0.244609 0.581109
vt 0.246547 0.631463
vt 0.248207 0.681798
vt 0.198074 0.488938
vt 0.199734 0.454324
vt 0.201672 0.428725
vt 0.223141 0.427900
vt 0.232836 0.452590
vt 0.240627 0.486325
vt 0.244609 0.531181
vt 0.246547 0.581565
vt 0.248207 0.632051
vt 0.232836 0.427900
vt 0.240627 0.452768
vt 0.244609 0.486762
vt 0.246547 0.531810
vt 0.248207 0.582296
vt 0.240627 0.428106
vt 0.244609 0.453303
vt 0.246547 0.487598
vt 0.248207 0.532820
vt 0.244609 0.428725
vt 0.246547 0.454324
vt 0.248207 0.488938
vt 0.051986 0.220609
vt 0.052793 0.219988
vt 0.068075 0.235270
vt 0.067418 0.236029
vt 0.053839 0.219182
vt 0.068927 0.234285
vt 0.085713 0.246464
vt 0.085252 0.247344
vt 0.042279 0.199652
vt 0.043440 0.199045
vt 0.055061 0.218242
vt 0.069921 0.233135
vt 0.086311 0.245324
vt 0.103293 0.254540
vt 0.103055 0.255519
vt 0.067009 0.236503
vt 0.084964 0.247892
vt 0.034500 0.176723
vt 0.035720 0.176283
vt 0.044795 0.198336
vt 0.087010 0.243991
vt 0.103601 0.253271
vt 0.120844 0.257798
vt 0.120844 0.258821
vt 0.102907 0.256129
vt 0.027424 0.153665
vt 0.028672 0.153311
vt 0.037144 0.175770
vt 0.103961 0.251789
vt 0.120844 0.256472
vt 0.138394 0.254540
vt 0.138632 0.255519
vt 0.120844 0.259459
vt 0.021241 0.130610
vt 0.022510 0.130345
vt 0.030129 0.152899
vt 0.120844 0.254923
vt 0.138086 0.253271
vt 0.155974 0.246464
vt 0.156436 0.247344
vt 0.138780 0.256129
vt 0.016145 0.107692
vt 0.017450 0.107600
vt 0.023992 0.130035
vt 0.137726 0.251789
vt 0.155376 0.245324
vt 0.173612 0.235270
vt 0.174269 0.236029
vt 0.156723 0.247892
vt 0.014988 0.084927
vt 0.016282 0.085105
vt 0.018973 0.107493
vt 0.154677 0.243991
vt 0.172760 0.234285
vt 0.188895 0.219988
vt 0.189702 0.220609
vt 0.174678 0.236503
vt 0.020624 0.062332
vt 0.021798 0.062888
vt 0.017792 0.085314
vt 0.171766 0.233135
vt 0.187848 0.219182
vt 0.033049 0.043092
vt 0.034001 0.044011
vt 0.023170 0.063538
vt 0.186626 0.218242
vt 0.198248 0.199045
vt 0.199408 0.199652
vt 0.052261 0.030393
vt 0.052892 0.031535
vt 0.035112 0.045084
vt 0.196892 0.198336
vt 0.205967 0.176283
vt 0.207187 0.176723
vt 0.032315 0.042384
vt 0.051775 0.029512
vt 0.074963 0.023321
vt 0.075283 0.024579
vt 0.053628 0.032869
vt 0.204543 0.175770
vt 0.213015 0.153311
vt 0.214263 0.153665
vt 0.031858 0.041942
vt 0.051472 0.028963
vt 0.074716 0.022351
vt 0.097855 0.020964
vt 0.097985 0.022261
vt 0.075656 0.026049
vt 0.211558 0.152899
vt 0.219177 0.130345
vt 0.220446 0.130610
vt 0.074562 0.021746
vt 0.097755 0.019963
vt 0.120844 0.020964
vt 0.120844 0.022261
vt 0.098137 0.023775
vt 0.217696 0.130035
vt 0.224238 0.107600
vt 0.225542 0.107692
vt 0.097693 0.019340
vt 0.120844 0.019963
vt 0.143832 0.020964
vt 0.143702 0.022261
vt 0.120844 0.023775
vt 0.222715 0.107493
vt 0.225406 0.085105
vt 0.226699 0.084927
vt 0.120844 0.019340
vt 0.143932 0.019963
vt 0.166725 0.023321
vt 0.166405 0.024579
vt 0.143550 0.023775
vt 0.223895 0.085314
vt 0.219889 0.062888
vt 0.221064 0.062332
vt 0.143994 0.019340
vt 0.166971 0.022351
vt 0.189426 0.030393
vt 0.188796 0.031535
vt 0.166031 0.026049
vt 0.218518 0.063538
vt 0.207686 0.044011
vt 0.208638 0.043092
vt 0.167125 0.021746
vt 0.189912 0.029512
vt 0.188059 0.032869
vt 0.206575 0.045084
vt 0.190215 0.028963
vt 0.209372 0.042384
vt 0.209830 0.041942
vt 0.369274 0.034807
vt 0.369972 0.033475
vt 0.387357 0.044514
vt 0.386362 0.045664
vt 0.352323 0.027010
vt 0.352683 0.025528
vt 0.370571 0.032334
vt 0.388209 0.043529
vt 0.402444 0.059616
vt 0.401222 0.060557
vt 0.335440 0.023876
vt 0.335440 0.022327
vt 0.352991 0.024258
vt 0.371032 0.031454
vt 0.388865 0.042769
vt 0.403491 0.058811
vt 0.412844 0.079754
vt 0.411488 0.080463
vt 0.318557 0.027010
vt 0.318197 0.025528
vt 0.335440 0.021000
vt 0.353228 0.023280
vt 0.371319 0.030906
vt 0.389274 0.042296
vt 0.404298 0.058189
vt 0.414005 0.079147
vt 0.420563 0.102515
vt 0.419139 0.103028
vt 0.301606 0.034807
vt 0.300908 0.033475
vt 0.317889 0.024258
vt 0.335440 0.019978
vt 0.353377 0.022670
vt 0.421783 0.102076
vt 0.427612 0.125487
vt 0.426154 0.125900
vt 0.284518 0.045664
vt 0.283523 0.044514
vt 0.300309 0.032334
vt 0.317651 0.023280
vt 0.335440 0.019340
vt 0.428860 0.125134
vt 0.433773 0.148454
vt 0.432292 0.148764
vt 0.269658 0.060557
vt 0.268435 0.059616
vt 0.282671 0.043529
vt 0.299848 0.031454
vt 0.317503 0.022670
vt 0.435042 0.148188
vt 0.438834 0.171198
vt 0.437311 0.171306
vt 0.259392 0.080463
vt 0.258036 0.079754
vt 0.267389 0.058811
vt 0.282015 0.042769
vt 0.299560 0.030906
vt 0.440138 0.171107
vt 0.440002 0.193693
vt 0.438491 0.193485
vt 0.251741 0.103028
vt 0.250316 0.102515
vt 0.256875 0.079147
vt 0.266582 0.058189
vt 0.281605 0.042296
vt 0.441295 0.193872
vt 0.434485 0.215910
vt 0.433114 0.215261
vt 0.244726 0.125900
vt 0.243268 0.125487
vt 0.249097 0.102076
vt 0.435660 0.216467
vt 0.422283 0.234788
vt 0.421171 0.233715
vt 0.238588 0.148764
vt 0.237106 0.148454
vt 0.242020 0.125134
vt 0.423235 0.235706
vt 0.403392 0.247263
vt 0.402656 0.245929
vt 0.233569 0.171306
vt 0.232046 0.171198
vt 0.235838 0.148188
vt 0.404022 0.248406
vt 0.381001 0.254219
vt 0.380627 0.252750
vt 0.232388 0.193485
vt 0.230878 0.193693
vt 0.230741 0.171107
vt 0.381321 0.255478
vt 0.404509 0.249287
vt 0.423969 0.236415
vt 0.358298 0.256538
vt 0.358147 0.255023
vt 0.237766 0.215261
vt 0.236394 0.215910
vt 0.229584 0.193872
vt 0.358428 0.257835
vt 0.381568 0.256448
vt 0.404811 0.249836
vt 0.424426 0.236856
vt 0.335440 0.256538
vt 0.335440 0.255023
vt 0.249709 0.233715
vt 0.248597 0.234788
vt 0.235220 0.216467
vt 0.335440 0.257835
vt 0.358528 0.258835
vt 0.381721 0.257053
vt 0.312582 0.256538
vt 0.312733 0.255023
vt 0.268224 0.245929
vt 0.267488 0.247263
vt 0.247645 0.235706
vt 0.312452 0.257835
vt 0.335440 0.258835
vt 0.358591 0.259459
vt 0.289879 0.254219
vt 0.290252 0.252750
vt 0.266858 0.248406
vt 0.289559 0.255478
vt 0.312352 0.258835
vt 0.335440 0.259459
vt 0.246911 0.236415
vt 0.266371 0.249287
vt 0.289312 0.256448
vt 0.312289 0.259459
vt 0.246454 0.236856
vt 0.266068 0.249836
vt 0.289159 0.257053
vt 0.136190 0.478180
vt 0.132209 0.478007
vt 0.132209 0.428014
vt 0.136190 0.428356
vt 0.136190 0.528092
vt 0.132209 0.528022
vt 0.124418 0.477949
vt 0.124418 0.427900
vt 0.136190 0.578047
vt 0.132209 0.578047
vt 0.124418 0.527998
vt 0.114722 0.477949
vt 0.114722 0.427900
vt 0.136190 0.628002
vt 0.132209 0.628073
vt 0.124418 0.578047
vt 0.114722 0.527998
vt 0.105027 0.477949
vt 0.105027 0.427900
vt 0.136190 0.677914
vt 0.132209 0.678087
vt 0.124418 0.628096
vt 0.114722 0.578047
vt 0.105027 0.527998
vt 0.097236 0.478007
vt 0.097236 0.428014
vt 0.136190 0.727738
vt 0.132209 0.728080
vt 0.124418 0.678145
vt 0.114722 0.628096
vt 0.105027 0.578047
vt 0.097236 0.528022
vt 0.093254 0.478180
vt 0.093254 0.428356
vt 0.124418 0.728194
vt 0.114722 0.678145
vt 0.105027 0.628096
vt 0.097236 0.578047
vt 0.093254 0.528092
vt 0.114722 0.728194
vt 0.105027 0.678145
vt 0.097236 0.628073
vt 0.093254 0.578047
vt 0.105027 0.728194
vt 0.097236 0.678087
vt 0.093254 0.628002
vt 0.097236 0.728080
vt 0.093254 0.677914
vt 0.093254 0.727738
vt 0.048423 0.583500
vt 0.048423 0.544625
vt 0.056214 0.544681
vt 0.056214 0.583608
vt 0.044442 0.583175
vt 0.044442 0.544458
vt 0.048423 0.505754
vt 0.056214 0.505754
vt 0.065910 0.544681
vt 0.065910 0.583608
vt 0.044442 0.505754
vt 0.048423 0.466883
vt 0.056214 0.466827
vt 0.065910 0.505754
vt 0.075605 0.544681
vt 0.075605 0.583608
vt 0.044442 0.467050
vt 0.048423 0.428008
vt 0.056214 0.427900
vt 0.065910 0.466827
vt 0.075605 0.505754
vt 0.083396 0.544625
vt 0.083396 0.583500
vt 0.044442 0.428333
vt 0.065910 0.427900
vt 0.075605 0.466827
vt 0.083396 0.505754
vt 0.087378 0.583175
vt 0.087378 0.544458
vt 0.075605 0.427900
vt 0.083396 0.466883
vt 0.087378 0.505754
vt 0.083396 0.428008
vt 0.087378 0.467050
vt 0.087378 0.428333
vn 0.000000 1.000000 -0.000000
vn 0.000000 1.000000 0.000000
vn 0.000000 1.000000 0.000000
vn 0.000000 1.000000 -0.000000
vn 0.000000 1.000000 0.000000
vn 0.000000 1.000000 0.000000
vn 0.000000 1.000000 -0.000000
vn 0.000000 1.000000 0.000000
vn 0.000000 1.000000 0.000000
vn 0.000000 1.000000 -0.000000
vn 0.000000 1.000000 -0.000000
vn 0.000000 1.000000 -0.000000
vn 0.000000 1.000000 0.000000
vn 0.000000 1.000000 0.000000
vn 0.000000 1.000000 0.000000
vn 0.000000 1.000000 -0.000000
vn 0.000000 1.000000 0.000000
vn 0.000000 1.000000 -0.000000
vn 0.000000 1.000000 0.000000
vn 0.000000 1.000000 0.000000
vn 0.000000 1.000000 0.000000
vn 0.000000 1.000000 0.000000
vn 0.000000 1.000000 -0.000000
vn 0.000000 1.000000 0.000000
vn 0.000000 1.000000 0.000000
vn -0.000000 -1.000000 -0.000000
vn 0.000000 -1.000000 0.000000
vn 0.000000 -1.000000 -0.000000
vn 0.000000 -1.000000 0.000000
vn -0.000000 -1.000000 -0.000000
vn -0.000000 -1.000000 0.000000
vn 0.000000 -1.000000 0.000000
vn -0.000000 -1.000000 -0.000000
vn -0.000000 -1.000000 0.000000
vn -0.000000 -1.000000 0.000000
vn -0.000000 -1.000000 -0.000000
vn 0.000000 -1.000000 -0.000000
vn -0.000000 -1.000000 0.000000
vn 0.000000 -1.000000 0.000000
vn 0.000000 -1.000000 -0.000000
vn 0.000000 -1.000000 -0.000000
vn 0.000000 -1.000000 0.000000
vn -0.000000 -1.000000 0.000000
vn -0.000000 -1.000000 0.000000
vn -0.000000 -1.000000 -0.000000
vn -0.000000 -1.000000 0.000000
vn -0.000000 -1.000000 -0.000000
vn -0.000000 -1.000000 0.000000
vn 0.000000 -1.000000 0.000000
vn 0.000000 -1.000000 -0.000000
vn -0.806682 -0.080142 0.585526
vn -0.765505 -0.324592 0.555556
vn -0.592843 -0.322951 0.737726
vn -0.624294 -0.079302 0.777154
vn -0.581369 -0.695890 0.421600
vn -0.451439 -0.693459 0.561531
vn -0.346718 -0.691244 0.634010
vn -0.454214 -0.321442 0.830882
vn -0.478150 -0.078562 0.874758
vn -0.414840 -0.858885 0.300374
vn -0.322508 -0.857369 0.401131
vn -0.265575 -0.944795 0.191918
vn -0.206232 -0.944295 0.256468
vn -0.158706 -0.943845 0.289775
vn -0.248177 -0.855995 0.453520
vn -0.090351 -0.993746 0.065623
vn -0.052843 -0.996207 0.069136
vn -0.019279 -0.999721 0.013637
vn -0.008922 -0.999902 0.010777
vn -0.005125 -0.999937 0.010014
vn -0.033685 -0.997398 0.063740
vn 0.005125 0.999937 0.010014
vn 0.033685 0.997398 0.063740
vn 0.052844 0.996207 0.069136
vn 0.008922 0.999902 0.010777
vn 0.158706 0.943845 0.289776
vn 0.206232 0.944295 0.256467
vn 0.265574 0.944795 0.191918
vn 0.090351 0.993746 0.065623
vn 0.019279 0.999721 0.013637
vn 0.248177 0.855996 0.453519
vn 0.322508 0.857370 0.401131
vn 0.346718 0.691244 0.634010
vn 0.451439 0.693459 0.561531
vn 0.581369 0.695890 0.421600
vn 0.414839 0.858886 0.300373
vn 0.454214 0.321441 0.830882
vn 0.592843 0.322950 0.737726
vn 0.478150 0.078562 0.874758
vn 0.624294 0.079302 0.777154
vn 0.806682 0.080142 0.585526
vn 0.765506 0.324590 0.555556
vn 0.001696 -0.999957 -0.009154
vn 0.011895 -0.997998 -0.062119
vn 0.029709 -0.997236 -0.068096
vn 0.004741 -0.999940 -0.009879
vn 0.066297 -0.944048 -0.323075
vn 0.140537 -0.943749 -0.299313
vn 0.234395 -0.943912 -0.232569
vn 0.067760 -0.995414 -0.067527
vn 0.012290 -0.999850 -0.012178
vn 0.104391 -0.856712 -0.505121
vn 0.220056 -0.856522 -0.466847
vn 0.146793 -0.692409 -0.706414
vn 0.308494 -0.692198 -0.652452
vn 0.511936 -0.693757 -0.506579
vn 0.365503 -0.857490 -0.362103
vn 0.193149 -0.322203 -0.926757
vn 0.405136 -0.321722 -0.855781
vn 0.203537 -0.079009 -0.975874
vn 0.426548 -0.079250 -0.900986
vn 0.708805 -0.080035 -0.700849
vn 0.673049 -0.322468 -0.665597
vn -0.626129 -0.013459 0.779603
vn -0.809217 -0.013629 0.587352
vn -0.479585 -0.013310 0.877395
vn -0.479630 0.000000 0.877471
vn -0.626152 0.000000 0.779701
vn -0.809304 0.000000 0.587390
vn -0.305606 -0.079255 0.948854
vn -0.306660 -0.013464 0.951724
vn -0.000000 -0.080358 0.996766
vn 0.000000 -0.013689 0.999906
vn 0.000000 0.000000 1.000000
vn -0.306753 -0.000000 0.951789
vn 0.305606 -0.079255 0.948854
vn 0.306660 -0.013464 0.951724
vn 0.478150 -0.078562 0.874758
vn 0.479585 -0.013311 0.877395
vn 0.479630 0.000000 0.877471
vn 0.306753 0.000000 0.951789
vn 0.624294 -0.079302 0.777154
vn 0.626129 -0.013460 0.779603
vn 0.806682 -0.080142 0.585526
vn 0.809217 -0.013631 0.587352
vn 0.809304 0.000000 0.587390
vn 0.626152 0.000000 0.779701
vn -0.626129 0.013460 0.779603
vn -0.809217 0.013631 0.587352
vn -0.479585 0.013311 0.877395
vn -0.478150 0.078562 0.874758
vn -0.624294 0.079302 0.777154
vn -0.806682 0.080142 0.585526
vn -0.306660 0.013464 0.951724
vn -0.000000 0.013690 0.999906
vn -0.000000 0.080358 0.996766
vn -0.305606 0.079255 0.948854
vn 0.306660 0.013464 0.951724
vn 0.479585 0.013311 0.877395
vn 0.305605 0.079255 0.948854
vn 0.626129 0.013459 0.779603
vn 0.809217 0.013631 0.587352
vn -0.019279 0.999721 0.013637
vn -0.008922 0.999902 0.010777
vn -0.002794 0.999994 0.002061
vn -0.014439 0.999876 0.006287
vn -0.005125 0.999937 0.010014
vn -0.000679 0.999999 0.001487
vn -0.001953 0.999998 0.000539
vn -0.013415 0.999902 0.004059
vn -0.002660 0.999956 0.009011
vn -0.000309 0.999999 0.001302
vn 0.000000 0.999961 0.008789
vn -0.000000 0.999999 0.001233
vn 0.002660 0.999956 0.009011
vn 0.000309 0.999999 0.001302
vn 0.000679 0.999999 0.001487
vn 0.002794 0.999994 0.002061
vn 0.014439 0.999876 0.006287
vn 0.013415 0.999902 0.004059
vn 0.001953 0.999998 0.000539
vn -0.001755 0.999998 0.000415
vn -0.012050 0.999922 0.003214
vn -0.001612 0.999999 0.000322
vn -0.011068 0.999936 0.002522
vn 0.001755 0.999998 0.000415
vn 0.012050 0.999922 0.003214
vn 0.011068 0.999936 0.002522
vn 0.001612 0.999999 0.000322
vn -0.001560 0.999999 0.000182
vn -0.010740 0.999941 0.001413
vn -0.001575 0.999999 -0.000136
vn -0.010946 0.999940 -0.001014
vn 0.001560 0.999999 0.000182
vn 0.010740 0.999941 0.001413
vn 0.010946 0.999940 -0.001014
vn 0.001575 0.999999 -0.000136
vn -0.001802 0.999997 -0.001754
vn -0.010891 0.999929 -0.004936
vn -0.000195 0.999999 -0.001343
vn -0.001696 0.999957 -0.009154
vn -0.004741 0.999940 -0.009879
vn -0.012290 0.999850 -0.012179
vn -0.000043 0.999999 -0.001242
vn 0.000000 0.999999 -0.001207
vn 0.000000 0.999968 -0.008051
vn -0.000373 0.999965 -0.008374
vn 0.000043 0.999999 -0.001242
vn 0.000195 0.999999 -0.001343
vn 0.001696 0.999957 -0.009154
vn 0.000373 0.999965 -0.008374
vn 0.001802 0.999997 -0.001754
vn 0.010891 0.999929 -0.004936
vn 0.012290 0.999850 -0.012178
vn 0.004741 0.999940 -0.009879
vn -0.708805 0.080035 -0.700849
vn -0.426548 0.079250 -0.900986
vn -0.427786 0.013472 -0.903780
vn -0.711021 0.013648 -0.703038
vn -0.203537 0.079009 -0.975874
vn -0.204165 0.013403 -0.978845
vn -0.204165 0.000000 -0.978936
vn -0.427771 0.000000 -0.903887
vn -0.711080 0.000000 -0.703111
vn -0.051920 0.079238 -0.995503
vn -0.052076 0.013413 -0.998553
vn 0.000000 0.079449 -0.996839
vn 0.000000 0.013418 -0.999910
vn 0.000000 0.000000 -1.000000
vn -0.052069 0.000000 -0.998644
vn 0.051920 0.079238 -0.995503
vn 0.052076 0.013413 -0.998553
vn 0.203537 0.079009 -0.975874
vn 0.204165 0.013403 -0.978845
vn 0.204165 0.000000 -0.978936
vn 0.052069 0.000000 -0.998644
vn 0.426548 0.079250 -0.900986
vn 0.427785 0.013472 -0.903780
vn 0.708805 0.080035 -0.700849
vn 0.711021 0.013648 -0.703038
vn 0.711080 0.000000 -0.703111
vn 0.427771 0.000000 -0.903887
vn -0.427785 -0.013472 -0.903780
vn -0.711021 -0.013648 -0.703038
vn -0.204165 -0.013403 -0.978845
vn -0.203537 -0.079008 -0.975874
vn -0.426548 -0.079249 -0.900986
vn -0.708805 -0.080035 -0.700849
vn -0.052077 -0.013413 -0.998553
vn -0.000000 -0.013418 -0.999910
vn -0.000000 -0.079449 -0.996839
vn -0.051920 -0.079238 -0.995503
vn 0.052076 -0.013413 -0.998553
vn 0.204165 -0.013403 -0.978845
vn 0.051920 -0.079238 -0.995503
vn 0.427786 -0.013472 -0.903780
vn 0.711021 -0.013648 -0.703038
vn -0.012290 -0.999850 -0.012178
vn -0.004741 -0.999940 -0.009879
vn -0.001802 -0.999997 -0.001754
vn -0.010891 -0.999929 -0.004936
vn -0.001696 -0.999957 -0.009154
vn -0.000195 -0.999999 -0.001343
vn -0.001575 -0.999999 -0.000136
vn -0.010946 -0.999940 -0.001014
vn -0.000373 -0.999965 -0.008374
vn -0.000043 -0.999999 -0.001242
vn 0.000000 -0.999968 -0.008051
vn -0.000000 -0.999999 -0.001207
vn 0.000373 -0.999965 -0.008374
vn 0.000043 -0.999999 -0.001242
vn 0.000195 -0.999999 -0.001343
vn 0.001802 -0.999997 -0.001754
vn 0.010891 -0.999929 -0.004936
vn 0.010946 -0.999940 -0.001014
vn 0.001575 -0.999999 -0.000136
vn -0.001560 -0.999999 0.000182
vn -0.010740 -0.999941 0.001413
vn -0.001612 -0.999999 0.000322
vn -0.011068 -0.999936 0.002522
vn 0.001560 -0.999999 0.000182
vn 0.010740 -0.999941 0.001413
vn 0.011068 -0.999936 0.002522
vn 0.001612 -0.999999 0.000322
vn -0.001755 -0.999998 0.000415
vn -0.012050 -0.999922 0.003214
vn -0.001953 -0.999998 0.000539
vn -0.013414 -0.999902 0.004059
vn 0.001755 -0.999998 0.000415
vn 0.012050 -0.999922 0.003214
vn 0.013414 -0.999902 0.004059
vn 0.001953 -0.999998 0.000539
vn -0.002794 -0.999994 0.002061
vn -0.014439 -0.999876 0.006287
vn -0.000679 -0.999999 0.001487
vn -0.000309 -0.999999 0.001302
vn 0.000000 -0.999999 0.001233
vn 0.000000 -0.999961 0.008789
vn -0.002659 -0.999956 0.009011
vn 0.000309 -0.999999 0.001302
vn 0.000679 -0.999999 0.001487
vn 0.005125 -0.999937 0.010014
vn 0.002660 -0.999956 0.009011
vn 0.002794 -0.999994 0.002061
vn 0.014439 -0.999876 0.006287
vn 0.019279 -0.999721 0.013637
vn 0.008922 -0.999902 0.010777
vn 0.991810 -0.079241 -0.100169
vn 0.914897 -0.079295 -0.395824
vn 0.917725 -0.013494 -0.396988
vn 0.994847 -0.013474 -0.100491
vn 0.917823 0.000000 -0.396989
vn 0.994940 0.000000 -0.100477
vn 0.968206 -0.079253 0.237268
vn 0.987819 -0.079210 0.133935
vn 0.990840 -0.013430 0.134373
vn 0.971174 -0.013397 0.237994
vn 0.990925 0.000000 0.134417
vn 0.971261 0.000000 0.238019
vn 0.948536 -0.079301 0.306578
vn 0.958042 -0.079311 0.275437
vn 0.960983 -0.013402 0.276283
vn 0.951447 -0.013399 0.307520
vn 0.961069 0.000000 0.276308
vn 0.951534 0.000000 0.307545
vn 0.917883 -0.079497 0.388808
vn 0.920740 -0.013472 0.389943
vn 0.920842 0.000000 0.389937
vn 0.917725 0.013494 -0.396988
vn 0.994847 0.013474 -0.100491
vn 0.914897 0.079295 -0.395824
vn 0.991810 0.079241 -0.100169
vn 0.990840 0.013430 0.134373
vn 0.971174 0.013397 0.237994
vn 0.987819 0.079210 0.133935
vn 0.968206 0.079253 0.237268
vn 0.960983 0.013402 0.276282
vn 0.951447 0.013399 0.307520
vn 0.958042 0.079311 0.275437
vn 0.948536 0.079301 0.306578
vn 0.920740 0.013472 0.389943
vn 0.917883 0.079497 0.388808
vn -0.914897 -0.079295 -0.395824
vn -0.917725 -0.013494 -0.396988
vn -0.991810 -0.079242 -0.100169
vn -0.994847 -0.013475 -0.100491
vn -0.994940 0.000000 -0.100477
vn -0.917823 0.000000 -0.396989
vn -0.987819 -0.079210 0.133935
vn -0.990840 -0.013430 0.134373
vn -0.968206 -0.079252 0.237268
vn -0.971174 -0.013396 0.237994
vn -0.971261 0.000000 0.238019
vn -0.990925 0.000000 0.134417
vn -0.958042 -0.079311 0.275437
vn -0.960983 -0.013402 0.276283
vn -0.948536 -0.079301 0.306578
vn -0.951447 -0.013400 0.307520
vn -0.951534 0.000000 0.307545
vn -0.961069 0.000000 0.276308
vn -0.917883 -0.079497 0.388808
vn -0.920740 -0.013471 0.389943
vn -0.920842 0.000000 0.389937
vn -0.917725 0.013494 -0.396988
vn -0.994847 0.013475 -0.100491
vn -0.991810 0.079242 -0.100169
vn -0.914897 0.079295 -0.395824
vn -0.990840 0.013430 0.134373
vn -0.971174 0.013396 0.237994
vn -0.968206 0.079252 0.237268
vn -0.987819 0.079210 0.133935
vn -0.960983 0.013402 0.276282
vn -0.951447 0.013400 0.307520
vn -0.948536 0.079301 0.306578
vn -0.958042 0.079311 0.275437
vn -0.920740 0.013472 0.389943
vn -0.917883 0.079497 0.388808
vn -0.870892 -0.324702 0.368939
vn -0.661822 -0.695333 0.280184
vn -0.899580 -0.325923 0.290741
vn -0.682967 -0.696314 0.220688
vn -0.087064 -0.995589 0.034966
vn -0.301369 -0.945006 0.127043
vn -0.309549 -0.945617 0.099940
vn -0.078802 -0.996578 0.024943
vn -0.472233 -0.858591 0.199541
vn -0.486718 -0.859296 0.157215
vn -0.019032 -0.997933 0.061381
vn -0.101727 -0.943955 0.314006
vn -0.000000 -0.998060 0.062259
vn -0.000000 -0.944634 0.328127
vn -0.290112 -0.322202 0.901122
vn -0.221144 -0.692687 0.686499
vn 0.000000 -0.695914 0.718125
vn 0.000000 -0.324359 0.945934
vn -0.158452 -0.856841 0.490628
vn 0.000000 -0.858867 0.512199
vn 0.019032 -0.997933 0.061381
vn 0.101727 -0.943955 0.314006
vn 0.033685 -0.997398 0.063740
vn 0.158706 -0.943845 0.289775
vn 0.290112 -0.322202 0.901122
vn 0.221144 -0.692687 0.686499
vn 0.346718 -0.691244 0.634010
vn 0.454214 -0.321440 0.830883
vn 0.158452 -0.856841 0.490628
vn 0.248177 -0.855995 0.453520
vn 0.052843 -0.996207 0.069136
vn 0.206232 -0.944295 0.256468
vn 0.090351 -0.993746 0.065623
vn 0.265575 -0.944795 0.191918
vn 0.592844 -0.322949 0.737727
vn 0.451439 -0.693460 0.561531
vn 0.581369 -0.695891 0.421600
vn 0.765506 -0.324589 0.555556
vn 0.322508 -0.857370 0.401131
vn 0.414840 -0.858885 0.300374
vn -0.090351 0.993746 0.065623
vn -0.052843 0.996207 0.069136
vn -0.265575 0.944795 0.191919
vn -0.206232 0.944295 0.256467
vn -0.158706 0.943845 0.289775
vn -0.033685 0.997398 0.063740
vn -0.414839 0.858886 0.300373
vn -0.322508 0.857370 0.401131
vn -0.581369 0.695891 0.421599
vn -0.451439 0.693460 0.561531
vn -0.346718 0.691244 0.634010
vn -0.248177 0.855995 0.453520
vn -0.765506 0.324589 0.555557
vn -0.592843 0.322951 0.737726
vn -0.454214 0.321442 0.830882
vn -0.019032 0.997933 0.061381
vn -0.101727 0.943956 0.314006
vn 0.000000 0.944634 0.328126
vn 0.000000 0.998060 0.062259
vn -0.158452 0.856841 0.490629
vn -0.221144 0.692687 0.686499
vn 0.000000 0.695914 0.718125
vn 0.000000 0.858866 0.512200
vn -0.290112 0.322202 0.901122
vn 0.000000 0.324357 0.945935
vn 0.019032 0.997933 0.061382
vn 0.101727 0.943955 0.314006
vn 0.158452 0.856841 0.490628
vn 0.221144 0.692686 0.686499
vn 0.290112 0.322201 0.901122
vn 0.870893 0.324700 0.368939
vn 0.661822 0.695333 0.280184
vn 0.899580 0.325923 0.290741
vn 0.682967 0.696314 0.220688
vn 0.087064 0.995589 0.034966
vn 0.301369 0.945006 0.127043
vn 0.309549 0.945617 0.099940
vn 0.078802 0.996578 0.024943
vn 0.472232 0.858592 0.199541
vn 0.486718 0.859296 0.157215
vn -0.511935 0.693758 -0.506579
vn -0.673049 0.322469 -0.665596
vn -0.869158 0.321174 -0.376047
vn -0.662867 0.691720 -0.286586
vn -0.942132 0.321511 -0.094961
vn -0.718328 0.691985 -0.071842
vn -0.067760 0.995414 -0.067528
vn -0.073648 0.996846 -0.029572
vn -0.234395 0.943912 -0.232569
vn -0.304386 0.943495 -0.131023
vn -0.329331 0.943678 -0.031845
vn -0.071748 0.997402 -0.006404
vn -0.365502 0.857491 -0.362102
vn -0.474364 0.856201 -0.204691
vn -0.513829 0.856396 -0.050646
vn -0.405136 0.321721 -0.855781
vn -0.308494 0.692198 -0.652452
vn -0.146794 0.692409 -0.706414
vn -0.193149 0.322203 -0.926757
vn -0.220055 0.856522 -0.466846
vn -0.140536 0.943749 -0.299313
vn -0.066297 0.944049 -0.323075
vn -0.104390 0.856713 -0.505120
vn -0.029709 0.997236 -0.068096
vn -0.011895 0.997998 -0.062119
vn -0.049207 0.324535 -0.944593
vn -0.037212 0.694913 -0.718130
vn -0.000000 0.697399 -0.716683
vn -0.000000 0.326893 -0.945061
vn -0.026281 0.858370 -0.512357
vn -0.016534 0.945036 -0.326548
vn 0.000000 0.945994 -0.324185
vn -0.000000 0.859995 -0.510302
vn -0.002713 0.998334 -0.057639
vn -0.000000 0.998474 -0.055223
vn 0.049207 0.324535 -0.944593
vn 0.037212 0.694913 -0.718130
vn 0.146794 0.692409 -0.706415
vn 0.193149 0.322203 -0.926757
vn 0.026281 0.858370 -0.512357
vn 0.016534 0.945036 -0.326548
vn 0.066297 0.944048 -0.323075
vn 0.104390 0.856712 -0.505120
vn 0.002713 0.998334 -0.057639
vn 0.011895 0.997998 -0.062119
vn 0.405136 0.321721 -0.855781
vn 0.308494 0.692197 -0.652453
vn 0.511936 0.693757 -0.506579
vn 0.673050 0.322467 -0.665597
vn 0.220056 0.856522 -0.466846
vn 0.140536 0.943749 -0.299312
vn 0.234395 0.943912 -0.232570
vn 0.365502 0.857491 -0.362101
vn 0.029709 0.997236 -0.068096
vn 0.067760 0.995414 -0.067528
vn -0.067760 -0.995414 -0.067527
vn -0.029709 -0.997236 -0.068096
vn -0.234395 -0.943912 -0.232569
vn -0.140536 -0.943749 -0.299312
vn -0.066297 -0.944048 -0.323075
vn -0.011895 -0.997998 -0.062119
vn -0.365502 -0.857491 -0.362101
vn -0.220056 -0.856522 -0.466846
vn -0.511936 -0.693758 -0.506579
vn -0.308493 -0.692198 -0.652452
vn -0.146793 -0.692410 -0.706414
vn -0.104390 -0.856713 -0.505120
vn -0.673050 -0.322467 -0.665597
vn -0.405136 -0.321720 -0.855781
vn -0.193149 -0.322201 -0.926758
vn -0.002713 -0.998334 -0.057639
vn -0.016534 -0.945036 -0.326548
vn 0.000000 -0.945994 -0.324185
vn 0.000000 -0.998474 -0.055223
vn -0.026281 -0.858370 -0.512357
vn -0.037212 -0.694913 -0.718130
vn 0.000000 -0.697399 -0.716683
vn 0.000000 -0.859995 -0.510303
vn -0.049207 -0.324535 -0.944593
vn 0.000000 -0.326893 -0.945062
vn 0.002713 -0.998334 -0.057639
vn 0.016534 -0.945036 -0.326548
vn 0.026281 -0.858370 -0.512357
vn 0.037212 -0.694913 -0.718130
vn 0.049207 -0.324536 -0.944593
vn 0.869159 -0.321173 -0.376047
vn 0.662867 -0.691719 -0.286586
vn 0.942132 -0.321512 -0.094961
vn 0.718328 -0.691985 -0.071842
vn 0.073648 -0.996846 -0.029572
vn 0.304386 -0.943495 -0.131023
vn 0.329331 -0.943678 -0.031845
vn 0.071748 -0.997402 -0.006404
vn 0.474365 -0.856201 -0.204692
vn 0.513830 -0.856396 -0.050646
vn -0.870893 0.324699 0.368939
vn -0.661821 0.695334 0.280184
vn -0.682967 0.696314 0.220688
vn -0.899580 0.325923 0.290741
vn -0.472233 0.858591 0.199541
vn -0.301369 0.945006 0.127043
vn -0.309549 0.945617 0.099940
vn -0.486719 0.859295 0.157215
vn -0.087064 0.995589 0.034966
vn -0.078802 0.996578 0.024943
vn 0.908606 0.325877 0.261228
vn 0.689832 0.696272 0.198338
vn 0.918358 0.325515 0.225074
vn 0.697510 0.695869 0.171015
vn 0.073455 0.997084 0.020691
vn 0.312642 0.945607 0.089905
vn 0.316350 0.945456 0.077691
vn 0.069437 0.997446 0.016729
vn 0.491592 0.859277 0.141351
vn 0.497216 0.859007 0.121996
vn -0.908606 0.325877 0.261228
vn -0.689832 0.696272 0.198338
vn -0.697510 0.695869 0.171015
vn -0.918358 0.325515 0.225074
vn -0.491592 0.859277 0.141351
vn -0.312642 0.945607 0.089905
vn -0.316350 0.945456 0.077691
vn -0.497215 0.859008 0.121996
vn -0.073455 0.997084 0.020691
vn -0.069437 0.997446 0.016729
vn 0.937685 0.323365 0.127203
vn 0.713633 0.693753 0.097134
vn 0.942132 0.321512 -0.094961
vn 0.718329 0.691984 -0.071842
vn 0.069320 0.997550 0.009398
vn 0.325364 0.944518 0.044989
vn 0.329330 0.943678 -0.031844
vn 0.071748 0.997402 -0.006404
vn 0.509574 0.857587 0.069846
vn 0.513830 0.856396 -0.050646
vn -0.937686 0.323364 0.127203
vn -0.713633 0.693753 0.097134
vn -0.509573 0.857588 0.069846
vn -0.325363 0.944518 0.044989
vn -0.069320 0.997550 0.009398
vn 0.869159 0.321172 -0.376047
vn 0.662868 0.691718 -0.286586
vn 0.474364 0.856201 -0.204691
vn 0.304385 0.943495 -0.131023
vn 0.073648 0.996846 -0.029572
vn -0.869159 -0.321172 -0.376047
vn -0.662868 -0.691719 -0.286586
vn -0.718329 -0.691984 -0.071842
vn -0.942132 -0.321511 -0.094961
vn -0.474363 -0.856202 -0.204691
vn -0.304385 -0.943495 -0.131023
vn -0.329330 -0.943678 -0.031844
vn -0.513829 -0.856396 -0.050646
vn -0.073648 -0.996846 -0.029572
vn -0.071748 -0.997402 -0.006404
vn 0.937686 -0.323366 0.127203
vn 0.713633 -0.693753 0.097134
vn 0.918358 -0.325515 0.225074
vn 0.697510 -0.695869 0.171015
vn 0.069320 -0.997550 0.009398
vn 0.325364 -0.944518 0.044989
vn 0.316350 -0.945456 0.077691
vn 0.069437 -0.997446 0.016729
vn 0.509573 -0.857588 0.069846
vn 0.497215 -0.859008 0.121996
vn -0.937686 -0.323364 0.127203
vn -0.713633 -0.693753 0.097134
vn -0.697510 -0.695869 0.171016
vn -0.918358 -0.325515 0.225074
vn -0.509573 -0.857588 0.069846
vn -0.325364 -0.944518 0.044989
vn -0.316351 -0.945456 0.077691
vn -0.497215 -0.859008 0.121996
vn -0.069320 -0.997550 0.009398
vn -0.069437 -0.997446 0.016729
vn 0.908606 -0.325877 0.261228
vn 0.689832 -0.696272 0.198338
vn 0.899580 -0.325923 0.290741
vn 0.682967 -0.696314 0.220688
vn 0.073455 -0.997084 0.020691
vn 0.312643 -0.945607 0.089905
vn 0.309549 -0.945617 0.099940
vn 0.078802 -0.996578 0.024943
vn 0.491592 -0.859277 0.141351
vn 0.486718 -0.859296 0.157215
vn -0.908606 -0.325877 0.261228
vn -0.689832 -0.696272 0.198338
vn -0.491592 -0.859277 0.141351
vn -0.312643 -0.945607 0.089905
vn -0.073455 -0.997084 0.020691
vn 0.870893 -0.324700 0.368939
vn 0.661822 -0.695333 0.280184
vn 0.472233 -0.858591 0.199541
vn 0.301369 -0.945006 0.127043
vn 0.087064 -0.995589 0.034966
s 1
g Animus_Token
usemtl lambert3SG
f 6/1/1 323/2/2 483/3/3 326/4/4
f 323/2/2 7/7/5 324/8/6 483/3/3
f 483/3/3 324/8/6 10/19/7 325/9/8
f 326/4/4 483/3/3 325/9/8 9/10/9
f 7/7/5 327/17/10 484/18/11 324/8/6
f 327/17/10 8/31/12 328/32/13 484/18/11
f 484/18/11 328/32/13 11/49/14 329/33/15
f 324/8/6 484/18/11 329/33/15 10/19/7
f 9/10/9 325/9/8 485/20/16 332/21/17
f 325/9/8 10/19/7 330/34/18 485/20/16
f 485/20/16 330/34/18 13/51/19 331/35/20
f 332/21/17 485/20/16 331/35/20 12/36/21
f 10/19/7 329/33/15 486/50/22 330/34/18
f 329/33/15 11/49/14 333/64/23 486/50/22
f 486/50/22 333/64/23 14/79/24 334/65/25
f 330/34/18 486/50/22 334/65/25 13/51/19
f 20/114/26 335/115/27 487/116/28 338/117/29
f 335/115/27 21/120/30 336/121/31 487/116/28
f 487/116/28 336/121/31 24/132/32 337/122/33
f 338/117/29 487/116/28 337/122/33 23/123/34
f 21/120/30 339/130/35 488/131/36 336/121/31
f 339/130/35 22/144/37 340/145/38 488/131/36
f 488/131/36 340/145/38 25/162/39 341/146/40
f 336/121/31 488/131/36 341/146/40 24/132/32
f 23/123/34 337/122/33 489/133/41 344/134/42
f 337/122/33 24/132/32 342/147/43 489/133/41
f 489/133/41 342/147/43 27/164/44 343/148/45
f 344/134/42 489/133/41 343/148/45 26/149/46
f 24/132/32 341/146/40 490/163/47 342/147/43
f 341/146/40 25/162/39 345/177/48 490/163/47
f 490/163/47 345/177/48 28/192/49 346/178/50
f 342/147/43 490/163/47 346/178/50 27/164/44
f 38/416/51 347/429/52 491/441/53 350/430/54
f 347/429/52 37/440/55 348/451/56 491/441/53
f 491/486/53 348/474/56 40/478/57 349/487/58
f 350/430/54 491/441/53 349/452/58 39/442/59
f 37/471/55 351/472/60 492/473/61 348/474/56
f 351/472/60 36/475/62 352/476/63 492/473/61
f 492/473/61 352/476/63 41/483/64 353/477/65
f 348/474/56 492/473/61 353/477/65 40/478/57
f 36/475/62 354/481/66 493/482/67 352/476/63
f 354/218/66 35/210/68 355/197/69 493/209/67
f 493/209/67 355/197/69 42/181/70 356/195/71
f 352/476/63 493/482/67 356/491/71 41/483/64
f 70/59/72 357/72/73 494/87/74 360/73/75
f 357/601/73 69/602/76 358/603/77 494/604/74
f 494/604/74 358/603/77 72/609/78 359/610/79
f 360/73/75 494/87/74 359/99/79 71/88/80
f 69/602/76 361/607/81 495/608/82 358/603/77
f 361/607/81 68/614/83 362/615/84 495/608/82
f 495/608/82 362/615/84 73/625/85 363/616/86
f 358/603/77 495/608/82 363/616/86 72/609/78
f 68/614/83 364/623/87 496/624/88 362/615/84
f 364/348/87 67/345/89 365/340/90 496/344/88
f 496/344/88 365/340/90 74/334/91 366/339/92
f 362/347/84 496/344/88 366/339/92 73/343/85
f 110/172/93 367/185/94 497/200/95 370/186/96
f 367/590/94 109/581/97 368/589/98 497/596/95
f 497/596/95 368/589/98 112/592/99 369/597/100
f 370/186/96 497/200/95 369/212/100 111/201/101
f 109/581/97 371/580/102 498/588/103 368/589/98
f 371/580/102 108/587/104 372/595/105 498/588/103
f 498/588/103 372/595/105 113/599/106 373/593/107
f 368/589/98 498/588/103 373/593/107 112/592/99
f 108/587/104 374/594/108 499/598/109 372/595/105
f 374/731/108 107/732/110 375/733/111 499/734/109
f 499/251/109 375/244/111 114/233/112 376/239/113
f 372/595/105 499/598/109 376/600/113 113/599/106
f 38/416/51 350/430/54 500/431/114 379/417/115
f 350/430/54 39/442/59 377/443/116 500/431/114
f 500/431/114 377/443/116 2/453/117 378/444/118
f 379/417/115 500/431/114 378/444/118 1/432/119
f 39/780/59 380/781/120 501/782/121 377/783/116
f 380/781/120 43/786/122 381/787/123 501/782/121
f 501/782/121 381/787/123 3/793/124 382/788/125
f 377/783/116 501/782/121 382/788/125 2/789/117
f 43/786/122 383/791/126 502/792/127 381/787/123
f 383/791/126 47/797/128 384/798/129 502/792/127
f 502/792/127 384/798/129 4/804/130 385/799/131
f 381/787/123 502/792/127 385/799/131 3/793/124
f 47/326/128 386/315/132 503/316/133 384/327/129
f 386/315/132 51/303/134 387/304/135 503/316/133
f 503/316/133 387/304/135 5/314/136 388/325/137
f 384/327/129 503/316/133 388/325/137 4/336/130
f 1/432/119 378/444/118 504/454/138 391/445/139
f 378/444/118 2/453/117 389/459/140 504/454/138
f 504/454/138 389/459/140 59/464/141 390/460/142
f 391/445/139 504/454/138 390/460/142 55/455/143
f 2/789/117 382/788/125 505/794/144 389/795/140
f 382/788/125 3/793/124 392/800/145 505/794/144
f 505/794/144 392/800/145 63/806/146 393/801/147
f 389/795/140 505/794/144 393/801/147 59/802/141
f 3/793/124 385/799/131 506/805/148 392/800/145
f 385/799/131 4/804/130 394/809/149 506/805/148
f 506/805/148 394/809/149 67/812/89 395/810/150
f 392/800/145 506/805/148 395/810/150 63/806/146
f 4/336/130 388/325/137 507/335/151 394/341/149
f 388/325/137 5/314/136 396/324/152 507/335/151
f 507/335/151 396/324/152 74/334/91 365/340/90
f 394/341/149 507/335/151 365/340/90 67/345/89
f 58/44/153 397/28/154 508/16/155 400/30/156
f 397/28/154 62/13/157 398/5/158 508/16/155
f 508/16/155 398/5/158 6/1/1 399/11/159
f 400/30/156 508/16/155 399/11/159 115/23/160
f 62/13/157 401/14/161 509/6/162 398/5/158
f 401/14/161 66/27/163 402/15/164 509/6/162
f 509/6/162 402/15/164 7/7/5 323/2/2
f 398/5/158 509/6/162 323/2/2 6/1/1
f 66/27/163 403/43/165 510/29/166 402/15/164
f 403/43/165 70/59/72 404/45/167 510/29/166
f 510/29/166 404/45/167 8/31/12 327/17/10
f 402/15/164 510/29/166 327/17/10 7/7/5
f 70/59/72 360/73/75 511/60/168 404/45/167
f 360/73/75 71/88/80 405/74/169 511/60/168
f 511/60/168 405/74/169 119/61/170 406/47/171
f 404/45/167 511/60/168 406/47/171 8/31/12
f 115/23/160 399/11/159 512/12/172 408/24/173
f 399/11/159 6/1/1 326/4/4 512/12/172
f 512/12/172 326/4/4 9/10/9 407/22/174
f 408/24/173 512/12/172 407/22/174 123/38/175
f 8/31/12 406/47/171 513/48/176 328/32/13
f 406/47/171 119/61/170 409/62/177 513/48/176
f 513/48/176 409/62/177 127/77/178 410/63/179
f 328/32/13 513/48/176 410/63/179 11/49/14
f 123/38/175 407/22/174 514/37/180 412/55/181
f 407/22/174 9/10/9 332/21/17 514/37/180
f 514/37/180 332/21/17 12/36/21 411/54/182
f 412/55/181 514/37/180 411/54/182 131/70/183
f 11/49/14 410/63/179 515/78/184 333/64/23
f 410/63/179 127/77/178 413/91/185 515/78/184
f 515/78/184 413/91/185 135/101/186 414/92/187
f 333/64/23 515/78/184 414/92/187 14/79/24
f 131/70/183 411/54/182 516/69/188 417/85/189
f 411/54/182 12/36/21 415/53/190 516/69/188
f 516/69/188 415/53/190 79/68/191 416/84/192
f 417/85/189 516/69/188 416/84/192 75/97/193
f 12/36/21 331/35/20 517/52/194 415/53/190
f 331/35/20 13/51/19 418/66/195 517/52/194
f 517/52/194 418/66/195 83/81/196 419/67/197
f 415/53/190 517/52/194 419/67/197 79/68/191
f 13/51/19 334/65/25 518/80/198 418/66/195
f 334/65/25 14/79/24 420/93/199 518/80/198
f 518/80/198 420/93/199 87/103/200 421/94/201
f 418/66/195 518/80/198 421/94/201 83/81/196
f 14/79/24 414/92/187 519/102/202 420/93/199
f 414/92/187 135/101/186 422/107/203 519/102/202
f 519/102/202 422/107/203 91/111/204 423/108/205
f 420/93/199 519/102/202 423/108/205 87/103/200
f 78/398/206 424/412/207 520/399/208 427/385/209
f 424/777/207 82/775/210 425/771/211 520/774/208
f 520/774/208 425/771/211 16/766/212 426/770/213
f 427/385/209 520/399/208 426/386/213 15/370/214
f 82/775/210 428/772/215 521/767/216 425/771/211
f 428/772/215 86/768/217 429/761/218 521/767/216
f 521/767/216 429/761/218 17/753/219 430/760/220
f 425/771/211 521/767/216 430/760/220 16/766/212
f 86/768/217 431/762/221 522/754/222 429/761/218
f 431/762/221 90/755/223 432/748/224 522/754/222
f 522/754/222 432/748/224 18/742/225 433/747/226
f 429/761/218 522/754/222 433/747/226 17/753/219
f 90/755/223 434/756/227 523/749/228 432/748/224
f 434/281/227 94/270/229 435/258/230 523/269/228
f 523/269/228 435/258/230 19/245/231 436/257/232
f 432/748/224 523/749/228 436/743/232 18/742/225
f 15/370/214 426/386/213 524/371/233 439/360/234
f 426/770/213 16/766/212 437/759/235 524/765/233
f 524/765/233 437/759/235 99/751/236 438/758/237
f 439/360/234 524/371/233 438/372/237 95/359/238
f 16/766/212 430/760/220 525/752/239 437/759/235
f 430/760/220 17/753/219 440/746/240 525/752/239
f 525/752/239 440/746/240 103/740/241 441/745/242
f 437/759/235 525/752/239 441/745/242 99/751/236
f 17/753/219 433/747/226 526/741/243 440/746/240
f 433/747/226 18/742/225 442/737/244 526/741/243
f 526/741/243 442/737/244 107/732/110 443/736/245
f 440/746/240 526/741/243 443/736/245 103/740/241
f 18/742/225 436/743/232 527/738/246 442/737/244
f 436/257/232 19/245/231 444/234/247 527/243/246
f 527/243/246 444/234/247 114/233/112 375/244/111
f 442/737/244 527/738/246 375/733/111 107/732/110
f 98/157/248 445/141/249 528/129/250 448/143/251
f 445/141/249 102/126/252 446/118/253 528/129/250
f 528/129/250 446/118/253 20/114/26 447/124/254
f 448/143/251 528/129/250 447/124/254 139/136/255
f 102/126/252 449/127/256 529/119/257 446/118/253
f 449/127/256 106/140/258 450/128/259 529/119/257
f 529/119/257 450/128/259 21/120/30 335/115/27
f 446/118/253 529/119/257 335/115/27 20/114/26
f 106/140/258 451/156/260 530/142/261 450/128/259
f 451/156/260 110/172/93 452/158/262 530/142/261
f 530/142/261 452/158/262 22/144/37 339/130/35
f 450/128/259 530/142/261 339/130/35 21/120/30
f 110/172/93 370/186/96 531/173/263 452/158/262
f 370/186/96 111/201/101 453/187/264 531/173/263
f 531/173/263 453/187/264 143/174/265 454/160/266
f 452/158/262 531/173/263 454/160/266 22/144/37
f 139/136/255 447/124/254 532/125/267 456/137/268
f 447/124/254 20/114/26 338/117/29 532/125/267
f 532/125/267 338/117/29 23/123/34 455/135/269
f 456/137/268 532/125/267 455/135/269 147/151/270
f 22/144/37 454/160/266 533/161/271 340/145/38
f 454/160/266 143/174/265 457/175/272 533/161/271
f 533/161/271 457/175/272 151/190/273 458/176/274
f 340/145/38 533/161/271 458/176/274 25/162/39
f 147/151/270 455/135/269 534/150/275 460/168/276
f 455/135/269 23/123/34 344/134/42 534/150/275
f 534/150/275 344/134/42 26/149/46 459/167/277
f 460/168/276 534/150/275 459/167/277 155/183/278
f 25/162/39 458/176/274 535/191/279 345/177/48
f 458/176/274 151/190/273 461/204/280 535/191/279
f 535/191/279 461/204/280 159/214/281 462/205/282
f 345/177/48 535/191/279 462/205/282 28/192/49
f 155/183/278 459/167/277 536/182/283 464/198/284
f 459/167/277 26/149/46 463/166/285 536/182/283
f 536/182/283 463/166/285 42/181/70 355/197/69
f 464/198/284 536/182/283 355/197/69 35/210/68
f 26/149/46 343/148/45 537/165/286 463/166/285
f 343/148/45 27/164/44 465/179/287 537/165/286
f 537/165/286 465/179/287 46/194/288 466/180/289
f 463/166/285 537/165/286 466/180/289 42/181/70
f 27/164/44 346/178/50 538/193/290 465/179/287
f 346/178/50 28/192/49 467/206/291 538/193/290
f 538/193/290 467/206/291 50/216/292 468/207/293
f 465/179/287 538/193/290 468/207/293 46/194/288
f 28/192/49 462/205/282 539/215/294 467/206/291
f 462/205/282 159/214/281 469/220/295 539/215/294
f 539/215/294 469/220/295 54/224/296 470/221/297
f 467/206/291 539/215/294 470/221/297 50/216/292
f 146/227/298 471/228/299 540/229/300 473/230/301
f 471/228/299 114/233/112 444/234/247 540/229/300
f 540/229/300 444/234/247 19/245/231 472/235/302
f 473/230/301 540/229/300 472/235/302 29/236/303
f 154/249/304 474/237/305 541/238/306 476/250/307
f 474/237/305 146/227/298 473/230/301 541/238/306
f 541/238/306 473/230/301 29/236/303 475/248/308
f 476/250/307 541/238/306 475/248/308 30/262/309
f 162/276/310 477/263/311 542/264/312 479/277/313
f 477/263/311 154/249/304 476/250/307 542/264/312
f 542/264/312 476/250/307 30/262/309 478/275/314
f 479/277/313 542/264/312 478/275/314 31/288/315
f 51/303/134 480/289/316 543/290/317 387/304/135
f 480/289/316 162/276/310 479/277/313 543/290/317
f 543/290/317 479/277/313 31/288/315 481/302/318
f 387/304/135 543/290/317 481/302/318 5/314/136
f 29/236/303 472/235/302 544/246/319 163/247/320
f 472/235/302 19/245/231 435/258/230 544/246/319
f 544/246/319 435/258/230 94/270/229 482/259/321
f 163/247/320 544/246/319 482/259/321 138/260/322
f 30/262/309 475/248/308 545/261/323 165/274/324
f 475/248/308 29/236/303 163/247/320 545/261/323
f 545/261/323 163/247/320 138/260/322 164/273/325
f 165/274/324 545/261/323 164/273/325 130/286/326
f 31/288/315 478/275/314 546/287/327 167/301/328
f 478/275/314 30/262/309 165/274/324 546/287/327
f 546/287/327 165/274/324 130/286/326 166/300/329
f 167/301/328 546/287/327 166/300/329 122/312/330
f 5/314/136 481/302/318 547/313/331 396/324/152
f 481/302/318 31/288/315 167/301/328 547/313/331
f 547/313/331 167/301/328 122/312/330 168/323/332
f 396/324/152 547/313/331 168/323/332 74/334/91
f 95/359/238 169/349/333 548/352/334 439/360/234
f 169/349/333 142/350/335 170/351/336 548/352/334
f 548/352/334 170/351/336 32/357/337 171/358/338
f 439/360/234 548/352/334 171/358/338 15/370/214
f 142/350/335 172/355/339 549/356/340 170/351/336
f 172/355/339 150/365/341 173/366/342 549/356/340
f 549/356/340 173/366/342 33/381/343 174/367/344
f 170/351/336 549/356/340 174/367/344 32/357/337
f 150/365/341 175/379/345 550/380/346 173/366/342
f 175/379/345 158/391/347 176/392/348 550/380/346
f 550/380/346 176/392/348 34/405/349 177/393/350
f 173/366/342 550/380/346 177/393/350 33/381/343
f 158/391/347 178/403/351 551/404/352 176/392/348
f 178/403/351 38/416/51 379/417/115 551/404/352
f 551/404/352 379/417/115 1/432/119 179/418/353
f 176/392/348 551/404/352 179/418/353 34/405/349
f 15/370/214 171/358/338 552/369/354 427/385/209
f 171/358/338 32/357/337 180/368/355 552/369/354
f 552/369/354 180/368/355 134/383/356 181/384/357
f 427/385/209 552/369/354 181/384/357 78/398/206
f 32/357/337 174/367/344 553/382/358 180/368/355
f 174/367/344 33/381/343 182/394/359 553/382/358
f 553/382/358 182/394/359 126/407/360 183/395/361
f 180/368/355 553/382/358 183/395/361 134/383/356
f 33/381/343 177/393/350 554/406/362 182/394/359
f 177/393/350 34/405/349 184/419/363 554/406/362
f 554/406/362 184/419/363 118/434/364 185/420/365
f 182/394/359 554/406/362 185/420/365 126/407/360
f 34/405/349 179/418/353 555/433/366 184/419/363
f 179/418/353 1/432/119 391/445/139 555/433/366
f 555/433/366 391/445/139 55/455/143 186/446/367
f 184/419/363 555/433/366 186/446/367 118/434/364
f 37/440/55 347/429/52 556/415/368 188/428/369
f 347/429/52 38/416/51 178/403/351 556/415/368
f 556/415/368 178/403/351 158/391/347 187/402/370
f 188/428/369 556/415/368 187/402/370 157/414/371
f 35/210/68 354/218/66 557/211/372 464/198/284
f 354/481/66 36/475/62 189/480/373 557/490/372
f 557/490/372 189/480/373 156/489/374 190/498/375
f 464/198/284 557/211/372 190/199/375 155/183/278
f 36/475/62 351/472/60 558/479/376 189/480/373
f 351/450/60 37/440/55 188/428/369 558/439/376
f 558/439/376 188/428/369 157/414/371 191/427/377
f 189/480/373 558/479/376 191/488/377 156/489/374
f 41/483/64 356/491/71 559/499/378 193/492/379
f 356/195/71 42/181/70 466/180/289 559/196/378
f 559/196/378 466/180/289 46/194/288 192/208/380
f 193/492/379 559/499/378 192/507/380 45/500/381
f 39/780/59 349/784/58 560/785/382 380/781/120
f 349/487/58 40/478/57 194/485/383 560/495/382
f 560/495/382 194/485/383 44/494/384 195/503/385
f 380/781/120 560/785/382 195/790/385 43/786/122
f 40/478/57 353/477/65 561/484/386 194/485/383
f 353/477/65 41/483/64 193/492/379 561/484/386
f 561/484/386 193/492/379 45/500/381 196/493/387
f 194/485/383 561/484/386 196/493/387 44/494/384
f 45/500/381 192/507/380 562/515/388 198/508/389
f 192/208/380 46/194/288 468/207/293 562/217/388
f 562/217/388 468/207/293 50/216/292 197/222/390
f 198/508/389 562/515/388 197/523/390 49/516/391
f 43/786/122 195/790/385 563/796/392 383/791/126
f 195/503/385 44/494/384 199/502/393 563/511/392
f 563/511/392 199/502/393 48/510/394 200/519/395
f 383/791/126 563/796/392 200/803/395 47/797/128
f 44/494/384 196/493/387 564/501/396 199/502/393
f 196/493/387 45/500/381 198/508/389 564/501/396
f 564/501/396 198/508/389 49/516/391 201/509/397
f 199/502/393 564/501/396 201/509/397 48/510/394
f 49/516/391 197/523/390 565/531/398 203/524/399
f 197/222/390 50/216/292 470/221/297 565/225/398
f 565/225/398 470/221/297 54/224/296 202/226/400
f 203/524/399 565/531/398 202/536/400 53/532/401
f 47/326/128 200/328/395 566/317/402 386/315/132
f 200/519/395 48/510/394 204/518/403 566/527/402
f 566/317/402 204/329/403 52/318/404 205/305/405
f 386/315/132 566/317/402 205/305/405 51/303/134
f 48/510/394 201/509/397 567/517/406 204/518/403
f 201/509/397 49/516/391 203/524/399 567/517/406
f 567/517/406 203/524/399 53/532/401 206/525/407
f 204/518/403 567/517/406 206/525/407 52/526/404
f 58/44/153 207/57/408 568/41/409 397/28/154
f 207/645/408 57/646/410 208/638/411 568/637/409
f 568/637/409 208/638/411 61/630/412 209/629/413
f 397/28/154 568/41/409 209/25/413 62/13/157
f 57/646/410 210/655/414 569/647/415 208/638/411
f 210/655/414 56/664/416 211/656/417 569/647/415
f 569/647/415 211/656/417 60/648/418 212/639/419
f 208/638/411 569/647/415 212/639/419 61/630/412
f 56/466/416 213/461/420 570/465/421 211/469/417
f 213/461/420 55/455/143 390/460/142 570/465/421
f 570/465/421 390/460/142 59/464/141 214/468/422
f 211/656/417 570/665/421 214/657/422 60/648/418
f 62/13/157 209/25/413 571/26/423 401/14/161
f 209/629/413 61/630/412 215/620/424 571/619/423
f 571/619/423 215/620/424 65/612/425 216/611/426
f 401/14/161 571/26/423 216/42/426 66/27/163
f 61/630/412 212/639/419 572/631/427 215/620/424
f 212/639/419 60/648/418 217/640/428 572/631/427
f 572/631/427 217/640/428 64/632/429 218/621/430
f 215/620/424 572/631/427 218/621/430 65/612/425
f 60/648/418 214/657/422 573/649/431 217/640/428
f 214/807/422 59/802/141 393/801/147 573/808/431
f 573/808/431 393/801/147 63/806/146 219/811/432
f 217/640/428 573/649/431 219/641/432 64/632/429
f 66/27/163 216/42/426 574/58/433 403/43/165
f 216/611/426 65/612/425 220/606/434 574/605/433
f 574/605/433 220/606/434 69/602/76 357/601/73
f 403/43/165 574/58/433 357/72/73 70/59/72
f 65/612/425 218/621/430 575/613/435 220/606/434
f 218/621/430 64/632/429 221/622/436 575/613/435
f 575/613/435 221/622/436 68/614/83 361/607/81
f 220/606/434 575/613/435 361/607/81 69/602/76
f 64/632/429 219/641/432 576/633/437 221/622/436
f 219/811/432 63/806/146 395/810/150 576/813/437
f 576/813/437 395/810/150 67/812/89 364/814/87
f 221/622/436 576/633/437 364/623/87 68/614/83
f 73/343/85 366/339/92 577/333/438 223/338/439
f 366/339/92 74/334/91 168/323/332 577/333/438
f 577/333/438 168/323/332 122/312/330 222/322/440
f 223/338/439 577/333/438 222/322/440 121/332/441
f 71/88/80 359/99/79 578/89/442 405/74/169
f 359/610/79 72/609/78 224/617/443 578/618/442
f 578/618/442 224/617/443 120/627/444 225/628/445
f 405/74/169 578/89/442 225/75/445 119/61/170
f 72/609/78 363/616/86 579/626/446 224/617/443
f 363/346/86 73/343/85 223/338/439 579/342/446
f 579/342/446 223/338/439 121/332/441 226/337/447
f 224/617/443 579/626/446 226/634/447 120/627/444
f 77/424/448 227/409/449 580/396/450 229/410/451
f 227/409/449 78/398/206 181/384/357 580/396/450
f 580/396/450 181/384/357 134/383/356 228/397/452
f 229/410/451 580/396/450 228/397/452 133/411/453
f 75/97/193 230/105/454 581/98/455 417/85/189
f 230/704/454 76/705/456 231/696/457 581/695/455
f 581/695/455 231/696/457 132/688/458 232/687/459
f 417/85/189 581/98/455 232/86/459 131/70/183
f 76/705/456 233/714/460 582/706/461 231/696/457
f 233/438/460 77/424/448 229/410/451 582/425/461
f 582/425/461 229/410/451 133/411/453 234/426/462
f 231/696/457 582/706/461 234/697/462 132/688/458
f 78/398/206 227/409/449 583/423/463 424/412/207
f 227/728/449 77/724/448 235/725/464 583/729/463
f 583/729/463 235/725/464 81/726/465 236/730/466
f 424/777/207 583/779/463 236/778/466 82/775/210
f 77/724/448 233/714/460 584/720/467 235/725/464
f 233/714/460 76/705/456 237/713/468 584/720/467
f 584/720/467 237/713/468 80/718/469 238/721/470
f 235/725/464 584/720/467 238/721/470 81/726/465
f 76/705/456 230/704/454 585/712/471 237/713/468
f 230/105/454 75/97/193 416/84/192 585/96/471
f 585/96/471 416/84/192 79/68/191 239/82/472
f 237/713/468 585/712/471 239/719/472 80/718/469
f 82/775/210 236/778/466 586/776/473 428/772/215
f 236/730/466 81/726/465 240/722/474 586/727/473
f 586/727/473 240/722/474 85/716/475 241/723/476
f 428/772/215 586/776/473 241/773/476 86/768/217
f 81/726/465 238/721/470 587/715/477 240/722/474
f 238/721/470 80/718/469 242/710/478 587/715/477
f 587/715/477 242/710/478 84/702/479 243/707/480
f 240/722/474 587/715/477 243/707/480 85/716/475
f 80/718/469 239/719/472 588/711/481 242/710/478
f 239/82/472 79/68/191 419/67/197 588/83/481
f 588/83/481 419/67/197 83/81/196 244/95/482
f 242/710/478 588/711/481 244/703/482 84/702/479
f 86/768/217 241/773/476 589/769/483 431/762/221
f 241/723/476 85/716/475 245/708/484 589/717/483
f 589/717/483 245/708/484 89/699/485 246/709/486
f 431/762/221 589/769/483 246/763/486 90/755/223
f 85/716/475 243/707/480 590/698/487 245/708/484
f 243/707/480 84/702/479 247/693/488 590/698/487
f 590/698/487 247/693/488 88/685/489 248/690/490
f 245/708/484 590/698/487 248/690/490 89/699/485
f 84/702/479 244/703/482 591/694/491 247/693/488
f 244/95/482 83/81/196 421/94/201 591/104/491
f 591/104/491 421/94/201 87/103/200 249/109/492
f 247/693/488 591/694/491 249/686/492 88/685/489
f 90/755/223 246/763/486 592/764/493 434/756/227
f 246/709/486 89/699/485 250/691/494 592/700/493
f 592/700/493 250/691/494 93/692/495 251/701/496
f 434/281/227 592/294/493 251/282/496 94/270/229
f 89/699/485 248/690/490 593/684/497 250/691/494
f 248/690/490 88/685/489 252/679/498 593/684/497
f 593/684/497 252/679/498 92/673/499 253/678/500
f 250/691/494 593/684/497 253/678/500 93/692/495
f 88/685/489 249/686/492 594/680/501 252/679/498
f 249/109/492 87/103/200 423/108/205 594/112/501
f 594/112/501 423/108/205 91/111/204 254/113/502
f 252/679/498 594/680/501 254/674/502 92/673/499
f 98/157/248 255/170/503 595/154/504 445/141/249
f 255/541/503 97/534/505 256/540/506 595/549/504
f 595/549/504 256/540/506 101/548/507 257/558/508
f 445/141/249 595/154/504 257/138/508 102/126/252
f 97/534/505 258/533/509 596/539/510 256/540/506
f 258/533/509 96/545/511 259/546/512 596/539/510
f 596/539/510 259/546/512 100/555/513 260/547/514
f 256/540/506 596/539/510 260/547/514 101/548/507
f 96/545/511 261/553/515 597/554/516 259/546/512
f 261/361/515 95/359/238 438/372/237 597/373/516
f 597/757/516 438/758/237 99/751/236 262/750/517
f 259/546/512 597/554/516 262/562/517 100/555/513
f 102/126/252 257/138/508 598/139/518 449/127/256
f 257/558/508 101/548/507 263/557/519 598/566/518
f 598/566/518 263/557/519 105/565/520 264/574/521
f 449/127/256 598/139/518 264/155/521 106/140/258
f 101/548/507 260/547/514 599/556/522 263/557/519
f 260/547/514 100/555/513 265/563/523 599/556/522
f 599/556/522 265/563/523 104/571/524 266/564/525
f 263/557/519 599/556/522 266/564/525 105/565/520
f 100/555/513 262/562/517 600/570/526 265/563/523
f 262/750/517 99/751/236 441/745/242 600/744/526
f 600/744/526 441/745/242 103/740/241 267/739/527
f 265/563/523 600/570/526 267/578/527 104/571/524
f 106/140/258 264/155/521 601/171/528 451/156/260
f 264/574/521 105/565/520 268/573/529 601/582/528
f 601/582/528 268/573/529 109/581/97 367/590/94
f 451/156/260 601/171/528 367/185/94 110/172/93
f 105/565/520 266/564/525 602/572/530 268/573/529
f 266/564/525 104/571/524 269/579/531 602/572/530
f 602/572/530 269/579/531 108/587/104 371/580/102
f 268/573/529 602/572/530 371/580/102 109/581/97
f 104/571/524 267/578/527 603/586/532 269/579/531
f 267/739/527 103/740/241 443/736/245 603/735/532
f 603/735/532 443/736/245 107/732/110 374/731/108
f 269/579/531 603/586/532 374/594/108 108/587/104
f 113/252/106 376/239/113 604/231/533 271/241/534
f 376/239/113 114/233/112 471/228/299 604/231/533
f 604/231/533 471/228/299 146/227/298 270/232/535
f 271/241/534 604/231/533 270/232/535 145/242/536
f 111/201/101 369/212/100 605/202/537 453/187/264
f 369/597/100 112/592/99 272/584/538 605/591/537
f 605/591/537 272/584/538 144/576/539 273/583/540
f 453/187/264 605/202/537 273/188/540 143/174/265
f 112/592/99 373/593/107 606/585/541 272/584/538
f 373/265/107 113/252/106 271/241/534 606/255/541
f 606/255/541 271/241/534 145/242/536 274/256/542
f 272/584/538 606/585/541 274/577/542 144/576/539
f 55/455/143 213/461/420 607/456/543 186/446/367
f 213/461/420 56/466/416 275/462/544 607/456/543
f 607/456/543 275/462/544 117/457/545 276/447/546
f 186/446/367 607/456/543 276/447/546 118/434/364
f 56/466/416 210/470/414 608/467/547 275/462/544
f 210/655/414 57/646/410 277/654/548 608/663/547
f 608/663/547 277/654/548 116/662/549 278/671/550
f 275/462/544 608/467/547 278/463/550 117/457/545
f 57/646/410 207/645/408 609/653/551 277/654/548
f 207/57/408 58/44/153 400/30/156 609/46/551
f 609/46/551 400/30/156 115/23/160 279/39/552
f 277/654/548 609/653/551 279/661/552 116/662/549
f 121/332/441 222/322/440 610/311/553 281/321/554
f 222/322/440 122/312/330 166/300/329 610/311/553
f 610/311/553 166/300/329 130/286/326 280/299/555
f 281/321/554 610/311/553 280/299/555 129/310/556
f 119/61/170 225/75/445 611/76/557 409/62/177
f 225/628/445 120/627/444 282/635/558 611/636/557
f 611/636/557 282/635/558 128/643/559 283/644/560
f 409/62/177 611/76/557 283/90/560 127/77/178
f 120/627/444 226/634/447 612/642/561 282/635/558
f 226/337/447 121/332/441 281/321/554 612/331/561
f 612/331/561 281/321/554 129/310/556 284/320/562
f 282/635/558 612/642/561 284/650/562 128/643/559
f 118/434/364 276/447/546 613/435/563 185/420/365
f 276/447/546 117/457/545 285/448/564 613/435/563
f 613/435/563 285/448/564 125/436/565 286/421/566
f 185/420/365 613/435/563 286/421/566 126/407/360
f 117/457/545 278/463/550 614/458/567 285/448/564
f 278/671/550 116/662/549 287/670/568 614/677/567
f 614/677/567 287/670/568 124/676/569 288/683/570
f 285/448/564 614/458/567 288/449/570 125/436/565
f 116/662/549 279/661/552 615/669/571 287/670/568
f 279/39/552 115/23/160 408/24/173 615/40/571
f 615/40/571 408/24/173 123/38/175 289/56/572
f 287/670/568 615/669/571 289/675/572 124/676/569
f 129/310/556 280/299/555 616/285/573 291/298/574
f 280/299/555 130/286/326 164/273/325 616/285/573
f 616/285/573 164/273/325 138/260/322 290/272/575
f 291/298/574 616/285/573 290/272/575 137/284/576
f 127/77/178 283/90/560 617/100/577 413/91/185
f 283/644/560 128/643/559 292/651/578 617/652/577
f 617/652/577 292/651/578 136/659/579 293/660/580
f 413/91/185 617/100/577 293/106/580 135/101/186
f 128/643/559 284/650/562 618/658/581 292/651/578
f 284/320/562 129/310/556 291/298/574 618/309/581
f 618/309/581 291/298/574 137/284/576 294/297/582
f 292/651/578 618/658/581 294/666/582 136/659/579
f 126/407/360 286/421/566 619/408/583 183/395/361
f 286/421/566 125/436/565 295/422/584 619/408/583
f 619/408/583 295/422/584 133/411/453 228/397/452
f 183/395/361 619/408/583 228/397/452 134/383/356
f 125/436/565 288/449/570 620/437/585 295/422/584
f 288/683/570 124/676/569 296/682/586 620/689/585
f 620/689/585 296/682/586 132/688/458 234/697/462
f 295/422/584 620/437/585 234/426/462 133/411/453
f 124/676/569 289/675/572 621/681/587 296/682/586
f 289/56/572 123/38/175 412/55/181 621/71/587
f 621/71/587 412/55/181 131/70/183 232/86/459
f 296/682/586 621/681/587 232/687/459 132/688/458
f 94/270/229 251/282/496 622/271/588 482/259/321
f 251/282/496 93/295/495 297/283/589 622/271/588
f 622/271/588 297/283/589 137/284/576 290/272/575
f 482/259/321 622/271/588 290/272/575 138/260/322
f 93/295/495 253/308/500 623/296/590 297/283/589
f 253/678/500 92/673/499 298/667/591 623/672/590
f 623/672/590 298/667/591 136/659/579 294/666/582
f 297/283/589 623/296/590 294/297/582 137/284/576
f 92/673/499 254/674/502 624/668/592 298/667/591
f 254/113/502 91/111/204 422/107/203 624/110/592
f 624/110/592 422/107/203 135/101/186 293/106/580
f 298/667/591 624/668/592 293/660/580 136/659/579
f 95/359/238 261/361/515 625/353/593 169/349/333
f 261/361/515 96/374/511 299/362/594 625/353/593
f 625/353/593 299/362/594 141/363/595 300/354/596
f 169/349/333 625/353/593 300/354/596 142/350/335
f 96/374/511 258/387/509 626/375/597 299/362/594
f 258/533/509 97/534/505 301/529/598 626/528/597
f 626/528/597 301/529/598 140/521/599 302/520/600
f 299/362/594 626/375/597 302/376/600 141/363/595
f 97/534/505 255/541/503 627/535/601 301/529/598
f 255/170/503 98/157/248 448/143/251 627/159/601
f 627/159/601 448/143/251 139/136/255 303/152/602
f 301/529/598 627/535/601 303/530/602 140/521/599
f 145/242/536 270/232/535 628/240/603 305/254/604
f 270/232/535 146/227/298 474/237/305 628/240/603
f 628/240/603 474/237/305 154/249/304 304/253/605
f 305/254/604 628/240/603 304/253/605 153/267/606
f 143/174/265 273/188/540 629/189/607 457/175/272
f 273/583/540 144/576/539 306/568/608 629/575/607
f 629/575/607 306/568/608 152/560/609 307/567/610
f 457/175/272 629/189/607 307/203/610 151/190/273
f 144/576/539 274/577/542 630/569/611 306/568/608
f 274/256/542 145/242/536 305/254/604 630/268/611
f 630/268/611 305/254/604 153/267/606 308/280/612
f 306/568/608 630/569/611 308/561/612 152/560/609
f 142/350/335 300/354/596 631/364/613 172/355/339
f 300/354/596 141/363/595 309/377/614 631/364/613
f 631/364/613 309/377/614 149/389/615 310/378/616
f 172/355/339 631/364/613 310/378/616 150/365/341
f 141/363/595 302/376/600 632/388/617 309/377/614
f 302/520/600 140/521/599 311/513/618 632/512/617
f 632/512/617 311/513/618 148/505/619 312/504/620
f 309/377/614 632/388/617 312/400/620 149/389/615
f 140/521/599 303/530/602 633/522/621 311/513/618
f 303/152/602 139/136/255 456/137/268 633/153/621
f 633/153/621 456/137/268 147/151/270 313/169/622
f 311/513/618 633/522/621 313/514/622 148/505/619
f 153/267/606 304/253/605 634/266/623 315/279/624
f 304/253/605 154/249/304 477/263/311 634/266/623
f 634/266/623 477/263/311 162/276/310 314/278/625
f 315/279/624 634/266/623 314/278/625 161/292/626
f 151/190/273 307/203/610 635/213/627 461/204/280
f 307/567/610 152/560/609 316/551/628 635/559/627
f 635/559/627 316/551/628 160/543/629 317/550/630
f 461/204/280 635/213/627 317/219/630 159/214/281
f 152/560/609 308/561/612 636/552/631 316/551/628
f 308/280/612 153/267/606 315/279/624 636/293/631
f 636/293/631 315/279/624 161/292/626 318/307/632
f 316/551/628 636/552/631 318/544/632 160/543/629
f 150/365/341 310/378/616 637/390/633 175/379/345
f 310/378/616 149/389/615 319/401/634 637/390/633
f 637/390/633 319/401/634 157/414/371 187/402/370
f 175/379/345 637/390/633 187/402/370 158/391/347
f 149/389/615 312/400/620 638/413/635 319/401/634
f 312/504/620 148/505/619 320/497/636 638/496/635
f 638/496/635 320/497/636 156/489/374 191/488/377
f 319/401/634 638/413/635 191/427/377 157/414/371
f 148/505/619 313/514/622 639/506/637 320/497/636
f 313/169/622 147/151/270 460/168/276 639/184/637
f 639/184/637 460/168/276 155/183/278 190/199/375
f 320/497/636 639/506/637 190/498/375 156/489/374
f 51/303/134 205/305/405 640/291/638 480/289/316
f 205/305/405 52/318/404 321/306/639 640/291/638
f 640/291/638 321/306/639 161/292/626 314/278/625
f 480/289/316 640/291/638 314/278/625 162/276/310
f 52/318/404 206/330/407 641/319/640 321/306/639
f 206/525/407 53/532/401 322/537/641 641/538/640
f 641/538/640 322/537/641 160/543/629 318/544/632
f 321/306/639 641/319/640 318/307/632 161/292/626
f 53/532/401 202/536/400 642/542/642 322/537/641
f 202/226/400 54/224/296 469/220/295 642/223/642
f 642/223/642 469/220/295 159/214/281 317/219/630
f 322/537/641 642/542/642 317/550/630 160/543/629
