# Blender 5.2.1 LTS
# www.blender.org
mtllib quick+fang+striker 3 Collider.mtl
o Object.1
v 0.035656 1.040796 0.119746
v 0.046622 1.013879 0.130712
v 0.053600 1.033818 0.142676
v 0.050437 0.984954 0.171483
v 0.040584 1.013692 0.165577
v 0.052257 0.980874 0.172573
v 0.053997 1.022711 0.173616
v 0.044746 1.024050 0.168072
v 0.056206 0.976644 0.174940
v 0.056206 0.982586 0.174940
v 0.066311 0.978812 0.162463
v 0.081642 1.019389 0.143532
v 0.088278 0.994021 0.135338
v 0.088116 0.993614 0.135537
v 0.056206 0.988267 0.174940
v 0.056206 0.983602 0.174940
v 0.056206 0.998989 0.174940
v 0.056206 1.018360 0.174940
v 0.056206 1.022390 0.174940
v 0.061552 1.025143 0.168339
v 0.067494 1.026476 0.161002
v 0.069756 1.026983 0.158210
v 0.078768 1.021234 0.147080
v 0.079671 0.981678 0.145966
vn -0.5141 -0.0000 0.8577
vn 0.7771 -0.0000 0.6293
vn 0.7772 -0.0001 0.6293
vn 0.7771 -0.0000 0.6294
vn 0.7772 -0.0000 0.6293
vn -0.8621 -0.4478 -0.2370
vn -0.0938 -0.4082 -0.9081
vn 0.5589 0.3837 -0.7352
vn 0.4579 0.8845 -0.0891
vn 0.4579 0.8845 -0.0892
vn -0.0662 0.9389 0.3378
vn -0.9130 0.3005 0.2759
vn -0.0666 0.9388 0.3379
vn -0.0662 0.9389 0.3379
vn 0.1328 0.9507 0.2802
vn 0.4576 0.8849 -0.0866
vn -0.1848 -0.5692 -0.8012
vn -0.4704 -0.7227 -0.5065
vn -0.0937 -0.4082 -0.9081
vn -0.9345 -0.3412 -0.1013
vt 0.000000 0.000000
vt 0.268509 0.858171
vt 0.278564 0.849121
vt 0.276123 0.854492
vt 0.268237 0.859026
vt 0.277541 0.863236
vt 0.277610 0.863201
vt 0.167820 0.910160
vt 0.163610 0.906645
vt 0.175781 0.902588
vt 0.173828 0.908203
vt 0.168743 0.910668
vt 0.174536 0.913868
vt 0.176354 0.913837
vt 0.176063 0.914364
vt 0.317382 0.044695
vt 0.316483 0.046963
vt 0.306641 0.046143
vt 0.177890 0.912079
vt 0.172756 0.912961
vt 0.172078 0.912616
vt 0.273632 0.863831
vt 0.270332 0.861754
vt 0.267836 0.860183
vt 0.320517 0.038903
s 0
usemtl Mat_0
f 15/1/1 4/1/1 6/1/1
f 15/1/1 6/1/1 16/1/1
f 19/1/1 7/1/1 5/1/1
f 19/1/1 5/1/1 18/1/1
f 18/1/1 4/1/1 17/1/1
f 18/1/1 5/1/1 4/1/1
f 5/1/1 7/1/1 8/1/1
f 9/1/1 10/1/1 6/1/1
f 10/1/1 16/1/1 6/1/1
f 15/1/1 17/1/1 4/1/1
f 16/1/2 24/1/2 15/1/2
f 15/1/2 24/1/2 14/1/2
f 13/1/3 15/1/3 14/1/3
f 23/1/4 19/1/4 12/1/4
f 19/1/5 23/1/5 20/1/5
f 13/1/2 19/1/2 18/1/2
f 13/1/2 18/1/2 17/1/2
f 21/1/4 23/1/4 22/1/4
f 23/1/2 21/1/2 20/1/2
f 19/1/2 13/1/2 12/1/2
f 15/1/2 13/1/2 17/1/2
f 16/1/4 11/1/4 24/1/4
f 11/1/4 16/1/4 10/1/4
f 9/1/2 11/1/2 10/1/2
f 4/2/6 1/3/6 2/4/6
f 4/2/6 2/4/6 6/5/6
f 14/6/7 1/3/7 13/7/7
f 12/8/8 13/9/8 1/10/8
f 12/8/9 1/10/9 3/11/9
f 12/8/10 3/11/10 23/12/10
f 20/13/11 7/14/11 19/15/11
f 5/16/12 8/17/12 1/18/12
f 7/14/13 1/10/13 8/19/13
f 20/13/14 3/11/14 7/14/14
f 20/13/15 21/20/15 3/11/15
f 21/20/15 22/21/15 3/11/15
f 22/21/16 23/12/16 3/11/16
f 7/14/13 3/11/13 1/10/13
f 14/6/17 24/22/17 2/4/17
f 11/23/18 2/4/18 24/22/18
f 11/23/18 9/24/18 6/5/18
f 11/23/18 6/5/18 2/4/18
f 14/6/19 2/4/19 1/3/19
f 4/25/20 5/16/20 1/18/20
o Object.2
v 0.124382 1.043787 0.088841
v 0.125504 1.041576 0.089369
v 0.125144 1.041164 0.089814
v 0.125381 1.043152 0.089522
v 0.124193 1.041577 0.090989
v 0.124869 1.043277 0.090154
vn 0.7771 -0.0000 0.6294
vn 0.7771 -0.0001 0.6293
vn -0.4709 -0.4237 -0.7738
vn 0.6115 0.1237 -0.7815
vn 0.4374 0.8810 0.1803
vn -0.7191 0.5149 0.4666
vn -0.7749 -0.4050 -0.4853
vt 0.000000 0.000000
vt 0.151060 0.910540
vt 0.151181 0.910241
vt 0.151367 0.910645
vt 0.151306 0.910806
vt 0.151528 0.910794
vt 0.151661 0.910428
s 0
usemtl Mat_0
f 29/26/21 28/26/21 30/26/21
f 28/26/21 29/26/21 26/26/21
f 29/26/22 27/26/22 26/26/22
f 26/27/23 27/28/23 25/29/23
f 28/30/24 26/27/24 25/29/24
f 30/31/25 28/30/25 25/29/25
f 29/32/26 30/31/26 25/29/26
f 27/28/27 29/32/27 25/29/27
o Object.3
v -0.006216 0.209356 0.131709
v 0.028677 0.228297 0.096817
v 0.035656 0.222316 0.091832
v 0.004751 0.204371 0.126725
v 0.028677 0.207362 0.079869
v 0.011729 0.200383 0.101801
v 0.013723 0.192408 0.110774
v 0.027680 0.194402 0.092829
v 0.032665 0.173466 0.085851
v 0.033662 0.182438 0.070896
v 0.030671 0.191411 0.047967
v 0.040640 0.192408 0.028028
v 0.049613 0.214340 -0.005867
v 0.032665 0.193405 0.000114
v 0.036652 0.182438 0.022047
v 0.038646 0.179448 0.033013
v 0.039643 0.164494 0.017062
v 0.039643 0.168481 -0.037769
v 0.001760 0.166488 0.011081
v -0.022166 0.172469 -0.060698
v 0.009735 0.171472 -0.075652
v 0.043631 0.169478 -0.056711
v 0.026683 0.171472 -0.115530
v -0.001231 0.173466 -0.133474
v -0.050081 0.175460 -0.119517
v -0.051078 0.176457 -0.187309
v 0.017711 0.172469 -0.181327
v -0.012197 0.173466 -0.216220
v 0.026683 0.172469 -0.197278
v 0.018708 0.171472 -0.243137
v 0.067557 0.169478 -0.222201
v 0.029674 0.169478 -0.255100
v -0.011200 0.170475 -0.258091
v -0.058056 0.175460 -0.242140
v -0.095940 0.175460 -0.237155
v -0.090955 0.177454 -0.211235
v -0.082979 0.177454 -0.146435
v -0.111890 0.178451 -0.181327
v -0.130832 0.178451 -0.205253
v -0.164728 0.178451 -0.187309
v -0.135817 0.178451 -0.156404
v -0.113884 0.177454 -0.132478
v -0.145786 0.177454 -0.106557
v -0.186660 0.178451 -0.145438
v -0.180679 0.178451 -0.104563
v -0.185663 0.177454 -0.074655
v -0.146783 0.175460 -0.045744
v -0.114881 0.176457 -0.083628
v -0.121860 0.173466 -0.019824
v -0.090955 0.173466 -0.031787
v -0.062044 0.174463 -0.076649
v -0.047090 0.170475 -0.012846
v -0.076001 0.169478 0.021050
v -0.106906 0.170475 0.026035
v -0.090955 0.167484 0.057936
v -0.047090 0.166488 0.047967
v -0.046093 0.167484 0.032016
v -0.035127 0.168481 0.019056
v -0.036124 0.194402 0.021050
v -0.048087 0.192408 0.039992
v -0.048087 0.192408 0.050958
v -0.007213 0.184432 0.074884
v 0.018708 0.184432 0.047967
v 0.018708 0.185429 0.032016
v 0.012726 0.188420 0.020053
v -0.005219 0.190414 0.010084
v -0.021170 0.192408 0.012078
v -0.006216 0.170475 0.010084
v -0.018179 0.167484 0.010084
v 0.017711 0.165491 0.029025
v 0.017711 0.163497 0.046970
v 0.039643 0.163497 0.043979
v 0.042634 0.163497 0.036004
v 0.037649 0.162500 0.082860
v 0.032665 0.158512 0.113765
v 0.021698 0.178451 0.105789
v 0.022695 0.162500 0.118749
v 0.007741 0.182438 0.120743
v 0.010732 0.233282 0.145666
v 0.039643 0.233282 0.121740
v 0.039643 0.232285 0.159623
v 0.044628 0.230291 0.126725
v 0.044628 0.223313 0.167599
v 0.057588 0.224310 0.134700
v 0.061576 0.226304 0.094823
v 0.071545 0.216334 0.121740
v 0.063570 0.219325 0.088841
v 0.046622 0.217331 0.054946
v 0.043631 0.222316 0.058933
v 0.074536 0.223313 0.044976
v 0.046622 0.215337 0.022047
v 0.046622 0.220322 -0.000883
v 0.071545 0.216334 0.023044
v 0.082511 0.212346 0.077875
v 0.087496 0.211350 0.010084
v 0.080517 0.219325 -0.009855
v 0.062573 0.219325 -0.047738
v 0.072542 0.212346 -0.041757
v 0.050609 0.210352 -0.069671
v 0.043631 0.214340 -0.064686
v 0.042634 0.194402 -0.043751
v 0.033662 0.187423 -0.081634
v 0.038646 0.180445 -0.036772
v 0.037649 0.177454 -0.070668
v 0.034659 0.191411 -0.108551
v 0.025686 0.185429 -0.126496
v 0.026683 0.181441 -0.150422
v 0.028677 0.190414 -0.151419
v 0.042634 0.189417 -0.153413
v 0.054597 0.187423 -0.146435
v 0.058585 0.170475 -0.160392
v 0.070548 0.169478 -0.180330
v 0.090487 0.168481 -0.146435
v 0.087496 0.168481 -0.104563
v 0.120395 0.165491 -0.111542
v 0.124382 0.166487 -0.162385
v 0.150303 0.164494 -0.126496
v 0.141330 0.164494 -0.101573
v 0.124382 0.164494 -0.064686
v 0.147312 0.162500 -0.059702
v 0.126376 0.162500 -0.030791
v 0.104444 0.164494 -0.042754
v 0.096468 0.166488 -0.060698
v 0.101453 0.166488 -0.020821
v 0.101453 0.183435 -0.055714
v 0.106438 0.179448 0.011081
v 0.103447 0.162500 0.002108
v 0.100456 0.161503 0.027032
v 0.102450 0.184432 0.021050
v 0.099459 0.204371 -0.011849
v 0.103447 0.195398 0.031019
v 0.096468 0.200383 0.074884
v 0.103447 0.185429 0.067906
v 0.106438 0.173466 0.035007
v 0.098462 0.170475 0.092829
v 0.098462 0.158512 0.074884
v 0.125379 0.155521 0.070896
v 0.085502 0.155521 0.106786
v 0.134352 0.158512 0.030022
v 0.161269 0.157515 0.011081
v 0.192174 0.157515 -0.013843
v 0.187189 0.159509 -0.051726
v 0.219091 0.156518 -0.064686
v 0.244014 0.154524 -0.085622
v 0.217097 0.158512 -0.117524
v 0.199152 0.159509 -0.082631
v 0.184198 0.161503 -0.117524
v 0.189183 0.161503 -0.134471
v 0.200149 0.160506 -0.155407
v 0.216100 0.157515 -0.150422
v 0.238033 0.153527 -0.125499
v 0.199152 0.157515 -0.175346
v 0.184198 0.161503 -0.179333
v 0.167250 0.163497 -0.185315
v 0.169244 0.159509 -0.202263
v 0.147312 0.164494 -0.198275
v 0.151300 0.164494 -0.173352
v 0.132358 0.165491 -0.195284
v 0.097465 0.167484 -0.202263
v 0.108431 0.164494 -0.235161
v 0.086499 0.166487 -0.242140
v 0.137342 0.161503 -0.224195
v -0.184666 0.175460 -0.190300
v -0.150771 0.176457 -0.212232
v -0.182673 0.179448 -0.169364
v -0.229528 0.177454 -0.127493
v -0.209590 0.177454 -0.095591
v -0.229528 0.178451 -0.110545
v -0.230525 0.177454 -0.083628
v -0.229528 0.176457 -0.053720
v -0.179682 0.176457 -0.050729
v -0.227535 0.174463 -0.022815
v -0.189651 0.174463 -0.011849
v -0.153761 0.173466 -0.008858
v -0.183669 0.172469 0.020053
v -0.149774 0.169478 0.045973
v -0.046093 0.164494 0.080866
v -0.042105 0.166488 0.062921
v -0.028148 0.164494 0.073887
v -0.042105 0.190414 0.063918
v -0.029145 0.188420 0.074884
v -0.007213 0.163497 0.073887
v 0.006745 0.183435 0.065912
v 0.008738 0.163497 0.062921
v 0.012726 0.161503 0.081863
v 0.001760 0.159509 0.107783
v 0.033662 0.159509 0.088841
v 0.020701 0.157515 0.123734
v -0.013194 0.158512 0.128719
v 0.055594 0.153527 0.150651
v 0.066560 0.154524 0.132706
v 0.078524 0.167484 0.131709
v 0.084505 0.190414 0.126725
v 0.073539 0.181442 0.137691
v 0.068554 0.211350 0.130712
v 0.074536 0.184432 0.145666
v 0.060579 0.157515 0.135697
v 0.069551 0.171472 0.150651
v 0.048616 0.157515 0.154639
v 0.069551 0.210353 0.146663
v 0.255977 0.150537 -0.093597
v 0.241023 0.153527 -0.110545
v -0.248470 0.175460 -0.104563
v -0.260433 0.173466 -0.075652
v -0.254452 0.175460 -0.060698
v -0.260433 0.173466 -0.026803
v -0.231522 0.173466 -0.000883
v -0.025157 0.162500 0.094823
v -0.125847 0.169478 0.036004
v -0.140801 0.172469 0.013074
v 0.162266 0.164494 -0.140453
v 0.168247 0.162500 -0.090606
v 0.155287 0.160506 -0.024809
v 0.082511 0.207362 -0.068674
v 0.075533 0.212346 -0.081634
v 0.064567 0.203374 -0.108551
v 0.036652 0.205368 -0.122508
v 0.043631 0.200383 -0.123505
v 0.085502 0.197392 -0.090606
v 0.093477 0.187423 -0.083628
v 0.093477 0.183435 -0.065683
v 0.096468 0.166488 -0.073659
v 0.033662 0.195398 -0.024809
v 0.046622 0.212346 -0.043751
v -0.056983 0.171883 -0.250009
v -0.014477 0.170103 -0.258538
v -0.073535 0.172512 -0.245457
v -0.096928 0.173483 -0.240614
v 0.229640 0.151422 -0.146360
v 0.236840 0.150545 -0.136833
v 0.247719 0.149007 -0.118396
v 0.210829 0.153623 -0.169507
v 0.198152 0.155014 -0.183350
v 0.220452 0.152541 -0.158505
v 0.192869 0.155500 -0.187337
v 0.099123 0.163258 -0.241553
v 0.113729 0.162223 -0.236423
v 0.136066 0.160545 -0.226749
v 0.142290 0.160037 -0.223279
v 0.083204 0.164390 -0.247233
v 0.068672 0.165337 -0.250766
v 0.042663 0.166980 -0.256099
v 0.028641 0.167825 -0.258199
v -0.184551 0.175441 -0.190413
v -0.184731 0.175443 -0.190271
v -0.149049 0.174926 -0.216058
v -0.107051 0.173769 -0.235948
v -0.209426 0.175484 -0.166391
v -0.193897 0.175460 -0.181438
v -0.209452 0.175478 -0.166247
v -0.209802 0.175481 -0.165959
v 0.249377 0.148654 -0.113330
v 0.254116 0.148054 -0.106629
v -0.248049 0.174477 -0.108635
v -0.252099 0.174250 -0.100262
v -0.260572 0.173401 -0.075625
v -0.267274 0.172254 -0.047074
v -0.261271 0.173299 -0.072973
v -0.268144 0.171924 -0.039912
v -0.234189 0.174832 -0.129241
v 0.180476 0.156701 -0.197850
v 0.167855 0.157842 -0.206986
v -0.008562 0.169816 -0.258970
v -0.008043 0.208899 0.136431
v -0.007442 0.211809 0.136791
v -0.000347 0.224842 0.141044
v 0.000041 0.176278 0.141277
v 0.004637 0.167315 0.144031
v -0.004481 0.186512 0.138566
v -0.004023 0.198522 0.138841
v -0.003276 0.205069 0.139288
v 0.008569 0.238330 0.146388
v 0.012027 0.233895 0.148461
v 0.012445 0.233282 0.148711
v 0.032039 0.233282 0.160455
v 0.037233 0.232504 0.163568
v 0.046001 0.144506 0.168824
v 0.037745 0.145198 0.163875
v 0.031491 0.145723 0.160127
v 0.012235 0.147337 0.148585
v 0.001977 0.148198 0.142437
v -0.027814 0.150696 0.124581
v -0.053805 0.152876 0.109003
v -0.069354 0.154180 0.099684
v -0.080738 0.155134 0.092860
v -0.188640 0.172017 0.028187
v -0.193371 0.172231 0.025352
v -0.162842 0.170059 0.043650
v -0.149474 0.169179 0.051662
v -0.078873 0.164494 0.093978
v -0.052734 0.162280 0.109645
v -0.079920 0.164556 0.093350
v 0.009189 0.155980 0.146759
v -0.006738 0.157493 0.137213
v 0.010925 0.159019 0.147800
v 0.010919 0.160145 0.147797
v 0.053532 0.152153 0.173337
v 0.045803 0.161735 0.168704
v 0.052179 0.168255 0.172527
v 0.039454 0.157149 0.164899
v 0.040322 0.155442 0.165420
v 0.044511 0.223340 0.167931
v 0.044561 0.223227 0.167960
v 0.044300 0.223518 0.167804
v 0.054703 0.212209 0.174039
v 0.041608 0.153009 0.166191
v -0.149410 0.160893 0.051700
v -0.158821 0.161683 0.046060
v -0.143278 0.160379 0.055376
v -0.107477 0.157377 0.076834
v -0.162786 0.162015 0.043684
v -0.230862 0.167724 0.002881
v -0.218473 0.166685 0.010306
v -0.208593 0.165857 0.016228
v -0.232298 0.167845 0.002020
v -0.268215 0.172007 -0.019507
v -0.266853 0.172170 -0.018691
v -0.272343 0.171203 -0.021981
v -0.261824 0.172771 -0.015677
v -0.247953 0.172807 -0.007363
v -0.235833 0.173205 -0.000099
v -0.233065 0.173209 0.001560
v -0.231804 0.173278 0.002316
v -0.224115 0.173066 0.006925
v -0.017266 0.158512 0.130903
v -0.014805 0.158292 0.132379
v -0.025205 0.159370 0.126145
v -0.047040 0.161770 0.113058
v -0.107486 0.165910 0.076829
v -0.081666 0.164698 0.092304
v -0.114747 0.166307 0.072476
v -0.133943 0.167812 0.060971
v 0.009084 0.232595 0.146697
v 0.194562 0.145365 0.004095
v 0.200430 0.145438 -0.003152
v 0.201227 0.145447 -0.004135
v 0.212429 0.145586 -0.017968
v 0.190764 0.145318 0.008784
v 0.188021 0.145284 0.012172
v 0.178653 0.145168 0.023740
v 0.176116 0.145136 0.026872
v 0.171013 0.145073 0.033173
v 0.163599 0.144981 0.042329
v 0.150264 0.144816 0.058796
v 0.139722 0.144685 0.071812
v 0.152044 0.144838 0.056597
v 0.056206 0.201435 0.174940
v 0.056206 0.201246 0.174940
v 0.056206 0.205725 0.174940
v 0.122217 0.154335 0.093428
v 0.102412 0.153936 0.117883
v 0.133226 0.154431 0.079833
v 0.139045 0.154470 0.072648
v 0.151844 0.155014 0.056844
v 0.168902 0.155633 0.035781
v 0.174808 0.155581 0.028488
v 0.186906 0.155935 0.013548
v 0.199321 0.155952 -0.001782
v 0.203308 0.155802 -0.006705
v 0.210212 0.155665 -0.015230
v 0.219167 0.155148 -0.026289
v 0.226444 0.154680 -0.035274
v 0.240154 0.154178 -0.052204
v 0.245466 0.153799 -0.058763
v 0.248397 0.146032 -0.062383
v 0.249321 0.146044 -0.063523
v 0.247502 0.146021 -0.061277
v 0.242823 0.145963 -0.055499
v 0.230281 0.145808 -0.040012
v 0.227216 0.145770 -0.036227
v 0.232669 0.145837 -0.042961
v 0.216682 0.145639 -0.023220
v 0.220662 0.145688 -0.028134
v 0.225880 0.145753 -0.034578
v 0.122814 0.144476 0.092691
v 0.119161 0.144430 0.097202
v 0.132481 0.144595 0.080755
v 0.112328 0.144346 0.105640
v 0.076184 0.143898 0.150271
v 0.078968 0.143932 0.146834
v 0.079285 0.143936 0.146442
v 0.067975 0.143796 0.160408
v 0.067968 0.143796 0.160417
v 0.067959 0.143796 0.160428
v 0.067930 0.143795 0.160463
v 0.067896 0.143795 0.160505
v 0.056206 0.177019 0.174940
v 0.056206 0.176963 0.174940
v 0.056206 0.176868 0.174940
v 0.056206 0.143650 0.174940
v 0.061967 0.143721 0.167826
v 0.064167 0.143749 0.165110
v 0.056206 0.146580 0.174940
v 0.056206 0.151861 0.174940
v 0.063420 0.151958 0.166033
v 0.056206 0.176021 0.174940
v 0.058611 0.176522 0.171971
v 0.060578 0.183751 0.169542
v 0.062350 0.186863 0.167354
v 0.064164 0.190051 0.165114
v 0.056206 0.186975 0.174940
v 0.056206 0.191806 0.174940
v 0.056206 0.192250 0.174940
v 0.061001 0.197393 0.169019
v 0.058637 0.202885 0.171939
v 0.090541 0.153282 0.132542
v 0.081669 0.152906 0.143498
v 0.075068 0.152529 0.151650
v 0.064894 0.151978 0.164213
v 0.097099 0.144157 0.124445
v 0.087504 0.144038 0.136293
v 0.098532 0.144175 0.122675
v 0.108992 0.144304 0.109760
v 0.087470 0.144037 0.136335
v 0.085595 0.144014 0.138650
v 0.056206 0.177069 0.174940
v 0.056206 0.177052 0.174940
v 0.258947 0.150537 -0.075410
v 0.261138 0.149322 -0.078115
v 0.252737 0.152780 -0.067741
v 0.260726 0.146185 -0.077607
v 0.261170 0.146190 -0.078155
v 0.261289 0.146192 -0.078302
v 0.264542 0.146232 -0.082319
v 0.265130 0.146240 -0.083045
v 0.264648 0.146821 -0.082449
v 0.241783 0.145950 -0.054216
v 0.160122 0.144938 0.046622
vn -0.0523 -0.9973 -0.0523
vn -0.0522 -0.9973 -0.0524
vn -0.0527 -0.9973 -0.0518
vn -0.0511 -0.9972 -0.0540
vn -0.0528 -0.9973 -0.0513
vn -0.0524 -0.9973 -0.0524
vn -0.0533 -0.9972 -0.0521
vn -0.0510 -0.9973 -0.0532
vn -0.0522 -0.9973 -0.0523
vn -0.0523 -0.9973 -0.0524
vn -0.0522 -0.9973 -0.0525
vn -0.5141 -0.0000 0.8577
vn -0.5139 -0.0001 0.8578
vn -0.5140 -0.0002 0.8578
vn -0.5141 0.0001 0.8577
vn -0.5139 -0.0000 0.8579
vn -0.5143 -0.0000 0.8576
vn -0.5140 -0.0000 0.8578
vn -0.5141 -0.0000 0.8578
vn -0.5141 -0.0001 0.8577
vn 0.7771 -0.0000 0.6293
vn 0.7771 -0.0000 0.6294
vn 0.7772 -0.0000 0.6293
vn 0.7772 0.0001 0.6292
vn 0.7772 0.0002 0.6292
vn 0.7768 -0.0007 0.6297
vn 0.7779 0.0013 0.6284
vn 0.7773 -0.0012 0.6292
vn 0.7768 0.0009 0.6297
vn 0.7773 -0.0000 0.6291
vn 0.7770 -0.0000 0.6295
vn 0.7774 -0.0000 0.6290
vn 0.7771 0.0001 0.6293
vn -0.6569 -0.1508 -0.7387
vn -0.5324 -0.4621 -0.7092
vn -0.7250 0.6037 -0.3317
vn -0.6652 0.6855 -0.2959
vn -0.8871 -0.4248 -0.1804
vn -0.5345 -0.6872 -0.4921
vn -0.7901 0.0161 -0.6127
vn -0.9700 -0.1745 -0.1694
vn -0.9180 -0.3951 -0.0349
vn -0.4582 -0.8464 -0.2714
vn -0.8376 -0.3301 -0.4353
vn -0.7233 0.6512 0.2299
vn -0.9381 0.2099 0.2755
vn -0.9428 0.2357 0.2357
vn -0.9727 -0.1964 0.1233
vn -0.9868 -0.1612 -0.0117
vn 0.0410 0.9965 0.0725
vn 0.0382 0.9968 0.0703
vn 0.0497 0.9980 0.0395
vn 0.0263 0.9980 0.0581
vn 0.0475 0.9987 0.0202
vn 0.0560 0.9981 0.0238
vn 0.0480 0.9985 0.0253
vn 0.0448 0.9989 0.0140
vn 0.0577 0.9983 0.0020
vn 0.0598 0.9979 -0.0228
vn 0.0201 0.9997 0.0113
vn 0.0395 0.9988 -0.0286
vn 0.0541 0.9981 -0.0311
vn 0.0800 0.9925 -0.0921
vn 0.0340 0.9904 -0.1339
vn 0.0491 0.9853 -0.1638
vn -0.0460 0.9070 -0.4186
vn -0.0460 0.9070 -0.4185
vn 0.1075 0.9936 0.0352
vn 0.1049 0.9937 0.0385
vn 0.1072 0.9917 0.0708
vn 0.1131 0.9917 0.0615
vn 0.0910 0.9930 0.0748
vn 0.0549 0.9962 0.0680
vn -0.1819 0.8752 -0.4482
vn -0.0633 0.8742 -0.4814
vn -0.0633 0.8742 -0.4815
vn -0.0098 0.9971 -0.0748
vn 0.0388 0.9990 -0.0231
vn 0.0270 0.9996 -0.0033
vn 0.0405 0.9992 -0.0050
vn 0.0223 0.9996 -0.0177
vn -0.0000 1.0000 -0.0000
vn 0.0222 0.9995 0.0213
vn 0.0194 0.9995 0.0239
vn 0.0045 0.9998 0.0209
vn 0.0283 0.9996 -0.0041
vn 0.0307 0.9988 0.0384
vn 0.0266 0.9991 0.0332
vn 0.0078 0.9994 0.0329
vn 0.0280 0.9984 0.0499
vn 0.0189 0.9986 0.0489
vn 0.0320 0.9986 0.0428
vn 0.0349 0.9992 0.0211
vn 0.0170 0.9991 0.0377
vn 0.0338 0.9989 0.0327
vn 0.0366 0.9988 0.0334
vn 0.0275 0.9981 0.0559
vn 0.0457 0.9976 0.0516
vn 0.0404 0.9971 0.0638
vn 0.0424 0.9971 0.0633
vn 0.0437 0.9965 0.0716
vn 0.0384 0.9968 0.0695
vn 0.0426 0.9970 0.0650
vn 0.0292 0.9944 0.1012
vn -0.7640 0.0202 -0.6449
vn -0.8460 0.0999 -0.5238
vn -0.1644 0.9864 -0.0000
vn 0.1246 0.9854 0.1156
vn 0.1217 0.9856 0.1172
vn 0.1492 0.9869 0.0617
vn 0.1232 0.9755 0.1823
vn 0.1211 0.9924 -0.0195
vn 0.1219 0.9924 -0.0174
vn -0.1233 0.0062 -0.9924
vn -0.0194 0.0774 -0.9968
vn -0.4672 0.0147 -0.8841
vn 0.0764 0.9965 0.0336
vn 0.0462 0.9964 0.0717
vn 0.0411 -0.1643 -0.9856
vn 0.1210 -0.0061 -0.9926
vn 0.4919 0.1075 -0.8640
vn 0.7410 -0.0988 -0.6642
vn 0.8964 0.0216 -0.4428
vn 0.9988 -0.0491 -0.0055
vn 0.0151 0.9938 0.1104
vn 0.0722 0.9970 0.0271
vn 0.0681 0.9968 0.0417
vn -0.8969 -0.2873 -0.3363
vn -0.9805 -0.1492 -0.1279
vn -0.9147 -0.4002 -0.0572
vn -0.9119 -0.3617 -0.1938
vn -0.7831 -0.5482 -0.2937
vn -0.5390 -0.5512 -0.6369
vn -0.7031 -0.4744 -0.5297
vn -0.7417 -0.5131 -0.4320
vn 0.8567 -0.1384 0.4969
vn 0.8896 0.1545 0.4298
vn 0.8560 0.2605 0.4466
vn 0.5868 0.7974 0.1412
vn 0.6453 0.6756 0.3567
vn 0.6452 0.6756 0.3568
vn -0.4980 -0.8232 -0.2725
vn -0.8320 0.1318 -0.5389
vn -0.8192 0.0443 -0.5718
vn -0.9148 0.2300 -0.3319
vn -0.7245 0.5359 -0.4336
vn 0.8111 0.3661 -0.4562
vn 0.7925 0.4048 -0.4561
vn -0.5001 -0.0913 -0.8611
vn -0.5094 0.8169 -0.2705
vn -0.1192 0.9824 -0.1440
vn 0.7400 0.5179 -0.4292
vn 0.4975 0.8672 0.0228
vn 0.1327 0.9908 0.0261
vn 0.8329 0.5455 0.0931
vn 0.3315 0.9300 0.1588
vn 0.3747 0.9234 0.0836
vn 0.5603 0.8226 0.0972
vn 0.8945 0.4095 -0.1796
vn 0.7328 0.5513 -0.3988
vn 0.6212 0.6818 -0.3864
vn -0.1479 0.9883 -0.0359
vn -0.8086 -0.0147 -0.5881
vn -0.5370 -0.5755 -0.6168
vn -0.1956 0.9799 0.0402
vn -0.2292 0.9716 -0.0589
vn -0.4131 0.8899 0.1934
vn -0.7461 0.6506 0.1414
vn 0.6208 0.6613 -0.4210
vn 0.3514 0.8773 -0.3270
vn 0.9704 0.1580 -0.1826
vn 0.3045 0.9525 0.0084
vn 0.4357 0.8779 0.1986
vn -0.1207 0.9910 0.0572
vn 0.6637 0.6787 -0.3144
vn 0.6733 0.4790 -0.5632
vn 0.1756 0.8739 -0.4533
vn -0.6730 -0.5194 -0.5267
vn -0.8231 0.5605 0.0917
vn -0.9263 0.3428 0.1562
vn -0.9467 -0.3173 0.0558
vn -0.8803 -0.4635 -0.1013
vn -0.8305 0.4983 0.2491
vn -0.9691 0.1058 0.2228
vn -0.9954 -0.0917 -0.0262
vn -0.8857 0.4464 0.1275
vn -0.9752 0.2083 -0.0754
vn -0.1464 -0.0771 -0.9862
vn -0.4658 0.8691 -0.1664
vn 0.3972 0.7982 -0.4528
vn 0.6339 0.5751 -0.5172
vn 0.0709 0.9975 -0.0074
vn 0.0667 0.9977 -0.0099
vn 0.0605 0.9982 0.0043
vn 0.0919 0.9957 0.0066
vn 0.0705 0.9972 0.0251
vn 0.0448 0.9987 0.0231
vn 0.0406 0.9991 0.0146
vn 0.0390 0.9991 0.0179
vn 0.0788 0.9962 0.0362
vn 0.0748 0.9957 0.0542
vn 0.0606 0.9966 0.0551
vn 0.0816 0.9939 0.0742
vn 0.3282 0.9437 -0.0410
vn 0.9614 -0.2474 -0.1202
vn 0.9816 -0.1719 -0.0835
vn 0.9873 -0.1179 -0.1064
vn 0.9679 -0.2275 0.1070
vn 0.9308 0.0143 0.3652
vn 0.9021 0.4004 0.1607
vn 0.7954 0.5477 0.2596
vn 0.8551 0.3040 -0.4199
vn 0.6887 0.7245 0.0272
vn 0.9189 0.3808 0.1029
vn 0.9891 0.1419 0.0383
vn 0.9852 -0.1115 0.1301
vn 0.9744 -0.1871 0.1247
vn 0.8920 -0.4519 0.0089
vn 0.1200 0.9905 0.0669
vn 0.1304 0.9808 0.1449
vn 0.0540 0.9967 0.0600
vn 0.0688 0.9958 0.0611
vn 0.0653 0.9941 0.0871
vn 0.0523 0.9951 0.0843
vn 0.0788 0.9954 0.0549
vn 0.0758 0.9956 0.0553
vn 0.0533 0.9958 0.0741
vn -0.3314 0.8151 -0.4752
vn -0.1815 0.8822 -0.4345
vn -0.0480 0.9882 -0.1452
vn -0.3312 0.8161 -0.4736
vn -0.1249 0.9810 -0.1484
vn -0.1204 0.9772 -0.1747
vn -0.1628 0.9720 -0.1696
vn -0.1630 0.9719 -0.1699
vn 0.0521 0.9957 0.0764
vn 0.0467 0.9954 0.0839
vn 0.0469 0.9956 0.0816
vn 0.0688 0.9954 0.0666
vn -0.0567 0.9952 -0.0801
vn -0.1447 0.9893 0.0171
vn -0.0184 0.9998 0.0115
vn 0.0935 0.9939 -0.0585
vn 0.0216 0.9991 0.0378
vn -0.0067 0.9994 0.0335
vn -0.0025 0.9991 0.0423
vn -0.0039 0.9979 0.0646
vn -0.0138 0.9988 0.0477
vn 0.0230 0.9981 0.0571
vn 0.0229 0.9980 0.0581
vn 0.0087 0.9981 0.0608
vn 0.0354 0.9981 0.0507
vn 0.0311 0.9967 0.0744
vn 0.0154 0.9954 0.0947
vn 0.0425 0.9939 0.1019
vn 0.0118 0.9925 0.1217
vn 0.0386 0.9979 0.0525
vn 0.0130 0.9992 0.0378
vn 0.0320 0.9965 0.0769
vn 0.0379 0.9956 0.0853
vn 0.0338 0.9959 0.0844
vn 0.0239 0.9979 0.0598
vn 0.0387 0.9968 0.0704
vn -0.0020 0.9967 0.0813
vn 0.0031 0.9963 0.0857
vn -0.1957 0.9785 0.0652
vn 0.0469 0.9916 0.1206
vn -0.6204 -0.0327 0.7836
vn -0.6501 -0.0587 0.7576
vn -0.0020 -0.0417 0.9991
vn -0.0086 -0.0476 0.9988
vn 0.5383 -0.0401 0.8418
vn 0.5653 -0.0668 0.8222
vn 0.0628 0.9938 0.0914
vn 0.0588 0.9931 0.1013
vn 0.0606 0.9929 0.1020
vn 0.0624 0.9934 0.0966
vn 0.0434 0.9964 0.0730
vn -0.0516 0.9979 0.0379
vn 0.0405 0.9963 0.0764
vn 0.0421 0.9953 0.0874
vn 0.7059 -0.5166 0.4846
vn 0.8788 -0.0812 0.4702
vn 0.8993 -0.4072 -0.1595
vn 0.8746 -0.4796 0.0705
vn 0.3460 -0.2625 0.9008
vn 0.7220 -0.0382 0.6908
vn 0.5575 0.2756 0.7831
vn 0.7319 0.4622 0.5007
vn 0.8348 0.4719 0.2834
vn 0.6596 0.7453 0.0972
vn 0.8859 -0.1346 0.4439
vn 0.8434 -0.3526 0.4054
vn 0.6678 -0.5806 0.4657
vn 0.3356 -0.2397 0.9110
vn 0.5529 0.7566 0.3492
vn 0.9779 0.1236 -0.1686
vn 0.5643 -0.7447 0.3564
vn 0.5657 -0.7518 0.3387
vn 0.6279 0.5164 0.5823
vn 0.6361 0.5022 0.5859
vn 0.6279 0.5165 0.5823
vn 0.0507 0.9942 0.0946
vn 0.0497 0.9938 0.0994
vn 0.0420 0.9961 0.0782
vn -0.4001 0.8806 -0.2539
vn -0.4001 0.8806 -0.2540
vn 0.4106 -0.8475 0.3364
vn -0.9266 -0.0054 -0.3761
vn -0.9266 -0.0055 -0.3761
vn 0.0498 0.9954 0.0816
vn -0.7601 0.5517 -0.3433
vn 0.0652 0.9934 0.0939
vn 0.0620 0.9930 0.1004
vn 0.1345 0.9880 0.0757
vn 0.8698 -0.0647 0.4892
vn 0.8321 -0.0000 0.5547
vn 0.0474 0.9950 0.0880
vn 0.0384 0.9902 0.1346
vn -0.9088 -0.0174 0.4168
vn 0.0349 0.9953 0.0898
vn -0.9462 -0.0728 0.3154
vn -0.5586 0.7912 -0.2488
vn -0.4395 0.8901 -0.1205
vn -0.4395 0.8902 -0.1204
vn -0.2411 0.9699 -0.0329
vn -0.0954 0.9954 -0.0130
vn -0.2650 0.9640 -0.0225
vn -0.2650 0.9640 -0.0226
vn -0.1885 0.9821 -0.0047
vn -0.2248 0.9742 0.0176
vn -0.0366 0.9980 0.0522
vn -0.0372 0.9976 0.0577
vn -0.0467 0.9961 0.0754
vn -0.0540 0.9979 0.0355
vn -0.0851 0.9951 0.0510
vn -0.0073 0.9983 0.0581
vn -0.0083 0.9982 0.0591
vn -0.1444 0.9886 0.0437
vn -0.1443 0.9886 0.0438
vn -0.4345 0.8971 -0.0798
vn 0.0581 0.9971 0.0494
vn 0.0067 0.9991 0.0414
vn 0.0215 0.9981 0.0580
vn -0.0125 0.9990 0.0431
vn -0.0589 0.9959 0.0681
vn -0.0497 0.9982 0.0349
vn -0.1463 0.9888 0.0312
vn -0.1735 0.9831 -0.0578
vn -0.4014 0.8809 -0.2510
vn 0.0336 0.9974 0.0635
vn 0.6185 0.6673 0.4150
vn -0.3957 0.8206 -0.4123
vn -0.1447 0.9893 0.0170
vn -0.4319 0.7070 -0.5601
vn 0.0419 0.9960 0.0784
vn 0.0678 0.9958 0.0619
vn 0.8415 -0.4495 0.2997
vn 0.9424 0.1679 0.2893
vn 0.9148 0.3013 0.2691
vn 0.9745 0.0960 -0.2030
vn 0.4013 0.9131 -0.0716
vn 0.2957 0.9529 -0.0670
vn 0.5308 0.8466 0.0398
vn 0.8935 0.1631 -0.4184
vn 0.2626 0.8782 -0.3997
vn -0.1103 0.9918 -0.0644
vn 0.3746 0.6556 -0.6556
vn 0.1136 0.9316 -0.3454
vn -0.5026 -0.5744 -0.6462
vn 0.4930 0.8154 -0.3034
vn 0.5751 0.6888 -0.4414
vn 0.8189 0.5563 -0.1412
vn 0.8239 0.3438 -0.4504
vn 0.9005 0.4245 0.0943
vn 0.9869 0.1577 0.0350
vn 0.9604 0.0046 -0.2785
vn 0.9848 0.1738 -0.0000
vn 0.7520 0.2695 -0.6016
vn 0.8191 0.5313 -0.2163
vn 0.8982 -0.1824 -0.4000
vn 0.1384 0.9888 0.0562
vn 0.9742 0.2179 -0.0597
vn 0.7800 -0.0459 -0.6240
vn 0.7637 0.6440 0.0456
vn 0.0712 0.9975 -0.0000
vn 0.0657 0.9968 0.0458
vn 0.0598 0.9973 0.0433
vn 0.0685 0.9968 0.0413
vn 0.0579 0.9976 0.0392
vn 0.0658 0.9968 0.0446
vn 0.0876 0.9956 0.0339
vn 0.1105 0.9930 0.0428
vn 0.1192 0.9923 0.0329
vn 0.1076 0.9936 0.0334
vn 0.2218 0.9729 -0.0655
vn 0.2158 0.9755 -0.0432
vn 0.2184 0.9752 -0.0362
vn 0.4614 0.8448 -0.2709
vn 0.3405 0.8913 -0.2996
vn 0.3227 0.8912 -0.3188
vn 0.4389 0.8405 -0.3175
vn 0.4310 0.8534 -0.2931
vn 0.2288 0.9610 -0.1556
vn 0.2932 0.9432 -0.1561
vn 0.1333 0.9899 -0.0476
vn 0.0905 0.9959 -0.0000
vn 0.1125 0.9936 -0.0096
vn 0.1037 0.9941 0.0305
vn 0.0905 0.9955 0.0266
vn 0.0716 0.9955 0.0614
vn 0.0844 0.9963 0.0131
vn 0.0499 0.9986 -0.0166
vn 0.0557 0.9984 -0.0089
vn 0.0645 0.9979 -0.0103
vn 0.0683 0.9976 -0.0137
vn 0.0602 0.9981 -0.0157
vn 0.0703 0.9953 -0.0670
vn 0.1076 0.9927 -0.0544
vn 0.1014 0.9935 -0.0527
vn 0.0698 0.9975 -0.0050
vn 0.2360 0.8307 -0.5042
vn 0.1605 0.9869 0.0180
vn 0.2876 0.9566 -0.0470
vn 0.4178 0.9060 -0.0682
vn 0.4952 0.8633 -0.0973
vn 0.6191 0.7504 -0.2314
vn 0.4328 0.8722 -0.2280
vn 0.4776 0.8734 -0.0955
vn 0.3276 0.8566 -0.3987
vn 0.3680 0.8375 -0.4038
vn 0.3276 0.8566 -0.3986
vn 0.1861 0.9653 -0.1830
vn 0.1672 0.9700 -0.1762
vn 0.3297 0.8179 -0.4715
vn 0.2591 0.8546 -0.4500
vn 0.1701 0.8676 -0.4673
vn 0.1414 0.9001 -0.4122
vn 0.0866 0.9954 0.0406
vn 0.1264 0.8572 -0.4993
vn 0.0977 0.9950 0.0216
vn 0.2367 0.8349 -0.4969
vn 0.0549 0.9968 -0.0578
vn 0.1813 0.9618 -0.2050
vn 0.1027 0.9947 0.0064
vn 0.1852 0.9612 -0.2044
vn 0.5607 0.7843 -0.2654
vn 0.4615 0.8447 -0.2713
vn 0.1949 0.9802 -0.0356
vn 0.2725 0.9595 -0.0711
vn 0.0905 0.9957 0.0181
vn 0.0918 0.9956 0.0175
vn 0.0663 0.9977 0.0156
vn 0.0644 0.9977 0.0232
vn 0.0745 0.9972 0.0016
vn 0.0535 0.9985 -0.0111
vn 0.0980 0.9945 0.0357
vn 0.8704 0.2148 -0.4431
vn 0.0661 0.9978 -0.0096
vn 0.6829 0.5534 -0.4769
vn 0.3926 0.8061 -0.4427
vn 0.0178 0.9385 -0.3447
vn -0.6457 0.7599 0.0745
vn -0.6454 0.7607 0.0692
vn -0.9922 0.1233 -0.0185
vn -0.8534 -0.5164 0.0707
vn -0.9660 0.2553 -0.0414
vn -0.5119 -0.8358 -0.1985
vn -0.8328 0.5267 0.1703
vn -0.8502 -0.3604 -0.3838
vn -0.6854 0.7091 0.1655
vn -0.7784 0.6271 0.0284
vn -0.4042 0.9145 -0.0162
vn -0.3673 0.9195 0.1400
vn -0.0827 0.9966 -0.0062
vn 0.9502 0.1536 -0.2711
vn 0.6549 0.7548 0.0371
vn -0.1730 0.9829 0.0635
vn -0.8473 0.5301 -0.0321
vn 0.4338 0.8811 0.1885
vn 0.3464 0.9381 0.0013
vn 0.7305 0.4639 0.5012
vn 0.7623 0.6472 -0.0072
vn -0.1279 0.9735 -0.1896
vn 0.6096 0.7478 0.2628
vn 0.6206 0.7297 0.2871
vn 0.8541 0.4485 0.2636
vn 0.6206 0.7296 0.2872
vn 0.9805 0.1904 -0.0494
vn -0.6273 -0.7135 -0.3122
vn -0.7786 -0.4577 -0.4293
vn -0.7424 -0.1954 -0.6408
vn -0.5383 -0.4785 -0.6938
vn -0.5917 0.8061 0.0086
vn -0.6105 0.7920 -0.0110
vn 0.0079 0.9983 0.0582
vn 0.9989 -0.0474 -0.0030
vn 0.1814 0.9678 0.1747
vn 0.1788 0.9836 0.0224
vn -0.9993 -0.0384 -0.0000
vn -0.5094 0.0465 -0.8593
vn -0.9961 -0.0586 -0.0659
vn 0.0386 0.9968 0.0704
vn -0.0026 0.9955 0.0946
vn 0.0269 0.9983 0.0523
vn 0.0224 0.9981 0.0578
vn 0.0198 0.9981 0.0577
vn 0.0249 0.9991 0.0354
vn -0.0254 0.9993 0.0291
vn -0.0330 0.9994 0.0048
vn 0.0093 0.9990 0.0432
vn 0.0169 0.9996 0.0207
vn 0.0287 0.9992 -0.0268
vn -0.0597 0.9918 -0.1128
vn 0.0094 0.9997 0.0208
vn 0.0130 0.9968 -0.0792
vn 0.0687 0.9940 0.0849
vn 0.0742 0.9958 0.0530
vn 0.0590 0.9956 0.0731
vn 0.0660 0.9969 0.0438
vn 0.0567 0.8730 -0.4845
vn -0.0064 0.7907 -0.6122
vn -0.0817 0.9031 -0.4216
vn 0.0567 0.8729 -0.4845
vn 0.0710 0.9941 -0.0817
vn 0.0699 0.9975 -0.0050
vn 0.0517 0.9986 -0.0146
vn -0.3171 0.9315 -0.1784
vn 0.0578 0.9980 -0.0255
vn 0.0491 0.9987 0.0140
vn 0.0675 0.9977 0.0059
vn -0.9340 -0.2440 0.2609
vn -0.9759 -0.0639 -0.2088
vn 0.0450 0.9986 0.0294
vn 0.0486 0.9966 0.0668
vn 0.0509 0.9986 0.0102
vn -0.9963 -0.0805 -0.0310
vn -0.9663 -0.2151 0.1413
vn -0.8819 -0.4658 -0.0725
vn -0.7743 0.6325 0.0196
vn -0.9140 -0.1395 -0.3810
vn -0.9856 0.0988 -0.1375
vn -0.8368 0.5397 -0.0918
vn -0.9880 -0.0944 -0.1225
vn -0.8545 -0.3519 -0.3820
vn -0.8654 0.0186 -0.5007
vn -0.5551 -0.5664 -0.6091
vn -0.8178 0.5403 -0.1983
vn -0.4980 -0.8232 -0.2724
vn 0.4806 0.8199 -0.3110
vt 0.000000 0.000000
vt 0.202637 0.190430
vt 0.190674 0.200439
vt 0.187012 0.198730
vt 0.198975 0.187744
vt 0.182861 0.192139
vt 0.191406 0.187256
vt 0.194336 0.183350
vt 0.186035 0.185303
vt 0.183105 0.177002
vt 0.177246 0.180664
vt 0.170654 0.184326
vt 0.164795 0.183838
vt 0.683105 0.488281
vt 0.674316 0.473633
vt 0.683350 0.481934
vt 0.684570 0.474365
vt 0.687988 0.479492
vt 0.688477 0.484619
vt 0.694824 0.478271
vt 0.697266 0.462646
vt 0.709473 0.475586
vt 0.718018 0.455078
vt 0.707520 0.451172
vt 0.697754 0.456787
vt 0.700195 0.440430
vt 0.709229 0.434570
vt 0.726318 0.437256
vt 0.726318 0.418213
vt 0.701416 0.421387
vt 0.713135 0.410889
vt 0.697754 0.416016
vt 0.705078 0.401855
vt 0.688965 0.405518
vt 0.702393 0.397705
vt 0.715576 0.396729
vt 0.727539 0.403564
vt 0.728152 0.400236
vt 0.716597 0.396547
vt 0.614265 0.427934
vt 0.627441 0.430908
vt 0.615161 0.431620
vt 0.620850 0.439453
vt 0.616093 0.435942
vt 0.616585 0.439033
vt 0.617021 0.440930
vt 0.619173 0.446935
vt 0.626465 0.450439
vt 0.620781 0.452492
vt 0.742309 0.401257
vt 0.745914 0.400873
vt 0.742188 0.402588
vt 0.733135 0.401218
vt 0.738770 0.409912
vt 0.736084 0.427979
vt 0.745605 0.416992
vt 0.750488 0.410645
vt 0.062012 0.769287
vt 0.067383 0.769775
vt 0.061523 0.773438
vt 0.065674 0.774902
vt 0.751953 0.425049
vt 0.745361 0.430664
vt 0.170410 0.953857
vt 0.173584 0.949707
vt 0.177002 0.952148
vt 0.175781 0.959473
vt 0.170166 0.958740
vt 0.166016 0.959717
vt 0.161865 0.954346
vt 0.166992 0.949951
vt 0.158203 0.951416
vt 0.749023 0.464844
vt 0.739746 0.462158
vt 0.747314 0.447021
vt 0.730713 0.449707
vt 0.726074 0.468750
vt 0.734619 0.479004
vt 0.742920 0.478027
vt 0.170410 0.114990
vt 0.180664 0.124023
vt 0.166504 0.124268
vt 0.175781 0.135254
vt 0.169189 0.131836
vt 0.725586 0.480957
vt 0.723145 0.477539
vt 0.721191 0.484619
vt 0.167969 0.136719
vt 0.159912 0.132324
vt 0.170654 0.139404
vt 0.171875 0.151367
vt 0.166748 0.158447
vt 0.161133 0.157959
vt 0.708252 0.487305
vt 0.709229 0.483398
vt 0.713623 0.480713
vt 0.718018 0.481689
vt 0.713379 0.476318
vt 0.717285 0.475098
vt 0.702148 0.482178
vt 0.170166 0.164551
vt 0.164551 0.165527
vt 0.170166 0.172607
vt 0.694580 0.485352
vt 0.694092 0.483398
vt 0.166260 0.179199
vt 0.182129 0.172119
vt 0.192383 0.171143
vt 0.191650 0.178467
vt 0.196533 0.170654
vt 0.198486 0.179443
vt 0.204898 0.176175
vt 0.205231 0.172128
vt 0.219638 0.617304
vt 0.218597 0.618097
vt 0.218262 0.610107
vt 0.226318 0.614502
vt 0.221850 0.619725
vt 0.223505 0.621536
vt 0.226546 0.624047
vt 0.224398 0.623093
vt 0.232761 0.625375
vt 0.232651 0.625354
vt 0.232666 0.625244
vt 0.199568 0.222505
vt 0.199463 0.222656
vt 0.199219 0.216309
vt 0.200400 0.216094
vt 0.204054 0.189982
vt 0.203504 0.187659
vt 0.203784 0.185186
vt 0.204597 0.180566
vt 0.204225 0.191159
vt 0.205228 0.196378
vt 0.314649 0.804449
vt 0.314501 0.804618
vt 0.313965 0.804199
vt 0.316085 0.802433
vt 0.313797 0.803795
vt 0.204395 0.202309
vt 0.203857 0.202881
vt 0.193359 0.208252
vt 0.191895 0.211426
vt 0.201147 0.213162
vt 0.203927 0.204069
vt 0.190186 0.217773
vt 0.182617 0.207764
vt 0.185303 0.219238
vt 0.180176 0.208740
vt 0.168945 0.198486
vt 0.172607 0.198730
vt 0.170654 0.210693
vt 0.161621 0.197510
vt 0.658691 0.481689
vt 0.673584 0.475342
vt 0.673584 0.479736
vt 0.663086 0.474609
vt 0.176025 0.214600
vt 0.166748 0.213135
vt 0.160645 0.221924
vt 0.658691 0.468750
vt 0.664551 0.468018
vt 0.674316 0.462891
vt 0.669678 0.459961
vt 0.680176 0.453857
vt 0.680420 0.457520
vt 0.687256 0.461914
vt 0.692139 0.450928
vt 0.692627 0.463135
vt 0.695313 0.453125
vt 0.692139 0.442871
vt 0.695801 0.437256
vt 0.697021 0.429932
vt 0.693848 0.430908
vt 0.689453 0.428711
vt 0.684814 0.429688
vt 0.682129 0.423828
vt 0.681641 0.416748
vt 0.669678 0.422363
vt 0.664795 0.433105
vt 0.655273 0.427246
vt 0.661621 0.413574
vt 0.648193 0.418701
vt 0.647705 0.426514
vt 0.647461 0.438232
vt 0.639648 0.435791
vt 0.642090 0.446777
vt 0.650146 0.446777
vt 0.655029 0.443115
vt 0.647949 0.453125
vt 0.657715 0.448730
vt 0.646973 0.463623
vt 0.643311 0.458496
vt 0.640625 0.465088
vt 0.647217 0.467285
vt 0.656494 0.462402
vt 0.646729 0.471680
vt 0.646973 0.484375
vt 0.233398 0.592773
vt 0.229492 0.587402
vt 0.237793 0.581543
vt 0.232422 0.577393
vt 0.220459 0.589600
vt 0.220459 0.581787
vt 0.642822 0.468994
vt 0.638672 0.479004
vt 0.216797 0.572998
vt 0.228516 0.570801
vt 0.213135 0.592529
vt 0.210892 0.578516
vt 0.207182 0.589553
vt 0.212847 0.572624
vt 0.213965 0.569137
vt 0.214922 0.562113
vt 0.223633 0.562256
vt 0.631348 0.458984
vt 0.630127 0.470947
vt 0.632813 0.442871
vt 0.068831 0.767571
vt 0.063965 0.767334
vt 0.063684 0.766866
vt 0.057373 0.768555
vt 0.068848 0.767578
vt 0.071289 0.771240
vt 0.072745 0.767843
vt 0.070295 0.767668
vt 0.204222 0.595546
vt 0.208740 0.603027
vt 0.202530 0.600252
vt 0.204346 0.608887
vt 0.200800 0.603384
vt 0.198747 0.608507
vt 0.198454 0.609231
vt 0.197948 0.613264
vt 0.197021 0.612771
vt 0.178898 0.963158
vt 0.178936 0.963113
vt 0.179199 0.959229
vt 0.173584 0.965332
vt 0.168945 0.962646
vt 0.171143 0.965576
vt 0.167480 0.966064
vt 0.163330 0.966064
vt 0.162598 0.958740
vt 0.159180 0.965820
vt 0.157227 0.960449
vt 0.156494 0.955566
vt 0.152832 0.959717
vt 0.151726 0.960492
vt 0.152125 0.961178
vt 0.149353 0.957100
vt 0.148119 0.955395
vt 0.148926 0.955322
vt 0.153564 0.953857
vt 0.150391 0.951904
vt 0.151855 0.949463
vt 0.145342 0.951128
vt 0.146885 0.953486
vt 0.195753 0.143996
vt 0.184082 0.144043
vt 0.194563 0.141874
vt 0.189816 0.132804
vt 0.189733 0.132180
vt 0.189536 0.131530
vt 0.187411 0.121131
vt 0.144557 0.950311
vt 0.146484 0.947998
vt 0.178955 0.140869
vt 0.180908 0.148926
vt 0.173340 0.142822
vt 0.174072 0.147461
vt 0.179688 0.156250
vt 0.171631 0.155518
vt 0.176270 0.160645
vt 0.181641 0.162842
vt 0.191895 0.161133
vt 0.183594 0.170166
vt 0.197266 0.167969
vt 0.199951 0.156738
vt 0.205724 0.165525
vt 0.202780 0.159484
vt 0.214387 0.619808
vt 0.214111 0.611816
vt 0.214867 0.618892
vt 0.217581 0.618871
vt 0.209717 0.605469
vt 0.217773 0.606689
vt 0.214355 0.602051
vt 0.222168 0.602783
vt 0.227051 0.610352
vt 0.229736 0.609375
vt 0.173340 0.220215
vt 0.205078 0.612549
vt 0.206915 0.617141
vt 0.210802 0.618591
vt 0.202189 0.615483
vt 0.203047 0.616306
vt 0.203642 0.617036
vt 0.199461 0.152256
vt 0.200778 0.155376
vt 0.188965 0.151855
vt 0.201188 0.156254
vt 0.171204 0.968437
vt 0.173869 0.966117
vt 0.170654 0.968506
vt 0.206338 0.167194
vt 0.206106 0.166680
vt 0.170094 0.969098
vt 0.166746 0.970482
vt 0.166748 0.970459
vt 0.164795 0.969482
vt 0.163029 0.971641
vt 0.166399 0.970603
vt 0.158959 0.971775
vt 0.161990 0.971836
vt 0.159396 0.972366
vt 0.159912 0.970703
vt 0.157153 0.968793
vt 0.158380 0.970873
vt 0.155942 0.967161
vt 0.155691 0.966805
vt 0.156006 0.966553
vt 0.155568 0.966622
vt 0.154878 0.965523
vt 0.158836 0.971583
vt 0.068856 0.767575
vt 0.178956 0.963111
vt 0.668457 0.450195
vt 0.672852 0.448242
vt 0.678467 0.440674
vt 0.687500 0.439941
vt 0.687500 0.437500
vt 0.670410 0.442383
vt 0.665039 0.441650
vt 0.660645 0.445801
vt 0.657715 0.439941
vt 0.638184 0.424561
vt 0.627930 0.420898
vt 0.620117 0.421631
vt 0.627441 0.408447
vt 0.616211 0.411377
vt 0.619873 0.405273
vt 0.622803 0.401855
vt 0.632568 0.400146
vt 0.628092 0.397991
vt 0.624702 0.398934
vt 0.649781 0.394573
vt 0.646240 0.398682
vt 0.644607 0.394761
vt 0.640869 0.396729
vt 0.642339 0.394768
vt 0.636699 0.395895
vt 0.632416 0.396949
vt 0.637939 0.402100
vt 0.651611 0.400635
vt 0.637939 0.409668
vt 0.646729 0.412842
vt 0.636963 0.414795
vt 0.654541 0.406494
vt 0.659912 0.401123
vt 0.664063 0.404541
vt 0.676270 0.407715
vt 0.676758 0.398193
vt 0.684814 0.398193
vt 0.681075 0.396611
vt 0.675584 0.396834
vt 0.612300 0.418488
vt 0.611725 0.414581
vt 0.610861 0.411499
vt 0.613770 0.407227
vt 0.610499 0.410424
vt 0.609826 0.408136
vt 0.609736 0.407775
vt 0.617827 0.402375
vt 0.615745 0.403427
vt 0.619007 0.401381
vt 0.665088 0.395233
vt 0.653809 0.395752
vt 0.654898 0.394663
vt 0.666748 0.395996
vt 0.667608 0.395488
vt 0.686428 0.396432
vt 0.691011 0.396081
vt 0.698967 0.396114
vt 0.612858 0.421249
vt 0.703202 0.396389
vt 0.684814 0.468262
vt 0.679199 0.463867
vt 0.232178 0.614258
vt 0.232610 0.625337
vt 0.172607 0.112305
vt 0.058615 0.767668
vt 0.622923 0.462269
vt 0.621477 0.455106
vt 0.714894 0.396334
s 0
usemtl Mat_0
f 364/33/28 255/33/28 256/33/28
f 364/33/28 256/33/28 365/33/28
f 367/33/28 366/33/28 293/33/28
f 402/33/28 367/33/28 293/33/28
f 402/33/28 293/33/28 273/33/28
f 402/33/28 273/33/28 403/33/28
f 369/33/28 370/33/28 255/33/28
f 368/33/28 369/33/28 255/33/28
f 371/33/28 255/33/28 370/33/28
f 371/33/28 257/33/28 255/33/28
f 371/33/28 372/33/28 257/33/28
f 372/33/28 373/33/28 257/33/28
f 458/33/28 257/33/28 373/33/28
f 458/33/28 376/33/28 258/33/28
f 374/33/28 258/33/28 376/33/28
f 374/33/28 277/33/28 258/33/28
f 443/33/28 442/33/28 274/33/28
f 408/33/28 443/33/28 274/33/28
f 408/33/28 274/33/28 276/33/28
f 408/33/28 276/33/28 406/33/28
f 407/33/28 405/33/28 276/33/28
f 407/33/28 276/33/28 277/33/28
f 407/33/28 277/33/28 375/33/28
f 405/33/28 406/33/28 276/33/28
f 409/33/28 278/33/28 279/33/28
f 409/33/28 279/33/28 410/33/28
f 445/33/28 411/33/28 279/33/28
f 445/33/28 279/33/28 275/33/28
f 445/33/28 275/33/28 444/33/28
f 420/33/28 307/33/28 290/33/28
f 420/33/28 290/33/28 421/33/28
f 421/33/28 290/33/28 281/33/28
f 421/33/28 281/33/28 422/33/28
f 416/33/28 422/33/28 281/33/28
f 416/33/29 281/33/29 280/33/29
f 416/33/30 280/33/30 415/33/30
f 412/33/31 413/33/31 278/33/31
f 414/33/32 278/33/32 413/33/32
f 414/33/33 280/33/33 278/33/33
f 414/33/34 415/33/34 280/33/34
f 339/33/28 337/33/28 286/33/28
f 339/33/28 286/33/28 285/33/28
f 339/33/28 285/33/28 340/33/28
f 315/33/28 340/33/28 285/33/28
f 315/33/28 285/33/28 284/33/28
f 315/33/28 284/33/28 314/33/28
f 309/33/28 310/33/28 290/33/28
f 308/33/28 309/33/28 290/33/28
f 310/33/28 311/33/28 290/33/28
f 311/33/28 312/33/28 290/33/28
f 313/33/28 290/33/28 312/33/28
f 313/33/28 284/33/28 290/33/28
f 313/33/28 314/33/28 284/33/28
f 344/33/28 287/33/28 288/33/28
f 344/33/28 288/33/28 341/33/28
f 341/33/28 288/33/28 286/33/28
f 341/33/28 286/33/28 338/33/28
f 344/33/28 343/33/28 287/33/28
f 342/33/28 287/33/28 343/33/28
f 342/33/28 345/33/28 289/33/28
f 345/33/28 348/33/28 289/33/28
f 342/33/28 289/33/28 287/33/28
f 337/33/28 338/33/28 286/33/28
f 307/33/28 308/33/28 290/33/28
f 440/33/28 441/33/28 274/33/28
f 444/33/35 274/33/35 441/33/35
f 444/33/28 275/33/28 274/33/28
f 411/33/28 410/33/28 279/33/28
f 409/33/28 412/33/28 278/33/28
f 442/33/28 440/33/28 274/33/28
f 265/33/29 259/33/29 260/33/29
f 261/33/28 265/33/28 260/33/28
f 265/33/28 261/33/28 291/33/28
f 259/33/28 262/33/28 264/33/28
f 262/33/28 259/33/28 263/33/28
f 395/33/28 266/33/28 267/33/28
f 395/33/28 267/33/28 396/33/28
f 454/33/28 283/33/28 455/33/28
f 454/33/28 269/33/28 283/33/28
f 283/33/28 269/33/28 292/33/28
f 283/33/36 292/33/36 282/33/36
f 292/33/37 261/33/37 282/33/37
f 451/33/28 267/33/28 268/33/28
f 451/33/28 268/33/28 452/33/28
f 452/33/38 269/33/38 453/33/38
f 452/33/36 268/33/36 269/33/36
f 454/33/28 453/33/28 269/33/28
f 397/33/28 398/33/28 270/33/28
f 397/33/28 270/33/28 266/33/28
f 457/33/28 270/33/28 398/33/28
f 457/33/28 271/33/28 270/33/28
f 399/33/28 272/33/28 271/33/28
f 399/33/28 271/33/28 401/33/28
f 399/33/28 400/33/28 272/33/28
f 404/33/28 272/33/28 400/33/28
f 404/33/28 273/33/28 272/33/28
f 457/33/28 401/33/28 271/33/28
f 451/33/28 396/33/28 267/33/28
f 397/33/28 266/33/28 395/33/28
f 261/33/28 292/33/28 291/33/28
f 259/33/28 265/33/28 263/33/28
f 374/33/28 375/33/28 277/33/28
f 458/33/28 258/33/28 257/33/28
f 404/33/28 403/33/28 273/33/28
f 365/33/28 293/33/28 366/33/28
f 365/33/28 256/33/28 293/33/28
f 364/33/28 368/33/28 255/33/28
f 377/33/39 297/33/39 298/33/39
f 377/33/39 298/33/39 378/33/39
f 379/33/39 335/33/39 297/33/39
f 297/33/39 335/33/39 299/33/39
f 299/33/39 335/33/39 333/33/39
f 299/33/40 333/33/40 332/33/40
f 334/33/41 299/33/41 332/33/41
f 301/33/39 334/33/39 306/33/39
f 301/33/39 306/33/39 294/33/39
f 294/33/39 306/33/39 305/33/39
f 294/33/39 305/33/39 295/33/39
f 305/33/39 296/33/39 295/33/39
f 296/33/39 305/33/39 304/33/39
f 303/33/39 296/33/39 304/33/39
f 363/33/39 303/33/39 302/33/39
f 296/33/42 303/33/42 363/33/42
f 334/33/39 301/33/39 300/33/39
f 424/33/39 307/33/39 423/33/39
f 420/33/39 423/33/39 307/33/39
f 317/33/42 341/33/42 316/33/42
f 316/33/39 341/33/39 318/33/39
f 341/33/39 319/33/39 318/33/39
f 339/33/39 361/33/39 362/33/39
f 339/33/39 362/33/39 337/33/39
f 321/33/39 315/33/39 314/33/39
f 313/33/39 321/33/39 314/33/39
f 321/33/39 313/33/39 358/33/39
f 322/33/39 315/33/39 320/33/39
f 360/33/39 315/33/39 322/33/39
f 340/33/39 360/33/39 359/33/39
f 361/33/39 340/33/39 359/33/39
f 324/33/39 311/33/39 323/33/39
f 417/33/39 323/33/39 311/33/39
f 417/33/43 311/33/43 418/33/43
f 329/33/39 330/33/39 328/33/39
f 330/33/39 329/33/39 310/33/39
f 309/33/39 330/33/39 310/33/39
f 327/33/39 309/33/39 308/33/39
f 307/33/39 327/33/39 308/33/39
f 309/33/39 327/33/39 336/33/39
f 331/33/39 309/33/39 336/33/39
f 312/33/39 357/33/39 313/33/39
f 357/33/39 312/33/39 355/33/39
f 312/33/42 356/33/42 355/33/42
f 311/33/39 356/33/39 312/33/39
f 330/33/39 309/33/39 331/33/39
f 419/33/39 310/33/39 329/33/39
f 446/33/44 325/33/44 447/33/44
f 447/33/39 325/33/39 323/33/39
f 446/33/39 326/33/39 325/33/39
f 446/33/39 431/33/39 326/33/39
f 431/33/39 432/33/39 326/33/39
f 433/33/39 326/33/39 432/33/39
f 433/33/39 298/33/39 326/33/39
f 419/33/39 329/33/39 426/33/39
f 418/33/45 310/33/45 419/33/45
f 418/33/39 311/33/39 310/33/39
f 447/33/46 323/33/46 417/33/46
f 356/33/39 311/33/39 324/33/39
f 313/33/39 357/33/39 358/33/39
f 315/33/39 321/33/39 320/33/39
f 315/33/39 360/33/39 340/33/39
f 317/33/39 342/33/39 343/33/39
f 317/33/39 345/33/39 342/33/39
f 349/33/39 345/33/39 350/33/39
f 350/33/39 345/33/39 351/33/39
f 351/33/39 345/33/39 352/33/39
f 353/33/39 345/33/39 354/33/39
f 352/33/39 345/33/39 353/33/39
f 347/33/39 345/33/39 349/33/39
f 346/33/47 345/33/47 347/33/47
f 345/33/39 346/33/39 348/33/39
f 345/33/39 317/33/39 354/33/39
f 317/33/39 343/33/39 344/33/39
f 362/33/39 338/33/39 337/33/39
f 338/33/39 362/33/39 319/33/39
f 340/33/39 361/33/39 339/33/39
f 338/33/39 319/33/39 341/33/39
f 341/33/39 317/33/39 344/33/39
f 424/33/39 327/33/39 307/33/39
f 299/33/39 334/33/39 300/33/39
f 433/33/39 378/33/39 298/33/39
f 379/33/39 297/33/39 377/33/39
f 388/33/48 364/33/48 365/33/48
f 388/33/49 365/33/49 366/33/49
f 367/33/48 388/33/48 366/33/48
f 391/33/48 402/33/48 403/33/48
f 404/33/48 391/33/48 403/33/48
f 404/33/48 392/33/48 391/33/48
f 369/33/48 387/33/48 386/33/48
f 369/33/48 386/33/48 370/33/48
f 385/33/48 458/33/48 373/33/48
f 458/33/48 385/33/48 384/33/48
f 458/33/48 384/33/48 376/33/48
f 430/33/49 377/33/49 378/33/49
f 430/33/48 378/33/48 429/33/48
f 379/33/50 430/33/50 434/33/50
f 435/33/48 379/33/48 434/33/48
f 443/33/48 380/33/48 381/33/48
f 443/33/48 381/33/48 442/33/48
f 380/33/48 408/33/48 406/33/48
f 380/33/48 406/33/48 405/33/48
f 407/33/48 380/33/48 405/33/48
f 375/33/48 382/33/48 407/33/48
f 375/33/48 383/33/48 382/33/48
f 374/33/48 384/33/48 383/33/48
f 374/33/48 383/33/48 375/33/48
f 407/33/48 382/33/48 380/33/48
f 438/33/49 409/33/49 410/33/49
f 438/33/51 410/33/51 411/33/51
f 445/33/48 438/33/48 411/33/48
f 437/33/48 445/33/48 444/33/48
f 437/33/52 444/33/52 441/33/52
f 441/33/48 436/33/48 437/33/48
f 421/33/48 425/33/48 424/33/48
f 423/33/49 421/33/49 424/33/49
f 425/33/53 416/33/53 415/33/53
f 425/33/54 415/33/54 414/33/54
f 425/33/55 414/33/55 413/33/55
f 425/33/56 413/33/56 412/33/56
f 409/33/48 425/33/48 412/33/48
f 427/33/57 417/33/57 418/33/57
f 427/33/58 418/33/58 419/33/58
f 427/33/48 419/33/48 426/33/48
f 428/33/48 431/33/48 427/33/48
f 427/33/48 431/33/48 446/33/48
f 427/33/59 446/33/59 447/33/59
f 432/33/49 429/33/49 433/33/49
f 429/33/49 432/33/49 428/33/49
f 428/33/48 432/33/48 431/33/48
f 427/33/49 447/33/49 417/33/49
f 425/33/48 422/33/48 416/33/48
f 421/33/48 423/33/48 420/33/48
f 425/33/48 421/33/48 422/33/48
f 425/33/48 409/33/48 439/33/48
f 440/33/48 436/33/48 441/33/48
f 440/33/48 381/33/48 436/33/48
f 445/33/48 437/33/48 438/33/48
f 409/33/48 438/33/48 439/33/48
f 381/33/48 440/33/48 442/33/48
f 380/33/48 443/33/48 408/33/48
f 394/33/49 395/33/49 396/33/49
f 451/33/48 394/33/48 396/33/48
f 394/33/48 451/33/48 450/33/48
f 455/33/50 456/33/50 454/33/50
f 448/33/48 451/33/48 452/33/48
f 448/33/50 452/33/50 453/33/50
f 454/33/49 448/33/49 453/33/49
f 454/33/49 456/33/49 449/33/49
f 448/33/60 454/33/60 449/33/60
f 451/33/48 448/33/48 450/33/48
f 394/33/48 397/33/48 395/33/48
f 397/33/48 394/33/48 393/33/48
f 397/33/48 393/33/48 398/33/48
f 401/33/48 392/33/48 399/33/48
f 392/33/48 400/33/48 399/33/48
f 401/33/48 393/33/48 392/33/48
f 393/33/48 401/33/48 457/33/48
f 393/33/48 457/33/48 398/33/48
f 429/33/48 378/33/48 433/33/48
f 430/33/48 379/33/48 377/33/48
f 384/33/49 374/33/49 376/33/49
f 371/33/48 386/33/48 385/33/48
f 385/33/48 373/33/48 372/33/48
f 371/33/48 385/33/48 372/33/48
f 386/33/48 371/33/48 370/33/48
f 387/33/48 369/33/48 368/33/48
f 364/33/48 387/33/48 368/33/48
f 367/33/48 390/33/48 389/33/48
f 392/33/49 404/33/49 400/33/49
f 402/33/48 391/33/48 390/33/48
f 402/33/48 390/33/48 367/33/48
f 388/33/48 367/33/48 389/33/48
f 364/33/48 388/33/48 387/33/48
f 31/34/61 32/35/61 33/36/61
f 34/37/62 31/34/62 33/36/62
f 33/36/63 35/38/63 34/37/63
f 35/38/64 36/39/64 34/37/64
f 37/40/65 34/37/65 36/39/65
f 38/41/66 37/40/66 36/39/66
f 39/42/67 37/40/67 38/41/67
f 40/43/68 39/42/68 38/41/68
f 40/43/69 38/41/69 41/44/69
f 42/45/70 40/43/70 41/44/70
f 41/46/71 43/47/71 42/48/71
f 42/48/72 43/47/72 44/49/72
f 42/48/73 44/49/73 45/50/73
f 42/48/74 45/50/74 46/51/74
f 47/52/75 46/51/75 45/50/75
f 47/52/76 45/50/76 48/53/76
f 49/54/77 47/52/77 48/53/77
f 50/55/78 49/54/78 48/53/78
f 51/56/79 50/55/79 48/53/79
f 51/56/80 48/53/80 52/57/80
f 51/56/81 52/57/81 53/58/81
f 53/58/82 54/59/82 51/56/82
f 55/60/83 51/56/83 54/59/83
f 56/61/84 55/60/84 54/59/84
f 56/61/85 54/59/85 57/62/85
f 58/63/86 56/61/86 57/62/86
f 58/63/87 57/62/87 59/64/87
f 60/65/88 58/63/88 59/64/88
f 59/64/89 61/66/89 60/65/89
f 61/66/90 62/67/90 60/65/90
f 62/67/91 63/68/91 60/65/91
f 60/65/92 63/68/92 64/69/92
f 255/70/93 64/69/93 63/68/93
f 255/70/94 63/68/94 256/71/94
f 392/72/95 172/73/95 391/74/95
f 391/74/96 172/73/96 171/75/96
f 391/74/96 171/75/96 390/76/96
f 389/77/97 390/76/97 171/75/97
f 388/78/98 389/77/98 171/75/98
f 387/79/99 388/78/99 171/75/99
f 387/79/100 171/75/100 170/80/100
f 387/79/100 170/80/100 386/81/100
f 258/82/101 277/83/101 65/84/101
f 258/82/102 65/84/102 64/69/102
f 258/82/103 64/69/103 257/85/103
f 65/84/104 66/86/104 64/69/104
f 66/86/105 56/61/105 64/69/105
f 66/86/106 67/87/106 56/61/106
f 68/88/107 67/87/107 66/86/107
f 68/88/108 66/86/108 69/89/108
f 69/90/109 70/91/109 68/92/109
f 70/91/109 71/93/109 68/92/109
f 68/88/110 71/94/110 72/95/110
f 73/96/111 72/97/111 71/98/111
f 73/96/112 71/98/112 74/99/112
f 73/96/113 74/99/113 75/100/113
f 73/96/114 75/100/114 76/101/114
f 76/101/115 77/102/115 73/96/115
f 77/102/116 78/103/116 73/96/116
f 77/102/117 79/104/117 78/103/117
f 79/105/118 80/106/118 78/107/118
f 78/107/119 80/106/119 81/108/119
f 78/107/120 81/108/120 72/95/120
f 72/95/121 81/108/121 67/87/121
f 67/87/122 81/108/122 55/60/122
f 55/60/123 81/108/123 50/55/123
f 82/109/124 50/55/124 81/108/124
f 81/108/125 80/106/125 82/109/125
f 83/110/126 82/109/126 80/106/126
f 83/110/127 80/106/127 84/111/127
f 84/112/128 85/113/128 83/114/128
f 83/114/129 85/113/129 86/115/129
f 83/114/130 86/115/130 87/116/130
f 87/117/131 88/118/131 83/110/131
f 89/119/132 88/118/132 87/117/132
f 87/116/133 90/120/133 89/121/133
f 89/121/134 90/120/134 91/122/134
f 91/122/135 92/123/135 89/121/135
f 89/121/136 92/123/136 93/124/136
f 89/121/137 93/124/137 94/125/137
f 94/126/138 95/127/138 89/119/138
f 89/119/139 95/127/139 96/128/139
f 89/119/140 96/128/140 97/129/140
f 97/129/141 96/128/141 98/130/141
f 97/129/142 98/130/142 99/131/142
f 97/129/143 99/131/143 88/118/143
f 88/118/144 99/131/144 82/109/144
f 82/109/145 99/131/145 49/54/145
f 99/131/146 98/130/146 49/54/146
f 98/130/147 96/128/147 49/54/147
f 96/128/148 95/127/148 49/54/148
f 100/132/149 49/54/149 95/127/149
f 100/132/150 95/127/150 94/126/150
f 94/125/151 101/133/151 100/134/151
f 100/134/152 101/133/152 102/135/152
f 102/136/153 103/137/153 100/132/153
f 100/132/154 103/137/154 47/52/154
f 46/51/155 103/137/155 102/136/155
f 102/135/156 39/42/156 46/138/156
f 102/135/157 104/139/157 39/42/157
f 39/42/158 104/139/158 105/140/158
f 105/140/159 106/141/159 39/42/159
f 105/140/160 107/142/160 106/141/160
f 108/143/161 106/141/161 107/142/161
f 297/144/162 108/143/162 107/142/162
f 297/144/162 107/142/162 298/145/162
f 430/146/163 429/147/163 226/148/163
f 430/146/164 226/148/164 230/149/164
f 430/146/164 230/149/164 434/150/164
f 435/151/165 335/152/165 379/153/165
f 334/154/166 332/155/166 113/156/166
f 334/157/167 113/158/167 111/159/167
f 334/157/168 111/159/168 306/160/168
f 294/161/169 34/37/169 301/162/169
f 300/163/170 301/162/170 34/37/170
f 300/163/171 34/37/171 108/143/171
f 300/163/171 108/143/171 299/164/171
f 294/161/172 295/165/172 31/34/172
f 296/166/173 31/34/173 295/165/173
f 303/167/174 304/168/174 109/169/174
f 302/170/175 303/167/175 109/169/175
f 363/171/176 302/170/176 109/169/176
f 363/172/177 109/173/177 32/35/177
f 363/172/177 32/35/177 296/166/177
f 32/35/178 109/173/178 110/174/178
f 32/35/179 110/174/179 112/175/179
f 110/174/180 111/159/180 112/175/180
f 305/176/109 110/174/109 109/173/109
f 305/176/109 109/173/109 304/177/109
f 306/160/181 110/174/181 305/176/181
f 306/160/181 111/159/181 110/174/181
f 111/159/182 113/158/182 112/175/182
f 112/175/183 113/158/183 114/178/183
f 115/179/184 112/175/184 114/178/184
f 115/179/185 114/178/185 116/180/185
f 115/179/186 116/180/186 117/181/186
f 115/179/187 117/181/187 118/182/187
f 118/182/188 119/183/188 115/179/188
f 115/179/189 119/183/189 33/36/189
f 118/182/190 35/38/190 119/183/190
f 118/182/191 38/41/191 35/38/191
f 118/182/192 117/181/192 120/184/192
f 121/185/193 118/182/193 120/184/193
f 120/186/194 122/187/194 121/188/194
f 121/188/195 122/187/195 41/46/195
f 120/186/196 43/47/196 122/187/196
f 123/189/197 43/47/197 120/186/197
f 120/184/198 124/190/198 123/191/198
f 124/190/199 125/192/199 123/191/199
f 125/193/200 126/194/200 123/189/200
f 126/194/201 127/195/201 123/189/201
f 126/194/202 128/196/202 127/195/202
f 128/196/203 129/197/203 127/195/203
f 130/198/204 127/195/204 129/197/204
f 131/199/205 130/198/205 129/197/205
f 131/199/206 129/197/206 132/200/206
f 133/201/207 131/199/207 132/200/207
f 134/202/208 133/201/208 132/200/208
f 134/202/209 132/200/209 135/203/209
f 134/202/210 135/203/210 136/204/210
f 53/58/211 134/202/211 136/204/211
f 53/58/212 136/204/212 137/205/212
f 57/62/213 53/58/213 137/205/213
f 137/205/214 136/204/214 138/206/214
f 137/205/215 138/206/215 139/207/215
f 137/205/216 139/207/216 59/64/216
f 139/207/217 140/208/217 59/64/217
f 140/208/218 141/209/218 59/64/218
f 142/210/219 59/64/219 141/209/219
f 143/211/220 142/210/220 141/209/220
f 143/211/221 141/209/221 144/212/221
f 143/211/222 144/212/222 145/213/222
f 146/214/223 143/211/223 145/213/223
f 147/215/224 146/214/224 145/213/224
f 148/216/225 147/215/225 145/213/225
f 148/216/226 145/213/226 149/217/226
f 150/218/227 148/216/227 149/217/227
f 151/219/228 150/218/228 149/217/228
f 152/220/229 151/219/229 149/217/229
f 152/220/230 149/217/230 153/221/230
f 154/222/231 152/220/231 153/221/231
f 154/222/232 153/221/232 155/223/232
f 154/222/233 155/223/233 156/224/233
f 156/224/234 157/225/234 154/222/234
f 158/226/235 157/225/235 156/224/235
f 159/227/236 158/226/236 156/224/236
f 159/227/237 156/224/237 160/228/237
f 159/227/238 160/228/238 125/193/238
f 161/229/239 159/227/239 125/193/239
f 161/229/240 125/193/240 162/230/240
f 162/231/241 163/232/241 161/233/241
f 161/233/242 163/232/242 164/234/242
f 163/232/243 165/235/243 164/234/243
f 164/234/244 165/235/244 166/236/244
f 164/237/245 166/238/245 158/226/245
f 166/236/246 167/239/246 158/240/246
f 166/236/247 168/241/247 167/239/247
f 380/242/248 167/239/248 168/241/248
f 380/242/248 168/241/248 381/243/248
f 382/244/249 383/245/249 167/239/249
f 384/246/250 167/239/250 383/245/250
f 384/246/250 169/247/250 167/239/250
f 169/248/251 157/225/251 167/249/251
f 169/248/252 151/219/252 157/225/252
f 170/80/253 151/219/253 169/248/253
f 170/80/254 243/250/254 151/219/254
f 274/251/255 194/252/255 276/253/255
f 276/253/256 194/252/256 65/254/256
f 65/254/257 194/252/257 69/90/257
f 274/251/258 193/255/258 194/252/258
f 194/252/259 193/255/259 70/91/259
f 70/91/260 193/255/260 195/256/260
f 278/257/261 195/256/261 193/255/261
f 278/257/262 193/255/262 279/258/262
f 436/259/263 221/260/263 437/261/263
f 437/261/264 221/260/264 220/262/264
f 437/261/264 220/262/264 438/263/264
f 439/264/265 438/263/265 220/262/265
f 425/265/266 439/264/266 220/262/266
f 425/265/266 220/262/266 327/266/266
f 425/265/266 327/266/266 424/267/266
f 281/268/267 74/99/267 280/269/267
f 280/269/268 74/99/268 195/270/268
f 281/268/267 196/271/267 74/99/267
f 197/272/269 74/99/269 196/271/269
f 197/272/270 196/271/270 198/273/270
f 197/272/271 198/273/271 199/274/271
f 197/272/109 199/274/109 76/101/109
f 76/101/272 199/274/272 200/275/272
f 76/101/273 200/275/273 201/276/273
f 201/276/274 200/275/274 202/277/274
f 201/276/275 202/277/275 203/278/275
f 204/279/276 201/276/276 203/278/276
f 205/280/277 204/279/277 203/278/277
f 316/281/278 205/280/278 203/278/278
f 316/281/278 203/278/278 317/282/278
f 318/283/279 319/284/279 206/285/279
f 318/283/280 206/285/280 205/280/280
f 206/285/281 240/286/281 205/280/281
f 206/285/282 239/287/282 240/286/282
f 240/286/283 239/287/283 84/288/283
f 240/286/284 84/288/284 79/104/284
f 240/286/285 79/104/285 204/279/285
f 361/289/286 239/287/286 206/285/286
f 361/289/286 206/285/286 362/290/286
f 358/291/287 207/292/287 321/293/287
f 320/294/288 321/293/288 207/292/288
f 320/294/289 207/292/289 86/115/289
f 320/294/289 86/115/289 322/295/289
f 322/295/290 85/113/290 360/296/290
f 359/297/291 360/296/291 85/113/291
f 359/298/292 85/299/292 239/287/292
f 208/300/293 86/115/293 207/292/293
f 207/292/294 209/301/294 208/300/294
f 210/302/295 208/300/295 209/301/295
f 211/303/296 210/302/296 209/301/296
f 211/303/297 209/301/297 212/304/297
f 211/303/298 212/304/298 92/123/298
f 213/305/299 92/123/299 212/304/299
f 214/306/300 213/305/300 212/304/300
f 215/307/301 214/306/301 212/304/301
f 215/307/302 212/304/302 216/308/302
f 215/307/303 216/308/303 217/309/303
f 215/307/304 217/309/304 102/135/304
f 216/308/305 218/310/305 217/309/305
f 217/309/306 218/310/306 105/140/306
f 216/308/307 219/311/307 218/310/307
f 323/312/308 218/310/308 219/311/308
f 323/312/308 219/311/308 324/313/308
f 426/314/309 228/315/309 427/316/309
f 428/317/310 427/316/310 228/315/310
f 428/317/163 228/315/163 226/148/163
f 226/148/311 228/315/311 227/318/311
f 224/319/312 226/148/312 227/318/312
f 224/319/313 227/318/313 222/320/313
f 224/319/314 222/320/314 223/321/314
f 223/321/315 225/322/315 224/319/315
f 116/323/316 225/322/316 223/321/316
f 116/323/317 223/321/317 162/231/317
f 124/190/318 116/180/318 162/324/318
f 165/235/319 223/321/319 222/320/319
f 165/235/320 222/320/320 168/241/320
f 222/320/321 221/260/321 168/241/321
f 221/260/322 222/320/322 227/318/322
f 221/260/323 227/318/323 229/325/323
f 225/322/324 226/148/324 224/319/324
f 227/318/325 228/315/325 229/325/325
f 328/326/326 229/325/326 228/315/326
f 328/326/326 228/315/326 329/327/326
f 336/328/327 229/325/327 331/329/327
f 330/330/328 331/329/328 229/325/328
f 336/328/329 220/262/329 229/325/329
f 357/331/330 355/332/330 219/311/330
f 357/331/331 219/311/331 238/333/331
f 357/331/331 238/333/331 358/291/331
f 355/332/332 356/334/332 219/311/332
f 284/335/333 196/271/333 290/336/333
f 284/335/334 233/337/334 196/271/334
f 328/326/335 330/330/335 229/325/335
f 326/338/336 218/310/336 325/339/336
f 326/338/337 107/142/337 218/310/337
f 426/314/309 329/327/309 228/315/309
f 356/334/338 324/313/338 219/311/338
f 323/312/339 325/339/339 218/310/339
f 216/308/340 238/333/340 219/311/340
f 216/308/341 212/304/341 238/333/341
f 101/133/342 214/306/342 215/307/342
f 93/124/343 214/306/343 101/133/343
f 93/124/344 213/305/344 214/306/344
f 212/304/345 209/301/345 238/333/345
f 91/122/346 210/302/346 211/303/346
f 91/122/347 208/300/347 210/302/347
f 207/292/348 238/333/348 209/301/348
f 86/115/349 208/300/349 91/122/349
f 358/291/287 238/333/287 207/292/287
f 284/335/350 285/340/350 233/337/350
f 286/341/351 233/337/351 285/340/351
f 286/341/352 234/342/352 233/337/352
f 233/337/353 234/342/353 235/343/353
f 199/274/354 233/337/354 235/343/354
f 287/344/355 235/343/355 234/342/355
f 287/344/356 234/342/356 288/345/356
f 346/346/357 289/347/357 348/348/357
f 346/346/357 236/349/357 289/347/357
f 289/347/358 236/349/358 235/343/358
f 202/277/359 235/343/359 236/349/359
f 350/350/360 202/277/360 236/349/360
f 350/350/360 236/349/360 349/351/360
f 351/352/361 352/353/361 237/354/361
f 351/352/362 237/354/362 202/277/362
f 352/353/363 353/355/363 237/354/363
f 353/355/364 354/356/364 237/354/364
f 317/282/365 237/354/365 354/356/365
f 347/357/366 349/351/366 236/349/366
f 351/352/362 202/277/362 350/350/362
f 346/346/367 347/357/367 236/349/367
f 289/347/358 235/343/358 287/344/358
f 286/341/368 288/345/368 234/342/368
f 359/298/292 239/287/292 361/289/292
f 319/284/369 362/290/369 206/285/369
f 317/282/365 203/278/365 237/354/365
f 318/283/280 205/280/280 316/281/280
f 240/286/370 204/279/370 205/280/370
f 204/279/371 77/102/371 201/276/371
f 203/278/372 202/277/372 237/354/372
f 202/277/373 200/275/373 235/343/373
f 199/274/374 235/343/374 200/275/374
f 199/274/375 198/273/375 233/337/375
f 198/273/376 196/271/376 233/337/376
f 281/268/377 290/336/377 196/271/377
f 336/328/378 327/266/378 220/262/378
f 221/260/379 229/325/379 220/262/379
f 436/259/263 168/241/263 221/260/263
f 275/358/380 279/258/380 193/255/380
f 280/269/381 195/270/381 278/359/381
f 274/251/382 275/358/382 193/255/382
f 436/259/383 381/243/383 168/241/383
f 380/242/384 382/244/384 167/239/384
f 165/235/385 168/241/385 166/236/385
f 163/232/386 223/321/386 165/235/386
f 162/231/387 223/321/387 163/232/387
f 164/237/388 159/227/388 161/229/388
f 160/228/389 244/360/389 125/193/389
f 125/193/390 244/360/390 128/196/390
f 128/196/391 244/360/391 245/361/391
f 245/361/392 244/360/392 246/362/392
f 245/361/393 246/362/393 247/363/393
f 245/361/394 247/363/394 129/197/394
f 248/364/395 247/363/395 246/362/395
f 139/207/396 248/364/396 246/362/396
f 135/203/397 247/363/397 248/364/397
f 244/360/398 249/365/398 246/362/398
f 246/362/399 249/365/399 140/208/399
f 244/360/400 250/366/400 249/365/400
f 249/365/401 250/366/401 141/209/401
f 244/360/402 251/367/402 250/366/402
f 251/367/403 252/368/403 250/366/403
f 252/368/404 144/212/404 250/366/404
f 251/367/405 153/221/405 252/368/405
f 155/223/406 251/367/406 244/360/406
f 155/223/407 244/360/407 160/228/407
f 164/237/408 158/226/408 159/227/408
f 167/249/409 157/225/409 158/226/409
f 160/228/410 156/224/410 155/223/410
f 153/221/411 251/367/411 155/223/411
f 157/225/412 152/220/412 154/222/412
f 153/221/413 149/217/413 252/368/413
f 151/219/414 152/220/414 157/225/414
f 243/250/415 150/218/415 151/219/415
f 171/75/416 150/218/416 243/250/416
f 242/369/417 148/216/417 150/218/417
f 172/73/418 242/369/418 150/218/418
f 176/370/419 242/369/419 172/73/419
f 173/371/420 176/370/420 172/73/420
f 175/372/421 176/370/421 173/371/421
f 173/371/422 174/373/422 175/372/422
f 175/372/423 174/373/423 232/374/423
f 175/372/424 232/374/424 181/375/424
f 180/376/425 175/372/425 181/375/425
f 259/377/426 180/376/426 181/375/426
f 259/377/426 181/375/426 260/378/426
f 291/379/427 183/380/427 265/381/427
f 265/381/428 183/380/428 182/382/428
f 265/381/428 182/382/428 263/383/428
f 262/384/429 263/383/429 182/382/429
f 262/384/430 182/382/430 180/376/430
f 262/384/430 180/376/430 264/385/430
f 180/376/431 182/382/431 179/386/431
f 182/382/432 183/380/432 179/386/432
f 179/386/433 183/380/433 184/387/433
f 178/388/434 179/386/434 184/387/434
f 178/388/435 184/387/435 241/389/435
f 178/388/436 241/389/436 177/390/436
f 178/388/437 177/390/437 175/372/437
f 241/389/438 147/215/438 177/390/438
f 147/215/439 242/369/439 177/390/439
f 241/389/109 187/391/109 147/215/109
f 241/389/440 184/387/440 187/391/440
f 187/391/441 184/387/441 186/392/441
f 187/391/442 186/392/442 188/393/442
f 187/391/443 188/393/443 146/214/443
f 146/214/444 188/393/444 189/394/444
f 188/393/445 190/395/445 189/394/445
f 190/395/446 191/396/446 189/394/446
f 191/396/447 61/66/447 189/394/447
f 142/210/448 189/394/448 61/66/448
f 266/397/449 191/396/449 190/395/449
f 266/397/449 190/395/449 267/398/449
f 394/399/450 450/400/450 174/373/450
f 448/401/451 174/373/451 450/400/451
f 448/401/451 231/402/451 174/373/451
f 448/401/452 449/403/452 231/402/452
f 449/403/453 456/404/453 231/402/453
f 455/405/454 231/402/454 456/404/454
f 282/406/455 231/402/455 283/407/455
f 282/406/455 232/374/455 231/402/455
f 261/408/456 232/374/456 282/406/456
f 269/409/457 185/410/457 292/411/457
f 291/379/458 292/411/458 185/410/458
f 269/409/459 192/412/459 185/410/459
f 192/412/460 186/392/460 185/410/460
f 192/412/461 190/395/461 186/392/461
f 269/409/462 268/413/462 192/412/462
f 267/398/463 192/412/463 268/413/463
f 455/405/454 283/407/454 231/402/454
f 270/414/464 271/415/464 191/396/464
f 272/416/465 191/396/465 271/415/465
f 392/72/466 393/417/466 173/371/466
f 272/416/467 273/418/467 62/67/467
f 272/416/465 62/67/465 191/396/465
f 394/399/468 173/371/468 393/417/468
f 267/398/463 190/395/463 192/412/463
f 266/397/469 270/414/469 191/396/469
f 186/392/470 190/395/470 188/393/470
f 185/410/471 186/392/471 184/387/471
f 179/386/472 178/388/472 175/372/472
f 183/380/473 185/410/473 184/387/473
f 291/379/427 185/410/427 183/380/427
f 261/408/474 260/378/474 181/375/474
f 259/377/475 264/385/475 180/376/475
f 180/376/476 179/386/476 175/372/476
f 261/408/456 181/375/456 232/374/456
f 232/374/477 174/373/477 231/402/477
f 394/399/468 174/373/468 173/371/468
f 177/390/478 176/370/478 175/372/478
f 177/390/479 242/369/479 176/370/479
f 145/213/480 252/368/480 149/217/480
f 147/215/481 148/216/481 242/369/481
f 187/391/482 146/214/482 147/215/482
f 146/214/483 189/394/483 143/211/483
f 145/213/484 144/212/484 252/368/484
f 144/212/485 141/209/485 250/366/485
f 143/211/486 189/394/486 142/210/486
f 249/365/487 141/209/487 140/208/487
f 139/207/488 246/362/488 140/208/488
f 139/207/489 138/206/489 248/364/489
f 138/206/490 136/204/490 248/364/490
f 135/203/491 248/364/491 136/204/491
f 135/203/492 132/200/492 247/363/492
f 52/57/493 133/201/493 134/202/493
f 45/50/494 131/199/494 133/201/494
f 253/419/495 131/199/495 45/50/495
f 132/200/496 129/197/496 247/363/496
f 253/419/497 130/198/497 131/199/497
f 253/419/498 254/420/498 130/198/498
f 43/47/499 254/420/499 253/419/499
f 43/47/500 127/195/500 254/420/500
f 254/420/501 127/195/501 130/198/501
f 128/196/502 245/361/502 129/197/502
f 125/193/503 128/196/503 126/194/503
f 124/190/504 162/324/504 125/192/504
f 123/189/505 127/195/505 43/47/505
f 41/44/506 118/182/506 121/185/506
f 117/181/507 124/190/507 120/184/507
f 117/181/508 116/180/508 124/190/508
f 114/421/509 225/322/509 116/323/509
f 225/322/510 114/421/510 230/149/510
f 112/175/511 115/179/511 33/36/511
f 113/156/512 230/149/512 114/421/512
f 335/152/513 230/149/513 113/156/513
f 332/155/514 333/422/514 113/156/514
f 335/152/515 113/156/515 333/422/515
f 435/151/165 230/149/165 335/152/165
f 435/151/164 434/150/164 230/149/164
f 225/322/516 230/149/516 226/148/516
f 428/317/163 226/148/163 429/147/163
f 326/338/517 298/145/517 107/142/517
f 297/144/518 299/164/518 108/143/518
f 106/141/519 108/143/519 37/40/519
f 105/140/520 218/310/520 107/142/520
f 217/309/521 105/140/521 104/139/521
f 102/135/522 217/309/522 104/139/522
f 101/133/523 215/307/523 102/135/523
f 94/125/524 93/124/524 101/133/524
f 93/124/525 92/123/525 213/305/525
f 91/122/526 211/303/526 92/123/526
f 91/122/527 90/120/527 86/115/527
f 89/119/528 97/129/528 88/118/528
f 87/116/529 86/115/529 90/120/529
f 322/295/530 86/115/530 85/113/530
f 85/113/531 84/112/531 239/423/531
f 88/118/532 82/109/532 83/110/532
f 84/111/533 80/106/533 79/105/533
f 204/279/534 79/104/534 77/102/534
f 201/276/535 77/102/535 76/101/535
f 75/100/536 197/272/536 76/101/536
f 75/100/537 74/99/537 197/272/537
f 74/99/538 71/98/538 195/270/538
f 73/96/539 78/103/539 72/97/539
f 70/91/540 195/256/540 71/93/540
f 194/252/541 70/91/541 69/90/541
f 68/88/542 72/95/542 67/87/542
f 69/89/543 66/86/543 65/84/543
f 276/253/256 65/254/256 277/424/256
f 384/425/544 385/426/544 169/248/544
f 386/81/545 169/248/545 385/426/545
f 386/81/545 170/80/545 169/248/545
f 171/75/546 243/250/546 170/80/546
f 172/73/547 150/218/547 171/75/547
f 392/72/95 173/371/95 172/73/95
f 293/427/548 62/67/548 273/418/548
f 293/427/549 256/71/549 63/68/549
f 255/70/550 257/85/550 64/69/550
f 293/427/551 63/68/551 62/67/551
f 191/396/552 62/67/552 61/66/552
f 142/210/553 61/66/553 59/64/553
f 64/69/554 58/63/554 60/65/554
f 57/62/555 137/205/555 59/64/555
f 64/69/556 56/61/556 58/63/556
f 56/61/557 67/87/557 55/60/557
f 57/62/558 54/59/558 53/58/558
f 52/57/559 134/202/559 53/58/559
f 52/57/560 48/53/560 133/201/560
f 51/56/561 55/60/561 50/55/561
f 82/109/562 49/54/562 50/55/562
f 100/132/563 47/52/563 49/54/563
f 45/50/564 133/201/564 48/53/564
f 46/51/565 47/52/565 103/137/565
f 45/50/566 44/49/566 253/419/566
f 43/47/567 253/419/567 44/49/567
f 41/46/568 122/187/568 43/47/568
f 46/138/569 40/43/569 42/45/569
f 118/182/570 41/44/570 38/41/570
f 46/138/571 39/42/571 40/43/571
f 39/42/572 106/141/572 37/40/572
f 37/40/573 108/143/573 34/37/573
f 38/41/574 36/39/574 35/38/574
f 119/183/575 35/38/575 33/36/575
f 294/161/576 31/34/576 34/37/576
f 33/36/577 32/35/577 112/175/577
f 296/166/173 32/35/173 31/34/173
o Object.4
v -0.034130 0.736732 0.087844
v -0.031139 0.721778 0.097814
v -0.020173 0.657975 0.088841
v -0.022166 0.578220 0.120743
v -0.017182 0.531364 0.121740
v -0.010203 0.588190 0.123734
v 0.005748 0.613113 0.127722
v -0.020173 0.591180 0.109777
v -0.018179 0.653987 0.105789
v 0.023692 0.710812 0.149654
v -0.009709 0.754265 0.135433
v 0.010361 0.746520 0.147462
v 0.009250 0.744121 0.146796
v 0.012502 0.739663 0.148746
v -0.049285 0.712898 0.111713
v -0.049492 0.678700 0.111589
v -0.046449 0.728711 0.113412
v -0.051663 0.739888 0.110287
v -0.034983 0.763197 0.120284
v -0.029193 0.584152 0.123755
v -0.029751 0.588185 0.123420
v -0.026493 0.544081 0.125373
v 0.014379 0.621931 0.149870
v 0.018258 0.642923 0.152195
v 0.001856 0.557277 0.142365
v -0.016494 0.532052 0.131366
v -0.023984 0.537889 0.126877
v 0.024152 0.653122 0.155728
v -0.041224 0.671271 0.116544
v -0.039305 0.626806 0.117694
v -0.037080 0.608406 0.119028
v 0.041576 0.699624 0.166171
v 0.039927 0.711518 0.165183
v 0.018957 0.732715 0.152614
vn -0.5141 -0.0000 0.8577
vn -0.5141 -0.0001 0.8578
vn 0.2388 0.0047 -0.9711
vn -0.4395 -0.0658 -0.8958
vn 0.8119 -0.5835 -0.0163
vn 0.7800 -0.0790 -0.6207
vn -0.7132 -0.3856 -0.5854
vn -0.5733 -0.1280 -0.8093
vn -0.4485 -0.0424 -0.8928
vn -0.6281 -0.7707 -0.1074
vn 0.8576 -0.4689 -0.2112
vn 0.7031 0.0303 -0.7105
vn 0.6069 -0.0695 -0.7917
vn 0.7187 -0.3653 -0.5916
vn 0.7926 -0.5495 0.2642
vn 0.9349 -0.3126 -0.1678
vn 0.7716 -0.0726 -0.6320
vn 0.6900 0.0356 -0.7230
vn 0.6657 0.2394 -0.7068
vn 0.6761 0.2403 -0.6965
vn 0.7026 0.2161 -0.6779
vn 0.7993 -0.2144 -0.5613
vn 0.7994 -0.2144 -0.5613
vn 0.5613 0.6406 -0.5240
vn 0.5447 0.6568 -0.5215
vn -0.5651 0.6319 -0.5304
vn -0.7239 -0.4770 -0.4984
vn -0.6549 0.1959 -0.7299
vn -0.6101 0.0066 -0.7923
vn -0.7239 -0.4771 -0.4984
vn -0.6483 -0.7548 0.1002
vn -0.7689 -0.4270 -0.4759
vn -0.4868 -0.1389 -0.8624
vn 0.6096 -0.5646 -0.5564
vt 0.000000 0.000000
vt 0.686768 0.813721
vt 0.684814 0.808838
vt 0.696045 0.810791
vt 0.686120 0.815755
vt 0.694182 0.813655
vt 0.692289 0.803927
vt 0.698402 0.810286
vt 0.679243 0.799534
vt 0.681064 0.818066
vt 0.685347 0.815979
vt 0.682861 0.812988
vt 0.677449 0.818885
vt 0.669356 0.819855
vt 0.666865 0.822507
vt 0.671143 0.812988
vt 0.667236 0.813965
vt 0.660889 0.799316
vt 0.679443 0.805664
vt 0.675164 0.798294
vt 0.673173 0.796650
vt 0.662751 0.794108
vt 0.660543 0.794476
vt 0.655235 0.801201
vt 0.652788 0.803518
vt 0.656494 0.818115
vt 0.652075 0.804646
vt 0.653076 0.817627
vt 0.651551 0.804116
vt 0.647709 0.810420
vt 0.646804 0.820136
vt 0.653935 0.822866
vt 0.656211 0.822289
vt 0.660371 0.823032
vt 0.695705 0.813103
s 0
usemtl Mat_0
f 483/428/578 478/428/578 480/428/578
f 485/428/578 483/428/578 480/428/578
f 485/428/578 484/428/578 483/428/578
f 479/428/578 483/428/578 481/428/578
f 479/428/578 481/428/578 489/428/578
f 488/428/578 491/428/578 487/428/578
f 491/428/578 474/428/578 487/428/578
f 486/428/578 489/428/578 482/428/578
f 488/428/578 486/428/578 490/428/578
f 472/428/578 474/428/578 492/428/578
f 471/428/578 474/428/578 472/428/578
f 476/428/578 469/428/578 477/428/578
f 475/428/578 469/428/578 476/428/578
f 470/428/578 475/428/578 473/428/578
f 474/428/578 470/428/578 473/428/578
f 475/428/578 470/428/578 469/428/578
f 470/428/579 474/428/579 471/428/579
f 474/428/578 491/428/578 492/428/578
f 491/428/578 488/428/578 490/428/578
f 489/428/578 486/428/578 488/428/578
f 489/428/578 481/428/578 482/428/578
f 483/428/578 479/428/578 478/428/578
f 462/429/580 464/430/580 463/431/580
f 478/432/581 462/429/581 463/431/581
f 478/432/581 463/431/581 480/433/581
f 483/434/582 484/435/582 463/431/582
f 481/436/583 483/434/583 463/431/583
f 489/437/584 462/429/584 479/438/584
f 489/437/584 466/439/584 462/429/584
f 489/437/585 488/440/585 466/439/585
f 487/441/586 466/439/586 488/440/586
f 474/442/587 467/443/587 487/441/587
f 474/442/587 461/444/587 467/443/587
f 467/443/588 461/444/588 468/445/588
f 467/443/589 468/445/589 465/446/589
f 467/443/590 465/446/590 466/439/590
f 466/439/591 465/446/591 464/430/591
f 482/447/592 464/430/592 465/446/592
f 482/447/592 465/446/592 486/448/592
f 490/449/593 486/448/593 465/446/593
f 481/436/594 464/430/594 482/447/594
f 490/449/595 465/446/595 468/445/595
f 490/449/595 468/445/595 491/450/595
f 492/451/596 491/450/596 468/445/596
f 492/451/597 468/445/597 461/444/597
f 492/451/597 461/444/597 472/452/597
f 472/452/598 460/453/598 471/454/598
f 471/454/599 460/453/599 459/455/599
f 471/454/600 459/455/600 470/456/600
f 469/457/601 470/456/601 459/455/601
f 477/458/602 469/457/602 459/455/602
f 476/459/603 477/458/603 459/455/603
f 476/459/604 460/453/604 475/460/604
f 473/461/605 475/460/605 460/453/605
f 473/461/606 460/453/606 461/444/606
f 476/459/607 459/455/607 460/453/607
f 472/452/598 461/444/598 460/453/598
f 473/461/606 461/444/606 474/442/606
f 487/441/586 467/443/586 466/439/586
f 484/435/608 485/462/608 463/431/608
f 485/462/609 480/433/609 463/431/609
f 478/432/610 479/438/610 462/429/610
f 481/436/594 463/431/594 464/430/594
f 462/429/611 466/439/611 464/430/611
